{
    "asset" : {
        "generator" : "Khronos glTF Blender I/O v1.2.75",
        "version" : "2.0"
    },
    "scene" : 0,
    "scenes" : [
        {
            "name" : "Scene",
            "nodes" : [
                0,
                1,
                2,
                3,
                4,
                5
            ]
        }
    ],
    "nodes" : [
        {
            "name" : "Empty",
            "rotation" : [
                0.7071068286895752,
                0,
                0,
                0.7071067094802856
            ],
            "translation" : [
                -0.0059490203857421875,
                -0.01189732551574707,
                0
            ]
        },
        {
            "mesh" : 0,
            "name" : "Sphere",
            "scale" : [
                0.6200771927833557,
                0.6200771927833557,
                0.6200771927833557
            ],
            "translation" : [
                -0.7096240520477295,
                1.554335117340088,
                -0.022811949253082275
            ]
        },
        {
            "mesh" : 1,
            "name" : "Cube",
            "scale" : [
                0.8274198174476624,
                0.8274198174476624,
                0.38365814089775085
            ],
            "translation" : [
                -0.5163379311561584,
                0.2973284125328064,
                0.21474066376686096
            ]
        },
        {
            "mesh" : 2,
            "name" : "Cube.001",
            "scale" : [
                0.5607413053512573,
                1.2048847675323486,
                0.17207105457782745
            ],
            "translation" : [
                0.5770401954650879,
                0.9796961545944214,
                0.16905754804611206
            ]
        },
        {
            "mesh" : 3,
            "name" : "Cube.002",
            "scale" : [
                0.3682571053504944,
                0.3682571053504944,
                0.3682571053504944
            ],
            "translation" : [
                0.7708024382591248,
                -0.16565343737602234,
                0.21853016316890717
            ]
        },
        {
            "name" : "Sun",
            "rotation" : [
                0.1843101680278778,
                0.039010971784591675,
                -0.20336392521858215,
                0.9608075022697449
            ]
        }
    ],
    "materials" : [
        {
            "doubleSided" : true,
            "emissiveFactor" : [
                0,
                0,
                0
            ],
            "name" : "Material.002",
            "pbrMetallicRoughness" : {
                "baseColorFactor" : [
                    1,
                    0.054480165243148804,
                    0.03189606964588165,
                    1
                ],
                "metallicFactor" : 0,
                "roughnessFactor" : 0.5
            }
        },
        {
            "doubleSided" : true,
            "emissiveFactor" : [
                0,
                0,
                0
            ],
            "name" : "Material.004",
            "pbrMetallicRoughness" : {
                "baseColorFactor" : [
                    0,
                    0.1119324341416359,
                    0.09758738428354263,
                    1
                ],
                "metallicFactor" : 0,
                "roughnessFactor" : 0.5
            }
        },
        {
            "doubleSided" : true,
            "emissiveFactor" : [
                0,
                0,
                0
            ],
            "name" : "Material.006",
            "pbrMetallicRoughness" : {
                "baseColorFactor" : [
                    0.038204312324523926,
                    0.00604885071516037,
                    0.9911019802093506,
                    1
                ],
                "metallicFactor" : 0,
                "roughnessFactor" : 0.5
            }
        },
        {
            "doubleSided" : true,
            "emissiveFactor" : [
                0,
                0,
                0
            ],
            "name" : "Material.003",
            "pbrMetallicRoughness" : {
                "baseColorFactor" : [
                    0.964686393737793,
                    0.6938719153404236,
                    0,
                    1
                ],
                "metallicFactor" : 0,
                "roughnessFactor" : 0.5
            }
        }
    ],
    "meshes" : [
        {
            "name" : "Sphere",
            "primitives" : [
                {
                    "attributes" : {
                        "POSITION" : 0,
                        "NORMAL" : 1,
                        "TEXCOORD_0" : 2
                    },
                    "indices" : 3,
                    "material" : 0
                }
            ]
        },
        {
            "name" : "Cube.001",
            "primitives" : [
                {
                    "attributes" : {
                        "POSITION" : 4,
                        "NORMAL" : 5,
                        "TEXCOORD_0" : 6
                    },
                    "indices" : 7,
                    "material" : 1
                }
            ]
        },
        {
            "name" : "Cube.002",
            "primitives" : [
                {
                    "attributes" : {
                        "POSITION" : 8,
                        "NORMAL" : 9,
                        "TEXCOORD_0" : 10
                    },
                    "indices" : 11,
                    "material" : 2
                }
            ]
        },
        {
            "name" : "Cube.003",
            "primitives" : [
                {
                    "attributes" : {
                        "POSITION" : 12,
                        "NORMAL" : 13,
                        "TEXCOORD_0" : 14
                    },
                    "indices" : 15,
                    "material" : 3
                }
            ]
        }
    ],
    "accessors" : [
        {
            "bufferView" : 0,
            "componentType" : 5126,
            "count" : 559,
            "max" : [
                1.000000238418579,
                1,
                1.0000003576278687
            ],
            "min" : [
                -0.9999998211860657,
                -1,
                -1
            ],
            "type" : "VEC3"
        },
        {
            "bufferView" : 1,
            "componentType" : 5126,
            "count" : 559,
            "type" : "VEC3"
        },
        {
            "bufferView" : 2,
            "componentType" : 5126,
            "count" : 559,
            "type" : "VEC2"
        },
        {
            "bufferView" : 3,
            "componentType" : 5123,
            "count" : 2880,
            "type" : "SCALAR"
        },
        {
            "bufferView" : 4,
            "componentType" : 5126,
            "count" : 436,
            "max" : [
                0.5556778907775879,
                0.843825101852417,
                1
            ],
            "min" : [
                -1.0288764238357544,
                -1.0199605226516724,
                -1.0000001192092896
            ],
            "type" : "VEC3"
        },
        {
            "bufferView" : 5,
            "componentType" : 5126,
            "count" : 436,
            "type" : "VEC3"
        },
        {
            "bufferView" : 6,
            "componentType" : 5126,
            "count" : 436,
            "type" : "VEC2"
        },
        {
            "bufferView" : 7,
            "componentType" : 5123,
            "count" : 756,
            "type" : "SCALAR"
        },
        {
            "bufferView" : 8,
            "componentType" : 5126,
            "count" : 34,
            "max" : [
                1,
                1,
                1
            ],
            "min" : [
                -1,
                -1.2537285089492798,
                -1
            ],
            "type" : "VEC3"
        },
        {
            "bufferView" : 9,
            "componentType" : 5126,
            "count" : 34,
            "type" : "VEC3"
        },
        {
            "bufferView" : 10,
            "componentType" : 5126,
            "count" : 34,
            "type" : "VEC2"
        },
        {
            "bufferView" : 11,
            "componentType" : 5123,
            "count" : 60,
            "type" : "SCALAR"
        },
        {
            "bufferView" : 12,
            "componentType" : 5126,
            "count" : 24,
            "max" : [
                1,
                0.26337605714797974,
                1
            ],
            "min" : [
                -0.39532899856567383,
                -1,
                -1.0000001192092896
            ],
            "type" : "VEC3"
        },
        {
            "bufferView" : 13,
            "componentType" : 5126,
            "count" : 24,
            "type" : "VEC3"
        },
        {
            "bufferView" : 14,
            "componentType" : 5126,
            "count" : 24,
            "type" : "VEC2"
        },
        {
            "bufferView" : 15,
            "componentType" : 5123,
            "count" : 36,
            "type" : "SCALAR"
        }
    ],
    "bufferViews" : [
        {
            "buffer" : 0,
            "byteLength" : 6708,
            "byteOffset" : 0
        },
        {
            "buffer" : 0,
            "byteLength" : 6708,
            "byteOffset" : 6708
        },
        {
            "buffer" : 0,
            "byteLength" : 4472,
            "byteOffset" : 13416
        },
        {
            "buffer" : 0,
            "byteLength" : 5760,
            "byteOffset" : 17888
        },
        {
            "buffer" : 0,
            "byteLength" : 5232,
            "byteOffset" : 23648
        },
        {
            "buffer" : 0,
            "byteLength" : 5232,
            "byteOffset" : 28880
        },
        {
            "buffer" : 0,
            "byteLength" : 3488,
            "byteOffset" : 34112
        },
        {
            "buffer" : 0,
            "byteLength" : 1512,
            "byteOffset" : 37600
        },
        {
            "buffer" : 0,
            "byteLength" : 408,
            "byteOffset" : 39112
        },
        {
            "buffer" : 0,
            "byteLength" : 408,
            "byteOffset" : 39520
        },
        {
            "buffer" : 0,
            "byteLength" : 272,
            "byteOffset" : 39928
        },
        {
            "buffer" : 0,
            "byteLength" : 120,
            "byteOffset" : 40200
        },
        {
            "buffer" : 0,
            "byteLength" : 288,
            "byteOffset" : 40320
        },
        {
            "buffer" : 0,
            "byteLength" : 288,
            "byteOffset" : 40608
        },
        {
            "buffer" : 0,
            "byteLength" : 192,
            "byteOffset" : 40896
        },
        {
            "buffer" : 0,
            "byteLength" : 72,
            "byteOffset" : 41088
        }
    ],
    "buffers" : [
        {
            "byteLength" : 41160,
            "uri" : "data:application/octet-stream;base64,"
        }
    ]
}
