<?xml version="1.0" standalone="no"?>
<!DOCTYPE svg PUBLIC "-//W3C//DTD SVG 1.1//EN" "http://www.w3.org/Graphics/SVG/1.1/DTD/svg11.dtd" >
<svg xmlns="http://www.w3.org/2000/svg" xmlns:xlink="http://www.w3.org/1999/xlink" version="1.1">
<metadata>
Created by FontForge 20200306 at Wed Aug  1 17:26:49 2018
 By convertio
Mark Bloom and Joe Leadbeater (c) 2018
</metadata>
<defs>
<font id="Aeonik-Light" horiz-adv-x="529" >
  <font-face 
    font-family="Aeonik Light"
    font-weight="250"
    font-stretch="normal"
    units-per-em="1000"
    panose-1="2 1 5 3 3 3 0 0 0 0"
    ascent="800"
    descent="-200"
    x-height="507"
    cap-height="700"
    bbox="-352 -206 2173 897"
    underline-thickness="38"
    underline-position="-200"
    unicode-range="U+0020-1F10C"
  />
<missing-glyph horiz-adv-x="620" 
d="M80 700h460v-768h-460v768z" />
    <glyph glyph-name="fi" unicode="fi" horiz-adv-x="485" 
d="M424 0h-51v460h-228v-460h-51v460h-96v47h96v75c0 40.667 9.33301 70.5 28 89.5s49 28.5 91 28.5h75v-47h-73c-25.333 0 -43.333 -5.33301 -54 -16s-16 -28.667 -16 -54v-76h279v-507zM425 684c6.66699 -6.66699 10 -15.667 10 -27c0 -10.667 -3.5 -19.5 -10.5 -26.5
s-15.833 -10.5 -26.5 -10.5s-19.5 3.5 -26.5 10.5s-10.5 15.833 -10.5 26.5s3.5 19.5 10.5 26.5s15.833 10.5 26.5 10.5c11.333 0 20.333 -3.33301 27 -10z" />
    <glyph glyph-name="f_f.liga" unicode="ff" horiz-adv-x="573" 
d="M440 637c-10.667 -10.667 -16 -28.667 -16 -54v-76h152v-47h-152v-460h-51v460h-228v-460h-51v460h-96v47h96v75c0 40.667 9.33301 70.5 28 89.5s49 28.5 91 28.5h75v-47h-73c-25.333 0 -43.333 -5.33301 -54 -16s-16 -28.667 -16 -54v-76h228v75
c0 40.667 9.33301 70.5 28 89.5s48.667 28.5 90 28.5h86v-47h-83c-25.333 0 -43.333 -5.33301 -54 -16z" />
    <glyph glyph-name="f_f_i.liga" unicode="ffi" horiz-adv-x="764" 
d="M703 0h-52v460h-227v-460h-51v460h-228v-460h-51v460h-96v47h96v75c0 40.667 9.33301 70.5 28 89.5s49 28.5 91 28.5h75v-47h-73c-25.333 0 -43.333 -5.33301 -54 -16s-16 -28.667 -16 -54v-76h228v75c0 40.667 9.33301 70.5 28 89.5s48.667 28.5 90 28.5h76v-47h-73
c-25.333 0 -43.333 -5.33301 -54 -16s-16 -28.667 -16 -54v-76h279v-507zM703.5 683.5c7 -7 10.5 -15.833 10.5 -26.5s-3.5 -19.5 -10.5 -26.5s-15.833 -10.5 -26.5 -10.5s-19.5 3.5 -26.5 10.5s-10.5 15.833 -10.5 26.5s3.5 19.5 10.5 26.5s15.833 10.5 26.5 10.5
s19.5 -3.5 26.5 -10.5z" />
    <glyph glyph-name="f_f_t.liga" unicode="fft" horiz-adv-x="857" 
d="M847 47v-47h-77c-42.667 0 -73.167 9.33301 -91.5 28s-27.5 48.667 -27.5 90v342h-227v-460h-51v460h-228v-460h-51v460h-96v47h96v75c0 40.667 9.33301 70.5 28 89.5s49 28.5 91 28.5h75v-47h-73c-25.333 0 -43.333 -5.33301 -54 -16s-16 -28.667 -16 -54v-76h228v75
c0 40.667 9.33301 70.5 28 89.5s48.667 28.5 90 28.5h76v-47h-73c-25.333 0 -43.333 -5.33301 -54 -16s-16 -28.667 -16 -54v-76h227v142h52v-142h134v-47h-134v-341c0 -26 5.33301 -44.5 16 -55.5s28.667 -16.5 54 -16.5h74z" />
    <glyph glyph-name="f_t.liga" unicode="ft" horiz-adv-x="578" 
d="M568 47v-47h-77c-42.667 0 -73 9.33301 -91 28s-27 48.667 -27 90v342h-228v-460h-51v460h-96v47h96v75c0 40.667 9.33301 70.5 28 89.5s49 28.5 91 28.5h75v-47h-73c-25.333 0 -43.333 -5.33301 -54 -16s-16 -28.667 -16 -54v-76h228v142h51v-142h135v-47h-135v-341
c0 -26 5.33301 -44.5 16 -55.5s28.667 -16.5 54 -16.5h74z" />
    <glyph glyph-name="t_t.liga" unicode="tt" horiz-adv-x="578" 
d="M568 47v-47h-77c-42.667 0 -73 9.33301 -91 28s-27 48.667 -27 90v342h-228v-341c0 -26 5.33301 -44.5 16 -55.5s28.667 -16.5 54 -16.5h61v-47h-63c-42.667 0 -73.167 9.33301 -91.5 28s-27.5 48.667 -27.5 90v342h-96v47h96v142h51v-142h228v142h51v-142h135v-47h-135
v-341c0 -26 5.33301 -44.5 16 -55.5s28.667 -16.5 54 -16.5h74z" />
    <glyph glyph-name=".notdef" horiz-adv-x="620" 
d="M80 700h460v-768h-460v768z" />
    <glyph glyph-name="space" unicode=" " horiz-adv-x="270" 
 />
    <glyph glyph-name="exclam" unicode="!" horiz-adv-x="221" 
d="M91 204l-8 496h55l-7 -496h-40zM82.5 60c7 6.66699 16.167 10 27.5 10s20.666 -3.33301 27.999 -10s11 -15.667 11 -27s-3.66699 -20.5 -11 -27.5s-16.666 -10.5 -27.999 -10.5s-20.5 3.5 -27.5 10.5s-10.5 16.167 -10.5 27.5s3.5 20.333 10.5 27z" />
    <glyph glyph-name="quotedbl" unicode="&#x22;" horiz-adv-x="344" 
d="M66.5 693.5c5 6.33301 12.166 9.50098 21.499 9.50098c10.667 0 18.334 -3 23.001 -9s6.66699 -14 6 -24l-10 -192h-37l-10 192c-0.666992 9.33301 1.5 17.166 6.5 23.499zM234.499 693.501c5 6.33301 12.166 9.50098 21.499 9.50098c10.667 0 18.334 -3 23.001 -9
s6.66699 -14 6 -24l-10 -192h-37l-10 192c-0.666992 9.33301 1.5 17.166 6.5 23.499z" />
    <glyph glyph-name="numbersign" unicode="#" horiz-adv-x="587" 
d="M221 606h42l-28 -184h151l29 184h43l-29 -184h111v-43h-117l-22 -152h116v-43h-123l-28 -184h-43l28 184h-151l-28 -184h-43l28 184h-110v43h116l23 152h-117v43h123zM229 379l-23 -152h152l22 152h-151z" />
    <glyph glyph-name="dollar" unicode="$" horiz-adv-x="597" 
d="M490 55c-40 -36 -93.3291 -56.0029 -159.996 -60.0029v-102h-48v102c-69.333 4.66699 -125 26.834 -167 66.501s-64.667 91.167 -68 154.5h54c3.33301 -52.667 23.666 -94.5 60.999 -125.5s85.666 -46.5 144.999 -46.5c57.333 0 103.166 12.833 137.499 38.5
s51.5 60.834 51.5 105.501c0 32 -9.16699 57.333 -27.5 76s-41.833 32.5 -70.5 41.5s-65.334 17.167 -110.001 24.5c-46.667 8 -85.667 17.833 -117 29.5s-57.333 29.667 -78 54s-31 57.5 -31 99.5c0 56.667 19.833 102.5 59.5 137.5s93.167 53.833 160.5 56.5v101h48v-103
c60 -5.33301 108.833 -25.833 146.5 -61.5s58.834 -80.834 63.501 -135.501l-53 -1c-6 46 -26 82.667 -60 110s-77.333 41 -130 41c-55.333 0 -99.333 -12.5 -132 -37.5s-49 -59.833 -49 -104.5c0 -31.333 8.66699 -56 26 -74s39.166 -31 65.499 -39s62.5 -16 108.5 -24
c46.667 -7.33301 86.5 -17.166 119.5 -29.499s60.333 -31.166 82 -56.499s32.5 -59 32.5 -101c0 -55.333 -20 -101 -60 -137z" />
    <glyph glyph-name="percent" unicode="%" horiz-adv-x="880" 
d="M84 623.5c14.667 25.667 34.834 45.834 60.501 60.501s54.167 22 85.5 22c32 0 60.833 -7.33301 86.5 -22s45.834 -34.834 60.501 -60.501s22 -54.167 22 -85.5s-7.33301 -59.833 -22 -85.5s-34.834 -45.667 -60.501 -60s-54.5 -21.5 -86.5 -21.5
c-31.333 0 -59.833 7.16699 -85.5 21.5s-45.834 34.333 -60.501 60s-22 54.167 -22 85.5s7.33301 59.833 22 85.5zM180 0l471 700h51l-472 -700h-50zM318 628c-23.333 24 -52.666 36 -87.999 36c-34.667 0 -63.667 -12 -87 -36s-35 -54 -35 -90s11.5 -65.833 34.5 -89.5
s52.167 -35.5 87.5 -35.5s64.666 11.833 87.999 35.5s35 53.5 35 89.5s-11.667 66 -35 90zM503 246.5c14.667 25.667 34.834 45.834 60.501 60.501s54.5 22 86.5 22c31.333 0 59.833 -7.33301 85.5 -22s45.834 -34.834 60.501 -60.501s22 -54.167 22 -85.5
s-7.33301 -59.833 -22 -85.5s-34.834 -45.667 -60.501 -60s-54.167 -21.5 -85.5 -21.5c-32 0 -60.833 7.16699 -86.5 21.5s-45.834 34.333 -60.501 60s-22 54.167 -22 85.5s7.33301 59.833 22 85.5zM737 251c-23.333 24 -52.333 36 -87 36
c-35.333 0 -64.666 -12 -87.999 -36s-35 -54 -35 -90s11.667 -65.833 35 -89.5s52.666 -35.5 87.999 -35.5s64.5 11.833 87.5 35.5s34.5 53.5 34.5 89.5s-11.667 66 -35 90z" />
    <glyph glyph-name="ampersand" unicode="&#x26;" horiz-adv-x="713" 
d="M670 46v-46.001h-70c-42.667 0 -74.334 12.667 -95.001 38l-49 58c-58 -68 -125.667 -102 -203 -102c-59.333 0 -108.333 15.833 -147 47.5s-58 75.167 -58 130.5c0 86.667 57 154.334 171 203.001c-28 34.667 -47.667 64 -59 88s-17 51.333 -17 82
c0 30 7.83301 57.333 23.5 82s37.334 44 65.001 58s58.5 21 92.5 21c28.667 0 54.667 -6.33301 78 -19s41.666 -30 54.999 -52s20 -46.667 20 -74c0 -40.667 -14.167 -77 -42.5 -109s-74.833 -61.667 -139.5 -89l6 -7l156 -183l136 205h54l-159 -242l50 -58
c10 -12.667 20.333 -21.167 31 -25.5s23.334 -6.5 38.001 -6.5h63zM230.5 628.999c-23 -22 -34.5 -49.666 -34.5 -82.999c0 -26 5.33301 -49.667 16 -71s29.334 -48 56.001 -80c55.333 24 95.333 49 120 75s37 56 37 90c0 29.333 -9.83301 53.666 -29.5 72.999
s-44.834 29 -75.501 29c-36.667 0 -66.5 -11 -89.5 -33zM347 63c29.333 15.333 55.667 37.999 79 67.999l-166 196l-15 17c-52.667 -25.333 -90 -50.666 -112 -75.999s-33 -56 -33 -92c0 -42 14.333 -75.167 43 -99.5s65.667 -36.5 111 -36.5c32.667 0 63.667 7.66699 93 23
z" />
    <glyph glyph-name="quotesingle" unicode="'" horiz-adv-x="177" 
d="M66.5 693.5c5 6.33301 12.166 9.50098 21.499 9.50098c10.667 0 18.334 -3 23.001 -9s6.66699 -14 6 -24l-10 -192h-37l-10 192c-0.666992 9.33301 1.5 17.166 6.5 23.499z" />
    <glyph glyph-name="parenleft" unicode="(" horiz-adv-x="281" 
d="M271 700c-60 -82.667 -102.333 -157.333 -127 -224s-37 -142 -37 -226s12.333 -159.167 37 -225.5s67 -141.166 127 -224.499h-54c-56.667 77.333 -97.5 150.666 -122.5 219.999s-37.5 146 -37.5 230s12.5 160.5 37.5 229.5s65.833 142.5 122.5 220.5h54z" />
    <glyph glyph-name="parenright" unicode=")" horiz-adv-x="281" 
d="M189.5 479.5c25 -69 37.5 -145.501 37.5 -229.501s-12.5 -160.667 -37.5 -230s-65.833 -142.666 -122.5 -219.999h-54c60 83.333 102.333 158.166 127 224.499s37 141.5 37 225.5s-12.333 159.333 -37 226s-67 141.334 -127 224.001h54
c56.667 -78 97.5 -151.5 122.5 -220.5z" />
    <glyph glyph-name="asterisk" unicode="*" horiz-adv-x="420" 
d="M366 582l-128 -49l88 -104l-28 -25l-89 109l-87 -109l-28 25l88 105l-127 49l14 35l124 -54l-1 137h36l-1 -137l124 54z" />
    <glyph glyph-name="plus" unicode="+" 
d="M240 492h47v-183h175v-43h-175v-183h-47v183h-174v43h174v183z" />
    <glyph glyph-name="comma" unicode="," horiz-adv-x="184" 
d="M125.5 45.5c11.667 -16.333 17.5 -35.833 17.5 -58.5c0 -33.333 -10.167 -60.5 -30.5 -81.5s-47.5 -32.167 -81.5 -33.5v30c24 0.666992 42.5 8.83398 55.5 24.501s19.5 33.834 19.5 54.501c0 11.333 -3 20 -9 26c-4.66699 -8 -13 -12 -25 -12
c-10 0 -18.333 3.16699 -25 9.5s-10 15.166 -10 26.499s4 20.666 12 27.999s18.667 11 32 11c18 0 32.833 -8.16699 44.5 -24.5z" />
    <glyph glyph-name="hyphen" unicode="-" horiz-adv-x="441" 
d="M59 263v42h323v-42h-323z" />
    <glyph glyph-name="period" unicode="." horiz-adv-x="184" 
d="M64.5 60c7 6.66699 16.167 10 27.5 10s20.5 -3.33301 27.5 -10s10.5 -15.667 10.5 -27s-3.5 -20.5 -10.5 -27.5s-16.167 -10.5 -27.5 -10.5s-20.5 3.5 -27.5 10.5s-10.5 16.167 -10.5 27.5s3.5 20.333 10.5 27z" />
    <glyph glyph-name="slash" unicode="/" horiz-adv-x="314" 
d="M-14 -200l293 900h49l-293 -900h-49z" />
    <glyph glyph-name="zero" unicode="0" horiz-adv-x="614" 
d="M55 366c0 66 10.502 124.667 31.502 176s50.667 91.5 89 120.5s82.166 43.5 131.499 43.5s93.166 -14.5 131.499 -43.5s68 -69.167 89 -120.5s31.5 -110 31.5 -176v-32c0 -67.333 -10.5 -126.833 -31.5 -178.5s-50.5 -91.5 -88.5 -119.5s-82 -42 -132 -42s-94 14 -132 42
s-67.5 67.833 -88.5 119.5s-31.5 111.167 -31.5 178.5v32zM481.502 518.5c-16.333 44.333 -39.666 78.666 -69.999 102.999s-65.166 36.5 -104.499 36.5c-40 0 -75.167 -12.167 -105.5 -36.5s-53.666 -58.666 -69.999 -102.999s-24.5 -95.833 -24.5 -154.5v-28
c0 -58.667 8.16699 -110.167 24.5 -154.5s39.666 -78.666 69.999 -102.999s65.5 -36.5 105.5 -36.5c39.333 0 74.166 12.167 104.499 36.5s53.666 58.666 69.999 102.999s24.5 95.833 24.5 154.5v28c0 58.667 -8.16699 110.167 -24.5 154.5z" />
    <glyph glyph-name="one" unicode="1" horiz-adv-x="301" 
d="M220 700v-700h-52v522c-8.66699 -10.667 -24 -16 -46 -16h-119v47h120c15.333 0 26.833 4.66699 34.5 14s11.5 22.333 11.5 39v94h51z" />
    <glyph glyph-name="two" unicode="2" horiz-adv-x="559" 
d="M315 292c28.667 26 51.9971 48.5039 69.9971 67.5039s33 40.5 45 64.5s18 49.667 18 77c0 49.333 -15.667 88.166 -47 116.499s-73.666 42.5 -126.999 42.5c-52 0 -93.667 -15.833 -125 -47.5s-47 -74.5 -47 -128.5v-14h-52v17c0 43.333 9.16699 81.666 27.5 114.999
s44.5 59.166 78.5 77.499s73.333 27.5 118 27.5c70.667 0 126.334 -18.333 167.001 -55s61 -86 61 -148c0 -33.333 -6.66699 -63.833 -20 -91.5s-30.166 -52.334 -50.499 -74.001s-47.833 -48.5 -82.5 -80.5l-233 -210h394v-48h-466v45z" />
    <glyph glyph-name="three" unicode="3" horiz-adv-x="595" 
d="M493.5 307c31.667 -29.333 47.499 -68.334 47.499 -117.001c0 -38 -10.333 -71.833 -31 -101.5s-49.667 -52.834 -87 -69.501s-80 -25 -128 -25c-74 0 -133.167 18.833 -177.5 56.5s-66.5 89.167 -66.5 154.5h53c0.666992 -50.667 18.667 -90.667 54 -120s82 -44 140 -44
c36 0 68.333 6.5 97 19.5s51.167 31 67.5 54s24.5 49.167 24.5 78.5c0 44.667 -17.333 79.5 -52 104.5s-82.667 37.5 -144 37.5h-54v45h51c56 0 100.167 13.5 132.5 40.5s48.5 61.5 48.5 103.5c0 40 -16 72.5 -48 97.5s-73.333 37.5 -124 37.5c-52 0 -94 -13.167 -126 -39.5
s-48.333 -62.166 -49 -107.499h-52c0.666992 60.667 21.5 108.167 62.5 142.5s95.167 51.5 162.5 51.5c46 0 86 -7.5 120 -22.5s60.333 -36.167 79 -63.5s28 -58.666 28 -93.999c0 -44 -13.333 -80.667 -40 -110s-63 -48 -109 -56c48.667 -6 88.834 -23.667 120.501 -53z
" />
    <glyph glyph-name="four" unicode="4" horiz-adv-x="596" 
d="M27 231l364 469h62v-468h119v-48h-119v-184h-53v184h-373v47zM83 232h317v408z" />
    <glyph glyph-name="five" unicode="5" horiz-adv-x="583" 
d="M427 434c34 -20 60.501 -47.667 79.501 -83s28.5 -75.333 28.5 -120c0 -49.333 -10.833 -91.833 -32.5 -127.5s-50.667 -62.667 -87 -81s-75.833 -27.5 -118.5 -27.5c-47.333 0 -88.666 9.5 -123.999 28.5s-62.833 44.833 -82.5 77.5s-30.834 68.667 -33.501 108h52
c4.66699 -47.333 23.667 -87 57 -119s77 -48 131 -48c32.667 0 63.167 7.16699 91.5 21.5s51 35.833 68 64.5s25.5 62.667 25.5 102c0 36 -7.33301 68.167 -22 96.5s-35.834 50.5 -63.501 66.5s-59.5 24 -95.5 24c-37.333 0 -72.833 -8.83301 -106.5 -26.5
s-57.5 -45.5 -71.5 -83.5l-51 2l25 391h393v-48h-345l-20 -280c20 30.667 46.833 53.667 80.5 69s68.5 23 104.5 23c44 0 83 -10 117 -30z" />
    <glyph glyph-name="six" unicode="6" horiz-adv-x="601" 
d="M68 220.5c-8.66699 41 -12.998 84.165 -12.998 129.498c0 70.667 9.83301 132.834 29.5 186.501s48.5 95.334 86.5 125.001s84.333 44.5 139 44.5c60.667 0 110.334 -17 149.001 -51s62.667 -79 72 -135h-53c-8.66699 42.667 -27.334 76.667 -56.001 102
s-66.667 38 -114 38c-67.333 0 -118.833 -27.667 -154.5 -83s-53.5 -128 -53.5 -218c0 -30.667 3.33301 -60.667 10 -90c0 11.333 0.666992 20.333 2 27c9.33301 49.333 32.666 88.833 69.999 118.5s83.333 44.5 138 44.5c44.667 0 84.167 -9.66699 118.5 -29
s61 -46.5 80 -81.5s28.5 -75.5 28.5 -121.5c0 -44.667 -9.83301 -84.667 -29.5 -120s-47.167 -63 -82.5 -83s-76 -30 -122 -30c-47.333 0 -88.5 10.333 -123.5 31s-62.833 50 -83.5 88c-16.667 30.667 -29.334 66.5 -38.001 107.5zM446.502 361.498
c-32.333 34.333 -75.834 51.5 -130.501 51.5c-36 0 -68.167 -8 -96.5 -24s-50.333 -38.167 -66 -66.5s-23.5 -60.5 -23.5 -96.5c0 -55.333 16.833 -100.166 50.5 -134.499s77.834 -51.5 132.501 -51.5s98.667 17.333 132 52s50 79.667 50 135s-16.167 100.166 -48.5 134.499
z" />
    <glyph glyph-name="seven" unicode="7" horiz-adv-x="526" 
d="M14 700h484v-38l-363 -662h-57l363 652h-427v48z" />
    <glyph glyph-name="eight" unicode="8" horiz-adv-x="598" 
d="M496.5 301.5c31.667 -31.667 47.5 -71.166 47.5 -118.499c0 -36.667 -10 -69.334 -30 -98.001s-48.5 -51 -85.5 -67s-80.167 -24 -129.5 -24c-48.667 0 -91.5 8 -128.5 24s-65.5 38.333 -85.5 67s-30 61.334 -30 98.001c0 47.333 15.5 86.833 46.5 118.5
s71.833 51.834 122.5 60.501c-44 7.33301 -79.833 25.666 -107.5 54.999s-41.5 65.333 -41.5 108c0 35.333 9.16699 66.833 27.5 94.5s44.5 49.167 78.5 64.5s73.333 23 118 23s84 -7.66699 118 -23s60.167 -36.833 78.5 -64.5s27.5 -59.167 27.5 -94.5
c0 -42 -14 -78 -42 -108s-63.667 -48.333 -107 -55c50 -8.66699 90.833 -28.834 122.5 -60.501zM175 425.501c32 -25.667 73.333 -38.5 124 -38.5s92.167 12.833 124.5 38.5s48.5 58.834 48.5 99.501s-16.167 73.667 -48.5 99s-73.833 38 -124.5 38s-92 -12.667 -124 -38
s-48 -58.333 -48 -99s16 -73.834 48 -99.501zM398 56.501c29.333 12.333 52.334 29.666 69.001 51.999s25 47.833 25 76.5s-8.33301 54.5 -25 77.5s-39.667 41 -69 54s-62.333 19.5 -99 19.5c-37.333 0 -70.5 -6.5 -99.5 -19.5s-51.667 -31 -68 -54
s-24.5 -48.833 -24.5 -77.5s8.16699 -54.167 24.5 -76.5s39.166 -39.666 68.499 -51.999s62.333 -18.5 99 -18.5s69.667 6.16699 99 18.5z" />
    <glyph glyph-name="nine" unicode="9" horiz-adv-x="601" 
d="M532.5 480.5c9 -40.333 13.498 -81.834 13.498 -124.501c0 -114 -22.333 -202.833 -67 -266.5s-107.667 -95.5 -189 -95.5c-60.667 0 -111.167 16.667 -151.5 50s-64.833 79.333 -73.5 138h52c9.33301 -44.667 29 -79.5 59 -104.5s68.667 -37.5 116 -37.5
c66 0 117 26.5 153 79.5s54.333 126.5 55 220.5c0.666992 28.667 -2.33301 59 -9 91c0 -11.333 -0.666992 -20.666 -2 -27.999c-9.33301 -48.667 -32.666 -87.834 -69.999 -117.501s-83 -44.5 -137 -44.5c-44.667 0 -84.167 9.66699 -118.5 29s-61 46.5 -80 81.5
s-28.5 75.5 -28.5 121.5c0 45.333 9.83301 85.5 29.5 120.5s47.334 62.5 83.001 82.5s76.5 30 122.5 30c46.667 0 87.667 -10.667 123 -32s63 -50.666 83 -87.999c15.333 -30 27.5 -65.167 36.5 -105.5zM154.998 338.999c32 -34 75.333 -51 130 -51
c36.667 0 69 7.83301 97 23.5s49.833 37.667 65.5 66s23.5 60.833 23.5 97.5c0 54.667 -16.5 99 -49.5 133s-76.5 51.333 -130.5 52c-56 0 -100.667 -17.167 -134 -51.5s-50 -79.5 -50 -135.5c0 -55.333 16 -100 48 -134z" />
    <glyph glyph-name="colon" unicode=":" horiz-adv-x="184" 
d="M64.5 453c7 6.66699 16.167 10 27.5 10s20.5 -3.33301 27.5 -10s10.5 -15.667 10.5 -27s-3.5 -20.5 -10.5 -27.5s-16.167 -10.5 -27.5 -10.5s-20.5 3.5 -27.5 10.5s-10.5 16.167 -10.5 27.5s3.5 20.333 10.5 27zM64.5 60c7 6.66699 16.167 10 27.5 10
s20.5 -3.33301 27.5 -10s10.5 -15.667 10.5 -27s-3.5 -20.5 -10.5 -27.5s-16.167 -10.5 -27.5 -10.5s-20.5 3.5 -27.5 10.5s-10.5 16.167 -10.5 27.5s3.5 20.333 10.5 27z" />
    <glyph glyph-name="semicolon" unicode=";" horiz-adv-x="184" 
d="M125.5 45.5c11.667 -16.333 17.5 -35.833 17.5 -58.5c0 -33.333 -10.167 -60.5 -30.5 -81.5s-47.5 -32.167 -81.5 -33.5v30c24 0.666992 42.5 8.83398 55.5 24.501s19.5 33.834 19.5 54.501c0 11.333 -3 20 -9 26c-4.66699 -8 -13 -12 -25 -12
c-10 0 -18.333 3.16699 -25 9.5s-10 15.166 -10 26.499s4 20.666 12 27.999s18.667 11 32 11c18 0 32.833 -8.16699 44.5 -24.5zM62.5 453c7 6.66699 16.167 10 27.5 10s20.5 -3.33301 27.5 -10s10.5 -15.667 10.5 -27s-3.5 -20.5 -10.5 -27.5s-16.167 -10.5 -27.5 -10.5
s-20.5 3.5 -27.5 10.5s-10.5 16.167 -10.5 27.5s3.5 20.333 10.5 27z" />
    <glyph glyph-name="less" unicode="&#x3c;" 
d="M79 259v50l371 173v-50l-314 -148l314 -147v-51z" />
    <glyph glyph-name="equal" unicode="=" 
d="M76 355v44h376v-44h-376zM76 150v43h376v-43h-376z" />
    <glyph glyph-name="greater" unicode="&#x3e;" 
d="M450 309v-50l-371 -173v51l314 147l-314 148v50z" />
    <glyph glyph-name="question" unicode="?" horiz-adv-x="502" 
d="M67.5 599c17.667 33.333 42.666 59.5 74.999 78.5s70.166 28.5 113.499 28.5c40 0 75.167 -7.33301 105.5 -22s53.833 -35 70.5 -61s25 -55 25 -87c0 -38.667 -8.16699 -70.667 -24.5 -96s-38.833 -49 -67.5 -71c-4 -3.33301 -16.333 -12.5 -37 -27.5
s-36 -30.833 -46 -47.5s-15 -34.667 -15 -54v-35h-48v40c0 24 4.83301 44.667 14.5 62s20.334 31 32.001 41s31.834 26 60.501 48c25.333 19.333 44.666 39.333 57.999 60s20 45.667 20 75c0 36.667 -13.667 67 -41 91s-62.666 36 -105.999 36
c-49.333 0 -89 -15.833 -119 -47.5s-45 -73.167 -45 -124.5h-52c0 42 8.83301 79.667 26.5 113zM216.499 60c7 6.66699 16.167 10 27.5 10s20.5 -3.33301 27.5 -10s10.5 -15.667 10.5 -27s-3.5 -20.5 -10.5 -27.5s-16.167 -10.5 -27.5 -10.5s-20.5 3.5 -27.5 10.5
s-10.5 16.167 -10.5 27.5s3.5 20.333 10.5 27z" />
    <glyph glyph-name="at" unicode="@" horiz-adv-x="983" 
d="M116.5 467c41 66 96.5029 117.997 166.503 155.997s146.667 57 230 57c80 0 151.5 -15.5 214.5 -46.5s112.167 -74 147.5 -129s53 -117.167 53 -186.5c0 -50.667 -9 -96.5 -27 -137.5s-42.667 -73 -74 -96s-66 -34.5 -104 -34.5c-29.333 0 -52.5 8.33301 -69.5 25
s-25.5 39 -25.5 67v25c-12 -35.333 -34 -63.5 -66 -84.5s-67.667 -31.5 -107 -31.5c-33.333 0 -63.333 8.16699 -90 24.5s-47.5 38.833 -62.5 67.5s-22.5 61 -22.5 97c0 41.333 9.66699 79.666 29 114.999s45.333 63.5 78 84.5s67.667 31.5 105 31.5
c40 0 73.167 -9.33301 99.5 -28s42.833 -43 49.5 -73l14 92h40l-29 -289c-0.666992 -3.33301 -1 -8.66602 -1 -15.999c0 -22.667 5.83301 -40 17.5 -52s28.167 -18 49.5 -18c26.667 0 51.167 10.167 73.5 30.5s40.166 48.333 53.499 84s20 74.834 20 117.501
c0 62 -15.333 117.167 -46 165.5s-73.834 85.833 -129.501 112.5s-119.167 40 -190.5 40c-74 0 -142.333 -17.167 -205 -51.5s-112.334 -81.166 -149.001 -140.499s-55 -124.666 -55 -195.999c0 -72.667 16.167 -136.5 48.5 -191.5s78 -97.333 137 -127
s127.5 -44.5 205.5 -44.5c44.667 0 87.334 5.66699 128.001 17s76.334 27.333 107.001 48l-1 -46c-26.667 -18.667 -61.334 -33.667 -104.001 -45s-87.334 -17 -134.001 -17c-85.333 0 -161 16.833 -227 50.5s-117.333 81.167 -154 142.5s-55 132 -55 212s20.5 153 61.5 219
zM596.003 395.497c-24 25 -55.667 37.501 -95 37.501c-31.333 0 -60.166 -8.66699 -86.499 -26s-47.333 -40.666 -63 -69.999s-23.5 -61 -23.5 -95c0 -44.667 12.5 -81.334 37.5 -110.001s58.167 -43 99.5 -43c32 0 60.667 8.66699 86 26s45.166 41.666 59.499 72.999
s21.5 67 21.5 107c0 42 -12 75.5 -36 100.5z" />
    <glyph glyph-name="A" unicode="A" horiz-adv-x="638" 
d="M17 0l270 700h64l270 -700h-58l-84 214h-322l-84 -214h-56zM173 264h290l-145 377z" />
    <glyph glyph-name="B" unicode="B" horiz-adv-x="615" 
d="M311 700c70 0 124 -15.666 162 -46.999s57 -75 57 -131c0 -42.667 -11.5 -78 -34.5 -106s-55.833 -46.667 -98.5 -56c52 -8.66699 92.5 -26.834 121.5 -54.501s43.5 -66.167 43.5 -115.5c0 -59.333 -21.167 -105.833 -63.5 -139.5s-103.5 -50.5 -183.5 -50.5h-243v700
h239zM126 382.001h187c52 0 92.167 12 120.5 36s42.5 57 42.5 99s-14.167 74.833 -42.5 98.5s-68.5 35.5 -120.5 35.5h-187v-269zM126 49.001h189c62 0 109.333 12.667 142 38s49 60.333 49 105c0 46 -16.667 81 -50 105s-80.333 36 -141 36h-189v-284z" />
    <glyph glyph-name="C" unicode="C" horiz-adv-x="702" 
d="M87 535c26.667 54 64.668 95.998 114.001 125.998s106.333 45 171 45c74 0 136 -19.333 186 -58s82.333 -93 97 -163h-54c-14.667 54.667 -42.334 96.834 -83.001 126.501s-90.334 44.5 -149.001 44.5c-53.333 0 -100 -13 -140 -39s-71 -62.167 -93 -108.5
s-33 -99.166 -33 -158.499s11 -112.166 33 -158.499s53 -82.5 93 -108.5s86.667 -39 140 -39c60 0 109.833 14.667 149.5 44s66.834 72 81.501 128h54c-15.333 -70.667 -47.5 -125.334 -96.5 -164.001s-110.833 -58 -185.5 -58c-64.667 0 -121.667 14.833 -171 44.5
s-87.333 71.5 -114 125.5s-40 116 -40 186c0 69.333 13.333 131 40 185z" />
    <glyph glyph-name="D" unicode="D" horiz-adv-x="659" 
d="M72 700l188 0.00390625c73.333 0 136.333 -14.333 189 -43s93 -69.334 121 -122.001s42 -114.334 42 -185.001s-14 -132.334 -42 -185.001s-68.333 -93.334 -121 -122.001s-115.667 -43 -189 -43h-188v700zM260 50.0039c94 0 167.001 26.833 219.001 80.5
s78 126.834 78 219.501c0 93.333 -25.833 166.666 -77.5 219.999s-124.834 80 -219.501 80h-134v-600h134z" />
    <glyph glyph-name="E" unicode="E" horiz-adv-x="546" 
d="M72 700h431v-50h-377v-268h316v-50h-316v-282h390v-50h-444v700z" />
    <glyph glyph-name="F" unicode="F" horiz-adv-x="511" 
d="M72 700h416v-50h-362v-277h302v-50h-302v-323h-54v700z" />
    <glyph glyph-name="G" unicode="G" horiz-adv-x="739" 
d="M87 535c26.667 54 64.3301 95.9971 112.997 125.997s105.667 45 171 45c73.333 0 135 -19.333 185 -58s82.667 -93 98 -163h-53c-16 54.667 -44 96.834 -84 126.501s-89.333 44.5 -148 44.5c-53.333 0 -100 -13 -140 -39s-71 -62.167 -93 -108.5
s-33 -99.166 -33 -158.499s10.833 -112.166 32.5 -158.499s52.334 -82.5 92.001 -108.5s85.167 -39 136.5 -39c50.667 0 94.834 10.5 132.501 31.5s66.667 49.667 87 86s30.5 77.5 30.5 123.5v30h-230v50h282v-365h-45l-5 160c-16.667 -46.667 -46.667 -86 -90 -118
s-97.666 -48 -162.999 -48c-61.333 0 -116 15 -164 45s-85.333 72 -112 126s-40 115.667 -40 185s13.333 131 40 185z" />
    <glyph glyph-name="H" unicode="H" horiz-adv-x="657" 
d="M72 701h54v-319h405v319h54v-701h-54v332h-405v-332h-54v701z" />
    <glyph glyph-name="I" unicode="I" horiz-adv-x="198" 
d="M72 700h54v-700h-54v700z" />
    <glyph glyph-name="J" unicode="J" horiz-adv-x="339" 
d="M267 700l-0.000976562 -554.001c0 -97.333 -48.667 -146 -146 -146h-93v51h86c34.667 0 59.834 7.83301 75.501 23.5s23.5 40.834 23.5 75.501v550h54z" />
    <glyph glyph-name="K" unicode="K" horiz-adv-x="610" 
d="M72 700h54v-441l387 441h66l-254 -293l277 -407h-65l-251 366l-160 -183v-183h-54v700z" />
    <glyph glyph-name="L" unicode="L" horiz-adv-x="484" 
d="M72 0v700h54v-650h335v-50h-389z" />
    <glyph glyph-name="M" unicode="M" horiz-adv-x="823" 
d="M72 700h69l272 -627l270 627h68v-700h-53v609l-262 -609h-49l-262 609v-609h-53v700z" />
    <glyph glyph-name="N" unicode="N" horiz-adv-x="662" 
d="M72 0v700h51l414 -601v601h53v-700h-51l-414 602v-602h-53z" />
    <glyph glyph-name="O" unicode="O" horiz-adv-x="749" 
d="M659.5 166.5c-27.667 -54.333 -66.334 -96.666 -116.001 -126.999s-106.167 -45.5 -169.5 -45.5s-119.833 15.167 -169.5 45.5s-88.334 72.666 -116.001 126.999s-41.5 115.5 -41.5 183.5s13.833 129.167 41.5 183.5s66.334 96.666 116.001 126.999
s106.167 45.5 169.5 45.5s119.833 -15.167 169.5 -45.5s88.334 -72.666 116.001 -126.999s41.5 -115.5 41.5 -183.5s-13.833 -129.167 -41.5 -183.5zM137.5 191.5c23 -46.333 55 -82.5 96 -108.5s87.833 -39 140.5 -39s99.667 13 141 39s73.5 62.167 96.5 108.5
s34.5 99.166 34.5 158.499s-11.5 112.166 -34.5 158.499s-55.167 82.5 -96.5 108.5s-88.333 39 -141 39s-99.5 -13 -140.5 -39s-73 -62.167 -96 -108.5s-34.5 -99.166 -34.5 -158.499s11.5 -112.166 34.5 -158.499z" />
    <glyph glyph-name="P" unicode="P" horiz-adv-x="576" 
d="M332 700c44 0 82.499 -8.49902 115.499 -25.499s58.5 -40.833 76.5 -71.5s27 -66.334 27 -107.001c0 -40 -9 -75.5 -27 -106.5s-43.667 -55 -77 -72s-71.666 -25.5 -114.999 -25.5h-206v-292h-54v700h260zM125.999 342.001h200.999c51.333 0 92.333 14.167 123 42.5
s46 65.5 46 111.5s-15.167 83.167 -45.5 111.5s-71.166 42.5 -122.499 42.5h-202v-308z" />
    <glyph glyph-name="Q" unicode="Q" horiz-adv-x="751" 
d="M731 50l-0.00195312 -49.999h-56c-24.667 0 -44 3.33301 -58 10s-27.333 19 -40 37l-7 10c-55.333 -42 -120.666 -63 -195.999 -63c-63.333 0 -119.833 15.167 -169.5 45.5s-88.334 72.666 -116.001 126.999s-41.5 115.5 -41.5 183.5s13.833 129.167 41.5 183.5
s66.334 96.666 116.001 126.999s106.167 45.5 169.5 45.5s119.833 -15.167 169.5 -45.5s88.334 -72.666 116.001 -126.999s41.5 -115.5 41.5 -183.5c0 -52 -8.16699 -100.167 -24.5 -144.5s-39.5 -82.5 -69.5 -114.5l2 -3c10.667 -15.333 21 -25.5 31 -30.5
s23.667 -7.5 41 -7.5h50zM539.998 100.001l-36.001 50.998c-10.667 14 -20.667 23.833 -30 29.5s-21 8.5 -35 8.5h-60v50h68c20.667 0 37.334 -3.33301 50.001 -10s25.667 -19.334 39 -38.001l39 -55c22.667 26.667 40.167 58.334 52.5 95.001s18.5 76.334 18.5 119.001
c0 59.333 -11.5 112.166 -34.5 158.499s-55.167 82.5 -96.5 108.5s-88.333 39 -141 39s-99.5 -13 -140.5 -39s-73 -62.167 -96 -108.5s-34.5 -99.166 -34.5 -158.499s11.5 -112.166 34.5 -158.499s55 -82.5 96 -108.5s87.833 -39 140.5 -39c64 0 119.333 18.667 166 56z" />
    <glyph glyph-name="R" unicode="R" horiz-adv-x="595" 
d="M331 700c66.667 0 120 -18.499 160 -55.499s60 -86.5 60 -148.5c0 -51.333 -14.833 -94.333 -44.5 -129s-69.5 -56.334 -119.5 -65.001l166 -302h-61l-159 292h-207v-292h-54v700h259zM126 342.001h200.999c51.333 0 92.333 14 123 42s46 65.333 46 112
s-15.167 84 -45.5 112s-71.166 42 -122.499 42h-202v-308z" />
    <glyph glyph-name="S" unicode="S" horiz-adv-x="597" 
d="M101 216c3.33301 -52.667 23.6709 -94.5029 61.0039 -125.503s85.666 -46.5 144.999 -46.5c57.333 0 103.166 12.833 137.499 38.5s51.5 60.834 51.5 105.501c0 32 -9.16699 57.333 -27.5 76s-41.833 32.5 -70.5 41.5s-65.334 17.167 -110.001 24.5
c-46.667 8 -85.667 17.833 -117 29.5s-57.333 29.667 -78 54s-31 57.5 -31 99.5c0 38.667 9.66699 72.667 29 102s46.833 52 82.5 68s76.834 24 123.501 24c69.333 0 125.833 -18.167 169.5 -54.5s68.167 -84.5 73.5 -144.5l-53 -1c-6 46 -26 82.667 -60 110
s-77.333 41 -130 41c-55.333 0 -99.333 -12.5 -132 -37.5s-49 -59.833 -49 -104.5c0 -31.333 8.66699 -56 26 -74s39.166 -31 65.499 -39s62.5 -16 108.5 -24c46.667 -7.33301 86.5 -17.166 119.5 -29.499s60.333 -31.166 82 -56.499s32.5 -59 32.5 -101
c0 -38.667 -10.167 -73 -30.5 -103s-48.833 -53.333 -85.5 -70s-79.334 -25 -128.001 -25c-50.667 0 -95.167 9.16699 -133.5 27.5s-68.333 44.333 -90 78s-33.5 72.5 -35.5 116.5h54z" />
    <glyph glyph-name="T" unicode="T" horiz-adv-x="580" 
d="M23 700h534v-50h-240v-650h-54v650h-240v50z" />
    <glyph glyph-name="U" unicode="U" horiz-adv-x="650" 
d="M123 700l-0.000976562 -414c0 -81.333 16.333 -142 49 -182s83.334 -60 152.001 -60c69.333 0 120.5 20 153.5 60s49.5 100.667 49.5 182v414h54v-411c0 -196.667 -85.667 -295 -257 -295c-170 0 -255 98.333 -255 295v411h54z" />
    <glyph glyph-name="V" unicode="V" horiz-adv-x="615" 
d="M14 700h57l237 -636l237 636h56l-261 -700h-65z" />
    <glyph glyph-name="W" unicode="W" horiz-adv-x="975" 
d="M29 700h57l187 -629l189 629h55l184 -629l189 629h56l-213 -700h-65l-181 610l-181 -610h-65z" />
    <glyph glyph-name="X" unicode="X" horiz-adv-x="620" 
d="M277 358l-230 342h63l202 -299l203 299h58l-230 -342l245 -358h-64l-216 314l-217 -314h-59z" />
    <glyph glyph-name="Y" unicode="Y" horiz-adv-x="618" 
d="M14 701h63l232 -384l234 384h61l-268 -443v-258h-54v258z" />
    <glyph glyph-name="Z" unicode="Z" horiz-adv-x="606" 
d="M54 700h512v-40l-462 -610h470v-50h-542v40l462 610h-440v50z" />
    <glyph glyph-name="bracketleft" unicode="[" horiz-adv-x="285" 
d="M69 701h195v-46h-147v-810h147v-45h-195v901z" />
    <glyph glyph-name="backslash" unicode="\" horiz-adv-x="314" 
d="M328 -200h-49l-293 900h49z" />
    <glyph glyph-name="bracketright" unicode="]" horiz-adv-x="285" 
d="M216 -201h-195v46h147v810h-147v45h195v-901z" />
    <glyph glyph-name="asciicircum" unicode="^" horiz-adv-x="508" 
d="M48 388l184 312h43l185 -312h-48l-160 267l-158 -267h-46z" />
    <glyph glyph-name="underscore" unicode="_" horiz-adv-x="503" 
d="M64 -57v51h375v-51h-375z" />
    <glyph glyph-name="grave" unicode="`" horiz-adv-x="400" 
d="M70 700h60l90 -132h-42z" />
    <glyph glyph-name="a" unicode="a" horiz-adv-x="535" 
d="M527 47l0.00195312 -47.001h-30c-29.333 0 -50.833 7.33301 -64.5 22s-19.834 35.334 -18.501 62.001v21c-15.333 -34 -39.333 -61 -72 -81s-73.334 -30 -122.001 -30c-54.667 0 -98.334 13 -131.001 39s-49 61.333 -49 106c0 48 17.167 85.167 51.5 111.5
s83.833 39.5 148.5 39.5h172v44c0 42 -13.167 74.833 -39.5 98.5s-63.166 35.5 -110.499 35.5c-42 0 -76.167 -9.33301 -102.5 -28s-42.833 -43.667 -49.5 -75h-51c6.66699 46 28 82.167 64 108.5s83 39.5 141 39.5c63.333 0 112.333 -15.667 147 -47s52 -76 52 -134v-236
c0 -15.333 4 -27.333 12 -36s19 -13 33 -13h19zM412.002 245.999h-176c-46.667 0 -82.334 -9 -107.001 -27s-37 -43.667 -37 -77c0 -31.333 11.833 -56.5 35.5 -75.5s55.5 -28.5 95.5 -28.5c58.667 0 104.834 15.5 138.501 46.5s50.5 71.167 50.5 120.5v41z" />
    <glyph glyph-name="b" unicode="b" horiz-adv-x="587" 
d="M428.5 481.5c36.333 -21 64.665 -51.167 84.998 -90.5s30.5 -85 30.5 -137c0 -50.667 -10.167 -95.667 -30.5 -135s-48.666 -70 -84.999 -92s-77.5 -33 -123.5 -33c-46.667 0 -86.667 10.833 -120 32.5s-57.666 51.167 -72.999 88.5l-8 -115h-44v700h51v-311
c16.667 37.333 41.667 67.333 75 90s73 34 119 34s87.167 -10.5 123.5 -31.5zM400.499 67c29 18 51.5 43.334 67.5 76.001s24 69.667 24 111s-8 78.166 -24 110.499s-38.5 57.666 -67.5 75.999s-62.167 27.5 -99.5 27.5s-70.5 -9.16699 -99.5 -27.5
s-51.5 -43.666 -67.5 -75.999s-24 -68.833 -24 -109.5c0 -42 8 -79.333 24 -112s38.5 -58 67.5 -76s62.167 -27 99.5 -27s70.5 9 99.5 27z" />
    <glyph glyph-name="c" unicode="c" horiz-adv-x="541" 
d="M425.5 39.5c-38.333 -30.333 -85.834 -45.5 -142.501 -45.5c-47.333 0 -89.166 11 -125.499 33s-64.5 52.667 -84.5 92s-30 84.666 -30 135.999c0 50.667 10.167 95.5 30.5 134.5s48.833 69.333 85.5 91s78.667 32.5 126 32.5c56.667 0 104 -15.167 142 -45.5
s61.667 -71.5 71 -123.5h-51c-8.66699 38 -27.667 68.167 -57 90.5s-65 33.5 -107 33.5c-36.667 0 -69.167 -9 -97.5 -27s-50.5 -43.167 -66.5 -75.5s-24 -69.166 -24 -110.499s8 -78.333 24 -111s38.167 -58.167 66.5 -76.5s60.833 -27.5 97.5 -27.5
c42 0 77.667 11.167 107 33.5s48.333 52.5 57 90.5h51c-10 -52.667 -34.167 -94.167 -72.5 -124.5z" />
    <glyph glyph-name="d" unicode="d" horiz-adv-x="587" 
d="M527 700l-0.000976562 -700.001h-44l-8 115c-16.667 -36.667 -41.667 -66 -75 -88s-72.666 -33 -117.999 -33c-46 0 -87.167 10.667 -123.5 32s-64.666 51.5 -84.999 90.5s-30.5 84.833 -30.5 137.5c0 50 10.167 94.667 30.5 134s48.666 70 84.999 92s77.5 33 123.5 33
c46.667 0 86.667 -10.667 120 -32s58 -50.666 74 -87.999v307h51zM385.499 66.999c29 18 51.5 43.166 67.5 75.499s24 69.166 24 110.499s-8 78.333 -24 111s-38.5 58.167 -67.5 76.5s-62.167 27.5 -99.5 27.5s-70.5 -9.16699 -99.5 -27.5s-51.5 -43.666 -67.5 -75.999
s-24 -69.166 -24 -110.499s8 -78.333 24 -111s38.5 -58 67.5 -76s62.167 -27 99.5 -27s70.5 9 99.5 27z" />
    <glyph glyph-name="e" unicode="e" horiz-adv-x="554" 
d="M72.5 389c19.667 39.333 47.333 69.832 83 91.499s76.167 32.5 121.5 32.5c44.667 0 84.334 -9.5 119.001 -28.5s62.167 -46.5 82.5 -82.5s31.166 -78.667 32.499 -128c0 -9.33301 -0.333008 -16.333 -1 -21h-413c-0.666992 -2.66699 -1 -6.66699 -1 -12
c0.666992 -39.333 9 -74.166 25 -104.499s38 -54 66 -71s59.667 -25.5 95 -25.5c41.333 0 77.333 11.5 108 34.5s51 54.167 61 93.5h52c-12 -52 -37.5 -94 -76.5 -126s-85.833 -48 -140.5 -48c-47.333 0 -89.5 11 -126.5 33s-65.667 52.667 -86 92s-30.5 84.333 -30.5 135
s9.83301 95.667 29.5 135zM457.999 295.999c-4.66699 54.667 -23.166 97 -55.499 127s-73.833 45 -124.5 45c-30.667 0 -59 -7.16699 -85 -21.5s-47.333 -34.5 -64 -60.5s-26.334 -56 -29.001 -90h358z" />
    <glyph glyph-name="f" unicode="f" horiz-adv-x="294" 
d="M94 507v75c0 40.667 9.33301 70.5 28 89.5s49 28.5 91 28.5h85v-47h-83c-25.333 0 -43.333 -5.33301 -54 -16s-16 -28.667 -16 -54v-76h152v-47h-152v-460h-51v460h-96v47h96z" />
    <glyph glyph-name="g" unicode="g" horiz-adv-x="587" 
d="M527 507l-0.000976562 -476c0 -80 -19.667 -139.5 -59 -178.5s-100 -58.5 -182 -58.5c-62.667 0 -114 14.333 -154 43s-64 69.667 -72 123h53c8 -38 27.5 -67.5 58.5 -88.5s70.5 -31.5 118.5 -31.5c62.667 0 109.334 15.5 140.001 46.5s46 79.833 46 146.5v89
c-16.667 -40 -41.5 -71.333 -74.5 -94s-72.833 -34 -119.5 -34c-46 0 -87.167 10.667 -123.5 32s-64.666 51.5 -84.999 90.5s-30.5 84.833 -30.5 137.5c0 50.667 10.167 95.667 30.5 135s48.666 69.833 84.999 91.5s77.5 32.5 123.5 32.5s85.667 -11 119 -33
s58 -52.333 74 -91l8 118h44zM385.499 67c29 18 51.5 43.168 67.5 75.501s24 69.166 24 110.499c0 42 -8 79.333 -24 112s-38.5 58 -67.5 76s-62.167 27 -99.5 27s-70.5 -9 -99.5 -27s-51.5 -43.333 -67.5 -76s-24 -69.667 -24 -111s8 -78.333 24 -111s38.5 -58 67.5 -76
s62.167 -27 99.5 -27s70.5 9 99.5 27z" />
    <glyph glyph-name="h" unicode="h" horiz-adv-x="548" 
d="M439.5 456c36.333 -38 54.5 -95.334 54.5 -172.001v-284h-51v282c0 59.333 -13.833 104.833 -41.5 136.5s-66.167 47.5 -115.5 47.5c-54 0 -96.667 -19.5 -128 -58.5s-47 -91.5 -47 -157.5v-250h-51v700h51v-313c15.333 38.667 38.333 69.334 69 92.001s68.667 34 114 34
c60.667 0 109.167 -19 145.5 -57z" />
    <glyph glyph-name="i" unicode="i" horiz-adv-x="171" 
d="M111 683c6.66699 -6.66699 10 -15.334 10 -26.001s-3.33301 -19.334 -10 -26.001s-15.334 -10 -26.001 -10c-10 0 -18.5 3.33301 -25.5 10s-10.5 15.334 -10.5 26.001s3.5 19.334 10.5 26.001s15.5 10 25.5 10c10.667 0 19.334 -3.33301 26.001 -10zM60 507h51v-507h-51
v507z" />
    <glyph glyph-name="j" unicode="j" horiz-adv-x="177" 
d="M117 683c6.66699 -6.66699 10 -15.334 10 -26.001s-3.33301 -19.334 -10 -26.001s-15.334 -10 -26.001 -10c-10 0 -18.5 3.33301 -25.5 10s-10.5 15.334 -10.5 26.001s3.5 19.334 10.5 26.001s15.5 10 25.5 10c10.667 0 19.334 -3.33301 26.001 -10zM-4 -153
c25.333 0 43.333 5.33301 54 16s16 28.667 16 54v590h51v-589c0 -40.667 -9.33301 -70.5 -28 -89.5s-49 -28.5 -91 -28.5h-62v47h60z" />
    <glyph glyph-name="k" unicode="k" horiz-adv-x="497" 
d="M60 700h51v-499l296 306h62l-203 -210l220 -297h-62l-194 260l-119 -122v-138h-51v700z" />
    <glyph glyph-name="l" unicode="l" horiz-adv-x="171" 
d="M60 700h51v-700h-51v700z" />
    <glyph glyph-name="m" unicode="m" horiz-adv-x="866" 
d="M761.5 457c34.333 -37.333 51.498 -93 51.498 -167v-290h-52v287c0 58 -12.333 102.333 -37 133s-59.334 46 -104.001 46c-47.333 0 -85.166 -17.167 -113.499 -51.5s-43.166 -80.5 -44.499 -138.5v-276h-51v287c0 58 -12.5 102.333 -37.5 133s-60.167 46 -105.5 46
c-48 0 -86.333 -19 -115 -57s-43 -88.333 -43 -151v-258h-50v507h44l8 -109c13.333 34.667 34 62.5 62 83.5s62.333 31.5 103 31.5s75.667 -10.833 105 -32.5s50 -53.167 62 -94.5c15.333 39.333 38.333 70.333 69 93s68.334 34 113.001 34c56 0 101.167 -18.667 135.5 -56z
" />
    <glyph glyph-name="n" unicode="n" horiz-adv-x="547" 
d="M439.5 456c36.333 -38 54.499 -95.334 54.499 -172.001v-284h-51v282c0 59.333 -13.833 104.833 -41.5 136.5s-66.167 47.5 -115.5 47.5c-54 0 -96.667 -19.5 -128 -58.5s-47 -91.5 -47 -157.5v-250h-51v507h44l8 -108c15.333 34.667 38.333 62.334 69 83.001
s68.334 31 113.001 31c60.667 0 109.167 -19 145.5 -57z" />
    <glyph glyph-name="o" unicode="o" horiz-adv-x="573" 
d="M160 27c-36.667 22 -65.334 52.667 -86.001 92s-31 84.333 -31 135s10.333 95.5 31 134.5s49.334 69.5 86.001 91.5s78.667 33 126 33s89.5 -11 126.5 -33s65.833 -52.5 86.5 -91.5s31 -83.833 31 -134.5s-10.333 -95.667 -31 -135s-49.5 -70 -86.5 -92
s-79.167 -33 -126.5 -33s-89.333 11 -126 33zM386 67c29.333 18 52 43.333 68 76s24 69.667 24 111s-8 78.166 -24 110.499s-38.667 57.666 -68 75.999s-62.666 27.5 -99.999 27.5s-70.5 -9.16699 -99.5 -27.5s-51.5 -43.666 -67.5 -75.999s-24 -69.166 -24 -110.499
s8 -78.333 24 -111s38.5 -58 67.5 -76s62.167 -27 99.5 -27s70.666 9 99.999 27z" />
    <glyph glyph-name="p" unicode="p" horiz-adv-x="587" 
d="M428.5 481.5c36.333 -21 64.667 -51.167 85 -90.5s30.5 -85 30.5 -137c0 -50.667 -10.167 -95.667 -30.5 -135s-48.666 -70 -84.999 -92s-77.5 -33 -123.5 -33c-47.333 0 -87.833 11 -121.5 33s-57.834 52 -72.501 90v-317h-51v707h44l8 -116
c16.667 37.333 41.5 67 74.5 89s72.5 33 118.5 33s87.167 -10.5 123.5 -31.5zM400.501 67c29 18 51.5 43.334 67.5 76.001s24 69.667 24 111s-8 78.166 -24 110.499s-38.5 57.666 -67.5 75.999s-62.167 27.5 -99.5 27.5s-70.5 -9.16699 -99.5 -27.5
s-51.5 -43.666 -67.5 -75.999s-24 -68.833 -24 -109.5c0 -42 8 -79.333 24 -112s38.5 -58 67.5 -76s62.167 -27 99.5 -27s70.5 9 99.5 27z" />
    <glyph glyph-name="q" unicode="q" horiz-adv-x="587" 
d="M527 507v-707.001h-51v317c-16.667 -37.333 -41.667 -67.166 -75 -89.499s-73 -33.5 -119 -33.5s-87.167 10.667 -123.5 32s-64.666 51.5 -84.999 90.5s-30.5 84.833 -30.5 137.5c0 50 10.167 94.667 30.5 134s48.666 70 84.999 92s77.5 33 123.5 33
s85.667 -10.667 119 -32s58 -50 74 -86l8 112h44zM385.5 66.999c29 18 51.5 43.166 67.5 75.499s24 69.166 24 110.499s-8 78.333 -24 111s-38.5 58.167 -67.5 76.5s-62.167 27.5 -99.5 27.5s-70.5 -9.16699 -99.5 -27.5s-51.5 -43.666 -67.5 -75.999
s-24 -69.166 -24 -110.499s8 -78.333 24 -111s38.5 -58 67.5 -76s62.167 -27 99.5 -27s70.5 9 99.5 27z" />
    <glyph glyph-name="r" unicode="r" horiz-adv-x="312" 
d="M290 507v-49h-33c-54.667 0 -92.667 -18.5 -114 -55.5s-32 -85.5 -32 -145.5v-257h-51v507h44l8 -101c12 31.333 30 56 54 74s57.667 27 101 27h23z" />
    <glyph glyph-name="s" unicode="s" horiz-adv-x="493" 
d="M93 156c2 -36.667 17.6699 -65.498 47.0029 -86.498s68 -31.5 116 -31.5c42 0 76.667 9 104 27s41 41.667 41 71c0 23.333 -6.5 41.5 -19.5 54.5s-29.833 22.333 -50.5 28s-48.334 11.167 -83.001 16.5c-42.667 6 -77.334 12.833 -104.001 20.5s-48.667 20.5 -66 38.5
s-26 43 -26 75c0 28 8.16699 53 24.5 75s38.666 39.167 66.999 51.5s60.5 18.5 96.5 18.5c58 0 105.167 -12.833 141.5 -38.5s56.833 -62.834 61.5 -111.501h-51c-4.66699 32.667 -20.5 58.5 -47.5 77.5s-60.833 28.5 -101.5 28.5c-42 0 -76 -9 -102 -27
s-39 -41.333 -39 -70c0 -22 6.5 -39 19.5 -51s28.833 -20.333 47.5 -25s45.667 -9.33398 81 -14.001c43.333 -6 79 -13.5 107 -22.5s50.833 -23.167 68.5 -42.5s26.5 -45.666 26.5 -78.999c0 -44 -18.833 -79.167 -56.5 -105.5s-84.167 -39.5 -139.5 -39.5
c-64 0 -115.333 14.167 -154 42.5s-58.667 68.166 -60 119.499h51z" />
    <glyph glyph-name="t" unicode="t" horiz-adv-x="299" 
d="M94 460h-96v47h96v142h51v-142h135v-47h-135v-341c0 -26 5.33301 -44.5 16 -55.5s28.667 -16.5 54 -16.5h74v-47h-76c-42.667 0 -73.167 9.33301 -91.5 28s-27.5 48.667 -27.5 90v342z" />
    <glyph glyph-name="u" unicode="u" horiz-adv-x="539" 
d="M479 507v-507h-45l-7 107c-15.333 -34.667 -38 -62.167 -68 -82.5s-66.667 -30.5 -110 -30.5c-58.667 0 -105.834 19.167 -141.501 57.5s-53.5 95.5 -53.5 171.5v284h51v-281c0 -60 13.333 -105.833 40 -137.5s64 -47.5 112 -47.5c52.667 0 94.334 19.5 125.001 58.5
s46 91.833 46 158.5v249h51z" />
    <glyph glyph-name="v" unicode="v" horiz-adv-x="476" 
d="M9 507h55l175 -448l174 448h53l-198 -507h-61z" />
    <glyph glyph-name="w" unicode="w" horiz-adv-x="777" 
d="M11 507h54l148 -446l153 446h48l144 -446l156 446h52l-180 -507h-55l-143 426l-149 -426l-56 -1z" />
    <glyph glyph-name="x" unicode="x" horiz-adv-x="479" 
d="M208 259l-187 248h61l159 -210l160 210h57l-188 -248l198 -259h-62l-169 223l-169 -223h-57z" />
    <glyph glyph-name="y" unicode="y" horiz-adv-x="477" 
d="M64 507l176.002 -446.999l173 447h55l-243 -601c-12 -30 -22.333 -52 -31 -66s-19.334 -24.167 -32.001 -30.5s-30.334 -9.5 -53.001 -9.5h-78v47h64c17.333 0 30.5 2 39.5 6s16.333 10.667 22 20s13.167 24.666 22.5 45.999l33 79l-203 509h55z" />
    <glyph glyph-name="z" unicode="z" horiz-adv-x="466" 
d="M36 507h394v-40l-341 -420h355v-47h-422v40l340 420h-326v47z" />
    <glyph glyph-name="braceleft" unicode="{" horiz-adv-x="321" 
d="M187 627c-20 -18.667 -30 -45.332 -30 -79.999c0 -8 1.33301 -21.333 4 -40l20 -100c4 -16.667 6 -31.667 6 -45c0 -29.333 -8.33301 -53.666 -25 -72.999s-40.334 -32.333 -71.001 -39c30.667 -5.33301 54.334 -17.5 71.001 -36.5s25 -43.167 25 -72.5
c0 -14.667 -2 -30.667 -6 -48l-20 -100c-2.66699 -18.667 -4 -32.334 -4 -41.001c0 -34.667 10 -61.167 30 -79.5s48.667 -27.5 86 -27.5h28v-45h-27c-52 0 -92.667 12.5 -122 37.5s-44 60.167 -44 105.5c0 13.333 1.66699 28.333 5 45l19 103c3.33301 13.333 5 28.333 5 45
c0 28.667 -9.16699 50.667 -27.5 66s-44.5 23.666 -78.5 24.999v46c34.667 0.666992 61.167 9 79.5 25s27.5 38 27.5 66c0 14 -2 29 -6 45l-19 103c-3.33301 16.667 -5 31.667 -5 45c0 45.333 14.667 80.5 44 105.5s70 37.5 122 37.5h27v-45h-28
c-37.333 0 -66 -9.33301 -86 -28z" />
    <glyph glyph-name="bar" unicode="|" horiz-adv-x="195" 
d="M72 700h51v-900h-51v900z" />
    <glyph glyph-name="braceright" unicode="}" horiz-adv-x="321" 
d="M211.5 202c-18.333 -15.333 -27.5 -37.335 -27.5 -66.002c0 -16.667 1.66699 -31.667 5 -45l19 -103c3.33301 -16.667 5 -31.667 5 -45c0 -45.333 -14.667 -80.5 -44 -105.5s-70 -37.5 -122 -37.5h-27v45h28c37.333 0 66 9.16699 86 27.5s30 44.833 30 79.5
c0 8.66699 -1.33301 22.334 -4 41.001l-20 100c-4 17.333 -6 33.333 -6 48c0 29.333 8.33301 53.5 25 72.5s40.334 31.167 71.001 36.5c-30.667 6.66699 -54.334 19.667 -71.001 39s-25 43.666 -25 72.999c0 13.333 2 28.333 6 45l20 100c2.66699 18.667 4 32 4 40
c0 34.667 -10 61.334 -30 80.001s-48.667 28 -86 28h-28v45h27c52 0 92.667 -12.5 122 -37.5s44 -60.167 44 -105.5c0 -13.333 -1.66699 -28.333 -5 -45l-19 -103c-4 -16 -6 -31 -6 -45c0 -28 9.16699 -50 27.5 -66s44.833 -24.333 79.5 -25v-46
c-34 -1.33301 -60.167 -9.66602 -78.5 -24.999z" />
    <glyph glyph-name="asciitilde" unicode="~" 
d="M72 217c0 38 9.83301 68.167 29.5 90.5s45.5 33.5 77.5 33.5c20.667 0 38.167 -3.66699 52.5 -11s29.833 -18 46.5 -32c14 -11.333 25.667 -19.666 35 -24.999s20.333 -8 33 -8c22.667 0 39.667 7.16699 51 21.5s17 33.166 17 56.499h43
c0 -38 -9.66699 -68.167 -29 -90.5s-45.333 -33.5 -78 -33.5c-20.667 0 -38.167 3.66699 -52.5 11s-29.833 18 -46.5 32c-14 11.333 -25.667 19.666 -35 24.999s-20.333 8 -33 8c-22 0.666992 -38.667 -6.16602 -50 -20.499s-17 -33.5 -17 -57.5h-44z" />
    <glyph glyph-name="exclamdown" unicode="&#xa1;" horiz-adv-x="221" 
d="M153 694.5c7.33301 -7 11 -16.167 11 -27.5s-3.66699 -20.333 -11 -27s-16.666 -10 -27.999 -10s-20.5 3.33301 -27.5 10s-10.5 15.667 -10.5 27s3.5 20.5 10.5 27.5s16.167 10.5 27.5 10.5s20.666 -3.5 27.999 -10.5zM106 496h40l7 -496h-55z" />
    <glyph glyph-name="cent" unicode="&#xa2;" horiz-adv-x="541" 
d="M390 165.5c29.333 22.333 48.333 52.5 57 90.5h51c-9.33301 -47.333 -30.166 -86 -62.499 -116s-72.833 -47.333 -121.5 -52v-88h-48v87c-44 2.66699 -82.833 15.167 -116.5 37.5s-59.834 52.666 -78.501 90.999s-28 82.166 -28 131.499
c0 48.667 9.33301 91.834 28 129.501s44.834 67.667 78.501 90s72.5 34.833 116.5 37.5v96h48v-96c49.333 -5.33301 90.166 -22.833 122.499 -52.5s52.833 -68.167 61.5 -115.5h-51c-8.66699 38 -27.667 68.167 -57 90.5s-65 33.5 -107 33.5c-36.667 0 -69.167 -9 -97.5 -27
s-50.5 -43.167 -66.5 -75.5s-24 -69.166 -24 -110.499s8 -78.333 24 -111s38.167 -58.167 66.5 -76.5s60.833 -27.5 97.5 -27.5c42 0 77.667 11.167 107 33.5z" />
    <glyph glyph-name="sterling" unicode="&#xa3;" horiz-adv-x="609" 
d="M138 354l-8.99902 38.001c-5.33301 24 -9.33301 43.667 -12 59s-4 31.666 -4 48.999c0 38.667 9.66699 73.667 29 105s45.666 56 78.999 74s69.666 27 108.999 27c66.667 0 119.5 -17.5 158.5 -52.5s62.833 -85.5 71.5 -151.5h-52c-18 103.333 -76.667 155 -176 155
c-31.333 0 -59.666 -7 -84.999 -21s-45.333 -33.167 -60 -57.5s-22 -51.833 -22 -82.5c0 -23.333 5 -55 15 -95l10 -47h225v-44h-219c2.66699 -15.333 4 -32.333 4 -51c0 -76 -27.667 -145.333 -83 -208l441 -1v-50h-499v47c58.667 66 88 137.667 88 215
c0 10.667 -1.33301 26.667 -4 48h-93v44h88z" />
    <glyph glyph-name="currency" unicode="&#xa4;" horiz-adv-x="610" 
d="M168 523c40.667 32 86.3301 48.002 136.997 48.002s96.334 -16 137.001 -48l77 78l37 -36l-77 -77c17.333 -19.333 30.666 -41.333 39.999 -66s14 -51.334 14 -80.001c0 -26 -4 -50.833 -12 -74.5s-19.333 -44.834 -34 -63.501l69 -69l-36 -35l-69 68
c-19.333 -17.333 -41.666 -30.833 -66.999 -40.5s-51.666 -14.5 -78.999 -14.5s-53.666 4.83301 -78.999 14.5s-47.666 23.167 -66.999 40.5l-69 -68l-36 36l69 69c-30.667 39.333 -46 85 -46 137c0 28 4.66699 54.5 14 79.5s22.666 47.167 39.999 66.5l-77 77l36 35z
M146.496 248.502c15.667 -27.667 37.334 -49.5 65.001 -65.5s58.834 -24 93.501 -24s65.834 8 93.501 24s49.334 37.833 65.001 65.5s23.5 58.834 23.5 93.501s-7.83301 65.834 -23.5 93.501s-37.334 49.5 -65.001 65.5s-58.834 24 -93.501 24s-65.834 -8 -93.501 -24
s-49.334 -37.833 -65.001 -65.5s-23.5 -58.834 -23.5 -93.501s7.83301 -65.834 23.5 -93.501z" />
    <glyph glyph-name="yen" unicode="&#xa5;" horiz-adv-x="631" 
d="M606 701l-249 -411h180v-40h-199v-107h199v-40h-199v-103h-54v103h-199v40h199v107h-199v40h180l-250 411h64l232 -384l234 384h61z" />
    <glyph glyph-name="brokenbar" unicode="&#xa6;" horiz-adv-x="195" 
d="M72 700h51v-391h-51v391zM72 190h51v-390h-51v390z" />
    <glyph glyph-name="section" unicode="&#xa7;" horiz-adv-x="569" 
d="M470.5 208.5c-21 -23 -50.1699 -40.498 -87.5029 -52.498c25.333 -12 45 -27.333 59 -46s21 -43 21 -73c0 -42.667 -16.5 -77.167 -49.5 -103.5s-75.833 -39.5 -128.5 -39.5c-51.333 0 -93.833 12.667 -127.5 38s-51.834 60 -54.501 104h51c2 -32 15 -56.667 39 -74
s54.667 -26 92 -26c38 0 68.833 8.83301 92.5 26.5s35.5 41.167 35.5 70.5c0 24 -6.16699 43 -18.5 57s-27.166 24.5 -44.499 31.5s-42.333 15.167 -75 24.5c-46 12.667 -82.833 24.834 -110.5 36.501s-50.834 27.5 -69.501 47.5s-28 45.667 -28 77
c0 34 10.333 62.667 31 86s49.334 40.666 86.001 51.999c-25.333 12 -44.833 27.5 -58.5 46.5s-20.5 43.167 -20.5 72.5c0 42 17 76.167 51 102.5s78.333 39.5 133 39.5c50 0 91.333 -12.667 124 -38s50 -60 52 -104h-51c-1.33301 32 -13.666 56.667 -36.999 74
s-52.666 26 -87.999 26c-39.333 0 -71.333 -8.83301 -96 -26.5s-37 -40.834 -37 -69.501c0 -24 6 -43 18 -57s27 -24.833 45 -32.5s43 -15.834 75 -24.501c46 -12.667 82.833 -24.667 110.5 -36s50.834 -27 69.501 -47s28 -45.667 28 -77c0 -34 -10.5 -62.5 -31.5 -85.5z
M417.997 215.002c21.333 19.333 32 45 32 77c0 23.333 -6.83301 42.166 -20.5 56.499s-30.834 25.333 -51.501 33s-51 17.167 -91 28.5l-50 14c-36 -6.66699 -64.667 -19.5 -86 -38.5s-32 -44.5 -32 -76.5c0 -23.333 6.83301 -42.166 20.5 -56.499
s30.834 -25.5 51.501 -33.5s50.667 -17.667 90 -29l51 -14c36 6.66699 64.667 19.667 86 39z" />
    <glyph glyph-name="dieresis" unicode="&#xa8;" horiz-adv-x="400" 
d="M91 669c6.66699 6.66699 15 10 25 10c10.667 0 19.334 -3.33301 26.001 -10s10 -15 10 -25s-3.33301 -18.333 -10 -25s-15.334 -10 -26.001 -10c-10 0 -18.333 3.33301 -25 10s-10 15 -10 25s3.33301 18.333 10 25zM258.5 669c7 6.66699 15.5 10 25.5 10
s18.333 -3.33301 25 -10s10 -15 10 -25s-3.33301 -18.333 -10 -25s-15 -10 -25 -10s-18.5 3.33301 -25.5 10s-10.5 15 -10.5 25s3.5 18.333 10.5 25z" />
    <glyph glyph-name="copyright" unicode="&#xa9;" horiz-adv-x="823" 
d="M98.5 530.5c31.667 54.333 75 97.168 130 128.501s115.833 47 182.5 47s127.5 -15.667 182.5 -47s98.5 -74.333 130.5 -129s48 -114.667 48 -180s-16 -125.333 -48 -180s-75.5 -97.667 -130.5 -129s-115.833 -47 -182.5 -47s-127.5 15.667 -182.5 47
s-98.333 74.166 -130 128.499s-47.5 114.5 -47.5 180.5s15.833 126.167 47.5 180.5zM690.5 512.502c-28.333 49 -67.166 87.667 -116.499 116s-103.666 42.5 -162.999 42.5s-113.5 -14.167 -162.5 -42.5s-87.667 -67 -116 -116s-42.5 -103.167 -42.5 -162.5
s14.167 -113.5 42.5 -162.5s67 -87.667 116 -116s103.167 -42.5 162.5 -42.5s113.666 14.167 162.999 42.5s88.166 67 116.499 116s42.5 103.167 42.5 162.5s-14.167 113.5 -42.5 162.5zM527.5 184.002c-31 -26 -69.8359 -39.001 -116.503 -39.001
c-39.333 0 -73.666 9.33301 -102.999 28s-51.666 43.834 -66.999 75.501s-23 66.167 -23 103.5s7.66699 71.666 23 102.999s37.5 56.333 66.5 75s63.5 28 103.5 28c46 0 84.833 -13.167 116.5 -39.5s51.834 -61.833 60.501 -106.5h-43c-8 32.667 -23.667 58.834 -47 78.501
s-52 29.5 -86 29.5c-47.333 0 -84.333 -16 -111 -48s-40 -72 -40 -120c0 -47.333 13.333 -87.333 40 -120s63.667 -49 111 -49c34 0 62.667 9.66699 86 29s39.333 45.333 48 78h42c-9.33301 -44.667 -29.5 -80 -60.5 -106z" />
    <glyph glyph-name="ordfeminine" unicode="&#xaa;" horiz-adv-x="429" 
d="M97 540c22 16.667 53.666 25 94.999 25h103v27c0 26 -7.83301 46 -23.5 60s-38.167 21 -67.5 21c-25.333 0 -45.833 -6.33301 -61.5 -19s-25.167 -29.667 -28.5 -51h-40c3.33301 31.333 16.833 56.333 40.5 75s53.834 28 90.501 28c40.667 0 72.334 -10 95.001 -30
s34 -48.333 34 -85v-142c0 -20.667 10 -31 30 -31h15v-33h-26c-17.333 0 -30.333 4.5 -39 13.5s-13 21.833 -13 38.5v25c-8.66699 -23.333 -23.5 -42.833 -44.5 -58.5s-47.167 -23.5 -78.5 -23.5c-34.667 0 -62.334 8 -83.001 24s-31 38 -31 66c0 30 11 53.333 33 70z
M294.999 536h-104c-26.667 0 -47.5 -5.83301 -62.5 -17.5s-22.5 -27.167 -22.5 -46.5s6.66699 -34.333 20 -45s32 -16 56 -16c34 0 61.333 11.167 82 33.5s31 48.833 31 79.5v12zM58.999 291h320v-37h-320v37z" />
    <glyph glyph-name="guillemotleft" unicode="&#xab;" horiz-adv-x="554" 
d="M273 507l-161 -253l161 -254h-52l-163 254l163 253h52zM494 506l-161 -253l161 -254h-52l-163 254l163 253h52z" />
    <glyph glyph-name="logicalnot" unicode="&#xac;" 
d="M66 336h353v-212h-46v168h-307v44z" />
    <glyph glyph-name="registered" unicode="&#xae;" horiz-adv-x="510" 
d="M80.5 608.5c17.667 30.333 41.667 54.3311 72 71.998s64.166 26.5 101.499 26.5c38 0 72.333 -8.66699 103 -26s54.834 -41.166 72.501 -71.499s26.5 -64.166 26.5 -101.499s-8.83301 -71.166 -26.5 -101.499s-41.834 -54.166 -72.501 -71.499s-65 -26 -103 -26
c-37.333 0 -71.166 8.66699 -101.499 26s-54.333 41.166 -72 71.499s-26.5 63.833 -26.5 100.5c0 37.333 8.83301 71.166 26.5 101.499zM403.5 595.498c-15 26.333 -35.5 47 -61.5 62s-55.333 22.5 -88 22.5c-32 0 -61 -7.5 -87 -22.5s-46.5 -35.667 -61.5 -62
s-22.5 -55.833 -22.5 -88.5c0 -32 7.5 -61 22.5 -87s35.5 -46.5 61.5 -61.5s55 -22.5 87 -22.5c32.667 0 62 7.5 88 22.5s46.5 35.667 61.5 62s22.5 55.5 22.5 87.5s-7.5 61.167 -22.5 87.5zM264 621.998c24 0 43.167 -6.33398 57.5 -19.001s21.5 -29 21.5 -49
c0 -16.667 -5 -30.667 -15 -42s-23.667 -18.666 -41 -21.999l57 -96h-33l-53 91h-49v-91h-29v228h84zM209 509.997h54c14.667 0 26.667 3.83301 36 11.5s14 18.5 14 32.5c0 13.333 -4.66699 23.833 -14 31.5s-21.333 11.5 -36 11.5h-54v-87z" />
    <glyph glyph-name="macron" unicode="&#xaf;" horiz-adv-x="400" 
d="M72 626v39h256v-39h-256z" />
    <glyph glyph-name="degree" unicode="&#xb0;" horiz-adv-x="428" 
d="M78.5 626.5c13.667 23.667 32.5 42.167 56.5 55.5s50.333 20 79 20s55 -6.66699 79 -20s43 -31.833 57 -55.5s21 -49.834 21 -78.501c0 -28 -7 -53.667 -21 -77s-33 -41.666 -57 -54.999s-50.333 -20 -79 -20s-55 6.66699 -79 20s-42.833 31.666 -56.5 54.999
s-20.5 49 -20.5 77c0 28.667 6.83301 54.834 20.5 78.501zM299.5 634c-23 23.333 -51.5 35 -85.5 35c-33.333 0 -61.666 -11.667 -84.999 -35s-35 -52 -35 -86c0 -32.667 11.667 -60.5 35 -83.5s51.666 -34.5 84.999 -34.5c34 0 62.5 11.333 85.5 34s34.5 50.667 34.5 84
c0 34 -11.5 62.667 -34.5 86z" />
    <glyph glyph-name="plusminus" unicode="&#xb1;" 
d="M66 0v43h396v-43h-396zM240 502h47v-183h175v-43h-175v-183h-47v183h-174v43h174v183z" />
    <glyph glyph-name="uni00B2" unicode="&#xb2;" horiz-adv-x="310" 
d="M31 688c0 36 11.6689 64.668 35.002 86.001s52.666 32 87.999 32c37.333 0 67.333 -10 90 -30s34 -46 34 -78c0 -24.667 -6.33301 -46 -19 -64s-31 -37.333 -55 -58l-123 -105h201v-35h-255v34l150 125c21.333 18 37.166 34.667 47.499 50s15.5 32.666 15.5 51.999
c0 22 -7.83301 39.833 -23.5 53.5s-36.167 20.5 -61.5 20.5c-26.667 0 -48 -7.5 -64 -22.5s-24 -35.833 -24 -62.5v-6h-36v8z" />
    <glyph glyph-name="uni00B3" unicode="&#xb3;" horiz-adv-x="319" 
d="M70 779c22.667 19.333 52.3281 29 88.9951 29s66.334 -9.16699 89.001 -27.5s34 -42.166 34 -71.499c0 -21.333 -6.66699 -39 -20 -53s-30.666 -23 -51.999 -27c24.667 -4.66699 44.334 -14.5 59.001 -29.5s22 -34.5 22 -58.5c0 -32.667 -12.167 -59 -36.5 -79
s-56.5 -30 -96.5 -30c-42 0 -74.667 10 -98 30s-35 48.333 -35 85h36c0.666992 -26 9.83398 -46 27.501 -60s41.167 -21 70.5 -21c27.333 0 49.833 6.83301 67.5 20.5s26.5 31.5 26.5 53.5s-9 39.5 -27 52.5s-42 19.5 -72 19.5h-23v27h23
c26.667 0 48.334 6.16699 65.001 18.5s25 28.5 25 48.5s-7.83301 36.333 -23.5 49s-35.834 19 -60.501 19c-26.667 0 -48 -6.66699 -64 -20s-24 -31.333 -24 -54h-37c0.666992 33.333 12.334 59.666 35.001 78.999z" />
    <glyph glyph-name="acute" unicode="&#xb4;" horiz-adv-x="400" 
d="M181 568l91 132h60l-110 -132h-41z" />
    <glyph glyph-name="uni00B5" unicode="&#xb5;" horiz-adv-x="549" 
d="M111 -200l-50.999 0.00195312v707h51v-276c0 -60.667 13.667 -107.5 41 -140.5s65.333 -49.5 114 -49.5c52 0 93.667 20.167 125 60.5s47 94.166 47 161.499v244h51v-507h-47l-4 123c-14.667 -40.667 -36.834 -72.334 -66.501 -95.001s-66.5 -34 -110.5 -34
c-35.333 0 -67 8.66699 -95 26s-46.333 40 -55 68v-288z" />
    <glyph glyph-name="paragraph" unicode="&#xb6;" horiz-adv-x="631" 
d="M386 236h-115c-48 0 -90.5 9.83301 -127.5 29.5s-65.5 47 -85.5 82s-30 75.167 -30 120.5s10 85.5 30 120.5s48.333 62.333 85 82s79 29.5 127 29.5h165v-700h-49v236zM511 700h49v-700h-49v700z" />
    <glyph glyph-name="periodcentered" unicode="&#xb7;" horiz-adv-x="184" 
d="M64.5 318c7 6.66699 16.167 10 27.5 10s20.5 -3.33301 27.5 -10s10.5 -15.667 10.5 -27s-3.5 -20.5 -10.5 -27.5s-16.167 -10.5 -27.5 -10.5s-20.5 3.5 -27.5 10.5s-10.5 16.167 -10.5 27.5s3.5 20.333 10.5 27z" />
    <glyph glyph-name="cedilla" unicode="&#xb8;" horiz-adv-x="400" 
d="M218 10l-13.999 -59.001h16c24.667 0 44.667 -6.66699 60 -20s23 -30.666 23 -51.999c0 -24 -7.83301 -43.167 -23.5 -57.5s-36.167 -21.5 -61.5 -21.5h-82v32h74c16 0 28.833 4 38.5 12s14.5 19.333 14.5 34c0 12.667 -4.83301 23 -14.5 31s-21.834 12 -36.501 12h-44
l22 89h28z" />
    <glyph glyph-name="uni00B9" unicode="&#xb9;" horiz-adv-x="168" 
d="M87 437v257c-2.66699 -6 -8.66699 -9 -18 -9h-69v35h69c5.33301 0 9.83301 2.33301 13.5 7s5.5 10 5.5 16v58h35v-364h-36z" />
    <glyph glyph-name="ordmasculine" unicode="&#xba;" horiz-adv-x="416" 
d="M316 425c-28 -30 -64.333 -45 -109 -45s-81 15 -109 45s-42 69.333 -42 118s14 88.167 42 118.5s64.333 45.5 109 45.5s81 -15.167 109 -45.5s42 -69.833 42 -118.5s-14 -88 -42 -118zM128.5 451c20.333 -23.333 46.5 -35 78.5 -35c32.667 0 59.167 11.667 79.5 35
s30.5 54 30.5 92s-10.167 68.833 -30.5 92.5s-46.833 35.5 -79.5 35.5c-32 0 -58.167 -11.833 -78.5 -35.5s-30.5 -54.5 -30.5 -92.5s10.167 -68.667 30.5 -92zM55 291h306v-37h-306v37z" />
    <glyph glyph-name="guillemotright" unicode="&#xbb;" horiz-adv-x="554" 
d="M281 507h52l163 -253l-163 -254h-52l161 254zM60 506h52l163 -253l-163 -254h-52l161 254z" />
    <glyph glyph-name="onequarter" unicode="&#xbc;" horiz-adv-x="583" 
d="M87 337v257c-2.66699 -6 -8.66699 -9 -18 -9h-69v35h69c5.33301 0 9.83301 2.33301 13.5 7s5.5 10 5.5 16v58h35v-364h-36zM15 0l444 700h43l-444 -700h-43zM475 364h44v-234h62v-34h-62v-96h-36v96h-192v34zM483 324l-152 -194h152v194z" />
    <glyph glyph-name="onehalf" unicode="&#xbd;" horiz-adv-x="633" 
d="M87 337v257c-2.66699 -6 -8.66699 -9 -18 -9h-69v35h69c5.33301 0 9.83301 2.33301 13.5 7s5.5 10 5.5 16v58h35v-364h-36zM15 0l444 700h43l-444 -700h-43zM360 252c0 36 11.6689 64.668 35.002 86.001s52.666 32 87.999 32c37.333 0 67.333 -10 90 -30s34 -46 34 -78
c0 -24.667 -6.33301 -46 -19 -64s-31 -37.333 -55 -58l-123 -105h201v-35h-255v34l150 125c21.333 18 37.166 34.667 47.499 50s15.5 32.666 15.5 51.999c0 22 -7.83301 39.833 -23.5 53.5s-36.167 20.5 -61.5 20.5c-26.667 0 -48 -7.5 -64 -22.5s-24 -35.833 -24 -62.5v-6
h-36v8z" />
    <glyph glyph-name="threequarters" unicode="&#xbe;" horiz-adv-x="734" 
d="M70 679c22.667 19.333 52.3281 29 88.9951 29s66.334 -9.16699 89.001 -27.5s34 -42.166 34 -71.499c0 -21.333 -6.66699 -39 -20 -53s-30.666 -23 -51.999 -27c24.667 -4.66699 44.334 -14.5 59.001 -29.5s22 -34.5 22 -58.5c0 -32.667 -12.167 -59 -36.5 -79
s-56.5 -30 -96.5 -30c-42 0 -74.667 10 -98 30s-35 48.333 -35 85h36c0.666992 -26 9.83398 -46 27.501 -60s41.167 -21 70.5 -21c27.333 0 49.833 6.83301 67.5 20.5s26.5 31.5 26.5 53.5s-9 39.5 -27 52.5s-42 19.5 -72 19.5h-23v27h23
c26.667 0 48.334 6.16699 65.001 18.5s25 28.5 25 48.5s-7.83301 36.333 -23.5 49s-35.834 19 -60.501 19c-26.667 0 -48 -6.66699 -64 -20s-24 -31.333 -24 -54h-37c0.666992 33.333 12.334 59.666 35.001 78.999zM165.994 0l444 700h43l-444 -700h-43zM625.994 364h44
v-234h62v-34h-62v-96h-36v96h-192v34zM633.994 324l-152 -194h152v194z" />
    <glyph glyph-name="questiondown" unicode="&#xbf;" horiz-adv-x="500" 
d="M283.5 640c-7 -6.66699 -16.167 -10 -27.5 -10s-20.5 3.33301 -27.5 10s-10.5 15.667 -10.5 27s3.5 20.5 10.5 27.5s16.167 10.5 27.5 10.5s20.5 -3.5 27.5 -10.5s10.5 -16.167 10.5 -27.5s-3.5 -20.333 -10.5 -27zM432.5 101
c-17.667 -33.333 -42.666 -59.5 -74.999 -78.5s-70.166 -28.5 -113.499 -28.5c-40 0 -75.167 7.33301 -105.5 22s-53.833 35 -70.5 61s-25 55 -25 87c0 38.667 8.16699 70.667 24.5 96s38.833 49 67.5 71c4 3.33301 16.333 12.5 37 27.5s36 30.833 46 47.5s15 34.667 15 54
v35h48v-40c0 -24 -4.83301 -44.667 -14.5 -62s-20.334 -31 -32.001 -41s-31.834 -26 -60.501 -48c-25.333 -19.333 -44.666 -39.333 -57.999 -60s-20 -45.667 -20 -75c0 -36.667 13.667 -67 41 -91s62.666 -36 105.999 -36c49.333 0 89 15.833 119 47.5s45 73.167 45 124.5
h52c0 -42 -8.83301 -79.667 -26.5 -113z" />
    <glyph glyph-name="Agrave" unicode="&#xc0;" horiz-adv-x="638" 
d="M17 0l270 700h64l270 -700h-58l-84 214h-322l-84 -214h-56zM173 264h290l-145 377zM189 896h60l90 -132h-42z" />
    <glyph glyph-name="Aacute" unicode="&#xc1;" horiz-adv-x="638" 
d="M17 0l270 700h64l270 -700h-58l-84 214h-322l-84 -214h-56zM173 264h290l-145 377zM300 764l91 132h60l-110 -132h-41z" />
    <glyph glyph-name="Acircumflex" unicode="&#xc2;" horiz-adv-x="638" 
d="M17 0l270 700h64l270 -700h-58l-84 214h-322l-84 -214h-56zM173 264h290l-145 377zM319 862l-102 -99h-50l127 133h50l127 -133h-51z" />
    <glyph glyph-name="Atilde" unicode="&#xc3;" horiz-adv-x="638" 
d="M17 0l270 700h64l270 -700h-58l-84 214h-322l-84 -214h-56zM173 264h290l-145 377zM233.5 836.5c-7 -10.333 -10.499 -22.833 -10.499 -37.5h-33v8c0 23.333 6.5 42.5 19.5 57.5s30.833 22.5 53.5 22.5c15.333 0 27.666 -2.83301 36.999 -8.5s19 -13.5 29 -23.5
c8.66699 -8.66699 16 -15 22 -19s13.667 -6 23 -6c13.333 0 23.333 5.16699 30 15.5s10 22.5 10 36.5h34v-7c0 -23.333 -6.5 -42.5 -19.5 -57.5s-30.833 -22.5 -53.5 -22.5c-15.333 0 -27.5 2.66699 -36.5 8s-18.833 13.333 -29.5 24c-8.66699 8.66699 -16 15 -22 19
s-13.667 6 -23 6c-13.333 0 -23.5 -5.16699 -30.5 -15.5z" />
    <glyph glyph-name="Adieresis" unicode="&#xc4;" horiz-adv-x="638" 
d="M17 0l270 700h64l270 -700h-58l-84 214h-322l-84 -214h-56zM173 264h290l-145 377zM210 865c6.66699 6.66699 15 10 25 10c10.667 0 19.334 -3.33301 26.001 -10s10 -15 10 -25s-3.33301 -18.333 -10 -25s-15.334 -10 -26.001 -10c-10 0 -18.333 3.33301 -25 10
s-10 15 -10 25s3.33301 18.333 10 25zM377.5 865c7 6.66699 15.5 10 25.5 10s18.333 -3.33301 25 -10s10 -15 10 -25s-3.33301 -18.333 -10 -25s-15 -10 -25 -10s-18.5 3.33301 -25.5 10s-10.5 15 -10.5 25s3.5 18.333 10.5 25z" />
    <glyph glyph-name="Aring" unicode="&#xc5;" horiz-adv-x="638" 
d="M621 0h-58.002l-84 214h-322l-84 -214h-56l264 685c-21.333 7.33301 -38.833 20.5 -52.5 39.5s-20.5 40.167 -20.5 63.5c0 30 10.833 55.667 32.5 77s47.834 32 78.501 32s56.834 -10.667 78.501 -32s32.5 -47 32.5 -77c0 -23.333 -6.83301 -44.5 -20.5 -63.5
s-31.167 -32.167 -52.5 -39.5zM264.498 732.5c15 -15 33.167 -22.5 54.5 -22.5s39.5 7.5 54.5 22.5s22.5 33.5 22.5 55.5s-7.5 40.5 -22.5 55.5s-33.167 22.5 -54.5 22.5s-39.5 -7.5 -54.5 -22.5s-22.5 -33.5 -22.5 -55.5s7.5 -40.5 22.5 -55.5zM172.998 264h290l-145 377z
" />
    <glyph glyph-name="AE" unicode="&#xc6;" horiz-adv-x="937" 
d="M517 50h390v-50h-444v195h-277l-122 -195h-57l430 700h457v-50h-377v-268h316v-50h-316v-282zM212 243h251v410z" />
    <glyph glyph-name="Ccedilla" unicode="&#xc7;" horiz-adv-x="702" 
d="M518.5 88c39.667 29.333 66.834 71.9971 81.501 127.997h54c-15.333 -67.333 -45.666 -120.333 -90.999 -159s-102.666 -59.667 -171.999 -63l-10 -43h16c24.667 0 44.667 -6.66699 60 -20s23 -30.666 23 -51.999c0 -24 -7.83301 -43.167 -23.5 -57.5
s-36.167 -21.5 -61.5 -21.5h-82v32h74c16 0 28.833 4 38.5 12s14.5 19.333 14.5 34c0 12.667 -4.83301 23 -14.5 31s-21.834 12 -36.501 12h-44l18 73c-63.333 1.33301 -118.833 17 -166.5 47s-84.5 71.667 -110.5 125s-39 114.666 -39 183.999s13.333 131 40 185
s64.667 96 114 126s106.333 45 171 45c74 0 136 -19.333 186 -58s82.333 -93 97 -163h-54c-14.667 54.667 -42.334 96.834 -83.001 126.501s-90.334 44.5 -149.001 44.5c-53.333 0 -100 -13 -140 -39s-71 -62.167 -93 -108.5s-33 -99.166 -33 -158.499
s11 -112.166 33 -158.499s53 -82.5 93 -108.5s86.667 -39 140 -39c60 0 109.833 14.667 149.5 44z" />
    <glyph glyph-name="Egrave" unicode="&#xc8;" horiz-adv-x="546" 
d="M72 700h431v-50h-377v-268h316v-50h-316v-282h390v-50h-444v700zM146 896h60l90 -132h-42z" />
    <glyph glyph-name="Eacute" unicode="&#xc9;" horiz-adv-x="546" 
d="M72 700h431v-50h-377v-268h316v-50h-316v-282h390v-50h-444v700zM257 764l91 132h60l-110 -132h-41z" />
    <glyph glyph-name="Ecircumflex" unicode="&#xca;" horiz-adv-x="546" 
d="M72 700h431v-50h-377v-268h316v-50h-316v-282h390v-50h-444v700zM276 862l-102 -99h-50l127 133h50l127 -133h-51z" />
    <glyph glyph-name="Edieresis" unicode="&#xcb;" horiz-adv-x="546" 
d="M72 700h431v-50h-377v-268h316v-50h-316v-282h390v-50h-444v700zM167 865c6.66699 6.66699 15 10 25 10c10.667 0 19.334 -3.33301 26.001 -10s10 -15 10 -25s-3.33301 -18.333 -10 -25s-15.334 -10 -26.001 -10c-10 0 -18.333 3.33301 -25 10s-10 15 -10 25
s3.33301 18.333 10 25zM334.5 865c7 6.66699 15.5 10 25.5 10s18.333 -3.33301 25 -10s10 -15 10 -25s-3.33301 -18.333 -10 -25s-15 -10 -25 -10s-18.5 3.33301 -25.5 10s-10.5 15 -10.5 25s3.5 18.333 10.5 25z" />
    <glyph glyph-name="Igrave" unicode="&#xcc;" horiz-adv-x="198" 
d="M72 700h54v-700h-54v700zM-31 896h60l90 -132h-42z" />
    <glyph glyph-name="Iacute" unicode="&#xcd;" horiz-adv-x="198" 
d="M72 700h54v-700h-54v700zM80 764l91 132h60l-110 -132h-41z" />
    <glyph glyph-name="Icircumflex" unicode="&#xce;" horiz-adv-x="198" 
d="M72 700h54v-700h-54v700zM99 862l-102 -99h-50l127 133h50l127 -133h-51z" />
    <glyph glyph-name="Idieresis" unicode="&#xcf;" horiz-adv-x="198" 
d="M72 700h54v-700h-54v700zM-10 865c6.66699 6.66699 15 10 25 10c10.667 0 19.334 -3.33301 26.001 -10s10 -15 10 -25s-3.33301 -18.333 -10 -25s-15.334 -10 -26.001 -10c-10 0 -18.333 3.33301 -25 10s-10 15 -10 25s3.33301 18.333 10 25zM157.5 865
c7 6.66699 15.5 10 25.5 10s18.333 -3.33301 25 -10s10 -15 10 -25s-3.33301 -18.333 -10 -25s-15 -10 -25 -10s-18.5 3.33301 -25.5 10s-10.5 15 -10.5 25s3.5 18.333 10.5 25z" />
    <glyph glyph-name="Eth" unicode="&#xd0;" horiz-adv-x="674" 
d="M465 657c52.667 -28.667 93 -69.3301 121 -121.997s42 -114.334 42 -185.001s-14 -132.334 -42 -185.001s-68.333 -93.334 -121 -122.001s-115.667 -43 -189 -43h-188v334h-90v46h90v320h188c73.333 0 136.333 -14.333 189 -43zM495 130.504
c52 53.667 78.001 126.834 78.001 219.501c0 93.333 -25.833 166.666 -77.5 219.999s-124.834 80 -219.501 80h-134v-270h157v-46h-157v-284h134c94 0 167 26.833 219 80.5z" />
    <glyph glyph-name="Ntilde" unicode="&#xd1;" horiz-adv-x="662" 
d="M72 0v700h51l414 -601v601h53v-700h-51l-414 602v-602h-53zM242.5 836.5c-7 -10.333 -10.499 -22.833 -10.499 -37.5h-33v8c0 23.333 6.5 42.5 19.5 57.5s30.833 22.5 53.5 22.5c15.333 0 27.666 -2.83301 36.999 -8.5s19 -13.5 29 -23.5c8.66699 -8.66699 16 -15 22 -19
s13.667 -6 23 -6c13.333 0 23.333 5.16699 30 15.5s10 22.5 10 36.5h34v-7c0 -23.333 -6.5 -42.5 -19.5 -57.5s-30.833 -22.5 -53.5 -22.5c-15.333 0 -27.5 2.66699 -36.5 8s-18.833 13.333 -29.5 24c-8.66699 8.66699 -16 15 -22 19s-13.667 6 -23 6
c-13.333 0 -23.5 -5.16699 -30.5 -15.5z" />
    <glyph glyph-name="Ograve" unicode="&#xd2;" horiz-adv-x="749" 
d="M659.5 166.5c-27.667 -54.333 -66.334 -96.666 -116.001 -126.999s-106.167 -45.5 -169.5 -45.5s-119.833 15.167 -169.5 45.5s-88.334 72.666 -116.001 126.999s-41.5 115.5 -41.5 183.5s13.833 129.167 41.5 183.5s66.334 96.666 116.001 126.999
s106.167 45.5 169.5 45.5s119.833 -15.167 169.5 -45.5s88.334 -72.666 116.001 -126.999s41.5 -115.5 41.5 -183.5s-13.833 -129.167 -41.5 -183.5zM137.5 191.5c23 -46.333 55 -82.5 96 -108.5s87.833 -39 140.5 -39s99.667 13 141 39s73.5 62.167 96.5 108.5
s34.5 99.166 34.5 158.499s-11.5 112.166 -34.5 158.499s-55.167 82.5 -96.5 108.5s-88.333 39 -141 39s-99.5 -13 -140.5 -39s-73 -62.167 -96 -108.5s-34.5 -99.166 -34.5 -158.499s11.5 -112.166 34.5 -158.499zM245 896h60l90 -132h-42z" />
    <glyph glyph-name="Oacute" unicode="&#xd3;" horiz-adv-x="749" 
d="M659.5 166.5c-27.667 -54.333 -66.334 -96.666 -116.001 -126.999s-106.167 -45.5 -169.5 -45.5s-119.833 15.167 -169.5 45.5s-88.334 72.666 -116.001 126.999s-41.5 115.5 -41.5 183.5s13.833 129.167 41.5 183.5s66.334 96.666 116.001 126.999
s106.167 45.5 169.5 45.5s119.833 -15.167 169.5 -45.5s88.334 -72.666 116.001 -126.999s41.5 -115.5 41.5 -183.5s-13.833 -129.167 -41.5 -183.5zM137.5 191.5c23 -46.333 55 -82.5 96 -108.5s87.833 -39 140.5 -39s99.667 13 141 39s73.5 62.167 96.5 108.5
s34.5 99.166 34.5 158.499s-11.5 112.166 -34.5 158.499s-55.167 82.5 -96.5 108.5s-88.333 39 -141 39s-99.5 -13 -140.5 -39s-73 -62.167 -96 -108.5s-34.5 -99.166 -34.5 -158.499s11.5 -112.166 34.5 -158.499zM356 764l91 132h60l-110 -132h-41z" />
    <glyph glyph-name="Ocircumflex" unicode="&#xd4;" horiz-adv-x="749" 
d="M659.5 166.5c-27.667 -54.333 -66.334 -96.666 -116.001 -126.999s-106.167 -45.5 -169.5 -45.5s-119.833 15.167 -169.5 45.5s-88.334 72.666 -116.001 126.999s-41.5 115.5 -41.5 183.5s13.833 129.167 41.5 183.5s66.334 96.666 116.001 126.999
s106.167 45.5 169.5 45.5s119.833 -15.167 169.5 -45.5s88.334 -72.666 116.001 -126.999s41.5 -115.5 41.5 -183.5s-13.833 -129.167 -41.5 -183.5zM137.5 191.5c23 -46.333 55 -82.5 96 -108.5s87.833 -39 140.5 -39s99.667 13 141 39s73.5 62.167 96.5 108.5
s34.5 99.166 34.5 158.499s-11.5 112.166 -34.5 158.499s-55.167 82.5 -96.5 108.5s-88.333 39 -141 39s-99.5 -13 -140.5 -39s-73 -62.167 -96 -108.5s-34.5 -99.166 -34.5 -158.499s11.5 -112.166 34.5 -158.499zM375 862l-102 -99h-50l127 133h50l127 -133h-51z" />
    <glyph glyph-name="Otilde" unicode="&#xd5;" horiz-adv-x="749" 
d="M659.5 166.5c-27.667 -54.333 -66.334 -96.666 -116.001 -126.999s-106.167 -45.5 -169.5 -45.5s-119.833 15.167 -169.5 45.5s-88.334 72.666 -116.001 126.999s-41.5 115.5 -41.5 183.5s13.833 129.167 41.5 183.5s66.334 96.666 116.001 126.999
s106.167 45.5 169.5 45.5s119.833 -15.167 169.5 -45.5s88.334 -72.666 116.001 -126.999s41.5 -115.5 41.5 -183.5s-13.833 -129.167 -41.5 -183.5zM137.5 191.5c23 -46.333 55 -82.5 96 -108.5s87.833 -39 140.5 -39s99.667 13 141 39s73.5 62.167 96.5 108.5
s34.5 99.166 34.5 158.499s-11.5 112.166 -34.5 158.499s-55.167 82.5 -96.5 108.5s-88.333 39 -141 39s-99.5 -13 -140.5 -39s-73 -62.167 -96 -108.5s-34.5 -99.166 -34.5 -158.499s11.5 -112.166 34.5 -158.499zM289.5 836.5c-7 -10.333 -10.499 -22.833 -10.499 -37.5
h-33v8c0 23.333 6.5 42.5 19.5 57.5s30.833 22.5 53.5 22.5c15.333 0 27.666 -2.83301 36.999 -8.5s19 -13.5 29 -23.5c8.66699 -8.66699 16 -15 22 -19s13.667 -6 23 -6c13.333 0 23.333 5.16699 30 15.5s10 22.5 10 36.5h34v-7c0 -23.333 -6.5 -42.5 -19.5 -57.5
s-30.833 -22.5 -53.5 -22.5c-15.333 0 -27.5 2.66699 -36.5 8s-18.833 13.333 -29.5 24c-8.66699 8.66699 -16 15 -22 19s-13.667 6 -23 6c-13.333 0 -23.5 -5.16699 -30.5 -15.5z" />
    <glyph glyph-name="Odieresis" unicode="&#xd6;" horiz-adv-x="749" 
d="M659.5 166.5c-27.667 -54.333 -66.334 -96.666 -116.001 -126.999s-106.167 -45.5 -169.5 -45.5s-119.833 15.167 -169.5 45.5s-88.334 72.666 -116.001 126.999s-41.5 115.5 -41.5 183.5s13.833 129.167 41.5 183.5s66.334 96.666 116.001 126.999
s106.167 45.5 169.5 45.5s119.833 -15.167 169.5 -45.5s88.334 -72.666 116.001 -126.999s41.5 -115.5 41.5 -183.5s-13.833 -129.167 -41.5 -183.5zM137.5 191.5c23 -46.333 55 -82.5 96 -108.5s87.833 -39 140.5 -39s99.667 13 141 39s73.5 62.167 96.5 108.5
s34.5 99.166 34.5 158.499s-11.5 112.166 -34.5 158.499s-55.167 82.5 -96.5 108.5s-88.333 39 -141 39s-99.5 -13 -140.5 -39s-73 -62.167 -96 -108.5s-34.5 -99.166 -34.5 -158.499s11.5 -112.166 34.5 -158.499zM266 865c6.66699 6.66699 15 10 25 10
c10.667 0 19.334 -3.33301 26.001 -10s10 -15 10 -25s-3.33301 -18.333 -10 -25s-15.334 -10 -26.001 -10c-10 0 -18.333 3.33301 -25 10s-10 15 -10 25s3.33301 18.333 10 25zM433.5 865c7 6.66699 15.5 10 25.5 10s18.333 -3.33301 25 -10s10 -15 10 -25
s-3.33301 -18.333 -10 -25s-15 -10 -25 -10s-18.5 3.33301 -25.5 10s-10.5 15 -10.5 25s3.5 18.333 10.5 25z" />
    <glyph glyph-name="multiply" unicode="&#xd7;" 
d="M113 469l153 -153l151 153l31 -31l-152 -152l153 -152l-33 -33l-153 152l-151 -151l-31 30l152 152l-153 153z" />
    <glyph glyph-name="Oslash" unicode="&#xd8;" horiz-adv-x="749" 
d="M622 589c25.333 -30.667 44.833 -66.5 58.5 -107.5s20.5 -84.833 20.5 -131.5c0 -68 -13.833 -129.167 -41.5 -183.5s-66.334 -96.666 -116.001 -126.999s-106.167 -45.5 -169.5 -45.5c-42.667 0 -82.667 7.33301 -120 22s-70.333 35.667 -99 63l-77 -85l-31 30l79 86
c-25.333 31.333 -44.833 67.5 -58.5 108.5s-20.5 84.833 -20.5 131.5c0 68 13.833 129.167 41.5 183.5s66.334 96.666 116.001 126.999s106.167 45.5 169.5 45.5c42.667 0 82.667 -7.33301 120 -22s70.333 -35.667 99 -63l78 85l30 -30zM162 149l397 435
c-49.333 48 -111 72 -185 72c-52.667 0 -99.5 -13.167 -140.5 -39.5s-73 -62.5 -96 -108.5s-34.5 -98.667 -34.5 -158c0 -80 19.667 -147 59 -201zM587 551l-396.999 -435c23.333 -23.333 50.666 -41.166 81.999 -53.499s65.333 -18.5 102 -18.5c52.667 0 99.667 13 141 39
s73.5 62.167 96.5 108.5s34.5 99.166 34.5 158.499c0 80 -19.667 147 -59 201z" />
    <glyph glyph-name="Ugrave" unicode="&#xd9;" horiz-adv-x="650" 
d="M123 700l-0.000976562 -414c0 -81.333 16.333 -142 49 -182s83.334 -60 152.001 -60c69.333 0 120.5 20 153.5 60s49.5 100.667 49.5 182v414h54v-411c0 -196.667 -85.667 -295 -257 -295c-170 0 -255 98.333 -255 295v411h54zM194.999 896h60l90 -132h-42z" />
    <glyph glyph-name="Uacute" unicode="&#xda;" horiz-adv-x="650" 
d="M123 700l-0.000976562 -414c0 -81.333 16.333 -142 49 -182s83.334 -60 152.001 -60c69.333 0 120.5 20 153.5 60s49.5 100.667 49.5 182v414h54v-411c0 -196.667 -85.667 -295 -257 -295c-170 0 -255 98.333 -255 295v411h54zM305.999 764l91 132h60l-110 -132h-41z" />
    <glyph glyph-name="Ucircumflex" unicode="&#xdb;" horiz-adv-x="650" 
d="M123 700l-0.000976562 -414c0 -81.333 16.333 -142 49 -182s83.334 -60 152.001 -60c69.333 0 120.5 20 153.5 60s49.5 100.667 49.5 182v414h54v-411c0 -196.667 -85.667 -295 -257 -295c-170 0 -255 98.333 -255 295v411h54zM324.999 862l-102 -99h-50l127 133h50
l127 -133h-51z" />
    <glyph glyph-name="Udieresis" unicode="&#xdc;" horiz-adv-x="650" 
d="M123 700l-0.000976562 -414c0 -81.333 16.333 -142 49 -182s83.334 -60 152.001 -60c69.333 0 120.5 20 153.5 60s49.5 100.667 49.5 182v414h54v-411c0 -196.667 -85.667 -295 -257 -295c-170 0 -255 98.333 -255 295v411h54zM215.999 865c6.66699 6.66699 15 10 25 10
c10.667 0 19.334 -3.33301 26.001 -10s10 -15 10 -25s-3.33301 -18.333 -10 -25s-15.334 -10 -26.001 -10c-10 0 -18.333 3.33301 -25 10s-10 15 -10 25s3.33301 18.333 10 25zM383.499 865c7 6.66699 15.5 10 25.5 10s18.333 -3.33301 25 -10s10 -15 10 -25
s-3.33301 -18.333 -10 -25s-15 -10 -25 -10s-18.5 3.33301 -25.5 10s-10.5 15 -10.5 25s3.5 18.333 10.5 25z" />
    <glyph glyph-name="Yacute" unicode="&#xdd;" horiz-adv-x="618" 
d="M14 701h63l232 -384l234 384h61l-268 -443v-258h-54v258zM288 764l91 132h60l-110 -132h-41z" />
    <glyph glyph-name="Thorn" unicode="&#xde;" horiz-adv-x="568" 
d="M126 700v-130.001h181c76 0 134.333 -17.667 175 -53s61 -86.666 61 -153.999c0 -68 -21 -119.333 -63 -154s-100 -52 -174 -52h-180v-157h-54v700h54zM126 206.999h178.999c58.667 0 103.834 13 135.501 39s47.5 65 47.5 117c0 52.667 -15.5 92 -46.5 118
s-76.167 39 -135.5 39h-180v-313z" />
    <glyph glyph-name="germandbls" unicode="&#xdf;" horiz-adv-x="574" 
d="M219 13l0.00195312 46.001c32 -12.667 66.667 -19 104 -19c47.333 0 86.166 13.833 116.499 41.5s45.5 63.167 45.5 106.5c0 51.333 -19.5 90.333 -58.5 117s-90.833 40 -155.5 40c-4 0 -12.667 -0.666992 -26 -2v45c59.333 0.666992 104.833 14.5 136.5 41.5
s47.5 61.167 47.5 102.5c0 38.667 -13.667 69.667 -41 93s-63.333 35 -108 35c-46.667 0 -84.5 -14.667 -113.5 -44s-43.5 -69.333 -43.5 -120v-496h-51v493c0 45.333 9 84 27 116s42.833 56.167 74.5 72.5s67.167 24.5 106.5 24.5s74.166 -7.16699 104.499 -21.5
s54 -34.333 71 -60s25.5 -55.167 25.5 -88.5c-0.666992 -42 -13.5 -77.333 -38.5 -106s-57.833 -47.334 -98.5 -56.001c60 -6 107.167 -25 141.5 -57s51.5 -75.333 51.5 -130c0 -38 -9 -71.667 -27 -101s-43 -52 -75 -68s-68.333 -24 -109 -24
c-36 0 -71.667 6.33301 -107 19z" />
    <glyph glyph-name="agrave" unicode="&#xe0;" horiz-adv-x="535" 
d="M527 47l0.00195312 -47.001h-30c-29.333 0 -50.833 7.33301 -64.5 22s-19.834 35.334 -18.501 62.001v21c-15.333 -34 -39.333 -61 -72 -81s-73.334 -30 -122.001 -30c-54.667 0 -98.334 13 -131.001 39s-49 61.333 -49 106c0 48 17.167 85.167 51.5 111.5
s83.833 39.5 148.5 39.5h172v44c0 42 -13.167 74.833 -39.5 98.5s-63.166 35.5 -110.499 35.5c-42 0 -76.167 -9.33301 -102.5 -28s-42.833 -43.667 -49.5 -75h-51c6.66699 46 28 82.167 64 108.5s83 39.5 141 39.5c63.333 0 112.333 -15.667 147 -47s52 -76 52 -134v-236
c0 -15.333 4 -27.333 12 -36s19 -13 33 -13h19zM412.002 245.999h-176c-46.667 0 -82.334 -9 -107.001 -27s-37 -43.667 -37 -77c0 -31.333 11.833 -56.5 35.5 -75.5s55.5 -28.5 95.5 -28.5c58.667 0 104.834 15.5 138.501 46.5s50.5 71.167 50.5 120.5v41zM132.002 702.999
h60l90 -132h-42z" />
    <glyph glyph-name="aacute" unicode="&#xe1;" horiz-adv-x="535" 
d="M527 47l0.00195312 -47.001h-30c-29.333 0 -50.833 7.33301 -64.5 22s-19.834 35.334 -18.501 62.001v21c-15.333 -34 -39.333 -61 -72 -81s-73.334 -30 -122.001 -30c-54.667 0 -98.334 13 -131.001 39s-49 61.333 -49 106c0 48 17.167 85.167 51.5 111.5
s83.833 39.5 148.5 39.5h172v44c0 42 -13.167 74.833 -39.5 98.5s-63.166 35.5 -110.499 35.5c-42 0 -76.167 -9.33301 -102.5 -28s-42.833 -43.667 -49.5 -75h-51c6.66699 46 28 82.167 64 108.5s83 39.5 141 39.5c63.333 0 112.333 -15.667 147 -47s52 -76 52 -134v-236
c0 -15.333 4 -27.333 12 -36s19 -13 33 -13h19zM412.002 245.999h-176c-46.667 0 -82.334 -9 -107.001 -27s-37 -43.667 -37 -77c0 -31.333 11.833 -56.5 35.5 -75.5s55.5 -28.5 95.5 -28.5c58.667 0 104.834 15.5 138.501 46.5s50.5 71.167 50.5 120.5v41zM243.002 570.999
l91 132h60l-110 -132h-41z" />
    <glyph glyph-name="acircumflex" unicode="&#xe2;" horiz-adv-x="535" 
d="M527 47l0.00195312 -47.001h-30c-29.333 0 -50.833 7.33301 -64.5 22s-19.834 35.334 -18.501 62.001v21c-15.333 -34 -39.333 -61 -72 -81s-73.334 -30 -122.001 -30c-54.667 0 -98.334 13 -131.001 39s-49 61.333 -49 106c0 48 17.167 85.167 51.5 111.5
s83.833 39.5 148.5 39.5h172v44c0 42 -13.167 74.833 -39.5 98.5s-63.166 35.5 -110.499 35.5c-42 0 -76.167 -9.33301 -102.5 -28s-42.833 -43.667 -49.5 -75h-51c6.66699 46 28 82.167 64 108.5s83 39.5 141 39.5c63.333 0 112.333 -15.667 147 -47s52 -76 52 -134v-236
c0 -15.333 4 -27.333 12 -36s19 -13 33 -13h19zM412.002 245.999h-176c-46.667 0 -82.334 -9 -107.001 -27s-37 -43.667 -37 -77c0 -31.333 11.833 -56.5 35.5 -75.5s55.5 -28.5 95.5 -28.5c58.667 0 104.834 15.5 138.501 46.5s50.5 71.167 50.5 120.5v41zM262.002 668.999
l-102 -99h-50l127 133h50l127 -133h-51z" />
    <glyph glyph-name="atilde" unicode="&#xe3;" horiz-adv-x="535" 
d="M527 47l0.00195312 -47.001h-30c-29.333 0 -50.833 7.33301 -64.5 22s-19.834 35.334 -18.501 62.001v21c-15.333 -34 -39.333 -61 -72 -81s-73.334 -30 -122.001 -30c-54.667 0 -98.334 13 -131.001 39s-49 61.333 -49 106c0 48 17.167 85.167 51.5 111.5
s83.833 39.5 148.5 39.5h172v44c0 42 -13.167 74.833 -39.5 98.5s-63.166 35.5 -110.499 35.5c-42 0 -76.167 -9.33301 -102.5 -28s-42.833 -43.667 -49.5 -75h-51c6.66699 46 28 82.167 64 108.5s83 39.5 141 39.5c63.333 0 112.333 -15.667 147 -47s52 -76 52 -134v-236
c0 -15.333 4 -27.333 12 -36s19 -13 33 -13h19zM412.002 245.999h-176c-46.667 0 -82.334 -9 -107.001 -27s-37 -43.667 -37 -77c0 -31.333 11.833 -56.5 35.5 -75.5s55.5 -28.5 95.5 -28.5c58.667 0 104.834 15.5 138.501 46.5s50.5 71.167 50.5 120.5v41zM176.502 643.499
c-7 -10.333 -10.499 -22.833 -10.499 -37.5h-33v8c0 23.333 6.5 42.5 19.5 57.5s30.833 22.5 53.5 22.5c15.333 0 27.666 -2.83301 36.999 -8.5s19 -13.5 29 -23.5c8.66699 -8.66699 16 -15 22 -19s13.667 -6 23 -6c13.333 0 23.333 5.16699 30 15.5s10 22.5 10 36.5h34v-7
c0 -23.333 -6.5 -42.5 -19.5 -57.5s-30.833 -22.5 -53.5 -22.5c-15.333 0 -27.5 2.66699 -36.5 8s-18.833 13.333 -29.5 24c-8.66699 8.66699 -16 15 -22 19s-13.667 6 -23 6c-13.333 0 -23.5 -5.16699 -30.5 -15.5z" />
    <glyph glyph-name="adieresis" unicode="&#xe4;" horiz-adv-x="535" 
d="M527 47l0.00195312 -47.001h-30c-29.333 0 -50.833 7.33301 -64.5 22s-19.834 35.334 -18.501 62.001v21c-15.333 -34 -39.333 -61 -72 -81s-73.334 -30 -122.001 -30c-54.667 0 -98.334 13 -131.001 39s-49 61.333 -49 106c0 48 17.167 85.167 51.5 111.5
s83.833 39.5 148.5 39.5h172v44c0 42 -13.167 74.833 -39.5 98.5s-63.166 35.5 -110.499 35.5c-42 0 -76.167 -9.33301 -102.5 -28s-42.833 -43.667 -49.5 -75h-51c6.66699 46 28 82.167 64 108.5s83 39.5 141 39.5c63.333 0 112.333 -15.667 147 -47s52 -76 52 -134v-236
c0 -15.333 4 -27.333 12 -36s19 -13 33 -13h19zM412.002 245.999h-176c-46.667 0 -82.334 -9 -107.001 -27s-37 -43.667 -37 -77c0 -31.333 11.833 -56.5 35.5 -75.5s55.5 -28.5 95.5 -28.5c58.667 0 104.834 15.5 138.501 46.5s50.5 71.167 50.5 120.5v41zM153.002 671.999
c6.66699 6.66699 15 10 25 10c10.667 0 19.334 -3.33301 26.001 -10s10 -15 10 -25s-3.33301 -18.333 -10 -25s-15.334 -10 -26.001 -10c-10 0 -18.333 3.33301 -25 10s-10 15 -10 25s3.33301 18.333 10 25zM320.502 671.999c7 6.66699 15.5 10 25.5 10
s18.333 -3.33301 25 -10s10 -15 10 -25s-3.33301 -18.333 -10 -25s-15 -10 -25 -10s-18.5 3.33301 -25.5 10s-10.5 15 -10.5 25s3.5 18.333 10.5 25z" />
    <glyph glyph-name="aring" unicode="&#xe5;" horiz-adv-x="535" 
d="M527 47l0.00195312 -47.001h-30c-29.333 0 -50.833 7.33301 -64.5 22s-19.834 35.334 -18.501 62.001v21c-15.333 -34 -39.333 -61 -72 -81s-73.334 -30 -122.001 -30c-54.667 0 -98.334 13 -131.001 39s-49 61.333 -49 106c0 48 17.167 85.167 51.5 111.5
s83.833 39.5 148.5 39.5h172v44c0 42 -13.167 74.833 -39.5 98.5s-63.166 35.5 -110.499 35.5c-42 0 -76.167 -9.33301 -102.5 -28s-42.833 -43.667 -49.5 -75h-51c6.66699 46 28 82.167 64 108.5s83 39.5 141 39.5c63.333 0 112.333 -15.667 147 -47s52 -76 52 -134v-236
c0 -15.333 4 -27.333 12 -36s19 -13 33 -13h19zM412.002 245.999h-176c-46.667 0 -82.334 -9 -107.001 -27s-37 -43.667 -37 -77c0 -31.333 11.833 -56.5 35.5 -75.5s55.5 -28.5 95.5 -28.5c58.667 0 104.834 15.5 138.501 46.5s50.5 71.167 50.5 120.5v41zM183.502 743.999
c21.667 21.333 47.834 32 78.501 32s56.834 -10.667 78.501 -32s32.5 -47 32.5 -77s-10.833 -55.667 -32.5 -77s-47.834 -32 -78.501 -32s-56.834 10.667 -78.501 32s-32.5 47 -32.5 77s10.833 55.667 32.5 77zM316.502 722.499c-15 15 -33.167 22.5 -54.5 22.5
s-39.5 -7.5 -54.5 -22.5s-22.5 -33.5 -22.5 -55.5s7.5 -40.5 22.5 -55.5s33.167 -22.5 54.5 -22.5s39.5 7.5 54.5 22.5s22.5 33.5 22.5 55.5s-7.5 40.5 -22.5 55.5z" />
    <glyph glyph-name="ae" unicode="&#xe6;" horiz-adv-x="916" 
d="M459 252l0.000976562 -11.002c0 -39.333 8 -74.166 24 -104.499s38 -54 66 -71s60 -25.5 96 -25.5c41.333 0 77.166 11.5 107.499 34.5s50.5 54.167 60.5 93.5h52c-11.333 -52 -36.666 -94 -75.999 -126s-86.333 -48 -141 -48c-48 0 -90.333 12 -127 36
s-64.334 57.333 -83.001 100c-15.333 -40.667 -42 -73.5 -80 -98.5s-82.333 -37.5 -133 -37.5c-56.667 0 -101.667 13 -135 39s-50 62 -50 108c0 47.333 17.167 84.333 51.5 111s83.833 40 148.5 40h172v42c0 42 -13.167 74.833 -39.5 98.5s-63.166 35.5 -110.499 35.5
c-42 0 -76.167 -9.33301 -102.5 -28s-42.833 -43.667 -49.5 -75h-51c6.66699 46 28 82.167 64 108.5s83 39.5 141 39.5c48.667 0 88.667 -9.66699 120 -29s52.666 -47.666 63.999 -84.999c19.333 36 45.5 64 78.5 84s70.5 30 112.5 30c44.667 0 84.334 -9.5 119.001 -28.5
s62.167 -46.5 82.5 -82.5s31.166 -79 32.499 -129c0 -9.33301 -0.333008 -16.333 -1 -21h-413zM555.001 446.498c-26 -14.333 -47.3311 -34.834 -63.998 -61.501s-26.334 -57 -29.001 -91h358c-4 54.667 -22.333 97.334 -55 128.001s-74.334 46 -125.001 46
c-30.667 0 -59 -7.16699 -85 -21.5zM412.003 247.997l-177 0.000976562c-46 0 -81.333 -9 -106 -27s-37 -43.667 -37 -77c0 -32.667 11.833 -58.5 35.5 -77.5s56.5 -28.5 98.5 -28.5c36 0 68.167 7.16699 96.5 21.5s50.333 34.166 66 59.499s23.5 54 23.5 86v43z" />
    <glyph glyph-name="ccedilla" unicode="&#xe7;" horiz-adv-x="541" 
d="M390 73.5c29.333 22.333 48.334 52.498 57.001 90.498h51c-9.33301 -50.667 -31.833 -90.834 -67.5 -120.501s-80.167 -46.167 -133.5 -49.5l-10 -43h16c24.667 0 44.667 -6.66699 60 -20s23 -30.666 23 -51.999c0 -24 -7.83301 -43.167 -23.5 -57.5
s-36.167 -21.5 -61.5 -21.5h-82v32h74c16 0 28.833 4 38.5 12s14.5 19.333 14.5 34c0 12.667 -4.83301 23 -14.5 31s-21.834 12 -36.501 12h-44l18 73c-44.667 2 -84 14.333 -118 37s-60.5 53.334 -79.5 92.001s-28.5 82.667 -28.5 132c0 50.667 10.167 95.5 30.5 134.5
s48.833 69.333 85.5 91s78.667 32.5 126 32.5c56.667 0 104 -15.167 142 -45.5s61.667 -71.5 71 -123.5h-51c-8.66699 38 -27.667 68.167 -57 90.5s-65 33.5 -107 33.5c-36.667 0 -69.167 -9 -97.5 -27s-50.5 -43.167 -66.5 -75.5s-24 -69.166 -24 -110.499
s8 -78.333 24 -111s38.167 -58.167 66.5 -76.5s60.833 -27.5 97.5 -27.5c42 0 77.667 11.167 107 33.5z" />
    <glyph glyph-name="egrave" unicode="&#xe8;" horiz-adv-x="554" 
d="M72.5 389c19.667 39.333 47.333 69.832 83 91.499s76.167 32.5 121.5 32.5c44.667 0 84.334 -9.5 119.001 -28.5s62.167 -46.5 82.5 -82.5s31.166 -78.667 32.499 -128c0 -9.33301 -0.333008 -16.333 -1 -21h-413c-0.666992 -2.66699 -1 -6.66699 -1 -12
c0.666992 -39.333 9 -74.166 25 -104.499s38 -54 66 -71s59.667 -25.5 95 -25.5c41.333 0 77.333 11.5 108 34.5s51 54.167 61 93.5h52c-12 -52 -37.5 -94 -76.5 -126s-85.833 -48 -140.5 -48c-47.333 0 -89.5 11 -126.5 33s-65.667 52.667 -86 92s-30.5 84.333 -30.5 135
s9.83301 95.667 29.5 135zM457.999 295.999c-4.66699 54.667 -23.166 97 -55.499 127s-73.833 45 -124.5 45c-30.667 0 -59 -7.16699 -85 -21.5s-47.333 -34.5 -64 -60.5s-26.334 -56 -29.001 -90h358zM145 702.999h60l90 -132h-42z" />
    <glyph glyph-name="eacute" unicode="&#xe9;" horiz-adv-x="554" 
d="M72.5 389c19.667 39.333 47.333 69.832 83 91.499s76.167 32.5 121.5 32.5c44.667 0 84.334 -9.5 119.001 -28.5s62.167 -46.5 82.5 -82.5s31.166 -78.667 32.499 -128c0 -9.33301 -0.333008 -16.333 -1 -21h-413c-0.666992 -2.66699 -1 -6.66699 -1 -12
c0.666992 -39.333 9 -74.166 25 -104.499s38 -54 66 -71s59.667 -25.5 95 -25.5c41.333 0 77.333 11.5 108 34.5s51 54.167 61 93.5h52c-12 -52 -37.5 -94 -76.5 -126s-85.833 -48 -140.5 -48c-47.333 0 -89.5 11 -126.5 33s-65.667 52.667 -86 92s-30.5 84.333 -30.5 135
s9.83301 95.667 29.5 135zM457.999 295.999c-4.66699 54.667 -23.166 97 -55.499 127s-73.833 45 -124.5 45c-30.667 0 -59 -7.16699 -85 -21.5s-47.333 -34.5 -64 -60.5s-26.334 -56 -29.001 -90h358zM256 570.999l91 132h60l-110 -132h-41z" />
    <glyph glyph-name="ecircumflex" unicode="&#xea;" horiz-adv-x="554" 
d="M72.5 389c19.667 39.333 47.333 69.832 83 91.499s76.167 32.5 121.5 32.5c44.667 0 84.334 -9.5 119.001 -28.5s62.167 -46.5 82.5 -82.5s31.166 -78.667 32.499 -128c0 -9.33301 -0.333008 -16.333 -1 -21h-413c-0.666992 -2.66699 -1 -6.66699 -1 -12
c0.666992 -39.333 9 -74.166 25 -104.499s38 -54 66 -71s59.667 -25.5 95 -25.5c41.333 0 77.333 11.5 108 34.5s51 54.167 61 93.5h52c-12 -52 -37.5 -94 -76.5 -126s-85.833 -48 -140.5 -48c-47.333 0 -89.5 11 -126.5 33s-65.667 52.667 -86 92s-30.5 84.333 -30.5 135
s9.83301 95.667 29.5 135zM457.999 295.999c-4.66699 54.667 -23.166 97 -55.499 127s-73.833 45 -124.5 45c-30.667 0 -59 -7.16699 -85 -21.5s-47.333 -34.5 -64 -60.5s-26.334 -56 -29.001 -90h358zM275 668.999l-102 -99h-50l127 133h50l127 -133h-51z" />
    <glyph glyph-name="edieresis" unicode="&#xeb;" horiz-adv-x="554" 
d="M72.5 389c19.667 39.333 47.333 69.832 83 91.499s76.167 32.5 121.5 32.5c44.667 0 84.334 -9.5 119.001 -28.5s62.167 -46.5 82.5 -82.5s31.166 -78.667 32.499 -128c0 -9.33301 -0.333008 -16.333 -1 -21h-413c-0.666992 -2.66699 -1 -6.66699 -1 -12
c0.666992 -39.333 9 -74.166 25 -104.499s38 -54 66 -71s59.667 -25.5 95 -25.5c41.333 0 77.333 11.5 108 34.5s51 54.167 61 93.5h52c-12 -52 -37.5 -94 -76.5 -126s-85.833 -48 -140.5 -48c-47.333 0 -89.5 11 -126.5 33s-65.667 52.667 -86 92s-30.5 84.333 -30.5 135
s9.83301 95.667 29.5 135zM457.999 295.999c-4.66699 54.667 -23.166 97 -55.499 127s-73.833 45 -124.5 45c-30.667 0 -59 -7.16699 -85 -21.5s-47.333 -34.5 -64 -60.5s-26.334 -56 -29.001 -90h358zM166 671.999c6.66699 6.66699 15 10 25 10
c10.667 0 19.334 -3.33301 26.001 -10s10 -15 10 -25s-3.33301 -18.333 -10 -25s-15.334 -10 -26.001 -10c-10 0 -18.333 3.33301 -25 10s-10 15 -10 25s3.33301 18.333 10 25zM333.5 671.999c7 6.66699 15.5 10 25.5 10s18.333 -3.33301 25 -10s10 -15 10 -25
s-3.33301 -18.333 -10 -25s-15 -10 -25 -10s-18.5 3.33301 -25.5 10s-10.5 15 -10.5 25s3.5 18.333 10.5 25z" />
    <glyph glyph-name="igrave" unicode="&#xec;" horiz-adv-x="171" 
d="M60 507h51v-507h-51v507zM-44 703h60l90 -132h-42z" />
    <glyph glyph-name="iacute" unicode="&#xed;" horiz-adv-x="171" 
d="M60 507h51v-507h-51v507zM67 571l91 132h60l-110 -132h-41z" />
    <glyph glyph-name="icircumflex" unicode="&#xee;" horiz-adv-x="171" 
d="M60 507h51v-507h-51v507zM86 669l-102 -99h-50l127 133h50l127 -133h-51z" />
    <glyph glyph-name="idieresis" unicode="&#xef;" horiz-adv-x="171" 
d="M60 507h51v-507h-51v507zM-23 672c6.66699 6.66699 15 10 25 10c10.667 0 19.334 -3.33301 26.001 -10s10 -15 10 -25s-3.33301 -18.333 -10 -25s-15.334 -10 -26.001 -10c-10 0 -18.333 3.33301 -25 10s-10 15 -10 25s3.33301 18.333 10 25zM144.5 672
c7 6.66699 15.5 10 25.5 10s18.333 -3.33301 25 -10s10 -15 10 -25s-3.33301 -18.333 -10 -25s-15 -10 -25 -10s-18.5 3.33301 -25.5 10s-10.5 15 -10.5 25s3.5 18.333 10.5 25z" />
    <glyph glyph-name="eth" unicode="&#xf0;" horiz-adv-x="582" 
d="M482 444.5c30.667 -59.667 46.334 -122.501 47.001 -188.501c-0.666992 -51.333 -10.667 -96.666 -30 -135.999s-47.333 -70.166 -84 -92.499s-80 -33.5 -130 -33.5c-47.333 0 -89.333 10 -126 30s-65.167 48 -85.5 84s-30.5 76.667 -30.5 122
c0 46.667 10.667 87.834 32 123.501s50 63.167 86 82.5s76 29 120 29c39.333 0 74.166 -8 104.499 -24s55.5 -38.333 75.5 -67c-25.333 75.333 -73 143.666 -143 204.999l-122 -78l-20 35l109 70c-32.667 26 -68 49 -106 69l30 31
c41.333 -20.667 80.333 -45.334 117 -74.001l119 77l20 -36l-107 -68c52 -47.333 93.333 -100.833 124 -160.5zM424.5 95.499c35 37.667 52.501 87.167 52.501 148.5c-0.666992 37.333 -9.83398 69.5 -27.501 96.5s-41 47.5 -70 61.5s-60.5 21 -94.5 21
c-36.667 0 -69.5 -8.33301 -98.5 -25s-51.5 -39.667 -67.5 -69s-24 -62.333 -24 -99c0 -37.333 8 -70.5 24 -99.5s38.5 -51.5 67.5 -67.5s61.833 -24 98.5 -24c58 0 104.5 18.833 139.5 56.5z" />
    <glyph glyph-name="ntilde" unicode="&#xf1;" horiz-adv-x="547" 
d="M439.5 456c36.333 -38 54.499 -95.334 54.499 -172.001v-284h-51v282c0 59.333 -13.833 104.833 -41.5 136.5s-66.167 47.5 -115.5 47.5c-54 0 -96.667 -19.5 -128 -58.5s-47 -91.5 -47 -157.5v-250h-51v507h44l8 -108c15.333 34.667 38.333 62.334 69 83.001
s68.334 31 113.001 31c60.667 0 109.167 -19 145.5 -57zM204.499 643.499c-7 -10.333 -10.499 -22.833 -10.499 -37.5h-33v8c0 23.333 6.5 42.5 19.5 57.5s30.833 22.5 53.5 22.5c15.333 0 27.666 -2.83301 36.999 -8.5s19 -13.5 29 -23.5c8.66699 -8.66699 16 -15 22 -19
s13.667 -6 23 -6c13.333 0 23.333 5.16699 30 15.5s10 22.5 10 36.5h34v-7c0 -23.333 -6.5 -42.5 -19.5 -57.5s-30.833 -22.5 -53.5 -22.5c-15.333 0 -27.5 2.66699 -36.5 8s-18.833 13.333 -29.5 24c-8.66699 8.66699 -16 15 -22 19s-13.667 6 -23 6
c-13.333 0 -23.5 -5.16699 -30.5 -15.5z" />
    <glyph glyph-name="ograve" unicode="&#xf2;" horiz-adv-x="573" 
d="M160 27c-36.667 22 -65.334 52.667 -86.001 92s-31 84.333 -31 135s10.333 95.5 31 134.5s49.334 69.5 86.001 91.5s78.667 33 126 33s89.5 -11 126.5 -33s65.833 -52.5 86.5 -91.5s31 -83.833 31 -134.5s-10.333 -95.667 -31 -135s-49.5 -70 -86.5 -92
s-79.167 -33 -126.5 -33s-89.333 11 -126 33zM386 67c29.333 18 52 43.333 68 76s24 69.667 24 111s-8 78.166 -24 110.499s-38.667 57.666 -68 75.999s-62.666 27.5 -99.999 27.5s-70.5 -9.16699 -99.5 -27.5s-51.5 -43.666 -67.5 -75.999s-24 -69.166 -24 -110.499
s8 -78.333 24 -111s38.5 -58 67.5 -76s62.167 -27 99.5 -27s70.666 9 99.999 27zM156 703h60l90 -132h-42z" />
    <glyph glyph-name="oacute" unicode="&#xf3;" horiz-adv-x="573" 
d="M160 27c-36.667 22 -65.334 52.667 -86.001 92s-31 84.333 -31 135s10.333 95.5 31 134.5s49.334 69.5 86.001 91.5s78.667 33 126 33s89.5 -11 126.5 -33s65.833 -52.5 86.5 -91.5s31 -83.833 31 -134.5s-10.333 -95.667 -31 -135s-49.5 -70 -86.5 -92
s-79.167 -33 -126.5 -33s-89.333 11 -126 33zM386 67c29.333 18 52 43.333 68 76s24 69.667 24 111s-8 78.166 -24 110.499s-38.667 57.666 -68 75.999s-62.666 27.5 -99.999 27.5s-70.5 -9.16699 -99.5 -27.5s-51.5 -43.666 -67.5 -75.999s-24 -69.166 -24 -110.499
s8 -78.333 24 -111s38.5 -58 67.5 -76s62.167 -27 99.5 -27s70.666 9 99.999 27zM267 571l91 132h60l-110 -132h-41z" />
    <glyph glyph-name="ocircumflex" unicode="&#xf4;" horiz-adv-x="573" 
d="M160 27c-36.667 22 -65.334 52.667 -86.001 92s-31 84.333 -31 135s10.333 95.5 31 134.5s49.334 69.5 86.001 91.5s78.667 33 126 33s89.5 -11 126.5 -33s65.833 -52.5 86.5 -91.5s31 -83.833 31 -134.5s-10.333 -95.667 -31 -135s-49.5 -70 -86.5 -92
s-79.167 -33 -126.5 -33s-89.333 11 -126 33zM386 67c29.333 18 52 43.333 68 76s24 69.667 24 111s-8 78.166 -24 110.499s-38.667 57.666 -68 75.999s-62.666 27.5 -99.999 27.5s-70.5 -9.16699 -99.5 -27.5s-51.5 -43.666 -67.5 -75.999s-24 -69.166 -24 -110.499
s8 -78.333 24 -111s38.5 -58 67.5 -76s62.167 -27 99.5 -27s70.666 9 99.999 27zM286 669l-102 -99h-50l127 133h50l127 -133h-51z" />
    <glyph glyph-name="otilde" unicode="&#xf5;" horiz-adv-x="573" 
d="M160 27c-36.667 22 -65.334 52.667 -86.001 92s-31 84.333 -31 135s10.333 95.5 31 134.5s49.334 69.5 86.001 91.5s78.667 33 126 33s89.5 -11 126.5 -33s65.833 -52.5 86.5 -91.5s31 -83.833 31 -134.5s-10.333 -95.667 -31 -135s-49.5 -70 -86.5 -92
s-79.167 -33 -126.5 -33s-89.333 11 -126 33zM386 67c29.333 18 52 43.333 68 76s24 69.667 24 111s-8 78.166 -24 110.499s-38.667 57.666 -68 75.999s-62.666 27.5 -99.999 27.5s-70.5 -9.16699 -99.5 -27.5s-51.5 -43.666 -67.5 -75.999s-24 -69.166 -24 -110.499
s8 -78.333 24 -111s38.5 -58 67.5 -76s62.167 -27 99.5 -27s70.666 9 99.999 27zM200.5 643.5c-7 -10.333 -10.499 -22.833 -10.499 -37.5h-33v8c0 23.333 6.5 42.5 19.5 57.5s30.833 22.5 53.5 22.5c15.333 0 27.666 -2.83301 36.999 -8.5s19 -13.5 29 -23.5
c8.66699 -8.66699 16 -15 22 -19s13.667 -6 23 -6c13.333 0 23.333 5.16699 30 15.5s10 22.5 10 36.5h34v-7c0 -23.333 -6.5 -42.5 -19.5 -57.5s-30.833 -22.5 -53.5 -22.5c-15.333 0 -27.5 2.66699 -36.5 8s-18.833 13.333 -29.5 24c-8.66699 8.66699 -16 15 -22 19
s-13.667 6 -23 6c-13.333 0 -23.5 -5.16699 -30.5 -15.5z" />
    <glyph glyph-name="odieresis" unicode="&#xf6;" horiz-adv-x="573" 
d="M160 27c-36.667 22 -65.334 52.667 -86.001 92s-31 84.333 -31 135s10.333 95.5 31 134.5s49.334 69.5 86.001 91.5s78.667 33 126 33s89.5 -11 126.5 -33s65.833 -52.5 86.5 -91.5s31 -83.833 31 -134.5s-10.333 -95.667 -31 -135s-49.5 -70 -86.5 -92
s-79.167 -33 -126.5 -33s-89.333 11 -126 33zM386 67c29.333 18 52 43.333 68 76s24 69.667 24 111s-8 78.166 -24 110.499s-38.667 57.666 -68 75.999s-62.666 27.5 -99.999 27.5s-70.5 -9.16699 -99.5 -27.5s-51.5 -43.666 -67.5 -75.999s-24 -69.166 -24 -110.499
s8 -78.333 24 -111s38.5 -58 67.5 -76s62.167 -27 99.5 -27s70.666 9 99.999 27zM177 672c6.66699 6.66699 15 10 25 10c10.667 0 19.334 -3.33301 26.001 -10s10 -15 10 -25s-3.33301 -18.333 -10 -25s-15.334 -10 -26.001 -10c-10 0 -18.333 3.33301 -25 10s-10 15 -10 25
s3.33301 18.333 10 25zM344.5 672c7 6.66699 15.5 10 25.5 10s18.333 -3.33301 25 -10s10 -15 10 -25s-3.33301 -18.333 -10 -25s-15 -10 -25 -10s-18.5 3.33301 -25.5 10s-10.5 15 -10.5 25s3.5 18.333 10.5 25z" />
    <glyph glyph-name="divide" unicode="&#xf7;" 
d="M237.5 495c7 6.66699 16.167 10 27.5 10s20.333 -3.33301 27 -10s10 -15.334 10 -26.001c0 -11.333 -3.33301 -20.5 -10 -27.5s-15.667 -10.5 -27 -10.5s-20.5 3.5 -27.5 10.5s-10.5 16.167 -10.5 27.5c0 10.667 3.5 19.334 10.5 26.001zM66 266v43h396v-43h-396z
M237.5 141c7 6.66699 16.167 10 27.5 10s20.333 -3.33301 27 -10s10 -15.334 10 -26.001c0 -11.333 -3.33301 -20.5 -10 -27.5s-15.667 -10.5 -27 -10.5s-20.5 3.5 -27.5 10.5s-10.5 16.167 -10.5 27.5c0 10.667 3.5 19.334 10.5 26.001z" />
    <glyph glyph-name="oslash" unicode="&#xf8;" horiz-adv-x="575" 
d="M475 426c18 -22 31.667 -47.667 41 -77s14 -61 14 -95c0 -50.667 -10.333 -95.667 -31 -135s-49.5 -70 -86.5 -92s-79.167 -33 -126.5 -33c-63.333 0 -117 19.333 -161 58l-54 -58l-28 27l56 59c-37.333 46.667 -56 104.667 -56 174c0 50.667 10.333 95.5 31 134.5
s49.334 69.5 86.001 91.5s78.667 33 126 33c65.333 0 119.666 -19.667 162.999 -59l55 59l28 -26zM133 118l282 299.998c-34.667 33.333 -77.667 50 -129 50c-37.333 0 -70.5 -9.16699 -99.5 -27.5s-51.5 -43.666 -67.5 -75.999s-24 -69.166 -24 -110.499
c0 -54 12.667 -99.333 38 -136zM440 388.998l-280.998 -301c33.333 -32 75.666 -48 126.999 -48c37.333 0 70.666 9 99.999 27s52 43.333 68 76s24 69.667 24 111c0 52 -12.667 97 -38 135z" />
    <glyph glyph-name="ugrave" unicode="&#xf9;" horiz-adv-x="539" 
d="M479 507v-507h-45l-7 107c-15.333 -34.667 -38 -62.167 -68 -82.5s-66.667 -30.5 -110 -30.5c-58.667 0 -105.834 19.167 -141.501 57.5s-53.5 95.5 -53.5 171.5v284h51v-281c0 -60 13.333 -105.833 40 -137.5s64 -47.5 112 -47.5c52.667 0 94.334 19.5 125.001 58.5
s46 91.833 46 158.5v249h51zM137 703h60l90 -132h-42z" />
    <glyph glyph-name="uacute" unicode="&#xfa;" horiz-adv-x="539" 
d="M479 507v-507h-45l-7 107c-15.333 -34.667 -38 -62.167 -68 -82.5s-66.667 -30.5 -110 -30.5c-58.667 0 -105.834 19.167 -141.501 57.5s-53.5 95.5 -53.5 171.5v284h51v-281c0 -60 13.333 -105.833 40 -137.5s64 -47.5 112 -47.5c52.667 0 94.334 19.5 125.001 58.5
s46 91.833 46 158.5v249h51zM248 571l91 132h60l-110 -132h-41z" />
    <glyph glyph-name="ucircumflex" unicode="&#xfb;" horiz-adv-x="539" 
d="M479 507v-507h-45l-7 107c-15.333 -34.667 -38 -62.167 -68 -82.5s-66.667 -30.5 -110 -30.5c-58.667 0 -105.834 19.167 -141.501 57.5s-53.5 95.5 -53.5 171.5v284h51v-281c0 -60 13.333 -105.833 40 -137.5s64 -47.5 112 -47.5c52.667 0 94.334 19.5 125.001 58.5
s46 91.833 46 158.5v249h51zM267 669l-102 -99h-50l127 133h50l127 -133h-51z" />
    <glyph glyph-name="udieresis" unicode="&#xfc;" horiz-adv-x="539" 
d="M479 507v-507h-45l-7 107c-15.333 -34.667 -38 -62.167 -68 -82.5s-66.667 -30.5 -110 -30.5c-58.667 0 -105.834 19.167 -141.501 57.5s-53.5 95.5 -53.5 171.5v284h51v-281c0 -60 13.333 -105.833 40 -137.5s64 -47.5 112 -47.5c52.667 0 94.334 19.5 125.001 58.5
s46 91.833 46 158.5v249h51zM158 672c6.66699 6.66699 15 10 25 10c10.667 0 19.334 -3.33301 26.001 -10s10 -15 10 -25s-3.33301 -18.333 -10 -25s-15.334 -10 -26.001 -10c-10 0 -18.333 3.33301 -25 10s-10 15 -10 25s3.33301 18.333 10 25zM325.5 672
c7 6.66699 15.5 10 25.5 10s18.333 -3.33301 25 -10s10 -15 10 -25s-3.33301 -18.333 -10 -25s-15 -10 -25 -10s-18.5 3.33301 -25.5 10s-10.5 15 -10.5 25s3.5 18.333 10.5 25z" />
    <glyph glyph-name="yacute" unicode="&#xfd;" horiz-adv-x="477" 
d="M64 507l176.002 -446.999l173 447h55l-243 -601c-12 -30 -22.333 -52 -31 -66s-19.334 -24.167 -32.001 -30.5s-30.334 -9.5 -53.001 -9.5h-78v47h64c17.333 0 30.5 2 39.5 6s16.333 10.667 22 20s13.167 24.666 22.5 45.999l33 79l-203 509h55zM218.002 571.001l91 132
h60l-110 -132h-41z" />
    <glyph glyph-name="thorn" unicode="&#xfe;" horiz-adv-x="587" 
d="M111 700l0.000976562 -317c16 39.333 40.667 70.833 74 94.5s73.333 35.5 120 35.5c46 0 87.167 -10.5 123.5 -31.5s64.666 -51.167 84.999 -90.5s30.5 -85 30.5 -137c0 -50.667 -10.167 -95.667 -30.5 -135s-48.666 -70 -84.999 -92s-77.5 -33 -123.5 -33
c-47.333 0 -87.833 11.5 -121.5 34.5s-57.834 54.167 -72.501 93.5v-322h-51v900h51zM468.001 364.5c-16 32.333 -38.5 57.667 -67.5 76s-62.167 27.5 -99.5 27.5s-70.5 -9.16699 -99.5 -27.5s-51.5 -43.666 -67.5 -75.999s-24 -68.833 -24 -109.5c0 -42 8 -79.333 24 -112
s38.5 -58 67.5 -76s62.167 -27 99.5 -27s70.5 9 99.5 27s51.5 43.333 67.5 76s24 69.667 24 111s-8 78.166 -24 110.499z" />
    <glyph glyph-name="ydieresis" unicode="&#xff;" horiz-adv-x="477" 
d="M64 507l176.002 -446.999l173 447h55l-243 -601c-12 -30 -22.333 -52 -31 -66s-19.334 -24.167 -32.001 -30.5s-30.334 -9.5 -53.001 -9.5h-78v47h64c17.333 0 30.5 2 39.5 6s16.333 10.667 22 20s13.167 24.666 22.5 45.999l33 79l-203 509h55zM128.002 672.001
c6.66699 6.66699 15 10 25 10c10.667 0 19.334 -3.33301 26.001 -10s10 -15 10 -25s-3.33301 -18.333 -10 -25s-15.334 -10 -26.001 -10c-10 0 -18.333 3.33301 -25 10s-10 15 -10 25s3.33301 18.333 10 25zM295.502 672.001c7 6.66699 15.5 10 25.5 10
s18.333 -3.33301 25 -10s10 -15 10 -25s-3.33301 -18.333 -10 -25s-15 -10 -25 -10s-18.5 3.33301 -25.5 10s-10.5 15 -10.5 25s3.5 18.333 10.5 25z" />
    <glyph glyph-name="Amacron" unicode="&#x100;" horiz-adv-x="638" 
d="M17 0l270 700h64l270 -700h-58l-84 214h-322l-84 -214h-56zM173 264h290l-145 377zM191 822v39h256v-39h-256z" />
    <glyph glyph-name="amacron" unicode="&#x101;" horiz-adv-x="535" 
d="M527 47l0.00195312 -47.001h-30c-29.333 0 -50.833 7.33301 -64.5 22s-19.834 35.334 -18.501 62.001v21c-15.333 -34 -39.333 -61 -72 -81s-73.334 -30 -122.001 -30c-54.667 0 -98.334 13 -131.001 39s-49 61.333 -49 106c0 48 17.167 85.167 51.5 111.5
s83.833 39.5 148.5 39.5h172v44c0 42 -13.167 74.833 -39.5 98.5s-63.166 35.5 -110.499 35.5c-42 0 -76.167 -9.33301 -102.5 -28s-42.833 -43.667 -49.5 -75h-51c6.66699 46 28 82.167 64 108.5s83 39.5 141 39.5c63.333 0 112.333 -15.667 147 -47s52 -76 52 -134v-236
c0 -15.333 4 -27.333 12 -36s19 -13 33 -13h19zM412.002 245.999h-176c-46.667 0 -82.334 -9 -107.001 -27s-37 -43.667 -37 -77c0 -31.333 11.833 -56.5 35.5 -75.5s55.5 -28.5 95.5 -28.5c58.667 0 104.834 15.5 138.501 46.5s50.5 71.167 50.5 120.5v41zM134.002 628.999
v39h256v-39h-256z" />
    <glyph glyph-name="Abreve" unicode="&#x102;" horiz-adv-x="638" 
d="M17 0l270 700h64l270 -700h-58l-84 214h-322l-84 -214h-56zM173 264h290l-145 377zM234 896c0 -25.333 7.83496 -46.166 23.502 -62.499s35.834 -24.5 60.501 -24.5c25.333 0 46 8.16699 62 24.5s24 37.166 24 62.499h41c-0.666992 -38 -12.834 -68.667 -36.501 -92
s-54.167 -35 -91.5 -35c-36.667 0 -66.334 11.5 -89.001 34.5s-34.334 53.833 -35.001 92.5h41z" />
    <glyph glyph-name="abreve" unicode="&#x103;" horiz-adv-x="535" 
d="M527 47l0.00195312 -47.001h-30c-29.333 0 -50.833 7.33301 -64.5 22s-19.834 35.334 -18.501 62.001v21c-15.333 -34 -39.333 -61 -72 -81s-73.334 -30 -122.001 -30c-54.667 0 -98.334 13 -131.001 39s-49 61.333 -49 106c0 48 17.167 85.167 51.5 111.5
s83.833 39.5 148.5 39.5h172v44c0 42 -13.167 74.833 -39.5 98.5s-63.166 35.5 -110.499 35.5c-42 0 -76.167 -9.33301 -102.5 -28s-42.833 -43.667 -49.5 -75h-51c6.66699 46 28 82.167 64 108.5s83 39.5 141 39.5c63.333 0 112.333 -15.667 147 -47s52 -76 52 -134v-236
c0 -15.333 4 -27.333 12 -36s19 -13 33 -13h19zM412.002 245.999h-176c-46.667 0 -82.334 -9 -107.001 -27s-37 -43.667 -37 -77c0 -31.333 11.833 -56.5 35.5 -75.5s55.5 -28.5 95.5 -28.5c58.667 0 104.834 15.5 138.501 46.5s50.5 71.167 50.5 120.5v41zM177.002 702.999
c0 -25.333 7.83496 -46.166 23.502 -62.499s35.834 -24.5 60.501 -24.5c25.333 0 46 8.16699 62 24.5s24 37.166 24 62.499h41c-0.666992 -38 -12.834 -68.667 -36.501 -92s-54.167 -35 -91.5 -35c-36.667 0 -66.334 11.5 -89.001 34.5s-34.334 53.833 -35.001 92.5h41z" />
    <glyph glyph-name="Aogonek" unicode="&#x104;" horiz-adv-x="638" 
d="M629 -162v-38.002h-69c-28 0 -50.167 7 -66.5 21s-24.5 33 -24.5 57c0 22.667 8 43.834 24 63.501s39 39.834 69 60.501l-83 212h-322l-84 -214h-56l270 700h64l270 -700c-36 -22.667 -63.167 -42.5 -81.5 -59.5s-27.5 -35.5 -27.5 -55.5c0 -14.667 5 -26.167 15 -34.5
s23.667 -12.5 41 -12.5h61zM173 263.998h290l-145 377z" />
    <glyph glyph-name="aogonek" unicode="&#x105;" horiz-adv-x="535" 
d="M535 -162l0.000976562 -38h-69c-28 0 -50.167 7 -66.5 21s-24.5 33 -24.5 57c0 22.667 8.16699 43.667 24.5 63s39.5 40 69.5 62c-38.667 8.66699 -57 35.667 -55 81v21c-15.333 -34 -39.333 -61 -72 -81s-73.334 -30 -122.001 -30c-54.667 0 -98.334 13 -131.001 39
s-49 61.333 -49 106c0 48 17.167 85.167 51.5 111.5s83.833 39.5 148.5 39.5h172v44c0 42 -13.167 74.833 -39.5 98.5s-63.166 35.5 -110.499 35.5c-42 0 -76.167 -9.33301 -102.5 -28s-42.833 -43.667 -49.5 -75h-51c6.66699 46 28 82.167 64 108.5s83 39.5 141 39.5
c63.333 0 112.333 -15.667 147 -47s52 -76 52 -134v-236c0 -15.333 4 -27.333 12 -36s19 -13 33 -13h19v-47c-36 -22.667 -63.167 -42.5 -81.5 -59.5s-27.5 -35.5 -27.5 -55.5c0 -14.667 5 -26.167 15 -34.5s23.667 -12.5 41 -12.5h61zM412.001 246h-176
c-46.667 0 -82.334 -9 -107.001 -27s-37 -43.667 -37 -77c0 -31.333 11.833 -56.5 35.5 -75.5s55.5 -28.5 95.5 -28.5c58.667 0 104.834 15.5 138.501 46.5s50.5 71.167 50.5 120.5v41z" />
    <glyph glyph-name="Cacute" unicode="&#x106;" horiz-adv-x="702" 
d="M87 535c26.667 54 64.668 95.998 114.001 125.998s106.333 45 171 45c74 0 136 -19.333 186 -58s82.333 -93 97 -163h-54c-14.667 54.667 -42.334 96.834 -83.001 126.501s-90.334 44.5 -149.001 44.5c-53.333 0 -100 -13 -140 -39s-71 -62.167 -93 -108.5
s-33 -99.166 -33 -158.499s11 -112.166 33 -158.499s53 -82.5 93 -108.5s86.667 -39 140 -39c60 0 109.833 14.667 149.5 44s66.834 72 81.501 128h54c-15.333 -70.667 -47.5 -125.334 -96.5 -164.001s-110.833 -58 -185.5 -58c-64.667 0 -121.667 14.833 -171 44.5
s-87.333 71.5 -114 125.5s-40 116 -40 186c0 69.333 13.333 131 40 185zM353.001 763.998l91 132h60l-110 -132h-41z" />
    <glyph glyph-name="cacute" unicode="&#x107;" horiz-adv-x="541" 
d="M425.5 39.5c-38.333 -30.333 -85.834 -45.5 -142.501 -45.5c-47.333 0 -89.166 11 -125.499 33s-64.5 52.667 -84.5 92s-30 84.666 -30 135.999c0 50.667 10.167 95.5 30.5 134.5s48.833 69.333 85.5 91s78.667 32.5 126 32.5c56.667 0 104 -15.167 142 -45.5
s61.667 -71.5 71 -123.5h-51c-8.66699 38 -27.667 68.167 -57 90.5s-65 33.5 -107 33.5c-36.667 0 -69.167 -9 -97.5 -27s-50.5 -43.167 -66.5 -75.5s-24 -69.166 -24 -110.499s8 -78.333 24 -111s38.167 -58.167 66.5 -76.5s60.833 -27.5 97.5 -27.5
c42 0 77.667 11.167 107 33.5s48.333 52.5 57 90.5h51c-10 -52.667 -34.167 -94.167 -72.5 -124.5zM265.999 571l91 132h60l-110 -132h-41z" />
    <glyph glyph-name="Ccircumflex" unicode="&#x108;" horiz-adv-x="702" 
d="M87 535c26.667 54 64.668 95.998 114.001 125.998s106.333 45 171 45c74 0 136 -19.333 186 -58s82.333 -93 97 -163h-54c-14.667 54.667 -42.334 96.834 -83.001 126.501s-90.334 44.5 -149.001 44.5c-53.333 0 -100 -13 -140 -39s-71 -62.167 -93 -108.5
s-33 -99.166 -33 -158.499s11 -112.166 33 -158.499s53 -82.5 93 -108.5s86.667 -39 140 -39c60 0 109.833 14.667 149.5 44s66.834 72 81.501 128h54c-15.333 -70.667 -47.5 -125.334 -96.5 -164.001s-110.833 -58 -185.5 -58c-64.667 0 -121.667 14.833 -171 44.5
s-87.333 71.5 -114 125.5s-40 116 -40 186c0 69.333 13.333 131 40 185zM372.001 861.998l-102 -99h-50l127 133h50l127 -133h-51z" />
    <glyph glyph-name="ccircumflex" unicode="&#x109;" horiz-adv-x="541" 
d="M425.5 39.5c-38.333 -30.333 -85.834 -45.5 -142.501 -45.5c-47.333 0 -89.166 11 -125.499 33s-64.5 52.667 -84.5 92s-30 84.666 -30 135.999c0 50.667 10.167 95.5 30.5 134.5s48.833 69.333 85.5 91s78.667 32.5 126 32.5c56.667 0 104 -15.167 142 -45.5
s61.667 -71.5 71 -123.5h-51c-8.66699 38 -27.667 68.167 -57 90.5s-65 33.5 -107 33.5c-36.667 0 -69.167 -9 -97.5 -27s-50.5 -43.167 -66.5 -75.5s-24 -69.166 -24 -110.499s8 -78.333 24 -111s38.167 -58.167 66.5 -76.5s60.833 -27.5 97.5 -27.5
c42 0 77.667 11.167 107 33.5s48.333 52.5 57 90.5h51c-10 -52.667 -34.167 -94.167 -72.5 -124.5zM284.999 669l-102 -99h-50l127 133h50l127 -133h-51z" />
    <glyph glyph-name="Cdotaccent" unicode="&#x10a;" horiz-adv-x="702" 
d="M87 535c26.667 54 64.668 95.998 114.001 125.998s106.333 45 171 45c74 0 136 -19.333 186 -58s82.333 -93 97 -163h-54c-14.667 54.667 -42.334 96.834 -83.001 126.501s-90.334 44.5 -149.001 44.5c-53.333 0 -100 -13 -140 -39s-71 -62.167 -93 -108.5
s-33 -99.166 -33 -158.499s11 -112.166 33 -158.499s53 -82.5 93 -108.5s86.667 -39 140 -39c60 0 109.833 14.667 149.5 44s66.834 72 81.501 128h54c-15.333 -70.667 -47.5 -125.334 -96.5 -164.001s-110.833 -58 -185.5 -58c-64.667 0 -121.667 14.833 -171 44.5
s-87.333 71.5 -114 125.5s-40 116 -40 186c0 69.333 13.333 131 40 185zM347.001 876.498c6.66699 6.33301 15 9.5 25 9.5s18.333 -3.16699 25 -9.5s10 -14.5 10 -24.5s-3.33301 -18.333 -10 -25s-15 -10 -25 -10s-18.333 3.33301 -25 10s-10 15 -10 25
s3.33301 18.167 10 24.5z" />
    <glyph glyph-name="cdotaccent" unicode="&#x10b;" horiz-adv-x="541" 
d="M425.5 39.5c-38.333 -30.333 -85.834 -45.5 -142.501 -45.5c-47.333 0 -89.166 11 -125.499 33s-64.5 52.667 -84.5 92s-30 84.666 -30 135.999c0 50.667 10.167 95.5 30.5 134.5s48.833 69.333 85.5 91s78.667 32.5 126 32.5c56.667 0 104 -15.167 142 -45.5
s61.667 -71.5 71 -123.5h-51c-8.66699 38 -27.667 68.167 -57 90.5s-65 33.5 -107 33.5c-36.667 0 -69.167 -9 -97.5 -27s-50.5 -43.167 -66.5 -75.5s-24 -69.166 -24 -110.499s8 -78.333 24 -111s38.167 -58.167 66.5 -76.5s60.833 -27.5 97.5 -27.5
c42 0 77.667 11.167 107 33.5s48.333 52.5 57 90.5h51c-10 -52.667 -34.167 -94.167 -72.5 -124.5zM259.999 683.5c6.66699 6.33301 15 9.5 25 9.5s18.333 -3.16699 25 -9.5s10 -14.5 10 -24.5s-3.33301 -18.333 -10 -25s-15 -10 -25 -10s-18.333 3.33301 -25 10
s-10 15 -10 25s3.33301 18.167 10 24.5z" />
    <glyph glyph-name="Ccaron" unicode="&#x10c;" horiz-adv-x="702" 
d="M87 535c26.667 54 64.668 95.998 114.001 125.998s106.333 45 171 45c74 0 136 -19.333 186 -58s82.333 -93 97 -163h-54c-14.667 54.667 -42.334 96.834 -83.001 126.501s-90.334 44.5 -149.001 44.5c-53.333 0 -100 -13 -140 -39s-71 -62.167 -93 -108.5
s-33 -99.166 -33 -158.499s11 -112.166 33 -158.499s53 -82.5 93 -108.5s86.667 -39 140 -39c60 0 109.833 14.667 149.5 44s66.834 72 81.501 128h54c-15.333 -70.667 -47.5 -125.334 -96.5 -164.001s-110.833 -58 -185.5 -58c-64.667 0 -121.667 14.833 -171 44.5
s-87.333 71.5 -114 125.5s-40 116 -40 186c0 69.333 13.333 131 40 185zM372.001 797.998l102 98h50l-127 -133h-50l-127 133h51z" />
    <glyph glyph-name="ccaron" unicode="&#x10d;" horiz-adv-x="541" 
d="M425.5 39.5c-38.333 -30.333 -85.834 -45.5 -142.501 -45.5c-47.333 0 -89.166 11 -125.499 33s-64.5 52.667 -84.5 92s-30 84.666 -30 135.999c0 50.667 10.167 95.5 30.5 134.5s48.833 69.333 85.5 91s78.667 32.5 126 32.5c56.667 0 104 -15.167 142 -45.5
s61.667 -71.5 71 -123.5h-51c-8.66699 38 -27.667 68.167 -57 90.5s-65 33.5 -107 33.5c-36.667 0 -69.167 -9 -97.5 -27s-50.5 -43.167 -66.5 -75.5s-24 -69.166 -24 -110.499s8 -78.333 24 -111s38.167 -58.167 66.5 -76.5s60.833 -27.5 97.5 -27.5
c42 0 77.667 11.167 107 33.5s48.333 52.5 57 90.5h51c-10 -52.667 -34.167 -94.167 -72.5 -124.5zM284.999 605l102 98h50l-127 -133h-50l-127 133h51z" />
    <glyph glyph-name="Dcaron" unicode="&#x10e;" horiz-adv-x="659" 
d="M72 700l188 0.00390625c73.333 0 136.333 -14.333 189 -43s93 -69.334 121 -122.001s42 -114.334 42 -185.001s-14 -132.334 -42 -185.001s-68.333 -93.334 -121 -122.001s-115.667 -43 -189 -43h-188v700zM260 50.0039c94 0 167.001 26.833 219.001 80.5
s78 126.834 78 219.501c0 93.333 -25.833 166.666 -77.5 219.999s-124.834 80 -219.501 80h-134v-600h134zM295.001 798.004l102 98h50l-127 -133h-50l-127 133h51z" />
    <glyph glyph-name="dcaron" unicode="&#x10f;" horiz-adv-x="636" 
d="M527 700l-0.000976562 -700.001h-44l-8 115c-16.667 -36.667 -41.667 -66 -75 -88s-72.666 -33 -117.999 -33c-46 0 -87.167 10.667 -123.5 32s-64.666 51.5 -84.999 90.5s-30.5 84.833 -30.5 137.5c0 50 10.167 94.667 30.5 134s48.666 70 84.999 92s77.5 33 123.5 33
c46.667 0 86.667 -10.667 120 -32s58 -50.666 74 -87.999v307h51zM385.499 66.999c29 18 51.5 43.166 67.5 75.499s24 69.166 24 110.499s-8 78.333 -24 111s-38.5 58.167 -67.5 76.5s-62.167 27.5 -99.5 27.5s-70.5 -9.16699 -99.5 -27.5s-51.5 -43.666 -67.5 -75.999
s-24 -69.166 -24 -110.499s8 -78.333 24 -111s38.5 -58 67.5 -76s62.167 -27 99.5 -27s70.5 9 99.5 27zM615.999 699.998h49l-53 -145h-38z" />
    <glyph glyph-name="Dcroat" unicode="&#x110;" horiz-adv-x="675" 
d="M465 657c52.667 -28.667 93 -69.3301 121 -121.997s42 -114.334 42 -185.001s-14 -132.334 -42 -185.001s-68.333 -93.334 -121 -122.001s-115.667 -43 -189 -43h-188v334h-90v46h90v320h188c73.333 0 136.333 -14.333 189 -43zM495 130.504
c52 53.667 78.001 126.834 78.001 219.501c0 93.333 -25.833 166.666 -77.5 219.999s-124.834 80 -219.501 80h-134v-270h157v-46h-157v-284h134c94 0 167 26.833 219 80.5z" />
    <glyph glyph-name="dcroat" unicode="&#x111;" horiz-adv-x="597" 
d="M616 582l-89.001 -0.000976562v-582h-44l-8 115c-16.667 -36.667 -41.667 -66 -75 -88s-72.666 -33 -117.999 -33c-46 0 -87.167 10.667 -123.5 32s-64.666 51.5 -84.999 90.5s-30.5 84.833 -30.5 137.5c0 50 10.167 94.667 30.5 134s48.666 70 84.999 92
s77.5 33 123.5 33c46.667 0 86.667 -10.667 120 -32s58 -50.666 74 -87.999v189h-147v44h147v74h51v-74h89v-44zM385.499 66.999c29 18 51.5 43.166 67.5 75.499s24 69.166 24 110.499s-8 78.333 -24 111s-38.5 58.167 -67.5 76.5s-62.167 27.5 -99.5 27.5
s-70.5 -9.16699 -99.5 -27.5s-51.5 -43.666 -67.5 -75.999s-24 -69.166 -24 -110.499s8 -78.333 24 -111s38.5 -58 67.5 -76s62.167 -27 99.5 -27s70.5 9 99.5 27z" />
    <glyph glyph-name="Emacron" unicode="&#x112;" horiz-adv-x="546" 
d="M72 700h431v-50h-377v-268h316v-50h-316v-282h390v-50h-444v700zM148 822v39h256v-39h-256z" />
    <glyph glyph-name="emacron" unicode="&#x113;" horiz-adv-x="554" 
d="M72.5 389c19.667 39.333 47.333 69.832 83 91.499s76.167 32.5 121.5 32.5c44.667 0 84.334 -9.5 119.001 -28.5s62.167 -46.5 82.5 -82.5s31.166 -78.667 32.499 -128c0 -9.33301 -0.333008 -16.333 -1 -21h-413c-0.666992 -2.66699 -1 -6.66699 -1 -12
c0.666992 -39.333 9 -74.166 25 -104.499s38 -54 66 -71s59.667 -25.5 95 -25.5c41.333 0 77.333 11.5 108 34.5s51 54.167 61 93.5h52c-12 -52 -37.5 -94 -76.5 -126s-85.833 -48 -140.5 -48c-47.333 0 -89.5 11 -126.5 33s-65.667 52.667 -86 92s-30.5 84.333 -30.5 135
s9.83301 95.667 29.5 135zM457.999 295.999c-4.66699 54.667 -23.166 97 -55.499 127s-73.833 45 -124.5 45c-30.667 0 -59 -7.16699 -85 -21.5s-47.333 -34.5 -64 -60.5s-26.334 -56 -29.001 -90h358zM147 628.999v39h256v-39h-256z" />
    <glyph glyph-name="Ebreve" unicode="&#x114;" horiz-adv-x="546" 
d="M72 700h431v-50h-377v-268h316v-50h-316v-282h390v-50h-444v700zM191 896c0 -25.333 7.83496 -46.166 23.502 -62.499s35.834 -24.5 60.501 -24.5c25.333 0 46 8.16699 62 24.5s24 37.166 24 62.499h41c-0.666992 -38 -12.834 -68.667 -36.501 -92s-54.167 -35 -91.5 -35
c-36.667 0 -66.334 11.5 -89.001 34.5s-34.334 53.833 -35.001 92.5h41z" />
    <glyph glyph-name="ebreve" unicode="&#x115;" horiz-adv-x="554" 
d="M72.5 389c19.667 39.333 47.333 69.832 83 91.499s76.167 32.5 121.5 32.5c44.667 0 84.334 -9.5 119.001 -28.5s62.167 -46.5 82.5 -82.5s31.166 -78.667 32.499 -128c0 -9.33301 -0.333008 -16.333 -1 -21h-413c-0.666992 -2.66699 -1 -6.66699 -1 -12
c0.666992 -39.333 9 -74.166 25 -104.499s38 -54 66 -71s59.667 -25.5 95 -25.5c41.333 0 77.333 11.5 108 34.5s51 54.167 61 93.5h52c-12 -52 -37.5 -94 -76.5 -126s-85.833 -48 -140.5 -48c-47.333 0 -89.5 11 -126.5 33s-65.667 52.667 -86 92s-30.5 84.333 -30.5 135
s9.83301 95.667 29.5 135zM457.999 295.999c-4.66699 54.667 -23.166 97 -55.499 127s-73.833 45 -124.5 45c-30.667 0 -59 -7.16699 -85 -21.5s-47.333 -34.5 -64 -60.5s-26.334 -56 -29.001 -90h358zM190 702.999c0 -25.333 7.83496 -46.166 23.502 -62.499
s35.834 -24.5 60.501 -24.5c25.333 0 46 8.16699 62 24.5s24 37.166 24 62.499h41c-0.666992 -38 -12.834 -68.667 -36.501 -92s-54.167 -35 -91.5 -35c-36.667 0 -66.334 11.5 -89.001 34.5s-34.334 53.833 -35.001 92.5h41z" />
    <glyph glyph-name="Edotaccent" unicode="&#x116;" horiz-adv-x="546" 
d="M72 700h431v-50h-377v-268h316v-50h-316v-282h390v-50h-444v700zM251 876.5c6.66699 6.33301 15 9.5 25 9.5s18.333 -3.16699 25 -9.5s10 -14.5 10 -24.5s-3.33301 -18.333 -10 -25s-15 -10 -25 -10s-18.333 3.33301 -25 10s-10 15 -10 25s3.33301 18.167 10 24.5z" />
    <glyph glyph-name="edotaccent" unicode="&#x117;" horiz-adv-x="554" 
d="M72.5 389c19.667 39.333 47.333 69.832 83 91.499s76.167 32.5 121.5 32.5c44.667 0 84.334 -9.5 119.001 -28.5s62.167 -46.5 82.5 -82.5s31.166 -78.667 32.499 -128c0 -9.33301 -0.333008 -16.333 -1 -21h-413c-0.666992 -2.66699 -1 -6.66699 -1 -12
c0.666992 -39.333 9 -74.166 25 -104.499s38 -54 66 -71s59.667 -25.5 95 -25.5c41.333 0 77.333 11.5 108 34.5s51 54.167 61 93.5h52c-12 -52 -37.5 -94 -76.5 -126s-85.833 -48 -140.5 -48c-47.333 0 -89.5 11 -126.5 33s-65.667 52.667 -86 92s-30.5 84.333 -30.5 135
s9.83301 95.667 29.5 135zM457.999 295.999c-4.66699 54.667 -23.166 97 -55.499 127s-73.833 45 -124.5 45c-30.667 0 -59 -7.16699 -85 -21.5s-47.333 -34.5 -64 -60.5s-26.334 -56 -29.001 -90h358zM250 683.499c6.66699 6.33301 15 9.5 25 9.5s18.333 -3.16699 25 -9.5
s10 -14.5 10 -24.5s-3.33301 -18.333 -10 -25s-15 -10 -25 -10s-18.333 3.33301 -25 10s-10 15 -10 25s3.33301 18.167 10 24.5z" />
    <glyph glyph-name="Eogonek" unicode="&#x118;" horiz-adv-x="546" 
d="M524 -162l-0.000976562 -38.001h-69c-28 0 -50.167 7 -66.5 21s-24.5 33 -24.5 57c0 22.667 7.83301 43.334 23.5 62.001s37.834 38.667 66.501 60h-382v700h431v-50h-377v-268h316v-50h-316v-282h390v-50c-36 -22.667 -63.167 -42.5 -81.5 -59.5
s-27.5 -35.5 -27.5 -55.5c0 -14.667 5 -26.167 15 -34.5s23.667 -12.5 41 -12.5h61z" />
    <glyph glyph-name="eogonek" unicode="&#x119;" horiz-adv-x="554" 
d="M97 253c-0.666992 -2.66699 -1.00195 -6.66895 -1.00195 -12.002c0.666992 -39.333 9 -74.166 25 -104.499s38 -54 66 -71s59.667 -25.5 95 -25.5c41.333 0 77.333 11.5 108 34.5s51 54.167 61 93.5h52c-9.33301 -42.667 -28.666 -79 -57.999 -109s-65 -49.667 -107 -59
c-36 -22.667 -63 -42.5 -81 -59.5s-27 -35.5 -27 -55.5c0 -14.667 5 -26.167 15 -34.5s23.667 -12.5 41 -12.5h61v-38h-69c-28 0 -50.167 7 -66.5 21s-24.5 33 -24.5 57c0 22 7.16699 42 21.5 60s34.833 36.667 61.5 56c-44.667 2.66699 -84.167 15.334 -118.5 38.001
s-61 53.167 -80 91.5s-28.5 81.833 -28.5 130.5c0 50.667 9.83301 95.667 29.5 135s47.334 69.833 83.001 91.5s76.167 32.5 121.5 32.5c44.667 0 84.334 -9.5 119.001 -28.5s62.167 -46.5 82.5 -82.5s31.166 -78.667 32.499 -128c0 -9.33301 -0.333008 -16.333 -1 -21h-413
zM192.998 446.498c-26 -14.333 -47.332 -34.5 -63.999 -60.5s-26.334 -56 -29.001 -90h358c-4.66699 54.667 -23.167 97 -55.5 127s-73.833 45 -124.5 45c-30.667 0 -59 -7.16699 -85 -21.5z" />
    <glyph glyph-name="Ecaron" unicode="&#x11a;" horiz-adv-x="546" 
d="M72 700h431v-50h-377v-268h316v-50h-316v-282h390v-50h-444v700zM276 798l102 98h50l-127 -133h-50l-127 133h51z" />
    <glyph glyph-name="ecaron" unicode="&#x11b;" horiz-adv-x="554" 
d="M72.5 389c19.667 39.333 47.333 69.832 83 91.499s76.167 32.5 121.5 32.5c44.667 0 84.334 -9.5 119.001 -28.5s62.167 -46.5 82.5 -82.5s31.166 -78.667 32.499 -128c0 -9.33301 -0.333008 -16.333 -1 -21h-413c-0.666992 -2.66699 -1 -6.66699 -1 -12
c0.666992 -39.333 9 -74.166 25 -104.499s38 -54 66 -71s59.667 -25.5 95 -25.5c41.333 0 77.333 11.5 108 34.5s51 54.167 61 93.5h52c-12 -52 -37.5 -94 -76.5 -126s-85.833 -48 -140.5 -48c-47.333 0 -89.5 11 -126.5 33s-65.667 52.667 -86 92s-30.5 84.333 -30.5 135
s9.83301 95.667 29.5 135zM457.999 295.999c-4.66699 54.667 -23.166 97 -55.499 127s-73.833 45 -124.5 45c-30.667 0 -59 -7.16699 -85 -21.5s-47.333 -34.5 -64 -60.5s-26.334 -56 -29.001 -90h358zM275 604.999l102 98h50l-127 -133h-50l-127 133h51z" />
    <glyph glyph-name="Gcircumflex" unicode="&#x11c;" horiz-adv-x="739" 
d="M87 535c26.667 54 64.3301 95.9971 112.997 125.997s105.667 45 171 45c73.333 0 135 -19.333 185 -58s82.667 -93 98 -163h-53c-16 54.667 -44 96.834 -84 126.501s-89.333 44.5 -148 44.5c-53.333 0 -100 -13 -140 -39s-71 -62.167 -93 -108.5
s-33 -99.166 -33 -158.499s10.833 -112.166 32.5 -158.499s52.334 -82.5 92.001 -108.5s85.167 -39 136.5 -39c50.667 0 94.834 10.5 132.501 31.5s66.667 49.667 87 86s30.5 77.5 30.5 123.5v30h-230v50h282v-365h-45l-5 160c-16.667 -46.667 -46.667 -86 -90 -118
s-97.666 -48 -162.999 -48c-61.333 0 -116 15 -164 45s-85.333 72 -112 126s-40 115.667 -40 185s13.333 131 40 185zM369.996 861.997l-102 -99h-50l127 133h50l127 -133h-51z" />
    <glyph glyph-name="gcircumflex" unicode="&#x11d;" horiz-adv-x="587" 
d="M527 507l-0.000976562 -476c0 -80 -19.667 -139.5 -59 -178.5s-100 -58.5 -182 -58.5c-62.667 0 -114 14.333 -154 43s-64 69.667 -72 123h53c8 -38 27.5 -67.5 58.5 -88.5s70.5 -31.5 118.5 -31.5c62.667 0 109.334 15.5 140.001 46.5s46 79.833 46 146.5v89
c-16.667 -40 -41.5 -71.333 -74.5 -94s-72.833 -34 -119.5 -34c-46 0 -87.167 10.667 -123.5 32s-64.666 51.5 -84.999 90.5s-30.5 84.833 -30.5 137.5c0 50.667 10.167 95.667 30.5 135s48.666 69.833 84.999 91.5s77.5 32.5 123.5 32.5s85.667 -11 119 -33
s58 -52.333 74 -91l8 118h44zM385.499 67c29 18 51.5 43.168 67.5 75.501s24 69.166 24 110.499c0 42 -8 79.333 -24 112s-38.5 58 -67.5 76s-62.167 27 -99.5 27s-70.5 -9 -99.5 -27s-51.5 -43.333 -67.5 -76s-24 -69.667 -24 -111s8 -78.333 24 -111s38.5 -58 67.5 -76
s62.167 -27 99.5 -27s70.5 9 99.5 27zM284.999 669.001l-102 -99h-50l127 133h50l127 -133h-51z" />
    <glyph glyph-name="Gbreve" unicode="&#x11e;" horiz-adv-x="739" 
d="M87 535c26.667 54 64.3301 95.9971 112.997 125.997s105.667 45 171 45c73.333 0 135 -19.333 185 -58s82.667 -93 98 -163h-53c-16 54.667 -44 96.834 -84 126.501s-89.333 44.5 -148 44.5c-53.333 0 -100 -13 -140 -39s-71 -62.167 -93 -108.5
s-33 -99.166 -33 -158.499s10.833 -112.166 32.5 -158.499s52.334 -82.5 92.001 -108.5s85.167 -39 136.5 -39c50.667 0 94.834 10.5 132.501 31.5s66.667 49.667 87 86s30.5 77.5 30.5 123.5v30h-230v50h282v-365h-45l-5 160c-16.667 -46.667 -46.667 -86 -90 -118
s-97.666 -48 -162.999 -48c-61.333 0 -116 15 -164 45s-85.333 72 -112 126s-40 115.667 -40 185s13.333 131 40 185zM284.996 895.997c0 -25.333 7.83496 -46.166 23.502 -62.499s35.834 -24.5 60.501 -24.5c25.333 0 46 8.16699 62 24.5s24 37.166 24 62.499h41
c-0.666992 -38 -12.834 -68.667 -36.501 -92s-54.167 -35 -91.5 -35c-36.667 0 -66.334 11.5 -89.001 34.5s-34.334 53.833 -35.001 92.5h41z" />
    <glyph glyph-name="gbreve" unicode="&#x11f;" horiz-adv-x="587" 
d="M527 507l-0.000976562 -476c0 -80 -19.667 -139.5 -59 -178.5s-100 -58.5 -182 -58.5c-62.667 0 -114 14.333 -154 43s-64 69.667 -72 123h53c8 -38 27.5 -67.5 58.5 -88.5s70.5 -31.5 118.5 -31.5c62.667 0 109.334 15.5 140.001 46.5s46 79.833 46 146.5v89
c-16.667 -40 -41.5 -71.333 -74.5 -94s-72.833 -34 -119.5 -34c-46 0 -87.167 10.667 -123.5 32s-64.666 51.5 -84.999 90.5s-30.5 84.833 -30.5 137.5c0 50.667 10.167 95.667 30.5 135s48.666 69.833 84.999 91.5s77.5 32.5 123.5 32.5s85.667 -11 119 -33
s58 -52.333 74 -91l8 118h44zM385.499 67c29 18 51.5 43.168 67.5 75.501s24 69.166 24 110.499c0 42 -8 79.333 -24 112s-38.5 58 -67.5 76s-62.167 27 -99.5 27s-70.5 -9 -99.5 -27s-51.5 -43.333 -67.5 -76s-24 -69.667 -24 -111s8 -78.333 24 -111s38.5 -58 67.5 -76
s62.167 -27 99.5 -27s70.5 9 99.5 27zM199.999 703.001c0 -25.333 7.83496 -46.166 23.502 -62.499s35.834 -24.5 60.501 -24.5c25.333 0 46 8.16699 62 24.5s24 37.166 24 62.499h41c-0.666992 -38 -12.834 -68.667 -36.501 -92s-54.167 -35 -91.5 -35
c-36.667 0 -66.334 11.5 -89.001 34.5s-34.334 53.833 -35.001 92.5h41z" />
    <glyph glyph-name="Gdotaccent" unicode="&#x120;" horiz-adv-x="739" 
d="M87 535c26.667 54 64.3301 95.9971 112.997 125.997s105.667 45 171 45c73.333 0 135 -19.333 185 -58s82.667 -93 98 -163h-53c-16 54.667 -44 96.834 -84 126.501s-89.333 44.5 -148 44.5c-53.333 0 -100 -13 -140 -39s-71 -62.167 -93 -108.5
s-33 -99.166 -33 -158.499s10.833 -112.166 32.5 -158.499s52.334 -82.5 92.001 -108.5s85.167 -39 136.5 -39c50.667 0 94.834 10.5 132.501 31.5s66.667 49.667 87 86s30.5 77.5 30.5 123.5v30h-230v50h282v-365h-45l-5 160c-16.667 -46.667 -46.667 -86 -90 -118
s-97.666 -48 -162.999 -48c-61.333 0 -116 15 -164 45s-85.333 72 -112 126s-40 115.667 -40 185s13.333 131 40 185zM344.996 876.497c6.66699 6.33301 15 9.5 25 9.5s18.333 -3.16699 25 -9.5s10 -14.5 10 -24.5s-3.33301 -18.333 -10 -25s-15 -10 -25 -10
s-18.333 3.33301 -25 10s-10 15 -10 25s3.33301 18.167 10 24.5z" />
    <glyph glyph-name="gdotaccent" unicode="&#x121;" horiz-adv-x="587" 
d="M527 507l-0.000976562 -476c0 -80 -19.667 -139.5 -59 -178.5s-100 -58.5 -182 -58.5c-62.667 0 -114 14.333 -154 43s-64 69.667 -72 123h53c8 -38 27.5 -67.5 58.5 -88.5s70.5 -31.5 118.5 -31.5c62.667 0 109.334 15.5 140.001 46.5s46 79.833 46 146.5v89
c-16.667 -40 -41.5 -71.333 -74.5 -94s-72.833 -34 -119.5 -34c-46 0 -87.167 10.667 -123.5 32s-64.666 51.5 -84.999 90.5s-30.5 84.833 -30.5 137.5c0 50.667 10.167 95.667 30.5 135s48.666 69.833 84.999 91.5s77.5 32.5 123.5 32.5s85.667 -11 119 -33
s58 -52.333 74 -91l8 118h44zM385.499 67c29 18 51.5 43.168 67.5 75.501s24 69.166 24 110.499c0 42 -8 79.333 -24 112s-38.5 58 -67.5 76s-62.167 27 -99.5 27s-70.5 -9 -99.5 -27s-51.5 -43.333 -67.5 -76s-24 -69.667 -24 -111s8 -78.333 24 -111s38.5 -58 67.5 -76
s62.167 -27 99.5 -27s70.5 9 99.5 27zM259.999 683.501c6.66699 6.33301 15 9.5 25 9.5s18.333 -3.16699 25 -9.5s10 -14.5 10 -24.5s-3.33301 -18.333 -10 -25s-15 -10 -25 -10s-18.333 3.33301 -25 10s-10 15 -10 25s3.33301 18.167 10 24.5z" />
    <glyph glyph-name="Gcommaaccent" unicode="&#x122;" horiz-adv-x="739" 
d="M87 535c26.667 54 64.3301 95.9971 112.997 125.997s105.667 45 171 45c73.333 0 135 -19.333 185 -58s82.667 -93 98 -163h-53c-16 54.667 -44 96.834 -84 126.501s-89.333 44.5 -148 44.5c-53.333 0 -100 -13 -140 -39s-71 -62.167 -93 -108.5
s-33 -99.166 -33 -158.499s10.833 -112.166 32.5 -158.499s52.334 -82.5 92.001 -108.5s85.167 -39 136.5 -39c50.667 0 94.834 10.5 132.501 31.5s66.667 49.667 87 86s30.5 77.5 30.5 123.5v30h-230v50h282v-365h-45l-5 160c-16.667 -46.667 -46.667 -86 -90 -118
s-97.666 -48 -162.999 -48c-61.333 0 -116 15 -164 45s-85.333 72 -112 126s-40 115.667 -40 185s13.333 131 40 185zM336.996 -53.0029h50l-59 -141h-38z" />
    <glyph glyph-name="gcommaaccent" unicode="&#x123;" horiz-adv-x="587" 
d="M527 507l-0.000976562 -476c0 -80 -19.667 -139.5 -59 -178.5s-100 -58.5 -182 -58.5c-62.667 0 -114 14.333 -154 43s-64 69.667 -72 123h53c8 -38 27.5 -67.5 58.5 -88.5s70.5 -31.5 118.5 -31.5c62.667 0 109.334 15.5 140.001 46.5s46 79.833 46 146.5v89
c-16.667 -40 -41.5 -71.333 -74.5 -94s-72.833 -34 -119.5 -34c-46 0 -87.167 10.667 -123.5 32s-64.666 51.5 -84.999 90.5s-30.5 84.833 -30.5 137.5c0 50.667 10.167 95.667 30.5 135s48.666 69.833 84.999 91.5s77.5 32.5 123.5 32.5s85.667 -11 119 -33
s58 -52.333 74 -91l8 118h44zM385.499 67c29 18 51.5 43.168 67.5 75.501s24 69.166 24 110.499c0 42 -8 79.333 -24 112s-38.5 58 -67.5 76s-62.167 27 -99.5 27s-70.5 -9 -99.5 -27s-51.5 -43.333 -67.5 -76s-24 -69.667 -24 -111s8 -78.333 24 -111s38.5 -58 67.5 -76
s62.167 -27 99.5 -27s70.5 9 99.5 27zM301.999 562.001h-50l56 141h40z" />
    <glyph glyph-name="Hcircumflex" unicode="&#x124;" horiz-adv-x="657" 
d="M72 701h54v-319h405v319h54v-701h-54v332h-405v-332h-54v701zM328 862l-102 -99h-50l127 133h50l127 -133h-51z" />
    <glyph glyph-name="hcircumflex" unicode="&#x125;" horiz-adv-x="548" 
d="M439.5 456c36.333 -38 54.5 -95.334 54.5 -172.001v-284h-51v282c0 59.333 -13.833 104.833 -41.5 136.5s-66.167 47.5 -115.5 47.5c-54 0 -96.667 -19.5 -128 -58.5s-47 -91.5 -47 -157.5v-250h-51v700h51v-313c15.333 38.667 38.333 69.334 69 92.001s68.667 34 114 34
c60.667 0 109.167 -19 145.5 -57zM85 851.999l-102 -99h-50l127 133h50l127 -133h-51z" />
    <glyph glyph-name="Hbar" unicode="&#x126;" horiz-adv-x="666" 
d="M667 561v-46h-78v-515h-54v324h-404v-324h-54v515h-79v46h79v140h54v-140h404v140h54v-140h78zM535 374v141h-404v-141h404z" />
    <glyph glyph-name="hbar" unicode="&#x127;" horiz-adv-x="557" 
d="M448.5 456c36.333 -38 54.5 -95.334 54.5 -172.001v-284h-51v282c0 59.333 -13.833 104.833 -41.5 136.5s-66.167 47.5 -115.5 47.5c-54 0 -96.667 -19.5 -128 -58.5s-47 -91.5 -47 -157.5v-250h-51v582h-88v44h88v74h51v-74h148v-44h-148v-195
c15.333 38.667 38.333 69.334 69 92.001s68.667 34 114 34c60.667 0 109.167 -19 145.5 -57z" />
    <glyph glyph-name="Itilde" unicode="&#x128;" horiz-adv-x="198" 
d="M72 700h54v-700h-54v700zM13.5 836.5c-7 -10.333 -10.499 -22.833 -10.499 -37.5h-33v8c0 23.333 6.5 42.5 19.5 57.5s30.833 22.5 53.5 22.5c15.333 0 27.666 -2.83301 36.999 -8.5s19 -13.5 29 -23.5c8.66699 -8.66699 16 -15 22 -19s13.667 -6 23 -6
c13.333 0 23.333 5.16699 30 15.5s10 22.5 10 36.5h34v-7c0 -23.333 -6.5 -42.5 -19.5 -57.5s-30.833 -22.5 -53.5 -22.5c-15.333 0 -27.5 2.66699 -36.5 8s-18.833 13.333 -29.5 24c-8.66699 8.66699 -16 15 -22 19s-13.667 6 -23 6c-13.333 0 -23.5 -5.16699 -30.5 -15.5z
" />
    <glyph glyph-name="itilde" unicode="&#x129;" horiz-adv-x="171" 
d="M60 507h51v-507h-51v507zM0.5 643.5c-7 -10.333 -10.499 -22.833 -10.499 -37.5h-33v8c0 23.333 6.5 42.5 19.5 57.5s30.833 22.5 53.5 22.5c15.333 0 27.666 -2.83301 36.999 -8.5s19 -13.5 29 -23.5c8.66699 -8.66699 16 -15 22 -19s13.667 -6 23 -6
c13.333 0 23.333 5.16699 30 15.5s10 22.5 10 36.5h34v-7c0 -23.333 -6.5 -42.5 -19.5 -57.5s-30.833 -22.5 -53.5 -22.5c-15.333 0 -27.5 2.66699 -36.5 8s-18.833 13.333 -29.5 24c-8.66699 8.66699 -16 15 -22 19s-13.667 6 -23 6c-13.333 0 -23.5 -5.16699 -30.5 -15.5z
" />
    <glyph glyph-name="Imacron" unicode="&#x12a;" horiz-adv-x="198" 
d="M72 700h54v-700h-54v700zM-29 822v39h256v-39h-256z" />
    <glyph glyph-name="imacron" unicode="&#x12b;" horiz-adv-x="171" 
d="M60 507h51v-507h-51v507zM-42 629v39h256v-39h-256z" />
    <glyph glyph-name="Ibreve" unicode="&#x12c;" horiz-adv-x="198" 
d="M72 700h54v-700h-54v700zM14 896c0 -25.333 7.83496 -46.166 23.502 -62.499s35.834 -24.5 60.501 -24.5c25.333 0 46 8.16699 62 24.5s24 37.166 24 62.499h41c-0.666992 -38 -12.834 -68.667 -36.501 -92s-54.167 -35 -91.5 -35c-36.667 0 -66.334 11.5 -89.001 34.5
s-34.334 53.833 -35.001 92.5h41z" />
    <glyph glyph-name="ibreve" unicode="&#x12d;" horiz-adv-x="171" 
d="M60 507h51v-507h-51v507zM1 703c0 -25.333 7.83496 -46.166 23.502 -62.499s35.834 -24.5 60.501 -24.5c25.333 0 46 8.16699 62 24.5s24 37.166 24 62.499h41c-0.666992 -38 -12.834 -68.667 -36.501 -92s-54.167 -35 -91.5 -35c-36.667 0 -66.334 11.5 -89.001 34.5
s-34.334 53.833 -35.001 92.5h41z" />
    <glyph glyph-name="Iogonek" unicode="&#x12e;" horiz-adv-x="198" 
d="M134 -162v-38h-69c-28 0 -50.167 7 -66.5 21s-24.5 33 -24.5 57c0 23.333 8.5 44.833 25.5 64.5s41.167 40.5 72.5 62.5v695h54v-700c-36 -22.667 -63.167 -42.5 -81.5 -59.5s-27.5 -35.5 -27.5 -55.5c0 -14.667 5 -26.167 15 -34.5s23.667 -12.5 41 -12.5h61z" />
    <glyph glyph-name="iogonek" unicode="&#x12f;" horiz-adv-x="171" 
d="M59.5 631c-7 6.66699 -10.5 15.334 -10.5 26.001s3.5 19.334 10.5 26.001s15.5 10 25.5 10c10.667 0 19.334 -3.33301 26.001 -10s10 -15.334 10 -26.001s-3.33301 -19.334 -10 -26.001s-15.334 -10 -26.001 -10c-10 0 -18.5 3.33301 -25.5 10zM17 -149.5
c10 -8.33301 23.667 -12.501 41 -12.501h61v-38h-69c-28 0 -50.167 7 -66.5 21s-24.5 33 -24.5 57s8.66699 45.833 26 65.5s42.333 40.834 75 63.501v500h51v-507c-36 -22.667 -63.167 -42.5 -81.5 -59.5s-27.5 -35.5 -27.5 -55.5c0 -14.667 5 -26.167 15 -34.5z" />
    <glyph glyph-name="Idotaccent" unicode="&#x130;" horiz-adv-x="198" 
d="M72 700h54v-700h-54v700zM74 876.5c6.66699 6.33301 15 9.5 25 9.5s18.333 -3.16699 25 -9.5s10 -14.5 10 -24.5s-3.33301 -18.333 -10 -25s-15 -10 -25 -10s-18.333 3.33301 -25 10s-10 15 -10 25s3.33301 18.167 10 24.5z" />
    <glyph glyph-name="dotlessi" unicode="&#x131;" horiz-adv-x="171" 
d="M60 507h51v-507h-51v507z" />
    <glyph glyph-name="IJ" unicode="&#x132;" horiz-adv-x="596" 
d="M123 248c0 -64 15.166 -114.002 45.499 -150.002s73.166 -54 128.499 -54c58.667 0 102.834 16.333 132.501 49s44.5 86.334 44.5 161.001v446h54v-445c0 -91.333 -19.667 -157.666 -59 -198.999s-96.666 -62 -171.999 -62c-72.667 0 -129 22 -169 66
s-59.667 106.667 -59 188h54zM68.999 699.998h54v-287h-54v287z" />
    <glyph glyph-name="ij" unicode="&#x133;" horiz-adv-x="348" 
d="M111 683c6.66699 -6.66699 10 -15.334 10 -26.001s-3.33301 -19.334 -10 -26.001s-15.334 -10 -26.001 -10c-10 0 -18.5 3.33301 -25.5 10s-10.5 15.334 -10.5 26.001s3.5 19.334 10.5 26.001s15.5 10 25.5 10c10.667 0 19.334 -3.33301 26.001 -10zM60 507h51v-507h-51
v507zM288 683c6.66699 -6.66699 10 -15.334 10 -26.001s-3.33301 -19.334 -10 -26.001s-15.334 -10 -26.001 -10c-10 0 -18.5 3.33301 -25.5 10s-10.5 15.334 -10.5 26.001s3.5 19.334 10.5 26.001s15.5 10 25.5 10c10.667 0 19.334 -3.33301 26.001 -10zM167 -153
c25.333 0 43.333 5.33301 54 16s16 28.667 16 54v590h51v-589c0 -40.667 -9.33301 -70.5 -28 -89.5s-49 -28.5 -91 -28.5h-62v47h60z" />
    <glyph glyph-name="Jcircumflex" unicode="&#x134;" horiz-adv-x="339" 
d="M267 700l-0.000976562 -554.001c0 -97.333 -48.667 -146 -146 -146h-93v51h86c34.667 0 59.834 7.83301 75.501 23.5s23.5 40.834 23.5 75.501v550h54zM238.999 861.999l-102 -99h-50l127 133h50l127 -133h-51z" />
    <glyph glyph-name="jcircumflex" unicode="&#x135;" horiz-adv-x="177" 
d="M-4 -153c25.333 0 43.333 5.33301 54 16s16 28.667 16 54v590h51v-589c0 -40.667 -9.33301 -70.5 -28 -89.5s-49 -28.5 -91 -28.5h-62v47h60zM91 669l-102 -99h-50l127 133h50l127 -133h-51z" />
    <glyph glyph-name="Kcommaaccent" unicode="&#x136;" horiz-adv-x="610" 
d="M72 700h54v-441l387 441h66l-254 -293l277 -407h-65l-251 366l-160 -183v-183h-54v700zM290 -53h50l-59 -141h-38z" />
    <glyph glyph-name="kcommaaccent" unicode="&#x137;" horiz-adv-x="497" 
d="M60 700h51v-499l296 306h62l-203 -210l220 -297h-62l-194 260l-119 -122v-138h-51v700zM238 -53h50l-59 -141h-38z" />
    <glyph glyph-name="Lacute" unicode="&#x139;" horiz-adv-x="484" 
d="M72 0v700h54v-650h335v-50h-389zM80 764l91 132h60l-110 -132h-41z" />
    <glyph glyph-name="lacute" unicode="&#x13a;" horiz-adv-x="171" 
d="M60 700h51v-700h-51v700zM66 754l91 132h60l-110 -132h-41z" />
    <glyph glyph-name="Lcommaaccent" unicode="&#x13b;" horiz-adv-x="484" 
d="M72 0v700h54v-650h335v-50h-389zM238 -53h50l-59 -141h-38z" />
    <glyph glyph-name="lcommaaccent" unicode="&#x13c;" horiz-adv-x="171" 
d="M60 700h51v-700h-51v700zM59 -53h50l-59 -141h-38z" />
    <glyph glyph-name="Lcaron" unicode="&#x13d;" horiz-adv-x="484" 
d="M72 0v700h54v-650h335v-50h-389zM242 700h49l-53 -145h-38z" />
    <glyph glyph-name="lcaron" unicode="&#x13e;" horiz-adv-x="219" 
d="M60 700h51v-700h-51v700zM200 700h49l-53 -145h-38z" />
    <glyph glyph-name="Ldot" unicode="&#x13f;" horiz-adv-x="484" 
d="M72 0v700h54v-650h335v-50h-389zM314 391.5c6.66699 6.33301 15 9.5 25 9.5s18.333 -3.16699 25 -9.5s10 -14.5 10 -24.5s-3.33301 -18.333 -10 -25s-15 -10 -25 -10s-18.333 3.33301 -25 10s-10 15 -10 25s3.33301 18.167 10 24.5z" />
    <glyph glyph-name="ldot" unicode="&#x140;" horiz-adv-x="272" 
d="M60 700h51v-700h-51v700zM195 388.5c6.66699 6.33301 15 9.5 25 9.5s18.333 -3.16699 25 -9.5s10 -14.5 10 -24.5s-3.33301 -18.333 -10 -25s-15 -10 -25 -10s-18.333 3.33301 -25 10s-10 15 -10 25s3.33301 18.167 10 24.5z" />
    <glyph glyph-name="Lslash" unicode="&#x141;" horiz-adv-x="501" 
d="M143 50h335v-50h-389v311l-91 -48v49l91 48v340h54v-311l166 88v-49l-166 -88v-290z" />
    <glyph glyph-name="lslash" unicode="&#x142;" horiz-adv-x="264" 
d="M259 472v-49l-101 -52v-371h-51v345l-103 -53v49l103 53v306h51v-280z" />
    <glyph glyph-name="Nacute" unicode="&#x143;" horiz-adv-x="662" 
d="M72 0v700h51l414 -601v601h53v-700h-51l-414 602v-602h-53zM309 764l91 132h60l-110 -132h-41z" />
    <glyph glyph-name="nacute" unicode="&#x144;" horiz-adv-x="547" 
d="M439.5 456c36.333 -38 54.499 -95.334 54.499 -172.001v-284h-51v282c0 59.333 -13.833 104.833 -41.5 136.5s-66.167 47.5 -115.5 47.5c-54 0 -96.667 -19.5 -128 -58.5s-47 -91.5 -47 -157.5v-250h-51v507h44l8 -108c15.333 34.667 38.333 62.334 69 83.001
s68.334 31 113.001 31c60.667 0 109.167 -19 145.5 -57zM270.999 570.999l91 132h60l-110 -132h-41z" />
    <glyph glyph-name="Ncommaaccent" unicode="&#x145;" horiz-adv-x="662" 
d="M72 0v700h51l414 -601v601h53v-700h-51l-414 602v-602h-53zM305 -53h50l-59 -141h-38z" />
    <glyph glyph-name="ncommaaccent" unicode="&#x146;" horiz-adv-x="547" 
d="M439.5 456c36.333 -38 54.499 -95.334 54.499 -172.001v-284h-51v282c0 59.333 -13.833 104.833 -41.5 136.5s-66.167 47.5 -115.5 47.5c-54 0 -96.667 -19.5 -128 -58.5s-47 -91.5 -47 -157.5v-250h-51v507h44l8 -108c15.333 34.667 38.333 62.334 69 83.001
s68.334 31 113.001 31c60.667 0 109.167 -19 145.5 -57zM250.999 -53.001h50l-59 -141h-38z" />
    <glyph glyph-name="Ncaron" unicode="&#x147;" horiz-adv-x="662" 
d="M72 0v700h51l414 -601v601h53v-700h-51l-414 602v-602h-53zM328 798l102 98h50l-127 -133h-50l-127 133h51z" />
    <glyph glyph-name="ncaron" unicode="&#x148;" horiz-adv-x="547" 
d="M439.5 456c36.333 -38 54.499 -95.334 54.499 -172.001v-284h-51v282c0 59.333 -13.833 104.833 -41.5 136.5s-66.167 47.5 -115.5 47.5c-54 0 -96.667 -19.5 -128 -58.5s-47 -91.5 -47 -157.5v-250h-51v507h44l8 -108c15.333 34.667 38.333 62.334 69 83.001
s68.334 31 113.001 31c60.667 0 109.167 -19 145.5 -57zM289.999 604.999l102 98h50l-127 -133h-50l-127 133h51z" />
    <glyph glyph-name="napostrophe" unicode="&#x149;" horiz-adv-x="704" 
d="M125.5 680.5c11.667 -16.333 17.5 -35.833 17.5 -58.5c0 -33.333 -10.167 -60.5 -30.5 -81.5s-47.5 -32.167 -81.5 -33.5v30c24 0.666992 42.5 8.83398 55.5 24.501s19.5 33.834 19.5 54.501c0 11.333 -3 20 -9 26c-4.66699 -8 -13 -12 -25 -12
c-10 0 -18.333 3.16699 -25 9.5s-10 15.166 -10 26.499s4 20.666 12 27.999s18.667 11 32 11c18 0 32.833 -8.16699 44.5 -24.5zM595.5 456c36.333 -38 54.499 -95.334 54.499 -172.001v-284h-51v282c0 59.333 -13.833 104.833 -41.5 136.5s-66.167 47.5 -115.5 47.5
c-54 0 -96.667 -19.5 -128 -58.5s-47 -91.5 -47 -157.5v-250h-51v507h44l8 -108c15.333 34.667 38.333 62.334 69 83.001s68.334 31 113.001 31c60.667 0 109.167 -19 145.5 -57z" />
    <glyph glyph-name="Eng" unicode="&#x14a;" horiz-adv-x="662" 
d="M590 700v-780c0 -42 -9.5 -72.5 -28.5 -91.5s-49.5 -28.5 -91.5 -28.5h-63v49h60c25.333 0 43.333 5.33301 54 16s16 28.667 16 54v85l-412 598v-602h-53v700h51l414 -601v601h53z" />
    <glyph glyph-name="eng" unicode="&#x14b;" horiz-adv-x="547" 
d="M439.5 456c36.333 -38 54.501 -95.333 54.501 -172v-366c0 -40.667 -9.33301 -70.5 -28 -89.5s-49 -28.5 -91 -28.5h-65v47h62c25.333 0 43.5 5.33301 54.5 16s16.5 28.667 16.5 54v365c0 59.333 -13.833 104.833 -41.5 136.5s-66.167 47.5 -115.5 47.5
c-54 0 -96.667 -19.5 -128 -58.5s-47 -91.5 -47 -157.5v-250h-51v507h44l7 -116c14 37.333 36.667 67 68 89s69.666 33 114.999 33c60.667 0 109.167 -19 145.5 -57z" />
    <glyph glyph-name="Omacron" unicode="&#x14c;" horiz-adv-x="749" 
d="M659.5 166.5c-27.667 -54.333 -66.334 -96.666 -116.001 -126.999s-106.167 -45.5 -169.5 -45.5s-119.833 15.167 -169.5 45.5s-88.334 72.666 -116.001 126.999s-41.5 115.5 -41.5 183.5s13.833 129.167 41.5 183.5s66.334 96.666 116.001 126.999
s106.167 45.5 169.5 45.5s119.833 -15.167 169.5 -45.5s88.334 -72.666 116.001 -126.999s41.5 -115.5 41.5 -183.5s-13.833 -129.167 -41.5 -183.5zM137.5 191.5c23 -46.333 55 -82.5 96 -108.5s87.833 -39 140.5 -39s99.667 13 141 39s73.5 62.167 96.5 108.5
s34.5 99.166 34.5 158.499s-11.5 112.166 -34.5 158.499s-55.167 82.5 -96.5 108.5s-88.333 39 -141 39s-99.5 -13 -140.5 -39s-73 -62.167 -96 -108.5s-34.5 -99.166 -34.5 -158.499s11.5 -112.166 34.5 -158.499zM247 822v39h256v-39h-256z" />
    <glyph glyph-name="omacron" unicode="&#x14d;" horiz-adv-x="573" 
d="M160 27c-36.667 22 -65.334 52.667 -86.001 92s-31 84.333 -31 135s10.333 95.5 31 134.5s49.334 69.5 86.001 91.5s78.667 33 126 33s89.5 -11 126.5 -33s65.833 -52.5 86.5 -91.5s31 -83.833 31 -134.5s-10.333 -95.667 -31 -135s-49.5 -70 -86.5 -92
s-79.167 -33 -126.5 -33s-89.333 11 -126 33zM386 67c29.333 18 52 43.333 68 76s24 69.667 24 111s-8 78.166 -24 110.499s-38.667 57.666 -68 75.999s-62.666 27.5 -99.999 27.5s-70.5 -9.16699 -99.5 -27.5s-51.5 -43.666 -67.5 -75.999s-24 -69.166 -24 -110.499
s8 -78.333 24 -111s38.5 -58 67.5 -76s62.167 -27 99.5 -27s70.666 9 99.999 27zM158 629v39h256v-39h-256z" />
    <glyph glyph-name="Obreve" unicode="&#x14e;" horiz-adv-x="749" 
d="M659.5 166.5c-27.667 -54.333 -66.334 -96.666 -116.001 -126.999s-106.167 -45.5 -169.5 -45.5s-119.833 15.167 -169.5 45.5s-88.334 72.666 -116.001 126.999s-41.5 115.5 -41.5 183.5s13.833 129.167 41.5 183.5s66.334 96.666 116.001 126.999
s106.167 45.5 169.5 45.5s119.833 -15.167 169.5 -45.5s88.334 -72.666 116.001 -126.999s41.5 -115.5 41.5 -183.5s-13.833 -129.167 -41.5 -183.5zM137.5 191.5c23 -46.333 55 -82.5 96 -108.5s87.833 -39 140.5 -39s99.667 13 141 39s73.5 62.167 96.5 108.5
s34.5 99.166 34.5 158.499s-11.5 112.166 -34.5 158.499s-55.167 82.5 -96.5 108.5s-88.333 39 -141 39s-99.5 -13 -140.5 -39s-73 -62.167 -96 -108.5s-34.5 -99.166 -34.5 -158.499s11.5 -112.166 34.5 -158.499zM290 896c0 -25.333 7.83496 -46.166 23.502 -62.499
s35.834 -24.5 60.501 -24.5c25.333 0 46 8.16699 62 24.5s24 37.166 24 62.499h41c-0.666992 -38 -12.834 -68.667 -36.501 -92s-54.167 -35 -91.5 -35c-36.667 0 -66.334 11.5 -89.001 34.5s-34.334 53.833 -35.001 92.5h41z" />
    <glyph glyph-name="obreve" unicode="&#x14f;" horiz-adv-x="573" 
d="M160 27c-36.667 22 -65.334 52.667 -86.001 92s-31 84.333 -31 135s10.333 95.5 31 134.5s49.334 69.5 86.001 91.5s78.667 33 126 33s89.5 -11 126.5 -33s65.833 -52.5 86.5 -91.5s31 -83.833 31 -134.5s-10.333 -95.667 -31 -135s-49.5 -70 -86.5 -92
s-79.167 -33 -126.5 -33s-89.333 11 -126 33zM386 67c29.333 18 52 43.333 68 76s24 69.667 24 111s-8 78.166 -24 110.499s-38.667 57.666 -68 75.999s-62.666 27.5 -99.999 27.5s-70.5 -9.16699 -99.5 -27.5s-51.5 -43.666 -67.5 -75.999s-24 -69.166 -24 -110.499
s8 -78.333 24 -111s38.5 -58 67.5 -76s62.167 -27 99.5 -27s70.666 9 99.999 27zM201 703c0 -25.333 7.83496 -46.166 23.502 -62.499s35.834 -24.5 60.501 -24.5c25.333 0 46 8.16699 62 24.5s24 37.166 24 62.499h41c-0.666992 -38 -12.834 -68.667 -36.501 -92
s-54.167 -35 -91.5 -35c-36.667 0 -66.334 11.5 -89.001 34.5s-34.334 53.833 -35.001 92.5h41z" />
    <glyph glyph-name="Ohungarumlaut" unicode="&#x150;" horiz-adv-x="749" 
d="M659.5 166.5c-27.667 -54.333 -66.334 -96.666 -116.001 -126.999s-106.167 -45.5 -169.5 -45.5s-119.833 15.167 -169.5 45.5s-88.334 72.666 -116.001 126.999s-41.5 115.5 -41.5 183.5s13.833 129.167 41.5 183.5s66.334 96.666 116.001 126.999
s106.167 45.5 169.5 45.5s119.833 -15.167 169.5 -45.5s88.334 -72.666 116.001 -126.999s41.5 -115.5 41.5 -183.5s-13.833 -129.167 -41.5 -183.5zM137.5 191.5c23 -46.333 55 -82.5 96 -108.5s87.833 -39 140.5 -39s99.667 13 141 39s73.5 62.167 96.5 108.5
s34.5 99.166 34.5 158.499s-11.5 112.166 -34.5 158.499s-55.167 82.5 -96.5 108.5s-88.333 39 -141 39s-99.5 -13 -140.5 -39s-73 -62.167 -96 -108.5s-34.5 -99.166 -34.5 -158.499s11.5 -112.166 34.5 -158.499zM265 763l91 133h59l-109 -133h-41zM429 763l91 133h58
l-108 -133h-41z" />
    <glyph glyph-name="ohungarumlaut" unicode="&#x151;" horiz-adv-x="573" 
d="M160 27c-36.667 22 -65.334 52.667 -86.001 92s-31 84.333 -31 135s10.333 95.5 31 134.5s49.334 69.5 86.001 91.5s78.667 33 126 33s89.5 -11 126.5 -33s65.833 -52.5 86.5 -91.5s31 -83.833 31 -134.5s-10.333 -95.667 -31 -135s-49.5 -70 -86.5 -92
s-79.167 -33 -126.5 -33s-89.333 11 -126 33zM386 67c29.333 18 52 43.333 68 76s24 69.667 24 111s-8 78.166 -24 110.499s-38.667 57.666 -68 75.999s-62.666 27.5 -99.999 27.5s-70.5 -9.16699 -99.5 -27.5s-51.5 -43.666 -67.5 -75.999s-24 -69.166 -24 -110.499
s8 -78.333 24 -111s38.5 -58 67.5 -76s62.167 -27 99.5 -27s70.666 9 99.999 27zM176 570l91 133h59l-109 -133h-41zM340 570l91 133h58l-108 -133h-41z" />
    <glyph glyph-name="OE" unicode="&#x152;" horiz-adv-x="1130" 
d="M1100 50v-50h-444v173c-24 -56 -59.833 -99.833 -107.5 -131.5s-104.167 -47.5 -169.5 -47.5c-64.667 0 -122.167 15.167 -172.5 45.5s-89.5 72.5 -117.5 126.5s-42 115.333 -42 184s14 130 42 184s67.167 96.167 117.5 126.5s107.833 45.5 172.5 45.5
c65.333 0 121.833 -15.833 169.5 -47.5s83.5 -75.5 107.5 -131.5v173h431v-50h-377v-268h316v-50h-316v-282h390zM524 83c42 26 74.5 62.167 97.5 108.5s34.5 99.166 34.5 158.499c0 58.667 -11.5 111.334 -34.5 158.001s-55.5 83 -97.5 109s-90 39 -144 39
c-54.667 0 -103 -13 -145 -39s-74.5 -62.333 -97.5 -109s-34.5 -99.334 -34.5 -158.001c0 -59.333 11.5 -112.166 34.5 -158.499s55.5 -82.5 97.5 -108.5s90.333 -39 145 -39c54 0 102 13 144 39z" />
    <glyph glyph-name="oe" unicode="&#x153;" horiz-adv-x="984" 
d="M527 253c-0.666992 -2.66699 -1 -6.66699 -1 -12c0.666992 -39.333 8.83398 -74.166 24.501 -104.499s37.5 -54 65.5 -71s60 -25.5 96 -25.5c41.333 0 77.166 11.5 107.499 34.5s50.833 54.167 61.5 93.5h51c-11.333 -52 -36.5 -94 -75.5 -126s-85.833 -48 -140.5 -48
c-50.667 0 -94.834 12.5 -132.501 37.5s-65.5 59.5 -83.5 103.5c-18.667 -44 -46.667 -78.5 -84 -103.5s-80.666 -37.5 -129.999 -37.5c-47.333 0 -89.333 11 -126 33s-65.334 52.667 -86.001 92s-31 84.666 -31 135.999c0 50.667 10.333 95.5 31 134.5
s49.334 69.333 86.001 91s78.667 32.5 126 32.5c50 0 94 -12.333 132 -37s66 -58.667 84 -102c18 43.333 45 77.333 81 102s77.333 37 124 37c44.667 0 84.334 -9.5 119.001 -28.5s62.167 -46.5 82.5 -82.5s31.166 -78.667 32.499 -128l-1 -21h-413zM386 67.5
c29.333 18.333 52 43.666 68 75.999s24 68.833 24 109.5c0 42 -8 79.333 -24 112s-38.667 58 -68 76s-62.666 27 -99.999 27s-70.5 -9.16699 -99.5 -27.5s-51.5 -43.666 -67.5 -75.999s-24 -68.833 -24 -109.5c0 -41.333 8 -78.333 24 -111s38.5 -58.167 67.5 -76.5
s62.167 -27.5 99.5 -27.5s70.666 9.16699 99.999 27.5zM622 446.5c-26 -14.333 -47.3301 -34.5 -63.9971 -60.5s-26.334 -56 -29.001 -90h359c-4.66699 54.667 -23.334 97 -56.001 127s-74.334 45 -125.001 45c-30.667 0 -59 -7.16699 -85 -21.5z" />
    <glyph glyph-name="Racute" unicode="&#x154;" horiz-adv-x="595" 
d="M331 700c66.667 0 120 -18.499 160 -55.499s60 -86.5 60 -148.5c0 -51.333 -14.833 -94.333 -44.5 -129s-69.5 -56.334 -119.5 -65.001l166 -302h-61l-159 292h-207v-292h-54v700h259zM126 342.001h200.999c51.333 0 92.333 14 123 42s46 65.333 46 112
s-15.167 84 -45.5 112s-71.166 42 -122.499 42h-202v-308zM266.999 764.001l91 132h60l-110 -132h-41z" />
    <glyph glyph-name="racute" unicode="&#x155;" horiz-adv-x="312" 
d="M290 507v-49h-33c-54.667 0 -92.667 -18.5 -114 -55.5s-32 -85.5 -32 -145.5v-257h-51v507h44l8 -101c12 31.333 30 56 54 74s57.667 27 101 27h23zM149 571l91 132h60l-110 -132h-41z" />
    <glyph glyph-name="Rcommaaccent" unicode="&#x156;" horiz-adv-x="595" 
d="M331 700c66.667 0 120 -18.499 160 -55.499s60 -86.5 60 -148.5c0 -51.333 -14.833 -94.333 -44.5 -129s-69.5 -56.334 -119.5 -65.001l166 -302h-61l-159 292h-207v-292h-54v700h259zM126 342.001h200.999c51.333 0 92.333 14 123 42s46 65.333 46 112
s-15.167 84 -45.5 112s-71.166 42 -122.499 42h-202v-308zM270.999 -52.999h50l-59 -141h-38z" />
    <glyph glyph-name="rcommaaccent" unicode="&#x157;" horiz-adv-x="312" 
d="M290 507v-49h-33c-54.667 0 -92.667 -18.5 -114 -55.5s-32 -85.5 -32 -145.5v-257h-51v507h44l8 -101c12 31.333 30 56 54 74s57.667 27 101 27h23zM59 -53h50l-59 -141h-38z" />
    <glyph glyph-name="Rcaron" unicode="&#x158;" horiz-adv-x="595" 
d="M331 700c66.667 0 120 -18.499 160 -55.499s60 -86.5 60 -148.5c0 -51.333 -14.833 -94.333 -44.5 -129s-69.5 -56.334 -119.5 -65.001l166 -302h-61l-159 292h-207v-292h-54v700h259zM126 342.001h200.999c51.333 0 92.333 14 123 42s46 65.333 46 112
s-15.167 84 -45.5 112s-71.166 42 -122.499 42h-202v-308zM285.999 798.001l102 98h50l-127 -133h-50l-127 133h51z" />
    <glyph glyph-name="rcaron" unicode="&#x159;" horiz-adv-x="312" 
d="M290 507v-49h-33c-54.667 0 -92.667 -18.5 -114 -55.5s-32 -85.5 -32 -145.5v-257h-51v507h44l8 -101c12 31.333 30 56 54 74s57.667 27 101 27h23zM168 605l102 98h50l-127 -133h-50l-127 133h51z" />
    <glyph glyph-name="Sacute" unicode="&#x15a;" horiz-adv-x="597" 
d="M101 216c3.33301 -52.667 23.6709 -94.5029 61.0039 -125.503s85.666 -46.5 144.999 -46.5c57.333 0 103.166 12.833 137.499 38.5s51.5 60.834 51.5 105.501c0 32 -9.16699 57.333 -27.5 76s-41.833 32.5 -70.5 41.5s-65.334 17.167 -110.001 24.5
c-46.667 8 -85.667 17.833 -117 29.5s-57.333 29.667 -78 54s-31 57.5 -31 99.5c0 38.667 9.66699 72.667 29 102s46.833 52 82.5 68s76.834 24 123.501 24c69.333 0 125.833 -18.167 169.5 -54.5s68.167 -84.5 73.5 -144.5l-53 -1c-6 46 -26 82.667 -60 110
s-77.333 41 -130 41c-55.333 0 -99.333 -12.5 -132 -37.5s-49 -59.833 -49 -104.5c0 -31.333 8.66699 -56 26 -74s39.166 -31 65.499 -39s62.5 -16 108.5 -24c46.667 -7.33301 86.5 -17.166 119.5 -29.499s60.333 -31.166 82 -56.499s32.5 -59 32.5 -101
c0 -38.667 -10.167 -73 -30.5 -103s-48.833 -53.333 -85.5 -70s-79.334 -25 -128.001 -25c-50.667 0 -95.167 9.16699 -133.5 27.5s-68.333 44.333 -90 78s-33.5 72.5 -35.5 116.5h54zM283.005 763.997l91 132h60l-110 -132h-41z" />
    <glyph glyph-name="sacute" unicode="&#x15b;" horiz-adv-x="493" 
d="M93 156c2 -36.667 17.6699 -65.498 47.0029 -86.498s68 -31.5 116 -31.5c42 0 76.667 9 104 27s41 41.667 41 71c0 23.333 -6.5 41.5 -19.5 54.5s-29.833 22.333 -50.5 28s-48.334 11.167 -83.001 16.5c-42.667 6 -77.334 12.833 -104.001 20.5s-48.667 20.5 -66 38.5
s-26 43 -26 75c0 28 8.16699 53 24.5 75s38.666 39.167 66.999 51.5s60.5 18.5 96.5 18.5c58 0 105.167 -12.833 141.5 -38.5s56.833 -62.834 61.5 -111.501h-51c-4.66699 32.667 -20.5 58.5 -47.5 77.5s-60.833 28.5 -101.5 28.5c-42 0 -76 -9 -102 -27
s-39 -41.333 -39 -70c0 -22 6.5 -39 19.5 -51s28.833 -20.333 47.5 -25s45.667 -9.33398 81 -14.001c43.333 -6 79 -13.5 107 -22.5s50.833 -23.167 68.5 -42.5s26.5 -45.666 26.5 -78.999c0 -44 -18.833 -79.167 -56.5 -105.5s-84.167 -39.5 -139.5 -39.5
c-64 0 -115.333 14.167 -154 42.5s-58.667 68.166 -60 119.499h51zM227.003 571.002l91 132h60l-110 -132h-41z" />
    <glyph glyph-name="Scircumflex" unicode="&#x15c;" horiz-adv-x="597" 
d="M101 216c3.33301 -52.667 23.6709 -94.5029 61.0039 -125.503s85.666 -46.5 144.999 -46.5c57.333 0 103.166 12.833 137.499 38.5s51.5 60.834 51.5 105.501c0 32 -9.16699 57.333 -27.5 76s-41.833 32.5 -70.5 41.5s-65.334 17.167 -110.001 24.5
c-46.667 8 -85.667 17.833 -117 29.5s-57.333 29.667 -78 54s-31 57.5 -31 99.5c0 38.667 9.66699 72.667 29 102s46.833 52 82.5 68s76.834 24 123.501 24c69.333 0 125.833 -18.167 169.5 -54.5s68.167 -84.5 73.5 -144.5l-53 -1c-6 46 -26 82.667 -60 110
s-77.333 41 -130 41c-55.333 0 -99.333 -12.5 -132 -37.5s-49 -59.833 -49 -104.5c0 -31.333 8.66699 -56 26 -74s39.166 -31 65.499 -39s62.5 -16 108.5 -24c46.667 -7.33301 86.5 -17.166 119.5 -29.499s60.333 -31.166 82 -56.499s32.5 -59 32.5 -101
c0 -38.667 -10.167 -73 -30.5 -103s-48.833 -53.333 -85.5 -70s-79.334 -25 -128.001 -25c-50.667 0 -95.167 9.16699 -133.5 27.5s-68.333 44.333 -90 78s-33.5 72.5 -35.5 116.5h54zM302.005 861.997l-102 -99h-50l127 133h50l127 -133h-51z" />
    <glyph glyph-name="scircumflex" unicode="&#x15d;" horiz-adv-x="493" 
d="M93 156c2 -36.667 17.6699 -65.498 47.0029 -86.498s68 -31.5 116 -31.5c42 0 76.667 9 104 27s41 41.667 41 71c0 23.333 -6.5 41.5 -19.5 54.5s-29.833 22.333 -50.5 28s-48.334 11.167 -83.001 16.5c-42.667 6 -77.334 12.833 -104.001 20.5s-48.667 20.5 -66 38.5
s-26 43 -26 75c0 28 8.16699 53 24.5 75s38.666 39.167 66.999 51.5s60.5 18.5 96.5 18.5c58 0 105.167 -12.833 141.5 -38.5s56.833 -62.834 61.5 -111.501h-51c-4.66699 32.667 -20.5 58.5 -47.5 77.5s-60.833 28.5 -101.5 28.5c-42 0 -76 -9 -102 -27
s-39 -41.333 -39 -70c0 -22 6.5 -39 19.5 -51s28.833 -20.333 47.5 -25s45.667 -9.33398 81 -14.001c43.333 -6 79 -13.5 107 -22.5s50.833 -23.167 68.5 -42.5s26.5 -45.666 26.5 -78.999c0 -44 -18.833 -79.167 -56.5 -105.5s-84.167 -39.5 -139.5 -39.5
c-64 0 -115.333 14.167 -154 42.5s-58.667 68.166 -60 119.499h51zM246.003 669.002l-102 -99h-50l127 133h50l127 -133h-51z" />
    <glyph glyph-name="Scedilla" unicode="&#x15e;" horiz-adv-x="597" 
d="M521 91c-19.333 -29.333 -46.4961 -52.5039 -81.4961 -69.5039s-75.5 -26.167 -121.5 -27.5l-10 -43h16c24.667 0 44.667 -6.66699 60 -20s23 -30.666 23 -51.999c0 -24 -7.83301 -43.167 -23.5 -57.5s-36.167 -21.5 -61.5 -21.5h-82v32h74c16 0 28.833 4 38.5 12
s14.5 19.333 14.5 34c0 12.667 -4.83301 23 -14.5 31s-21.834 12 -36.501 12h-44l18 73c-72 2.66699 -129.667 24.167 -173 64.5s-66.666 92.833 -69.999 157.5h54c3.33301 -52.667 23.666 -94.5 60.999 -125.5s85.666 -46.5 144.999 -46.5
c57.333 0 103.166 12.833 137.499 38.5s51.5 60.834 51.5 105.501c0 32 -9.16699 57.333 -27.5 76s-41.833 32.5 -70.5 41.5s-65.334 17.167 -110.001 24.5c-46.667 8 -85.667 17.833 -117 29.5s-57.333 29.667 -78 54s-31 57.5 -31 99.5c0 38.667 9.66699 72.667 29 102
s46.833 52 82.5 68s76.834 24 123.501 24c69.333 0 125.833 -18.167 169.5 -54.5s68.167 -84.5 73.5 -144.5l-53 -1c-6 46 -26 82.667 -60 110s-77.333 41 -130 41c-55.333 0 -99.333 -12.5 -132 -37.5s-49 -59.833 -49 -104.5c0 -31.333 8.66699 -56 26 -74
s39.166 -31 65.499 -39s62.5 -16 108.5 -24c46.667 -7.33301 86.5 -17.166 119.5 -29.499s60.333 -31.166 82 -56.499s32.5 -59 32.5 -101c0 -38 -9.66699 -71.667 -29 -101z" />
    <glyph glyph-name="scedilla" unicode="&#x15f;" horiz-adv-x="493" 
d="M401.5 38c-33.667 -26 -76.1631 -40.332 -127.496 -42.999l-10 -44h16c24.667 0 44.667 -6.66699 60 -20s23 -30.666 23 -51.999c0 -24 -7.83301 -43.167 -23.5 -57.5s-36.167 -21.5 -61.5 -21.5h-82v32h74c16 0 28.833 4 38.5 12s14.5 19.333 14.5 34
c0 12.667 -4.83301 23 -14.5 31s-21.834 12 -36.501 12h-44l18 73c-61.333 1.33301 -110.333 16.166 -147 44.499s-55.667 67.5 -57 117.5h51c2 -36.667 17.667 -65.5 47 -86.5s68 -31.5 116 -31.5c42 0 76.667 9 104 27s41 41.667 41 71c0 23.333 -6.5 41.5 -19.5 54.5
s-29.833 22.333 -50.5 28s-48.334 11.167 -83.001 16.5c-42.667 6 -77.334 12.833 -104.001 20.5s-48.667 20.5 -66 38.5s-26 43 -26 75c0 28 8.16699 53 24.5 75s38.666 39.167 66.999 51.5s60.5 18.5 96.5 18.5c58 0 105.167 -12.833 141.5 -38.5
s56.833 -62.834 61.5 -111.501h-51c-4.66699 32.667 -20.5 58.5 -47.5 77.5s-60.833 28.5 -101.5 28.5c-42 0 -76 -9 -102 -27s-39 -41.333 -39 -70c0 -22 6.5 -39 19.5 -51s28.833 -20.333 47.5 -25s45.667 -9.33398 81 -14.001c43.333 -6 79 -13.5 107 -22.5
s50.833 -23.167 68.5 -42.5s26.5 -45.666 26.5 -78.999c0 -41.333 -16.833 -75 -50.5 -101z" />
    <glyph glyph-name="Scaron" unicode="&#x160;" horiz-adv-x="597" 
d="M101 216c3.33301 -52.667 23.6709 -94.5029 61.0039 -125.503s85.666 -46.5 144.999 -46.5c57.333 0 103.166 12.833 137.499 38.5s51.5 60.834 51.5 105.501c0 32 -9.16699 57.333 -27.5 76s-41.833 32.5 -70.5 41.5s-65.334 17.167 -110.001 24.5
c-46.667 8 -85.667 17.833 -117 29.5s-57.333 29.667 -78 54s-31 57.5 -31 99.5c0 38.667 9.66699 72.667 29 102s46.833 52 82.5 68s76.834 24 123.501 24c69.333 0 125.833 -18.167 169.5 -54.5s68.167 -84.5 73.5 -144.5l-53 -1c-6 46 -26 82.667 -60 110
s-77.333 41 -130 41c-55.333 0 -99.333 -12.5 -132 -37.5s-49 -59.833 -49 -104.5c0 -31.333 8.66699 -56 26 -74s39.166 -31 65.499 -39s62.5 -16 108.5 -24c46.667 -7.33301 86.5 -17.166 119.5 -29.499s60.333 -31.166 82 -56.499s32.5 -59 32.5 -101
c0 -38.667 -10.167 -73 -30.5 -103s-48.833 -53.333 -85.5 -70s-79.334 -25 -128.001 -25c-50.667 0 -95.167 9.16699 -133.5 27.5s-68.333 44.333 -90 78s-33.5 72.5 -35.5 116.5h54zM302.005 797.997l102 98h50l-127 -133h-50l-127 133h51z" />
    <glyph glyph-name="scaron" unicode="&#x161;" horiz-adv-x="493" 
d="M93 156c2 -36.667 17.6699 -65.498 47.0029 -86.498s68 -31.5 116 -31.5c42 0 76.667 9 104 27s41 41.667 41 71c0 23.333 -6.5 41.5 -19.5 54.5s-29.833 22.333 -50.5 28s-48.334 11.167 -83.001 16.5c-42.667 6 -77.334 12.833 -104.001 20.5s-48.667 20.5 -66 38.5
s-26 43 -26 75c0 28 8.16699 53 24.5 75s38.666 39.167 66.999 51.5s60.5 18.5 96.5 18.5c58 0 105.167 -12.833 141.5 -38.5s56.833 -62.834 61.5 -111.501h-51c-4.66699 32.667 -20.5 58.5 -47.5 77.5s-60.833 28.5 -101.5 28.5c-42 0 -76 -9 -102 -27
s-39 -41.333 -39 -70c0 -22 6.5 -39 19.5 -51s28.833 -20.333 47.5 -25s45.667 -9.33398 81 -14.001c43.333 -6 79 -13.5 107 -22.5s50.833 -23.167 68.5 -42.5s26.5 -45.666 26.5 -78.999c0 -44 -18.833 -79.167 -56.5 -105.5s-84.167 -39.5 -139.5 -39.5
c-64 0 -115.333 14.167 -154 42.5s-58.667 68.166 -60 119.499h51zM246.003 605.002l102 98h50l-127 -133h-50l-127 133h51z" />
    <glyph glyph-name="uni0162" unicode="&#x162;" horiz-adv-x="580" 
d="M23 700h534v-50h-240v-650h-54v650h-240v50zM264 -53h50l-59 -141h-38z" />
    <glyph glyph-name="uni0163" unicode="&#x163;" horiz-adv-x="299" 
d="M94 460h-96v47h96v142h51v-142h135v-47h-135v-341c0 -26 5.33301 -44.5 16 -55.5s28.667 -16.5 54 -16.5h74v-47h-76c-42.667 0 -73.167 9.33301 -91.5 28s-27.5 48.667 -27.5 90v342zM168 -53h50l-59 -141h-38z" />
    <glyph glyph-name="Tcaron" unicode="&#x164;" horiz-adv-x="580" 
d="M23 700h534v-50h-240v-650h-54v650h-240v50zM291 798l102 98h50l-127 -133h-50l-127 133h51z" />
    <glyph glyph-name="tcaron" unicode="&#x165;" horiz-adv-x="299" 
d="M94 460h-96v47h96v142h51v-142h135v-47h-135v-341c0 -26 5.33301 -44.5 16 -55.5s28.667 -16.5 54 -16.5h74v-47h-76c-42.667 0 -73.167 9.33301 -91.5 28s-27.5 48.667 -27.5 90v342zM244 712h49l-53 -145h-38z" />
    <glyph glyph-name="Tbar" unicode="&#x166;" horiz-adv-x="580" 
d="M557 650h-240v-283h128v-47h-128v-320h-54v320h-128v47h128v283h-240v50h534v-50z" />
    <glyph glyph-name="tbar" unicode="&#x167;" horiz-adv-x="315" 
d="M293 47v-47h-77c-42.667 0 -73 9.33301 -91 28s-27 48.667 -27 90v146h-96v44h96v152h-96v47h96v142h51v-142h135v-47h-135v-152h135v-44h-135v-145c0 -26 5.33301 -44.5 16 -55.5s28.667 -16.5 54 -16.5h74z" />
    <glyph glyph-name="Utilde" unicode="&#x168;" horiz-adv-x="650" 
d="M123 700l-0.000976562 -414c0 -81.333 16.333 -142 49 -182s83.334 -60 152.001 -60c69.333 0 120.5 20 153.5 60s49.5 100.667 49.5 182v414h54v-411c0 -196.667 -85.667 -295 -257 -295c-170 0 -255 98.333 -255 295v411h54zM239.499 836.5
c-7 -10.333 -10.499 -22.833 -10.499 -37.5h-33v8c0 23.333 6.5 42.5 19.5 57.5s30.833 22.5 53.5 22.5c15.333 0 27.666 -2.83301 36.999 -8.5s19 -13.5 29 -23.5c8.66699 -8.66699 16 -15 22 -19s13.667 -6 23 -6c13.333 0 23.333 5.16699 30 15.5s10 22.5 10 36.5h34v-7
c0 -23.333 -6.5 -42.5 -19.5 -57.5s-30.833 -22.5 -53.5 -22.5c-15.333 0 -27.5 2.66699 -36.5 8s-18.833 13.333 -29.5 24c-8.66699 8.66699 -16 15 -22 19s-13.667 6 -23 6c-13.333 0 -23.5 -5.16699 -30.5 -15.5z" />
    <glyph glyph-name="utilde" unicode="&#x169;" horiz-adv-x="539" 
d="M479 507v-507h-45l-7 107c-15.333 -34.667 -38 -62.167 -68 -82.5s-66.667 -30.5 -110 -30.5c-58.667 0 -105.834 19.167 -141.501 57.5s-53.5 95.5 -53.5 171.5v284h51v-281c0 -60 13.333 -105.833 40 -137.5s64 -47.5 112 -47.5c52.667 0 94.334 19.5 125.001 58.5
s46 91.833 46 158.5v249h51zM181.5 643.5c-7 -10.333 -10.499 -22.833 -10.499 -37.5h-33v8c0 23.333 6.5 42.5 19.5 57.5s30.833 22.5 53.5 22.5c15.333 0 27.666 -2.83301 36.999 -8.5s19 -13.5 29 -23.5c8.66699 -8.66699 16 -15 22 -19s13.667 -6 23 -6
c13.333 0 23.333 5.16699 30 15.5s10 22.5 10 36.5h34v-7c0 -23.333 -6.5 -42.5 -19.5 -57.5s-30.833 -22.5 -53.5 -22.5c-15.333 0 -27.5 2.66699 -36.5 8s-18.833 13.333 -29.5 24c-8.66699 8.66699 -16 15 -22 19s-13.667 6 -23 6c-13.333 0 -23.5 -5.16699 -30.5 -15.5z
" />
    <glyph glyph-name="Umacron" unicode="&#x16a;" horiz-adv-x="650" 
d="M123 700l-0.000976562 -414c0 -81.333 16.333 -142 49 -182s83.334 -60 152.001 -60c69.333 0 120.5 20 153.5 60s49.5 100.667 49.5 182v414h54v-411c0 -196.667 -85.667 -295 -257 -295c-170 0 -255 98.333 -255 295v411h54zM196.999 822v39h256v-39h-256z" />
    <glyph glyph-name="umacron" unicode="&#x16b;" horiz-adv-x="539" 
d="M479 507v-507h-45l-7 107c-15.333 -34.667 -38 -62.167 -68 -82.5s-66.667 -30.5 -110 -30.5c-58.667 0 -105.834 19.167 -141.501 57.5s-53.5 95.5 -53.5 171.5v284h51v-281c0 -60 13.333 -105.833 40 -137.5s64 -47.5 112 -47.5c52.667 0 94.334 19.5 125.001 58.5
s46 91.833 46 158.5v249h51zM139 629v39h256v-39h-256z" />
    <glyph glyph-name="Ubreve" unicode="&#x16c;" horiz-adv-x="650" 
d="M123 700l-0.000976562 -414c0 -81.333 16.333 -142 49 -182s83.334 -60 152.001 -60c69.333 0 120.5 20 153.5 60s49.5 100.667 49.5 182v414h54v-411c0 -196.667 -85.667 -295 -257 -295c-170 0 -255 98.333 -255 295v411h54zM239.999 896
c0 -25.333 7.83496 -46.166 23.502 -62.499s35.834 -24.5 60.501 -24.5c25.333 0 46 8.16699 62 24.5s24 37.166 24 62.499h41c-0.666992 -38 -12.834 -68.667 -36.501 -92s-54.167 -35 -91.5 -35c-36.667 0 -66.334 11.5 -89.001 34.5s-34.334 53.833 -35.001 92.5h41z" />
    <glyph glyph-name="ubreve" unicode="&#x16d;" horiz-adv-x="539" 
d="M479 507v-507h-45l-7 107c-15.333 -34.667 -38 -62.167 -68 -82.5s-66.667 -30.5 -110 -30.5c-58.667 0 -105.834 19.167 -141.501 57.5s-53.5 95.5 -53.5 171.5v284h51v-281c0 -60 13.333 -105.833 40 -137.5s64 -47.5 112 -47.5c52.667 0 94.334 19.5 125.001 58.5
s46 91.833 46 158.5v249h51zM182 703c0 -25.333 7.83496 -46.166 23.502 -62.499s35.834 -24.5 60.501 -24.5c25.333 0 46 8.16699 62 24.5s24 37.166 24 62.499h41c-0.666992 -38 -12.834 -68.667 -36.501 -92s-54.167 -35 -91.5 -35c-36.667 0 -66.334 11.5 -89.001 34.5
s-34.334 53.833 -35.001 92.5h41z" />
    <glyph glyph-name="Uring" unicode="&#x16e;" horiz-adv-x="650" 
d="M123 700l-0.000976562 -414c0 -81.333 16.333 -142 49 -182s83.334 -60 152.001 -60c69.333 0 120.5 20 153.5 60s49.5 100.667 49.5 182v414h54v-411c0 -196.667 -85.667 -295 -257 -295c-170 0 -255 98.333 -255 295v411h54zM246.499 865
c21.667 21.333 47.834 32 78.501 32s56.834 -10.667 78.501 -32s32.5 -47 32.5 -77s-10.833 -55.667 -32.5 -77s-47.834 -32 -78.501 -32s-56.834 10.667 -78.501 32s-32.5 47 -32.5 77s10.833 55.667 32.5 77zM379.499 843.5c-15 15 -33.167 22.5 -54.5 22.5
s-39.5 -7.5 -54.5 -22.5s-22.5 -33.5 -22.5 -55.5s7.5 -40.5 22.5 -55.5s33.167 -22.5 54.5 -22.5s39.5 7.5 54.5 22.5s22.5 33.5 22.5 55.5s-7.5 40.5 -22.5 55.5z" />
    <glyph glyph-name="uring" unicode="&#x16f;" horiz-adv-x="539" 
d="M479 507v-507h-45l-7 107c-15.333 -34.667 -38 -62.167 -68 -82.5s-66.667 -30.5 -110 -30.5c-58.667 0 -105.834 19.167 -141.501 57.5s-53.5 95.5 -53.5 171.5v284h51v-281c0 -60 13.333 -105.833 40 -137.5s64 -47.5 112 -47.5c52.667 0 94.334 19.5 125.001 58.5
s46 91.833 46 158.5v249h51zM188.5 744c21.667 21.333 47.834 32 78.501 32s56.834 -10.667 78.501 -32s32.5 -47 32.5 -77s-10.833 -55.667 -32.5 -77s-47.834 -32 -78.501 -32s-56.834 10.667 -78.501 32s-32.5 47 -32.5 77s10.833 55.667 32.5 77zM321.5 722.5
c-15 15 -33.167 22.5 -54.5 22.5s-39.5 -7.5 -54.5 -22.5s-22.5 -33.5 -22.5 -55.5s7.5 -40.5 22.5 -55.5s33.167 -22.5 54.5 -22.5s39.5 7.5 54.5 22.5s22.5 33.5 22.5 55.5s-7.5 40.5 -22.5 55.5z" />
    <glyph glyph-name="Uhungarumlaut" unicode="&#x170;" horiz-adv-x="650" 
d="M123 700l-0.000976562 -414c0 -81.333 16.333 -142 49 -182s83.334 -60 152.001 -60c69.333 0 120.5 20 153.5 60s49.5 100.667 49.5 182v414h54v-411c0 -196.667 -85.667 -295 -257 -295c-170 0 -255 98.333 -255 295v411h54zM214.999 763l91 133h59l-109 -133h-41z
M378.999 763l91 133h58l-108 -133h-41z" />
    <glyph glyph-name="uhungarumlaut" unicode="&#x171;" horiz-adv-x="539" 
d="M479 507v-507h-45l-7 107c-15.333 -34.667 -38 -62.167 -68 -82.5s-66.667 -30.5 -110 -30.5c-58.667 0 -105.834 19.167 -141.501 57.5s-53.5 95.5 -53.5 171.5v284h51v-281c0 -60 13.333 -105.833 40 -137.5s64 -47.5 112 -47.5c52.667 0 94.334 19.5 125.001 58.5
s46 91.833 46 158.5v249h51zM157 570l91 133h59l-109 -133h-41zM321 570l91 133h58l-108 -133h-41z" />
    <glyph glyph-name="Uogonek" unicode="&#x172;" horiz-adv-x="650" 
d="M581 700l-0.000976562 -411c0 -174 -67 -271 -201 -291c-34.667 -21.333 -61 -40.666 -79 -57.999s-27 -35.666 -27 -54.999c0 -14.667 5 -26.167 15 -34.5s23.667 -12.5 41 -12.5h61v-38h-69c-28 0 -50.167 7 -66.5 21s-24.5 33 -24.5 57
c0 21.333 7.16699 41.166 21.5 59.499s34.5 37.166 60.5 56.499c-162.667 4 -244 102.333 -244 295v411h54v-414c0 -81.333 16.333 -142 49 -182s83.334 -60 152.001 -60c69.333 0 120.5 20 153.5 60s49.5 100.667 49.5 182v414h54z" />
    <glyph glyph-name="uogonek" unicode="&#x173;" horiz-adv-x="539" 
d="M487 -162v-37.999h-69c-28 0 -50.167 7 -66.5 21s-24.5 33 -24.5 57c0 24.667 9.16699 47.167 27.5 67.5s44.5 42.166 78.5 65.499l-6 96c-15.333 -34.667 -38 -62.167 -68 -82.5s-66.667 -30.5 -110 -30.5c-58.667 0 -105.834 19.167 -141.501 57.5
s-53.5 95.5 -53.5 171.5v284h51v-281c0 -60 13.333 -105.833 40 -137.5s64 -47.5 112 -47.5c52.667 0 94.334 19.5 125.001 58.5s46 91.833 46 158.5v249h51v-507c-36 -22.667 -63.167 -42.5 -81.5 -59.5s-27.5 -35.5 -27.5 -55.5c0 -14.667 5 -26.167 15 -34.5
s23.667 -12.5 41 -12.5h61z" />
    <glyph glyph-name="Wcircumflex" unicode="&#x174;" horiz-adv-x="975" 
d="M29 700h57l187 -629l189 629h55l184 -629l189 629h56l-213 -700h-65l-181 610l-181 -610h-65zM488 862l-102 -99h-50l127 133h50l127 -133h-51z" />
    <glyph glyph-name="wcircumflex" unicode="&#x175;" horiz-adv-x="777" 
d="M11 507h54l148 -446l153 446h48l144 -446l156 446h52l-180 -507h-55l-143 426l-149 -426l-56 -1zM390 669l-102 -99h-50l127 133h50l127 -133h-51z" />
    <glyph glyph-name="Ycircumflex" unicode="&#x176;" horiz-adv-x="618" 
d="M14 701h63l232 -384l234 384h61l-268 -443v-258h-54v258zM307 862l-102 -99h-50l127 133h50l127 -133h-51z" />
    <glyph glyph-name="ycircumflex" unicode="&#x177;" horiz-adv-x="477" 
d="M64 507l176.002 -446.999l173 447h55l-243 -601c-12 -30 -22.333 -52 -31 -66s-19.334 -24.167 -32.001 -30.5s-30.334 -9.5 -53.001 -9.5h-78v47h64c17.333 0 30.5 2 39.5 6s16.333 10.667 22 20s13.167 24.666 22.5 45.999l33 79l-203 509h55zM237.002 669.001
l-102 -99h-50l127 133h50l127 -133h-51z" />
    <glyph glyph-name="Ydieresis" unicode="&#x178;" horiz-adv-x="618" 
d="M14 701h63l232 -384l234 384h61l-268 -443v-258h-54v258zM198 865c6.66699 6.66699 15 10 25 10c10.667 0 19.334 -3.33301 26.001 -10s10 -15 10 -25s-3.33301 -18.333 -10 -25s-15.334 -10 -26.001 -10c-10 0 -18.333 3.33301 -25 10s-10 15 -10 25
s3.33301 18.333 10 25zM365.5 865c7 6.66699 15.5 10 25.5 10s18.333 -3.33301 25 -10s10 -15 10 -25s-3.33301 -18.333 -10 -25s-15 -10 -25 -10s-18.5 3.33301 -25.5 10s-10.5 15 -10.5 25s3.5 18.333 10.5 25z" />
    <glyph glyph-name="Zacute" unicode="&#x179;" horiz-adv-x="606" 
d="M54 700h512v-40l-462 -610h470v-50h-542v40l462 610h-440v50zM287 764l91 132h60l-110 -132h-41z" />
    <glyph glyph-name="zacute" unicode="&#x17a;" horiz-adv-x="466" 
d="M36 507h394v-40l-341 -420h355v-47h-422v40l340 420h-326v47zM215 571l91 132h60l-110 -132h-41z" />
    <glyph glyph-name="Zdotaccent" unicode="&#x17b;" horiz-adv-x="606" 
d="M54 700h512v-40l-462 -610h470v-50h-542v40l462 610h-440v50zM281 876.5c6.66699 6.33301 15 9.5 25 9.5s18.333 -3.16699 25 -9.5s10 -14.5 10 -24.5s-3.33301 -18.333 -10 -25s-15 -10 -25 -10s-18.333 3.33301 -25 10s-10 15 -10 25s3.33301 18.167 10 24.5z" />
    <glyph glyph-name="zdotaccent" unicode="&#x17c;" horiz-adv-x="466" 
d="M36 507h394v-40l-341 -420h355v-47h-422v40l340 420h-326v47zM209 683.5c6.66699 6.33301 15 9.5 25 9.5s18.333 -3.16699 25 -9.5s10 -14.5 10 -24.5s-3.33301 -18.333 -10 -25s-15 -10 -25 -10s-18.333 3.33301 -25 10s-10 15 -10 25s3.33301 18.167 10 24.5z" />
    <glyph glyph-name="Zcaron" unicode="&#x17d;" horiz-adv-x="606" 
d="M54 700h512v-40l-462 -610h470v-50h-542v40l462 610h-440v50zM306 798l102 98h50l-127 -133h-50l-127 133h51z" />
    <glyph glyph-name="zcaron" unicode="&#x17e;" horiz-adv-x="466" 
d="M36 507h394v-40l-341 -420h355v-47h-422v40l340 420h-326v47zM234 605l102 98h50l-127 -133h-50l-127 133h51z" />
    <glyph glyph-name="florin" unicode="&#x192;" horiz-adv-x="484" 
d="M314 635c-12.667 -12 -20.001 -31 -22.001 -57l-19 -214h128v-47h-132l-27 -313c-2.66699 -37.333 -14.334 -65 -35.001 -83s-50.667 -27 -90 -27h-92v47h86c26.667 0 46.334 6 59.001 18s20 31 22 57l26 301h-123v47h127l20 226c2.66699 37.333 14.334 65 35.001 83
s50.334 27 89.001 27h93v-47h-86c-26.667 0 -46.334 -6 -59.001 -18z" />
    <glyph glyph-name="AEacute" unicode="&#x1fc;" horiz-adv-x="937" 
d="M799 896l-110 -132h-41l91 132h60zM517 50h390v-50h-444v195h-277l-122 -195h-57l430 700h457v-50h-377v-268h316v-50h-316v-282zM212 243h251v410z" />
    <glyph glyph-name="aeacute" unicode="&#x1fd;" horiz-adv-x="916" 
d="M585 700l-110 -132h-41l91 132h60zM459 252l0.000976562 -11.002c0 -39.333 8 -74.166 24 -104.499s38 -54 66 -71s60 -25.5 96 -25.5c41.333 0 77.166 11.5 107.499 34.5s50.5 54.167 60.5 93.5h52c-11.333 -52 -36.666 -94 -75.999 -126s-86.333 -48 -141 -48
c-48 0 -90.333 12 -127 36s-64.334 57.333 -83.001 100c-15.333 -40.667 -42 -73.5 -80 -98.5s-82.333 -37.5 -133 -37.5c-56.667 0 -101.667 13 -135 39s-50 62 -50 108c0 47.333 17.167 84.333 51.5 111s83.833 40 148.5 40h172v42c0 42 -13.167 74.833 -39.5 98.5
s-63.166 35.5 -110.499 35.5c-42 0 -76.167 -9.33301 -102.5 -28s-42.833 -43.667 -49.5 -75h-51c6.66699 46 28 82.167 64 108.5s83 39.5 141 39.5c48.667 0 88.667 -9.66699 120 -29s52.666 -47.666 63.999 -84.999c19.333 36 45.5 64 78.5 84s70.5 30 112.5 30
c44.667 0 84.334 -9.5 119.001 -28.5s62.167 -46.5 82.5 -82.5s31.166 -79 32.499 -129c0 -9.33301 -0.333008 -16.333 -1 -21h-413zM555.001 446.498c-26 -14.333 -47.3311 -34.834 -63.998 -61.501s-26.334 -57 -29.001 -91h358c-4 54.667 -22.333 97.334 -55 128.001
s-74.334 46 -125.001 46c-30.667 0 -59 -7.16699 -85 -21.5zM412.003 247.997l-177 0.000976562c-46 0 -81.333 -9 -106 -27s-37 -43.667 -37 -77c0 -32.667 11.833 -58.5 35.5 -77.5s56.5 -28.5 98.5 -28.5c36 0 68.167 7.16699 96.5 21.5s50.333 34.166 66 59.499
s23.5 54 23.5 86v43z" />
    <glyph glyph-name="Scommaaccent" unicode="&#x218;" horiz-adv-x="597" 
d="M101 216c3.33301 -52.667 23.6709 -94.5029 61.0039 -125.503s85.666 -46.5 144.999 -46.5c57.333 0 103.166 12.833 137.499 38.5s51.5 60.834 51.5 105.501c0 32 -9.16699 57.333 -27.5 76s-41.833 32.5 -70.5 41.5s-65.334 17.167 -110.001 24.5
c-46.667 8 -85.667 17.833 -117 29.5s-57.333 29.667 -78 54s-31 57.5 -31 99.5c0 38.667 9.66699 72.667 29 102s46.833 52 82.5 68s76.834 24 123.501 24c69.333 0 125.833 -18.167 169.5 -54.5s68.167 -84.5 73.5 -144.5l-53 -1c-6 46 -26 82.667 -60 110
s-77.333 41 -130 41c-55.333 0 -99.333 -12.5 -132 -37.5s-49 -59.833 -49 -104.5c0 -31.333 8.66699 -56 26 -74s39.166 -31 65.499 -39s62.5 -16 108.5 -24c46.667 -7.33301 86.5 -17.166 119.5 -29.499s60.333 -31.166 82 -56.499s32.5 -59 32.5 -101
c0 -38.667 -10.167 -73 -30.5 -103s-48.833 -53.333 -85.5 -70s-79.334 -25 -128.001 -25c-50.667 0 -95.167 9.16699 -133.5 27.5s-68.333 44.333 -90 78s-33.5 72.5 -35.5 116.5h54zM278.005 -53.0029h50l-59 -141h-38z" />
    <glyph glyph-name="scommaaccent" unicode="&#x219;" horiz-adv-x="493" 
d="M93 156c2 -36.667 17.6699 -65.498 47.0029 -86.498s68 -31.5 116 -31.5c42 0 76.667 9 104 27s41 41.667 41 71c0 23.333 -6.5 41.5 -19.5 54.5s-29.833 22.333 -50.5 28s-48.334 11.167 -83.001 16.5c-42.667 6 -77.334 12.833 -104.001 20.5s-48.667 20.5 -66 38.5
s-26 43 -26 75c0 28 8.16699 53 24.5 75s38.666 39.167 66.999 51.5s60.5 18.5 96.5 18.5c58 0 105.167 -12.833 141.5 -38.5s56.833 -62.834 61.5 -111.501h-51c-4.66699 32.667 -20.5 58.5 -47.5 77.5s-60.833 28.5 -101.5 28.5c-42 0 -76 -9 -102 -27
s-39 -41.333 -39 -70c0 -22 6.5 -39 19.5 -51s28.833 -20.333 47.5 -25s45.667 -9.33398 81 -14.001c43.333 -6 79 -13.5 107 -22.5s50.833 -23.167 68.5 -42.5s26.5 -45.666 26.5 -78.999c0 -44 -18.833 -79.167 -56.5 -105.5s-84.167 -39.5 -139.5 -39.5
c-64 0 -115.333 14.167 -154 42.5s-58.667 68.166 -60 119.499h51zM234.003 -52.998h50l-59 -141h-38z" />
    <glyph glyph-name="uni021A" unicode="&#x21a;" horiz-adv-x="580" 
d="M23 700h534v-50h-240v-650h-54v650h-240v50zM264 -53h50l-59 -141h-38z" />
    <glyph glyph-name="uni021B" unicode="&#x21b;" horiz-adv-x="299" 
d="M94 460h-96v47h96v142h51v-142h135v-47h-135v-341c0 -26 5.33301 -44.5 16 -55.5s28.667 -16.5 54 -16.5h74v-47h-76c-42.667 0 -73.167 9.33301 -91.5 28s-27.5 48.667 -27.5 90v342zM168 -53h50l-59 -141h-38z" />
    <glyph glyph-name="uni0237" unicode="&#x237;" horiz-adv-x="177" 
d="M-4 -153c25.333 0 43.333 5.33301 54 16s16 28.667 16 54v590h51v-589c0 -40.667 -9.33301 -70.5 -28 -89.5s-49 -28.5 -91 -28.5h-62v47h60z" />
    <glyph glyph-name="uni02BC" unicode="&#x2bc;" horiz-adv-x="317" 
d="M154 700h49l-53 -145h-38z" />
    <glyph glyph-name="circumflex" unicode="&#x2c6;" horiz-adv-x="400" 
d="M200 666l-102 -99h-50l127 133h50l127 -133h-51z" />
    <glyph glyph-name="caron" unicode="&#x2c7;" horiz-adv-x="400" 
d="M200 602l102 98h50l-127 -133h-50l-127 133h51z" />
    <glyph glyph-name="breve" unicode="&#x2d8;" horiz-adv-x="400" 
d="M115 700c0 -25.333 7.83496 -46.166 23.502 -62.499s35.834 -24.5 60.501 -24.5c25.333 0 46 8.16699 62 24.5s24 37.166 24 62.499h41c-0.666992 -38 -12.834 -68.667 -36.501 -92s-54.167 -35 -91.5 -35c-36.667 0 -66.334 11.5 -89.001 34.5
s-34.334 53.833 -35.001 92.5h41z" />
    <glyph glyph-name="dotaccent" unicode="&#x2d9;" horiz-adv-x="400" 
d="M175 680.5c6.66699 6.33301 15 9.5 25 9.5s18.333 -3.16699 25 -9.5s10 -14.5 10 -24.5s-3.33301 -18.333 -10 -25s-15 -10 -25 -10s-18.333 3.33301 -25 10s-10 15 -10 25s3.33301 18.167 10 24.5z" />
    <glyph glyph-name="ring" unicode="&#x2da;" horiz-adv-x="400" 
d="M121.5 741c21.667 21.333 47.834 32 78.501 32s56.834 -10.667 78.501 -32s32.5 -47 32.5 -77s-10.833 -55.667 -32.5 -77s-47.834 -32 -78.501 -32s-56.834 10.667 -78.501 32s-32.5 47 -32.5 77s10.833 55.667 32.5 77zM254.5 719.5c-15 15 -33.167 22.5 -54.5 22.5
s-39.5 -7.5 -54.5 -22.5s-22.5 -33.5 -22.5 -55.5s7.5 -40.5 22.5 -55.5s33.167 -22.5 54.5 -22.5s39.5 7.5 54.5 22.5s22.5 33.5 22.5 55.5s-7.5 40.5 -22.5 55.5z" />
    <glyph glyph-name="ogonek" unicode="&#x2db;" horiz-adv-x="400" 
d="M76 -54.5c18.667 20.333 45.667 42.833 81 67.5l43 -13c-36 -22.667 -63.167 -42.5 -81.5 -59.5s-27.5 -35.5 -27.5 -55.5c0 -14.667 5 -26.167 15 -34.5s23.667 -12.5 41 -12.5h61v-38h-69c-28 0 -50.167 7 -66.5 21s-24.5 33 -24.5 57c0 24.667 9.33301 47.167 28 67.5
z" />
    <glyph glyph-name="tilde" unicode="&#x2dc;" horiz-adv-x="400" 
d="M114.5 640.5c-7 -10.333 -10.5 -22.833 -10.5 -37.5h-33v8c0 23.333 6.5 42.5 19.5 57.5s30.833 22.5 53.5 22.5c15.333 0 27.5 -2.66699 36.5 -8s18.833 -13.333 29.5 -24c8.66699 -8.66699 16 -15 22 -19s13.667 -6 23 -6c13.333 0 23.333 5.16699 30 15.5
s10 22.5 10 36.5h34v-7c0 -23.333 -6.5 -42.5 -19.5 -57.5s-30.833 -22.5 -53.5 -22.5c-15.333 0 -27.5 2.66699 -36.5 8s-18.833 13.333 -29.5 24c-8.66699 8.66699 -16 15 -22 19s-13.667 6 -23 6c-13.333 0 -23.5 -5.16699 -30.5 -15.5z" />
    <glyph glyph-name="hungarumlaut" unicode="&#x2dd;" horiz-adv-x="405" 
d="M90 567l91 133h59l-109 -133h-41zM254 567l91 133h58l-108 -133h-41z" />
    <glyph glyph-name="gravecomb" unicode="&#x300;" horiz-adv-x="0" 
d="M-330 700h60l90 -132h-42z" />
    <glyph glyph-name="acutecomb" unicode="&#x301;" horiz-adv-x="0" 
d="M-219 568l91 132h60l-110 -132h-41z" />
    <glyph glyph-name="uni0302" unicode="&#x302;" horiz-adv-x="0" 
d="M-200 666l-102 -99h-50l127 133h50l127 -133h-51z" />
    <glyph glyph-name="tildecomb" unicode="&#x303;" horiz-adv-x="0" 
d="M-285.5 640.5c-7 -10.333 -10.499 -22.833 -10.499 -37.5h-33v8c0 23.333 6.5 42.5 19.5 57.5s30.833 22.5 53.5 22.5c15.333 0 27.666 -2.83301 36.999 -8.5s19 -13.5 29 -23.5c8.66699 -8.66699 16 -15 22 -19s13.667 -6 23 -6c13.333 0 23.333 5.16699 30 15.5
s10 22.5 10 36.5h34v-7c0 -23.333 -6.5 -42.5 -19.5 -57.5s-30.833 -22.5 -53.5 -22.5c-15.333 0 -27.5 2.66699 -36.5 8s-18.833 13.333 -29.5 24c-8.66699 8.66699 -16 15 -22 19s-13.667 6 -23 6c-13.333 0 -23.5 -5.16699 -30.5 -15.5z" />
    <glyph glyph-name="uni0304" unicode="&#x304;" horiz-adv-x="0" 
d="M-328 626v39h256v-39h-256z" />
    <glyph glyph-name="uni0306" unicode="&#x306;" horiz-adv-x="0" 
d="M-285 700c0 -25.333 7.83496 -46.166 23.502 -62.499s35.834 -24.5 60.501 -24.5c25.333 0 46 8.16699 62 24.5s24 37.166 24 62.499h41c-0.666992 -38 -12.834 -68.667 -36.501 -92s-54.167 -35 -91.5 -35c-36.667 0 -66.334 11.5 -89.001 34.5
s-34.334 53.833 -35.001 92.5h41z" />
    <glyph glyph-name="uni0307" unicode="&#x307;" horiz-adv-x="0" 
d="M-225 680.5c6.66699 6.33301 15 9.5 25 9.5s18.333 -3.16699 25 -9.5s10 -14.5 10 -24.5s-3.33301 -18.333 -10 -25s-15 -10 -25 -10s-18.333 3.33301 -25 10s-10 15 -10 25s3.33301 18.167 10 24.5z" />
    <glyph glyph-name="uni0308" unicode="&#x308;" horiz-adv-x="0" 
d="M-309 669c6.66699 6.66699 15 10 25 10c10.667 0 19.334 -3.33301 26.001 -10s10 -15 10 -25s-3.33301 -18.333 -10 -25s-15.334 -10 -26.001 -10c-10 0 -18.333 3.33301 -25 10s-10 15 -10 25s3.33301 18.333 10 25zM-141.5 669c7 6.66699 15.5 10 25.5 10
s18.333 -3.33301 25 -10s10 -15 10 -25s-3.33301 -18.333 -10 -25s-15 -10 -25 -10s-18.5 3.33301 -25.5 10s-10.5 15 -10.5 25s3.5 18.333 10.5 25z" />
    <glyph glyph-name="uni030A" unicode="&#x30a;" horiz-adv-x="0" 
d="M-278.5 741c21.667 21.333 47.834 32 78.501 32s56.834 -10.667 78.501 -32s32.5 -47 32.5 -77s-10.833 -55.667 -32.5 -77s-47.834 -32 -78.501 -32s-56.834 10.667 -78.501 32s-32.5 47 -32.5 77s10.833 55.667 32.5 77zM-145.5 719.5c-15 15 -33.167 22.5 -54.5 22.5
s-39.5 -7.5 -54.5 -22.5s-22.5 -33.5 -22.5 -55.5s7.5 -40.5 22.5 -55.5s33.167 -22.5 54.5 -22.5s39.5 7.5 54.5 22.5s22.5 33.5 22.5 55.5s-7.5 40.5 -22.5 55.5z" />
    <glyph glyph-name="uni030B" unicode="&#x30b;" horiz-adv-x="0" 
d="M-310 567l91 133h59l-109 -133h-41zM-146 567l91 133h58l-108 -133h-41z" />
    <glyph glyph-name="uni030C" unicode="&#x30c;" horiz-adv-x="0" 
d="M-200 602l102 98h50l-127 -133h-50l-127 133h51z" />
    <glyph glyph-name="uni0312" unicode="&#x312;" horiz-adv-x="0" 
d="M-183 559h-50l56 141h40z" />
    <glyph glyph-name="uni0326" unicode="&#x326;" horiz-adv-x="0" 
d="M-226 -53h50l-59 -141h-38z" />
    <glyph glyph-name="uni0327" unicode="&#x327;" horiz-adv-x="0" 
d="M-182 10l-13.999 -59.001h16c24.667 0 44.667 -6.66699 60 -20s23 -30.666 23 -51.999c0 -24 -7.83301 -43.167 -23.5 -57.5s-36.167 -21.5 -61.5 -21.5h-82v32h74c16 0 28.833 4 38.5 12s14.5 19.333 14.5 34c0 12.667 -4.83301 23 -14.5 31s-21.834 12 -36.501 12h-44
l22 89h28z" />
    <glyph glyph-name="uni0328" unicode="&#x328;" horiz-adv-x="0" 
d="M-324 -54.5c18.667 20.333 45.667 42.833 81 67.5l43 -13c-36 -22.667 -63.167 -42.5 -81.5 -59.5s-27.5 -35.5 -27.5 -55.5c0 -14.667 5 -26.167 15 -34.5s23.667 -12.5 41 -12.5h61v-38h-69c-28 0 -50.167 7 -66.5 21s-24.5 33 -24.5 57
c0 24.667 9.33301 47.167 28 67.5z" />
    <glyph glyph-name="pi" unicode="&#x3c0;" horiz-adv-x="602" 
d="M584 507v-47h-90v-460h-51v460h-284v-460h-52v460h-89v47h566z" />
    <glyph glyph-name="uni0E3F" unicode="&#xe3f;" horiz-adv-x="624" 
d="M526 306c29.333 -28 44.001 -66.667 44.001 -116c0 -59.333 -21.167 -105.833 -63.5 -139.5s-103.5 -50.5 -183.5 -50.5h-17v-100h-37v100h-197v700h197v101h37v-101h13c70 0 124.167 -15.667 162.5 -47s57.5 -75 57.5 -131c0 -42.667 -11.833 -78.167 -35.5 -106.5
s-57.5 -46.833 -101.5 -55.5c53.333 -8 94.666 -26 123.999 -54zM126.001 651v-269h143v269h-143zM306.001 651v-269h16c51.333 0 91.333 12 120 36s43 57 43 99s-14.167 74.833 -42.5 98.5s-68.5 35.5 -120.5 35.5h-16zM126.001 49h143v284h-143v-284zM466.001 87
c32.667 25.333 48.998 60.333 48.998 105c0 46 -16.667 81 -50 105s-80.666 36 -141.999 36h-17v-284h17c62.667 0 110.334 12.667 143.001 38z" />
    <glyph glyph-name="Wgrave" unicode="&#x1e80;" horiz-adv-x="975" 
d="M29 700h57l187 -629l189 629h55l184 -629l189 629h56l-213 -700h-65l-181 610l-181 -610h-65zM358 896h60l90 -132h-42z" />
    <glyph glyph-name="wgrave" unicode="&#x1e81;" horiz-adv-x="777" 
d="M11 507h54l148 -446l153 446h48l144 -446l156 446h52l-180 -507h-55l-143 426l-149 -426l-56 -1zM260 703h60l90 -132h-42z" />
    <glyph glyph-name="Wacute" unicode="&#x1e82;" horiz-adv-x="975" 
d="M29 700h57l187 -629l189 629h55l184 -629l189 629h56l-213 -700h-65l-181 610l-181 -610h-65zM469 764l91 132h60l-110 -132h-41z" />
    <glyph glyph-name="wacute" unicode="&#x1e83;" horiz-adv-x="777" 
d="M11 507h54l148 -446l153 446h48l144 -446l156 446h52l-180 -507h-55l-143 426l-149 -426l-56 -1zM371 571l91 132h60l-110 -132h-41z" />
    <glyph glyph-name="Wdieresis" unicode="&#x1e84;" horiz-adv-x="975" 
d="M29 700h57l187 -629l189 629h55l184 -629l189 629h56l-213 -700h-65l-181 610l-181 -610h-65zM379 865c6.66699 6.66699 15 10 25 10c10.667 0 19.334 -3.33301 26.001 -10s10 -15 10 -25s-3.33301 -18.333 -10 -25s-15.334 -10 -26.001 -10
c-10 0 -18.333 3.33301 -25 10s-10 15 -10 25s3.33301 18.333 10 25zM546.5 865c7 6.66699 15.5 10 25.5 10s18.333 -3.33301 25 -10s10 -15 10 -25s-3.33301 -18.333 -10 -25s-15 -10 -25 -10s-18.5 3.33301 -25.5 10s-10.5 15 -10.5 25s3.5 18.333 10.5 25z" />
    <glyph glyph-name="wdieresis" unicode="&#x1e85;" horiz-adv-x="777" 
d="M11 507h54l148 -446l153 446h48l144 -446l156 446h52l-180 -507h-55l-143 426l-149 -426l-56 -1zM281 672c6.66699 6.66699 15 10 25 10c10.667 0 19.334 -3.33301 26.001 -10s10 -15 10 -25s-3.33301 -18.333 -10 -25s-15.334 -10 -26.001 -10
c-10 0 -18.333 3.33301 -25 10s-10 15 -10 25s3.33301 18.333 10 25zM448.5 672c7 6.66699 15.5 10 25.5 10s18.333 -3.33301 25 -10s10 -15 10 -25s-3.33301 -18.333 -10 -25s-15 -10 -25 -10s-18.5 3.33301 -25.5 10s-10.5 15 -10.5 25s3.5 18.333 10.5 25z" />
    <glyph glyph-name="Ygrave" unicode="&#x1ef2;" horiz-adv-x="618" 
d="M14 701h63l232 -384l234 384h61l-268 -443v-258h-54v258zM177 896h60l90 -132h-42z" />
    <glyph glyph-name="ygrave" unicode="&#x1ef3;" horiz-adv-x="477" 
d="M64 507l176.002 -446.999l173 447h55l-243 -601c-12 -30 -22.333 -52 -31 -66s-19.334 -24.167 -32.001 -30.5s-30.334 -9.5 -53.001 -9.5h-78v47h64c17.333 0 30.5 2 39.5 6s16.333 10.667 22 20s13.167 24.666 22.5 45.999l33 79l-203 509h55zM107.002 703.001h60
l90 -132h-42z" />
    <glyph glyph-name="endash" unicode="&#x2013;" horiz-adv-x="584" 
d="M59 263v42h466v-42h-466z" />
    <glyph glyph-name="emdash" unicode="&#x2014;" horiz-adv-x="919" 
d="M59 306h801v-42h-801v42z" />
    <glyph glyph-name="quoteleft" unicode="&#x2018;" horiz-adv-x="184" 
d="M58.5 532.5c-11.667 16.333 -17.499 35.833 -17.499 58.5c0 33.333 10.167 60.5 30.5 81.5s47.5 32.167 81.5 33.5v-30c-24 -0.666992 -42.5 -8.83398 -55.5 -24.501s-19.5 -33.834 -19.5 -54.501c0 -11.333 3 -20 9 -26c5.33301 8 13.666 12 24.999 12
c10 0 18.333 -3.16699 25 -9.5s10 -15.166 10 -26.499s-4 -20.666 -12 -27.999s-18.667 -11 -32 -11c-18 0 -32.833 8.16699 -44.5 24.5z" />
    <glyph glyph-name="quoteright" unicode="&#x2019;" horiz-adv-x="184" 
d="M125.5 680.5c11.667 -16.333 17.5 -35.833 17.5 -58.5c0 -33.333 -10.167 -60.5 -30.5 -81.5s-47.5 -32.167 -81.5 -33.5v30c24 0.666992 42.5 8.83398 55.5 24.501s19.5 33.834 19.5 54.501c0 11.333 -3 20 -9 26c-4.66699 -8 -13 -12 -25 -12
c-10 0 -18.333 3.16699 -25 9.5s-10 15.166 -10 26.499s4 20.666 12 27.999s18.667 11 32 11c18 0 32.833 -8.16699 44.5 -24.5z" />
    <glyph glyph-name="quotesinglbase" unicode="&#x201a;" horiz-adv-x="184" 
d="M125.5 45.5c11.667 -16.333 17.5 -35.833 17.5 -58.5c0 -33.333 -10.167 -60.5 -30.5 -81.5s-47.5 -32.167 -81.5 -33.5v30c24 0.666992 42.5 8.83398 55.5 24.501s19.5 33.834 19.5 54.501c0 11.333 -3 20 -9 26c-4.66699 -8 -13 -12 -25 -12
c-10 0 -18.333 3.16699 -25 9.5s-10 15.166 -10 26.499s4 20.666 12 27.999s18.667 11 32 11c18 0 32.833 -8.16699 44.5 -24.5z" />
    <glyph glyph-name="quotedblleft" unicode="&#x201c;" horiz-adv-x="334" 
d="M58.5 532.5c-11.667 16.333 -17.499 35.833 -17.499 58.5c0 33.333 10.167 60.5 30.5 81.5s47.5 32.167 81.5 33.5v-30c-24 -0.666992 -42.5 -8.83398 -55.5 -24.501s-19.5 -33.834 -19.5 -54.501c0 -11.333 3 -20 9 -26c5.33301 8 13.666 12 24.999 12
c10 0 18.333 -3.16699 25 -9.5s10 -15.166 10 -26.499s-4 -20.666 -12 -27.999s-18.667 -11 -32 -11c-18 0 -32.833 8.16699 -44.5 24.5zM208.501 532.5c-11.667 16.333 -17.499 35.833 -17.499 58.5c0 33.333 10.167 60.5 30.5 81.5s47.5 32.167 81.5 33.5v-30
c-24 -0.666992 -42.5 -8.83398 -55.5 -24.501s-19.5 -33.834 -19.5 -54.501c0 -11.333 3 -20 9 -26c5.33301 8 13.666 12 24.999 12c10 0 18.333 -3.16699 25 -9.5s10 -15.166 10 -26.499s-4 -20.666 -12 -27.999s-18.667 -11 -32 -11c-18 0 -32.833 8.16699 -44.5 24.5z
" />
    <glyph glyph-name="quotedblright" unicode="&#x201d;" horiz-adv-x="334" 
d="M125.5 680.5c11.667 -16.333 17.5 -35.833 17.5 -58.5c0 -33.333 -10.167 -60.5 -30.5 -81.5s-47.5 -32.167 -81.5 -33.5v30c24 0.666992 42.5 8.83398 55.5 24.501s19.5 33.834 19.5 54.501c0 11.333 -3 20 -9 26c-4.66699 -8 -13 -12 -25 -12
c-10 0 -18.333 3.16699 -25 9.5s-10 15.166 -10 26.499s4 20.666 12 27.999s18.667 11 32 11c18 0 32.833 -8.16699 44.5 -24.5zM275.5 680.5c11.667 -16.333 17.5 -35.833 17.5 -58.5c0 -33.333 -10.167 -60.5 -30.5 -81.5s-47.5 -32.167 -81.5 -33.5v30
c24 0.666992 42.5 8.83398 55.5 24.501s19.5 33.834 19.5 54.501c0 11.333 -3 20 -9 26c-4.66699 -8 -13 -12 -25 -12c-10 0 -18.333 3.16699 -25 9.5s-10 15.166 -10 26.499s4 20.666 12 27.999s18.667 11 32 11c18 0 32.833 -8.16699 44.5 -24.5z" />
    <glyph glyph-name="quotedblbase" unicode="&#x201e;" horiz-adv-x="334" 
d="M125.5 45.5c11.667 -16.333 17.5 -35.833 17.5 -58.5c0 -33.333 -10.167 -60.5 -30.5 -81.5s-47.5 -32.167 -81.5 -33.5v30c24 0.666992 42.5 8.83398 55.5 24.501s19.5 33.834 19.5 54.501c0 11.333 -3 20 -9 26c-4.66699 -8 -13 -12 -25 -12
c-10 0 -18.333 3.16699 -25 9.5s-10 15.166 -10 26.499s4 20.666 12 27.999s18.667 11 32 11c18 0 32.833 -8.16699 44.5 -24.5zM275.5 45.5c11.667 -16.333 17.5 -35.833 17.5 -58.5c0 -33.333 -10.167 -60.5 -30.5 -81.5s-47.5 -32.167 -81.5 -33.5v30
c24 0.666992 42.5 8.83398 55.5 24.501s19.5 33.834 19.5 54.501c0 11.333 -3 20 -9 26c-4.66699 -8 -13 -12 -25 -12c-10 0 -18.333 3.16699 -25 9.5s-10 15.166 -10 26.499s4 20.666 12 27.999s18.667 11 32 11c18 0 32.833 -8.16699 44.5 -24.5z" />
    <glyph glyph-name="dagger" unicode="&#x2020;" horiz-adv-x="516" 
d="M477 480v-44h-196v-436h-46v436h-196v44h196v220h46v-220h196z" />
    <glyph glyph-name="daggerdbl" unicode="&#x2021;" horiz-adv-x="532" 
d="M488 470h-199v-240h199v-45h-199v-185h-46v185h-199v45h199v240h-199v45h199v185h46v-185h199v-45z" />
    <glyph glyph-name="bullet" unicode="&#x2022;" horiz-adv-x="342" 
d="M101 409.5c18 17 41 25.5 69 25.5c28.667 0 52.167 -8.5 70.5 -25.5s27.5 -39.5 27.5 -67.5s-9.16699 -50.5 -27.5 -67.5s-41.833 -25.5 -70.5 -25.5c-28 0 -51 8.5 -69 25.5s-27 39.5 -27 67.5s9 50.5 27 67.5z" />
    <glyph glyph-name="ellipsis" unicode="&#x2026;" horiz-adv-x="521" 
d="M64.5 60c7 6.66699 16.167 10 27.5 10s20.5 -3.33301 27.5 -10s10.5 -15.667 10.5 -27s-3.5 -20.5 -10.5 -27.5s-16.167 -10.5 -27.5 -10.5s-20.5 3.5 -27.5 10.5s-10.5 16.167 -10.5 27.5s3.5 20.333 10.5 27zM233.5 60c7 6.66699 16.167 10 27.5 10
s20.5 -3.33301 27.5 -10s10.5 -15.667 10.5 -27s-3.5 -20.5 -10.5 -27.5s-16.167 -10.5 -27.5 -10.5s-20.5 3.5 -27.5 10.5s-10.5 16.167 -10.5 27.5s3.5 20.333 10.5 27zM401.5 60c7 6.66699 16.167 10 27.5 10s20.5 -3.33301 27.5 -10s10.5 -15.667 10.5 -27
s-3.5 -20.5 -10.5 -27.5s-16.167 -10.5 -27.5 -10.5s-20.5 3.5 -27.5 10.5s-10.5 16.167 -10.5 27.5s3.5 20.333 10.5 27z" />
    <glyph glyph-name="perthousand" unicode="&#x2030;" horiz-adv-x="1268" 
d="M84 623.5c14.667 25.667 34.834 45.834 60.501 60.501s54.167 22 85.5 22c32 0 60.833 -7.33301 86.5 -22s45.834 -34.834 60.501 -60.501s22 -54.167 22 -85.5s-7.33301 -59.833 -22 -85.5s-34.834 -45.667 -60.501 -60s-54.5 -21.5 -86.5 -21.5
c-31.333 0 -59.833 7.16699 -85.5 21.5s-45.834 34.333 -60.501 60s-22 54.167 -22 85.5s7.33301 59.833 22 85.5zM180 0l471 700h51l-472 -700h-50zM318 628c-23.333 24 -52.666 36 -87.999 36c-34.667 0 -63.667 -12 -87 -36s-35 -54 -35 -90s11.5 -65.833 34.5 -89.5
s52.167 -35.5 87.5 -35.5s64.666 11.833 87.999 35.5s35 53.5 35 89.5s-11.667 66 -35 90zM503 246.5c14.667 25.667 34.834 45.834 60.501 60.501s54.5 22 86.5 22c31.333 0 59.833 -7.33301 85.5 -22s45.834 -34.834 60.501 -60.501s22 -54.167 22 -85.5
s-7.33301 -59.833 -22 -85.5s-34.834 -45.667 -60.501 -60s-54.167 -21.5 -85.5 -21.5c-32 0 -60.833 7.16699 -86.5 21.5s-45.834 34.333 -60.501 60s-22 54.167 -22 85.5s7.33301 59.833 22 85.5zM891 246.5c14.667 25.667 34.834 45.834 60.501 60.501s54.5 22 86.5 22
c31.333 0 60 -7.33301 86 -22s46.333 -34.834 61 -60.501s22 -54.167 22 -85.5s-7.33301 -59.833 -22 -85.5s-35 -45.667 -61 -60s-54.667 -21.5 -86 -21.5c-32 0 -60.833 7.16699 -86.5 21.5s-45.834 34.333 -60.501 60s-22 54.167 -22 85.5s7.33301 59.833 22 85.5z
M737 251c-23.333 24 -52.333 36 -87 36c-35.333 0 -64.666 -12 -87.999 -36s-35 -54 -35 -90s11.667 -65.833 35 -89.5s52.666 -35.5 87.999 -35.5s64.5 11.833 87.5 35.5s34.5 53.5 34.5 89.5s-11.667 66 -35 90zM1125 251c-23.333 24 -52.333 36 -87 36
c-35.333 0 -64.666 -12 -87.999 -36s-35 -54 -35 -90s11.667 -65.833 35 -89.5s52.666 -35.5 87.999 -35.5s64.5 11.833 87.5 35.5s34.5 53.5 34.5 89.5s-11.667 66 -35 90z" />
    <glyph glyph-name="guilsinglleft" unicode="&#x2039;" horiz-adv-x="333" 
d="M273 507l-161 -253l161 -254h-52l-163 254l163 253h52z" />
    <glyph glyph-name="guilsinglright" unicode="&#x203a;" horiz-adv-x="333" 
d="M60 507h52l163 -253l-163 -254h-52l161 254z" />
    <glyph glyph-name="uni2042" unicode="&#x2042;" horiz-adv-x="954" 
d="M628 622l-128 -49l88 -104l-28 -25l-89 109l-87 -109l-28 25l88 105l-127 49l14 35l124 -54l-1 137h36l-1 -137l124 54zM384 134l-128 -49l88 -104l-28 -25l-89 109l-87 -109l-28 25l88 105l-127 49l14 35l124 -54l-1 137h36l-1 -137l124 54zM882 134l-128 -49l88 -104
l-28 -25l-89 109l-87 -109l-28 25l88 105l-127 49l14 35l124 -54l-1 137h36l-1 -137l124 54z" />
    <glyph glyph-name="fraction" unicode="&#x2044;" horiz-adv-x="181" 
d="M-153 0l444 700h43l-444 -700h-43z" />
    <glyph glyph-name="uni2051" unicode="&#x2051;" horiz-adv-x="456" 
d="M384 622l-128 -49l88 -104l-28 -25l-89 109l-87 -109l-28 25l88 105l-127 49l14 35l124 -54l-1 137h36l-1 -137l124 54zM384 131l-128 -49l88 -104l-28 -25l-89 109l-87 -109l-28 25l88 105l-127 49l14 35l124 -54l-1 137h36l-1 -137l124 54z" />
    <glyph glyph-name="uni2070" unicode="&#x2070;" horiz-adv-x="337" 
d="M66.5 754.5c25.667 35 59.834 52.5 102.501 52.5s76.667 -17.5 102 -52.5s38 -80.167 38 -135.5s-12.667 -100.5 -38 -135.5s-59.333 -52.5 -102 -52.5s-76.834 17.5 -102.501 52.5s-38.5 80.167 -38.5 135.5s12.833 100.5 38.5 135.5zM244 729
c-18.667 28.667 -43.667 43 -75 43s-56.5 -14.333 -75.5 -43s-28.5 -65.334 -28.5 -110.001s9.5 -81.334 28.5 -110.001s44.167 -43 75.5 -43s56.333 14.333 75 43s28 65.334 28 110.001s-9.33301 81.334 -28 110.001z" />
    <glyph glyph-name="uni2074" unicode="&#x2074;" horiz-adv-x="332" 
d="M205 800h44v-234h62v-34h-62v-96h-36v96h-192v34zM213 760l-152 -194h152v194z" />
    <glyph glyph-name="uni2075" unicode="&#x2075;" horiz-adv-x="312" 
d="M262 766l-188.001 0.000976562l-8 -135c10.667 14.667 24.5 26 41.5 34s35.5 12 55.5 12c36 0 65.167 -11.333 87.5 -34s33.5 -52 33.5 -88c0 -36.667 -12 -66.667 -36 -90s-54.667 -35 -92 -35c-34.667 0 -63.667 9.66699 -87 29s-36.666 44.666 -39.999 75.999h36
c3.33301 -21.333 13.333 -38.5 30 -51.5s37 -19.5 61 -19.5c26 0 47.5 8.5 64.5 25.5s25.5 38.833 25.5 65.5s-8.33301 48.167 -25 64.5s-38.667 24.5 -66 24.5c-18.667 0 -35.5 -4.5 -50.5 -13.5s-26.833 -21.167 -35.5 -36.5h-34l10 206h217v-34z" />
    <glyph glyph-name="uni2076" unicode="&#x2076;" horiz-adv-x="321" 
d="M67.5 754c25.667 35.333 60.5 53.002 104.5 53.002c30.667 0 57.167 -9.16699 79.5 -27.5s35.833 -43.833 40.5 -76.5h-35c-4.66699 23.333 -14.667 41.333 -30 54s-33.666 19 -54.999 19c-32.667 0 -58.834 -14 -78.501 -42s-29.5 -65.333 -29.5 -112
c0 -10 0.666992 -25 2 -45c1.33301 25.333 11.333 47.166 30 65.499s44 27.5 76 27.5c36.667 0 66.167 -11 88.5 -33s33.5 -50.667 33.5 -86c0 -36 -11.5 -65 -34.5 -87s-53.5 -33 -91.5 -33c-46.667 0 -81.5 16.333 -104.5 49s-34.5 76.667 -34.5 132
c0 59.333 12.833 106.666 38.5 141.999zM232.5 615.502c-16.333 16.333 -37.833 24.501 -64.5 24.501c-27.333 0 -49.333 -8 -66 -24s-25 -37.333 -25 -64s8.5 -48.334 25.5 -65.001s38.833 -25 65.5 -25s48.167 8.16699 64.5 24.5s24.5 37.833 24.5 64.5
s-8.16699 48.167 -24.5 64.5z" />
    <glyph glyph-name="uni2077" unicode="&#x2077;" horiz-adv-x="300" 
d="M24 800h255v-31l-176 -334h-40l176 332l-215 -1v34z" />
    <glyph glyph-name="uni2078" unicode="&#x2078;" horiz-adv-x="321" 
d="M50.5 593.5c15.667 17 35.833 27.833 60.5 32.5c-22 4.66699 -39.667 14.5 -53 29.5s-20 33.833 -20 56.5c0 27.333 11.5 50 34.5 68s52.5 27 88.5 27c35.333 0 64.5 -9 87.5 -27s34.5 -40.667 34.5 -68c0 -22 -6.5 -40.5 -19.5 -55.5s-30.5 -25.167 -52.5 -30.5
c24.667 -4.66699 44.667 -15.5 60 -32.5s23 -37.5 23 -61.5c0 -29.333 -12.333 -53.5 -37 -72.5s-56.667 -28.5 -96 -28.5s-71.5 9.5 -96.5 28.5s-37.5 43.167 -37.5 72.5c0 24 7.83301 44.5 23.5 61.5zM221.999 757c-16 12.667 -36.333 19 -61 19
c-25.333 0 -46 -6.33301 -62 -19s-24 -29 -24 -49c0 -20.667 8 -37.334 24 -50.001s36.667 -19 62 -19s45.833 6.33301 61.5 19s23.5 29.334 23.5 50.001c0 20 -8 36.333 -24 49zM228.999 588.5c-18 14.333 -40.667 21.5 -68 21.5s-50.166 -7.16699 -68.499 -21.5
s-27.5 -32.166 -27.5 -53.499c0 -20.667 9.16699 -38 27.5 -52s41.166 -21 68.499 -21s50 6.83301 68 20.5s27 31.167 27 52.5s-9 39.166 -27 53.499z" />
    <glyph glyph-name="uni2079" unicode="&#x2079;" horiz-adv-x="318" 
d="M253 484c-26 -35.333 -61 -53.002 -105 -53.002c-30 0 -56.167 9.16699 -78.5 27.5s-35.833 43.833 -40.5 76.5h35c4.66699 -23.333 14.667 -41.333 30 -54s33.666 -19 54.999 -19c32.667 0 58.834 14 78.501 42s29.5 65.333 29.5 112c0 10 -0.666992 25 -2 45
c-1.33301 -25.333 -11.333 -47.166 -30 -65.499s-44 -27.5 -76 -27.5c-36.667 0 -66.167 11 -88.5 33s-33.5 50.667 -33.5 86c0 36 11.5 65 34.5 87s53.5 33 91.5 33c46.667 0 81.5 -16.333 104.5 -49s34.5 -76.667 34.5 -132c0 -59.333 -13 -106.666 -39 -141.999z
M88.5 622.498c16.333 -16.333 37.833 -24.501 64.5 -24.501c27.333 0 49.333 8 66 24s25 37.333 25 64s-8.5 48.334 -25.5 65.001s-38.833 25 -65.5 25s-48.167 -8.16699 -64.5 -24.5s-24.5 -37.833 -24.5 -64.5s8.16699 -48.167 24.5 -64.5z" />
    <glyph glyph-name="uni2080" unicode="&#x2080;" horiz-adv-x="336" 
d="M65.5 217.5c25.667 35 59.834 52.5 102.501 52.5s76.667 -17.5 102 -52.5s38 -80.167 38 -135.5s-12.667 -100.5 -38 -135.5s-59.333 -52.5 -102 -52.5s-76.834 17.5 -102.501 52.5s-38.5 80.167 -38.5 135.5s12.833 100.5 38.5 135.5zM243 192
c-18.667 28.667 -43.667 43 -75 43s-56.5 -14.333 -75.5 -43s-28.5 -65.334 -28.5 -110.001s9.5 -81.334 28.5 -110.001s44.167 -43 75.5 -43s56.333 14.333 75 43s28 65.334 28 110.001s-9.33301 81.334 -28 110.001z" />
    <glyph glyph-name="uni2081" unicode="&#x2081;" horiz-adv-x="168" 
d="M87 -100v257c-2.66699 -6 -8.66699 -9 -18 -9h-69v35h69c5.33301 0 9.83301 2.33301 13.5 7s5.5 10 5.5 16v58h35v-364h-36z" />
    <glyph glyph-name="uni2082" unicode="&#x2082;" horiz-adv-x="310" 
d="M31 152c0 36 11.6689 64.668 35.002 86.001s52.666 32 87.999 32c37.333 0 67.333 -10 90 -30s34 -46 34 -78c0 -24.667 -6.33301 -46 -19 -64s-31 -37.333 -55 -58l-123 -105h201v-35h-255v34l150 125c21.333 18 37.166 34.667 47.499 50s15.5 32.666 15.5 51.999
c0 22 -7.83301 39.833 -23.5 53.5s-36.167 20.5 -61.5 20.5c-26.667 0 -48 -7.5 -64 -22.5s-24 -35.833 -24 -62.5v-6h-36v8z" />
    <glyph glyph-name="uni2083" unicode="&#x2083;" horiz-adv-x="319" 
d="M70 241c22.667 19.333 52.3281 29 88.9951 29s66.334 -9.16699 89.001 -27.5s34 -42.166 34 -71.499c0 -21.333 -6.66699 -39 -20 -53s-30.666 -23 -51.999 -27c24.667 -4.66699 44.334 -14.5 59.001 -29.5s22 -34.5 22 -58.5c0 -32.667 -12.167 -59 -36.5 -79
s-56.5 -30 -96.5 -30c-42 0 -74.667 10 -98 30s-35 48.333 -35 85h36c0.666992 -26 9.83398 -46 27.501 -60s41.167 -21 70.5 -21c27.333 0 49.833 6.83301 67.5 20.5s26.5 31.5 26.5 53.5s-9 39.5 -27 52.5s-42 19.5 -72 19.5h-23v27h23
c26.667 0 48.334 6.16699 65.001 18.5s25 28.5 25 48.5s-7.83301 36.333 -23.5 49s-35.834 19 -60.501 19c-26.667 0 -48 -6.66699 -64 -20s-24 -31.333 -24 -54h-37c0.666992 33.333 12.334 59.666 35.001 78.999z" />
    <glyph glyph-name="uni2084" unicode="&#x2084;" horiz-adv-x="332" 
d="M205 264h44v-234h62v-34h-62v-96h-36v96h-192v34zM213 224l-152 -194h152v194z" />
    <glyph glyph-name="uni2085" unicode="&#x2085;" horiz-adv-x="312" 
d="M262 230l-188.001 0.000976562l-8 -135c10.667 14.667 24.5 26 41.5 34s35.5 12 55.5 12c36 0 65.167 -11.333 87.5 -34s33.5 -52 33.5 -88c0 -36.667 -12 -66.667 -36 -90s-54.667 -35 -92 -35c-34.667 0 -63.667 9.66699 -87 29s-36.666 44.666 -39.999 75.999h36
c3.33301 -21.333 13.333 -38.5 30 -51.5s37 -19.5 61 -19.5c26 0 47.5 8.5 64.5 25.5s25.5 38.833 25.5 65.5s-8.33301 48.167 -25 64.5s-38.667 24.5 -66 24.5c-18.667 0 -35.5 -4.5 -50.5 -13.5s-26.833 -21.167 -35.5 -36.5h-34l10 206h217v-34z" />
    <glyph glyph-name="uni2086" unicode="&#x2086;" horiz-adv-x="321" 
d="M67.5 217c25.667 35.333 60.5 53.002 104.5 53.002c30.667 0 57.167 -9.16699 79.5 -27.5s35.833 -43.833 40.5 -76.5h-35c-4.66699 23.333 -14.667 41.333 -30 54s-33.666 19 -54.999 19c-32.667 0 -58.834 -14 -78.501 -42s-29.5 -65.333 -29.5 -112
c0 -10 0.666992 -25 2 -45c1.33301 25.333 11.333 47.166 30 65.499s44 27.5 76 27.5c36.667 0 66.167 -11 88.5 -33s33.5 -50.667 33.5 -86c0 -36 -11.5 -65 -34.5 -87s-53.5 -33 -91.5 -33c-46.667 0 -81.5 16.333 -104.5 49s-34.5 76.667 -34.5 132
c0 59.333 12.833 106.666 38.5 141.999zM232.5 78.502c-16.333 16.333 -37.833 24.501 -64.5 24.501c-27.333 0 -49.333 -8 -66 -24s-25 -37.333 -25 -64s8.5 -48.334 25.5 -65.001s38.833 -25 65.5 -25s48.167 8.16699 64.5 24.5s24.5 37.833 24.5 64.5
s-8.16699 48.167 -24.5 64.5z" />
    <glyph glyph-name="uni2087" unicode="&#x2087;" horiz-adv-x="300" 
d="M24 265h255v-31l-176 -334h-40l176 332l-215 -1v34z" />
    <glyph glyph-name="uni2088" unicode="&#x2088;" horiz-adv-x="321" 
d="M50.5 56.5c15.667 17 35.833 27.833 60.5 32.5c-22 4.66699 -39.667 14.5 -53 29.5s-20 33.833 -20 56.5c0 27.333 11.5 50 34.5 68s52.5 27 88.5 27c35.333 0 64.5 -9 87.5 -27s34.5 -40.667 34.5 -68c0 -22 -6.5 -40.5 -19.5 -55.5s-30.5 -25.167 -52.5 -30.5
c24.667 -4.66699 44.667 -15.5 60 -32.5s23 -37.5 23 -61.5c0 -29.333 -12.333 -53.5 -37 -72.5s-56.667 -28.5 -96 -28.5s-71.5 9.5 -96.5 28.5s-37.5 43.167 -37.5 72.5c0 24 7.83301 44.5 23.5 61.5zM221.999 220c-16 12.667 -36.333 19 -61 19
c-25.333 0 -46 -6.33301 -62 -19s-24 -29 -24 -49c0 -20.667 8 -37.334 24 -50.001s36.667 -19 62 -19s45.833 6.33301 61.5 19s23.5 29.334 23.5 50.001c0 20 -8 36.333 -24 49zM228.999 51.5c-18 14.333 -40.667 21.5 -68 21.5s-50.166 -7.16699 -68.499 -21.5
s-27.5 -32.166 -27.5 -53.499c0 -20.667 9.16699 -38 27.5 -52s41.166 -21 68.499 -21s50 6.83301 68 20.5s27 31.167 27 52.5s-9 39.166 -27 53.499z" />
    <glyph glyph-name="uni2089" unicode="&#x2089;" horiz-adv-x="318" 
d="M253 -53c-26 -35.333 -61 -53.002 -105 -53.002c-30 0 -56.167 9.16699 -78.5 27.5s-35.833 43.833 -40.5 76.5h35c4.66699 -23.333 14.667 -41.333 30 -54s33.666 -19 54.999 -19c32.667 0 58.834 14 78.501 42s29.5 65.333 29.5 112c0 10 -0.666992 25 -2 45
c-1.33301 -25.333 -11.333 -47.166 -30 -65.499s-44 -27.5 -76 -27.5c-36.667 0 -66.167 11 -88.5 33s-33.5 50.667 -33.5 86c0 36 11.5 65 34.5 87s53.5 33 91.5 33c46.667 0 81.5 -16.333 104.5 -49s34.5 -76.667 34.5 -132c0 -59.333 -13 -106.666 -39 -141.999z
M88.5 85.498c16.333 -16.333 37.833 -24.501 64.5 -24.501c27.333 0 49.333 8 66 24s25 37.333 25 64s-8.5 48.334 -25.5 65.001s-38.833 25 -65.5 25s-48.167 -8.16699 -64.5 -24.5s-24.5 -37.833 -24.5 -64.5s8.16699 -48.167 24.5 -64.5z" />
    <glyph glyph-name="franc" unicode="&#x20a3;" horiz-adv-x="526" 
d="M503 650h-362v-277h302v-50h-302v-143h162v-44h-162v-136h-54v136h-90v44h90v520h416v-50z" />
    <glyph glyph-name="uni20A8" unicode="&#x20a8;" horiz-adv-x="628" 
d="M589 700l-5.99902 -40.999h-176c26.667 -13.333 47.667 -32.333 63 -57s24 -53.334 26 -86.001h79l-7 -41h-72c-4 -46 -20.5 -84.333 -49.5 -115s-66.833 -50 -113.5 -58l166 -302h-61l-159 292h-207v50h201c47.333 0 86 12 116 36s47.333 56.333 52 97h-369v41h369
c-4.66699 41.333 -21.834 74 -51.501 98s-68.167 36 -115.5 36h-202v50h517z" />
    <glyph glyph-name="Euro" unicode="&#x20ac;" horiz-adv-x="649" 
d="M24 253l-0.000976562 41.001h67c-1.33301 21.333 -2 40 -2 56s0.666992 30 2 42h-67v41h69c8.66699 85.333 36.5 152.166 83.5 200.499s106.833 72.5 179.5 72.5c68.667 0 125 -19.5 169 -58.5s69.667 -90.5 77 -154.5h-53c-7.33301 49.333 -28 89 -62 119
s-77 45 -129 45c-58 0 -105.833 -19.833 -143.5 -59.5s-59.834 -94.5 -66.501 -164.5h213l-6 -41h-210c-1.33301 -10.667 -2 -24.667 -2 -42c0 -20 1 -38.667 3 -56h188l-7 -41h-178c10 -66 33.667 -117.5 71 -154.5s84 -55.5 140 -55.5c50.667 0 92.334 14.667 125.001 44
s53.667 69 63 119h53c-10 -64.667 -36.167 -116.167 -78.5 -154.5s-97.166 -57.5 -164.499 -57.5c-70.667 0 -129.667 22.833 -177 68.5s-76.333 109.167 -87 190.5h-70z" />
    <glyph glyph-name="uni20BF" unicode="&#x20bf;" horiz-adv-x="620" 
d="M172 700v105h45v-105h89v105h45v-108c58 -4.66699 103 -22.167 135 -52.5s48 -71.166 48 -122.499c0 -42.667 -11.5 -78 -34.5 -106s-55.833 -46.667 -98.5 -56c52 -8.66699 92.5 -26.834 121.5 -54.501s43.5 -66.167 43.5 -115.5c0 -55.333 -18.5 -99.5 -55.5 -132.5
s-90.167 -51.5 -159.5 -55.5v-98h-45v96h-89v-96h-46v96h-99v700h100zM126 382h191c52 0 92.167 12 120.5 36s42.5 57 42.5 99s-14.167 74.833 -42.5 98.5s-68.5 35.5 -120.5 35.5h-191v-269zM126 49l192.998 0.000976562c62.667 0 110.334 12.667 143.001 38
s49 60.333 49 105c0 45.333 -16.667 80.166 -50 104.499s-80.666 36.5 -141.999 36.5h-193v-284z" />
    <glyph glyph-name="trademark" unicode="&#x2122;" horiz-adv-x="692" 
d="M34 700h238v-35h-100v-234h-38v234h-100v35zM311 700h52l107 -222l108 222h53v-269h-36v226l-110 -226h-31l-108 226v-226h-35v269z" />
    <glyph glyph-name="uni2126" unicode="&#x2126;" horiz-adv-x="746" 
d="M448 113c64.667 35.333 112.17 75.167 142.503 119.5s45.5 97.166 45.5 158.499c0 51.333 -11.333 97.333 -34 138s-54 72.334 -94 95.001s-85 34 -135 34s-94.833 -11.333 -134.5 -34s-70.834 -54.334 -93.501 -95.001s-34 -86.667 -34 -138
c0 -61.333 15 -114.166 45 -158.499s77.333 -84.166 142 -119.499v-113h-238v50h191v45c-66.667 32 -115.834 72.667 -147.501 122s-47.5 108 -47.5 176c0 61.333 13.5 115.666 40.5 162.999s64.667 84.166 113 110.499s102.833 39.5 163.5 39.5
s115.167 -13.167 163.5 -39.5s86.166 -63.166 113.499 -110.499s41 -101.333 41 -162c0 -68.667 -16 -127.667 -48 -177s-81.333 -90 -148 -122v-45h192v-50h-239v113z" />
    <glyph glyph-name="uni2153" unicode="&#x2153;" horiz-adv-x="660" 
d="M87 337v257c-2.66699 -6 -8.66699 -9 -18 -9h-69v35h69c5.33301 0 9.83301 2.33301 13.5 7s5.5 10 5.5 16v58h35v-364h-36zM15 0l444 700h43l-444 -700h-43zM416 341c22.667 19.333 52.3281 29 88.9951 29s66.334 -9.16699 89.001 -27.5s34 -42.166 34 -71.499
c0 -21.333 -6.66699 -39 -20 -53s-30.666 -23 -51.999 -27c24.667 -4.66699 44.334 -14.5 59.001 -29.5s22 -34.5 22 -58.5c0 -32.667 -12.167 -59 -36.5 -79s-56.5 -30 -96.5 -30c-42 0 -74.667 10 -98 30s-35 48.333 -35 85h36c0.666992 -26 9.83398 -46 27.501 -60
s41.167 -21 70.5 -21c27.333 0 49.833 6.83301 67.5 20.5s26.5 31.5 26.5 53.5s-9 39.5 -27 52.5s-42 19.5 -72 19.5h-23v27h23c26.667 0 48.334 6.16699 65.001 18.5s25 28.5 25 48.5s-7.83301 36.333 -23.5 49s-35.834 19 -60.501 19c-26.667 0 -48 -6.66699 -64 -20
s-24 -31.333 -24 -54h-37c0.666992 33.333 12.334 59.666 35.001 78.999z" />
    <glyph glyph-name="uni2155" unicode="&#x2155;" horiz-adv-x="639" 
d="M87 337v257c-2.66699 -6 -8.66699 -9 -18 -9h-69v35h69c5.33301 0 9.83301 2.33301 13.5 7s5.5 10 5.5 16v58h35v-364h-36zM15 0l444 700h43l-444 -700h-43zM595 330l-188.001 0.000976562l-8 -135c10.667 14.667 24.5 26 41.5 34s35.5 12 55.5 12
c36 0 65.167 -11.333 87.5 -34s33.5 -52 33.5 -88c0 -36.667 -12 -66.667 -36 -90s-54.667 -35 -92 -35c-34.667 0 -63.667 9.66699 -87 29s-36.666 44.666 -39.999 75.999h36c3.33301 -21.333 13.333 -38.5 30 -51.5s37 -19.5 61 -19.5c26 0 47.5 8.5 64.5 25.5
s25.5 38.833 25.5 65.5s-8.33301 48.167 -25 64.5s-38.667 24.5 -66 24.5c-18.667 0 -35.5 -4.5 -50.5 -13.5s-26.833 -21.167 -35.5 -36.5h-34l10 206h217v-34z" />
    <glyph glyph-name="uni2156" unicode="&#x2156;" horiz-adv-x="781" 
d="M31 588c0 36 11.6689 64.668 35.002 86.001s52.666 32 87.999 32c37.333 0 67.333 -10 90 -30s34 -46 34 -78c0 -24.667 -6.33301 -46 -19 -64s-31 -37.333 -55 -58l-123 -105h201v-35h-255v34l150 125c21.333 18 37.166 34.667 47.499 50s15.5 32.666 15.5 51.999
c0 22 -7.83301 39.833 -23.5 53.5s-36.167 20.5 -61.5 20.5c-26.667 0 -48 -7.5 -64 -22.5s-24 -35.833 -24 -62.5v-6h-36v8zM157.002 0.000976562l444 700h43l-444 -700h-43zM737.002 330.001l-188.001 0.000976562l-8 -135c10.667 14.667 24.5 26 41.5 34s35.5 12 55.5 12
c36 0 65.167 -11.333 87.5 -34s33.5 -52 33.5 -88c0 -36.667 -12 -66.667 -36 -90s-54.667 -35 -92 -35c-34.667 0 -63.667 9.66699 -87 29s-36.666 44.666 -39.999 75.999h36c3.33301 -21.333 13.333 -38.5 30 -51.5s37 -19.5 61 -19.5c26 0 47.5 8.5 64.5 25.5
s25.5 38.833 25.5 65.5s-8.33301 48.167 -25 64.5s-38.667 24.5 -66 24.5c-18.667 0 -35.5 -4.5 -50.5 -13.5s-26.833 -21.167 -35.5 -36.5h-34l10 206h217v-34z" />
    <glyph glyph-name="uni2157" unicode="&#x2157;" horiz-adv-x="790" 
d="M70 679c22.667 19.333 52.3281 29 88.9951 29s66.334 -9.16699 89.001 -27.5s34 -42.166 34 -71.499c0 -21.333 -6.66699 -39 -20 -53s-30.666 -23 -51.999 -27c24.667 -4.66699 44.334 -14.5 59.001 -29.5s22 -34.5 22 -58.5c0 -32.667 -12.167 -59 -36.5 -79
s-56.5 -30 -96.5 -30c-42 0 -74.667 10 -98 30s-35 48.333 -35 85h36c0.666992 -26 9.83398 -46 27.501 -60s41.167 -21 70.5 -21c27.333 0 49.833 6.83301 67.5 20.5s26.5 31.5 26.5 53.5s-9 39.5 -27 52.5s-42 19.5 -72 19.5h-23v27h23
c26.667 0 48.334 6.16699 65.001 18.5s25 28.5 25 48.5s-7.83301 36.333 -23.5 49s-35.834 19 -60.501 19c-26.667 0 -48 -6.66699 -64 -20s-24 -31.333 -24 -54h-37c0.666992 33.333 12.334 59.666 35.001 78.999zM165.994 0l444 700h43l-444 -700h-43zM745.994 330
l-188.001 0.000976562l-8 -135c10.667 14.667 24.5 26 41.5 34s35.5 12 55.5 12c36 0 65.167 -11.333 87.5 -34s33.5 -52 33.5 -88c0 -36.667 -12 -66.667 -36 -90s-54.667 -35 -92 -35c-34.667 0 -63.667 9.66699 -87 29s-36.666 44.666 -39.999 75.999h36
c3.33301 -21.333 13.333 -38.5 30 -51.5s37 -19.5 61 -19.5c26 0 47.5 8.5 64.5 25.5s25.5 38.833 25.5 65.5s-8.33301 48.167 -25 64.5s-38.667 24.5 -66 24.5c-18.667 0 -35.5 -4.5 -50.5 -13.5s-26.833 -21.167 -35.5 -36.5h-34l10 206h217v-34z" />
    <glyph glyph-name="uni2158" unicode="&#x2158;" horiz-adv-x="803" 
d="M205 700h44v-234h62v-34h-62v-96h-36v96h-192v34zM213 660l-152 -194h152v194zM179 0l444 700h43l-444 -700h-43zM759 330l-188.001 0.000976562l-8 -135c10.667 14.667 24.5 26 41.5 34s35.5 12 55.5 12c36 0 65.167 -11.333 87.5 -34s33.5 -52 33.5 -88
c0 -36.667 -12 -66.667 -36 -90s-54.667 -35 -92 -35c-34.667 0 -63.667 9.66699 -87 29s-36.666 44.666 -39.999 75.999h36c3.33301 -21.333 13.333 -38.5 30 -51.5s37 -19.5 61 -19.5c26 0 47.5 8.5 64.5 25.5s25.5 38.833 25.5 65.5s-8.33301 48.167 -25 64.5
s-38.667 24.5 -66 24.5c-18.667 0 -35.5 -4.5 -50.5 -13.5s-26.833 -21.167 -35.5 -36.5h-34l10 206h217v-34z" />
    <glyph glyph-name="uni2159" unicode="&#x2159;" horiz-adv-x="631" 
d="M87 337v257c-2.66699 -6 -8.66699 -9 -18 -9h-69v35h69c5.33301 0 9.83301 2.33301 13.5 7s5.5 10 5.5 16v58h35v-364h-36zM15 0l444 700h43l-444 -700h-43zM381.5 317c25.667 35.333 60.5 53.002 104.5 53.002c30.667 0 57.167 -9.16699 79.5 -27.5
s35.833 -43.833 40.5 -76.5h-35c-4.66699 23.333 -14.667 41.333 -30 54s-33.666 19 -54.999 19c-32.667 0 -58.834 -14 -78.501 -42s-29.5 -65.333 -29.5 -112c0 -10 0.666992 -25 2 -45c1.33301 25.333 11.333 47.166 30 65.499s44 27.5 76 27.5
c36.667 0 66.167 -11 88.5 -33s33.5 -50.667 33.5 -86c0 -36 -11.5 -65 -34.5 -87s-53.5 -33 -91.5 -33c-46.667 0 -81.5 16.333 -104.5 49s-34.5 76.667 -34.5 132c0 59.333 12.833 106.666 38.5 141.999zM546.5 178.502c-16.333 16.333 -37.833 24.501 -64.5 24.501
c-27.333 0 -49.333 -8 -66 -24s-25 -37.333 -25 -64s8.5 -48.334 25.5 -65.001s38.833 -25 65.5 -25s48.167 8.16699 64.5 24.5s24.5 37.833 24.5 64.5s-8.16699 48.167 -24.5 64.5z" />
    <glyph glyph-name="oneeighth" unicode="&#x215b;" horiz-adv-x="644" 
d="M87 337v257c-2.66699 -6 -8.66699 -9 -18 -9h-69v35h69c5.33301 0 9.83301 2.33301 13.5 7s5.5 10 5.5 16v58h35v-364h-36zM15 0l444 700h43l-444 -700h-43zM377.5 156.5c15.667 17 35.833 27.833 60.5 32.5c-22 4.66699 -39.667 14.5 -53 29.5s-20 33.833 -20 56.5
c0 27.333 11.5 50 34.5 68s52.5 27 88.5 27c35.333 0 64.5 -9 87.5 -27s34.5 -40.667 34.5 -68c0 -22 -6.5 -40.5 -19.5 -55.5s-30.5 -25.167 -52.5 -30.5c24.667 -4.66699 44.667 -15.5 60 -32.5s23 -37.5 23 -61.5c0 -29.333 -12.333 -53.5 -37 -72.5
s-56.667 -28.5 -96 -28.5s-71.5 9.5 -96.5 28.5s-37.5 43.167 -37.5 72.5c0 24 7.83301 44.5 23.5 61.5zM548.999 320c-16 12.667 -36.333 19 -61 19c-25.333 0 -46 -6.33301 -62 -19s-24 -29 -24 -49c0 -20.667 8 -37.334 24 -50.001s36.667 -19 62 -19
s45.833 6.33301 61.5 19s23.5 29.334 23.5 50.001c0 20 -8 36.333 -24 49zM555.999 151.5c-18 14.333 -40.667 21.5 -68 21.5s-50.166 -7.16699 -68.499 -21.5s-27.5 -32.166 -27.5 -53.499c0 -20.667 9.16699 -38 27.5 -52s41.166 -21 68.499 -21s50 6.83301 68 20.5
s27 31.167 27 52.5s-9 39.166 -27 53.499z" />
    </font>
</defs>
</svg>
