<?xml version="1.0" standalone="no"?>
<!DOCTYPE svg PUBLIC "-//W3C//DTD SVG 1.1//EN" "http://www.w3.org/Graphics/SVG/1.1/DTD/svg11.dtd" >
<svg xmlns="http://www.w3.org/2000/svg" xmlns:xlink="http://www.w3.org/1999/xlink" version="1.1">
<metadata>
Created by FontForge 20190801 at Sun Oct 13 17:59:36 2019
 By Unknown
Copyright \(c\) 2019 by Valerio Monopoli. All rights reserved.
</metadata>
<defs>
<font id="Gatwick-Bold" horiz-adv-x="0" >
  <font-face 
    font-family="Gatwick"
    font-weight="700"
    font-stretch="normal"
    units-per-em="1000"
    panose-1="0 0 8 0 0 0 0 0 0 0"
    ascent="800"
    descent="-200"
    x-height="538"
    cap-height="745"
    bbox="-603 -355 2095 1057"
    underline-thickness="20"
    underline-position="-100"
    stemh="100"
    stemv="163"
    unicode-range="U+0020-25CA"
  />
<missing-glyph horiz-adv-x="500" 
d="M410 800v-1000h-317v1000h317zM333 733h-165v-33h65v-37h-66v-33h166v33h-66v37h66v33zM267 604h-100v-104h166v34h-66v70zM233 570v-36h-33v36h33zM333 473h-166v-33h66v-37h-66v-33h100v70h66v33zM333 413h-33v-66h-133v-34h166v100zM333 291h-100v-56h34v23h33v-47
h-100v80h-33v-113h166v113zM333 118h-166v-113h166v113zM300 85v-47h-100v47h100zM333 -18h-166v-33h70l-70 -47v-33h166v33h-102l70 47h32v33z" />
    <glyph glyph-name="T_V.liga" unicode="TV" horiz-adv-x="1729" 
d="M363 0c10 156 11 427 6 632c-147 -2 -255 -11 -359 -27c8 47 8 93 0 140c292 -7 764 -4 975 0c76 -203 200 -504 269 -637c66 134 190 434 274 637c65 -8 122 -8 187 0c-127 -259 -224 -485 -331 -745h-267c-85 215 -169 409 -267 615c-90 10 -185 16 -305 17
c-5 -206 -2 -476 8 -632h-190z" />
    <glyph glyph-name="T_W.liga" unicode="TW" horiz-adv-x="2109" 
d="M10 605c8 47 8 93 0 140c307 -7 547 -7 989 0c51 -203 112 -429 178 -658c62 225 114 445 154 658c83 -8 166 -8 249 0c42 -211 96 -446 155 -657c73 259 131 485 175 657c62 -8 124 -8 185 0c-70 -174 -155 -471 -236 -745h-259c-36 175 -88 427 -144 617
c-54 -189 -107 -440 -144 -617h-267c-59 200 -123 423 -187 610c-97 13 -179 20 -313 22c-5 -205 -2 -477 8 -632h-190c10 156 11 427 6 632c-147 -2 -255 -11 -359 -27z" />
    <glyph glyph-name="f_f.liga" unicode="ff" horiz-adv-x="1046" 
d="M1039 538c-4 -41 -4 -67 0 -108c-52 4 -155 6 -277 8c1 -115 3 -296 13 -438h-176c8 116 11 293 11 439c-103 0 -210 0 -306 -1c1 -114 3 -295 13 -438h-177c8 116 12 290 12 436c-67 -2 -120 -4 -151 -6c4 29 4 79 0 108c31 -2 83 -4 149 -6c0 16 -1 41 -2 86
c-2 156 96 192 209 192c77 0 165 -19 191 -27c-8 -37 -8 -67 0 -112c-44 20 -84 28 -126 28c-117 0 -118 -58 -118 -169c96 -1 203 -1 305 -1c0 15 -1 41 -2 89c-2 156 96 192 208 192c78 0 166 -19 192 -27c-8 -37 -8 -67 0 -112c-44 20 -84 28 -127 28
c-115 0 -118 -58 -118 -169c122 2 225 4 277 8z" />
    <glyph glyph-name="f_f_i.liga" unicode="ffi" horiz-adv-x="1243" 
d="M1 430c4 29 4 79 0 108c32 -3 84 -6 149 -7l-2 87c-2 156 96 192 209 192c77 0 165 -19 191 -27c-8 -37 -8 -67 0 -112c-44 20 -84 28 -126 28c-122 0 -118 -64 -118 -145v-27c92 -1 198 -1 305 -1l-3 92c-3 156 111 192 245 192c111 0 228 -17 287 -27
c-8 -37 -8 -67 0 -112c-89 20 -163 28 -239 28c-142 0 -137 -64 -137 -145v-27c156 2 308 6 424 11c-12 -185 -12 -354 0 -538h-172c10 152 12 296 6 438l-258 3c0 -131 4 -302 12 -441h-176c8 121 11 307 11 408v33c-101 0 -207 -1 -305 -2c1 -131 4 -300 13 -439h-177
c8 121 12 307 12 408v28c-62 -2 -115 -3 -151 -6z" />
    <glyph glyph-name="f_i.liga" unicode="fi" horiz-adv-x="786" 
d="M728 538c-13 -185 -13 -354 0 -538h-172c10 152 12 296 6 438c-81 3 -172 4 -259 4c1 -115 3 -298 13 -442h-176c8 116 11 293 11 439c-57 -2 -109 -5 -150 -9c4 29 4 79 0 108c37 -4 89 -7 149 -9c0 15 -1 40 -2 89c-3 156 110 192 244 192c114 0 234 -17 292 -27
c-8 -37 -8 -67 0 -112c-87 20 -166 28 -243 28c-137 0 -138 -60 -138 -173c158 -1 330 3 425 12z" />
    <glyph glyph-name="f_t.liga" unicode="ft" horiz-adv-x="1066" 
d="M1044 132c-8 -37 -10 -76 -3 -113c-53 -16 -124 -31 -192 -31c-117 1 -227 45 -227 197c0 37 0 143 -3 254c-105 0 -216 0 -315 -1c1 -114 3 -295 13 -438h-177c8 116 12 291 12 436c-67 -2 -121 -4 -151 -6c4 29 4 79 0 108c30 -2 83 -4 150 -6c-1 16 -2 41 -3 86
c-2 156 96 192 209 192c77 0 165 -19 191 -27c-8 -37 -8 -67 0 -112c-44 20 -84 28 -126 28c-117 0 -118 -58 -118 -169c98 -1 207 -1 312 -1c-2 61 -6 119 -11 162c66 7 122 16 171 40c-2 -64 -3 -133 -5 -200c116 1 213 3 265 7c-4 -41 -4 -67 0 -108c-52 4 -150 6 -267 7
c-2 -64 -3 -126 -4 -180c-3 -118 56 -151 127 -152c50 -1 107 15 152 27z" />
    <glyph glyph-name="k_w.liga" unicode="kw" horiz-adv-x="1690" 
d="M1509 539c52 -11 118 -12 177 0c-68 -159 -156 -385 -209 -539h-205c-37 142 -74 277 -115 413c-39 -136 -76 -269 -114 -413h-205c-42 123 -116 314 -172 450c-56 -65 -146 -121 -247 -156c82 -94 193 -229 290 -294h-229c-42 80 -115 152 -197 262
c-21 -3 -41 -5 -62 -6c2 -98 7 -189 12 -256h-176c23 195 23 571 0 753c60 3 135 12 189 33c-24 -119 -29 -309 -26 -484c117 13 249 121 286 237c96 -8 200 -8 304 0c37 -132 52 -217 127 -436c47 155 89 308 121 436c64 -10 143 -11 204 0c33 -132 73 -281 121 -436
c47 155 90 308 126 436z" />
    <glyph glyph-name="t_f.liga" unicode="tf" horiz-adv-x="1042" 
d="M909 699c-116 0 -118 -58 -118 -168c102 1 187 4 234 7c-4 -41 -4 -66 0 -108c-47 3 -132 6 -234 7c1 -114 3 -295 13 -437h-177c8 116 12 293 12 439c-116 0 -239 0 -349 -1c-1 -65 -3 -127 -4 -181c-2 -118 56 -151 128 -152c50 -1 106 15 151 27
c-8 -37 -10 -76 -2 -113c-53 -16 -124 -31 -193 -31c-117 1 -226 45 -226 197c0 37 0 141 -3 251c-63 -2 -114 -4 -145 -6c4 29 4 79 0 108c30 -2 80 -4 142 -6c-3 60 -6 117 -11 159c66 7 122 16 171 40c-2 -64 -3 -133 -5 -201c108 -1 230 -1 344 -1c0 15 -1 41 -2 89
c-2 156 96 192 209 192c77 0 165 -19 191 -27c-8 -37 -8 -67 0 -112c-44 20 -84 28 -126 28z" />
    <glyph glyph-name="t_t.liga" unicode="tt" horiz-adv-x="1055" 
d="M1032 132c-8 -37 -10 -76 -2 -113c-53 -16 -124 -31 -193 -31c-117 1 -226 45 -226 197c0 37 0 143 -3 254c-107 0 -218 0 -318 -1c-1 -65 -3 -127 -4 -181c-2 -118 56 -151 128 -152c50 -1 106 15 151 27c-8 -37 -10 -76 -2 -113c-53 -16 -124 -31 -193 -31
c-117 1 -226 45 -226 197c0 37 0 141 -3 251c-63 -2 -114 -4 -145 -6c4 29 4 79 0 108c30 -2 80 -4 142 -6c-3 60 -6 117 -11 159c66 7 122 16 171 40c-2 -64 -3 -133 -5 -201c98 -1 207 -1 312 -1c-3 61 -6 119 -11 162c66 7 122 16 171 40c-2 -64 -3 -133 -5 -201
c117 2 215 4 268 8c-4 -41 -4 -66 0 -108c-53 4 -153 6 -271 8c-1 -65 -3 -127 -4 -181c-2 -118 56 -151 128 -152c50 -1 106 15 151 27z" />
    <glyph glyph-name=".notdef" horiz-adv-x="500" 
d="M410 800v-1000h-317v1000h317zM333 733h-165v-33h65v-37h-66v-33h166v33h-66v37h66v33zM267 604h-100v-104h166v34h-66v70zM233 570v-36h-33v36h33zM333 473h-166v-33h66v-37h-66v-33h100v70h66v33zM333 413h-33v-66h-133v-34h166v100zM333 291h-100v-56h34v23h33v-47
h-100v80h-33v-113h166v113zM333 118h-166v-113h166v113zM300 85v-47h-100v47h100zM333 -18h-166v-33h70l-70 -47v-33h166v33h-102l70 47h32v33z" />
    <glyph glyph-name="space" unicode=" " horiz-adv-x="300" 
 />
    <glyph glyph-name="exclam" unicode="!" horiz-adv-x="310" 
d="M76 215c5 185 -4 349 -25 530c68 -8 141 -8 209 0c-21 -183 -30 -347 -25 -530c-59 12 -98 11 -159 0zM154 -13c-63 0 -94 22 -94 70c0 47 31 70 94 70c64 0 96 -23 96 -70c0 -48 -32 -70 -96 -70z" />
    <glyph glyph-name="quotedbl" unicode="&#x22;" horiz-adv-x="438" 
d="M112 526c-5 91 -14 183 -26 274c43 -6 87 -6 133 0c-14 -91 -25 -183 -32 -274c-24 2 -50 2 -75 0zM246 526c-5 91 -14 183 -26 274c43 -6 88 -6 132 0c-14 -91 -24 -183 -31 -274c-25 2 -50 2 -75 0z" />
    <glyph glyph-name="numbersign" unicode="#" horiz-adv-x="829" 
d="M798 477c-66 1 -130 2 -193 2l-54 -220c60 0 120 1 181 2c-3 -17 -3 -41 0 -57c-66 1 -130 2 -193 2c-17 -68 -33 -137 -49 -206h-60l51 207h-215c-17 -69 -33 -138 -49 -207h-60l51 206c-58 0 -117 -1 -177 -2c2 16 2 40 0 57c64 -1 127 -2 190 -2c18 73 35 147 53 220
c-58 0 -117 -1 -177 -2c2 17 2 41 0 58c64 -1 127 -2 190 -2c16 69 33 138 49 208c17 -2 42 -2 60 0c-17 -70 -35 -139 -52 -209h216c17 70 33 139 49 209c18 -2 42 -2 60 0c-17 -70 -35 -139 -51 -208c59 0 119 1 180 2c-2 -17 -2 -41 0 -58zM494 258l54 222h-217
c-18 -74 -36 -148 -53 -222h216z" />
    <glyph glyph-name="dollar" unicode="$" horiz-adv-x="956" 
d="M894 208c0 -146 -124 -217 -374 -219l3 -84c-33 4 -64 4 -97 0l3 87c-136 9 -258 41 -356 80c18 50 18 118 0 167c72 -68 217 -108 360 -120l3 209c-247 8 -374 68 -374 208c0 147 122 220 367 222l-3 88c33 -4 64 -4 97 0c-1 -30 -2 -60 -4 -90c134 -8 227 -35 338 -56
c-20 -45 -18 -92 0 -156c-90 38 -206 78 -341 89l-3 -207c242 -10 381 -72 381 -218zM212 534c0 -72 66 -100 224 -106l-3 209c-156 0 -221 -30 -221 -103zM524 115c157 0 222 33 222 100c0 80 -77 105 -233 111l3 -211h8z" />
    <glyph glyph-name="percent" unicode="%" horiz-adv-x="1015" 
d="M255 367c-130 0 -220 73 -220 198c0 123 90 197 220 197c131 0 219 -74 219 -197c0 -125 -88 -198 -219 -198zM777 741c31 -4 84 -4 115 0c-225 -253 -441 -488 -649 -741c-31 4 -84 4 -115 0c221 249 437 484 649 741zM254 433c73 0 114 48 114 129s-41 129 -114 129
c-69 0 -111 -48 -111 -129s42 -129 111 -129zM760 -19c-131 0 -219 73 -219 198c0 123 87 196 219 196c130 0 220 -73 220 -196c0 -125 -90 -198 -220 -198zM759 47c72 0 114 48 114 129s-42 129 -114 129c-70 0 -111 -48 -111 -129s41 -129 111 -129z" />
    <glyph glyph-name="ampersand" unicode="&#x26;" horiz-adv-x="1004" 
d="M40 196c0 103 93 165 254 175v14c-95 10 -204 52 -204 168c0 128 131 202 346 202c126 0 264 -27 375 -74c-11 -47 -10 -106 2 -159c-119 71 -256 112 -369 112c-124 0 -186 -41 -186 -108c0 -72 60 -122 261 -122c155 0 372 19 464 37c-10 -47 -7 -99 3 -139
c-90 16 -216 36 -361 48v-14c152 -26 261 -72 261 -164c0 -115 -161 -184 -433 -184c-259 0 -413 75 -413 208zM225 223c0 -80 87 -126 232 -126c152 0 241 46 241 124c0 79 -90 127 -243 127c-144 0 -230 -47 -230 -125z" />
    <glyph glyph-name="quotesingle" unicode="'" horiz-adv-x="243" 
d="M76 526c-6 91 -16 183 -30 274c49 -6 100 -6 151 0c-16 -91 -28 -183 -35 -274c-29 2 -58 2 -86 0z" />
    <glyph glyph-name="parenleft" unicode="(" horiz-adv-x="364" 
d="M233 -185c-99 135 -151 317 -151 486s52 353 151 471c35 -4 68 -4 103 0c-93 -98 -152 -302 -152 -471c0 -170 59 -368 152 -486c-35 4 -68 4 -103 0z" />
    <glyph glyph-name="parenright" unicode=")" horiz-adv-x="364" 
d="M28 -185c93 118 152 316 152 486c0 169 -59 373 -152 471c36 -4 68 -4 103 0c99 -118 151 -302 151 -471s-52 -351 -151 -486c-35 4 -67 4 -103 0z" />
    <glyph glyph-name="asterisk" unicode="*" horiz-adv-x="561" 
d="M330 585c42 -45 85 -89 133 -131c-34 -12 -62 -31 -86 -55c-30 54 -62 103 -97 153c-36 -50 -68 -99 -98 -153c-24 24 -52 43 -87 55c49 42 92 86 134 131c-61 15 -119 27 -185 36c18 28 30 57 32 90c59 -28 113 -51 171 -72c-4 61 -9 118 -29 176c45 -8 81 -8 117 0
c-13 -59 -18 -114 -24 -176c60 21 115 44 174 72c3 -33 14 -62 32 -90c-67 -9 -125 -21 -187 -36z" />
    <glyph glyph-name="plus" unicode="+" horiz-adv-x="592" 
d="M550 398c-4 -20 -4 -52 0 -74c-75 2 -148 3 -221 4c0 -65 2 -130 5 -196c-25 4 -58 4 -80 0c3 68 4 132 4 196c-71 -1 -142 -2 -216 -4c4 22 4 54 0 74c74 -3 145 -4 216 -4c0 63 -1 127 -4 195c22 -4 55 -4 80 0c-3 -67 -5 -131 -5 -195c72 0 146 1 221 4z" />
    <glyph glyph-name="comma" unicode="," horiz-adv-x="282" 
d="M46 59c0 48 32 70 95 70s95 -22 95 -81c0 -65 -65 -142 -115 -190c-15 4 -31 4 -47 1c32 43 59 85 70 131c-66 -1 -98 21 -98 69z" />
    <glyph glyph-name="hyphen" unicode="-" horiz-adv-x="499" 
d="M467 326c-3 -18 -3 -59 0 -75c-136 5 -300 5 -434 0c3 16 3 57 -1 75c135 -6 299 -6 435 0z" />
    <glyph glyph-name="period" unicode="." horiz-adv-x="282" 
d="M141 -10c-63 0 -95 22 -95 70c0 47 32 70 95 70s95 -23 95 -70c0 -48 -32 -70 -95 -70z" />
    <glyph glyph-name="slash" unicode="/" horiz-adv-x="420" 
d="M338 797c18 -2 51 -2 68 0c-109 -314 -231 -671 -324 -923h-68c106 302 187 506 324 923z" />
    <glyph glyph-name="zero" unicode="0" horiz-adv-x="925" 
d="M463 -15c-248 0 -417 147 -417 390c0 238 169 386 417 386s416 -148 416 -386c0 -243 -168 -390 -416 -390zM461 96c144 0 235 104 235 273c0 168 -91 271 -235 271c-142 0 -232 -103 -232 -271c0 -169 90 -273 232 -273z" />
    <glyph glyph-name="one" unicode="1" horiz-adv-x="501" 
d="M12 413c8 54 8 92 0 142c95 15 203 92 220 190c59 -9 131 -10 181 0c-11 -181 -12 -513 2 -745h-186c11 179 12 463 12 618h-12c-8 -72 -97 -191 -217 -205z" />
    <glyph glyph-name="two" unicode="2" horiz-adv-x="855" 
d="M32 0c9 44 9 84 0 128c244 44 586 133 586 335c0 109 -93 168 -234 168c-119 0 -247 -48 -346 -112c13 47 13 104 0 159c133 66 266 81 364 81c267 0 389 -111 389 -260c0 -145 -145 -299 -540 -364v-15c155 0 434 4 569 45c-9 -73 -9 -115 0 -165h-788z" />
    <glyph glyph-name="three" unicode="3" horiz-adv-x="912" 
d="M445 -13c-135 0 -311 29 -389 83c8 51 8 92 0 151c57 -66 243 -121 389 -121c138 0 216 40 216 112c0 93 -119 117 -269 117c-58 0 -121 -7 -191 -11c4 32 4 69 0 101c47 -4 92 -9 159 -9c214 0 268 56 268 121c0 83 -96 100 -197 100c-130 0 -262 -21 -369 -91
c11 46 12 105 1 152c110 41 263 64 383 64c218 0 362 -62 362 -192c0 -117 -124 -171 -222 -181v-13c167 -10 277 -70 277 -179c0 -156 -217 -204 -418 -204z" />
    <glyph glyph-name="four" unicode="4" horiz-adv-x="919" 
d="M915 246c-4 -34 -4 -77 0 -111c-41 2 -111 4 -195 5c2 -53 4 -101 7 -140h-190c3 39 5 87 6 141c-191 0 -401 -3 -519 -7c8 45 8 90 0 135c124 84 414 368 508 484c2 0 3 -1 5 -1v1c63 -8 125 -8 188 0c-8 -125 -11 -339 -7 -522c71 3 139 8 197 15zM157 228
c111 -2 250 -3 388 -1c2 122 1 258 -2 372z" />
    <glyph glyph-name="five" unicode="5" horiz-adv-x="883" 
d="M54 70c8 51 8 108 0 159c58 -68 236 -128 380 -128c134 0 229 41 229 114c0 143 -345 147 -599 116c8 133 8 281 0 414c251 -8 490 -8 740 0c-9 -60 -9 -126 0 -161c-189 31 -393 39 -581 39c-5 -61 -5 -151 0 -220c255 63 622 58 622 -184c0 -171 -197 -232 -405 -232
c-139 0 -307 29 -386 83z" />
    <glyph glyph-name="six" unicode="6" horiz-adv-x="929" 
d="M46 360c0 253 163 400 456 400c94 0 214 -17 335 -73c-11 -51 -10 -92 0 -155c-69 58 -186 108 -316 108c-192 0 -389 -109 -312 -399h14c-2 154 97 246 307 246c169 0 351 -61 351 -238c0 -192 -202 -260 -405 -260c-228 0 -430 84 -430 371zM254 249
c0 -91 83 -143 224 -143s225 52 225 142c0 87 -84 141 -225 141s-224 -54 -224 -140z" />
    <glyph glyph-name="seven" unicode="7" horiz-adv-x="757" 
d="M751 745c-8 -46 -8 -100 0 -146c-288 -125 -324 -359 -311 -599h-219c19 336 288 552 441 601v9c-205 4 -454 8 -662 -26c9 35 9 101 0 161c253 -24 498 -24 751 0z" />
    <glyph glyph-name="eight" unicode="8" horiz-adv-x="924" 
d="M462 -12c-256 0 -421 75 -421 207c0 100 90 168 260 178v13c-99 11 -208 49 -208 166c0 130 141 204 369 204c227 0 369 -74 369 -204c0 -117 -109 -155 -209 -166v-13c171 -10 261 -78 261 -178c0 -132 -166 -207 -421 -207zM462 410c129 0 200 43 200 113
c0 69 -75 115 -200 115s-200 -46 -200 -115c0 -70 71 -113 200 -113zM462 97c134 0 234 46 234 124c0 79 -99 124 -234 124c-134 0 -234 -45 -234 -124c0 -78 102 -124 234 -124z" />
    <glyph glyph-name="nine" unicode="9" horiz-adv-x="929" 
d="M883 388c0 -253 -163 -399 -456 -399c-94 0 -213 17 -335 72c11 51 10 93 0 155c69 -58 187 -108 316 -108c192 0 389 110 312 399h-13c2 -153 -98 -246 -308 -246c-169 0 -351 61 -351 238c0 192 202 260 405 260c228 0 430 -84 430 -371zM676 499
c0 91 -84 144 -224 144c-141 0 -226 -51 -226 -143c0 -87 84 -141 225 -141s225 54 225 140z" />
    <glyph glyph-name="colon" unicode=":" horiz-adv-x="282" 
d="M141 389c-63 0 -95 21 -95 69c0 47 32 70 95 70s95 -23 95 -70c0 -48 -32 -69 -95 -69zM141 -8c-63 0 -95 22 -95 70c0 47 32 70 95 70s95 -23 95 -70c0 -48 -32 -70 -95 -70z" />
    <glyph glyph-name="semicolon" unicode=";" horiz-adv-x="289" 
d="M141 388c-63 0 -95 22 -95 70c0 47 32 70 95 70s95 -23 95 -70c0 -48 -32 -70 -95 -70zM53 59c0 48 31 70 94 70c64 0 96 -22 96 -81c0 -65 -66 -142 -115 -190c-16 4 -32 4 -47 1c32 43 59 85 69 131c-66 -1 -97 21 -97 69z" />
    <glyph glyph-name="less" unicode="&#x3c;" horiz-adv-x="600" 
d="M517 586v-83c-127 -43 -251 -93 -377 -144c128 -53 254 -108 377 -153v-84c-148 71 -301 137 -454 199c4 28 4 51 0 79c151 58 302 120 454 186z" />
    <glyph glyph-name="equal" unicode="=" horiz-adv-x="622" 
d="M566 483c-5 -20 -5 -52 0 -74c-174 5 -336 5 -510 0c5 22 5 54 0 74c174 -5 335 -5 510 0zM566 285c-5 -20 -5 -52 0 -74c-174 5 -336 5 -510 0c5 22 5 54 0 74c174 -6 335 -6 510 0z" />
    <glyph glyph-name="greater" unicode="&#x3e;" horiz-adv-x="598" 
d="M83 586c152 -66 303 -128 454 -186c-4 -28 -4 -51 0 -79c-153 -62 -306 -128 -454 -199v84c123 45 249 100 377 153c-126 51 -250 101 -377 144v83z" />
    <glyph glyph-name="question" unicode="?" horiz-adv-x="751" 
d="M260 213c7 179 268 194 268 320c0 53 -45 97 -152 97c-108 0 -235 -49 -332 -123c13 55 13 112 0 167c130 69 263 85 351 85c194 0 313 -84 313 -200c0 -186 -272 -189 -279 -346c-48 10 -111 10 -169 0zM346 -13c-63 0 -95 22 -95 70c0 47 32 70 95 70s95 -23 95 -70
c0 -48 -32 -70 -95 -70z" />
    <glyph glyph-name="at" unicode="@" horiz-adv-x="1202" 
d="M590 760c330 0 566 -191 566 -464c0 -148 -78 -262 -246 -262c-110 0 -175 59 -177 143c-23 -90 -88 -134 -187 -134c-133 0 -222 92 -222 224c0 127 79 219 204 219c111 0 171 -69 193 -162h11c-3 56 -7 101 -15 146c42 4 108 10 141 26c-20 -177 -57 -390 66 -390
c74 0 114 66 114 171c0 230 -189 383 -448 383c-254 0 -420 -158 -420 -383c0 -228 174 -389 415 -389c78 0 151 16 210 49c-9 -39 -9 -77 0 -115c-64 -19 -121 -34 -210 -34c-314 0 -539 203 -539 489c0 282 220 483 544 483zM597 118c48 0 108 15 135 98
c-6 94 -49 183 -156 183c-81 0 -127 -56 -127 -136c0 -94 67 -145 148 -145z" />
    <glyph glyph-name="A" unicode="A" horiz-adv-x="989" 
d="M975 0h-205c-19 50 -38 103 -59 156c-129 4 -307 4 -437 1c-23 -55 -44 -109 -64 -157h-196c121 248 233 497 338 745c72 -9 211 -13 283 0c105 -248 219 -497 340 -745zM316 259c107 -3 247 -3 354 0c-55 138 -116 276 -180 394c-41 -76 -108 -234 -174 -394z" />
    <glyph glyph-name="B" unicode="B" horiz-adv-x="998" 
d="M86 0c12 187 12 560 0 747c135 0 262 3 452 3c236 0 365 -55 365 -187c0 -118 -105 -164 -234 -169v-13c160 -4 280 -58 280 -185c0 -180 -247 -202 -426 -202c-209 0 -299 6 -437 6zM262 419c85 -1 180 -2 277 -2c123 0 183 36 183 110c0 79 -66 106 -183 106
c-120 0 -219 0 -275 -1c-2 -66 -3 -137 -2 -213zM262 319c0 -68 2 -141 4 -204c79 -2 140 -4 266 -4c180 0 225 53 225 112c0 53 -45 97 -218 97c-97 0 -192 0 -277 -1z" />
    <glyph glyph-name="C" unicode="C" horiz-adv-x="1051" 
d="M561 -17c-329 0 -515 151 -515 393c0 253 206 388 531 388c116 0 249 -17 409 -83c-7 -58 -7 -101 0 -159c-161 97 -300 121 -400 122c-224 1 -366 -96 -366 -268c0 -162 120 -272 360 -272c142 0 281 41 406 159c-6 -59 4 -115 11 -155c-113 -82 -242 -125 -436 -125z
" />
    <glyph glyph-name="D" unicode="D" horiz-adv-x="1083" 
d="M86 0c11 172 11 573 0 745c190 0 296 5 432 5c326 0 519 -139 519 -373c0 -238 -201 -379 -541 -379c-128 0 -269 2 -410 2zM263 636c-3 -175 -2 -343 1 -519c58 -2 143 -8 232 -8c230 0 367 99 367 268c0 166 -135 263 -361 263c-66 0 -150 -5 -239 -4z" />
    <glyph glyph-name="E" unicode="E" horiz-adv-x="947" 
d="M86 0c12 190 12 561 0 745c122 -10 619 -17 802 -3c-4 -49 -4 -100 0 -150c-140 27 -432 43 -621 41c-2 -71 -3 -142 -2 -213c186 -3 417 5 552 14c-4 -41 -4 -86 0 -126c-136 8 -366 15 -552 11c0 -67 0 -137 4 -206c190 -2 480 14 619 40c-4 -50 -4 -103 0 -153h-802z
" />
    <glyph glyph-name="F" unicode="F" horiz-adv-x="879" 
d="M90 0c12 187 12 559 0 745c118 -10 580 -17 763 -2c-4 -50 -4 -101 0 -151c-140 26 -404 42 -582 40c-3 -78 -3 -157 -2 -236c175 -3 374 5 511 14c-4 -38 -4 -85 0 -126c-137 8 -337 15 -511 11c0 -96 3 -198 16 -295h-195z" />
    <glyph glyph-name="G" unicode="G" horiz-adv-x="1092" 
d="M556 -14c-331 0 -510 152 -510 391c0 252 198 385 524 385c121 0 298 -18 459 -84c-8 -65 -8 -119 0 -160c-131 79 -300 123 -457 123c-222 0 -352 -102 -352 -264s124 -271 336 -271c115 0 268 33 341 174c-161 0 -327 -7 -417 -17c7 39 5 96 -3 143
c182 -8 388 -8 562 0c-7 -50 -7 -124 0 -185c-74 -157 -273 -235 -483 -235z" />
    <glyph glyph-name="H" unicode="H" horiz-adv-x="1027" 
d="M941 0h-182c5 75 8 180 9 291c-167 10 -345 9 -510 -1c1 -111 4 -216 10 -290h-182c12 187 12 558 0 745c62 -9 122 -10 180 0c-5 -85 -8 -209 -9 -336c164 -10 342 -11 511 -1c-1 127 -4 251 -9 337c62 -9 122 -10 179 0c-11 -187 -11 -560 3 -745z" />
    <glyph glyph-name="I" unicode="I" horiz-adv-x="370" 
d="M90 0c12 187 12 558 0 745c64 -9 128 -10 188 0c-12 -187 -12 -560 2 -745h-190z" />
    <glyph glyph-name="J" unicode="J" horiz-adv-x="589" 
d="M54 42c8 41 8 86 0 136c20 -29 78 -59 146 -59c72 0 141 34 141 149c0 163 -2 381 -8 477c65 -9 127 -10 188 0c-6 -96 -8 -334 -8 -473c0 -146 -54 -282 -280 -282c-77 0 -133 19 -179 52z" />
    <glyph glyph-name="K" unicode="K" horiz-adv-x="979" 
d="M462 364c162 -18 428 -164 474 -364h-217c-6 104 -155 339 -453 311c1 -100 5 -205 10 -311h-190c12 187 12 558 0 745c64 -9 127 -10 187 0c-5 -96 -8 -204 -8 -321c253 -5 387 175 451 320c62 -9 157 -10 236 0c-108 -171 -330 -337 -490 -367v-13z" />
    <glyph glyph-name="L" unicode="L" horiz-adv-x="921" 
d="M86 0c8 248 8 497 0 745c64 -9 131 -11 188 0c-10 -141 -12 -452 -7 -633c147 0 473 15 608 38c-4 -60 -4 -100 0 -150h-789z" />
    <glyph glyph-name="M" unicode="M" horiz-adv-x="1195" 
d="M923 0c8 130 11 361 8 587c-93 -194 -179 -391 -259 -589h-159c-78 199 -164 393 -256 585c-1 -195 2 -449 10 -583h-181c12 187 12 558 0 745c67 -9 199 -9 262 0c75 -200 156 -396 246 -588c93 193 176 387 255 588c65 -9 192 -9 257 0c-11 -192 -11 -560 3 -745h-186z
" />
    <glyph glyph-name="N" unicode="N" horiz-adv-x="1075" 
d="M747 0c-157 205 -320 408 -490 606c-3 -201 0 -405 9 -606h-180c8 248 8 497 0 745c66 -8 182 -10 248 0c154 -207 315 -411 483 -612c3 204 1 409 -9 612c63 -9 122 -10 178 0c-7 -248 -6 -497 3 -745h-242z" />
    <glyph glyph-name="O" unicode="O" horiz-adv-x="1097" 
d="M549 -15c-316 0 -503 143 -503 389c0 247 187 390 503 390s502 -144 502 -390s-186 -389 -502 -389zM549 97c206 0 330 99 330 273c0 176 -124 281 -330 281c-208 0 -329 -105 -329 -281c0 -174 121 -273 329 -273z" />
    <glyph glyph-name="P" unicode="P" horiz-adv-x="954" 
d="M517 748c274 0 399 -68 399 -253c0 -157 -96 -263 -382 -263h-272c3 -88 7 -169 14 -232h-190c12 180 12 558 0 745c177 -3 272 3 431 3zM489 334c174 0 253 52 253 151c0 109 -84 150 -259 150c-66 0 -153 -3 -222 -3c-2 -90 -2 -194 -1 -294c77 -2 152 -4 229 -4z" />
    <glyph glyph-name="Q" unicode="Q" horiz-adv-x="1110" 
d="M804 -181c-15 41 -71 167 -253 167c-317 0 -505 145 -505 389s188 388 505 388c318 0 504 -144 504 -388c0 -217 -166 -355 -304 -363v-13c95 -13 216 -102 275 -180c-74 16 -148 16 -222 0zM551 98c209 0 330 102 330 273c0 169 -121 274 -330 274
c-211 0 -331 -105 -331 -274c0 -171 120 -273 331 -273z" />
    <glyph glyph-name="R" unicode="R" horiz-adv-x="1002" 
d="M86 0c12 187 12 559 0 745c172 -3 277 3 437 3c279 0 410 -69 410 -218c0 -190 -226 -222 -329 -222v-13c198 -34 309 -185 360 -295h-237c-34 188 -128 262 -334 277c-48 3 -88 4 -130 4c2 -136 5 -203 11 -281h-188zM262 385c69 -2 149 -7 226 -7c170 0 262 36 262 134
c0 91 -90 123 -232 123c-96 0 -193 -3 -253 -3c-2 -77 -3 -158 -3 -247z" />
    <glyph glyph-name="S" unicode="S" horiz-adv-x="1014" 
d="M545 -11c-183 0 -349 38 -475 85c8 56 8 111 0 167c94 -90 308 -133 491 -133c149 0 211 33 211 99c0 88 -94 98 -317 117c-245 22 -393 61 -393 212c0 149 133 222 405 222c191 0 305 -26 446 -60c-8 -54 -8 -105 0 -156c-116 48 -270 97 -452 97
c-154 0 -219 -31 -219 -98c0 -80 80 -101 284 -117c257 -20 426 -55 426 -216c0 -148 -136 -219 -407 -219z" />
    <glyph glyph-name="T" unicode="T" horiz-adv-x="916" 
d="M363 0c10 156 11 427 6 632c-147 -2 -255 -11 -359 -27c8 47 8 93 0 140c331 -8 566 -8 896 0c-8 -47 -8 -93 0 -140c-105 16 -213 25 -361 27c-5 -206 -2 -476 8 -632h-190z" />
    <glyph glyph-name="U" unicode="U" horiz-adv-x="1034" 
d="M961 371c0 -247 -166 -393 -446 -393c-289 0 -445 146 -445 393c0 152 -2 283 -8 374c60 -9 130 -10 186 0c-6 -91 -8 -218 -8 -378c0 -173 93 -277 275 -277c180 0 274 104 274 277c0 160 -1 287 -7 378c60 -9 130 -10 186 0c-5 -91 -7 -238 -7 -374z" />
    <glyph glyph-name="V" unicode="V" horiz-adv-x="954" 
d="M754 745c65 -8 121 -8 186 0c-127 -259 -223 -485 -331 -745h-266c-101 260 -203 486 -329 745c68 -8 129 -8 197 0c77 -205 204 -514 268 -638c64 124 191 433 275 638z" />
    <glyph glyph-name="W" unicode="W" horiz-adv-x="1313" 
d="M1114 745c61 -8 123 -8 185 0c-71 -174 -155 -471 -236 -745h-259c-35 176 -88 439 -145 624c-54 -184 -107 -445 -143 -624h-267c-74 255 -158 552 -235 745c63 -8 126 -8 189 0c51 -204 111 -432 178 -662c62 227 115 448 153 662c84 -8 166 -8 250 0
c41 -212 96 -449 154 -660c74 262 133 488 176 660z" />
    <glyph glyph-name="X" unicode="X" horiz-adv-x="977" 
d="M22 0c131 125 255 250 370 375c-115 124 -238 247 -369 370c79 -8 159 -8 238 0c73 -93 149 -187 231 -281c81 94 156 188 229 281c77 -8 156 -8 233 0c-132 -123 -256 -247 -372 -369c115 -126 238 -250 368 -376h-251c-68 95 -141 189 -217 283
c-76 -94 -150 -188 -218 -283h-242z" />
    <glyph glyph-name="Y" unicode="Y" horiz-adv-x="891" 
d="M915 745c-131 -152 -259 -308 -382 -469c-8 -92 -8 -184 0 -276h-174c8 92 8 184 0 276c-124 161 -251 317 -383 469c71 -9 157 -10 210 0c85 -125 172 -246 263 -363c91 117 178 238 262 363c53 -10 134 -9 204 0z" />
    <glyph glyph-name="Z" unicode="Z" horiz-adv-x="989" 
d="M70 0c4 41 4 82 0 123c214 136 448 316 637 468v18c-202 0 -468 -13 -643 -22c4 54 4 105 0 158c229 -20 641 -20 859 0c-4 -46 -4 -91 0 -138c-207 -139 -437 -318 -620 -476v-14c189 0 458 17 622 34c-4 -52 -4 -100 0 -151h-855z" />
    <glyph glyph-name="bracketleft" unicode="[" horiz-adv-x="389" 
d="M86 -193c10 316 11 587 0 967h281v-94c-58 8 -114 18 -172 19c-10 -267 -10 -550 0 -817c58 1 114 10 172 19v-94h-281z" />
    <glyph glyph-name="backslash" unicode="\" horiz-adv-x="421" 
d="M83 797l324 -923h-68c-108 308 -217 615 -325 923c18 -2 51 -2 69 0z" />
    <glyph glyph-name="bracketright" unicode="]" horiz-adv-x="389" 
d="M22 -193v94c57 -9 114 -18 172 -19c10 267 10 550 0 817c-58 -1 -115 -11 -172 -19v94h281c-11 -316 -11 -587 0 -967h-281z" />
    <glyph glyph-name="asciicircum" unicode="^" horiz-adv-x="544" 
d="M40 346c66 152 128 303 186 454c28 -4 51 -4 79 0c62 -153 128 -306 199 -454h-84c-45 123 -100 249 -153 377c-51 -126 -101 -250 -144 -377h-83z" />
    <glyph glyph-name="underscore" unicode="_" horiz-adv-x="605" 
d="M573 75c-3 -17 -3 -58 0 -75h-540c3 17 3 58 -1 75c141 -4 399 -4 541 0z" />
    <glyph glyph-name="grave" unicode="`" horiz-adv-x="421" 
d="M234 630c-57 52 -155 128 -226 180c45 -8 161 -8 205 0c36 -52 91 -128 136 -180c-25 2 -94 2 -115 0z" />
    <glyph glyph-name="a" unicode="a" horiz-adv-x="753" 
d="M710 0h-162c-14 42 -20 84 -23 124c-56 -84 -128 -139 -265 -139c-146 0 -216 65 -216 149c0 98 100 160 305 160h174c-5 90 -36 149 -180 149c-116 0 -224 -42 -282 -98c7 39 7 109 0 143c75 35 174 67 305 67c196 0 310 -64 310 -246c1 -128 7 -222 34 -309zM338 91
c72 0 135 22 186 56c-1 31 0 61 0 88v17h-85c-148 0 -226 -24 -226 -85c0 -48 43 -76 125 -76z" />
    <glyph glyph-name="b" unicode="b" horiz-adv-x="796" 
d="M496 556c158 0 265 -110 265 -272c0 -174 -123 -300 -307 -300c-118 0 -197 53 -234 150c1 -50 4 -91 10 -134h-166c24 150 22 589 -2 760c54 4 146 14 189 33c-21 -89 -27 -307 -29 -424h14c41 97 116 187 260 187zM399 79c108 0 200 67 200 195c0 103 -62 172 -168 172
c-152 0 -208 -133 -211 -256c48 -91 122 -111 179 -111z" />
    <glyph glyph-name="c" unicode="c" horiz-adv-x="725" 
d="M396 -11c-236 0 -361 106 -361 284c0 177 125 283 361 283c104 0 201 -21 286 -63c-13 -37 -13 -119 0 -156c-63 61 -156 105 -261 105c-147 0 -229 -59 -229 -169s82 -169 229 -169c106 0 196 34 261 89c-13 -38 -13 -104 0 -140c-85 -43 -182 -64 -286 -64z" />
    <glyph glyph-name="d" unicode="d" horiz-adv-x="801" 
d="M744 797c-36 -153 -34 -658 -12 -797h-166c6 44 10 85 11 136c-37 -99 -116 -152 -235 -152c-184 0 -307 126 -307 300c0 162 108 272 266 272c144 0 218 -90 260 -187h13c-3 223 -12 335 -20 395c54 4 146 14 190 33zM397 79c59 0 133 20 180 112
c-4 123 -60 255 -211 255c-107 0 -169 -69 -169 -172c0 -128 92 -195 200 -195z" />
    <glyph glyph-name="e" unicode="e" horiz-adv-x="754" 
d="M706 186c-9 -38 -9 -100 0 -137c-85 -42 -196 -63 -303 -63c-243 0 -368 107 -368 285c0 180 128 286 331 286c200 0 357 -107 336 -308c-227 4 -398 4 -501 1c13 -93 76 -153 220 -151c96 2 220 34 285 87zM366 450c-100 0 -162 -52 -167 -151c96 -3 223 -3 340 -1
c-12 99 -77 152 -173 152z" />
    <glyph glyph-name="f" unicode="f" horiz-adv-x="573" 
d="M566 538c-4 -41 -4 -67 0 -108c-80 7 -171 11 -262 12c1 -114 3 -298 13 -442h-177c8 117 12 294 12 440c-53 -2 -104 -6 -151 -10c4 29 4 79 0 108c47 -4 98 -8 150 -10c-1 15 -2 41 -3 90c-2 156 96 192 209 192c77 0 165 -19 191 -27c-8 -37 -8 -67 0 -112
c-44 20 -84 28 -126 28c-118 0 -118 -60 -118 -173c91 1 182 5 262 12z" />
    <glyph glyph-name="g" unicode="g" horiz-adv-x="781" 
d="M724 557c-15 -157 -11 -366 -11 -470c0 -125 -21 -313 -336 -313c-110 0 -218 21 -303 64c13 36 13 94 0 131c66 -53 189 -84 289 -84c104 0 192 44 192 164v32c-41 -49 -113 -75 -206 -75c-191 0 -314 109 -314 280c0 160 108 270 257 270c137 0 228 -93 269 -191h13
c-5 54 -6 96 -21 157c63 4 131 16 171 35zM403 93c49 0 106 12 152 55v64c0 109 -33 234 -186 234c-110 0 -172 -69 -172 -172c0 -127 92 -181 206 -181z" />
    <glyph glyph-name="h" unicode="h" horiz-adv-x="771" 
d="M62 0c22 158 22 555 0 762c67 4 144 16 186 35c-19 -78 -27 -378 -32 -454h13c40 122 139 213 265 213c156 0 208 -106 208 -230c0 -101 -5 -233 14 -326h-171v235c0 108 -41 195 -146 195c-115 0 -164 -101 -164 -214v-216h-173z" />
    <glyph glyph-name="i" unicode="i" horiz-adv-x="307" 
d="M149 616c-68 0 -103 21 -103 69s35 71 103 71c74 0 112 -23 112 -71s-38 -69 -112 -69zM64 538c60 -10 114 -12 172 0c-12 -184 -12 -354 0 -538h-172c13 183 13 353 0 538z" />
    <glyph glyph-name="j" unicode="j" horiz-adv-x="319" 
d="M161 616c-68 0 -102 21 -102 69s34 71 102 71c75 0 112 -23 112 -71s-37 -69 -112 -69zM15 -215c-42 0 -84 7 -128 25c4 41 4 71 0 111c6 -7 45 -20 73 -20c71 0 129 30 129 156c0 161 -4 373 -10 481c62 -11 112 -12 172 0c-6 -98 -13 -248 -13 -548
c0 -152 -109 -205 -223 -205z" />
    <glyph glyph-name="k" unicode="k" horiz-adv-x="710" 
d="M480 0c-42 80 -115 152 -198 263c-20 -4 -41 -6 -61 -6c2 -99 7 -190 12 -257h-176c23 195 23 571 0 753c60 3 135 12 189 33c-23 -119 -29 -308 -26 -483c106 14 232 121 246 223c55 3 161 6 216 26c-27 -108 -135 -202 -267 -254c82 -94 195 -232 294 -298h-229z" />
    <glyph glyph-name="l" unicode="l" horiz-adv-x="291" 
d="M57 764c59 2 118 11 177 33c-24 -195 -20 -596 -5 -797h-172c15 194 15 582 0 764z" />
    <glyph glyph-name="m" unicode="m" horiz-adv-x="1152" 
d="M62 2c20 161 20 346 0 521c75 4 141 16 182 35c-17 -78 -24 -139 -28 -215h11c36 120 110 213 236 213s177 -91 183 -195h10c26 100 112 195 233 195c128 0 188 -104 191 -230c2 -74 -5 -219 17 -324h-175c8 78 8 156 8 234c0 127 -39 194 -129 194
c-92 0 -139 -72 -139 -212c0 -80 3 -164 12 -216h-177c7 78 7 155 7 234c0 124 -37 194 -124 194c-96 0 -144 -77 -144 -211c0 -73 0 -146 8 -219z" />
    <glyph glyph-name="n" unicode="n" horiz-adv-x="771" 
d="M62 0c22 158 22 317 0 523c67 4 144 16 186 35c-19 -78 -27 -139 -32 -215h14c39 122 136 213 266 213c155 0 207 -106 207 -230c0 -106 -4 -229 13 -326h-170v235c0 119 -50 195 -144 195c-107 0 -166 -88 -166 -214v-216h-174z" />
    <glyph glyph-name="o" unicode="o" horiz-adv-x="765" 
d="M383 -14c-219 0 -348 106 -348 285s129 284 348 284c218 0 347 -105 347 -284s-129 -285 -347 -285zM383 86c115 0 183 67 183 185c0 109 -68 177 -183 177c-117 0 -184 -68 -184 -177c0 -118 67 -185 184 -185z" />
    <glyph glyph-name="p" unicode="p" horiz-adv-x="785" 
d="M493 556c149 0 257 -110 257 -272c0 -174 -123 -300 -312 -300c-79 0 -161 30 -207 92c1 -92 4 -184 15 -276c-72 9 -132 9 -189 2c22 143 22 524 0 721c67 4 143 16 186 35c-19 -77 -27 -136 -32 -193h13c41 100 132 191 269 191zM382 71c114 0 206 71 206 204
c0 102 -62 171 -172 171c-153 0 -186 -125 -186 -234v-82c48 -45 103 -59 152 -59z" />
    <glyph glyph-name="q" unicode="q" horiz-adv-x="785" 
d="M724 556c-22 -211 -18 -587 4 -754c-57 7 -117 7 -189 -2c11 92 14 184 15 276c-45 -60 -123 -93 -205 -93c-191 0 -314 126 -314 302c0 160 108 270 257 270c137 0 228 -92 269 -191h13c-5 54 -6 96 -21 157c61 4 131 16 171 35zM403 71c49 0 104 14 152 59v81
c0 109 -33 234 -186 234c-110 0 -172 -69 -172 -172c0 -132 92 -202 206 -202z" />
    <glyph glyph-name="r" unicode="r" horiz-adv-x="515" 
d="M249 0h-187c23 166 23 345 0 520c65 4 138 16 181 35c-15 -78 -22 -141 -25 -216h13c55 171 174 230 268 207c-13 -42 -13 -103 0 -162c-37 11 -69 16 -94 16c-114 0 -172 -72 -172 -197c0 -70 0 -133 16 -203z" />
    <glyph glyph-name="s" unicode="s" horiz-adv-x="705" 
d="M369 -14c-113 0 -235 20 -319 63c13 37 13 102 0 132c65 -52 200 -85 314 -85c96 0 145 24 145 68c0 135 -471 -27 -471 219c0 159 200 172 314 172c113 0 191 -18 286 -44c-13 -36 -12 -75 3 -133c-80 40 -179 73 -298 73c-101 0 -148 -20 -148 -68
c0 -145 474 31 474 -221c0 -125 -114 -176 -300 -176z" />
    <glyph glyph-name="t" unicode="t" horiz-adv-x="587" 
d="M291 442c-2 -66 -4 -130 -5 -185c-2 -118 56 -151 128 -152c50 -1 106 15 151 27c-8 -37 -10 -76 -2 -113c-53 -16 -124 -31 -193 -31c-117 1 -226 45 -226 197c0 37 0 143 -3 254c-51 -2 -99 -5 -145 -9c4 29 4 79 0 108c45 -4 93 -7 142 -9c-3 61 -6 119 -11 162
c66 7 122 16 171 40c-2 -66 -4 -136 -5 -205c94 0 189 4 272 12c-4 -41 -4 -66 0 -108c-84 8 -179 12 -274 12z" />
    <glyph glyph-name="u" unicode="u" horiz-adv-x="737" 
d="M680 550c-23 -157 -23 -344 0 -550h-185c17 68 28 136 30 187h-13c-38 -123 -131 -198 -261 -198c-150 0 -196 106 -196 230c0 104 4 219 -14 308c56 -1 107 5 163 23v-256c0 -108 41 -178 134 -178c123 0 168 84 168 197v214c57 -1 116 5 174 23z" />
    <glyph glyph-name="v" unicode="v" horiz-adv-x="684" 
d="M504 538c56 -10 114 -12 178 0c-97 -187 -157 -339 -235 -538h-210c-68 182 -140 352 -235 538c65 -10 128 -12 182 0c51 -133 102 -301 161 -446c59 147 109 313 159 446z" />
    <glyph glyph-name="w" unicode="w" horiz-adv-x="1066" 
d="M884 539c53 -11 118 -12 178 0c-69 -159 -157 -385 -210 -539h-205c-38 144 -73 280 -115 418c-39 -137 -76 -273 -114 -418h-204c-52 150 -150 400 -210 539c59 -11 130 -12 181 0c38 -136 60 -245 127 -444c47 157 90 315 121 444c64 -10 143 -11 205 0
c31 -131 72 -286 120 -442c48 157 91 313 126 442z" />
    <glyph glyph-name="x" unicode="x" horiz-adv-x="721" 
d="M1 0c101 95 182 183 264 274c-81 87 -161 172 -256 266c65 -11 155 -12 213 0c38 -58 88 -130 140 -195c50 65 101 137 138 195c62 -11 148 -12 214 0c-95 -93 -178 -178 -257 -265c80 -90 162 -180 263 -275h-224c-36 58 -85 136 -135 202c-52 -66 -100 -144 -137 -202
h-223z" />
    <glyph glyph-name="y" unicode="y" horiz-adv-x="744" 
d="M533 46v142h-13c-38 -119 -129 -183 -261 -183c-148 0 -202 93 -202 214c0 104 4 213 -14 301c56 0 112 6 167 24v-250c0 -92 31 -171 137 -171c110 0 166 63 166 189v208c55 0 110 6 166 24v-459c0 -115 -11 -311 -331 -311c-103 0 -208 21 -293 64c12 36 12 94 0 132
c64 -54 181 -85 278 -85c115 0 200 43 200 161z" />
    <glyph glyph-name="z" unicode="z" horiz-adv-x="679" 
d="M43 0c4 33 4 63 0 104c135 90 281 206 393 303v13c-139 0 -276 -10 -394 -16c4 48 4 95 0 143c158 -16 438 -16 588 0c-4 -40 -4 -82 0 -130c-142 -93 -282 -200 -387 -289v-11c134 0 284 12 394 24c-6 -57 -4 -94 0 -141h-594z" />
    <glyph glyph-name="braceleft" unicode="{" horiz-adv-x="410" 
d="M390 -205c-191 -23 -295 27 -280 220c10 135 57 244 -62 244v42c119 0 72 113 62 245c-15 194 90 242 280 219c-4 -30 -4 -57 0 -97c-86 26 -201 29 -178 -146c20 -152 8 -238 -91 -238v-8c100 0 111 -82 91 -238c-23 -175 92 -172 178 -146c-4 -37 -4 -67 0 -97z" />
    <glyph glyph-name="bar" unicode="|" horiz-adv-x="322" 
d="M120 807h79c-9 -233 -9 -807 0 -1040h-79c9 232 9 807 0 1040z" />
    <glyph glyph-name="braceright" unicode="}" horiz-adv-x="410" 
d="M20 -205c4 30 4 60 0 97c86 -26 200 -29 178 146c-21 156 -9 238 90 238v8c-98 0 -110 86 -90 238c23 175 -92 172 -178 146c4 40 4 67 0 97c189 23 295 -25 280 -219c-10 -132 -57 -245 62 -245v-42c-119 0 -72 -109 -62 -244c15 -193 -89 -243 -280 -220z" />
    <glyph glyph-name="asciitilde" unicode="~" horiz-adv-x="600" 
d="M60 295c-6 67 37 158 131 158c118 0 141 -96 221 -96c49 0 65 40 67 83h63c6 -70 -37 -158 -127 -158c-122 0 -143 96 -225 96c-49 0 -65 -43 -67 -83h-63z" />
    <glyph glyph-name="exclamdown" unicode="&#xa1;" horiz-adv-x="310" 
d="M154 611c-63 0 -94 22 -94 70c0 47 31 69 94 69c64 0 96 -22 96 -69c0 -48 -32 -70 -96 -70zM51 -8c21 182 30 345 25 530c61 -11 100 -12 159 0c-5 -183 4 -347 25 -530c-68 8 -141 8 -209 0z" />
    <glyph glyph-name="cent" unicode="&#xa2;" horiz-adv-x="725" 
d="M452 441c-3 -113 -3 -223 0 -336c93 6 171 38 230 88c-13 -38 -13 -103 0 -140c-69 -34 -145 -54 -226 -61c1 -45 3 -90 6 -137c-30 4 -60 4 -90 0l6 135c-224 5 -343 110 -343 283c0 172 119 277 343 283l-6 136c30 -4 60 -4 90 0c-3 -47 -5 -93 -6 -138
c81 -7 157 -26 226 -61c-13 -37 -13 -118 0 -156c-57 55 -138 96 -230 104zM192 273c0 -100 67 -157 189 -167c3 112 3 222 0 334c-122 -10 -189 -67 -189 -167z" />
    <glyph glyph-name="sterling" unicode="&#xa3;" horiz-adv-x="940" 
d="M886 166c-9 -74 -9 -116 0 -166h-812c9 44 9 84 0 128c63 7 139 59 139 131c0 18 -3 34 -9 49c-45 -2 -96 -5 -156 -8c4 30 4 59 0 89l117 -6c-20 35 -39 76 -39 136c0 145 122 239 382 239c99 0 233 -16 366 -82c-13 -55 -13 -112 0 -167c-99 72 -228 119 -347 119
c-141 0 -225 -47 -225 -150c0 -42 9 -73 20 -100c103 -1 197 2 355 11c-4 -30 -4 -59 0 -89c-144 8 -234 12 -327 12c5 -15 8 -29 8 -46c0 -86 -124 -129 -167 -131v-15c93 0 551 4 695 46z" />
    <glyph glyph-name="yen" unicode="&#xa5;" horiz-adv-x="891" 
d="M595 356c66 2 135 5 214 9c-4 -30 -4 -59 0 -89c-100 6 -186 9 -268 11c-2 -4 -5 -7 -8 -11c-2 -23 -4 -46 -5 -69c86 1 176 5 281 11c-4 -30 -4 -59 0 -89c-106 6 -196 10 -282 11c0 -46 2 -93 6 -140h-174c4 47 6 94 6 140c-86 -1 -176 -5 -282 -11c4 30 4 59 0 89
c105 -6 195 -10 281 -11c-1 23 -3 46 -5 69l-9 11c-81 -2 -167 -5 -267 -11c4 30 4 59 0 89c78 -4 148 -7 214 -9c-104 133 -211 262 -321 389c71 -9 157 -10 210 0c85 -125 172 -246 263 -363c91 117 178 238 262 363c53 -10 134 -9 204 0c-109 -127 -216 -256 -320 -389z
" />
    <glyph glyph-name="brokenbar" unicode="&#xa6;" horiz-adv-x="322" 
d="M125 403c0 163 -3 310 -6 404h79c-3 -94 -5 -241 -6 -404h-67zM192 171c0 -163 2 -312 6 -404h-79c4 92 6 241 6 404h67z" />
    <glyph glyph-name="section" unicode="&#xa7;" horiz-adv-x="848" 
d="M38 256c0 122 125 150 252 149v15c-97 10 -212 43 -212 161c0 152 185 175 354 175c126 0 224 -19 309 -45c-8 -48 -8 -96 0 -135c-98 42 -189 70 -331 70c-79 0 -176 -10 -176 -75c0 -158 578 12 578 -257c0 -130 -150 -161 -264 -161v-15c92 -10 227 -39 227 -163
c0 -149 -193 -177 -371 -177c-112 0 -209 17 -299 45c8 48 8 95 0 135c87 -41 184 -70 323 -70c87 0 191 10 191 83c0 155 -581 -2 -581 265zM423 393c-147 1 -227 -41 -227 -110c0 -72 87 -112 227 -109c149 -2 232 40 231 109c-1 70 -91 108 -231 110z" />
    <glyph glyph-name="dieresis" unicode="&#xa8;" horiz-adv-x="540" 
d="M128 634c-55 0 -84 20 -84 63s29 64 84 64c61 0 91 -21 91 -64s-30 -63 -91 -63zM404 634c-54 0 -83 20 -83 63s29 64 83 64c62 0 92 -21 92 -64s-30 -63 -92 -63z" />
    <glyph glyph-name="copyright" unicode="&#xa9;" horiz-adv-x="1096" 
d="M548 -38c-316 0 -502 145 -502 394c0 248 186 393 502 393s502 -145 502 -393c0 -249 -186 -394 -502 -394zM548 41c254 0 403 114 403 311c0 195 -149 311 -403 311c-257 0 -402 -116 -402 -311c0 -197 145 -311 402 -311zM557 154c-162 0 -248 72 -248 193
c0 122 86 194 248 194c71 0 137 -14 196 -43c-9 -25 -9 -82 0 -107c-44 41 -107 69 -180 69c-99 0 -154 -39 -154 -113c0 -73 55 -111 154 -111c74 0 135 21 180 56c-9 -25 -9 -70 0 -95c-59 -29 -125 -43 -196 -43z" />
    <glyph glyph-name="guillemotleft" unicode="&#xab;" horiz-adv-x="674" 
d="M48 273c87 65 163 127 230 211h110c-116 -84 -193 -178 -262 -211c69 -31 146 -129 262 -215h-110c-67 86 -145 152 -230 215zM254 273c91 65 181 127 250 211h110c-119 -84 -210 -178 -281 -211c71 -31 162 -129 281 -215h-110c-69 86 -160 152 -250 215z" />
    <glyph glyph-name="logicalnot" unicode="&#xac;" horiz-adv-x="600" 
d="M440 132c4 69 4 139 0 208c-125 3 -261 2 -373 -3c3 17 3 57 -1 75c131 -6 265 -6 451 0c-4 -94 -5 -186 -1 -280h-76z" />
    <glyph glyph-name="registered" unicode="&#xae;" horiz-adv-x="867" 
d="M434 202c-245 0 -388 111 -388 304c0 190 143 303 388 303c244 0 387 -112 387 -303c0 -193 -143 -304 -387 -304zM434 255c202 0 323 91 323 248c0 154 -121 248 -323 248c-207 0 -322 -93 -322 -248c0 -157 115 -248 322 -248zM286 366c4 70 4 208 0 278
c65 0 105 1 166 1c106 0 154 -28 154 -88c0 -70 -76 -79 -117 -79v-5c62 -7 106 -68 127 -107h-98c-9 50 -28 110 -126 110h-34c0 -54 2 -80 4 -110h-76zM357 512c26 -1 54 -3 87 -3c52 0 88 13 88 48c0 29 -31 43 -83 42c-33 0 -68 -2 -91 -2c0 -26 -1 -56 -1 -85z" />
    <glyph glyph-name="macron" unicode="&#xaf;" horiz-adv-x="600" 
d="M66 682c4 22 4 60 0 82c148 -5 338 -5 491 0c-4 -22 -4 -60 0 -82c-152 6 -343 6 -491 0z" />
    <glyph glyph-name="degree" unicode="&#xb0;" horiz-adv-x="396" 
d="M199 544c-104 0 -164 48 -164 132c0 83 60 132 164 132c103 0 162 -48 162 -132s-59 -132 -162 -132zM199 603c55 0 88 26 88 72s-33 72 -88 72c-57 0 -89 -26 -89 -72s32 -72 89 -72z" />
    <glyph glyph-name="plusminus" unicode="&#xb1;" horiz-adv-x="600" 
d="M547 461c-4 -20 -4 -52 0 -74c-76 3 -147 4 -218 4c1 -38 2 -78 5 -123c-25 4 -58 4 -80 0c2 46 4 86 4 123c-68 0 -137 -1 -210 -4c4 22 4 54 0 74c73 -2 142 -3 210 -4c0 38 -2 78 -4 124c22 -2 55 -2 80 0c-3 -46 -4 -85 -5 -124c71 1 142 2 218 4zM48 212
c164 -6 334 -6 499 0c-4 -20 -4 -52 0 -74c-164 5 -335 5 -499 0c4 22 4 54 0 74z" />
    <glyph glyph-name="acute" unicode="&#xb4;" horiz-adv-x="422" 
d="M80 630c45 52 100 128 137 180c43 -8 159 -8 204 0c-71 -52 -169 -128 -226 -180c-21 2 -90 2 -115 0z" />
    <glyph glyph-name="paragraph" unicode="&#xb6;" horiz-adv-x="636" 
d="M57 550c0 116 83 198 201 198h112c-8 -261 -8 -583 0 -844c-34 4 -76 4 -110 0c8 149 8 298 8 447c-118 0 -211 82 -211 199zM466 748c35 -4 79 -4 113 0c-8 -261 -8 -583 0 -844c-34 4 -78 4 -113 0c8 261 8 583 0 844z" />
    <glyph glyph-name="periodcentered" unicode="&#xb7;" horiz-adv-x="282" 
d="M141 198c-63 0 -95 21 -95 69c0 47 32 70 95 70s95 -23 95 -70c0 -48 -32 -69 -95 -69z" />
    <glyph glyph-name="cedilla" unicode="&#xb8;" horiz-adv-x="465" 
d="M239 -244c-75 0 -137 12 -201 48c4 25 4 50 0 73c52 -40 123 -60 191 -60c62 0 95 15 95 46c0 30 -34 51 -155 51l26 97h75l-23 -78c128 8 173 -32 173 -84c0 -56 -53 -93 -181 -93z" />
    <glyph glyph-name="guillemotright" unicode="&#xbb;" horiz-adv-x="672" 
d="M445 273c-89 -63 -180 -129 -249 -215h-110c119 86 209 184 281 215c-72 33 -162 127 -281 211h110c69 -84 158 -146 249 -211zM651 273c-85 -63 -163 -129 -230 -215h-110c116 86 194 184 262 215c-68 33 -146 127 -262 211h110c67 -84 144 -146 230 -211z" />
    <glyph glyph-name="questiondown" unicode="&#xbf;" horiz-adv-x="751" 
d="M402 552c63 0 95 -21 95 -69s-32 -70 -95 -70c-64 0 -96 22 -96 70s32 69 96 69zM487 326c-7 -178 -268 -193 -268 -320c0 -53 46 -96 153 -96c108 0 235 48 332 123c-13 -56 -13 -112 0 -168c-130 -68 -263 -85 -352 -85c-193 0 -312 84 -312 201c0 186 271 188 279 345
c48 -9 110 -9 168 0z" />
    <glyph glyph-name="Agrave" unicode="&#xc0;" horiz-adv-x="989" 
d="M547 831c-20 1 -102 1 -122 0c-64 43 -170 112 -246 162c42 -8 177 -8 219 0c42 -52 101 -120 149 -162zM975 0h-205c-19 50 -38 103 -59 156c-129 4 -307 4 -437 1c-23 -55 -44 -109 -64 -157h-196c121 248 233 497 338 745c72 -9 211 -13 283 0
c105 -248 219 -497 340 -745zM316 259c107 -3 247 -3 354 0c-55 138 -116 276 -180 394c-41 -76 -108 -234 -174 -394z" />
    <glyph glyph-name="Aacute" unicode="&#xc1;" horiz-adv-x="989" 
d="M544 831c-20 2 -102 2 -122 0c48 42 103 110 149 162c42 -8 176 -8 219 0c-81 -50 -183 -119 -246 -162zM975 0h-205c-19 50 -38 103 -59 156c-129 4 -307 4 -437 1c-23 -55 -44 -109 -64 -157h-196c121 248 233 497 338 745c72 -9 211 -13 283 0
c105 -248 219 -497 340 -745zM316 259c107 -3 247 -3 354 0c-55 138 -116 276 -180 394c-41 -76 -108 -234 -174 -394z" />
    <glyph glyph-name="Acircumflex" unicode="&#xc2;" horiz-adv-x="989" 
d="M398 837c-50 4 -108 4 -157 0c71 59 121 98 180 156c46 -2 97 -2 140 0c61 -57 112 -97 186 -156c-49 4 -103 4 -155 0c-34 38 -62 69 -99 102c-36 -33 -63 -64 -95 -102zM975 0h-205c-19 50 -38 103 -59 156c-129 4 -307 4 -437 1c-23 -55 -44 -109 -64 -157h-196
c121 248 233 497 338 745c72 -9 211 -13 283 0c105 -248 219 -497 340 -745zM316 259c107 -3 247 -3 354 0c-55 138 -116 276 -180 394c-41 -76 -108 -234 -174 -394z" />
    <glyph glyph-name="Atilde" unicode="&#xc3;" horiz-adv-x="989" 
d="M348 908c-45 0 -94 -12 -131 -53c-1 5 0 11 -1 17c15 78 52 138 161 138c101 0 150 -54 262 -54c39 0 91 8 132 51c1 -5 1 -10 1 -15c-14 -75 -51 -137 -158 -137c-104 0 -159 53 -266 53zM975 0h-205c-19 50 -38 103 -59 156c-129 4 -307 4 -437 1
c-23 -55 -44 -109 -64 -157h-196c121 248 233 497 338 745c72 -9 211 -13 283 0c105 -248 219 -497 340 -745zM316 259c107 -3 247 -3 354 0c-55 138 -116 276 -180 394c-41 -76 -108 -234 -174 -394z" />
    <glyph glyph-name="Adieresis" unicode="&#xc4;" horiz-adv-x="989" 
d="M340 835c-58 0 -89 18 -89 62c0 42 31 62 89 62c65 0 97 -20 97 -62c0 -44 -32 -62 -97 -62zM639 835c-58 0 -89 18 -89 62c0 42 31 62 89 62c66 0 97 -20 97 -62c0 -44 -31 -62 -97 -62zM975 0h-205c-19 50 -38 103 -59 156c-129 4 -307 4 -437 1
c-23 -55 -44 -109 -64 -157h-196c121 248 233 497 338 745c72 -9 211 -13 283 0c105 -248 219 -497 340 -745zM316 259c107 -3 247 -3 354 0c-55 138 -116 276 -180 394c-41 -76 -108 -234 -174 -394z" />
    <glyph glyph-name="Aring" unicode="&#xc5;" horiz-adv-x="989" 
d="M495 803c-98 0 -153 42 -153 116c0 73 55 116 153 116c95 0 150 -41 150 -116c0 -74 -55 -116 -150 -116zM495 977c-49 0 -78 -22 -78 -59s29 -57 78 -57c48 0 76 20 76 57s-28 59 -76 59zM975 0h-205c-19 50 -38 103 -59 156c-129 4 -307 4 -437 1
c-23 -55 -44 -109 -64 -157h-196c121 248 233 497 338 745c72 -9 211 -13 283 0c105 -248 219 -497 340 -745zM316 259c107 -3 247 -3 354 0c-55 138 -116 276 -180 394c-41 -76 -108 -234 -174 -394z" />
    <glyph glyph-name="AE" unicode="&#xc6;" horiz-adv-x="1483" 
d="M1424 584c-144 32 -401 52 -588 48c-5 -71 -7 -143 -6 -215c183 -4 367 4 505 17c-8 -44 -8 -89 0 -134c-139 12 -323 20 -505 16c-1 -70 2 -140 7 -209c187 -3 444 17 587 51c-8 -52 -8 -106 0 -158h-770c2 43 4 98 6 158c-117 2 -236 2 -354 0
c-36 -53 -73 -106 -110 -158h-196c189 244 370 493 542 745c243 -12 728 -13 882 -2c-8 -53 -8 -106 0 -159zM375 257c96 -3 191 -3 287 -1c2 138 2 287 0 387h-11c-92 -121 -184 -253 -276 -386z" />
    <glyph glyph-name="Ccedilla" unicode="&#xc7;" horiz-adv-x="1051" 
d="M546 -74c147 7 200 -35 201 -88c0 -60 -62 -98 -210 -98c-86 0 -158 13 -233 51c5 26 5 51 0 75c61 -41 142 -62 221 -62c73 0 110 15 110 48c0 31 -39 53 -179 53l24 81c-278 23 -434 169 -434 390c0 253 206 388 531 388c116 0 249 -17 409 -83c-7 -58 -7 -101 0 -159
c-161 97 -300 121 -400 122c-224 1 -366 -96 -366 -268c0 -162 120 -272 360 -272c142 0 281 41 406 159c-6 -59 4 -115 11 -155c-112 -82 -240 -124 -432 -125z" />
    <glyph glyph-name="Egrave" unicode="&#xc8;" horiz-adv-x="947" 
d="M402 829c-64 43 -170 112 -246 162c42 -8 177 -8 219 0c42 -52 101 -120 149 -162c-20 1 -102 1 -122 0zM86 0c12 190 12 561 0 745c122 -10 619 -17 802 -3c-4 -49 -4 -100 0 -150c-140 27 -432 43 -621 41c-2 -71 -3 -142 -2 -213c186 -3 417 5 552 14
c-4 -41 -4 -86 0 -126c-136 8 -366 15 -552 11c0 -67 0 -137 4 -206c190 -2 480 14 619 40c-4 -50 -4 -103 0 -153h-802z" />
    <glyph glyph-name="Eacute" unicode="&#xc9;" horiz-adv-x="947" 
d="M399 829c48 42 103 110 149 162c42 -8 176 -8 219 0c-81 -50 -183 -119 -246 -162c-20 2 -102 2 -122 0zM86 0c12 190 12 561 0 745c122 -10 619 -17 802 -3c-4 -49 -4 -100 0 -150c-140 27 -432 43 -621 41c-2 -71 -3 -142 -2 -213c186 -3 417 5 552 14
c-4 -41 -4 -86 0 -126c-136 8 -366 15 -552 11c0 -67 0 -137 4 -206c190 -2 480 14 619 40c-4 -50 -4 -103 0 -153h-802z" />
    <glyph glyph-name="Ecircumflex" unicode="&#xca;" horiz-adv-x="947" 
d="M219 835c71 59 121 98 180 156c46 -2 97 -2 140 0c61 -57 112 -97 186 -156c-49 4 -103 4 -155 0c-34 38 -62 69 -99 102c-36 -33 -63 -64 -95 -102c-50 4 -108 4 -157 0zM86 0c12 190 12 561 0 745c122 -10 619 -17 802 -3c-4 -49 -4 -100 0 -150
c-140 27 -432 43 -621 41c-2 -71 -3 -142 -2 -213c186 -3 417 5 552 14c-4 -41 -4 -86 0 -126c-136 8 -366 15 -552 11c0 -67 0 -137 4 -206c190 -2 480 14 619 40c-4 -50 -4 -103 0 -153h-802z" />
    <glyph glyph-name="Edieresis" unicode="&#xcb;" horiz-adv-x="947" 
d="M318 833c-58 0 -89 18 -89 62c0 42 31 62 89 62c65 0 97 -20 97 -62c0 -44 -32 -62 -97 -62zM617 833c-58 0 -89 18 -89 62c0 42 31 62 89 62c66 0 97 -20 97 -62c0 -44 -31 -62 -97 -62zM86 0c12 190 12 561 0 745c122 -10 619 -17 802 -3c-4 -49 -4 -100 0 -150
c-140 27 -432 43 -621 41c-2 -71 -3 -142 -2 -213c186 -3 417 5 552 14c-4 -41 -4 -86 0 -126c-136 8 -366 15 -552 11c0 -67 0 -137 4 -206c190 -2 480 14 619 40c-4 -50 -4 -103 0 -153h-802z" />
    <glyph glyph-name="Igrave" unicode="&#xcc;" horiz-adv-x="370" 
d="M115 831c-64 43 -170 112 -246 162c42 -8 177 -8 219 0c42 -52 101 -120 149 -162c-20 1 -102 1 -122 0zM90 0c12 187 12 558 0 745c64 -9 128 -10 188 0c-12 -187 -12 -560 2 -745h-190z" />
    <glyph glyph-name="Iacute" unicode="&#xcd;" horiz-adv-x="370" 
d="M112 831c48 42 103 110 149 162c42 -8 176 -8 219 0c-81 -50 -183 -119 -246 -162c-20 2 -102 2 -122 0zM90 0c12 187 12 558 0 745c64 -9 128 -10 188 0c-12 -187 -12 -560 2 -745h-190z" />
    <glyph glyph-name="Icircumflex" unicode="&#xce;" horiz-adv-x="357" 
d="M-50 837c62 59 105 98 156 156c46 -2 97 -2 140 0c53 -57 97 -97 162 -156c-49 4 -103 4 -155 0c-25 38 -47 69 -75 102c-27 -33 -47 -64 -71 -102c-50 4 -108 4 -157 0zM92 0c12 187 12 558 0 745c64 -9 127 -10 187 0c-11 -187 -11 -560 3 -745h-190z" />
    <glyph glyph-name="Idieresis" unicode="&#xcf;" horiz-adv-x="357" 
d="M47 855c-59 0 -89 19 -89 62c0 42 30 62 89 62c65 0 97 -20 97 -62c0 -43 -32 -62 -97 -62zM302 855c-58 0 -89 19 -89 62c0 42 31 62 89 62c65 0 97 -20 97 -62c0 -43 -32 -62 -97 -62zM91 0c12 187 12 558 0 745c65 -9 128 -10 188 0c-11 -187 -11 -560 2 -745h-190z
" />
    <glyph glyph-name="Eth" unicode="&#xd0;" horiz-adv-x="1103" 
d="M538 750c326 0 519 -139 519 -373c0 -238 -201 -379 -541 -379c-128 0 -269 2 -410 2c5 80 8 209 8 342c-45 -1 -91 -3 -136 -5c2 27 2 53 0 80c45 -2 91 -4 136 -5c0 130 -3 255 -8 333c190 0 296 5 432 5zM516 109c225 0 358 99 358 268c0 166 -131 263 -352 263
c-67 0 -151 -5 -239 -4c-1 -76 -2 -150 -2 -224c63 1 126 2 188 5c-1 -27 -1 -53 0 -80c-62 3 -125 5 -188 6l3 -226c57 -2 142 -8 232 -8z" />
    <glyph glyph-name="Ntilde" unicode="&#xd1;" horiz-adv-x="1075" 
d="M390 902c-45 0 -94 -12 -131 -53c-1 5 0 11 -1 17c15 78 52 138 161 138c101 0 150 -54 262 -54c39 0 91 8 132 51c1 -5 1 -10 1 -15c-14 -75 -51 -137 -158 -137c-104 0 -159 53 -266 53zM747 0c-157 205 -320 408 -490 606c-3 -201 0 -405 9 -606h-180
c8 248 8 497 0 745c66 -8 182 -10 248 0c154 -207 315 -411 483 -612c3 204 1 409 -9 612c63 -9 122 -10 178 0c-7 -248 -6 -497 3 -745h-242z" />
    <glyph glyph-name="Ograve" unicode="&#xd2;" horiz-adv-x="1097" 
d="M480 829c-64 43 -170 112 -246 162c42 -8 177 -8 219 0c42 -52 101 -120 149 -162c-20 1 -102 1 -122 0zM549 -15c-316 0 -503 143 -503 389c0 247 187 390 503 390s502 -144 502 -390s-186 -389 -502 -389zM549 97c206 0 330 99 330 273c0 176 -124 281 -330 281
c-208 0 -329 -105 -329 -281c0 -174 121 -273 329 -273z" />
    <glyph glyph-name="Oacute" unicode="&#xd3;" horiz-adv-x="1097" 
d="M477 829c48 42 103 110 149 162c42 -8 176 -8 219 0c-81 -50 -183 -119 -246 -162c-20 2 -102 2 -122 0zM549 -15c-316 0 -503 143 -503 389c0 247 187 390 503 390s502 -144 502 -390s-186 -389 -502 -389zM549 97c206 0 330 99 330 273c0 176 -124 281 -330 281
c-208 0 -329 -105 -329 -281c0 -174 121 -273 329 -273z" />
    <glyph glyph-name="Ocircumflex" unicode="&#xd4;" horiz-adv-x="1097" 
d="M296 835c71 59 121 98 180 156c46 -2 97 -2 140 0c61 -57 112 -97 186 -156c-49 4 -103 4 -155 0c-34 38 -62 69 -99 102c-36 -33 -63 -64 -95 -102c-50 4 -108 4 -157 0zM549 -15c-316 0 -503 143 -503 389c0 247 187 390 503 390s502 -144 502 -390
s-186 -389 -502 -389zM549 97c206 0 330 99 330 273c0 176 -124 281 -330 281c-208 0 -329 -105 -329 -281c0 -174 121 -273 329 -273z" />
    <glyph glyph-name="Otilde" unicode="&#xd5;" horiz-adv-x="1097" 
d="M669 853c-104 0 -159 53 -266 53c-45 0 -94 -12 -131 -53c-1 5 0 11 -1 17c15 78 52 138 161 138c101 0 150 -54 262 -54c39 0 91 8 132 51c1 -5 1 -10 1 -15c-14 -75 -51 -137 -158 -137zM549 -15c-316 0 -503 143 -503 389c0 247 187 390 503 390s502 -144 502 -390
s-186 -389 -502 -389zM549 97c206 0 330 99 330 273c0 176 -124 281 -330 281c-208 0 -329 -105 -329 -281c0 -174 121 -273 329 -273z" />
    <glyph glyph-name="Odieresis" unicode="&#xd6;" horiz-adv-x="1097" 
d="M395 833c-58 0 -89 18 -89 62c0 42 31 62 89 62c65 0 97 -20 97 -62c0 -44 -32 -62 -97 -62zM694 833c-58 0 -89 18 -89 62c0 42 31 62 89 62c66 0 97 -20 97 -62c0 -44 -31 -62 -97 -62zM549 -15c-316 0 -503 143 -503 389c0 247 187 390 503 390s502 -144 502 -390
s-186 -389 -502 -389zM549 97c206 0 330 99 330 273c0 176 -124 281 -330 281c-208 0 -329 -105 -329 -281c0 -174 121 -273 329 -273z" />
    <glyph glyph-name="multiply" unicode="&#xd7;" horiz-adv-x="533" 
d="M473 499c-56 -47 -108 -92 -160 -137c52 -46 104 -92 160 -139c-19 -12 -39 -31 -53 -50c-52 51 -102 99 -154 146c-50 -46 -100 -94 -153 -146c-14 19 -34 38 -53 50c56 47 108 93 159 138c-50 46 -102 91 -159 138c20 13 41 33 53 49c53 -51 103 -98 153 -144
c51 46 102 93 154 144c12 -16 32 -36 53 -49z" />
    <glyph glyph-name="Oslash" unicode="&#xd8;" horiz-adv-x="1097" 
d="M926 654c81 -66 125 -161 125 -280c0 -246 -186 -389 -502 -389c-134 0 -245 26 -328 74c-37 -32 -77 -66 -118 -102c-12 21 -34 45 -56 58c36 29 74 59 111 90c-73 65 -112 156 -112 269c0 247 187 389 503 389c127 0 232 -23 314 -66c36 32 71 63 104 93
c14 -22 37 -46 56 -58c-33 -27 -66 -52 -97 -78zM220 370c0 -69 19 -126 55 -170c165 135 333 276 480 403c-54 31 -123 48 -206 48c-208 0 -329 -105 -329 -281zM549 97c206 0 330 99 330 273c0 78 -24 142 -69 189c-154 -126 -294 -246 -481 -407c55 -36 129 -55 220 -55z
" />
    <glyph glyph-name="Ugrave" unicode="&#xd9;" horiz-adv-x="1034" 
d="M446 831c-64 43 -170 112 -246 162c42 -8 177 -8 219 0c42 -52 101 -120 149 -162c-20 1 -102 1 -122 0zM961 371c0 -247 -166 -393 -446 -393c-289 0 -445 146 -445 393c0 152 -2 283 -8 374c60 -9 130 -10 186 0c-6 -91 -8 -218 -8 -378c0 -173 93 -277 275 -277
c180 0 274 104 274 277c0 160 -1 287 -7 378c60 -9 130 -10 186 0c-5 -91 -7 -238 -7 -374z" />
    <glyph glyph-name="Uacute" unicode="&#xda;" horiz-adv-x="1034" 
d="M443 831c48 42 103 110 149 162c42 -8 176 -8 219 0c-81 -50 -183 -119 -246 -162c-20 2 -102 2 -122 0zM961 371c0 -247 -166 -393 -446 -393c-289 0 -445 146 -445 393c0 152 -2 283 -8 374c60 -9 130 -10 186 0c-6 -91 -8 -218 -8 -378c0 -173 93 -277 275 -277
c180 0 274 104 274 277c0 160 -1 287 -7 378c60 -9 130 -10 186 0c-5 -91 -7 -238 -7 -374z" />
    <glyph glyph-name="Ucircumflex" unicode="&#xdb;" horiz-adv-x="1034" 
d="M263 837c71 59 121 98 180 156c46 -2 97 -2 140 0c61 -57 112 -97 186 -156c-49 4 -103 4 -155 0c-34 38 -62 69 -99 102c-36 -33 -63 -64 -95 -102c-50 4 -108 4 -157 0zM961 371c0 -247 -166 -393 -446 -393c-289 0 -445 146 -445 393c0 152 -2 283 -8 374
c60 -9 130 -10 186 0c-6 -91 -8 -218 -8 -378c0 -173 93 -277 275 -277c180 0 274 104 274 277c0 160 -1 287 -7 378c60 -9 130 -10 186 0c-5 -91 -7 -238 -7 -374z" />
    <glyph glyph-name="Udieresis" unicode="&#xdc;" horiz-adv-x="1034" 
d="M362 835c-58 0 -89 18 -89 62c0 42 31 62 89 62c65 0 97 -20 97 -62c0 -44 -32 -62 -97 -62zM661 835c-58 0 -89 18 -89 62c0 42 31 62 89 62c66 0 97 -20 97 -62c0 -44 -31 -62 -97 -62zM961 371c0 -247 -166 -393 -446 -393c-289 0 -445 146 -445 393
c0 152 -2 283 -8 374c60 -9 130 -10 186 0c-6 -91 -8 -218 -8 -378c0 -173 93 -277 275 -277c180 0 274 104 274 277c0 160 -1 287 -7 378c60 -9 130 -10 186 0c-5 -91 -7 -238 -7 -374z" />
    <glyph glyph-name="Yacute" unicode="&#xdd;" horiz-adv-x="891" 
d="M501 823c-20 2 -102 2 -122 0c48 42 103 110 149 162c42 -8 176 -8 219 0c-81 -50 -183 -119 -246 -162zM915 745c-131 -152 -259 -308 -382 -469c-8 -92 -8 -184 0 -276h-174c8 92 8 184 0 276c-124 161 -251 317 -383 469c71 -9 157 -10 210 0
c85 -125 172 -246 263 -363c91 117 178 238 262 363c53 -10 134 -9 204 0z" />
    <glyph glyph-name="Thorn" unicode="&#xde;" horiz-adv-x="970" 
d="M550 621c287 0 382 -101 382 -247s-95 -244 -382 -244c-93 0 -186 -3 -280 -4l6 -126h-190c12 180 12 564 0 745c64 -9 127 -10 188 0l-6 -120c90 -2 186 -4 282 -4zM505 227c171 0 250 48 250 147c0 97 -79 150 -250 150c-80 0 -159 -2 -239 -4c-1 -92 -1 -191 1 -289
c80 -2 158 -4 238 -4z" />
    <glyph glyph-name="germandbls" unicode="&#xdf;" horiz-adv-x="821" 
d="M511 -18c-55 0 -118 9 -190 32c4 40 4 81 0 121c64 -27 117 -38 168 -38c83 0 128 43 128 102c0 94 -120 141 -291 131c4 27 4 55 0 82c135 -8 193 74 193 146c0 70 -51 118 -138 118c-104 0 -167 -67 -167 -203c0 -148 2 -294 12 -473h-169c9 187 10 341 5 485
c-5 169 63 307 326 307c197 0 304 -93 304 -209c0 -76 -47 -135 -152 -178c101 -2 249 -50 249 -206c0 -132 -106 -217 -278 -217z" />
    <glyph glyph-name="agrave" unicode="&#xe0;" horiz-adv-x="753" 
d="M419 629c-25 2 -94 2 -115 0c-57 52 -156 127 -227 179c45 -8 162 -8 205 0c37 -52 92 -127 137 -179zM710 0h-162c-14 42 -20 84 -23 124c-56 -84 -128 -139 -265 -139c-146 0 -216 65 -216 149c0 98 100 160 305 160h174c-5 90 -36 149 -180 149
c-116 0 -224 -42 -282 -98c7 39 7 109 0 143c75 35 174 67 305 67c196 0 310 -64 310 -246c1 -128 7 -222 34 -309zM338 91c72 0 135 22 186 56c-1 31 0 61 0 88v17h-85c-148 0 -226 -24 -226 -85c0 -48 43 -76 125 -76z" />
    <glyph glyph-name="aacute" unicode="&#xe1;" horiz-adv-x="753" 
d="M418 629c-21 2 -90 2 -115 0c45 52 101 127 137 179c44 -8 160 -8 205 0c-71 -52 -170 -127 -227 -179zM710 0h-162c-14 42 -20 84 -23 124c-56 -84 -128 -139 -265 -139c-146 0 -216 65 -216 149c0 98 100 160 305 160h174c-5 90 -36 149 -180 149
c-116 0 -224 -42 -282 -98c7 39 7 109 0 143c75 35 174 67 305 67c196 0 310 -64 310 -246c1 -128 7 -222 34 -309zM338 91c72 0 135 22 186 56c-1 31 0 61 0 88v17h-85c-148 0 -226 -24 -226 -85c0 -48 43 -76 125 -76z" />
    <glyph glyph-name="acircumflex" unicode="&#xe2;" horiz-adv-x="753" 
d="M276 629c-45 4 -91 4 -137 0c65 69 108 120 156 181c43 -3 88 -3 131 0c52 -61 99 -112 170 -181c-47 4 -97 4 -143 0c-32 43 -55 73 -90 114c-33 -41 -57 -71 -87 -114zM710 0h-162c-14 42 -20 84 -23 124c-56 -84 -128 -139 -265 -139c-146 0 -216 65 -216 149
c0 98 100 160 305 160h174c-5 90 -36 149 -180 149c-116 0 -224 -42 -282 -98c7 39 7 109 0 143c75 35 174 67 305 67c196 0 310 -64 310 -246c1 -128 7 -222 34 -309zM338 91c72 0 135 22 186 56c-1 31 0 61 0 88v17h-85c-148 0 -226 -24 -226 -85c0 -48 43 -76 125 -76z
" />
    <glyph glyph-name="atilde" unicode="&#xe3;" horiz-adv-x="753" 
d="M244 711c-39 0 -80 -12 -111 -61c-2 2 -3 4 -4 8c19 80 43 148 139 148c86 0 127 -54 222 -54c33 0 77 8 112 51c0 -3 2 -6 2 -10c-15 -72 -42 -136 -134 -136c-90 0 -136 54 -226 54zM710 0h-162c-14 42 -20 84 -23 124c-56 -84 -128 -139 -265 -139
c-146 0 -216 65 -216 149c0 98 100 160 305 160h174c-5 90 -36 149 -180 149c-116 0 -224 -42 -282 -98c7 39 7 109 0 143c75 35 174 67 305 67c196 0 310 -64 310 -246c1 -128 7 -222 34 -309zM338 91c72 0 135 22 186 56c-1 31 0 61 0 88v17h-85c-148 0 -226 -24 -226 -85
c0 -48 43 -76 125 -76z" />
    <glyph glyph-name="adieresis" unicode="&#xe4;" horiz-adv-x="753" 
d="M224 634c-55 0 -84 20 -84 63s29 63 84 63c61 0 92 -20 92 -63s-31 -63 -92 -63zM502 634c-55 0 -84 20 -84 63s29 63 84 63c61 0 91 -20 91 -63s-30 -63 -91 -63zM710 0h-162c-14 42 -20 84 -23 124c-56 -84 -128 -139 -265 -139c-146 0 -216 65 -216 149
c0 98 100 160 305 160h174c-5 90 -36 149 -180 149c-116 0 -224 -42 -282 -98c7 39 7 109 0 143c75 35 174 67 305 67c196 0 310 -64 310 -246c1 -128 7 -222 34 -309zM338 91c72 0 135 22 186 56c-1 31 0 61 0 88v17h-85c-148 0 -226 -24 -226 -85c0 -48 43 -76 125 -76z
" />
    <glyph glyph-name="aring" unicode="&#xe5;" horiz-adv-x="753" 
d="M368 615c-89 0 -139 40 -139 111c0 70 50 112 139 112c87 0 137 -41 137 -112s-50 -111 -137 -111zM368 782c-46 0 -72 -20 -72 -57c0 -35 26 -55 72 -55c45 0 71 20 71 55c0 37 -26 57 -71 57zM710 0h-162c-14 42 -20 84 -23 124c-56 -84 -128 -139 -265 -139
c-146 0 -216 65 -216 149c0 98 100 160 305 160h174c-5 90 -36 149 -180 149c-116 0 -224 -42 -282 -98c7 39 7 109 0 143c75 35 174 67 305 67c196 0 310 -64 310 -246c1 -128 7 -222 34 -309zM338 91c72 0 135 22 186 56c-1 31 0 61 0 88v17h-85c-148 0 -226 -24 -226 -85
c0 -48 43 -76 125 -76z" />
    <glyph glyph-name="ae" unicode="&#xe6;" horiz-adv-x="1232" 
d="M1184 186c-13 -38 -13 -100 0 -137c-86 -42 -197 -63 -294 -63c-166 0 -274 51 -322 146c-66 -93 -153 -147 -308 -147c-146 0 -216 65 -216 149c0 103 100 162 305 162h191c-1 78 -27 147 -197 147c-116 0 -224 -42 -282 -99c7 40 7 110 0 144c75 35 174 67 305 67
c111 0 193 -25 242 -102c44 68 131 104 241 104c193 0 352 -107 331 -308c-223 4 -386 4 -490 1c11 -95 72 -154 218 -151c87 2 210 34 276 87zM849 450c-97 0 -160 -50 -161 -152c94 -5 215 -5 329 -1c-9 100 -74 153 -168 153zM338 91c82 0 157 24 219 66
c-10 29 -16 61 -17 97h-101c-148 0 -226 -21 -226 -87c0 -48 43 -76 125 -76z" />
    <glyph glyph-name="ccedilla" unicode="&#xe7;" horiz-adv-x="725" 
d="M421 442c-147 0 -229 -59 -229 -169s82 -169 229 -169c106 0 196 34 261 89c-13 -38 -13 -104 0 -140c-83 -42 -177 -63 -279 -64l-16 -55c128 7 174 -32 174 -83c0 -56 -54 -93 -182 -93c-75 0 -138 12 -202 48c4 25 4 50 0 72c52 -39 123 -59 192 -59c62 0 95 15 95 46
c0 30 -34 50 -156 50l22 77c-193 19 -295 120 -295 281c0 177 125 283 361 283c104 0 201 -21 286 -63c-13 -37 -13 -119 0 -156c-63 61 -156 105 -261 105z" />
    <glyph glyph-name="egrave" unicode="&#xe8;" horiz-adv-x="754" 
d="M426 629c-25 2 -94 2 -115 0c-57 52 -156 127 -227 179c45 -8 162 -8 205 0c37 -52 92 -127 137 -179zM706 186c-9 -38 -9 -100 0 -137c-85 -42 -196 -63 -303 -63c-243 0 -368 107 -368 285c0 180 128 286 331 286c200 0 357 -107 336 -308c-227 4 -398 4 -501 1
c13 -93 76 -153 220 -151c96 2 220 34 285 87zM366 450c-100 0 -162 -52 -167 -151c96 -3 223 -3 340 -1c-12 99 -77 152 -173 152z" />
    <glyph glyph-name="eacute" unicode="&#xe9;" horiz-adv-x="754" 
d="M425 629c-21 2 -90 2 -115 0c45 52 101 127 137 179c44 -8 160 -8 205 0c-71 -52 -170 -127 -227 -179zM706 186c-9 -38 -9 -100 0 -137c-85 -42 -196 -63 -303 -63c-243 0 -368 107 -368 285c0 180 128 286 331 286c200 0 357 -107 336 -308c-227 4 -398 4 -501 1
c13 -93 76 -153 220 -151c96 2 220 34 285 87zM366 450c-100 0 -162 -52 -167 -151c96 -3 223 -3 340 -1c-12 99 -77 152 -173 152z" />
    <glyph glyph-name="ecircumflex" unicode="&#xea;" horiz-adv-x="754" 
d="M283 629c-45 4 -91 4 -137 0c65 69 108 120 156 181c43 -3 88 -3 131 0c52 -61 99 -112 170 -181c-47 4 -97 4 -143 0c-32 43 -55 73 -90 114c-33 -41 -57 -71 -87 -114zM706 186c-9 -38 -9 -100 0 -137c-85 -42 -196 -63 -303 -63c-243 0 -368 107 -368 285
c0 180 128 286 331 286c200 0 357 -107 336 -308c-227 4 -398 4 -501 1c13 -93 76 -153 220 -151c96 2 220 34 285 87zM366 450c-100 0 -162 -52 -167 -151c96 -3 223 -3 340 -1c-12 99 -77 152 -173 152z" />
    <glyph glyph-name="edieresis" unicode="&#xeb;" horiz-adv-x="754" 
d="M230 634c-55 0 -84 20 -84 63s29 63 84 63c61 0 92 -20 92 -63s-31 -63 -92 -63zM508 634c-55 0 -84 20 -84 63s29 63 84 63c61 0 91 -20 91 -63s-30 -63 -91 -63zM706 186c-9 -38 -9 -100 0 -137c-85 -42 -196 -63 -303 -63c-243 0 -368 107 -368 285
c0 180 128 286 331 286c200 0 357 -107 336 -308c-227 4 -398 4 -501 1c13 -93 76 -153 220 -151c96 2 220 34 285 87zM366 450c-100 0 -162 -52 -167 -151c96 -3 223 -3 340 -1c-12 99 -77 152 -173 152z" />
    <glyph glyph-name="igrave" unicode="&#xec;" horiz-adv-x="290" 
d="M80 629c-47 52 -129 127 -188 179c44 -8 161 -8 204 0c26 -52 66 -127 99 -179c-25 1 -94 1 -115 0zM57 538c60 -10 118 -12 176 0c-13 -184 -13 -354 0 -538h-176c12 183 12 352 0 538z" />
    <glyph glyph-name="iacute" unicode="&#xed;" horiz-adv-x="290" 
d="M78 629c33 52 73 127 99 179c43 -8 160 -8 205 0c-60 -52 -142 -127 -188 -179c-22 1 -90 1 -116 0zM57 538c60 -10 118 -12 176 0c-13 -184 -13 -354 0 -538h-176c12 183 12 352 0 538z" />
    <glyph glyph-name="icircumflex" unicode="&#xee;" horiz-adv-x="290" 
d="M-60 627c58 68 96 120 138 180c40 -2 83 -2 124 0c44 -60 84 -112 144 -180c-47 4 -96 4 -143 0c-22 42 -38 72 -63 114c-23 -42 -39 -72 -59 -114c-46 4 -94 4 -141 0zM57 538c60 -10 118 -12 176 0c-13 -184 -13 -354 0 -538h-176c12 183 12 352 0 538z" />
    <glyph glyph-name="idieresis" unicode="&#xef;" horiz-adv-x="290" 
d="M15 632c-55 0 -84 20 -84 63s29 63 84 63c61 0 92 -20 92 -63s-31 -63 -92 -63zM261 632c-55 0 -84 20 -84 63s29 63 84 63c61 0 91 -20 91 -63s-30 -63 -91 -63zM57 538c60 -10 118 -12 176 0c-13 -184 -13 -354 0 -538h-176c12 183 12 352 0 538z" />
    <glyph glyph-name="eth" unicode="&#xf0;" horiz-adv-x="794" 
d="M539 713c147 -93 204 -244 204 -385c0 -156 -75 -343 -351 -343c-233 0 -357 126 -357 293c0 163 116 269 289 269c181 0 255 -119 274 -199h14c-2 148 -69 252 -160 317c-44 -25 -83 -50 -113 -71c-9 22 -20 37 -36 56c27 11 61 27 98 46c-64 33 -136 50 -203 52
c12 18 19 36 24 54c105 -5 192 -27 262 -59c39 22 79 47 116 71c10 -22 21 -37 37 -56c-32 -13 -65 -29 -98 -45zM395 80c70 0 186 31 186 175c0 120 -89 190 -194 190c-104 0 -190 -67 -190 -179c0 -118 90 -186 198 -186z" />
    <glyph glyph-name="ntilde" unicode="&#xf1;" horiz-adv-x="771" 
d="M284 810c86 0 127 -54 222 -54c33 0 77 8 112 51c0 -3 2 -6 2 -10c-15 -72 -42 -136 -134 -136c-90 0 -136 54 -226 54c-39 0 -80 -12 -111 -61c-2 2 -3 4 -4 8c19 80 43 148 139 148zM62 0c22 158 22 317 0 523c67 4 144 16 186 35c-19 -78 -27 -139 -32 -215h14
c39 122 136 213 266 213c155 0 207 -106 207 -230c0 -106 -4 -229 13 -326h-170v235c0 119 -50 195 -144 195c-107 0 -166 -88 -166 -214v-216h-174z" />
    <glyph glyph-name="ograve" unicode="&#xf2;" horiz-adv-x="765" 
d="M320 632c-57 52 -156 127 -227 179c45 -8 162 -8 205 0c37 -52 92 -127 137 -179c-25 2 -94 2 -115 0zM383 -14c-219 0 -348 106 -348 285s129 284 348 284c218 0 347 -105 347 -284s-129 -285 -347 -285zM383 86c115 0 183 67 183 185c0 109 -68 177 -183 177
c-117 0 -184 -68 -184 -177c0 -118 67 -185 184 -185z" />
    <glyph glyph-name="oacute" unicode="&#xf3;" horiz-adv-x="765" 
d="M319 632c45 52 101 127 137 179c44 -8 160 -8 205 0c-71 -52 -170 -127 -227 -179c-21 2 -90 2 -115 0zM383 -14c-219 0 -348 106 -348 285s129 284 348 284c218 0 347 -105 347 -284s-129 -285 -347 -285zM383 86c115 0 183 67 183 185c0 109 -68 177 -183 177
c-117 0 -184 -68 -184 -177c0 -118 67 -185 184 -185z" />
    <glyph glyph-name="ocircumflex" unicode="&#xf4;" horiz-adv-x="765" 
d="M155 632c65 69 108 120 156 181c43 -3 88 -3 131 0c52 -61 99 -112 170 -181c-47 4 -97 4 -143 0c-32 43 -55 73 -90 114c-33 -41 -57 -71 -87 -114c-45 4 -91 4 -137 0zM383 -14c-219 0 -348 106 -348 285s129 284 348 284c218 0 347 -105 347 -284s-129 -285 -347 -285
zM383 86c115 0 183 67 183 185c0 109 -68 177 -183 177c-117 0 -184 -68 -184 -177c0 -118 67 -185 184 -185z" />
    <glyph glyph-name="otilde" unicode="&#xf5;" horiz-adv-x="765" 
d="M284 809c86 0 127 -54 222 -54c33 0 77 8 112 51c0 -3 2 -6 2 -10c-15 -72 -42 -136 -134 -136c-90 0 -136 54 -226 54c-39 0 -80 -12 -111 -61c-2 2 -3 4 -4 8c19 80 43 148 139 148zM383 -14c-219 0 -348 106 -348 285s129 284 348 284c218 0 347 -105 347 -284
s-129 -285 -347 -285zM383 86c115 0 183 67 183 185c0 109 -68 177 -183 177c-117 0 -184 -68 -184 -177c0 -118 67 -185 184 -185z" />
    <glyph glyph-name="odieresis" unicode="&#xf6;" horiz-adv-x="765" 
d="M239 637c-55 0 -84 20 -84 63s29 63 84 63c61 0 92 -20 92 -63s-31 -63 -92 -63zM517 637c-55 0 -84 20 -84 63s29 63 84 63c61 0 91 -20 91 -63s-30 -63 -91 -63zM383 -14c-219 0 -348 106 -348 285s129 284 348 284c218 0 347 -105 347 -284s-129 -285 -347 -285z
M383 86c115 0 183 67 183 185c0 109 -68 177 -183 177c-117 0 -184 -68 -184 -177c0 -118 67 -185 184 -185z" />
    <glyph glyph-name="divide" unicode="&#xf7;" horiz-adv-x="592" 
d="M292 497c-49 0 -76 15 -76 52c0 35 27 52 76 52c56 0 84 -17 84 -52c0 -37 -28 -52 -84 -52zM560 396c-5 -20 -5 -52 0 -74c-181 6 -347 6 -528 0c5 22 5 54 0 74c181 -5 346 -5 528 0zM292 117c-49 0 -76 16 -76 52c0 35 27 52 76 52c56 0 84 -17 84 -52
c0 -36 -28 -52 -84 -52z" />
    <glyph glyph-name="oslash" unicode="&#xf8;" horiz-adv-x="781" 
d="M750 528c-28 -22 -56 -45 -83 -68c45 -47 69 -110 69 -187c0 -181 -128 -291 -346 -287c-89 1 -163 19 -220 51c-31 -27 -63 -55 -94 -83c-9 15 -25 32 -43 44c30 24 60 49 90 74c-53 48 -81 116 -81 201c0 177 128 282 348 282c96 0 175 -20 232 -58c29 25 57 50 85 75
c11 -17 29 -36 43 -44zM205 269c0 -43 9 -79 27 -108c97 81 192 163 287 245c-32 27 -76 42 -130 42c-117 0 -184 -68 -184 -179zM573 269c0 37 -8 69 -22 96c-95 -80 -190 -161 -284 -243c30 -24 72 -36 122 -36c116 0 184 67 184 183z" />
    <glyph glyph-name="ugrave" unicode="&#xf9;" horiz-adv-x="737" 
d="M295 632c-57 52 -156 127 -227 179c45 -8 162 -8 205 0c37 -52 92 -127 137 -179c-25 2 -94 2 -115 0zM680 550c-23 -157 -23 -344 0 -550h-185c17 68 28 136 30 187h-13c-38 -123 -131 -198 -261 -198c-150 0 -196 106 -196 230c0 104 4 219 -14 308c56 -1 107 5 163 23
v-256c0 -108 41 -178 134 -178c123 0 168 84 168 197v214c57 -1 116 5 174 23z" />
    <glyph glyph-name="uacute" unicode="&#xfa;" horiz-adv-x="737" 
d="M293 632c45 52 101 127 137 179c44 -8 160 -8 205 0c-71 -52 -170 -127 -227 -179c-21 2 -90 2 -115 0zM680 550c-23 -157 -23 -344 0 -550h-185c17 68 28 136 30 187h-13c-38 -123 -131 -198 -261 -198c-150 0 -196 106 -196 230c0 104 4 219 -14 308
c56 -1 107 5 163 23v-256c0 -108 41 -178 134 -178c123 0 168 84 168 197v214c57 -1 116 5 174 23z" />
    <glyph glyph-name="ucircumflex" unicode="&#xfb;" horiz-adv-x="737" 
d="M130 632c65 69 108 120 156 181c43 -3 88 -3 131 0c52 -61 99 -112 170 -181c-47 4 -97 4 -143 0c-32 43 -55 73 -90 114c-33 -41 -57 -71 -87 -114c-45 4 -91 4 -137 0zM680 550c-23 -157 -23 -344 0 -550h-185c17 68 28 136 30 187h-13c-38 -123 -131 -198 -261 -198
c-150 0 -196 106 -196 230c0 104 4 219 -14 308c56 -1 107 5 163 23v-256c0 -108 41 -178 134 -178c123 0 168 84 168 197v214c57 -1 116 5 174 23z" />
    <glyph glyph-name="udieresis" unicode="&#xfc;" horiz-adv-x="737" 
d="M214 637c-55 0 -84 20 -84 63s29 63 84 63c61 0 92 -20 92 -63s-31 -63 -92 -63zM492 637c-55 0 -84 20 -84 63s29 63 84 63c61 0 91 -20 91 -63s-30 -63 -91 -63zM680 550c-23 -157 -23 -344 0 -550h-185c17 68 28 136 30 187h-13c-38 -123 -131 -198 -261 -198
c-150 0 -196 106 -196 230c0 104 4 219 -14 308c56 -1 107 5 163 23v-256c0 -108 41 -178 134 -178c123 0 168 84 168 197v214c57 -1 116 5 174 23z" />
    <glyph glyph-name="yacute" unicode="&#xfd;" horiz-adv-x="744" 
d="M297 632c45 52 101 127 137 179c44 -8 160 -8 205 0c-71 -52 -170 -127 -227 -179c-21 2 -90 2 -115 0zM533 46v142h-13c-38 -119 -129 -183 -261 -183c-148 0 -202 93 -202 214c0 104 4 213 -14 301c56 0 112 6 167 24v-250c0 -92 31 -171 137 -171
c110 0 166 63 166 189v208c55 0 110 6 166 24v-459c0 -115 -11 -311 -331 -311c-103 0 -208 21 -293 64c12 36 12 94 0 132c64 -54 181 -85 278 -85c115 0 200 43 200 161z" />
    <glyph glyph-name="thorn" unicode="&#xfe;" horiz-adv-x="785" 
d="M493 557c149 0 257 -111 257 -273c0 -174 -123 -300 -312 -300c-89 0 -165 26 -207 80c1 -88 5 -176 15 -264c-72 9 -132 9 -189 2c22 179 22 694 0 931c67 4 143 16 186 35c-19 -78 -27 -290 -32 -397h13c41 93 132 186 269 186zM382 64c114 0 206 73 206 211
c0 102 -62 171 -172 171c-153 0 -186 -125 -186 -233v-86c48 -48 103 -63 152 -63z" />
    <glyph glyph-name="ydieresis" unicode="&#xff;" horiz-adv-x="744" 
d="M218 637c-55 0 -84 20 -84 63s29 63 84 63c61 0 92 -20 92 -63s-31 -63 -92 -63zM496 637c-55 0 -84 20 -84 63s29 63 84 63c61 0 91 -20 91 -63s-30 -63 -91 -63zM533 46v142h-13c-38 -119 -129 -183 -261 -183c-148 0 -202 93 -202 214c0 104 4 213 -14 301
c56 0 112 6 167 24v-250c0 -92 31 -171 137 -171c110 0 166 63 166 189v208c55 0 110 6 166 24v-459c0 -115 -11 -311 -331 -311c-103 0 -208 21 -293 64c12 36 12 94 0 132c64 -54 181 -85 278 -85c115 0 200 43 200 161z" />
    <glyph glyph-name="Amacron" unicode="&#x100;" horiz-adv-x="989" 
d="M750 851c-152 5 -363 5 -511 0c4 22 4 67 0 90c148 -6 358 -6 511 0c-4 -23 -4 -68 0 -90zM975 0h-205c-19 50 -38 103 -59 156c-129 4 -307 4 -437 1c-23 -55 -44 -109 -64 -157h-196c121 248 233 497 338 745c72 -9 211 -13 283 0c105 -248 219 -497 340 -745zM316 259
c107 -3 247 -3 354 0c-55 138 -116 276 -180 394c-41 -76 -108 -234 -174 -394z" />
    <glyph glyph-name="amacron" unicode="&#x101;" horiz-adv-x="753" 
d="M613 676c-152 6 -343 6 -491 0c4 22 4 60 0 82c148 -5 338 -5 491 0c-4 -22 -4 -60 0 -82zM710 0h-162c-14 42 -20 84 -23 124c-56 -84 -128 -139 -265 -139c-146 0 -216 65 -216 149c0 98 100 160 305 160h174c-5 90 -36 149 -180 149c-116 0 -224 -42 -282 -98
c7 39 7 109 0 143c75 35 174 67 305 67c196 0 310 -64 310 -246c1 -128 7 -222 34 -309zM338 91c72 0 135 22 186 56c-1 31 0 61 0 88v17h-85c-148 0 -226 -24 -226 -85c0 -48 43 -76 125 -76z" />
    <glyph glyph-name="Abreve" unicode="&#x102;" horiz-adv-x="989" 
d="M495 842c-132 0 -216 76 -217 174h110c1 -50 37 -92 107 -92c71 0 107 42 108 92h117c-1 -103 -97 -174 -225 -174zM975 0h-205c-19 50 -38 103 -59 156c-129 4 -307 4 -437 1c-23 -55 -44 -109 -64 -157h-196c121 248 233 497 338 745c72 -9 211 -13 283 0
c105 -248 219 -497 340 -745zM316 259c107 -3 247 -3 354 0c-55 138 -116 276 -180 394c-41 -76 -108 -234 -174 -394z" />
    <glyph glyph-name="abreve" unicode="&#x103;" horiz-adv-x="753" 
d="M368 629c-132 0 -216 76 -217 174h110c1 -50 37 -92 107 -92c71 0 107 42 108 92h117c-1 -103 -97 -174 -225 -174zM710 0h-162c-14 42 -20 84 -23 124c-56 -84 -128 -139 -265 -139c-146 0 -216 65 -216 149c0 98 100 160 305 160h174c-5 90 -36 149 -180 149
c-116 0 -224 -42 -282 -98c7 39 7 109 0 143c75 35 174 67 305 67c196 0 310 -64 310 -246c1 -128 7 -222 34 -309zM338 91c72 0 135 22 186 56c-1 31 0 61 0 88v17h-85c-148 0 -226 -24 -226 -85c0 -48 43 -76 125 -76z" />
    <glyph glyph-name="Aogonek" unicode="&#x104;" horiz-adv-x="989" 
d="M820 -82c0 -52 54 -67 91 -70l2 -95c-120 -13 -222 42 -222 143c0 54 31 87 78 105c-18 50 -38 102 -58 155c-129 4 -307 4 -437 1c-23 -55 -44 -109 -64 -157h-196c121 248 233 497 338 745c72 -9 211 -13 283 0c105 -248 219 -497 340 -745c-91 -10 -155 -29 -155 -82z
M316 259c107 -3 247 -3 354 0c-55 138 -116 276 -180 394c-41 -76 -108 -234 -174 -394z" />
    <glyph glyph-name="aogonek" unicode="&#x105;" horiz-adv-x="753" 
d="M567 -79c0 -48 51 -55 86 -58v-90c-113 -14 -210 36 -210 127c0 61 42 94 102 108c-12 39 -17 78 -20 116c-56 -84 -128 -139 -265 -139c-146 0 -216 65 -216 149c0 98 100 160 305 160h174c-5 90 -36 149 -180 149c-116 0 -224 -42 -282 -98c7 39 7 109 0 143
c75 35 174 67 305 67c196 0 310 -64 310 -246c1 -128 7 -222 34 -309c-83 -8 -143 -34 -143 -79zM338 91c72 0 135 22 186 56c-1 31 0 61 0 88v17h-85c-148 0 -226 -24 -226 -85c0 -48 43 -76 125 -76z" />
    <glyph glyph-name="Cacute" unicode="&#x106;" horiz-adv-x="1051" 
d="M456 827c48 42 103 110 149 162c42 -8 176 -8 219 0c-81 -50 -183 -119 -246 -162c-20 2 -102 2 -122 0zM561 -17c-329 0 -515 151 -515 393c0 253 206 388 531 388c116 0 249 -17 409 -83c-7 -58 -7 -101 0 -159c-161 97 -300 121 -400 122c-224 1 -366 -96 -366 -268
c0 -162 120 -272 360 -272c142 0 281 41 406 159c-6 -59 4 -115 11 -155c-113 -82 -242 -125 -436 -125z" />
    <glyph glyph-name="cacute" unicode="&#x107;" horiz-adv-x="725" 
d="M326 632c45 52 101 127 137 179c44 -8 160 -8 205 0c-71 -52 -170 -127 -227 -179c-21 2 -90 2 -115 0zM396 -11c-236 0 -361 106 -361 284c0 177 125 283 361 283c104 0 201 -21 286 -63c-13 -37 -13 -119 0 -156c-63 61 -156 105 -261 105c-147 0 -229 -59 -229 -169
s82 -169 229 -169c106 0 196 34 261 89c-13 -38 -13 -104 0 -140c-85 -43 -182 -64 -286 -64z" />
    <glyph glyph-name="Cdotaccent" unicode="&#x10a;" horiz-adv-x="1051" 
d="M524 826c-66 0 -100 22 -100 70c0 47 34 69 100 69c72 0 108 -22 108 -69c0 -48 -36 -70 -108 -70zM561 -17c-329 0 -515 151 -515 393c0 253 206 388 531 388c116 0 249 -17 409 -83c-7 -58 -7 -101 0 -159c-161 97 -300 121 -400 122c-224 1 -366 -96 -366 -268
c0 -162 120 -272 360 -272c142 0 281 41 406 159c-6 -59 4 -115 11 -155c-113 -82 -242 -125 -436 -125z" />
    <glyph glyph-name="cdotaccent" unicode="&#x10b;" horiz-adv-x="725" 
d="M386 633c-66 0 -100 22 -100 69s34 69 100 69c73 0 109 -22 109 -69s-36 -69 -109 -69zM396 -11c-236 0 -361 106 -361 284c0 177 125 283 361 283c104 0 201 -21 286 -63c-13 -37 -13 -119 0 -156c-63 61 -156 105 -261 105c-147 0 -229 -59 -229 -169s82 -169 229 -169
c106 0 196 34 261 89c-13 -38 -13 -104 0 -140c-85 -43 -182 -64 -286 -64z" />
    <glyph glyph-name="Ccaron" unicode="&#x10c;" horiz-adv-x="1051" 
d="M273 994c50 -4 109 -4 160 0c32 -37 58 -69 94 -101c38 32 66 64 100 101c52 -4 107 -4 157 0c-75 -59 -128 -98 -190 -156c-42 3 -92 3 -137 0c-60 59 -111 98 -184 156zM561 -17c-329 0 -515 151 -515 393c0 253 206 388 531 388c116 0 249 -17 409 -83
c-7 -58 -7 -101 0 -159c-161 97 -300 121 -400 122c-224 1 -366 -96 -366 -268c0 -162 120 -272 360 -272c142 0 281 41 406 159c-6 -59 4 -115 11 -155c-113 -82 -242 -125 -436 -125z" />
    <glyph glyph-name="ccaron" unicode="&#x10d;" horiz-adv-x="725" 
d="M326 631c-50 61 -95 112 -164 181c47 -4 96 -4 142 0c29 -43 52 -73 85 -114c34 41 57 71 88 114c47 -4 93 -4 141 0c-72 -69 -119 -120 -171 -181c-40 3 -82 3 -121 0zM396 -11c-236 0 -361 106 -361 284c0 177 125 283 361 283c104 0 201 -21 286 -63
c-13 -37 -13 -119 0 -156c-63 61 -156 105 -261 105c-147 0 -229 -59 -229 -169s82 -169 229 -169c106 0 196 34 261 89c-13 -38 -13 -104 0 -140c-85 -43 -182 -64 -286 -64z" />
    <glyph glyph-name="Dcaron" unicode="&#x10e;" horiz-adv-x="1083" 
d="M293 997c50 -4 109 -4 160 0c32 -37 58 -69 94 -101c38 32 66 64 100 101c52 -4 107 -4 157 0c-75 -59 -128 -98 -190 -156c-42 3 -92 3 -137 0c-60 59 -111 98 -184 156zM86 0c11 172 11 573 0 745c190 0 296 5 432 5c326 0 519 -139 519 -373
c0 -238 -201 -379 -541 -379c-128 0 -269 2 -410 2zM263 636c-3 -175 -2 -343 1 -519c58 -2 143 -8 232 -8c230 0 367 99 367 268c0 166 -135 263 -361 263c-66 0 -150 -5 -239 -4z" />
    <glyph glyph-name="dcaron" unicode="&#x10f;" horiz-adv-x="801" 
d="M895 805c63 0 95 -22 95 -81c0 -65 -65 -142 -115 -190c-15 4 -31 4 -47 1c32 43 59 85 70 131c-66 -1 -98 21 -98 69s32 70 95 70zM554 764c54 4 146 14 190 33c-36 -153 -34 -658 -12 -797h-166c6 44 10 85 11 136c-37 -99 -116 -152 -235 -152
c-184 0 -307 126 -307 300c0 162 108 272 266 272c144 0 218 -90 260 -187h13c-3 223 -12 335 -20 395zM397 79c59 0 133 20 180 112c-4 123 -60 255 -211 255c-107 0 -169 -69 -169 -172c0 -128 92 -195 200 -195z" />
    <glyph glyph-name="Dcroat" unicode="&#x110;" horiz-adv-x="1103" 
d="M538 750c326 0 519 -139 519 -373c0 -238 -201 -379 -541 -379c-128 0 -269 2 -410 2c5 80 8 209 8 342c-45 -1 -91 -3 -136 -5c2 27 2 53 0 80c45 -2 91 -4 136 -5c0 130 -3 255 -8 333c190 0 296 5 432 5zM516 109c225 0 358 99 358 268c0 166 -131 263 -352 263
c-67 0 -151 -5 -239 -4c-1 -76 -2 -150 -2 -224c63 1 126 2 188 5c-1 -27 -1 -53 0 -80c-62 3 -125 5 -188 6l3 -226c57 -2 142 -8 232 -8z" />
    <glyph glyph-name="dcroat" unicode="&#x111;" horiz-adv-x="807" 
d="M875 615c-47 4 -99 6 -151 7c-14 -213 -8 -519 8 -622h-166c6 44 10 85 11 136c-37 -99 -116 -152 -235 -152c-184 0 -307 126 -307 300c0 162 108 272 266 272c144 0 218 -90 260 -187h13c-1 108 -4 191 -8 253c-51 -1 -101 -3 -147 -7c4 29 4 54 0 75
c45 -4 93 -6 143 -8c-2 35 -5 62 -8 82c54 4 146 14 190 33c-7 -28 -12 -68 -16 -115c51 1 101 4 147 8c-4 -29 -4 -33 0 -75zM397 79c59 0 133 20 180 112c-4 123 -60 255 -211 255c-107 0 -169 -69 -169 -172c0 -128 92 -195 200 -195z" />
    <glyph glyph-name="Emacron" unicode="&#x112;" horiz-adv-x="947" 
d="M216 849c4 22 4 67 0 90c148 -6 358 -6 511 0c-4 -23 -4 -68 0 -90c-152 5 -363 5 -511 0zM86 0c12 190 12 561 0 745c122 -10 619 -17 802 -3c-4 -49 -4 -100 0 -150c-140 27 -432 43 -621 41c-2 -71 -3 -142 -2 -213c186 -3 417 5 552 14c-4 -41 -4 -86 0 -126
c-136 8 -366 15 -552 11c0 -67 0 -137 4 -206c190 -2 480 14 619 40c-4 -50 -4 -103 0 -153h-802z" />
    <glyph glyph-name="emacron" unicode="&#x113;" horiz-adv-x="754" 
d="M620 676c-152 6 -343 6 -491 0c4 22 4 60 0 82c148 -5 338 -5 491 0c-4 -22 -4 -60 0 -82zM706 186c-9 -38 -9 -100 0 -137c-85 -42 -196 -63 -303 -63c-243 0 -368 107 -368 285c0 180 128 286 331 286c200 0 357 -107 336 -308c-227 4 -398 4 -501 1
c13 -93 76 -153 220 -151c96 2 220 34 285 87zM366 450c-100 0 -162 -52 -167 -151c96 -3 223 -3 340 -1c-12 99 -77 152 -173 152z" />
    <glyph glyph-name="Edotaccent" unicode="&#x116;" horiz-adv-x="947" 
d="M467 827c-66 0 -100 22 -100 70c0 47 34 69 100 69c72 0 108 -22 108 -69c0 -48 -36 -70 -108 -70zM86 0c12 190 12 561 0 745c122 -10 619 -17 802 -3c-4 -49 -4 -100 0 -150c-140 27 -432 43 -621 41c-2 -71 -3 -142 -2 -213c186 -3 417 5 552 14c-4 -41 -4 -86 0 -126
c-136 8 -366 15 -552 11c0 -67 0 -137 4 -206c190 -2 480 14 619 40c-4 -50 -4 -103 0 -153h-802z" />
    <glyph glyph-name="edotaccent" unicode="&#x117;" horiz-adv-x="754" 
d="M370 630c-66 0 -100 22 -100 69s34 69 100 69c73 0 109 -22 109 -69s-36 -69 -109 -69zM706 186c-9 -38 -9 -100 0 -137c-85 -42 -196 -63 -303 -63c-243 0 -368 107 -368 285c0 180 128 286 331 286c200 0 357 -107 336 -308c-227 4 -398 4 -501 1
c13 -93 76 -153 220 -151c96 2 220 34 285 87zM366 450c-100 0 -162 -52 -167 -151c96 -3 223 -3 340 -1c-12 99 -77 152 -173 152z" />
    <glyph glyph-name="Eogonek" unicode="&#x118;" horiz-adv-x="947" 
d="M888 592c-140 27 -432 43 -621 41c-2 -71 -3 -142 -2 -213c186 -3 417 5 552 14c-4 -41 -4 -86 0 -126c-136 8 -366 15 -552 11c0 -67 0 -137 4 -206c190 -2 480 14 619 40c-4 -50 -4 -103 0 -153c-91 -10 -155 -29 -155 -82c0 -52 54 -67 91 -70l2 -95
c-120 -13 -222 42 -222 143c0 53 29 86 75 104h-593c12 190 12 561 0 745c122 -10 619 -17 802 -3c-4 -49 -4 -100 0 -150z" />
    <glyph glyph-name="eogonek" unicode="&#x119;" horiz-adv-x="755" 
d="M677 36c-75 -36 -115 -67 -115 -109c0 -46 47 -61 87 -64v-98c-108 2 -194 35 -194 126c0 47 25 79 64 103c-39 -5 -78 -8 -116 -8c-243 0 -368 107 -368 285c0 180 128 286 331 286c200 0 357 -103 336 -304c-228 4 -398 4 -501 1c11 -96 74 -157 220 -155
c96 2 220 34 285 87c-9 -38 -9 -100 0 -137c-9 -5 -19 -9 -29 -13zM366 450c-101 0 -164 -53 -167 -155c96 -7 223 -7 341 -2c-11 102 -77 157 -174 157z" />
    <glyph glyph-name="Ecaron" unicode="&#x11a;" horiz-adv-x="947" 
d="M216 995c50 -4 109 -4 160 0c32 -37 58 -69 94 -101c38 32 66 64 100 101c52 -4 107 -4 157 0c-75 -59 -128 -98 -190 -156c-42 3 -92 3 -137 0c-60 59 -111 98 -184 156zM86 0c12 190 12 561 0 745c122 -10 619 -17 802 -3c-4 -49 -4 -100 0 -150
c-140 27 -432 43 -621 41c-2 -71 -3 -142 -2 -213c186 -3 417 5 552 14c-4 -41 -4 -86 0 -126c-136 8 -366 15 -552 11c0 -67 0 -137 4 -206c190 -2 480 14 619 40c-4 -50 -4 -103 0 -153h-802z" />
    <glyph glyph-name="ecaron" unicode="&#x11b;" horiz-adv-x="754" 
d="M431 628c-40 3 -82 3 -121 0c-50 61 -95 112 -164 181c47 -4 96 -4 142 0c29 -43 52 -73 85 -114c34 41 57 71 88 114c47 -4 93 -4 141 0c-72 -69 -119 -120 -171 -181zM706 186c-9 -38 -9 -100 0 -137c-85 -42 -196 -63 -303 -63c-243 0 -368 107 -368 285
c0 180 128 286 331 286c200 0 357 -107 336 -308c-227 4 -398 4 -501 1c13 -93 76 -153 220 -151c96 2 220 34 285 87zM366 450c-100 0 -162 -52 -167 -151c96 -3 223 -3 340 -1c-12 99 -77 152 -173 152z" />
    <glyph glyph-name="Gbreve" unicode="&#x11e;" horiz-adv-x="1092" 
d="M551 831c-134 0 -220 73 -221 166h114c1 -45 37 -84 107 -84c71 0 107 39 108 84h121c-1 -98 -99 -166 -229 -166zM556 -14c-331 0 -510 152 -510 391c0 252 198 385 524 385c121 0 298 -18 459 -84c-8 -65 -8 -119 0 -160c-131 79 -300 123 -457 123
c-222 0 -352 -102 -352 -264s124 -271 336 -271c115 0 268 33 341 174c-161 0 -327 -7 -417 -17c7 39 5 96 -3 143c182 -8 388 -8 562 0c-7 -50 -7 -124 0 -185c-74 -157 -273 -235 -483 -235z" />
    <glyph glyph-name="gbreve" unicode="&#x11f;" horiz-adv-x="781" 
d="M384 680c-132 0 -216 76 -217 174h110c1 -50 37 -92 107 -92c71 0 107 42 108 92h117c-1 -103 -97 -174 -225 -174zM724 557c-15 -157 -11 -366 -11 -470c0 -125 -21 -313 -336 -313c-110 0 -218 21 -303 64c13 36 13 94 0 131c66 -53 189 -84 289 -84
c104 0 192 44 192 164v32c-41 -49 -113 -75 -206 -75c-191 0 -314 109 -314 280c0 160 108 270 257 270c137 0 228 -93 269 -191h13c-5 54 -6 96 -21 157c63 4 131 16 171 35zM403 93c49 0 106 12 152 55v64c0 109 -33 234 -186 234c-110 0 -172 -69 -172 -172
c0 -127 92 -181 206 -181z" />
    <glyph glyph-name="Gdotaccent" unicode="&#x120;" horiz-adv-x="1092" 
d="M550 829c-66 0 -100 22 -100 70c0 47 34 69 100 69c72 0 108 -22 108 -69c0 -48 -36 -70 -108 -70zM556 -14c-331 0 -510 152 -510 391c0 252 198 385 524 385c121 0 298 -18 459 -84c-8 -65 -8 -119 0 -160c-131 79 -300 123 -457 123c-222 0 -352 -102 -352 -264
s124 -271 336 -271c115 0 268 33 341 174c-161 0 -327 -7 -417 -17c7 39 5 96 -3 143c182 -8 388 -8 562 0c-7 -50 -7 -124 0 -185c-74 -157 -273 -235 -483 -235z" />
    <glyph glyph-name="gdotaccent" unicode="&#x121;" horiz-adv-x="781" 
d="M379 681c-66 0 -100 22 -100 69s34 69 100 69c73 0 109 -22 109 -69s-36 -69 -109 -69zM724 557c-15 -157 -11 -366 -11 -470c0 -125 -21 -313 -336 -313c-110 0 -218 21 -303 64c13 36 13 94 0 131c66 -53 189 -84 289 -84c104 0 192 44 192 164v32
c-41 -49 -113 -75 -206 -75c-191 0 -314 109 -314 280c0 160 108 270 257 270c137 0 228 -93 269 -191h13c-5 54 -6 96 -21 157c63 4 131 16 171 35zM403 93c49 0 106 12 152 55v64c0 109 -33 234 -186 234c-110 0 -172 -69 -172 -172c0 -127 92 -181 206 -181z" />
    <glyph glyph-name="uni0122" unicode="&#x122;" horiz-adv-x="1092" 
d="M556 -14c-331 0 -510 152 -510 391c0 252 198 385 524 385c121 0 298 -18 459 -84c-8 -65 -8 -119 0 -160c-131 79 -300 123 -457 123c-222 0 -352 -102 -352 -264s124 -271 336 -271c115 0 268 33 341 174c-161 0 -327 -7 -417 -17c7 39 5 96 -3 143
c182 -8 388 -8 562 0c-7 -50 -7 -124 0 -185c-74 -157 -273 -235 -483 -235zM454 -128c0 48 32 70 95 70c64 0 95 -22 95 -81c0 -65 -65 -142 -114 -190c-16 4 -32 4 -48 1c33 43 59 85 70 131c-66 -1 -98 21 -98 69z" />
    <glyph glyph-name="uni0123" unicode="&#x123;" horiz-adv-x="781" 
d="M389 630c-63 0 -95 22 -95 81c0 65 65 142 115 190c15 -4 31 -4 47 -1c-32 -43 -59 -85 -70 -131c66 1 98 -22 98 -70c0 -47 -32 -69 -95 -69zM724 557c-15 -157 -11 -366 -11 -470c0 -125 -21 -313 -336 -313c-110 0 -218 21 -303 64c13 36 13 94 0 131
c66 -53 189 -84 289 -84c104 0 192 44 192 164v32c-41 -49 -113 -75 -206 -75c-191 0 -314 109 -314 280c0 160 108 270 257 270c137 0 228 -93 269 -191h13c-5 54 -6 96 -21 157c63 4 131 16 171 35zM403 93c49 0 106 12 152 55v64c0 109 -33 234 -186 234
c-110 0 -172 -69 -172 -172c0 -127 92 -181 206 -181z" />
    <glyph glyph-name="Hbar" unicode="&#x126;" horiz-adv-x="1027" 
d="M1001 546c-23 1 -47 1 -70 2c-3 -188 0 -416 10 -548h-182c5 75 8 180 9 291c-167 10 -345 9 -510 -1c1 -111 4 -216 10 -290h-182c9 133 11 360 7 548c-22 -1 -44 -1 -67 -2c5 26 5 52 0 79c22 -1 44 -1 65 -1c-1 45 -3 86 -5 121c62 -9 122 -10 180 0l-6 -124
c169 -2 336 -1 505 0c-2 47 -4 89 -6 124c62 -9 122 -10 179 0c-2 -35 -4 -76 -5 -121c23 0 45 1 68 1c-3 -27 -3 -53 0 -79zM768 408c0 48 -1 97 -2 142c-169 3 -337 3 -507 0c-1 -45 -2 -93 -2 -141c164 -10 342 -11 511 -1z" />
    <glyph glyph-name="hbar" unicode="&#x127;" horiz-adv-x="771" 
d="M716 0h-171v235c0 108 -41 195 -146 195c-115 0 -164 -101 -164 -214v-216h-173c17 125 21 397 11 609l-67 -3c2 27 2 53 0 79l63 -3c-2 29 -4 56 -7 80c67 4 144 16 186 35c-6 -23 -10 -66 -14 -117c88 0 176 2 263 5c-1 -26 -1 -52 0 -79c-89 4 -178 6 -268 6
c-6 -107 -10 -225 -13 -269h13c40 122 139 213 265 213c156 0 208 -106 208 -230c0 -101 -5 -233 14 -326z" />
    <glyph glyph-name="Imacron" unicode="&#x12a;" horiz-adv-x="370" 
d="M5 851c2 22 2 67 0 90c104 -6 251 -6 358 0c-3 -23 -3 -68 0 -90c-106 5 -254 5 -358 0zM90 0c12 187 12 558 0 745c64 -9 128 -10 188 0c-12 -187 -12 -560 2 -745h-190z" />
    <glyph glyph-name="imacron" unicode="&#x12b;" horiz-adv-x="290" 
d="M-103 676c4 22 4 60 0 82c148 -5 338 -5 491 0c-4 -22 -4 -60 0 -82c-152 6 -343 6 -491 0zM57 538c60 -10 118 -12 176 0c-13 -184 -13 -354 0 -538h-176c12 183 12 352 0 538z" />
    <glyph glyph-name="Iogonek" unicode="&#x12e;" horiz-adv-x="370" 
d="M125 -82c0 -52 54 -67 91 -70l2 -95c-120 -13 -222 42 -222 143c0 60 38 94 94 111c12 189 12 553 0 738c64 -9 128 -10 188 0c-12 -187 -12 -560 2 -745c-91 -10 -155 -29 -155 -82z" />
    <glyph glyph-name="iogonek" unicode="&#x12f;" horiz-adv-x="290" 
d="M138 630c-66 0 -100 22 -100 69s34 69 100 69c73 0 109 -22 109 -69s-36 -69 -109 -69zM57 538c60 -10 118 -12 176 0c-13 -184 -13 -354 0 -538c-83 -8 -143 -34 -143 -79c0 -48 51 -55 86 -58v-90c-113 -14 -210 36 -210 127c0 57 37 90 91 105c12 181 12 349 0 533z
" />
    <glyph glyph-name="Idotaccent" unicode="&#x130;" horiz-adv-x="370" 
d="M180 829c-66 0 -100 22 -100 70c0 47 34 69 100 69c72 0 108 -22 108 -69c0 -48 -36 -70 -108 -70zM90 0c12 187 12 558 0 745c64 -9 128 -10 188 0c-12 -187 -12 -560 2 -745h-190z" />
    <glyph glyph-name="dotlessi" unicode="&#x131;" horiz-adv-x="290" 
d="M57 538c60 -10 118 -12 176 0c-13 -184 -13 -354 0 -538h-176c12 183 12 352 0 538z" />
    <glyph glyph-name="uni0136" unicode="&#x136;" horiz-adv-x="979" 
d="M462 364c162 -18 428 -164 474 -364h-217c-6 104 -155 339 -453 311c1 -100 5 -205 10 -311h-190c12 187 12 558 0 745c64 -9 127 -10 187 0c-5 -96 -8 -204 -8 -321c253 -5 387 175 451 320c62 -9 157 -10 236 0c-108 -171 -330 -337 -490 -367v-13zM469 -54
c64 0 95 -22 95 -81c0 -65 -65 -142 -114 -190c-16 4 -32 4 -48 1c33 43 59 85 70 131c-66 -1 -98 21 -98 69s32 70 95 70z" />
    <glyph glyph-name="uni0137" unicode="&#x137;" horiz-adv-x="710" 
d="M415 298c82 -94 195 -232 294 -298h-229c-42 80 -115 152 -198 263c-20 -4 -41 -6 -61 -6c2 -99 7 -190 12 -257h-176c23 195 23 571 0 753c60 3 135 12 189 33c-23 -119 -29 -308 -26 -483c106 14 232 121 246 223c55 3 161 6 216 26c-27 -108 -135 -202 -267 -254z
M300 -55c64 0 95 -22 95 -81c0 -65 -65 -142 -114 -190c-16 4 -32 4 -48 1c33 43 59 85 70 131c-66 -1 -98 21 -98 69s32 70 95 70z" />
    <glyph glyph-name="Lacute" unicode="&#x139;" horiz-adv-x="921" 
d="M163 831c48 42 103 110 149 162c42 -8 176 -8 219 0c-81 -50 -183 -119 -246 -162c-20 2 -102 2 -122 0zM86 0c8 248 8 497 0 745c64 -9 131 -11 188 0c-10 -141 -12 -452 -7 -633c147 0 473 15 608 38c-4 -60 -4 -100 0 -150h-789z" />
    <glyph glyph-name="lacute" unicode="&#x13a;" horiz-adv-x="291" 
d="M75 881c48 42 103 110 149 162c42 -8 176 -8 219 0c-81 -50 -183 -119 -246 -162c-20 2 -102 2 -122 0zM57 764c59 2 118 11 177 33c-24 -195 -20 -596 -5 -797h-172c15 194 15 582 0 764z" />
    <glyph glyph-name="uni013B" unicode="&#x13b;" horiz-adv-x="921" 
d="M86 0c8 248 8 497 0 745c64 -9 131 -11 188 0c-10 -141 -12 -452 -7 -633c147 0 473 15 608 38c-4 -60 -4 -100 0 -150h-789zM373 -153c0 47 32 69 95 69c64 0 95 -22 95 -81c0 -65 -65 -142 -114 -190c-16 4 -32 4 -48 1c33 43 59 85 70 131c-66 -1 -98 22 -98 70z" />
    <glyph glyph-name="uni013C" unicode="&#x13c;" horiz-adv-x="291" 
d="M57 764c59 2 118 11 177 33c-24 -195 -20 -596 -5 -797h-172c15 194 15 582 0 764zM45 -129c0 48 32 70 95 70c64 0 95 -22 95 -81c0 -65 -65 -142 -114 -190c-16 4 -32 4 -48 1c33 43 59 85 70 131c-66 -1 -98 21 -98 69z" />
    <glyph glyph-name="Lcaron" unicode="&#x13d;" horiz-adv-x="921" 
d="M378 694c0 47 32 70 95 70s95 -23 95 -81c0 -66 -65 -142 -115 -191c-15 4 -31 4 -47 2c32 42 59 85 70 131c-66 -1 -98 21 -98 69zM86 0c8 248 8 497 0 745c64 -9 131 -11 188 0c-10 -141 -12 -452 -7 -633c147 0 473 15 608 38c-4 -60 -4 -100 0 -150h-789z" />
    <glyph glyph-name="lcaron" unicode="&#x13e;" horiz-adv-x="291" 
d="M-60 1057c47 -4 95 -4 141 0c21 -40 39 -67 63 -106c25 39 44 66 67 106c46 -4 96 -4 143 0c-61 -66 -103 -115 -148 -172c-41 2 -84 2 -124 0c-43 57 -83 106 -142 172zM57 764c59 2 118 11 177 33c-24 -195 -20 -596 -5 -797h-172c15 194 15 582 0 764z" />
    <glyph glyph-name="Lslash" unicode="&#x141;" horiz-adv-x="1072" 
d="M1026 150c-4 -60 -4 -100 0 -150h-789c3 97 5 194 6 291c-53 -26 -106 -53 -159 -80c-4 12 -25 54 -35 65c64 29 129 59 194 90c0 126 -2 253 -6 379c64 -9 131 -11 187 0c-4 -69 -7 -179 -8 -295c59 29 118 59 176 90c6 -13 27 -56 36 -64c-71 -33 -142 -66 -213 -100
c0 -96 1 -191 3 -264c147 0 472 15 608 38z" />
    <glyph glyph-name="lslash" unicode="&#x142;" horiz-adv-x="440" 
d="M293 406c0 -152 4 -304 12 -406h-172c6 82 10 198 11 319c-45 -27 -90 -54 -134 -81c-3 13 -25 48 -34 57c56 31 112 62 168 94c0 143 -4 285 -11 375c59 2 118 11 177 33c-10 -81 -15 -198 -17 -321c47 27 92 55 137 83c5 -13 27 -49 34 -57c-57 -31 -114 -63 -171 -96z
" />
    <glyph glyph-name="Nacute" unicode="&#x143;" horiz-adv-x="1075" 
d="M586 825c-20 2 -102 2 -122 0c48 42 103 110 149 162c42 -8 176 -8 219 0c-81 -50 -183 -119 -246 -162zM747 0c-157 205 -320 408 -490 606c-3 -201 0 -405 9 -606h-180c8 248 8 497 0 745c66 -8 182 -10 248 0c154 -207 315 -411 483 -612c3 204 1 409 -9 612
c63 -9 122 -10 178 0c-7 -248 -6 -497 3 -745h-242z" />
    <glyph glyph-name="nacute" unicode="&#x144;" horiz-adv-x="771" 
d="M319 633c45 52 101 127 137 179c44 -8 160 -8 205 0c-71 -52 -170 -127 -227 -179c-21 2 -90 2 -115 0zM62 0c22 158 22 317 0 523c67 4 144 16 186 35c-19 -78 -27 -139 -32 -215h14c39 122 136 213 266 213c155 0 207 -106 207 -230c0 -106 -4 -229 13 -326h-170v235
c0 119 -50 195 -144 195c-107 0 -166 -88 -166 -214v-216h-174z" />
    <glyph glyph-name="uni0145" unicode="&#x145;" horiz-adv-x="1075" 
d="M986 745c-7 -248 -6 -497 3 -745h-242c-157 205 -320 408 -490 606c-3 -201 0 -405 9 -606h-180c8 248 8 497 0 745c66 -8 182 -10 248 0c154 -207 315 -411 483 -612c3 204 1 409 -9 612c63 -9 122 -10 178 0zM530 -54c64 0 95 -22 95 -81c0 -65 -65 -142 -114 -190
c-16 4 -32 4 -48 1c33 43 59 85 70 131c-66 -1 -98 21 -98 69s32 70 95 70z" />
    <glyph glyph-name="uni0146" unicode="&#x146;" horiz-adv-x="771" 
d="M62 0c22 158 22 317 0 523c67 4 144 16 186 35c-19 -78 -27 -139 -32 -215h14c39 122 136 213 266 213c155 0 207 -106 207 -230c0 -106 -4 -229 13 -326h-170v235c0 119 -50 195 -144 195c-107 0 -166 -88 -166 -214v-216h-174zM281 -126c0 48 32 70 95 70
c64 0 95 -22 95 -81c0 -65 -65 -142 -114 -190c-16 4 -32 4 -48 1c33 43 59 85 70 131c-66 -1 -98 21 -98 69z" />
    <glyph glyph-name="Ncaron" unicode="&#x147;" horiz-adv-x="1075" 
d="M602 835c-42 3 -92 3 -137 0c-60 59 -111 98 -184 156c50 -4 109 -4 160 0c32 -37 58 -69 94 -101c38 32 66 64 100 101c52 -4 107 -4 157 0c-75 -59 -128 -98 -190 -156zM747 0c-157 205 -320 408 -490 606c-3 -201 0 -405 9 -606h-180c8 248 8 497 0 745
c66 -8 182 -10 248 0c154 -207 315 -411 483 -612c3 204 1 409 -9 612c63 -9 122 -10 178 0c-7 -248 -6 -497 3 -745h-242z" />
    <glyph glyph-name="ncaron" unicode="&#x148;" horiz-adv-x="771" 
d="M319 632c-50 61 -95 112 -164 181c47 -4 96 -4 142 0c29 -43 52 -73 85 -114c34 41 57 71 88 114c47 -4 93 -4 141 0c-72 -69 -119 -120 -171 -181c-40 3 -82 3 -121 0zM62 0c22 158 22 317 0 523c67 4 144 16 186 35c-19 -78 -27 -139 -32 -215h14
c39 122 136 213 266 213c155 0 207 -106 207 -230c0 -106 -4 -229 13 -326h-170v235c0 119 -50 195 -144 195c-107 0 -166 -88 -166 -214v-216h-174z" />
    <glyph glyph-name="Eng" unicode="&#x14a;" horiz-adv-x="1073" 
d="M86 0c8 248 8 497 0 745c66 -8 182 -10 248 0c154 -206 316 -409 483 -609c3 204 0 407 -9 609c62 -9 122 -10 178 0c-7 -248 -6 -497 -1 -699c0 -146 -54 -281 -279 -281c-78 0 -134 18 -180 51c8 41 8 87 0 136c20 -29 78 -59 146 -59c51 0 94 18 119 65
c-210 259 -372 457 -534 645c-3 -201 1 -403 9 -603h-180z" />
    <glyph glyph-name="eng" unicode="&#x14b;" horiz-adv-x="757" 
d="M62 1c22 157 22 316 0 522c67 4 144 16 187 35c-19 -78 -27 -139 -32 -215h13c40 122 135 213 269 213c150 0 202 -106 201 -230c-1 -106 1 -228 2 -326c1 -162 -113 -215 -227 -215c-43 0 -84 7 -128 25c4 41 4 71 0 111c7 -7 45 -20 73 -20c71 0 126 30 126 156v178
c0 119 -49 195 -142 195c-111 0 -168 -88 -168 -214v-215h-174z" />
    <glyph glyph-name="Omacron" unicode="&#x14c;" horiz-adv-x="1097" 
d="M294 849c4 22 4 67 0 90c148 -6 358 -6 511 0c-4 -23 -4 -68 0 -90c-152 5 -363 5 -511 0zM549 -15c-316 0 -503 143 -503 389c0 247 187 390 503 390s502 -144 502 -390s-186 -389 -502 -389zM549 97c206 0 330 99 330 273c0 176 -124 281 -330 281
c-208 0 -329 -105 -329 -281c0 -174 121 -273 329 -273z" />
    <glyph glyph-name="omacron" unicode="&#x14d;" horiz-adv-x="765" 
d="M138 679c4 22 4 60 0 82c148 -5 338 -5 491 0c-4 -22 -4 -60 0 -82c-152 6 -343 6 -491 0zM383 -14c-219 0 -348 106 -348 285s129 284 348 284c218 0 347 -105 347 -284s-129 -285 -347 -285zM383 86c115 0 183 67 183 185c0 109 -68 177 -183 177
c-117 0 -184 -68 -184 -177c0 -118 67 -185 184 -185z" />
    <glyph glyph-name="Ohungarumlaut" unicode="&#x150;" horiz-adv-x="1097" 
d="M357 835c39 49 85 114 115 161c32 -4 117 -4 150 0c-49 -47 -114 -112 -152 -161c-21 2 -88 2 -113 0zM600 835c38 49 84 114 114 161c32 -4 118 -4 150 0c-47 -47 -114 -112 -152 -161c-21 2 -88 2 -112 0zM549 -15c-316 0 -503 143 -503 389c0 247 187 390 503 390
s502 -144 502 -390s-186 -389 -502 -389zM549 97c206 0 330 99 330 273c0 176 -124 281 -330 281c-208 0 -329 -105 -329 -281c0 -174 121 -273 329 -273z" />
    <glyph glyph-name="ohungarumlaut" unicode="&#x151;" horiz-adv-x="765" 
d="M234 631c33 52 73 129 99 181c26 -4 92 -4 118 0c-41 -52 -95 -129 -128 -181c-16 2 -69 2 -89 0zM425 631c32 52 72 129 98 181c26 -4 93 -4 118 0c-39 -52 -95 -129 -128 -181c-16 2 -69 2 -88 0zM383 -14c-219 0 -348 106 -348 285s129 284 348 284
c218 0 347 -105 347 -284s-129 -285 -347 -285zM383 86c115 0 183 67 183 185c0 109 -68 177 -183 177c-117 0 -184 -68 -184 -177c0 -118 67 -185 184 -185z" />
    <glyph glyph-name="OE" unicode="&#x152;" horiz-adv-x="1672" 
d="M1613 585c-141 32 -399 51 -582 48c-5 -72 -6 -145 -5 -216c178 -4 363 4 498 17c-4 -44 -4 -89 0 -134c-135 12 -321 20 -498 16c-1 -69 1 -139 6 -208c183 -4 441 16 581 50c-4 -52 -4 -106 0 -158h-763c3 49 6 108 7 174c-61 -119 -183 -185 -354 -185
c-287 0 -457 144 -457 386c0 243 170 386 457 386c170 0 292 -65 353 -183c-1 59 -3 115 -6 167c119 -10 579 -17 763 -3c-4 -52 -4 -105 0 -157zM543 104c197 0 315 98 316 264v7c-2 164 -120 263 -316 263c-200 0 -315 -101 -315 -267c0 -168 115 -267 315 -267z" />
    <glyph glyph-name="oe" unicode="&#x153;" horiz-adv-x="1299" 
d="M1250 184c-13 -37 -13 -99 0 -136c-85 -43 -196 -64 -304 -64c-142 0 -240 43 -293 121c-52 -77 -144 -119 -269 -119c-220 0 -349 106 -349 287c0 177 129 283 349 283c124 0 217 -42 268 -117c50 76 138 118 253 118c205 0 362 -105 341 -309h1h-1v0
c-228 4 -402 4 -507 1c12 -93 75 -154 225 -151c96 2 221 34 286 86zM905 450c-99 0 -162 -53 -168 -152c98 -3 228 -3 346 -1c-13 96 -79 153 -178 153zM384 86c116 0 185 67 185 183c0 111 -69 179 -185 179c-119 0 -186 -68 -186 -179c0 -116 67 -183 186 -183z" />
    <glyph glyph-name="Racute" unicode="&#x154;" horiz-adv-x="1002" 
d="M415 831c48 42 103 110 149 162c42 -8 176 -8 219 0c-81 -50 -183 -119 -246 -162c-20 2 -102 2 -122 0zM86 0c12 187 12 559 0 745c172 -3 277 3 437 3c279 0 410 -69 410 -218c0 -190 -226 -222 -329 -222v-13c198 -34 309 -185 360 -295h-237
c-34 188 -128 262 -334 277c-48 3 -88 4 -130 4c2 -136 5 -203 11 -281h-188zM262 385c69 -2 149 -7 226 -7c170 0 262 36 262 134c0 91 -90 123 -232 123c-96 0 -193 -3 -253 -3c-2 -77 -3 -158 -3 -247z" />
    <glyph glyph-name="racute" unicode="&#x155;" horiz-adv-x="515" 
d="M204 632c45 52 101 127 137 179c44 -8 160 -8 205 0c-71 -52 -170 -127 -227 -179c-21 2 -90 2 -115 0zM249 0h-187c23 166 23 345 0 520c65 4 138 16 181 35c-15 -78 -22 -141 -25 -216h13c55 171 174 230 268 207c-13 -42 -13 -103 0 -162c-37 11 -69 16 -94 16
c-114 0 -172 -72 -172 -197c0 -70 0 -133 16 -203z" />
    <glyph glyph-name="uni0156" unicode="&#x156;" horiz-adv-x="1002" 
d="M86 0c12 187 12 559 0 745c172 -3 277 3 437 3c279 0 410 -69 410 -218c0 -190 -226 -222 -329 -222v-13c198 -34 309 -185 360 -295h-237c-34 188 -128 262 -334 277c-48 3 -88 4 -130 4c2 -136 5 -203 11 -281h-188zM262 385c69 -2 149 -7 226 -7c170 0 262 36 262 134
c0 91 -90 123 -232 123c-96 0 -193 -3 -253 -3c-2 -77 -3 -158 -3 -247zM390 -124c0 48 32 70 95 70c64 0 95 -22 95 -81c0 -65 -65 -142 -114 -190c-16 4 -32 4 -48 1c33 43 59 85 70 131c-66 -1 -98 21 -98 69z" />
    <glyph glyph-name="uni0157" unicode="&#x157;" horiz-adv-x="515" 
d="M249 0h-187c23 166 23 345 0 520c65 4 138 16 181 35c-15 -78 -22 -141 -25 -216h13c55 171 174 230 268 207c-13 -42 -13 -103 0 -162c-37 11 -69 16 -94 16c-114 0 -172 -72 -172 -197c0 -70 0 -133 16 -203zM53 -129c0 48 32 70 95 70c64 0 95 -22 95 -81
c0 -65 -65 -142 -114 -190c-16 4 -32 4 -48 1c33 43 59 85 70 131c-66 -1 -98 21 -98 69z" />
    <glyph glyph-name="Rcaron" unicode="&#x158;" horiz-adv-x="1002" 
d="M231 997c50 -4 109 -4 160 0c32 -37 58 -69 94 -101c38 32 66 64 100 101c52 -4 107 -4 157 0c-75 -59 -128 -98 -190 -156c-42 3 -92 3 -137 0c-60 59 -111 98 -184 156zM86 0c12 187 12 559 0 745c172 -3 277 3 437 3c279 0 410 -69 410 -218
c0 -190 -226 -222 -329 -222v-13c198 -34 309 -185 360 -295h-237c-34 188 -128 262 -334 277c-48 3 -88 4 -130 4c2 -136 5 -203 11 -281h-188zM262 385c69 -2 149 -7 226 -7c170 0 262 36 262 134c0 91 -90 123 -232 123c-96 0 -193 -3 -253 -3c-2 -77 -3 -158 -3 -247z
" />
    <glyph glyph-name="rcaron" unicode="&#x159;" horiz-adv-x="515" 
d="M204 631c-50 61 -95 112 -164 181c47 -4 96 -4 142 0c29 -43 52 -73 85 -114c34 41 57 71 88 114c47 -4 93 -4 141 0c-72 -69 -119 -120 -171 -181c-40 3 -82 3 -121 0zM249 0h-187c23 166 23 345 0 520c65 4 138 16 181 35c-15 -78 -22 -141 -25 -216h13
c55 171 174 230 268 207c-13 -42 -13 -103 0 -162c-37 11 -69 16 -94 16c-114 0 -172 -72 -172 -197c0 -70 0 -133 16 -203z" />
    <glyph glyph-name="Sacute" unicode="&#x15a;" horiz-adv-x="1014" 
d="M418 831c48 42 103 110 149 162c42 -8 176 -8 219 0c-81 -50 -183 -119 -246 -162c-20 2 -102 2 -122 0zM545 -11c-183 0 -349 38 -475 85c8 56 8 111 0 167c94 -90 308 -133 491 -133c149 0 211 33 211 99c0 88 -94 98 -317 117c-245 22 -393 61 -393 212
c0 149 133 222 405 222c191 0 305 -26 446 -60c-8 -54 -8 -105 0 -156c-116 48 -270 97 -452 97c-154 0 -219 -31 -219 -98c0 -80 80 -101 284 -117c257 -20 426 -55 426 -216c0 -148 -136 -219 -407 -219z" />
    <glyph glyph-name="sacute" unicode="&#x15b;" horiz-adv-x="705" 
d="M295 632c45 52 101 127 137 179c44 -8 160 -8 205 0c-71 -52 -170 -127 -227 -179c-21 2 -90 2 -115 0zM369 -14c-113 0 -235 20 -319 63c13 37 13 102 0 132c65 -52 200 -85 314 -85c96 0 145 24 145 68c0 135 -471 -27 -471 219c0 159 200 172 314 172
c113 0 191 -18 286 -44c-13 -36 -12 -75 3 -133c-80 40 -179 73 -298 73c-101 0 -148 -20 -148 -68c0 -145 474 31 474 -221c0 -125 -114 -176 -300 -176z" />
    <glyph glyph-name="Scedilla" unicode="&#x15e;" horiz-adv-x="1014" 
d="M545 -11h-15l-20 -62c147 7 200 -35 201 -88c0 -60 -62 -98 -210 -98c-86 0 -158 13 -233 51c5 26 5 51 0 75c61 -41 142 -62 221 -62c73 0 110 15 110 48c0 31 -39 53 -179 53l26 87c-144 10 -273 43 -376 81c8 56 8 111 0 167c94 -90 308 -133 491 -133
c149 0 211 33 211 99c0 88 -94 98 -317 117c-245 22 -393 61 -393 212c0 149 133 222 405 222c191 0 305 -26 446 -60c-8 -54 -8 -105 0 -156c-116 48 -270 97 -452 97c-154 0 -219 -31 -219 -98c0 -80 80 -101 284 -117c257 -20 426 -55 426 -216
c0 -148 -136 -219 -407 -219z" />
    <glyph glyph-name="scedilla" unicode="&#x15f;" horiz-adv-x="705" 
d="M669 162c0 -119 -104 -171 -275 -176l-16 -53c128 7 174 -32 174 -83c0 -56 -54 -93 -182 -93c-75 0 -138 12 -202 48c4 25 4 50 0 72c52 -39 123 -59 192 -59c62 0 95 15 95 46c0 30 -34 50 -156 50l21 73c-98 5 -198 25 -270 62c13 37 13 102 0 132
c65 -52 200 -85 314 -85c96 0 145 24 145 68c0 135 -471 -27 -471 219c0 159 200 172 314 172c113 0 191 -18 286 -44c-13 -36 -12 -75 3 -133c-80 40 -179 73 -298 73c-101 0 -148 -20 -148 -68c0 -145 474 31 474 -221z" />
    <glyph glyph-name="Scaron" unicode="&#x160;" horiz-adv-x="1014" 
d="M235 997c50 -4 109 -4 160 0c32 -37 58 -69 94 -101c38 32 66 64 100 101c52 -4 107 -4 157 0c-75 -59 -128 -98 -190 -156c-42 3 -92 3 -137 0c-60 59 -111 98 -184 156zM545 -11c-183 0 -349 38 -475 85c8 56 8 111 0 167c94 -90 308 -133 491 -133
c149 0 211 33 211 99c0 88 -94 98 -317 117c-245 22 -393 61 -393 212c0 149 133 222 405 222c191 0 305 -26 446 -60c-8 -54 -8 -105 0 -156c-116 48 -270 97 -452 97c-154 0 -219 -31 -219 -98c0 -80 80 -101 284 -117c257 -20 426 -55 426 -216
c0 -148 -136 -219 -407 -219z" />
    <glyph glyph-name="scaron" unicode="&#x161;" horiz-adv-x="705" 
d="M295 631c-50 61 -95 112 -164 181c47 -4 96 -4 142 0c29 -43 52 -73 85 -114c34 41 57 71 88 114c47 -4 93 -4 141 0c-72 -69 -119 -120 -171 -181c-40 3 -82 3 -121 0zM369 -14c-113 0 -235 20 -319 63c13 37 13 102 0 132c65 -52 200 -85 314 -85c96 0 145 24 145 68
c0 135 -471 -27 -471 219c0 159 200 172 314 172c113 0 191 -18 286 -44c-13 -36 -12 -75 3 -133c-80 40 -179 73 -298 73c-101 0 -148 -20 -148 -68c0 -145 474 31 474 -221c0 -125 -114 -176 -300 -176z" />
    <glyph glyph-name="uni0162" unicode="&#x162;" horiz-adv-x="908" 
d="M906 605c-105 16 -213 25 -361 27c-5 -206 -2 -476 8 -632h-56l-25 -73c147 7 201 -35 202 -88c0 -59 -62 -97 -210 -97c-86 0 -158 12 -233 51c5 25 5 51 0 75c61 -41 142 -62 221 -62c73 0 110 14 110 48c0 31 -39 53 -179 53l28 93h-48c10 156 11 427 6 632
c-147 -2 -255 -11 -359 -27c8 47 8 93 0 140c331 -8 566 -8 896 0c-8 -47 -8 -93 0 -140z" />
    <glyph glyph-name="uni0163" unicode="&#x163;" horiz-adv-x="587" 
d="M291 442c-2 -66 -4 -130 -5 -185c-2 -118 56 -151 128 -152c50 -1 106 15 151 27c-8 -37 -10 -76 -2 -113c-53 -16 -124 -31 -193 -31c-14 0 -29 1 -43 2l-17 -58c128 7 174 -32 174 -83c0 -56 -54 -93 -182 -93c-75 0 -138 12 -202 48c4 25 4 50 0 72
c52 -39 123 -59 192 -59c62 0 95 15 95 46c0 30 -34 50 -156 50l26 94c-66 24 -113 78 -113 178c0 37 0 143 -3 254c-51 -2 -99 -5 -145 -9c4 29 4 79 0 108c45 -4 93 -7 142 -9c-3 61 -6 119 -11 162c66 7 122 16 171 40c-2 -66 -4 -136 -5 -205c94 0 189 4 272 12
c-4 -41 -4 -66 0 -108c-84 8 -179 12 -274 12z" />
    <glyph glyph-name="Tcaron" unicode="&#x164;" horiz-adv-x="916" 
d="M203 997c50 -4 109 -4 160 0c32 -37 58 -69 94 -101c38 32 66 64 100 101c52 -4 107 -4 157 0c-75 -59 -128 -98 -190 -156c-42 3 -92 3 -137 0c-60 59 -111 98 -184 156zM363 0c10 156 11 427 6 632c-147 -2 -255 -11 -359 -27c8 47 8 93 0 140c331 -8 566 -8 896 0
c-8 -47 -8 -93 0 -140c-105 16 -213 25 -361 27c-5 -206 -2 -476 8 -632h-190z" />
    <glyph glyph-name="tcaron" unicode="&#x165;" horiz-adv-x="587" 
d="M496 606c-28 2 -57 2 -85 0c-6 91 -16 183 -30 274c49 -6 100 -6 151 0c-16 -91 -28 -183 -36 -274zM291 442c-2 -66 -4 -130 -5 -185c-2 -118 56 -151 128 -152c50 -1 106 15 151 27c-8 -37 -10 -76 -2 -113c-53 -16 -124 -31 -193 -31c-117 1 -226 45 -226 197
c0 37 0 143 -3 254c-51 -2 -99 -5 -145 -9c4 29 4 79 0 108c45 -4 93 -7 142 -9c-3 61 -6 119 -11 162c66 7 122 16 171 40c-2 -66 -4 -136 -5 -205c94 0 189 4 272 12c-4 -41 -4 -66 0 -108c-84 8 -179 12 -274 12z" />
    <glyph glyph-name="Tbar" unicode="&#x166;" horiz-adv-x="916" 
d="M545 632c-2 -73 -3 -154 -2 -236c63 1 134 3 227 5c-4 -30 -4 -60 0 -89c-93 3 -163 4 -227 5c1 -120 5 -234 10 -317h-190c5 83 8 197 9 317c-65 0 -138 -2 -234 -5c4 29 4 59 0 89c96 -2 169 -4 234 -5c0 82 -1 163 -3 236c-147 -2 -255 -11 -359 -27c8 47 8 93 0 140
c331 -8 566 -8 896 0c-8 -47 -8 -93 0 -140c-105 16 -213 25 -361 27z" />
    <glyph glyph-name="tbar" unicode="&#x167;" horiz-adv-x="594" 
d="M571 430c-84 8 -179 12 -274 12l-3 -106c96 0 192 4 277 12c-4 -41 -4 -66 0 -108c-85 8 -182 12 -279 12c0 -114 57 -146 128 -147c50 -1 106 15 151 27c-8 -37 -10 -76 -2 -113c-53 -16 -124 -31 -193 -31c-117 1 -226 45 -226 197v64c-52 -2 -102 -5 -148 -9
c4 29 4 79 0 108c46 -4 96 -7 147 -9c-1 31 -1 66 -2 100c-51 -2 -99 -5 -145 -9c4 29 4 79 0 108c45 -4 93 -7 142 -9c-3 61 -6 119 -11 162c66 7 122 16 171 40c-2 -66 -4 -136 -5 -205c94 0 189 4 272 12c-4 -41 -4 -66 0 -108z" />
    <glyph glyph-name="Umacron" unicode="&#x16a;" horiz-adv-x="1034" 
d="M260 851c4 22 4 67 0 90c148 -6 358 -6 511 0c-4 -23 -4 -68 0 -90c-152 5 -363 5 -511 0zM961 371c0 -247 -166 -393 -446 -393c-289 0 -445 146 -445 393c0 152 -2 283 -8 374c60 -9 130 -10 186 0c-6 -91 -8 -218 -8 -378c0 -173 93 -277 275 -277
c180 0 274 104 274 277c0 160 -1 287 -7 378c60 -9 130 -10 186 0c-5 -91 -7 -238 -7 -374z" />
    <glyph glyph-name="umacron" unicode="&#x16b;" horiz-adv-x="737" 
d="M112 679c4 22 4 60 0 82c148 -5 338 -5 491 0c-4 -22 -4 -60 0 -82c-152 6 -343 6 -491 0zM680 550c-23 -157 -23 -344 0 -550h-185c17 68 28 136 30 187h-13c-38 -123 -131 -198 -261 -198c-150 0 -196 106 -196 230c0 104 4 219 -14 308c56 -1 107 5 163 23v-256
c0 -108 41 -178 134 -178c123 0 168 84 168 197v214c57 -1 116 5 174 23z" />
    <glyph glyph-name="Uring" unicode="&#x16e;" horiz-adv-x="1034" 
d="M517 803c-98 0 -153 42 -153 116c0 73 55 116 153 116c95 0 150 -41 150 -116c0 -74 -55 -116 -150 -116zM517 861c48 0 76 20 76 57s-28 59 -76 59c-49 0 -78 -22 -78 -59s29 -57 78 -57zM961 371c0 -247 -166 -393 -446 -393c-289 0 -445 146 -445 393
c0 152 -2 283 -8 374c60 -9 130 -10 186 0c-6 -91 -8 -218 -8 -378c0 -173 93 -277 275 -277c180 0 274 104 274 277c0 160 -1 287 -7 378c60 -9 130 -10 186 0c-5 -91 -7 -238 -7 -374z" />
    <glyph glyph-name="uring" unicode="&#x16f;" horiz-adv-x="737" 
d="M359 618c-89 0 -139 40 -139 111c0 70 50 112 139 112c87 0 137 -41 137 -112s-50 -111 -137 -111zM359 673c45 0 71 20 71 55c0 37 -26 57 -71 57c-46 0 -72 -20 -72 -57c0 -35 26 -55 72 -55zM680 550c-23 -157 -23 -344 0 -550h-185c17 68 28 136 30 187h-13
c-38 -123 -131 -198 -261 -198c-150 0 -196 106 -196 230c0 104 4 219 -14 308c56 -1 107 5 163 23v-256c0 -108 41 -178 134 -178c123 0 168 84 168 197v214c57 -1 116 5 174 23z" />
    <glyph glyph-name="Uhungarumlaut" unicode="&#x170;" horiz-adv-x="1034" 
d="M323 837c39 49 85 114 115 161c32 -4 117 -4 150 0c-49 -47 -114 -112 -152 -161c-21 2 -88 2 -113 0zM566 837c38 49 84 114 114 161c32 -4 118 -4 150 0c-47 -47 -114 -112 -152 -161c-21 2 -88 2 -112 0zM961 371c0 -247 -166 -393 -446 -393
c-289 0 -445 146 -445 393c0 152 -2 283 -8 374c60 -9 130 -10 186 0c-6 -91 -8 -218 -8 -378c0 -173 93 -277 275 -277c180 0 274 104 274 277c0 160 -1 287 -7 378c60 -9 130 -10 186 0c-5 -91 -7 -238 -7 -374z" />
    <glyph glyph-name="uhungarumlaut" unicode="&#x171;" horiz-adv-x="737" 
d="M209 631c33 52 73 129 99 181c26 -4 92 -4 118 0c-41 -52 -95 -129 -128 -181c-16 2 -69 2 -89 0zM400 631c32 52 72 129 98 181c26 -4 93 -4 118 0c-39 -52 -95 -129 -128 -181c-16 2 -69 2 -88 0zM680 550c-23 -157 -23 -344 0 -550h-185c17 68 28 136 30 187h-13
c-38 -123 -131 -198 -261 -198c-150 0 -196 106 -196 230c0 104 4 219 -14 308c56 -1 107 5 163 23v-256c0 -108 41 -178 134 -178c123 0 168 84 168 197v214c57 -1 116 5 174 23z" />
    <glyph glyph-name="Uogonek" unicode="&#x172;" horiz-adv-x="1034" 
d="M68 371c0 150 -2 285 -8 374c60 -9 130 -10 186 0c-6 -89 -8 -220 -8 -378c0 -173 93 -277 277 -277c181 0 276 104 276 277c0 158 -1 289 -7 378c60 -9 130 -10 186 0c-5 -89 -7 -240 -7 -374c0 -193 -100 -294 -234 -358c-41 -19 -77 -35 -77 -81c0 -51 55 -67 91 -70
l3 -111c-121 3 -223 42 -223 135c0 41 20 71 53 98c-20 -5 -41 -6 -61 -6c-291 0 -447 146 -447 393z" />
    <glyph glyph-name="uogonek" unicode="&#x173;" horiz-adv-x="737" 
d="M680 0c-83 -8 -143 -34 -143 -79c0 -48 51 -55 86 -58v-90c-113 -14 -210 36 -210 127c0 54 33 87 83 103c16 67 27 134 29 184h-13c-38 -123 -131 -198 -261 -198c-150 0 -196 106 -196 230c0 104 4 219 -14 308c56 -1 107 5 163 23v-256c0 -108 41 -178 134 -178
c123 0 168 84 168 197v214c57 -1 116 5 174 23c-23 -157 -23 -344 0 -550z" />
    <glyph glyph-name="Wcircumflex" unicode="&#x174;" horiz-adv-x="1313" 
d="M560 837c-50 4 -108 4 -157 0c71 59 121 98 180 156c46 -2 97 -2 140 0c61 -57 112 -97 186 -156c-49 4 -103 4 -155 0c-34 38 -62 69 -99 102c-36 -33 -63 -64 -95 -102zM1114 745c61 -8 123 -8 185 0c-71 -174 -155 -471 -236 -745h-259c-35 176 -88 439 -145 624
c-54 -184 -107 -445 -143 -624h-267c-74 255 -158 552 -235 745c63 -8 126 -8 189 0c51 -204 111 -432 178 -662c62 227 115 448 153 662c84 -8 166 -8 250 0c41 -212 96 -449 154 -660c74 262 133 488 176 660z" />
    <glyph glyph-name="wcircumflex" unicode="&#x175;" horiz-adv-x="1066" 
d="M452 632c-45 4 -91 4 -137 0c65 69 108 120 156 181c43 -3 88 -3 131 0c52 -61 99 -112 170 -181c-47 4 -97 4 -143 0c-32 43 -55 73 -90 114c-33 -41 -57 -71 -87 -114zM884 539c53 -11 118 -12 178 0c-69 -159 -157 -385 -210 -539h-205c-38 144 -73 280 -115 418
c-39 -137 -76 -273 -114 -418h-204c-52 150 -150 400 -210 539c59 -11 130 -12 181 0c38 -136 60 -245 127 -444c47 157 90 315 121 444c64 -10 143 -11 205 0c31 -131 72 -286 120 -442c48 157 91 313 126 442z" />
    <glyph glyph-name="Ycircumflex" unicode="&#x176;" horiz-adv-x="891" 
d="M356 829c-50 4 -108 4 -157 0c71 59 121 98 180 156c46 -2 97 -2 140 0c61 -57 112 -97 186 -156c-49 4 -103 4 -155 0c-34 38 -62 69 -99 102c-36 -33 -63 -64 -95 -102zM915 745c-131 -152 -259 -308 -382 -469c-8 -92 -8 -184 0 -276h-174c8 92 8 184 0 276
c-124 161 -251 317 -383 469c71 -9 157 -10 210 0c85 -125 172 -246 263 -363c91 117 178 238 262 363c53 -10 134 -9 204 0z" />
    <glyph glyph-name="ycircumflex" unicode="&#x177;" horiz-adv-x="744" 
d="M134 632c65 69 108 120 156 181c43 -3 88 -3 131 0c52 -61 99 -112 170 -181c-47 4 -97 4 -143 0c-32 43 -55 73 -90 114c-33 -41 -57 -71 -87 -114c-45 4 -91 4 -137 0zM533 46v142h-13c-38 -119 -129 -183 -261 -183c-148 0 -202 93 -202 214c0 104 4 213 -14 301
c56 0 112 6 167 24v-250c0 -92 31 -171 137 -171c110 0 166 63 166 189v208c55 0 110 6 166 24v-459c0 -115 -11 -311 -331 -311c-103 0 -208 21 -293 64c12 36 12 94 0 132c64 -54 181 -85 278 -85c115 0 200 43 200 161z" />
    <glyph glyph-name="Ydieresis" unicode="&#x178;" horiz-adv-x="891" 
d="M298 827c-58 0 -89 18 -89 62c0 42 31 62 89 62c65 0 97 -20 97 -62c0 -44 -32 -62 -97 -62zM597 827c-58 0 -89 18 -89 62c0 42 31 62 89 62c66 0 97 -20 97 -62c0 -44 -31 -62 -97 -62zM915 745c-131 -152 -259 -308 -382 -469c-8 -92 -8 -184 0 -276h-174
c8 92 8 184 0 276c-124 161 -251 317 -383 469c71 -9 157 -10 210 0c85 -125 172 -246 263 -363c91 117 178 238 262 363c53 -10 134 -9 204 0z" />
    <glyph glyph-name="Zacute" unicode="&#x179;" horiz-adv-x="989" 
d="M420 831c48 42 103 110 149 162c42 -8 176 -8 219 0c-81 -50 -183 -119 -246 -162c-20 2 -102 2 -122 0zM70 0c4 41 4 82 0 123c214 136 448 316 637 468v18c-202 0 -468 -13 -643 -22c4 54 4 105 0 158c229 -20 641 -20 859 0c-4 -46 -4 -91 0 -138
c-207 -139 -437 -318 -620 -476v-14c189 0 458 17 622 34c-4 -52 -4 -100 0 -151h-855z" />
    <glyph glyph-name="zacute" unicode="&#x17a;" horiz-adv-x="679" 
d="M274 632c45 52 101 127 137 179c44 -8 160 -8 205 0c-71 -52 -170 -127 -227 -179c-21 2 -90 2 -115 0zM43 0c4 33 4 63 0 104c135 90 281 206 393 303v13c-139 0 -276 -10 -394 -16c4 48 4 95 0 143c158 -16 438 -16 588 0c-4 -40 -4 -82 0 -130
c-142 -93 -282 -200 -387 -289v-11c134 0 284 12 394 24c-6 -57 -4 -94 0 -141h-594z" />
    <glyph glyph-name="Zdotaccent" unicode="&#x17b;" horiz-adv-x="989" 
d="M488 829c-66 0 -100 22 -100 70c0 47 34 69 100 69c72 0 108 -22 108 -69c0 -48 -36 -70 -108 -70zM70 0c4 41 4 82 0 123c214 136 448 316 637 468v18c-202 0 -468 -13 -643 -22c4 54 4 105 0 158c229 -20 641 -20 859 0c-4 -46 -4 -91 0 -138
c-207 -139 -437 -318 -620 -476v-14c189 0 458 17 622 34c-4 -52 -4 -100 0 -151h-855z" />
    <glyph glyph-name="zdotaccent" unicode="&#x17c;" horiz-adv-x="679" 
d="M334 633c-66 0 -100 22 -100 69s34 69 100 69c73 0 109 -22 109 -69s-36 -69 -109 -69zM43 0c4 33 4 63 0 104c135 90 281 206 393 303v13c-139 0 -276 -10 -394 -16c4 48 4 95 0 143c158 -16 438 -16 588 0c-4 -40 -4 -82 0 -130c-142 -93 -282 -200 -387 -289v-11
c134 0 284 12 394 24c-6 -57 -4 -94 0 -141h-594z" />
    <glyph glyph-name="Zcaron" unicode="&#x17d;" horiz-adv-x="989" 
d="M237 997c50 -4 109 -4 160 0c32 -37 58 -69 94 -101c38 32 66 64 100 101c52 -4 107 -4 157 0c-75 -59 -128 -98 -190 -156c-42 3 -92 3 -137 0c-60 59 -111 98 -184 156zM70 0c4 41 4 82 0 123c214 136 448 316 637 468v18c-202 0 -468 -13 -643 -22c4 54 4 105 0 158
c229 -20 641 -20 859 0c-4 -46 -4 -91 0 -138c-207 -139 -437 -318 -620 -476v-14c189 0 458 17 622 34c-4 -52 -4 -100 0 -151h-855z" />
    <glyph glyph-name="zcaron" unicode="&#x17e;" horiz-adv-x="679" 
d="M274 631c-50 61 -95 112 -164 181c47 -4 96 -4 142 0c29 -43 52 -73 85 -114c34 41 57 71 88 114c47 -4 93 -4 141 0c-72 -69 -119 -120 -171 -181c-40 3 -82 3 -121 0zM43 0c4 33 4 63 0 104c135 90 281 206 393 303v13c-139 0 -276 -10 -394 -16c4 48 4 95 0 143
c158 -16 438 -16 588 0c-4 -40 -4 -82 0 -130c-142 -93 -282 -200 -387 -289v-11c134 0 284 12 394 24c-6 -57 -4 -94 0 -141h-594z" />
    <glyph glyph-name="uni0218" unicode="&#x218;" horiz-adv-x="1014" 
d="M545 -11c-183 0 -349 38 -475 85c8 56 8 111 0 167c94 -90 308 -133 491 -133c149 0 211 33 211 99c0 88 -94 98 -317 117c-245 22 -393 61 -393 212c0 149 133 222 405 222c191 0 305 -26 446 -60c-8 -54 -8 -105 0 -156c-116 48 -270 97 -452 97
c-154 0 -219 -31 -219 -98c0 -80 80 -101 284 -117c257 -20 426 -55 426 -216c0 -148 -136 -219 -407 -219zM387 -128c0 48 32 70 95 70c64 0 95 -22 95 -81c0 -65 -65 -142 -114 -190c-16 4 -32 4 -48 1c33 43 59 85 70 131c-66 -1 -98 21 -98 69z" />
    <glyph glyph-name="uni0219" unicode="&#x219;" horiz-adv-x="705" 
d="M369 -14c-113 0 -235 20 -319 63c13 37 13 102 0 132c65 -52 200 -85 314 -85c96 0 145 24 145 68c0 135 -471 -27 -471 219c0 159 200 172 314 172c113 0 191 -18 286 -44c-13 -36 -12 -75 3 -133c-80 40 -179 73 -298 73c-101 0 -148 -20 -148 -68
c0 -145 474 31 474 -221c0 -125 -114 -176 -300 -176zM254 -126c0 48 32 70 95 70c64 0 95 -22 95 -81c0 -65 -65 -142 -114 -190c-16 4 -32 4 -48 1c33 43 59 85 70 131c-66 -1 -98 21 -98 69z" />
    <glyph glyph-name="uni021A" unicode="&#x21a;" horiz-adv-x="916" 
d="M363 0c10 156 11 427 6 632c-147 -2 -255 -11 -359 -27c8 47 8 93 0 140c331 -8 566 -8 896 0c-8 -47 -8 -93 0 -140c-105 16 -213 25 -361 27c-5 -206 -2 -476 8 -632h-190zM354 -127c0 48 32 70 95 70c64 0 95 -22 95 -81c0 -65 -65 -142 -114 -190c-16 4 -32 4 -48 1
c33 43 59 85 70 131c-66 -1 -98 21 -98 69z" />
    <glyph glyph-name="uni021B" unicode="&#x21b;" horiz-adv-x="587" 
d="M291 442c-2 -66 -4 -130 -5 -185c-2 -118 56 -151 128 -152c50 -1 106 15 151 27c-8 -37 -10 -76 -2 -113c-53 -16 -124 -31 -193 -31c-117 1 -226 45 -226 197c0 37 0 143 -3 254c-51 -2 -99 -5 -145 -9c4 29 4 79 0 108c45 -4 93 -7 142 -9c-3 61 -6 119 -11 162
c66 7 122 16 171 40c-2 -66 -4 -136 -5 -205c94 0 189 4 272 12c-4 -41 -4 -66 0 -108c-84 8 -179 12 -274 12zM339 -57c64 0 95 -23 95 -81c0 -66 -65 -143 -114 -191c-16 4 -32 4 -47 2c32 42 59 84 69 130c-66 0 -98 22 -98 70c0 47 32 70 95 70z" />
    <glyph glyph-name="uni0237" unicode="&#x237;" horiz-adv-x="313" 
d="M4 -215c-43 0 -82 7 -114 17c0 41 -11 71 -28 111c29 -7 59 -12 86 -12c72 0 127 30 127 156c0 158 -3 365 -10 471c62 -12 117 -12 177 0c-6 -96 -13 -245 -13 -538c0 -152 -111 -205 -225 -205z" />
    <glyph glyph-name="circumflex" unicode="&#x2c6;" horiz-adv-x="544" 
d="M20 629c65 69 108 121 155 182c43 -2 88 -2 131 0c52 -61 99 -113 170 -182c-47 4 -97 4 -143 0c-31 43 -55 73 -90 116c-33 -43 -56 -73 -86 -116c-45 4 -91 4 -137 0z" />
    <glyph glyph-name="caron" unicode="&#x2c7;" horiz-adv-x="575" 
d="M184 628c-50 61 -95 112 -164 181c47 -4 96 -4 142 0c29 -43 52 -73 85 -114c34 41 57 71 88 114c47 -4 93 -4 141 0c-72 -69 -119 -120 -171 -181c-40 3 -82 3 -121 0z" />
    <glyph glyph-name="breve" unicode="&#x2d8;" horiz-adv-x="579" 
d="M253 629c-132 0 -216 76 -217 174h110c1 -50 37 -92 107 -92c71 0 107 42 108 92h117c-1 -103 -97 -174 -225 -174z" />
    <glyph glyph-name="dotaccent" unicode="&#x2d9;" horiz-adv-x="297" 
d="M144 631c-66 0 -100 21 -100 69c0 47 34 70 100 70c72 0 108 -23 108 -70c0 -48 -36 -69 -108 -69z" />
    <glyph glyph-name="ring" unicode="&#x2da;" horiz-adv-x="349" 
d="M190 613c-89 0 -138 40 -138 112c0 70 49 112 138 112c88 0 137 -41 137 -112c0 -72 -49 -112 -137 -112zM190 668c45 0 71 20 71 56s-26 57 -71 57c-46 0 -71 -21 -71 -57s25 -56 71 -56z" />
    <glyph glyph-name="ogonek" unicode="&#x2db;" horiz-adv-x="600" 
d="M408 12l13 -12c-83 -8 -143 -34 -143 -79c0 -48 51 -55 86 -58v-90c-113 -14 -210 36 -210 127c0 105 122 127 254 112z" />
    <glyph glyph-name="tilde" unicode="&#x2dc;" horiz-adv-x="591" 
d="M191 808c91 0 134 -53 234 -53c35 0 81 7 117 51c1 -3 3 -7 3 -10c-16 -73 -45 -137 -141 -137c-95 0 -143 54 -237 54c-41 0 -85 -12 -118 -62c-2 3 -3 5 -4 8c20 82 45 149 146 149z" />
    <glyph glyph-name="hungarumlaut" unicode="&#x2dd;" horiz-adv-x="574" 
d="M28 628c33 52 73 129 99 181c26 -4 92 -4 118 0c-41 -52 -95 -129 -128 -181c-16 2 -69 2 -89 0zM219 628c32 52 72 129 98 181c26 -4 93 -4 118 0c-39 -52 -95 -129 -128 -181c-16 2 -69 2 -88 0z" />
    <glyph glyph-name="gravecomb" unicode="&#x300;" 
d="M-195 630c-57 52 -156 127 -227 179c45 -8 162 -8 205 0c37 -52 92 -127 137 -179c-25 2 -94 2 -115 0z" />
    <glyph glyph-name="acutecomb" unicode="&#x301;" 
d="M-350 630c45 52 101 127 137 179c44 -8 160 -8 205 0c-71 -52 -170 -127 -227 -179c-21 2 -90 2 -115 0z" />
    <glyph glyph-name="uni0302" unicode="&#x302;" 
d="M-481 629c65 69 108 120 156 181c43 -3 88 -3 131 0c52 -61 99 -112 170 -181c-47 4 -97 4 -143 0c-32 43 -55 73 -90 114c-33 -41 -57 -71 -87 -114c-45 4 -91 4 -137 0z" />
    <glyph glyph-name="tildecomb" unicode="&#x303;" 
d="M-382 808c86 0 127 -54 222 -54c33 0 77 8 112 51c0 -3 2 -6 2 -10c-15 -72 -42 -136 -134 -136c-90 0 -136 54 -226 54c-39 0 -80 -12 -111 -61c-2 2 -3 4 -4 8c19 80 43 148 139 148z" />
    <glyph glyph-name="uni0304" unicode="&#x304;" 
d="M-533 682c4 22 4 60 0 82c148 -5 338 -5 491 0c-4 -22 -4 -60 0 -82c-152 6 -343 6 -491 0z" />
    <glyph glyph-name="uni0306" unicode="&#x306;" 
d="M-265 629c-132 0 -216 76 -217 174h110c1 -50 37 -92 107 -92c71 0 107 42 108 92h117c-1 -103 -97 -174 -225 -174z" />
    <glyph glyph-name="uni0307" unicode="&#x307;" 
d="M-153 631c-66 0 -100 22 -100 69s34 69 100 69c73 0 109 -22 109 -69s-36 -69 -109 -69z" />
    <glyph glyph-name="uni0308" unicode="&#x308;" 
d="M-413 634c-55 0 -84 20 -84 63s29 63 84 63c61 0 92 -20 92 -63s-31 -63 -92 -63zM-135 634c-55 0 -84 20 -84 63s29 63 84 63c61 0 91 -20 91 -63s-30 -63 -91 -63z" />
    <glyph glyph-name="uni030A" unicode="&#x30a;" 
d="M-189 614c-89 0 -139 40 -139 111c0 70 50 112 139 112c87 0 137 -41 137 -112s-50 -111 -137 -111zM-189 669c45 0 71 20 71 55c0 37 -26 57 -71 57c-46 0 -72 -20 -72 -57c0 -35 26 -55 72 -55z" />
    <glyph glyph-name="uni030B" unicode="&#x30b;" 
d="M-379 628c33 52 73 129 99 181c26 -4 92 -4 118 0c-41 -52 -95 -129 -128 -181c-16 2 -69 2 -89 0zM-188 628c32 52 72 129 98 181c26 -4 93 -4 118 0c-39 -52 -95 -129 -128 -181c-16 2 -69 2 -88 0z" />
    <glyph glyph-name="uni030C" unicode="&#x30c;" 
d="M-316 628c-50 61 -95 112 -164 181c47 -4 96 -4 142 0c29 -43 52 -73 85 -114c34 41 57 71 88 114c47 -4 93 -4 141 0c-72 -69 -119 -120 -171 -181c-40 3 -82 3 -121 0z" />
    <glyph glyph-name="uni0312" unicode="&#x312;" 
d="M-62 648c0 -47 -32 -69 -95 -69s-95 22 -95 81c0 65 65 142 115 190c15 -4 31 -4 47 -1c-32 -43 -59 -85 -70 -131c66 1 98 -22 98 -70z" />
    <glyph glyph-name="uni0326" unicode="&#x326;" 
d="M-249 -129c0 48 32 70 95 70c64 0 95 -22 95 -81c0 -65 -65 -142 -114 -190c-16 4 -32 4 -48 1c33 43 59 85 70 131c-66 -1 -98 21 -98 69z" />
    <glyph glyph-name="uni0327" unicode="&#x327;" 
d="M-226 -244c-75 0 -138 12 -202 48c4 25 4 50 0 72c52 -39 123 -59 192 -59c62 0 95 15 95 46c0 30 -34 50 -156 50l27 96h75l-23 -77c128 7 174 -32 174 -83c0 -56 -54 -93 -182 -93z" />
    <glyph glyph-name="uni0328" unicode="&#x328;" 
d="M-192 12l13 -12c-83 -8 -143 -34 -143 -79c0 -48 51 -55 86 -58v-90c-113 -14 -210 36 -210 127c0 105 122 127 254 112z" />
    <glyph glyph-name="Wgrave" unicode="&#x1e80;" horiz-adv-x="1313" 
d="M709 831c-20 1 -102 1 -122 0c-64 43 -170 112 -246 162c42 -8 177 -8 219 0c42 -52 101 -120 149 -162zM1114 745c61 -8 123 -8 185 0c-71 -174 -155 -471 -236 -745h-259c-35 176 -88 439 -145 624c-54 -184 -107 -445 -143 -624h-267c-74 255 -158 552 -235 745
c63 -8 126 -8 189 0c51 -204 111 -432 178 -662c62 227 115 448 153 662c84 -8 166 -8 250 0c41 -212 96 -449 154 -660c74 262 133 488 176 660z" />
    <glyph glyph-name="wgrave" unicode="&#x1e81;" horiz-adv-x="1066" 
d="M594 632c-25 2 -94 2 -115 0c-57 52 -156 127 -227 179c45 -8 162 -8 205 0c37 -52 92 -127 137 -179zM884 539c53 -11 118 -12 178 0c-69 -159 -157 -385 -210 -539h-205c-38 144 -73 280 -115 418c-39 -137 -76 -273 -114 -418h-204c-52 150 -150 400 -210 539
c59 -11 130 -12 181 0c38 -136 60 -245 127 -444c47 157 90 315 121 444c64 -10 143 -11 205 0c31 -131 72 -286 120 -442c48 157 91 313 126 442z" />
    <glyph glyph-name="Wacute" unicode="&#x1e82;" horiz-adv-x="1313" 
d="M705 831c-20 2 -102 2 -122 0c48 42 103 110 149 162c42 -8 176 -8 219 0c-81 -50 -183 -119 -246 -162zM1114 745c61 -8 123 -8 185 0c-71 -174 -155 -471 -236 -745h-259c-35 176 -88 439 -145 624c-54 -184 -107 -445 -143 -624h-267c-74 255 -158 552 -235 745
c63 -8 126 -8 189 0c51 -204 111 -432 178 -662c62 227 115 448 153 662c84 -8 166 -8 250 0c41 -212 96 -449 154 -660c74 262 133 488 176 660z" />
    <glyph glyph-name="wacute" unicode="&#x1e83;" horiz-adv-x="1066" 
d="M593 632c-21 2 -90 2 -115 0c45 52 101 127 137 179c44 -8 160 -8 205 0c-71 -52 -170 -127 -227 -179zM884 539c53 -11 118 -12 178 0c-69 -159 -157 -385 -210 -539h-205c-38 144 -73 280 -115 418c-39 -137 -76 -273 -114 -418h-204c-52 150 -150 400 -210 539
c59 -11 130 -12 181 0c38 -136 60 -245 127 -444c47 157 90 315 121 444c64 -10 143 -11 205 0c31 -131 72 -286 120 -442c48 157 91 313 126 442z" />
    <glyph glyph-name="Wdieresis" unicode="&#x1e84;" horiz-adv-x="1313" 
d="M502 835c-58 0 -89 18 -89 62c0 42 31 62 89 62c65 0 97 -20 97 -62c0 -44 -32 -62 -97 -62zM801 835c-58 0 -89 18 -89 62c0 42 31 62 89 62c66 0 97 -20 97 -62c0 -44 -31 -62 -97 -62zM1114 745c61 -8 123 -8 185 0c-71 -174 -155 -471 -236 -745h-259
c-35 176 -88 439 -145 624c-54 -184 -107 -445 -143 -624h-267c-74 255 -158 552 -235 745c63 -8 126 -8 189 0c51 -204 111 -432 178 -662c62 227 115 448 153 662c84 -8 166 -8 250 0c41 -212 96 -449 154 -660c74 262 133 488 176 660z" />
    <glyph glyph-name="wdieresis" unicode="&#x1e85;" horiz-adv-x="1066" 
d="M399 637c-55 0 -84 20 -84 63s29 63 84 63c61 0 92 -20 92 -63s-31 -63 -92 -63zM677 637c-55 0 -84 20 -84 63s29 63 84 63c61 0 91 -20 91 -63s-30 -63 -91 -63zM884 539c53 -11 118 -12 178 0c-69 -159 -157 -385 -210 -539h-205c-38 144 -73 280 -115 418
c-39 -137 -76 -273 -114 -418h-204c-52 150 -150 400 -210 539c59 -11 130 -12 181 0c38 -136 60 -245 127 -444c47 157 90 315 121 444c64 -10 143 -11 205 0c31 -131 72 -286 120 -442c48 157 91 313 126 442z" />
    <glyph glyph-name="uni1E9E" unicode="&#x1e9e;" horiz-adv-x="1040" 
d="M681 -12c-96 0 -209 14 -303 60c8 45 8 91 0 152c53 -49 175 -79 273 -79c96 0 157 40 157 111c0 89 -96 134 -325 134c86 67 167 146 224 210c-48 36 -117 58 -209 58c-156 0 -227 -64 -227 -160c0 -148 0 -290 10 -474h-195c10 186 10 335 10 479
c0 168 118 280 413 280c130 0 306 -24 446 -122c-87 -81 -156 -148 -232 -214c185 -29 273 -112 273 -220c0 -131 -127 -215 -315 -215z" />
    <glyph glyph-name="Ygrave" unicode="&#x1ef2;" horiz-adv-x="891" 
d="M505 823c-20 1 -102 1 -122 0c-64 43 -170 112 -246 162c42 -8 177 -8 219 0c42 -52 101 -120 149 -162zM915 745c-131 -152 -259 -308 -382 -469c-8 -92 -8 -184 0 -276h-174c8 92 8 184 0 276c-124 161 -251 317 -383 469c71 -9 157 -10 210 0
c85 -125 172 -246 263 -363c91 117 178 238 262 363c53 -10 134 -9 204 0z" />
    <glyph glyph-name="ygrave" unicode="&#x1ef3;" horiz-adv-x="744" 
d="M298 632c-57 52 -156 127 -227 179c45 -8 162 -8 205 0c37 -52 92 -127 137 -179c-25 2 -94 2 -115 0zM533 46v142h-13c-38 -119 -129 -183 -261 -183c-148 0 -202 93 -202 214c0 104 4 213 -14 301c56 0 112 6 167 24v-250c0 -92 31 -171 137 -171c110 0 166 63 166 189
v208c55 0 110 6 166 24v-459c0 -115 -11 -311 -331 -311c-103 0 -208 21 -293 64c12 36 12 94 0 132c64 -54 181 -85 278 -85c115 0 200 43 200 161z" />
    <glyph glyph-name="endash" unicode="&#x2013;" horiz-adv-x="559" 
d="M527 326c-3 -18 -3 -59 0 -75c-136 5 -360 5 -494 0c3 16 3 57 -1 75c135 -5 359 -5 495 0z" />
    <glyph glyph-name="emdash" unicode="&#x2014;" horiz-adv-x="936" 
d="M904 326c-6 -18 -6 -59 0 -75c-222 5 -651 5 -871 0c6 16 6 57 -1 75c221 -5 650 -5 872 0z" />
    <glyph glyph-name="quoteleft" unicode="&#x2018;" horiz-adv-x="282" 
d="M236 559c0 -47 -32 -70 -95 -70s-95 23 -95 81c0 66 65 143 115 191c15 -4 31 -4 47 -2c-32 -42 -59 -84 -70 -130c66 0 98 -22 98 -70z" />
    <glyph glyph-name="quoteright" unicode="&#x2019;" horiz-adv-x="288" 
d="M38 693c0 47 32 70 95 70s95 -23 95 -81c0 -66 -65 -143 -115 -191c-15 4 -31 4 -47 2c32 42 59 85 70 130c-66 0 -98 22 -98 70z" />
    <glyph glyph-name="quotesinglbase" unicode="&#x201a;" horiz-adv-x="282" 
d="M46 59c0 47 32 69 94 69c64 0 96 -22 96 -80c0 -65 -65 -141 -115 -189c-15 4 -31 4 -47 2c32 42 59 84 70 129c-66 -1 -98 21 -98 69z" />
    <glyph glyph-name="quotedblleft" unicode="&#x201c;" horiz-adv-x="521" 
d="M475 561c0 -47 -32 -70 -95 -70c-64 0 -95 23 -95 81c0 66 65 142 114 191c16 -4 32 -4 48 -2c-33 -42 -59 -85 -70 -131c66 1 98 -21 98 -69zM236 557c0 -47 -32 -70 -95 -70s-95 23 -95 81c0 66 65 142 115 191c15 -4 31 -4 47 -2c-32 -42 -59 -85 -70 -131
c66 1 98 -21 98 -69z" />
    <glyph glyph-name="quotedblright" unicode="&#x201d;" horiz-adv-x="520" 
d="M46 694c0 47 32 70 95 70s95 -23 95 -81c0 -66 -65 -143 -115 -191c-15 4 -31 4 -47 2c32 42 59 85 70 130c-66 0 -98 22 -98 70zM284 694c0 47 32 70 95 70s95 -23 95 -81c0 -66 -65 -143 -115 -191c-15 4 -31 4 -47 2c32 42 59 85 70 130c-66 0 -98 22 -98 70z" />
    <glyph glyph-name="quotedblbase" unicode="&#x201e;" horiz-adv-x="516" 
d="M46 59c0 47 32 69 94 69c64 0 96 -22 96 -80c0 -65 -65 -141 -115 -189c-15 4 -31 4 -47 2c32 42 59 84 70 129c-66 -1 -98 21 -98 69zM280 59c0 47 32 69 94 69c64 0 96 -22 96 -80c0 -65 -65 -141 -115 -189c-15 4 -31 4 -47 2c32 42 59 84 70 129
c-66 -1 -98 21 -98 69z" />
    <glyph glyph-name="dagger" unicode="&#x2020;" horiz-adv-x="706" 
d="M650 452c-83 7 -165 10 -245 12c-2 -209 4 -437 15 -576c-40 5 -106 5 -142 0c10 145 16 369 15 576c-79 -2 -158 -6 -239 -12c5 37 5 94 0 128c81 -7 159 -11 238 -12c-2 90 -5 173 -10 239c36 -5 94 -5 134 0c-5 -65 -8 -148 -10 -239c80 1 161 5 244 12
c-5 -34 -5 -91 0 -128z" />
    <glyph glyph-name="daggerdbl" unicode="&#x2021;" horiz-adv-x="706" 
d="M403 464c-1 -69 -1 -140 0 -208c81 1 163 5 247 12c-5 -33 -5 -91 0 -128c-83 7 -165 10 -246 12c3 -102 6 -194 12 -264c-40 5 -98 5 -134 0c5 72 9 164 11 264c-79 -2 -158 -6 -239 -12c5 37 5 95 0 128c82 -7 161 -11 240 -12c1 69 1 139 0 208
c-79 -2 -158 -6 -240 -12c5 37 5 94 0 128c81 -7 160 -11 238 -12c-2 91 -5 174 -10 240c36 -5 94 -5 134 0c-5 -65 -9 -149 -11 -240c81 1 162 5 245 12c-5 -34 -5 -91 0 -128c-84 7 -166 10 -247 12z" />
    <glyph glyph-name="bullet" unicode="&#x2022;" horiz-adv-x="343" 
d="M170 164c-82 0 -124 32 -124 103c0 69 42 103 124 103c84 0 127 -34 127 -103c0 -71 -43 -103 -127 -103z" />
    <glyph glyph-name="ellipsis" unicode="&#x2026;" horiz-adv-x="844" 
d="M141 -10c-63 0 -95 22 -95 70c0 47 32 70 95 70s95 -23 95 -70c0 -48 -32 -70 -95 -70zM423 -10c-63 0 -95 22 -95 70c0 47 32 70 95 70s95 -23 95 -70c0 -48 -32 -70 -95 -70zM702 -10c-63 0 -94 22 -94 70c0 47 31 70 94 70c64 0 96 -23 96 -70c0 -48 -32 -70 -96 -70z
" />
    <glyph glyph-name="perthousand" unicode="&#x2030;" horiz-adv-x="1512" 
d="M255 367c-130 0 -220 73 -220 198c0 123 90 197 220 197c131 0 219 -74 219 -197c0 -125 -88 -198 -219 -198zM777 741c31 -4 84 -4 115 0c-225 -253 -441 -488 -649 -741c-31 4 -84 4 -115 0c221 249 437 484 649 741zM254 433c73 0 114 48 114 129s-41 129 -114 129
c-69 0 -111 -48 -111 -129s42 -129 111 -129zM760 -19c-131 0 -219 73 -219 198c0 123 87 196 219 196c130 0 220 -73 220 -196c0 -125 -90 -198 -220 -198zM1257 -19c-131 0 -219 73 -219 198c0 123 87 196 219 196c130 0 220 -73 220 -196c0 -125 -90 -198 -220 -198z
M759 47c72 0 114 48 114 129s-42 129 -114 129c-70 0 -111 -48 -111 -129s41 -129 111 -129zM1256 47c72 0 113 48 113 129s-41 129 -113 129c-70 0 -112 -48 -112 -129s42 -129 112 -129z" />
    <glyph glyph-name="guilsinglleft" unicode="&#x2039;" horiz-adv-x="455" 
d="M48 269c84 65 169 129 232 215h117c-79 -86 -162 -150 -236 -215c74 -63 157 -127 236 -211h-117c-63 84 -149 148 -232 211z" />
    <glyph glyph-name="guilsinglright" unicode="&#x203a;" horiz-adv-x="455" 
d="M407 269c-83 -63 -169 -127 -232 -211h-117c79 84 162 148 236 211c-74 65 -157 129 -236 215h117c63 -86 148 -150 232 -215z" />
    <glyph glyph-name="Euro" unicode="&#x20ac;" horiz-adv-x="1111" 
d="M1046 263c-6 -59 4 -116 11 -155c-125 -82 -241 -125 -434 -125c-240 0 -397 95 -452 256c-47 -2 -98 -5 -152 -8c4 29 4 59 0 88c48 -3 93 -5 135 -6c-3 20 -4 41 -4 63c0 12 0 23 1 35c-41 -2 -85 -4 -132 -7c4 30 4 60 0 89c52 -3 99 -5 145 -7
c48 182 222 278 475 278c115 0 229 -17 407 -83c-7 -59 -7 -101 0 -160c-180 98 -298 121 -398 122c-160 2 -275 -56 -320 -161c131 -1 255 2 417 11c-4 -29 -4 -59 0 -89c-169 10 -298 14 -435 11c-1 -12 -2 -25 -2 -39c0 -24 2 -46 7 -68c136 -2 263 2 430 11
c-4 -29 -4 -59 0 -88c-157 9 -279 13 -405 12c47 -87 148 -140 302 -140c142 0 265 41 404 160z" />
    <glyph glyph-name="trademark" unicode="&#x2122;" horiz-adv-x="1133" 
d="M22 747c175 -4 301 -4 476 0c-2 -31 -2 -66 0 -95c-55 13 -110 21 -187 23c-3 -106 -1 -242 5 -323h-112c6 82 7 218 4 323c-76 -2 -132 -10 -186 -23c2 29 2 64 0 95zM994 352c5 71 5 197 4 319c-42 -70 -102 -193 -134 -260h-84c-31 67 -88 189 -128 257
c-2 -105 0 -243 5 -316h-104c6 100 6 296 0 395c37 -5 122 -5 157 0c24 -51 76 -180 112 -241c37 61 96 190 120 241c36 -5 118 -5 155 0c-7 -102 -7 -296 2 -395h-105z" />
    <glyph glyph-name="arrowleft" unicode="&#x2190;" horiz-adv-x="808" 
d="M804 407v-175c-167 13 -448 34 -606 42l325 -246l-115 -116l-406 408l406 406l115 -116l-323 -242c157 6 437 25 604 39z" />
    <glyph glyph-name="arrowup" unicode="&#x2191;" horiz-adv-x="842" 
d="M828 394l-116 -116l-243 326c7 -158 26 -439 40 -606h-175c13 167 34 449 42 606l-247 -326l-115 115l408 407z" />
    <glyph glyph-name="arrowright" unicode="&#x2192;" horiz-adv-x="832" 
d="M424 709l406 -408l-405 -406l-116 117l325 242c-157 -6 -438 -26 -605 -40l-1 176c166 -14 447 -34 605 -42l-325 246z" />
    <glyph glyph-name="arrowdown" unicode="&#x2193;" horiz-adv-x="842" 
d="M713 408l115 -115l-408 -407l-406 406l116 116l243 -326c-7 158 -26 439 -40 606h175c-14 -167 -35 -449 -42 -607z" />
    <glyph glyph-name="arrowboth" unicode="&#x2194;" horiz-adv-x="1334" 
d="M2 335l400 391l115 -115l-311 -228c128 8 306 22 459 22c169 0 339 -14 462 -22l-310 228l115 115l400 -391l-399 -391l-117 116l312 224c-125 -7 -288 -21 -463 -21c-155 0 -329 14 -459 21l312 -224l-117 -116z" />
    <glyph glyph-name="arrowupdn" unicode="&#x2195;" horiz-adv-x="814" 
d="M406 -158l-390 314l116 98l224 -251c-8 106 -21 237 -21 357c0 117 14 245 21 354l-224 -249l-116 97l390 313l392 -312l-115 -98l-228 249c8 -107 22 -237 22 -354c0 -115 -13 -252 -21 -356l227 250l115 -97z" />
    <glyph glyph-name="uni2196" unicode="&#x2196;" horiz-adv-x="694" 
d="M688 89l-124 -124c-108 128 -292 341 -398 458l55 -405h-163l1 576h574v-164l-402 59c117 -107 329 -292 457 -400z" />
    <glyph glyph-name="uni2197" unicode="&#x2197;" horiz-adv-x="698" 
d="M60 616h576v-575h-164l58 401c-107 -116 -292 -328 -400 -455l-124 123c128 109 342 294 459 399l-405 -56v163z" />
    <glyph glyph-name="uni2198" unicode="&#x2198;" horiz-adv-x="680" 
d="M454 583h164l-1 -576h-574v164l401 -58c-116 107 -328 292 -456 400l123 124c109 -127 293 -341 399 -458z" />
    <glyph glyph-name="uni2199" unicode="&#x2199;" horiz-adv-x="698" 
d="M692 501c-128 -108 -341 -292 -459 -398l405 55v-163l-576 1v574h164l-59 -402c107 117 292 329 400 457z" />
    <glyph glyph-name="partialdiff" unicode="&#x2202;" horiz-adv-x="640" 
d="M320 -25c-184 0 -284 123 -284 285c0 174 107 287 265 287c148 0 211 -120 228 -212h13c-1 270 -223 395 -390 400v73c355 -21 455 -284 455 -482c0 -162 -63 -351 -287 -351zM322 44c74 0 199 46 199 212c0 138 -94 219 -206 219c-111 0 -202 -81 -202 -215
c0 -135 95 -216 209 -216z" />
    <glyph glyph-name="emptyset" unicode="&#x2205;" horiz-adv-x="911" 
d="M770 627c58 -66 92 -154 92 -255c0 -227 -169 -387 -407 -387c-112 0 -208 35 -279 95l-122 -68l97 92c-66 68 -104 160 -104 268c0 226 169 385 408 385c120 0 222 -40 294 -109l107 61zM112 372c0 -89 31 -167 85 -223l482 459l10 6c-59 51 -140 81 -234 81
c-202 0 -343 -134 -343 -323zM455 47c199 0 341 135 341 325c0 82 -27 154 -74 209l-487 -466c58 -43 133 -68 220 -68z" />
    <glyph glyph-name="product" unicode="&#x220f;" horiz-adv-x="600" 
d="M575 659l-104 3c-6 -183 -6 -501 1 -662h-79c5 169 5 481 1 663c-71 1 -145 1 -216 0c-8 -185 -7 -502 1 -663h-79c6 168 6 479 1 662l-106 -3c4 22 4 54 0 74c171 -5 409 -5 580 0c-4 -20 -4 -52 0 -74z" />
    <glyph glyph-name="summation" unicode="&#x2211;" horiz-adv-x="600" 
d="M21 65l276 322l-276 336c4 25 4 51 0 76c153 -6 339 -6 494 0c-3 -17 -3 -58 0 -76c-133 5 -283 6 -405 3l278 -339l-279 -325c141 -3 272 -2 406 3c-3 -18 -3 -59 0 -75c-155 5 -341 5 -494 0c4 24 4 50 0 75z" />
    <glyph glyph-name="minus" unicode="&#x2212;" horiz-adv-x="576" 
d="M528 398c-4 -20 -4 -52 0 -74c-164 5 -316 5 -480 0c4 22 4 54 0 74c164 -6 315 -6 480 0z" />
    <glyph glyph-name="radical" unicode="&#x221a;" horiz-adv-x="625" 
d="M163 -30c-45 130 -109 306 -161 436c23 -4 61 -5 84 -1c31 -104 84 -253 121 -357c84 255 164 510 240 765c72 -2 146 -2 234 0c-4 -22 -4 -54 0 -75c-74 2 -117 2 -176 0c-86 -260 -169 -509 -248 -768h-94z" />
    <glyph glyph-name="infinity" unicode="&#x221e;" horiz-adv-x="1089" 
d="M821 557c129 0 232 -83 232 -233c0 -132 -92 -248 -232 -248c-127 0 -196 81 -278 191c-77 -116 -150 -191 -267 -191c-157 0 -241 116 -241 248c0 142 104 233 233 233c103 0 182 -57 275 -177c75 109 175 177 278 177zM276 144c106 0 173 93 228 176l-3 4
c-61 78 -124 166 -225 166c-98 0 -167 -67 -167 -166c0 -114 72 -180 167 -180zM813 144c94 0 164 65 164 180c0 108 -67 166 -164 166s-167 -79 -230 -165l1 -1c58 -76 119 -180 229 -180z" />
    <glyph glyph-name="integral" unicode="&#x222b;" horiz-adv-x="329" 
d="M-48 -218c4 17 6 47 0 71c16 -8 52 -20 80 -20c56 0 99 33 99 162l1 610c0 154 94 203 158 203c40 0 61 -8 87 -17c-4 -17 -6 -47 0 -71c-16 8 -52 20 -80 20c-56 0 -99 -33 -99 -162l-1 -610c0 -154 -94 -203 -158 -203c-40 0 -61 8 -87 17z" />
    <glyph glyph-name="approxequal" unicode="&#x2248;" horiz-adv-x="600" 
d="M82 382c-5 67 37 158 129 158c103 0 123 -96 193 -96c47 0 63 40 65 83h63c5 -70 -37 -158 -125 -158c-107 0 -125 96 -197 96c-47 0 -63 -44 -65 -83h-63zM82 187c-5 67 37 158 129 158c103 0 123 -100 193 -100c47 0 63 42 65 87h63c5 -70 -37 -158 -125 -158
c-107 0 -125 100 -197 100c-47 0 -63 -46 -65 -87h-63z" />
    <glyph glyph-name="notequal" unicode="&#x2260;" horiz-adv-x="600" 
d="M574 409c-63 2 -127 3 -191 3c-26 -43 -52 -87 -77 -131c89 -1 179 1 268 4c-5 -20 -5 -52 0 -74c-101 3 -203 4 -306 4l-66 -122c-20 11 -38 22 -58 33c18 29 36 59 53 88l-149 -3c5 22 5 54 0 74c63 -2 126 -4 189 -4c26 44 52 87 77 132c-89 0 -178 -1 -266 -4
c5 22 5 54 0 74c100 -3 202 -4 304 -4l67 123c20 -11 38 -22 58 -33l-54 -89c50 1 101 2 151 3c-5 -20 -5 -52 0 -74z" />
    <glyph glyph-name="lessequal" unicode="&#x2264;" horiz-adv-x="600" 
d="M541 580v-79c-128 -27 -268 -64 -394 -96c128 -34 270 -71 394 -100v-81c-148 52 -319 100 -472 146c4 28 4 51 0 79c151 41 320 85 472 131zM66 157c167 -6 310 -6 476 0c-4 -20 -4 -51 0 -74c-166 6 -310 6 -476 0c4 23 4 54 0 74z" />
    <glyph glyph-name="greaterequal" unicode="&#x2265;" horiz-adv-x="600" 
d="M69 580c152 -46 321 -90 472 -131c-4 -28 -4 -51 0 -79c-153 -46 -324 -94 -472 -146v81c124 29 266 66 394 100c-126 32 -266 69 -394 96v79zM544 157c-4 -20 -4 -52 0 -74c-166 6 -310 6 -476 0c4 22 4 54 0 74c166 -6 309 -6 476 0z" />
    <glyph glyph-name="lozenge" unicode="&#x25ca;" horiz-adv-x="585" 
d="M56 308c71 127 137 257 200 388c28 -4 52 -4 81 0c57 -129 123 -258 188 -388c-65 -130 -131 -259 -188 -388c-29 4 -53 4 -81 0c-63 131 -129 261 -200 388zM140 308c45 -102 101 -206 154 -312c51 105 105 207 148 312c-43 105 -97 207 -148 312
c-53 -106 -109 -210 -154 -312z" />
    <glyph glyph-name="i.loclTRK" horiz-adv-x="290" 
d="M138 630c-66 0 -100 22 -100 69s34 69 100 69c73 0 109 -22 109 -69s-36 -69 -109 -69zM57 538c60 -10 118 -12 176 0c-13 -184 -13 -354 0 -538h-176c12 183 12 352 0 538z" />
    <glyph glyph-name="uni0308.case" 
d="M-440 829c-58 0 -89 18 -89 62c0 42 31 62 89 62c65 0 97 -20 97 -62c0 -44 -32 -62 -97 -62zM-141 829c-58 0 -89 18 -89 62c0 42 31 62 89 62c66 0 97 -20 97 -62c0 -44 -31 -62 -97 -62z" />
    <glyph glyph-name="uni0307.case" 
d="M-153 823c-66 0 -100 22 -100 70c0 47 34 69 100 69c72 0 108 -22 108 -69c0 -48 -36 -70 -108 -70z" />
    <glyph glyph-name="gravecomb.case" 
d="M-203 829c-64 43 -170 112 -246 162c42 -8 177 -8 219 0c42 -52 101 -120 149 -162c-20 1 -102 1 -122 0z" />
    <glyph glyph-name="acutecomb.case" 
d="M-368 829c48 42 103 110 149 162c42 -8 176 -8 219 0c-81 -50 -183 -119 -246 -162c-20 2 -102 2 -122 0z" />
    <glyph glyph-name="uni030B.case" 
d="M-536 831c39 49 85 114 115 161c32 -4 117 -4 150 0c-49 -47 -114 -112 -152 -161c-21 2 -88 2 -113 0zM-293 831c38 49 84 114 114 161c32 -4 118 -4 150 0c-47 -47 -114 -112 -152 -161c-21 2 -88 2 -112 0z" />
    <glyph glyph-name="uni0302.case" 
d="M-542 835c71 59 121 98 180 156c46 -2 97 -2 140 0c61 -57 112 -97 186 -156c-49 4 -103 4 -155 0c-34 38 -62 69 -99 102c-36 -33 -63 -64 -95 -102c-50 4 -108 4 -157 0z" />
    <glyph glyph-name="uni030C.case" 
d="M-539 991c50 -4 109 -4 160 0c32 -37 58 -69 94 -101c38 32 66 64 100 101c52 -4 107 -4 157 0c-75 -59 -128 -98 -190 -156c-42 3 -92 3 -137 0c-60 59 -111 98 -184 156z" />
    <glyph glyph-name="uni0306.case" 
d="M-261 825c-134 0 -220 73 -221 166h114c1 -45 37 -84 107 -84c71 0 107 39 108 84h121c-1 -98 -99 -166 -229 -166z" />
    <glyph glyph-name="uni030A.case" 
d="M-194 797c-98 0 -153 42 -153 116c0 73 55 116 153 116c95 0 150 -41 150 -116c0 -74 -55 -116 -150 -116zM-194 855c48 0 76 20 76 57s-28 59 -76 59c-49 0 -78 -22 -78 -59s29 -57 78 -57z" />
    <glyph glyph-name="tildecomb.case" 
d="M-205 849c-104 0 -159 53 -266 53c-45 0 -94 -12 -131 -53c-1 5 0 11 -1 17c15 78 52 138 161 138c101 0 150 -54 262 -54c39 0 91 8 132 51c1 -5 1 -10 1 -15c-14 -75 -51 -137 -158 -137z" />
    <glyph glyph-name="uni0304.case" 
d="M-552 835c4 22 4 67 0 90c148 -6 358 -6 511 0c-4 -23 -4 -68 0 -90c-152 5 -363 5 -511 0z" />
    <glyph glyph-name="uni0327.case" 
d="M-254 -260c-86 0 -158 13 -233 51c5 26 5 51 0 75c61 -41 142 -62 221 -62c73 0 110 15 110 48c0 31 -39 53 -179 53l30 101h86l-26 -80c147 7 200 -35 201 -88c0 -60 -62 -98 -210 -98z" />
    <glyph glyph-name="uni0328.case" 
d="M-96 13l15 -13c-91 -10 -155 -29 -155 -82c0 -52 54 -67 91 -70l2 -95c-120 -13 -222 42 -222 143c0 111 130 135 269 117z" />
    </font>
</defs>
</svg>
