<?xml version="1.0" standalone="no"?>
<!DOCTYPE svg PUBLIC "-//W3C//DTD SVG 1.1//EN" "http://www.w3.org/Graphics/SVG/1.1/DTD/svg11.dtd" >
<svg xmlns="http://www.w3.org/2000/svg" xmlns:xlink="http://www.w3.org/1999/xlink" version="1.1">
<metadata>
Created by FontForge 20190801 at Sun Oct 13 16:37:42 2019
 By Unknown
Copyright \(c\) 2019 by Valerio Monopoli. All rights reserved.
</metadata>
<defs>
<font id="Gatwick-Ultrabold" horiz-adv-x="0" >
  <font-face 
    font-family="Gatwick Ultrabold"
    font-weight="800"
    font-stretch="normal"
    units-per-em="1000"
    panose-1="0 0 9 0 0 0 0 0 0 0"
    ascent="800"
    descent="-200"
    x-height="540"
    cap-height="750"
    bbox="-618 -373 2100 1067"
    underline-thickness="20"
    underline-position="-100"
    stemh="119"
    stemv="197"
    unicode-range="U+0020-25CA"
  />
<missing-glyph horiz-adv-x="500" 
d="M410 800v-1000h-317v1000h317zM333 733h-165v-33h65v-37h-66v-33h166v33h-66v37h66v33zM267 604h-100v-104h166v34h-66v70zM233 570v-36h-33v36h33zM333 473h-166v-33h66v-37h-66v-33h100v70h66v33zM333 413h-33v-66h-133v-34h166v100zM333 291h-100v-56h34v23h33v-47
h-100v80h-33v-113h166v113zM333 118h-166v-113h166v113zM300 85v-47h-100v47h100zM333 -18h-166v-33h70l-70 -47v-33h166v33h-102l70 47h32v33z" />
    <glyph glyph-name="T_V.liga" unicode="TV" horiz-adv-x="1728" 
d="M342 0c12 137 14 418 7 616c-149 -3 -248 -14 -344 -34c10 56 10 112 0 168c293 -9 811 -5 1001 0c64 -194 188 -511 243 -619c52 108 176 424 249 619c78 -10 147 -10 225 0c-127 -263 -216 -485 -318 -750h-320c-76 211 -151 395 -243 594c-78 13 -164 20 -280 22
c-6 -199 -3 -480 10 -616h-230z" />
    <glyph glyph-name="T_W.liga" unicode="TW" horiz-adv-x="2105" 
d="M5 582c10 56 10 112 0 168c310 -9 542 -9 1022 0c41 -196 93 -418 153 -645c55 223 96 437 123 645c100 -10 200 -10 300 0c29 -205 74 -438 125 -644c68 266 117 487 149 644c74 -10 149 -10 223 0c-64 -157 -145 -468 -222 -750h-312c-23 160 -65 416 -112 594
c-45 -177 -88 -432 -111 -594h-322c-51 192 -108 413 -165 588c-87 16 -161 25 -294 28c-6 -199 -3 -480 10 -616h-230c12 137 14 418 7 616c-149 -3 -248 -14 -344 -34z" />
    <glyph glyph-name="f_f.liga" unicode="ff" horiz-adv-x="1081" 
d="M1071 540c-5 -50 -5 -79 0 -129c-51 4 -149 7 -268 9c1 -101 4 -281 16 -420h-213c9 105 13 279 14 422c-97 0 -196 0 -288 -1c1 -101 4 -282 16 -421h-213c9 104 13 276 14 418c-66 -2 -119 -4 -149 -7c5 34 5 95 0 129c30 -3 82 -5 147 -7c-1 16 -1 43 -2 88
c-3 155 102 191 218 191c81 0 175 -18 200 -26c-10 -44 -10 -79 0 -133c-39 19 -77 26 -119 26c-106 0 -112 -45 -112 -149c91 -1 190 -1 287 -1c-1 16 -2 43 -3 92c-3 155 102 191 218 191c81 0 175 -18 200 -26c-10 -44 -10 -79 0 -133c-39 19 -77 26 -119 26
c-105 0 -112 -45 -112 -148c118 2 217 5 268 9z" />
    <glyph glyph-name="f_f_i.liga" unicode="ffi" horiz-adv-x="1275" 
d="M0 411c5 34 5 95 0 129c32 -4 83 -7 147 -9l-2 90c-3 155 102 191 218 191c81 0 175 -18 200 -26c-10 -44 -10 -79 0 -133c-39 19 -77 26 -119 26c-118 0 -112 -56 -112 -138v-15c88 -1 186 -1 286 -1l-3 96c-4 155 121 191 258 191c116 0 235 -16 300 -26
c-10 -44 -10 -79 0 -133c-91 19 -161 26 -239 26c-139 0 -132 -56 -132 -138v-14c155 2 306 7 428 13c-16 -186 -16 -354 0 -540h-208c13 148 15 286 8 421c-49 1 -130 2 -228 3c1 -121 5 -292 16 -424h-213c10 114 14 309 14 398v26c-95 0 -195 -1 -287 -2
c1 -121 5 -290 16 -422h-213c10 114 14 309 14 398v20c-64 -2 -117 -4 -149 -7z" />
    <glyph glyph-name="f_i.liga" unicode="fi" horiz-adv-x="805" 
d="M760 540c-16 -186 -16 -354 0 -540h-208c13 148 15 286 8 421c-70 3 -150 5 -228 5c1 -100 4 -285 16 -426h-213c9 105 13 279 14 422c-59 -3 -111 -6 -149 -11c5 34 5 95 0 129c38 -5 89 -8 147 -11c0 16 -1 43 -2 92c-4 155 121 191 258 191c116 0 235 -16 300 -26
c-10 -44 -10 -79 0 -133c-91 19 -161 26 -239 26c-126 0 -132 -46 -132 -154c162 -1 332 4 428 15z" />
    <glyph glyph-name="f_t.liga" unicode="ft" horiz-adv-x="1087" 
d="M1067 151c-10 -44 -12 -90 -3 -133c-54 -16 -126 -31 -196 -31c-122 0 -237 44 -237 198c0 37 0 133 -3 237c-99 0 -202 0 -296 -1c1 -100 4 -282 16 -421h-213c9 104 13 276 14 418c-67 -2 -120 -4 -149 -7c5 34 5 94 0 129c29 -3 81 -5 147 -7c0 16 -1 43 -2 88
c-3 155 102 191 218 191c81 0 175 -18 200 -26c-10 -44 -10 -79 0 -133c-39 19 -77 26 -119 26c-106 0 -112 -45 -112 -149c93 -1 194 -1 291 -1c-3 59 -7 114 -13 156c80 9 147 20 206 50c-2 -65 -4 -135 -7 -204c110 2 201 5 250 9c-5 -50 -5 -79 0 -129
c-50 4 -142 7 -253 9c-2 -54 -3 -104 -4 -147c-3 -117 53 -146 120 -146c48 0 103 16 145 24z" />
    <glyph glyph-name="k_w.liga" unicode="kw" horiz-adv-x="1721" 
d="M1508 541c63 -13 142 -15 213 0c-67 -154 -157 -393 -205 -541h-243c-31 135 -62 260 -98 388c-34 -127 -64 -251 -96 -388h-243c-38 118 -103 294 -162 438c-55 -63 -144 -116 -242 -149c79 -94 193 -234 289 -289h-276c-30 75 -97 140 -178 255c-8 -1 -16 -1 -24 -2
c3 -99 9 -190 15 -253h-213c29 184 29 592 0 760c73 4 163 15 229 41c-30 -113 -36 -313 -33 -495c92 16 210 122 238 235c116 -10 243 -10 369 0c27 -117 63 -265 105 -416c43 151 80 299 104 416c76 -12 170 -14 243 0c24 -117 61 -265 105 -416c41 151 77 299 103 416z
" />
    <glyph glyph-name="t_f.liga" unicode="tf" horiz-adv-x="1069" 
d="M940 679c-105 0 -112 -44 -112 -147c96 1 174 4 218 8c-5 -50 -5 -79 0 -129c-44 4 -122 7 -218 8c1 -101 4 -281 16 -419h-213c9 105 13 279 14 422c-110 1 -225 0 -330 -1c-2 -54 -3 -105 -4 -148c-3 -117 53 -146 120 -146c48 0 103 16 145 24
c-10 -44 -12 -90 -3 -133c-54 -16 -126 -31 -196 -31c-122 0 -237 44 -237 198c0 36 0 131 -3 233c-63 -2 -112 -4 -142 -7c5 34 5 94 0 129c29 -3 77 -5 137 -7c-3 57 -7 111 -13 152c80 9 147 20 206 50c-2 -65 -4 -136 -7 -205c103 -1 217 -2 325 -1c0 16 -1 43 -2 92
c-3 155 102 191 218 191c81 0 175 -18 200 -26c-10 -44 -10 -79 0 -133c-39 19 -77 26 -119 26z" />
    <glyph glyph-name="t_t.liga" unicode="tt" horiz-adv-x="1072" 
d="M1052 151c-10 -44 -12 -90 -3 -133c-54 -16 -126 -31 -196 -31c-122 0 -237 44 -237 198c0 37 0 133 -3 237c-100 1 -204 0 -298 -1c-2 -54 -3 -105 -4 -148c-3 -117 53 -146 120 -146c48 0 103 16 145 24c-10 -44 -12 -90 -3 -133c-54 -16 -126 -31 -196 -31
c-122 0 -237 44 -237 198c0 36 0 131 -3 233c-63 -2 -112 -4 -142 -7c5 34 5 94 0 129c29 -3 77 -5 137 -7c-3 57 -7 111 -13 152c80 9 147 20 206 50c-2 -65 -4 -136 -7 -205c92 -1 193 -1 290 -1c-3 59 -7 114 -13 156c80 9 147 20 206 50c-2 -65 -4 -135 -7 -204
c111 2 203 5 252 9c-5 -50 -5 -79 0 -129c-49 4 -143 7 -255 9c-2 -54 -3 -104 -4 -147c-3 -117 53 -146 120 -146c48 0 103 16 145 24z" />
    <glyph glyph-name=".notdef" horiz-adv-x="500" 
d="M410 800v-1000h-317v1000h317zM333 733h-165v-33h65v-37h-66v-33h166v33h-66v37h66v33zM267 604h-100v-104h166v34h-66v70zM233 570v-36h-33v36h33zM333 473h-166v-33h66v-37h-66v-33h100v70h66v33zM333 413h-33v-66h-133v-34h166v100zM333 291h-100v-56h34v23h33v-47
h-100v80h-33v-113h166v113zM333 118h-166v-113h166v113zM300 85v-47h-100v47h100zM333 -18h-166v-33h70l-70 -47v-33h166v33h-102l70 47h32v33z" />
    <glyph glyph-name="space" unicode=" " horiz-adv-x="300" 
 />
    <glyph glyph-name="exclam" unicode="!" horiz-adv-x="323" 
d="M65 223c6 188 -4 343 -30 527c81 -10 172 -10 253 0c-26 -186 -36 -341 -30 -527c-70 15 -120 13 -193 0zM161 -16c-73 0 -109 25 -109 80c0 54 36 80 109 80s109 -26 109 -80c0 -55 -36 -80 -109 -80z" />
    <glyph glyph-name="quotedbl" unicode="&#x22;" horiz-adv-x="445" 
d="M66 524c-6 92 -16 185 -31 277c51 -7 104 -7 158 0c-17 -92 -30 -185 -38 -277c-29 3 -59 3 -89 0zM284 524c-6 92 -17 185 -32 277c52 -7 105 -7 158 0c-17 -92 -30 -185 -38 -277c-29 3 -59 3 -88 0z" />
    <glyph glyph-name="numbersign" unicode="#" horiz-adv-x="834" 
d="M804 477l-191 3l-51 -213l175 3c-3 -19 -3 -48 0 -67l-189 3c-16 -69 -32 -137 -48 -206h-69l51 206c-71 1 -142 1 -214 0l-48 -206h-69l51 206c-56 -1 -114 -2 -172 -3c2 19 2 48 0 67l187 -3l51 213l-171 -3c2 19 2 48 0 67l186 -3c16 70 32 139 48 209
c20 -3 49 -3 69 0c-18 -70 -35 -140 -52 -209c72 -1 143 -1 215 0l48 209c20 -3 49 -3 69 0c-17 -70 -35 -139 -52 -209l176 3c-3 -19 -3 -48 0 -67zM497 267c17 71 35 142 51 213c-71 1 -143 1 -215 0l-51 -213c72 -1 143 -1 215 0z" />
    <glyph glyph-name="dollar" unicode="$" horiz-adv-x="966" 
d="M911 214c0 -148 -124 -222 -377 -226c1 -28 3 -55 4 -82c-38 5 -75 5 -113 0c2 28 3 56 4 85c-138 10 -263 44 -362 83c23 59 23 140 0 198c74 -75 221 -116 367 -129c2 59 3 119 3 179c-256 6 -382 76 -382 213c0 151 123 226 374 229c-1 29 -2 58 -4 87
c38 -5 75 -5 113 0c-2 -29 -3 -59 -4 -90c132 -9 226 -36 339 -57c-24 -51 -22 -108 0 -187c-91 43 -208 85 -344 99c-2 -59 -2 -118 -3 -178c258 -9 385 -83 385 -224zM234 532c0 -62 59 -89 203 -93l-3 181c-142 -1 -200 -26 -200 -88zM534 139c142 0 200 29 200 86
c0 66 -61 92 -208 96c1 -61 1 -122 3 -182h5z" />
    <glyph glyph-name="percent" unicode="%" horiz-adv-x="1024" 
d="M251 370c-132 0 -223 74 -223 202c0 125 91 200 223 200c133 0 222 -75 222 -200c0 -128 -89 -202 -222 -202zM771 750c35 -5 99 -5 134 0c-227 -258 -443 -492 -649 -750c-35 5 -99 5 -134 0c222 253 438 487 649 750zM250 446c62 0 97 46 97 123c0 76 -35 121 -97 121
c-59 0 -95 -45 -95 -121c0 -77 36 -123 95 -123zM773 -20c-133 0 -222 75 -222 202c0 126 88 200 222 200c132 0 223 -74 223 -200c0 -127 -91 -202 -223 -202zM772 56c61 0 97 46 97 123c0 76 -36 122 -97 122c-60 0 -95 -46 -95 -122c0 -77 35 -123 95 -123z" />
    <glyph glyph-name="ampersand" unicode="&#x26;" horiz-adv-x="1001" 
d="M35 197c0 102 87 163 250 173v16c-95 10 -199 52 -199 169c0 131 132 207 347 207c130 0 268 -28 379 -75c-14 -56 -12 -127 2 -190c-119 76 -256 120 -371 120c-103 0 -155 -34 -155 -96c0 -65 48 -114 247 -114c148 0 373 23 443 46c-13 -57 -9 -119 3 -168
c-80 21 -206 45 -356 60v-16c153 -26 263 -70 263 -162c0 -112 -162 -180 -436 -180c-262 0 -417 76 -417 210zM259 230c0 -72 74 -114 198 -114c128 0 203 42 203 112c0 72 -76 115 -205 115c-123 0 -196 -42 -196 -113z" />
    <glyph glyph-name="quotesingle" unicode="'" horiz-adv-x="251" 
d="M71 524c-7 92 -19 185 -36 277c59 -7 120 -7 181 0c-19 -92 -34 -185 -43 -277c-34 3 -68 3 -102 0z" />
    <glyph glyph-name="parenleft" unicode="(" horiz-adv-x="378" 
d="M237 -192c-103 136 -157 321 -157 492s54 359 157 478c41 -5 79 -5 121 0c-97 -99 -158 -307 -158 -478s61 -373 158 -492c-42 4 -80 4 -121 0z" />
    <glyph glyph-name="parenright" unicode=")" horiz-adv-x="378" 
d="M20 -192c97 119 158 321 158 492s-61 379 -158 478c42 -5 80 -5 121 0c103 -119 157 -307 157 -478s-54 -356 -157 -492c-41 4 -79 4 -121 0z" />
    <glyph glyph-name="asterisk" unicode="*" horiz-adv-x="573" 
d="M346 581c42 -45 86 -87 135 -127c-40 -14 -73 -36 -100 -64c-29 54 -60 103 -96 152c-36 -49 -67 -98 -96 -152c-27 28 -60 50 -101 64c50 40 94 82 136 127c-61 13 -117 25 -184 32c21 31 35 66 37 104c59 -29 111 -51 170 -73c-4 59 -12 116 -34 173
c53 -10 95 -10 137 0c-15 -58 -21 -115 -26 -173c59 22 113 44 172 73c2 -38 16 -73 37 -104c-67 -7 -125 -19 -187 -32z" />
    <glyph glyph-name="plus" unicode="+" horiz-adv-x="594" 
d="M549 404c-5 -23 -5 -61 0 -87c-73 3 -144 5 -215 5c1 -64 3 -128 7 -193c-29 5 -68 5 -93 0c3 68 5 131 5 193c-68 0 -137 -2 -208 -5c5 26 5 64 0 87c71 -3 140 -5 208 -5c0 62 -2 125 -5 192c25 -5 64 -5 93 0c-4 -66 -6 -129 -7 -192c71 0 141 2 215 5z" />
    <glyph glyph-name="comma" unicode="," horiz-adv-x="288" 
d="M35 68c0 54 36 80 109 80s109 -26 109 -90c0 -70 -74 -150 -129 -205c-18 5 -36 5 -54 2c34 46 61 87 74 133c-73 0 -109 25 -109 80z" />
    <glyph glyph-name="hyphen" unicode="-" horiz-adv-x="501" 
d="M471 332c-4 -20 -4 -69 0 -88c-136 7 -306 7 -440 0c4 19 4 68 -1 88c135 -7 305 -7 441 0z" />
    <glyph glyph-name="period" unicode="." horiz-adv-x="288" 
d="M144 -12c-73 0 -109 25 -109 80c0 54 36 80 109 80s109 -26 109 -80c0 -55 -36 -80 -109 -80z" />
    <glyph glyph-name="slash" unicode="/" horiz-adv-x="445" 
d="M356 801c20 -3 59 -3 79 0c-115 -311 -231 -622 -346 -933h-79c115 311 231 622 346 933z" />
    <glyph glyph-name="zero" unicode="0" horiz-adv-x="921" 
d="M461 -16c-252 0 -421 145 -421 394c0 244 169 389 421 389c251 0 420 -145 420 -389c0 -249 -169 -394 -420 -394zM459 116c126 0 201 94 201 255c0 159 -75 252 -201 252c-124 0 -198 -93 -198 -252c0 -161 74 -255 198 -255z" />
    <glyph glyph-name="one" unicode="1" horiz-adv-x="532" 
d="M10 386c10 65 10 112 0 169c96 16 205 95 222 195c70 -12 158 -13 217 0c-14 -173 -14 -579 3 -750h-225c13 165 14 462 15 600h-15c-8 -78 -97 -201 -217 -214z" />
    <glyph glyph-name="two" unicode="2" horiz-adv-x="862" 
d="M30 0c11 53 11 100 0 153c259 34 566 101 566 299c0 101 -83 159 -214 159c-117 0 -248 -50 -348 -117c16 56 16 124 0 190c134 66 271 82 371 82c274 0 400 -115 400 -268c0 -131 -92 -287 -516 -337v-18c131 0 426 5 542 57c-11 -90 -11 -140 0 -200h-801z" />
    <glyph glyph-name="three" unicode="3" horiz-adv-x="916" 
d="M449 -14c-137 0 -319 29 -399 83c10 61 10 109 0 180c59 -70 251 -128 399 -128c117 0 183 34 183 97c0 83 -105 105 -236 105c-58 0 -122 -9 -195 -14c5 38 5 81 0 119c44 -5 85 -11 155 -11c198 0 247 51 247 109c0 72 -82 86 -169 86c-131 0 -268 -22 -377 -95
c14 53 16 124 2 180c111 41 269 65 393 65c221 0 368 -63 368 -194c0 -117 -119 -172 -214 -182v-16c163 -10 270 -70 270 -179c0 -157 -221 -205 -427 -205z" />
    <glyph glyph-name="four" unicode="4" horiz-adv-x="934" 
d="M934 256c-5 -40 -5 -91 0 -131c-33 3 -106 5 -197 6c2 -51 5 -96 8 -131h-230c3 35 5 81 7 132c-190 0 -394 -3 -497 -8c10 54 10 108 0 162c107 61 421 373 490 474c77 -10 152 -10 227 0c-9 -114 -12 -336 -8 -523c74 4 143 10 200 19zM181 234c96 -2 219 -4 344 -3
c2 110 2 232 -1 337z" />
    <glyph glyph-name="five" unicode="5" horiz-adv-x="881" 
d="M45 69c10 61 10 129 0 190c59 -74 241 -137 386 -137c118 0 200 35 200 99c0 129 -333 135 -578 105c10 135 10 289 0 424c256 -10 497 -10 753 0c-11 -73 -11 -153 0 -194c-182 38 -382 48 -562 48c-7 -49 -7 -135 0 -195c260 70 607 59 607 -184
c0 -176 -201 -239 -412 -239c-142 0 -314 29 -394 83z" />
    <glyph glyph-name="six" unicode="6" horiz-adv-x="937" 
d="M40 363c0 255 166 403 465 403c96 0 218 -17 342 -73c-14 -60 -13 -109 0 -184c-70 62 -188 115 -319 115c-181 0 -375 -105 -294 -381h16c-2 155 91 249 296 249c172 0 346 -62 346 -241c0 -195 -206 -263 -413 -263c-233 0 -439 85 -439 375zM285 251
c0 -79 73 -124 196 -124s196 45 196 123s-73 126 -196 126s-196 -48 -196 -125z" />
    <glyph glyph-name="seven" unicode="7" horiz-adv-x="783" 
d="M768 750c-10 -55 -10 -120 0 -175c-287 -115 -309 -331 -292 -575h-264c22 328 301 535 451 576v13c-198 4 -451 9 -653 -33c11 41 11 121 0 194c256 -30 502 -30 758 0z" />
    <glyph glyph-name="eight" unicode="8" horiz-adv-x="926" 
d="M463 -13c-260 0 -428 76 -428 210c0 102 88 168 255 178v16c-97 10 -203 47 -203 164c0 131 144 207 376 207s376 -76 376 -207c0 -117 -106 -154 -203 -164v-16c167 -10 255 -76 255 -178c0 -134 -168 -210 -428 -210zM463 417c113 0 173 41 173 102
c0 63 -64 103 -173 103s-173 -40 -173 -103c0 -61 60 -102 173 -102zM463 116c116 0 203 42 203 114c0 71 -86 113 -203 113s-203 -42 -203 -113c0 -72 87 -114 203 -114z" />
    <glyph glyph-name="nine" unicode="9" horiz-adv-x="937" 
d="M897 391c0 -255 -166 -403 -465 -403c-96 0 -218 17 -342 73c14 60 13 109 0 184c70 -62 188 -115 319 -115c181 0 375 105 294 381h-16c2 -155 -91 -249 -296 -249c-172 0 -346 62 -346 241c0 195 206 263 413 263c233 0 439 -85 439 -375zM652 503
c0 79 -73 124 -196 124s-196 -43 -196 -123c0 -78 73 -126 196 -126s196 48 196 125z" />
    <glyph glyph-name="colon" unicode=":" horiz-adv-x="288" 
d="M144 388c-73 0 -109 25 -109 80c0 54 36 80 109 80s109 -26 109 -80c0 -55 -36 -80 -109 -80zM144 -10c-73 0 -109 25 -109 80c0 54 36 80 109 80s109 -26 109 -80c0 -55 -36 -80 -109 -80z" />
    <glyph glyph-name="semicolon" unicode=";" horiz-adv-x="295" 
d="M144 388c-73 0 -109 25 -109 80c0 54 36 80 109 80s109 -26 109 -80c0 -55 -36 -80 -109 -80zM42 68c0 54 36 80 109 80s109 -26 109 -90c0 -70 -74 -150 -129 -205c-18 5 -36 5 -54 2c34 46 61 87 74 133c-73 0 -109 25 -109 80z" />
    <glyph glyph-name="less" unicode="&#x3c;" horiz-adv-x="600" 
d="M517 592v-97c-123 -39 -242 -86 -364 -135c124 -51 246 -105 364 -146v-98c-147 72 -301 138 -454 200c5 33 5 60 0 93c151 56 302 117 454 183z" />
    <glyph glyph-name="equal" unicode="=" horiz-adv-x="630" 
d="M570 490c-6 -23 -6 -61 0 -87c-175 7 -335 7 -510 0c6 26 6 64 0 87c175 -7 334 -7 510 0zM570 290c-6 -23 -6 -61 0 -87c-175 7 -335 7 -510 0c6 26 6 64 0 87c175 -7 334 -7 510 0z" />
    <glyph glyph-name="greater" unicode="&#x3e;" horiz-adv-x="597" 
d="M83 592c152 -66 303 -127 454 -183c-5 -33 -5 -60 0 -93c-153 -62 -307 -128 -454 -200v98c118 41 240 95 364 146c-122 49 -241 96 -364 135v97z" />
    <glyph glyph-name="question" unicode="?" horiz-adv-x="769" 
d="M253 223c9 175 260 196 260 308c0 44 -38 80 -129 80c-108 0 -239 -50 -339 -127c16 66 16 134 0 200c134 66 271 82 359 82c203 0 325 -85 325 -203c0 -181 -264 -189 -273 -340c-58 12 -133 12 -203 0zM356 -16c-73 0 -109 25 -109 80c0 54 36 80 109 80
s109 -26 109 -80c0 -55 -36 -80 -109 -80z" />
    <glyph glyph-name="at" unicode="@" horiz-adv-x="1204" 
d="M587 764c337 0 577 -193 577 -466c0 -153 -79 -270 -257 -270c-103 0 -181 52 -181 144c-23 -89 -88 -132 -186 -132c-134 0 -222 93 -222 227c0 127 78 220 204 220c109 0 168 -70 190 -163h13c-4 57 -9 102 -18 146c50 5 130 13 169 32c-26 -151 -67 -389 48 -389
c66 0 100 63 100 161c0 224 -184 372 -437 372c-241 0 -399 -153 -399 -370c0 -220 165 -376 393 -376c78 0 151 17 210 51c-12 -45 -12 -90 0 -134c-64 -19 -121 -35 -210 -35c-315 0 -541 205 -541 494c0 285 221 488 547 488zM604 128c39 0 94 12 121 85
c-7 90 -49 171 -144 171c-75 0 -114 -50 -114 -122c0 -90 63 -134 137 -134z" />
    <glyph glyph-name="A" unicode="A" horiz-adv-x="1004" 
d="M999 0h-248c-14 43 -32 93 -51 145c-120 4 -282 4 -403 0l-55 -145h-237c119 250 227 500 326 750c85 -11 256 -16 340 0c99 -250 209 -500 328 -750zM344 267c94 -4 215 -4 310 0c-61 159 -127 315 -157 370c-29 -55 -92 -210 -153 -370z" />
    <glyph glyph-name="B" unicode="B" horiz-adv-x="1007" 
d="M80 0c15 173 15 577 0 750c136 0 259 4 462 4c246 0 381 -56 381 -189c0 -121 -111 -163 -248 -168v-15c168 -4 292 -58 292 -186c0 -180 -250 -204 -432 -204c-231 0 -312 8 -455 8zM292 426c77 -2 160 -3 252 -3c107 0 160 32 160 97c0 70 -58 95 -160 95
c-120 0 -209 0 -249 -2c-3 -55 -4 -119 -3 -187zM293 307c0 -56 2 -120 4 -171c72 -2 118 -4 247 -4c153 0 191 47 191 98c0 42 -39 79 -191 79c-92 0 -176 0 -251 -2z" />
    <glyph glyph-name="C" unicode="C" horiz-adv-x="1058" 
d="M562 -18c-333 0 -522 154 -522 397c0 258 211 392 542 392c117 0 252 -17 414 -83c-9 -70 -9 -121 0 -191c-163 104 -304 129 -403 130c-209 2 -343 -88 -343 -248c0 -148 109 -253 336 -253c145 0 285 46 408 167c-7 -71 5 -139 14 -186c-115 -82 -247 -125 -446 -125z
" />
    <glyph glyph-name="D" unicode="D" horiz-adv-x="1093" 
d="M80 0c14 155 14 595 0 750c203 0 302 6 438 6c336 0 535 -140 535 -377c0 -239 -207 -381 -557 -381c-128 0 -272 2 -416 2zM294 621c-4 -163 -3 -317 1 -482c42 -2 119 -10 201 -10c218 0 347 93 347 250c0 156 -127 247 -341 247c-53 0 -128 -6 -208 -5z" />
    <glyph glyph-name="E" unicode="E" horiz-adv-x="966" 
d="M80 0c15 173 15 577 0 750c95 -13 660 -21 831 -3c-5 -60 -5 -121 0 -181c-120 33 -430 53 -612 50c-3 -61 -4 -123 -3 -184c185 -4 425 6 545 17c-5 -48 -5 -102 0 -150c-121 10 -361 19 -545 14c0 -60 1 -119 5 -179c183 -3 491 17 610 50c-5 -60 -5 -124 0 -184h-831z
" />
    <glyph glyph-name="F" unicode="F" horiz-adv-x="886" 
d="M80 0c15 173 15 577 0 750c89 -13 610 -21 781 -3c-5 -60 -5 -121 0 -181c-120 33 -395 53 -562 50c-4 -71 -4 -143 -2 -214c167 -4 374 6 494 17c-5 -48 -5 -102 0 -150c-121 10 -328 19 -494 14c0 -94 3 -189 19 -283h-236z" />
    <glyph glyph-name="G" unicode="G" horiz-adv-x="1101" 
d="M562 -15c-338 0 -522 154 -522 394c0 255 203 390 536 390c125 0 309 -18 471 -85c-11 -79 -10 -143 -1 -191c-124 80 -295 132 -470 132c-205 0 -326 -96 -326 -246s115 -252 312 -252c86 0 232 20 319 142c-157 0 -322 -9 -389 -22c9 47 7 115 -4 172
c181 -10 392 -10 563 0c-9 -63 -9 -155 0 -225c-87 -135 -286 -209 -489 -209z" />
    <glyph glyph-name="H" unicode="H" horiz-adv-x="1046" 
d="M966 0h-220c6 68 9 171 11 281c-154 10 -318 9 -469 -2c1 -110 5 -212 12 -279h-220c15 173 15 577 0 750c75 -12 147 -13 217 0c-6 -78 -10 -202 -10 -331c150 -11 314 -12 470 -3c-1 130 -4 256 -11 334c75 -12 147 -13 217 0c-14 -173 -14 -579 3 -750z" />
    <glyph glyph-name="I" unicode="I" horiz-adv-x="390" 
d="M80 0c15 173 15 577 0 750c78 -12 154 -13 227 0c-14 -173 -14 -579 3 -750h-230z" />
    <glyph glyph-name="J" unicode="J" horiz-adv-x="585" 
d="M50 39c10 48 10 102 0 160c17 -28 73 -56 135 -56c56 0 128 23 128 129c0 165 -3 397 -10 478c78 -12 154 -13 227 0c-7 -81 -10 -338 -10 -473c0 -140 -50 -287 -293 -287c-76 0 -130 16 -177 49z" />
    <glyph glyph-name="K" unicode="K" horiz-adv-x="987" 
d="M505 364c131 -19 404 -162 446 -364h-262c0 101 -138 331 -392 301c2 -119 6 -230 13 -301h-230c15 173 15 577 0 750c78 -12 154 -13 227 0c-6 -74 -9 -192 -10 -315c206 -3 325 172 383 315c75 -12 191 -13 287 0c-111 -166 -331 -336 -462 -370v-16z" />
    <glyph glyph-name="L" unicode="L" horiz-adv-x="941" 
d="M80 0c10 250 10 500 0 750c78 -12 159 -14 227 0c-11 -118 -14 -450 -7 -618c129 1 481 19 596 48c-5 -73 -5 -120 0 -180h-816z" />
    <glyph glyph-name="M" unicode="M" horiz-adv-x="1210" 
d="M905 0c10 108 13 360 10 549c-81 -182 -155 -366 -222 -552h-186c-66 187 -140 370 -221 550c-2 -188 2 -443 13 -547h-219c15 173 15 577 0 750c78 -11 240 -12 312 0c61 -189 131 -375 209 -555c82 181 154 365 219 555c75 -12 232 -12 307 0c-14 -173 -14 -579 3 -750
h-225z" />
    <glyph glyph-name="N" unicode="N" horiz-adv-x="1082" 
d="M711 0c-134 197 -276 389 -425 578c-4 -193 1 -386 12 -578h-218c10 250 10 500 0 750c78 -10 220 -13 298 0c131 -199 270 -394 416 -585c4 195 1 390 -10 585c75 -12 147 -13 215 0c-9 -250 -8 -500 3 -750h-291z" />
    <glyph glyph-name="O" unicode="O" horiz-adv-x="1103" 
d="M552 -17c-322 0 -512 145 -512 394s190 394 512 394s511 -145 511 -394s-189 -394 -511 -394zM552 116c191 0 303 94 303 256c0 167 -112 265 -303 265c-193 0 -302 -98 -302 -265c0 -162 109 -256 302 -256z" />
    <glyph glyph-name="P" unicode="P" horiz-adv-x="973" 
d="M512 754c296 0 426 -63 426 -256c0 -160 -93 -269 -405 -269h-241c4 -91 9 -173 18 -229h-230c15 173 15 577 0 750c186 -4 269 4 432 4zM477 348c177 0 251 48 251 138c0 102 -81 134 -258 134c-50 0 -126 -4 -178 -4c-2 -79 -3 -172 -2 -263c62 -2 125 -5 187 -5z" />
    <glyph glyph-name="Q" unicode="Q" horiz-adv-x="1114" 
d="M807 -183c-15 41 -72 166 -255 166c-322 0 -512 147 -512 394s190 394 512 394s511 -147 511 -394c0 -220 -166 -356 -280 -362v-16c94 -13 227 -105 291 -182c-89 20 -178 20 -267 0zM552 115c190 0 301 97 301 257s-111 258 -301 258c-193 0 -302 -98 -302 -258
s109 -257 302 -257z" />
    <glyph glyph-name="R" unicode="R" horiz-adv-x="1014" 
d="M80 0c15 173 15 577 0 750c180 -4 277 4 443 4c295 0 429 -72 429 -221c0 -185 -221 -224 -313 -224v-16c208 -39 307 -213 345 -293h-287c-18 181 -98 254 -290 272c-34 4 -72 5 -113 5c3 -145 6 -205 13 -277h-227zM293 401c59 -3 131 -9 214 -9c146 0 225 38 225 119
c0 80 -86 109 -216 109c-87 0 -177 -4 -219 -4c-3 -65 -4 -135 -4 -215z" />
    <glyph glyph-name="S" unicode="S" horiz-adv-x="1018" 
d="M543 -12c-181 0 -354 39 -480 86c10 66 10 132 0 198c96 -99 316 -142 500 -142c130 0 182 29 182 85c0 74 -73 83 -299 103c-246 22 -391 67 -391 217c0 154 136 229 414 229c194 0 310 -25 454 -60c-10 -62 -10 -125 0 -187c-117 53 -275 105 -461 105
c-135 0 -189 -26 -189 -81c0 -71 70 -91 262 -106c273 -21 428 -63 428 -221c0 -152 -138 -226 -420 -226z" />
    <glyph glyph-name="T" unicode="T" horiz-adv-x="914" 
d="M342 0c12 137 14 418 7 616c-149 -3 -248 -14 -344 -34c10 56 10 112 0 168c341 -10 563 -10 904 0c-10 -56 -10 -112 0 -168c-97 20 -197 31 -347 34c-6 -199 -3 -480 10 -616h-230z" />
    <glyph glyph-name="U" unicode="U" horiz-adv-x="1028" 
d="M964 369c0 -248 -167 -395 -453 -395c-297 0 -451 147 -451 395c0 159 -3 298 -10 381c72 -12 157 -13 225 0c-7 -83 -10 -217 -10 -386c0 -159 79 -256 246 -256c165 0 246 97 246 256c0 169 -2 303 -9 386c72 -12 158 -13 225 0c-7 -83 -9 -242 -9 -381z" />
    <glyph glyph-name="V" unicode="V" horiz-adv-x="964" 
d="M734 750c78 -10 147 -10 225 0c-127 -263 -216 -485 -318 -750h-320c-95 265 -190 487 -316 750c82 -10 155 -10 237 0c64 -194 188 -511 243 -619c52 108 176 424 249 619z" />
    <glyph glyph-name="W" unicode="W" horiz-adv-x="1311" 
d="M1083 750c74 -10 149 -10 223 0c-64 -157 -145 -468 -222 -750h-312c-23 160 -65 416 -112 594c-45 -177 -88 -432 -111 -594h-322c-68 258 -149 569 -222 750c76 -10 152 -10 228 0c41 -196 93 -418 153 -645c55 223 96 437 123 645c100 -10 200 -10 300 0
c29 -205 74 -438 125 -644c68 266 117 487 149 644z" />
    <glyph glyph-name="X" unicode="X" horiz-adv-x="994" 
d="M17 0c131 125 253 251 364 376c-112 125 -234 249 -366 374c96 -10 191 -10 287 0c62 -89 127 -178 199 -267c72 89 137 178 199 267c93 -10 186 -10 279 0c-133 -124 -256 -249 -369 -373c110 -126 231 -251 361 -377h-303c-54 89 -115 177 -179 266
c-64 -89 -125 -177 -179 -266h-293z" />
    <glyph glyph-name="Y" unicode="Y" horiz-adv-x="915" 
d="M562 270c-10 -90 -9 -180 1 -270h-210c10 90 10 180 0 270c-123 165 -250 325 -383 480c85 -12 190 -13 253 0c75 -123 154 -240 238 -353c84 112 164 230 238 353c63 -13 161 -12 246 0c-133 -155 -260 -315 -383 -480z" />
    <glyph glyph-name="Z" unicode="Z" horiz-adv-x="1000" 
d="M66 0c5 51 5 97 0 148c208 112 436 285 614 417v22c-193 0 -460 -17 -620 -28c5 65 5 126 0 191c221 -25 671 -25 878 0c-5 -58 -5 -109 0 -167c-201 -116 -421 -287 -591 -426v-17c177 0 446 21 593 42c-5 -62 -5 -120 0 -182h-874z" />
    <glyph glyph-name="bracketleft" unicode="[" horiz-adv-x="396" 
d="M80 -200c13 328 13 656 0 984h296v-112c-56 11 -111 23 -167 24c-13 -263 -13 -545 0 -808c56 1 111 13 167 24v-112h-296z" />
    <glyph glyph-name="backslash" unicode="\" horiz-adv-x="445" 
d="M89 801c115 -311 231 -622 346 -933h-79c-115 311 -231 622 -346 933c20 -3 59 -3 79 0z" />
    <glyph glyph-name="bracketright" unicode="]" horiz-adv-x="396" 
d="M20 -200v112c56 -11 111 -23 167 -24c13 263 13 545 0 808c-56 -1 -111 -13 -167 -24v112h296c-13 -328 -13 -656 0 -984h-296z" />
    <glyph glyph-name="asciicircum" unicode="^" horiz-adv-x="536" 
d="M30 346c66 152 127 303 183 454c33 -5 60 -5 93 0c62 -153 128 -307 200 -454h-98c-41 118 -95 240 -146 364c-49 -122 -96 -241 -135 -364h-97z" />
    <glyph glyph-name="underscore" unicode="_" horiz-adv-x="611" 
d="M581 88c-4 -20 -4 -69 0 -88h-550c4 19 4 68 -1 88c135 -6 415 -6 551 0z" />
    <glyph glyph-name="grave" unicode="`" horiz-adv-x="448" 
d="M229 630c-53 49 -158 127 -229 176c53 -10 195 -10 246 0c29 -49 82 -127 122 -176c-30 2 -114 2 -139 0z" />
    <glyph glyph-name="a" unicode="a" horiz-adv-x="752" 
d="M717 0h-195c-13 40 -19 80 -21 119c-54 -85 -117 -135 -245 -135c-147 0 -221 65 -221 151c0 96 100 162 310 162h155c-7 77 -38 129 -162 129c-115 0 -225 -44 -284 -104c9 47 9 132 0 172c77 33 176 65 310 65c196 0 320 -63 320 -249c0 -131 8 -230 33 -310zM350 110
c51 0 103 12 150 37c0 28 1 56 1 83v20h-55c-142 0 -208 -25 -208 -74c0 -39 35 -66 112 -66z" />
    <glyph glyph-name="b" unicode="b" horiz-adv-x="805" 
d="M515 561c156 0 262 -111 262 -274c0 -176 -128 -304 -308 -304c-119 0 -193 50 -228 149c2 -51 5 -91 13 -132h-201c30 171 27 582 -3 759c65 5 178 17 230 41c-27 -93 -34 -289 -36 -420h16c43 92 115 181 255 181zM401 96c98 0 182 63 182 179c0 93 -53 154 -149 154
c-124 0 -186 -103 -192 -232c43 -86 111 -101 159 -101z" />
    <glyph glyph-name="c" unicode="c" horiz-adv-x="725" 
d="M392 -11c-240 0 -364 107 -364 286s124 286 364 286c107 0 207 -21 293 -64c-16 -43 -16 -142 0 -186c-63 67 -159 113 -261 113c-135 0 -208 -51 -208 -149s73 -149 208 -149c102 0 195 34 261 93c-16 -44 -16 -123 0 -166c-86 -43 -186 -64 -293 -64z" />
    <glyph glyph-name="d" unicode="d" horiz-adv-x="811" 
d="M766 800c-45 -156 -42 -642 -14 -800h-201c8 41 11 81 13 132c-35 -99 -109 -149 -228 -149c-180 0 -308 128 -308 304c0 163 106 274 262 274c140 0 212 -89 255 -181h16c-4 263 -15 322 -25 379c65 5 178 17 230 41zM404 96c48 0 116 15 159 101
c-6 129 -68 232 -192 232c-96 0 -149 -61 -149 -154c0 -116 84 -179 182 -179z" />
    <glyph glyph-name="e" unicode="e" horiz-adv-x="756" 
d="M713 210c-11 -44 -11 -119 0 -162c-86 -43 -198 -64 -308 -64c-250 0 -377 108 -377 287c0 183 130 290 336 290c208 0 370 -110 345 -315c-231 5 -396 5 -481 1c14 -79 71 -130 195 -127c99 2 224 36 290 90zM364 434c-83 0 -135 -44 -140 -131c77 -4 189 -4 288 -2
c-12 86 -62 133 -148 133z" />
    <glyph glyph-name="f" unicode="f" horiz-adv-x="591" 
d="M581 540c-5 -50 -5 -79 0 -129c-75 9 -161 14 -249 15c1 -100 4 -285 16 -426h-213c9 105 13 279 14 423c-52 -3 -103 -7 -149 -12c5 34 5 95 0 129c46 -5 96 -9 148 -12c-1 16 -2 43 -3 93c-3 155 102 191 218 191c81 0 175 -18 200 -26c-10 -44 -10 -79 0 -133
c-39 19 -77 26 -119 26c-107 0 -112 -46 -112 -154c88 1 174 6 249 15z" />
    <glyph glyph-name="g" unicode="g" horiz-adv-x="787" 
d="M742 564c-19 -158 -14 -382 -14 -473c0 -125 -13 -320 -350 -320c-110 0 -223 21 -309 64c16 43 16 112 0 156c66 -56 192 -88 291 -88c101 0 177 41 177 140v27c-40 -40 -107 -60 -193 -60c-189 0 -316 107 -316 279c0 161 106 272 251 272c132 0 224 -92 266 -186h16
c-6 52 -8 87 -26 145c76 5 159 20 207 44zM411 113c38 0 84 8 126 36v68c0 116 -36 212 -162 212c-100 0 -153 -61 -153 -154c0 -116 84 -162 189 -162z" />
    <glyph glyph-name="h" unicode="h" horiz-adv-x="776" 
d="M50 0c28 160 28 582 0 756c82 5 175 20 226 44c-24 -80 -34 -373 -40 -450h16c42 119 134 211 261 211c150 0 201 -105 201 -228c0 -105 -5 -238 17 -333h-206v220c0 105 -38 189 -129 189c-100 0 -136 -87 -136 -192v-217h-210z" />
    <glyph glyph-name="i" unicode="i" horiz-adv-x="318" 
d="M154 603c-79 0 -119 25 -119 80c0 54 40 80 119 80c86 0 129 -26 129 -80c0 -55 -43 -80 -129 -80zM51 540c71 -13 138 -15 208 0c-16 -186 -16 -354 0 -540h-208c16 185 16 353 0 540z" />
    <glyph glyph-name="j" unicode="j" horiz-adv-x="333" 
d="M169 763c86 0 129 -26 129 -80c0 -55 -43 -80 -129 -80c-79 0 -119 25 -119 80c0 54 40 80 119 80zM69 540c74 -14 135 -15 207 0c-7 -79 -15 -221 -15 -552c0 -157 -124 -207 -241 -207c-42 0 -86 6 -135 27c5 48 5 83 0 131c1 -5 40 -20 67 -20c69 0 129 29 129 152
c0 159 -4 377 -12 469zM-115 -61z" />
    <glyph glyph-name="k" unicode="k" horiz-adv-x="711" 
d="M445 0c-30 75 -97 140 -178 255c-8 -1 -16 -1 -24 -2c3 -99 9 -190 15 -253h-213c29 184 29 592 0 760c73 4 163 15 229 41c-29 -113 -36 -312 -33 -494c79 18 188 122 188 218c65 3 194 7 260 32c-19 -112 -130 -210 -262 -262c79 -94 197 -239 294 -295h-276z" />
    <glyph glyph-name="l" unicode="l" horiz-adv-x="304" 
d="M45 759c71 2 143 14 214 41c-29 -187 -25 -614 -6 -800h-208c19 184 19 591 0 759z" />
    <glyph glyph-name="m" unicode="m" horiz-adv-x="1161" 
d="M50 2c25 158 25 345 0 519c92 5 171 20 221 44c-22 -80 -31 -138 -36 -215h14c39 119 109 211 232 211s175 -90 182 -191h12c27 93 110 191 228 191c124 0 188 -103 192 -228c2 -67 -7 -224 21 -331h-211c10 73 10 146 10 219c0 126 -39 188 -118 188
c-77 0 -115 -62 -115 -188c0 -83 4 -170 15 -219h-213c9 73 9 145 9 219c0 126 -37 188 -114 188c-80 0 -119 -62 -119 -188c0 -74 0 -147 10 -221z" />
    <glyph glyph-name="n" unicode="n" horiz-adv-x="776" 
d="M50 0c28 159 28 347 0 521c82 5 175 20 226 44c-24 -80 -34 -138 -40 -215h16c42 119 134 211 261 211c150 0 201 -105 201 -228c0 -105 -5 -237 17 -333h-206v220c0 119 -48 189 -129 189c-85 0 -136 -71 -136 -192v-217h-210z" />
    <glyph glyph-name="o" unicode="o" horiz-adv-x="765" 
d="M383 -16c-224 0 -355 107 -355 288s131 288 355 288c223 0 354 -107 354 -288s-131 -288 -354 -288zM383 103c99 0 157 61 157 169c0 98 -58 160 -157 160c-101 0 -158 -62 -158 -160c0 -108 57 -169 158 -169z" />
    <glyph glyph-name="p" unicode="p" horiz-adv-x="792" 
d="M513 561c145 0 251 -111 251 -274c0 -176 -128 -304 -314 -304c-71 0 -148 24 -194 79c2 -88 6 -175 19 -262c-88 11 -160 11 -230 2c28 158 28 545 0 719c82 5 175 20 226 44c-24 -78 -34 -134 -40 -190h16c42 96 134 186 266 186zM381 86c105 0 189 67 189 190
c0 92 -53 153 -153 153c-126 0 -162 -96 -162 -212v-90c42 -32 88 -41 126 -41z" />
    <glyph glyph-name="q" unicode="q" horiz-adv-x="792" 
d="M742 564c-28 -231 -23 -604 5 -762c-70 9 -142 9 -230 -2c13 87 17 175 19 262c-44 -52 -117 -79 -192 -79c-188 0 -316 128 -316 306c0 161 106 272 251 272c132 0 224 -92 266 -186h16c-6 52 -8 87 -26 145c74 5 159 20 207 44zM411 86c38 0 84 9 126 41v90
c0 116 -36 212 -162 212c-100 0 -153 -61 -153 -154c0 -122 84 -189 189 -189z" />
    <glyph glyph-name="r" unicode="r" horiz-adv-x="527" 
d="M277 0h-227c29 159 29 342 0 517c79 5 168 21 220 44c-19 -80 -27 -139 -31 -215h16c57 169 170 232 257 204c-16 -51 -16 -124 0 -195c-43 13 -79 19 -108 19c-113 0 -147 -75 -147 -172c0 -70 0 -132 20 -202z" />
    <glyph glyph-name="s" unicode="s" horiz-adv-x="705" 
d="M371 -16c-118 0 -243 21 -329 64c16 43 16 122 0 156c66 -52 204 -88 322 -88c80 0 118 20 118 54c0 116 -452 -32 -452 214c0 162 204 175 319 175c117 0 197 -18 294 -44c-16 -42 -15 -88 3 -158c-82 41 -183 78 -308 78c-82 0 -120 -15 -120 -51
c0 -127 457 37 457 -216c0 -131 -117 -184 -304 -184z" />
    <glyph glyph-name="t" unicode="t" horiz-adv-x="596" 
d="M315 426c-1 -56 -3 -108 -4 -153c-3 -117 53 -146 120 -146c48 0 103 16 145 24c-10 -44 -12 -90 -3 -133c-54 -16 -126 -31 -196 -31c-122 0 -237 44 -237 198c0 37 0 133 -3 237c-50 -2 -98 -6 -142 -11c5 34 5 94 0 129c43 -5 89 -9 137 -11c-3 59 -7 114 -13 156
c80 9 147 20 206 50c-2 -66 -5 -139 -7 -210c91 1 180 6 258 15c-5 -50 -5 -79 0 -129c-79 9 -169 14 -261 15z" />
    <glyph glyph-name="u" unicode="u" horiz-adv-x="736" 
d="M691 555c-28 -158 -28 -381 0 -555h-224c22 67 35 134 38 179h-16c-40 -119 -129 -191 -251 -191c-146 0 -191 105 -191 228c0 105 5 224 -17 310c67 -1 129 7 196 29v-246c0 -105 38 -169 119 -169c100 0 136 67 136 172v214c70 -1 140 7 210 29z" />
    <glyph glyph-name="v" unicode="v" horiz-adv-x="695" 
d="M482 540c67 -13 137 -15 213 0c-95 -186 -159 -354 -222 -540h-251c-61 184 -127 352 -222 540c78 -13 154 -15 218 0c41 -121 83 -285 133 -423c48 138 90 302 131 423z" />
    <glyph glyph-name="w" unicode="w" horiz-adv-x="1090" 
d="M877 541c63 -13 142 -15 213 0c-67 -154 -157 -393 -205 -541h-243c-31 135 -62 260 -98 388c-34 -127 -64 -251 -96 -388h-243c-48 148 -138 387 -205 541c71 -13 157 -15 217 0c27 -117 63 -265 105 -416c43 151 80 299 104 416c76 -12 170 -14 243 0
c24 -117 61 -265 105 -416c41 151 77 299 103 416z" />
    <glyph glyph-name="x" unicode="x" horiz-adv-x="727" 
d="M-10 0c103 96 181 185 260 276c-78 87 -155 171 -250 267c77 -14 187 -16 256 0c25 -52 66 -122 109 -182c41 60 83 130 108 182c74 -14 179 -16 258 0c-96 -95 -176 -179 -252 -266c77 -90 156 -181 258 -277h-269c-24 52 -63 128 -104 189c-42 -61 -81 -137 -105 -189
h-269z" />
    <glyph glyph-name="y" unicode="y" horiz-adv-x="741" 
d="M510 43v136h-16c-40 -107 -129 -171 -251 -171c-146 0 -196 96 -196 208c0 105 5 216 -17 302c67 -1 134 7 201 29v-238c0 -99 38 -159 119 -159c100 0 136 63 136 162v206c67 -1 133 7 200 29v-456c0 -125 -13 -320 -340 -320c-106 0 -213 21 -299 64
c16 43 16 112 0 156c66 -56 185 -88 281 -88c101 0 182 41 182 140z" />
    <glyph glyph-name="z" unicode="z" horiz-adv-x="685" 
d="M41 0c5 39 5 74 0 123c127 73 267 179 366 260v16c-132 0 -261 -12 -367 -20c5 58 5 114 0 172c152 -20 456 -20 598 0c-5 -48 -5 -98 0 -156c-135 -77 -269 -171 -358 -243v-12c125 0 270 15 365 30c-8 -69 -5 -114 0 -170h-604z" />
    <glyph glyph-name="braceleft" unicode="{" horiz-adv-x="418" 
d="M398 -207c-198 -23 -304 28 -290 221c10 144 58 246 -63 246v46c121 0 73 106 63 247c-14 194 94 243 290 220c-5 -35 -5 -67 0 -115c-89 27 -190 28 -169 -133c20 -156 1 -237 -99 -237v-10c101 0 119 -77 99 -237c-20 -161 80 -160 169 -133c-5 -45 -5 -80 0 -115z" />
    <glyph glyph-name="bar" unicode="|" horiz-adv-x="253" 
d="M80 813h93c-11 -203 -11 -849 0 -1052h-93c11 202 11 848 0 1052z" />
    <glyph glyph-name="braceright" unicode="}" horiz-adv-x="418" 
d="M20 -207c5 35 5 70 0 115c89 -27 189 -28 169 133c-20 160 -2 237 99 237v10c-100 0 -119 81 -99 237c21 161 -80 160 -169 133c5 48 5 80 0 115c196 23 304 -26 290 -220c-10 -141 -58 -247 63 -247v-46c-121 0 -73 -102 -63 -246c14 -193 -92 -244 -290 -221z" />
    <glyph glyph-name="asciitilde" unicode="~" horiz-adv-x="600" 
d="M58 292c-5 70 38 166 133 166c119 0 147 -91 223 -91c42 0 56 41 58 78h74c5 -70 -38 -166 -129 -166c-123 0 -151 91 -227 91c-42 0 -56 -41 -58 -78h-74z" />
    <glyph glyph-name="exclamdown" unicode="&#xa1;" horiz-adv-x="323" 
d="M161 596c-73 0 -109 26 -109 80c0 55 36 80 109 80s109 -25 109 -80c0 -54 -36 -80 -109 -80zM35 -10c26 184 36 339 30 527c73 -13 123 -15 193 0c-6 -186 4 -341 30 -527c-81 10 -172 10 -253 0z" />
    <glyph glyph-name="cent" unicode="&#xa2;" horiz-adv-x="725" 
d="M462 422c-3 -99 -3 -196 0 -294c87 7 165 39 223 91c-16 -44 -16 -123 0 -166c-66 -33 -139 -53 -218 -60c2 -46 5 -93 8 -140c-35 5 -70 5 -105 0c3 46 5 92 7 136c-230 4 -349 111 -349 286s119 282 349 286c-2 45 -4 90 -7 137c35 -5 70 -5 105 0
c-3 -48 -6 -95 -8 -141c79 -7 152 -27 218 -60c-16 -43 -16 -142 0 -186c-55 59 -136 101 -223 111zM216 275c0 -87 58 -137 166 -147c2 98 2 195 0 294c-108 -10 -166 -60 -166 -147z" />
    <glyph glyph-name="sterling" unicode="&#xa3;" horiz-adv-x="943" 
d="M893 200c-11 -90 -11 -140 0 -200h-821c11 53 11 100 0 153c50 8 132 54 132 127c0 11 -1 21 -4 31l-160 -10c5 35 5 70 0 105c43 -3 81 -5 116 -7c-21 35 -40 74 -40 131c0 141 124 236 394 236c100 0 237 -16 371 -82c-16 -66 -16 -134 0 -200
c-100 77 -231 127 -348 127c-125 0 -204 -38 -204 -132c0 -36 8 -63 17 -87c96 -1 187 4 349 14c-5 -35 -5 -70 0 -105c-146 10 -234 15 -320 15c2 -9 3 -18 3 -28c0 -88 -138 -127 -177 -127v-18c61 0 573 5 692 57z" />
    <glyph glyph-name="yen" unicode="&#xa5;" horiz-adv-x="915" 
d="M638 371c59 2 121 5 192 10c-5 -35 -5 -70 0 -105c-96 7 -178 11 -254 13c-4 -6 -9 -13 -14 -19c-2 -19 -4 -37 -5 -56c82 2 169 6 273 13c-5 -35 -5 -70 0 -105c-105 7 -193 12 -275 14c0 -45 3 -91 8 -136h-210c5 45 8 91 7 136c-82 -2 -170 -7 -275 -14
c5 35 5 70 0 105c104 -7 191 -11 273 -13c-1 19 -3 37 -5 56c-5 6 -10 13 -14 19c-76 -2 -158 -6 -254 -13c5 35 5 70 0 105c71 -5 133 -8 192 -10c-99 129 -201 256 -307 379c85 -12 190 -13 253 0c75 -123 154 -240 238 -353c84 112 164 230 238 353c63 -13 161 -12 246 0
c-106 -123 -208 -250 -307 -379z" />
    <glyph glyph-name="brokenbar" unicode="&#xa6;" horiz-adv-x="253" 
d="M88 403c-1 170 -4 327 -8 410h93c-4 -83 -7 -240 -8 -410h-77zM165 171c0 -169 3 -329 8 -410h-93c5 81 8 241 8 410h77z" />
    <glyph glyph-name="section" unicode="&#xa7;" horiz-adv-x="841" 
d="M30 253c0 124 122 143 238 142v18c-86 10 -198 46 -198 168c0 159 187 183 365 183c132 0 217 -19 304 -46c-10 -57 -10 -113 0 -160c-98 46 -190 75 -332 75c-68 0 -149 -7 -149 -64c0 -150 553 22 553 -244c0 -135 -146 -157 -250 -157v-17c86 -10 213 -42 213 -170
c0 -156 -195 -185 -380 -185c-108 0 -205 18 -296 46c10 57 10 113 0 160c88 -44 185 -75 327 -75c73 0 161 8 161 74c0 145 -556 -12 -556 252zM418 383c-129 1 -200 -36 -200 -97c0 -63 77 -98 200 -95c133 -2 206 35 205 95c-1 62 -80 95 -205 97z" />
    <glyph glyph-name="dieresis" unicode="&#xa8;" horiz-adv-x="560" 
d="M136 624c-63 0 -96 22 -96 71c0 48 33 71 96 71c70 0 104 -23 104 -71c0 -49 -34 -71 -104 -71zM416 624c-63 0 -96 22 -96 71c0 48 33 71 96 71c70 0 104 -23 104 -71c0 -49 -34 -71 -104 -71z" />
    <glyph glyph-name="copyright" unicode="&#xa9;" horiz-adv-x="1102" 
d="M551 -45c-322 0 -511 148 -511 402c0 253 189 401 511 401s511 -148 511 -401c0 -254 -189 -402 -511 -402zM551 48c248 0 394 112 394 304c0 191 -146 304 -394 304c-251 0 -392 -113 -392 -304c0 -192 141 -304 392 -304zM560 154c-162 0 -247 72 -247 193
c0 122 85 194 247 194c72 0 140 -14 199 -43c-11 -29 -11 -97 0 -126c-44 44 -108 73 -178 73c-89 0 -137 -33 -137 -98c0 -64 48 -97 137 -97c70 0 133 21 178 59c-11 -30 -11 -83 0 -112c-59 -29 -127 -43 -199 -43z" />
    <glyph glyph-name="guillemotleft" unicode="&#xab;" horiz-adv-x="698" 
d="M50 272c90 66 167 128 232 218h129c-126 -90 -204 -192 -271 -218c67 -23 145 -129 271 -221h-129c-65 92 -144 158 -232 221zM253 272c95 66 188 128 256 218h129c-130 -90 -224 -192 -295 -218c71 -23 165 -129 295 -221h-129c-68 92 -163 158 -256 221z" />
    <glyph glyph-name="logicalnot" unicode="&#xac;" horiz-adv-x="600" 
d="M432 132c5 68 5 137 0 205c-123 4 -261 3 -369 -3c4 19 4 68 -1 88c130 -7 263 -7 461 0c-5 -97 -6 -193 -1 -290h-90z" />
    <glyph glyph-name="registered" unicode="&#xae;" horiz-adv-x="861" 
d="M431 198c-247 0 -391 112 -391 307c0 193 144 307 391 307c246 0 390 -113 390 -307c0 -195 -144 -307 -390 -307zM431 259c197 0 315 89 315 243c0 151 -118 242 -315 242c-202 0 -314 -90 -314 -242c0 -154 112 -243 314 -243zM282 365c4 63 4 213 0 277
c66 -1 103 1 165 1c109 0 158 -29 158 -90c0 -65 -69 -78 -98 -78v-6c59 -7 92 -68 109 -104h-115c0 47 0 107 -100 107h-35c0 -57 2 -80 5 -107h-89zM365 513c22 -1 46 -4 75 -4c51 0 79 15 79 44c0 26 -30 37 -76 37c-30 0 -61 -3 -77 -3c0 -22 -1 -48 -1 -74z" />
    <glyph glyph-name="macron" unicode="&#xaf;" horiz-adv-x="600" 
d="M65 673c5 26 5 71 0 97c146 -7 349 -7 500 0c-5 -26 -5 -71 0 -97c-150 7 -354 7 -500 0z" />
    <glyph glyph-name="degree" unicode="&#xb0;" horiz-adv-x="391" 
d="M196 540c-107 0 -168 50 -168 136c0 85 61 136 168 136c106 0 167 -50 167 -136s-61 -136 -167 -136zM196 608c51 0 81 24 81 67c0 42 -30 66 -81 66c-52 0 -81 -24 -81 -66c0 -43 29 -67 81 -67z" />
    <glyph glyph-name="plusminus" unicode="&#xb1;" horiz-adv-x="600" 
d="M549 473c-5 -23 -5 -61 0 -87c-73 3 -144 5 -214 5c0 -40 3 -80 6 -121c-29 4 -68 4 -93 0c3 42 4 82 5 121c-68 0 -137 -2 -208 -5c5 26 5 64 0 87c71 -3 140 -5 208 -5c-1 40 -2 80 -5 123c25 -3 64 -3 93 0c-3 -42 -6 -83 -6 -123c70 0 140 2 214 5zM45 219
c165 -7 338 -7 504 0c-5 -23 -5 -61 0 -87c-165 7 -339 7 -504 0c5 26 5 64 0 87z" />
    <glyph glyph-name="acute" unicode="&#xb4;" horiz-adv-x="448" 
d="M80 630c40 49 93 127 122 176c51 -10 193 -10 246 0c-71 -49 -176 -127 -229 -176c-25 2 -109 2 -139 0z" />
    <glyph glyph-name="paragraph" unicode="&#xb6;" horiz-adv-x="633" 
d="M30 543c0 121 86 207 208 207h132c-10 -260 -10 -600 0 -860c-41 5 -91 5 -132 0c10 148 10 297 10 445c-122 0 -218 86 -218 208zM453 750c41 -5 94 -5 135 0c-10 -260 -10 -600 0 -860c-41 5 -94 5 -135 0c10 260 10 600 0 860z" />
    <glyph glyph-name="periodcentered" unicode="&#xb7;" horiz-adv-x="288" 
d="M144 188c-73 0 -109 25 -109 80c0 54 36 80 109 80s109 -26 109 -80c0 -55 -36 -80 -109 -80z" />
    <glyph glyph-name="cedilla" unicode="&#xb8;" horiz-adv-x="469" 
d="M242 -242c-76 0 -136 12 -202 48c5 28 5 56 0 82c54 -40 122 -60 189 -60c57 0 86 13 86 40c0 30 -36 46 -148 46l27 95h86l-23 -76c130 9 172 -32 172 -82c0 -56 -55 -93 -187 -93z" />
    <glyph glyph-name="guillemotright" unicode="&#xbb;" horiz-adv-x="698" 
d="M477 272c-93 -63 -188 -129 -256 -221h-129c130 92 224 198 295 221c-71 26 -165 128 -295 218h129c68 -90 161 -152 256 -218zM680 272c-88 -63 -167 -129 -232 -221h-129c126 92 204 198 271 221c-67 26 -145 128 -271 218h129c65 -90 142 -152 232 -218z" />
    <glyph glyph-name="questiondown" unicode="&#xbf;" horiz-adv-x="769" 
d="M413 556c73 0 109 -25 109 -80c0 -54 -36 -80 -109 -80s-109 26 -109 80c0 55 36 80 109 80zM516 317c-9 -175 -260 -196 -260 -308c0 -44 38 -80 129 -80c108 0 239 50 339 127c-16 -66 -16 -134 0 -200c-134 -66 -271 -82 -359 -82c-203 0 -325 85 -325 203
c0 181 264 189 273 340c58 -12 133 -12 203 0z" />
    <glyph glyph-name="Agrave" unicode="&#xc0;" horiz-adv-x="1004" 
d="M564 836c-23 2 -121 2 -144 0c-60 43 -173 114 -249 166c49 -10 212 -10 261 0c35 -54 90 -125 132 -166zM999 0h-248c-14 43 -32 93 -51 145c-120 4 -282 4 -403 0l-55 -145h-237c119 250 227 500 326 750c85 -11 256 -16 340 0c99 -250 209 -500 328 -750zM344 267
c94 -4 215 -4 310 0c-61 159 -127 315 -157 370c-29 -55 -92 -210 -153 -370z" />
    <glyph glyph-name="Aacute" unicode="&#xc1;" horiz-adv-x="1004" 
d="M558 836c-23 3 -121 3 -144 0c42 41 92 112 132 166c49 -10 212 -10 261 0c-81 -52 -189 -123 -249 -166zM999 0h-248c-14 43 -32 93 -51 145c-120 4 -282 4 -403 0l-55 -145h-237c119 250 227 500 326 750c85 -11 256 -16 340 0c99 -250 209 -500 328 -750zM344 267
c94 -4 215 -4 310 0c-61 159 -127 315 -157 370c-29 -55 -92 -210 -153 -370z" />
    <glyph glyph-name="Acircumflex" unicode="&#xc2;" horiz-adv-x="1004" 
d="M422 842c-61 5 -131 5 -190 0c76 61 125 98 185 159c54 -3 113 -3 163 0c63 -60 114 -97 193 -159c-60 5 -124 5 -187 0c-29 36 -51 64 -85 94c-32 -30 -52 -58 -79 -94zM999 0h-248c-14 43 -32 93 -51 145c-120 4 -282 4 -403 0l-55 -145h-237c119 250 227 500 326 750
c85 -11 256 -16 340 0c99 -250 209 -500 328 -750zM344 267c94 -4 215 -4 310 0c-61 159 -127 315 -157 370c-29 -55 -92 -210 -153 -370z" />
    <glyph glyph-name="Atilde" unicode="&#xc3;" horiz-adv-x="1004" 
d="M621 853c-98 0 -166 41 -273 41c-41 0 -91 -6 -135 -42c1 7 3 14 4 21c16 78 50 142 168 142c96 0 156 -41 267 -41c36 0 90 4 139 41c-1 -6 -2 -13 -4 -19c-16 -75 -49 -143 -166 -143zM999 0h-248c-14 43 -32 93 -51 145c-120 4 -282 4 -403 0l-55 -145h-237
c119 250 227 500 326 750c85 -11 256 -16 340 0c99 -250 209 -500 328 -750zM344 267c94 -4 215 -4 310 0c-61 159 -127 315 -157 370c-29 -55 -92 -210 -153 -370z" />
    <glyph glyph-name="Adieresis" unicode="&#xc4;" horiz-adv-x="1004" 
d="M346 832c-67 0 -102 21 -102 70c0 47 35 70 102 70c75 0 111 -23 111 -70c0 -49 -36 -70 -111 -70zM648 832c-67 0 -102 21 -102 70c0 47 35 70 102 70c75 0 111 -23 111 -70c0 -49 -36 -70 -111 -70zM999 0h-248c-14 43 -32 93 -51 145c-120 4 -282 4 -403 0l-55 -145
h-237c119 250 227 500 326 750c85 -11 256 -16 340 0c99 -250 209 -500 328 -750zM344 267c94 -4 215 -4 310 0c-61 159 -127 315 -157 370c-29 -55 -92 -210 -153 -370z" />
    <glyph glyph-name="Aring" unicode="&#xc5;" horiz-adv-x="1004" 
d="M503 806c-102 0 -160 43 -160 120c0 76 58 121 160 121c100 0 158 -43 158 -121c0 -77 -58 -120 -158 -120zM503 980c-46 0 -73 -20 -73 -55c0 -34 27 -53 73 -53s72 19 72 53c0 35 -26 55 -72 55zM999 0h-248c-14 43 -32 93 -51 145c-120 4 -282 4 -403 0l-55 -145h-237
c119 250 227 500 326 750c85 -11 256 -16 340 0c99 -250 209 -500 328 -750zM344 267c94 -4 215 -4 310 0c-61 159 -127 315 -157 370c-29 -55 -92 -210 -153 -370z" />
    <glyph glyph-name="AE" unicode="&#xc6;" horiz-adv-x="1489" 
d="M1434 557c-120 40 -388 64 -562 60c-6 -63 -8 -127 -7 -190c175 -4 359 6 479 22c-10 -53 -10 -107 0 -160c-121 15 -305 24 -479 19c-1 -60 2 -121 8 -181c174 -4 442 20 561 63c-10 -63 -10 -127 0 -190h-781c3 39 5 91 7 150c-108 3 -216 3 -324 1
c-33 -51 -66 -102 -99 -151h-237c185 245 360 495 525 750c231 -15 789 -16 909 -3c-10 -63 -10 -127 0 -190zM411 266c84 -3 168 -3 252 -1c2 134 2 277 -1 365h-4c-83 -112 -165 -237 -247 -364z" />
    <glyph glyph-name="Ccedilla" unicode="&#xc7;" horiz-adv-x="1058" 
d="M549 -70c150 9 199 -34 199 -86c0 -59 -64 -97 -216 -97c-86 0 -156 12 -233 50c6 29 6 58 0 85c63 -41 141 -62 218 -62c66 0 99 13 99 42c0 31 -41 48 -170 48l24 76c-276 26 -430 173 -430 393c0 258 211 392 542 392c117 0 252 -17 414 -83c-9 -70 -9 -121 0 -191
c-163 104 -304 129 -403 130c-209 2 -343 -88 -343 -248c0 -148 109 -253 336 -253c145 0 285 46 408 167c-7 -71 5 -139 14 -186c-114 -81 -245 -124 -441 -125z" />
    <glyph glyph-name="Egrave" unicode="&#xc8;" horiz-adv-x="966" 
d="M399 836c-60 43 -173 114 -249 166c49 -10 212 -10 261 0c35 -54 90 -125 132 -166c-23 2 -121 2 -144 0zM80 0c15 173 15 577 0 750c95 -13 660 -21 831 -3c-5 -60 -5 -121 0 -181c-120 33 -430 53 -612 50c-3 -61 -4 -123 -3 -184c185 -4 425 6 545 17
c-5 -48 -5 -102 0 -150c-121 10 -361 19 -545 14c0 -60 1 -119 5 -179c183 -3 491 17 610 50c-5 -60 -5 -124 0 -184h-831z" />
    <glyph glyph-name="Eacute" unicode="&#xc9;" horiz-adv-x="966" 
d="M393 836c42 41 92 112 132 166c49 -10 212 -10 261 0c-81 -52 -189 -123 -249 -166c-23 3 -121 3 -144 0zM80 0c15 173 15 577 0 750c95 -13 660 -21 831 -3c-5 -60 -5 -121 0 -181c-120 33 -430 53 -612 50c-3 -61 -4 -123 -3 -184c185 -4 425 6 545 17
c-5 -48 -5 -102 0 -150c-121 10 -361 19 -545 14c0 -60 1 -119 5 -179c183 -3 491 17 610 50c-5 -60 -5 -124 0 -184h-831z" />
    <glyph glyph-name="Ecircumflex" unicode="&#xca;" horiz-adv-x="966" 
d="M211 842c76 61 125 98 185 159c54 -3 113 -3 163 0c63 -60 114 -97 193 -159c-60 5 -124 5 -187 0c-29 36 -51 64 -85 94c-32 -30 -52 -58 -79 -94c-61 5 -131 5 -190 0zM80 0c15 173 15 577 0 750c95 -13 660 -21 831 -3c-5 -60 -5 -121 0 -181c-120 33 -430 53 -612 50
c-3 -61 -4 -123 -3 -184c185 -4 425 6 545 17c-5 -48 -5 -102 0 -150c-121 10 -361 19 -545 14c0 -60 1 -119 5 -179c183 -3 491 17 610 50c-5 -60 -5 -124 0 -184h-831z" />
    <glyph glyph-name="Edieresis" unicode="&#xcb;" horiz-adv-x="966" 
d="M325 832c-67 0 -102 21 -102 70c0 47 35 70 102 70c75 0 111 -23 111 -70c0 -49 -36 -70 -111 -70zM627 832c-67 0 -102 21 -102 70c0 47 35 70 102 70c75 0 111 -23 111 -70c0 -49 -36 -70 -111 -70zM80 0c15 173 15 577 0 750c95 -13 660 -21 831 -3
c-5 -60 -5 -121 0 -181c-120 33 -430 53 -612 50c-3 -61 -4 -123 -3 -184c185 -4 425 6 545 17c-5 -48 -5 -102 0 -150c-121 10 -361 19 -545 14c0 -60 1 -119 5 -179c183 -3 491 17 610 50c-5 -60 -5 -124 0 -184h-831z" />
    <glyph glyph-name="Igrave" unicode="&#xcc;" horiz-adv-x="390" 
d="M113 836c-60 43 -173 114 -249 166c49 -10 212 -10 261 0c35 -54 90 -125 132 -166c-23 2 -121 2 -144 0zM80 0c15 173 15 577 0 750c78 -12 154 -13 227 0c-14 -173 -14 -579 3 -750h-230z" />
    <glyph glyph-name="Iacute" unicode="&#xcd;" horiz-adv-x="390" 
d="M107 836c42 41 92 112 132 166c49 -10 212 -10 261 0c-81 -52 -189 -123 -249 -166c-23 3 -121 3 -144 0zM80 0c15 173 15 577 0 750c78 -12 154 -13 227 0c-14 -173 -14 -579 3 -750h-230z" />
    <glyph glyph-name="Icircumflex" unicode="&#xce;" horiz-adv-x="370" 
d="M-65 842c68 61 111 98 165 159c54 -3 113 -3 163 0c56 -60 102 -97 173 -159c-60 5 -124 5 -187 0c-22 36 -39 64 -65 94c-24 -30 -39 -58 -59 -94c-61 5 -131 5 -190 0zM80 0c15 173 15 577 0 750c78 -12 154 -13 227 0c-14 -173 -14 -579 3 -750h-230z" />
    <glyph glyph-name="Idieresis" unicode="&#xcf;" horiz-adv-x="370" 
d="M49 850c-67 0 -102 21 -102 70c0 47 35 70 102 70c75 0 111 -23 111 -70c0 -49 -36 -70 -111 -70zM311 850c-67 0 -102 21 -102 70c0 47 35 70 102 70c75 0 111 -23 111 -70c0 -49 -36 -70 -111 -70zM80 0c15 173 15 577 0 750c78 -12 154 -13 227 0
c-14 -173 -14 -579 3 -750h-230z" />
    <glyph glyph-name="Eth" unicode="&#xd0;" horiz-adv-x="1110" 
d="M535 756c336 0 535 -140 535 -377c0 -239 -207 -381 -557 -381c-128 0 -272 2 -416 2c6 72 10 204 10 341c-45 -1 -91 -3 -137 -6c3 31 3 61 0 92c46 -3 92 -5 137 -6c0 133 -4 260 -10 329c203 0 302 6 438 6zM513 129c212 0 337 93 337 250c0 156 -123 247 -331 247
c-53 0 -128 -6 -208 -5c-2 -68 -2 -134 -3 -200c55 1 110 3 164 6c-2 -31 -2 -61 0 -92c-54 3 -109 5 -163 7c0 -67 1 -134 3 -203c42 -2 119 -10 201 -10z" />
    <glyph glyph-name="Ntilde" unicode="&#xd1;" horiz-adv-x="1082" 
d="M660 853c-98 0 -166 41 -273 41c-41 0 -91 -6 -135 -42c1 7 3 14 4 21c16 78 50 142 168 142c96 0 156 -41 267 -41c36 0 90 4 139 41c-1 -6 -2 -13 -4 -19c-16 -75 -49 -143 -166 -143zM711 0c-134 197 -276 389 -425 578c-4 -193 1 -386 12 -578h-218
c10 250 10 500 0 750c78 -10 220 -13 298 0c131 -199 270 -394 416 -585c4 195 1 390 -10 585c75 -12 147 -13 215 0c-9 -250 -8 -500 3 -750h-291z" />
    <glyph glyph-name="Ograve" unicode="&#xd2;" horiz-adv-x="1103" 
d="M470 836c-60 43 -173 114 -249 166c49 -10 212 -10 261 0c35 -54 90 -125 132 -166c-23 2 -121 2 -144 0zM552 -17c-322 0 -512 145 -512 394s190 394 512 394s511 -145 511 -394s-189 -394 -511 -394zM552 116c191 0 303 94 303 256c0 167 -112 265 -303 265
c-193 0 -302 -98 -302 -265c0 -162 109 -256 302 -256z" />
    <glyph glyph-name="Oacute" unicode="&#xd3;" horiz-adv-x="1103" 
d="M464 836c42 41 92 112 132 166c49 -10 212 -10 261 0c-81 -52 -189 -123 -249 -166c-23 3 -121 3 -144 0zM552 -17c-322 0 -512 145 -512 394s190 394 512 394s511 -145 511 -394s-189 -394 -511 -394zM552 116c191 0 303 94 303 256c0 167 -112 265 -303 265
c-193 0 -302 -98 -302 -265c0 -162 109 -256 302 -256z" />
    <glyph glyph-name="Ocircumflex" unicode="&#xd4;" horiz-adv-x="1103" 
d="M282 842c76 61 125 98 185 159c54 -3 113 -3 163 0c63 -60 114 -97 193 -159c-60 5 -124 5 -187 0c-29 36 -51 64 -85 94c-32 -30 -52 -58 -79 -94c-61 5 -131 5 -190 0zM552 -17c-322 0 -512 145 -512 394s190 394 512 394s511 -145 511 -394s-189 -394 -511 -394z
M552 116c191 0 303 94 303 256c0 167 -112 265 -303 265c-193 0 -302 -98 -302 -265c0 -162 109 -256 302 -256z" />
    <glyph glyph-name="Otilde" unicode="&#xd5;" horiz-adv-x="1103" 
d="M671 853c-98 0 -166 41 -273 41c-41 0 -91 -6 -135 -42c1 7 3 14 4 21c16 78 50 142 168 142c96 0 156 -41 267 -41c36 0 90 4 139 41c-1 -6 -2 -13 -4 -19c-16 -75 -49 -143 -166 -143zM552 -17c-322 0 -512 145 -512 394s190 394 512 394s511 -145 511 -394
s-189 -394 -511 -394zM552 116c191 0 303 94 303 256c0 167 -112 265 -303 265c-193 0 -302 -98 -302 -265c0 -162 109 -256 302 -256z" />
    <glyph glyph-name="Odieresis" unicode="&#xd6;" horiz-adv-x="1103" 
d="M396 832c-67 0 -102 21 -102 70c0 47 35 70 102 70c75 0 111 -23 111 -70c0 -49 -36 -70 -111 -70zM698 832c-67 0 -102 21 -102 70c0 47 35 70 102 70c75 0 111 -23 111 -70c0 -49 -36 -70 -111 -70zM552 -17c-322 0 -512 145 -512 394s190 394 512 394
s511 -145 511 -394s-189 -394 -511 -394zM552 116c191 0 303 94 303 256c0 167 -112 265 -303 265c-193 0 -302 -98 -302 -265c0 -162 109 -256 302 -256z" />
    <glyph glyph-name="multiply" unicode="&#xd7;" horiz-adv-x="539" 
d="M479 495c-55 -46 -106 -89 -156 -134c50 -45 101 -89 156 -135c-22 -13 -46 -36 -62 -58c-50 51 -98 98 -148 144c-48 -45 -96 -92 -147 -144c-16 22 -40 45 -62 58c55 47 106 91 156 135c-49 44 -100 88 -156 134c24 15 48 38 62 57c51 -51 99 -97 147 -142
c49 45 97 92 148 142c14 -19 38 -42 62 -57z" />
    <glyph glyph-name="Oslash" unicode="&#xd8;" horiz-adv-x="1103" 
d="M938 660c81 -68 125 -163 125 -283c0 -249 -189 -394 -511 -394c-133 0 -244 25 -328 72l-118 -105c-13 25 -40 53 -66 68c37 29 74 59 111 89c-72 66 -111 158 -111 270c0 249 190 394 512 394c124 0 228 -22 310 -62c34 30 68 61 102 92c17 -27 44 -55 66 -68
c-31 -24 -61 -49 -92 -73zM250 372c0 -59 15 -110 43 -149c148 122 297 247 441 373c-48 27 -109 41 -182 41c-193 0 -302 -98 -302 -265zM552 116c191 0 303 94 303 256c0 71 -20 129 -58 173c-149 -123 -298 -250 -446 -379c50 -33 118 -50 201 -50z" />
    <glyph glyph-name="Ugrave" unicode="&#xd9;" horiz-adv-x="1028" 
d="M430 836c-60 43 -173 114 -249 166c49 -10 212 -10 261 0c35 -54 90 -125 132 -166c-23 2 -121 2 -144 0zM964 369c0 -248 -167 -395 -453 -395c-297 0 -451 147 -451 395c0 159 -3 298 -10 381c72 -12 157 -13 225 0c-7 -83 -10 -217 -10 -386c0 -159 79 -256 246 -256
c165 0 246 97 246 256c0 169 -2 303 -9 386c72 -12 158 -13 225 0c-7 -83 -9 -242 -9 -381z" />
    <glyph glyph-name="Uacute" unicode="&#xda;" horiz-adv-x="1028" 
d="M424 836c42 41 92 112 132 166c49 -10 212 -10 261 0c-81 -52 -189 -123 -249 -166c-23 3 -121 3 -144 0zM964 369c0 -248 -167 -395 -453 -395c-297 0 -451 147 -451 395c0 159 -3 298 -10 381c72 -12 157 -13 225 0c-7 -83 -10 -217 -10 -386c0 -159 79 -256 246 -256
c165 0 246 97 246 256c0 169 -2 303 -9 386c72 -12 158 -13 225 0c-7 -83 -9 -242 -9 -381z" />
    <glyph glyph-name="Ucircumflex" unicode="&#xdb;" horiz-adv-x="1028" 
d="M242 842c76 61 125 98 185 159c54 -3 113 -3 163 0c63 -60 114 -97 193 -159c-60 5 -124 5 -187 0c-29 36 -51 64 -85 94c-32 -30 -52 -58 -79 -94c-61 5 -131 5 -190 0zM964 369c0 -248 -167 -395 -453 -395c-297 0 -451 147 -451 395c0 159 -3 298 -10 381
c72 -12 157 -13 225 0c-7 -83 -10 -217 -10 -386c0 -159 79 -256 246 -256c165 0 246 97 246 256c0 169 -2 303 -9 386c72 -12 158 -13 225 0c-7 -83 -9 -242 -9 -381z" />
    <glyph glyph-name="Udieresis" unicode="&#xdc;" horiz-adv-x="1028" 
d="M356 832c-67 0 -102 21 -102 70c0 47 35 70 102 70c75 0 111 -23 111 -70c0 -49 -36 -70 -111 -70zM658 832c-67 0 -102 21 -102 70c0 47 35 70 102 70c75 0 111 -23 111 -70c0 -49 -36 -70 -111 -70zM964 369c0 -248 -167 -395 -453 -395c-297 0 -451 147 -451 395
c0 159 -3 298 -10 381c72 -12 157 -13 225 0c-7 -83 -10 -217 -10 -386c0 -159 79 -256 246 -256c165 0 246 97 246 256c0 169 -2 303 -9 386c72 -12 158 -13 225 0c-7 -83 -9 -242 -9 -381z" />
    <glyph glyph-name="Yacute" unicode="&#xdd;" horiz-adv-x="915" 
d="M521 826c-23 3 -121 3 -144 0c42 41 92 112 132 166c49 -10 212 -10 261 0c-81 -52 -189 -123 -249 -166zM562 270c-10 -90 -9 -180 1 -270h-210c10 90 10 180 0 270c-123 165 -250 325 -383 480c85 -12 190 -13 253 0c75 -123 154 -240 238 -353c84 112 164 230 238 353
c63 -13 161 -12 246 0c-133 -155 -260 -315 -383 -480z" />
    <glyph glyph-name="Thorn" unicode="&#xde;" horiz-adv-x="993" 
d="M553 624c312 0 405 -104 405 -247c0 -147 -93 -247 -405 -247c-84 0 -167 -3 -251 -5c2 -47 5 -90 8 -125h-230c15 173 15 577 0 750c78 -12 154 -13 227 0c-3 -34 -5 -75 -6 -121c84 -2 168 -5 252 -5zM497 244c173 0 247 43 247 133c0 87 -74 133 -247 133
c-66 0 -133 -3 -199 -5c-2 -83 -1 -173 0 -256c66 -2 133 -5 199 -5z" />
    <glyph glyph-name="germandbls" unicode="&#xdf;" horiz-adv-x="819" 
d="M511 -18c-51 0 -115 8 -191 30c5 48 5 97 0 145c62 -27 113 -37 164 -37c68 0 103 35 103 82c0 85 -116 129 -264 119c5 32 5 65 0 97c128 -10 165 78 165 137c0 63 -42 106 -115 106c-84 0 -139 -61 -139 -186c0 -146 2 -290 15 -475h-204c12 195 13 348 7 490
c-7 162 51 310 329 310c205 0 315 -96 315 -215c0 -70 -40 -125 -131 -174c80 -2 229 -50 229 -208c0 -135 -109 -221 -283 -221z" />
    <glyph glyph-name="agrave" unicode="&#xe0;" horiz-adv-x="752" 
d="M431 630c-30 2 -114 2 -139 0c-53 49 -158 127 -229 176c53 -10 195 -10 246 0c29 -49 82 -127 122 -176zM717 0h-195c-13 40 -19 80 -21 119c-54 -85 -117 -135 -245 -135c-147 0 -221 65 -221 151c0 96 100 162 310 162h155c-7 77 -38 129 -162 129
c-115 0 -225 -44 -284 -104c9 47 9 132 0 172c77 33 176 65 310 65c196 0 320 -63 320 -249c0 -131 8 -230 33 -310zM350 110c51 0 103 12 150 37c0 28 1 56 1 83v20h-55c-142 0 -208 -25 -208 -74c0 -39 35 -66 112 -66z" />
    <glyph glyph-name="aacute" unicode="&#xe1;" horiz-adv-x="752" 
d="M427 630c-25 2 -109 2 -139 0c40 49 93 127 122 176c51 -10 193 -10 246 0c-71 -49 -176 -127 -229 -176zM717 0h-195c-13 40 -19 80 -21 119c-54 -85 -117 -135 -245 -135c-147 0 -221 65 -221 151c0 96 100 162 310 162h155c-7 77 -38 129 -162 129
c-115 0 -225 -44 -284 -104c9 47 9 132 0 172c77 33 176 65 310 65c196 0 320 -63 320 -249c0 -131 8 -230 33 -310zM350 110c51 0 103 12 150 37c0 28 1 56 1 83v20h-55c-142 0 -208 -25 -208 -74c0 -39 35 -66 112 -66z" />
    <glyph glyph-name="acircumflex" unicode="&#xe2;" horiz-adv-x="752" 
d="M292 629c-55 5 -109 5 -165 0c68 70 109 119 155 179c50 -3 103 -3 153 0c52 -60 98 -109 173 -179c-57 5 -116 5 -172 0c-26 38 -44 62 -74 99c-28 -37 -46 -61 -70 -99zM717 0h-195c-13 40 -19 80 -21 119c-54 -85 -117 -135 -245 -135c-147 0 -221 65 -221 151
c0 96 100 162 310 162h155c-7 77 -38 129 -162 129c-115 0 -225 -44 -284 -104c9 47 9 132 0 172c77 33 176 65 310 65c196 0 320 -63 320 -249c0 -131 8 -230 33 -310zM350 110c51 0 103 12 150 37c0 28 1 56 1 83v20h-55c-142 0 -208 -25 -208 -74c0 -39 35 -66 112 -66z
" />
    <glyph glyph-name="atilde" unicode="&#xe3;" horiz-adv-x="752" 
d="M242 695c-35 0 -77 -6 -114 -53c0 3 0 6 1 10c21 82 39 156 142 156c80 0 130 -42 222 -42c29 0 74 4 115 42c-1 -4 -1 -8 -2 -12c-18 -73 -39 -143 -138 -143c-83 0 -139 42 -226 42zM717 0h-195c-13 40 -19 80 -21 119c-54 -85 -117 -135 -245 -135
c-147 0 -221 65 -221 151c0 96 100 162 310 162h155c-7 77 -38 129 -162 129c-115 0 -225 -44 -284 -104c9 47 9 132 0 172c77 33 176 65 310 65c196 0 320 -63 320 -249c0 -131 8 -230 33 -310zM350 110c51 0 103 12 150 37c0 28 1 56 1 83v20h-55
c-142 0 -208 -25 -208 -74c0 -39 35 -66 112 -66z" />
    <glyph glyph-name="adieresis" unicode="&#xe4;" horiz-adv-x="752" 
d="M223 624c-63 0 -96 22 -96 71c0 48 33 71 96 71c70 0 104 -23 104 -71c0 -49 -34 -71 -104 -71zM503 624c-63 0 -96 22 -96 71c0 48 33 71 96 71c70 0 104 -23 104 -71c0 -49 -34 -71 -104 -71zM717 0h-195c-13 40 -19 80 -21 119c-54 -85 -117 -135 -245 -135
c-147 0 -221 65 -221 151c0 96 100 162 310 162h155c-7 77 -38 129 -162 129c-115 0 -225 -44 -284 -104c9 47 9 132 0 172c77 33 176 65 310 65c196 0 320 -63 320 -249c0 -131 8 -230 33 -310zM350 110c51 0 103 12 150 37c0 28 1 56 1 83v20h-55
c-142 0 -208 -25 -208 -74c0 -39 35 -66 112 -66z" />
    <glyph glyph-name="aring" unicode="&#xe5;" horiz-adv-x="752" 
d="M369 610c-92 0 -143 41 -143 114c0 72 51 115 143 115c90 0 141 -42 141 -115s-51 -114 -141 -114zM369 775c-42 0 -65 -19 -65 -52c0 -32 23 -50 65 -50c41 0 64 18 64 50c0 33 -23 52 -64 52zM717 0h-195c-13 40 -19 80 -21 119c-54 -85 -117 -135 -245 -135
c-147 0 -221 65 -221 151c0 96 100 162 310 162h155c-7 77 -38 129 -162 129c-115 0 -225 -44 -284 -104c9 47 9 132 0 172c77 33 176 65 310 65c196 0 320 -63 320 -249c0 -131 8 -230 33 -310zM350 110c51 0 103 12 150 37c0 28 1 56 1 83v20h-55
c-142 0 -208 -25 -208 -74c0 -39 35 -66 112 -66z" />
    <glyph glyph-name="ae" unicode="&#xe6;" horiz-adv-x="1219" 
d="M1176 210c-16 -44 -16 -119 0 -162c-86 -43 -198 -64 -298 -64c-170 0 -279 50 -328 145c-65 -94 -144 -145 -294 -145c-147 0 -221 65 -221 151c0 102 100 164 310 164h176c-2 62 -28 127 -183 127c-115 0 -225 -44 -284 -104c9 47 9 132 0 172c77 33 176 65 310 65
c100 0 180 -21 236 -84c47 56 129 86 232 86c201 0 365 -110 340 -315c-231 5 -389 5 -472 1c13 -82 70 -130 196 -127c89 2 214 36 280 90zM832 434c-82 0 -133 -41 -135 -132c74 -7 182 -7 279 -2c-11 89 -59 134 -144 134zM350 110c63 0 128 16 188 47
c-10 29 -16 60 -17 95h-75c-142 0 -208 -21 -208 -76c0 -39 35 -66 112 -66z" />
    <glyph glyph-name="ccedilla" unicode="&#xe7;" horiz-adv-x="725" 
d="M424 424c-135 0 -208 -51 -208 -149s73 -149 208 -149c102 0 195 34 261 93c-16 -44 -16 -123 0 -166c-84 -42 -180 -63 -284 -64l-17 -56c130 9 172 -32 172 -82c0 -56 -55 -93 -187 -93c-76 0 -136 12 -202 48c5 28 5 56 0 82c54 -40 122 -60 189 -60c57 0 86 13 86 40
c0 30 -36 46 -148 46l22 79c-190 21 -288 123 -288 282c0 179 124 286 364 286c107 0 207 -21 293 -64c-16 -43 -16 -142 0 -186c-63 67 -159 113 -261 113z" />
    <glyph glyph-name="egrave" unicode="&#xe8;" horiz-adv-x="756" 
d="M437 630c-30 2 -114 2 -139 0c-53 49 -158 127 -229 176c53 -10 195 -10 246 0c29 -49 82 -127 122 -176zM713 210c-11 -44 -11 -119 0 -162c-86 -43 -198 -64 -308 -64c-250 0 -377 108 -377 287c0 183 130 290 336 290c208 0 370 -110 345 -315c-231 5 -396 5 -481 1
c14 -79 71 -130 195 -127c99 2 224 36 290 90zM364 434c-83 0 -135 -44 -140 -131c77 -4 189 -4 288 -2c-12 86 -62 133 -148 133z" />
    <glyph glyph-name="eacute" unicode="&#xe9;" horiz-adv-x="756" 
d="M433 630c-25 2 -109 2 -139 0c40 49 93 127 122 176c51 -10 193 -10 246 0c-71 -49 -176 -127 -229 -176zM713 210c-11 -44 -11 -119 0 -162c-86 -43 -198 -64 -308 -64c-250 0 -377 108 -377 287c0 183 130 290 336 290c208 0 370 -110 345 -315c-231 5 -396 5 -481 1
c14 -79 71 -130 195 -127c99 2 224 36 290 90zM364 434c-83 0 -135 -44 -140 -131c77 -4 189 -4 288 -2c-12 86 -62 133 -148 133z" />
    <glyph glyph-name="ecircumflex" unicode="&#xea;" horiz-adv-x="756" 
d="M298 629c-55 5 -109 5 -165 0c68 70 109 119 155 179c50 -3 103 -3 153 0c52 -60 98 -109 173 -179c-57 5 -116 5 -172 0c-26 38 -44 62 -74 99c-28 -37 -46 -61 -70 -99zM713 210c-11 -44 -11 -119 0 -162c-86 -43 -198 -64 -308 -64c-250 0 -377 108 -377 287
c0 183 130 290 336 290c208 0 370 -110 345 -315c-231 5 -396 5 -481 1c14 -79 71 -130 195 -127c99 2 224 36 290 90zM364 434c-83 0 -135 -44 -140 -131c77 -4 189 -4 288 -2c-12 86 -62 133 -148 133z" />
    <glyph glyph-name="edieresis" unicode="&#xeb;" horiz-adv-x="756" 
d="M229 624c-63 0 -96 22 -96 71c0 48 33 71 96 71c70 0 104 -23 104 -71c0 -49 -34 -71 -104 -71zM509 624c-63 0 -96 22 -96 71c0 48 33 71 96 71c70 0 104 -23 104 -71c0 -49 -34 -71 -104 -71zM713 210c-11 -44 -11 -119 0 -162c-86 -43 -198 -64 -308 -64
c-250 0 -377 108 -377 287c0 183 130 290 336 290c208 0 370 -110 345 -315c-231 5 -396 5 -481 1c14 -79 71 -130 195 -127c99 2 224 36 290 90zM364 434c-83 0 -135 -44 -140 -131c77 -4 189 -4 288 -2c-12 86 -62 133 -148 133z" />
    <glyph glyph-name="igrave" unicode="&#xec;" horiz-adv-x="303" 
d="M72 630c-46 49 -137 127 -199 176c53 -10 195 -10 246 0c22 -49 62 -127 92 -176c-30 2 -114 2 -139 0zM45 540c73 -13 143 -15 213 0c-16 -186 -16 -354 0 -540h-213c16 184 16 352 0 540z" />
    <glyph glyph-name="iacute" unicode="&#xed;" horiz-adv-x="303" 
d="M68 630c30 49 70 127 92 176c51 -10 193 -10 246 0c-62 -49 -153 -127 -199 -176c-25 2 -109 2 -139 0zM45 540c73 -13 143 -15 213 0c-16 -186 -16 -354 0 -540h-213c16 184 16 352 0 540z" />
    <glyph glyph-name="icircumflex" unicode="&#xee;" horiz-adv-x="303" 
d="M-73 628c63 70 102 119 145 179c47 -3 96 -3 143 0c46 -60 87 -109 153 -179c-57 5 -114 5 -170 0c-19 38 -32 62 -54 99c-20 -37 -33 -61 -50 -99c-55 5 -111 5 -167 0zM45 540c73 -13 143 -15 213 0c-16 -186 -16 -354 0 -540h-213c16 184 16 352 0 540z" />
    <glyph glyph-name="idieresis" unicode="&#xef;" horiz-adv-x="303" 
d="M13 624c-63 0 -96 22 -96 71c0 48 33 71 96 71c70 0 104 -23 104 -71c0 -49 -34 -71 -104 -71zM273 624c-63 0 -96 22 -96 71c0 48 33 71 96 71c70 0 104 -23 104 -71c0 -49 -34 -71 -104 -71zM45 540c73 -13 143 -15 213 0c-16 -186 -16 -354 0 -540h-213
c16 184 16 352 0 540z" />
    <glyph glyph-name="eth" unicode="&#xf0;" horiz-adv-x="803" 
d="M564 710c143 -99 194 -252 194 -380c0 -160 -80 -347 -362 -347c-240 0 -368 128 -368 298c0 163 114 270 284 270c180 0 254 -120 273 -201h16c0 138 -61 238 -142 304c-41 -23 -77 -47 -102 -66c-11 25 -23 42 -42 64c24 8 55 22 89 40c-63 37 -133 56 -194 58
c15 20 24 40 29 60c107 -6 194 -29 264 -64c37 22 75 45 110 69c11 -25 23 -42 42 -64c-30 -12 -61 -26 -91 -41zM399 96c60 0 167 24 167 160c0 109 -81 173 -176 173c-92 0 -168 -61 -168 -164c0 -106 81 -169 177 -169z" />
    <glyph glyph-name="ntilde" unicode="&#xf1;" horiz-adv-x="776" 
d="M291 809c80 0 130 -42 222 -42c29 0 74 4 115 42c-1 -4 -1 -8 -2 -12c-18 -73 -39 -143 -138 -143c-83 0 -139 42 -226 42c-35 0 -77 -6 -114 -53c0 3 0 6 1 10c21 82 39 156 142 156zM50 0c28 159 28 347 0 521c82 5 175 20 226 44c-24 -80 -34 -138 -40 -215h16
c42 119 134 211 261 211c150 0 201 -105 201 -228c0 -105 -5 -237 17 -333h-206v220c0 119 -48 189 -129 189c-85 0 -136 -71 -136 -192v-217h-210z" />
    <glyph glyph-name="ograve" unicode="&#xf2;" horiz-adv-x="765" 
d="M307 630c-53 49 -158 127 -229 176c53 -10 195 -10 246 0c29 -49 82 -127 122 -176c-30 2 -114 2 -139 0zM383 -16c-224 0 -355 107 -355 288s131 288 355 288c223 0 354 -107 354 -288s-131 -288 -354 -288zM383 103c99 0 157 61 157 169c0 98 -58 160 -157 160
c-101 0 -158 -62 -158 -160c0 -108 57 -169 158 -169z" />
    <glyph glyph-name="oacute" unicode="&#xf3;" horiz-adv-x="765" 
d="M303 630c40 49 93 127 122 176c51 -10 193 -10 246 0c-71 -49 -176 -127 -229 -176c-25 2 -109 2 -139 0zM383 -16c-224 0 -355 107 -355 288s131 288 355 288c223 0 354 -107 354 -288s-131 -288 -354 -288zM383 103c99 0 157 61 157 169c0 98 -58 160 -157 160
c-101 0 -158 -62 -158 -160c0 -108 57 -169 158 -169z" />
    <glyph glyph-name="ocircumflex" unicode="&#xf4;" horiz-adv-x="765" 
d="M142 629c68 70 109 119 155 179c50 -3 103 -3 153 0c52 -60 98 -109 173 -179c-57 5 -116 5 -172 0c-26 38 -44 62 -74 99c-28 -37 -46 -61 -70 -99c-55 5 -109 5 -165 0zM383 -16c-224 0 -355 107 -355 288s131 288 355 288c223 0 354 -107 354 -288
s-131 -288 -354 -288zM383 103c99 0 157 61 157 169c0 98 -58 160 -157 160c-101 0 -158 -62 -158 -160c0 -108 57 -169 158 -169z" />
    <glyph glyph-name="otilde" unicode="&#xf5;" horiz-adv-x="765" 
d="M286 808c80 0 130 -42 222 -42c29 0 74 4 115 42c-1 -4 -1 -8 -2 -12c-18 -73 -39 -143 -138 -143c-83 0 -139 42 -226 42c-35 0 -77 -6 -114 -53c0 3 0 6 1 10c21 82 39 156 142 156zM383 -16c-224 0 -355 107 -355 288s131 288 355 288c223 0 354 -107 354 -288
s-131 -288 -354 -288zM383 103c99 0 157 61 157 169c0 98 -58 160 -157 160c-101 0 -158 -62 -158 -160c0 -108 57 -169 158 -169z" />
    <glyph glyph-name="odieresis" unicode="&#xf6;" horiz-adv-x="765" 
d="M238 624c-63 0 -96 22 -96 71c0 48 33 71 96 71c70 0 104 -23 104 -71c0 -49 -34 -71 -104 -71zM518 624c-63 0 -96 22 -96 71c0 48 33 71 96 71c70 0 104 -23 104 -71c0 -49 -34 -71 -104 -71zM383 -16c-224 0 -355 107 -355 288s131 288 355 288
c223 0 354 -107 354 -288s-131 -288 -354 -288zM383 103c99 0 157 61 157 169c0 98 -58 160 -157 160c-101 0 -158 -62 -158 -160c0 -108 57 -169 158 -169z" />
    <glyph glyph-name="divide" unicode="&#xf7;" horiz-adv-x="600" 
d="M296 495c-56 0 -86 17 -86 58c0 39 30 58 86 58c63 0 94 -19 94 -58c0 -41 -31 -58 -94 -58zM570 404c-6 -23 -6 -61 0 -87c-186 7 -354 7 -540 0c6 26 6 64 0 87c186 -7 353 -7 540 0zM296 110c-56 0 -86 18 -86 58c0 39 30 58 86 58c63 0 94 -19 94 -58
c0 -40 -31 -58 -94 -58z" />
    <glyph glyph-name="oslash" unicode="&#xf8;" horiz-adv-x="785" 
d="M765 535l-91 -72c46 -48 70 -112 70 -189c0 -183 -131 -294 -354 -290c-89 2 -164 19 -221 50l-96 -85c-10 18 -29 40 -50 51l92 74c-52 48 -80 116 -80 200c0 179 131 286 355 286c95 0 174 -20 233 -56l91 82c14 -20 34 -42 51 -51zM232 269c0 -33 6 -62 17 -86
c84 70 168 141 250 212c-27 24 -64 37 -109 37c-101 0 -158 -62 -158 -163zM547 269c0 29 -5 55 -14 78c-83 -70 -166 -140 -248 -211c26 -22 62 -33 105 -33c99 0 157 61 157 166z" />
    <glyph glyph-name="ugrave" unicode="&#xf9;" horiz-adv-x="736" 
d="M280 630c-53 49 -158 127 -229 176c53 -10 195 -10 246 0c29 -49 82 -127 122 -176c-30 2 -114 2 -139 0zM691 555c-28 -158 -28 -381 0 -555h-224c22 67 35 134 38 179h-16c-40 -119 -129 -191 -251 -191c-146 0 -191 105 -191 228c0 105 5 224 -17 310
c67 -1 129 7 196 29v-246c0 -105 38 -169 119 -169c100 0 136 67 136 172v214c70 -1 140 7 210 29z" />
    <glyph glyph-name="uacute" unicode="&#xfa;" horiz-adv-x="736" 
d="M276 630c40 49 93 127 122 176c51 -10 193 -10 246 0c-71 -49 -176 -127 -229 -176c-25 2 -109 2 -139 0zM691 555c-28 -158 -28 -381 0 -555h-224c22 67 35 134 38 179h-16c-40 -119 -129 -191 -251 -191c-146 0 -191 105 -191 228c0 105 5 224 -17 310
c67 -1 129 7 196 29v-246c0 -105 38 -169 119 -169c100 0 136 67 136 172v214c70 -1 140 7 210 29z" />
    <glyph glyph-name="ucircumflex" unicode="&#xfb;" horiz-adv-x="736" 
d="M115 629c68 70 109 119 155 179c50 -3 103 -3 153 0c52 -60 98 -109 173 -179c-57 5 -116 5 -172 0c-26 38 -44 62 -74 99c-28 -37 -46 -61 -70 -99c-55 5 -109 5 -165 0zM691 555c-28 -158 -28 -381 0 -555h-224c22 67 35 134 38 179h-16c-40 -119 -129 -191 -251 -191
c-146 0 -191 105 -191 228c0 105 5 224 -17 310c67 -1 129 7 196 29v-246c0 -105 38 -169 119 -169c100 0 136 67 136 172v214c70 -1 140 7 210 29z" />
    <glyph glyph-name="udieresis" unicode="&#xfc;" horiz-adv-x="736" 
d="M211 624c-63 0 -96 22 -96 71c0 48 33 71 96 71c70 0 104 -23 104 -71c0 -49 -34 -71 -104 -71zM491 624c-63 0 -96 22 -96 71c0 48 33 71 96 71c70 0 104 -23 104 -71c0 -49 -34 -71 -104 -71zM691 555c-28 -158 -28 -381 0 -555h-224c22 67 35 134 38 179h-16
c-40 -119 -129 -191 -251 -191c-146 0 -191 105 -191 228c0 105 5 224 -17 310c67 -1 129 7 196 29v-246c0 -105 38 -169 119 -169c100 0 136 67 136 172v214c70 -1 140 7 210 29z" />
    <glyph glyph-name="yacute" unicode="&#xfd;" horiz-adv-x="741" 
d="M279 630c40 49 93 127 122 176c51 -10 193 -10 246 0c-71 -49 -176 -127 -229 -176c-25 2 -109 2 -139 0zM510 43v136h-16c-40 -107 -129 -171 -251 -171c-146 0 -196 96 -196 208c0 105 5 216 -17 302c67 -1 134 7 201 29v-238c0 -99 38 -159 119 -159
c100 0 136 63 136 162v206c67 -1 133 7 200 29v-456c0 -125 -13 -320 -340 -320c-106 0 -213 21 -299 64c16 43 16 112 0 156c66 -56 185 -88 281 -88c101 0 182 41 182 140z" />
    <glyph glyph-name="thorn" unicode="&#xfe;" horiz-adv-x="792" 
d="M513 561c145 0 251 -111 251 -274c0 -176 -128 -304 -314 -304c-83 0 -152 20 -194 65c2 -83 7 -165 19 -248c-88 11 -160 11 -230 2c28 203 28 700 0 924c82 5 175 20 226 44c-24 -80 -34 -270 -40 -385h16c42 84 134 176 266 176zM381 76c105 0 189 70 189 200
c0 92 -53 153 -153 153c-126 0 -162 -96 -162 -212v-95c42 -35 88 -46 126 -46z" />
    <glyph glyph-name="ydieresis" unicode="&#xff;" horiz-adv-x="741" 
d="M214 624c-63 0 -96 22 -96 71c0 48 33 71 96 71c70 0 104 -23 104 -71c0 -49 -34 -71 -104 -71zM494 624c-63 0 -96 22 -96 71c0 48 33 71 96 71c70 0 104 -23 104 -71c0 -49 -34 -71 -104 -71zM510 43v136h-16c-40 -107 -129 -171 -251 -171c-146 0 -196 96 -196 208
c0 105 5 216 -17 302c67 -1 134 7 201 29v-238c0 -99 38 -159 119 -159c100 0 136 63 136 162v206c67 -1 133 7 200 29v-456c0 -125 -13 -320 -340 -320c-106 0 -213 21 -299 64c16 43 16 112 0 156c66 -56 185 -88 281 -88c101 0 182 41 182 140z" />
    <glyph glyph-name="Amacron" unicode="&#x100;" horiz-adv-x="1004" 
d="M762 845c-150 7 -374 7 -520 0c5 26 5 81 0 107c146 -7 369 -7 520 0c-5 -26 -5 -81 0 -107zM999 0h-248c-14 43 -32 93 -51 145c-120 4 -282 4 -403 0l-55 -145h-237c119 250 227 500 326 750c85 -11 256 -16 340 0c99 -250 209 -500 328 -750zM344 267
c94 -4 215 -4 310 0c-61 159 -127 315 -157 370c-29 -55 -92 -210 -153 -370z" />
    <glyph glyph-name="amacron" unicode="&#x101;" horiz-adv-x="752" 
d="M618 673c-150 7 -354 7 -500 0c5 26 5 71 0 97c146 -7 349 -7 500 0c-5 -26 -5 -71 0 -97zM717 0h-195c-13 40 -19 80 -21 119c-54 -85 -117 -135 -245 -135c-147 0 -221 65 -221 151c0 96 100 162 310 162h155c-7 77 -38 129 -162 129c-115 0 -225 -44 -284 -104
c9 47 9 132 0 172c77 33 176 65 310 65c196 0 320 -63 320 -249c0 -131 8 -230 33 -310zM350 110c51 0 103 12 150 37c0 28 1 56 1 83v20h-55c-142 0 -208 -25 -208 -74c0 -39 35 -66 112 -66z" />
    <glyph glyph-name="Abreve" unicode="&#x102;" horiz-adv-x="1004" 
d="M503 833c-136 0 -224 76 -224 181h130c0 -48 31 -84 94 -84c65 0 96 36 96 84h139c0 -111 -103 -181 -235 -181zM999 0h-248c-14 43 -32 93 -51 145c-120 4 -282 4 -403 0l-55 -145h-237c119 250 227 500 326 750c85 -11 256 -16 340 0c99 -250 209 -500 328 -750z
M344 267c94 -4 215 -4 310 0c-61 159 -127 315 -157 370c-29 -55 -92 -210 -153 -370z" />
    <glyph glyph-name="abreve" unicode="&#x103;" horiz-adv-x="752" 
d="M369 623c-136 0 -224 76 -224 181h130c0 -48 31 -84 94 -84c65 0 96 36 96 84h139c0 -111 -103 -181 -235 -181zM717 0h-195c-13 40 -19 80 -21 119c-54 -85 -117 -135 -245 -135c-147 0 -221 65 -221 151c0 96 100 162 310 162h155c-7 77 -38 129 -162 129
c-115 0 -225 -44 -284 -104c9 47 9 132 0 172c77 33 176 65 310 65c196 0 320 -63 320 -249c0 -131 8 -230 33 -310zM350 110c51 0 103 12 150 37c0 28 1 56 1 83v20h-55c-142 0 -208 -25 -208 -74c0 -39 35 -66 112 -66z" />
    <glyph glyph-name="Aogonek" unicode="&#x104;" horiz-adv-x="1004" 
d="M839 -77c0 -49 55 -64 94 -66l3 -112c-138 -18 -251 43 -251 152c0 52 27 84 70 103h-4c-14 43 -32 93 -51 145c-120 4 -282 4 -403 0l-55 -145h-237c119 250 227 500 326 750c85 -11 256 -16 340 0c99 -250 209 -500 328 -750c-94 -10 -160 -27 -160 -77zM344 267
c94 -4 215 -4 310 0c-61 159 -127 315 -157 370c-29 -55 -92 -210 -153 -370z" />
    <glyph glyph-name="aogonek" unicode="&#x105;" horiz-adv-x="752" 
d="M572 -74c0 -44 51 -48 87 -50v-106c-128 -19 -235 35 -235 132c0 60 38 92 95 106c-11 37 -16 75 -18 111c-54 -85 -117 -135 -245 -135c-147 0 -221 65 -221 151c0 96 100 162 310 162h155c-7 77 -38 129 -162 129c-115 0 -225 -44 -284 -104c9 47 9 132 0 172
c77 33 176 65 310 65c196 0 320 -63 320 -249c0 -131 8 -230 33 -310c-85 -8 -145 -33 -145 -74zM350 110c51 0 103 12 150 37c0 28 1 56 1 83v20h-55c-142 0 -208 -25 -208 -74c0 -39 35 -66 112 -66z" />
    <glyph glyph-name="Cacute" unicode="&#x106;" horiz-adv-x="1058" 
d="M436 836c42 41 92 112 132 166c49 -10 212 -10 261 0c-81 -52 -189 -123 -249 -166c-23 3 -121 3 -144 0zM562 -18c-333 0 -522 154 -522 397c0 258 211 392 542 392c117 0 252 -17 414 -83c-9 -70 -9 -121 0 -191c-163 104 -304 129 -403 130c-209 2 -343 -88 -343 -248
c0 -148 109 -253 336 -253c145 0 285 46 408 167c-7 -71 5 -139 14 -186c-115 -82 -247 -125 -446 -125z" />
    <glyph glyph-name="cacute" unicode="&#x107;" horiz-adv-x="725" 
d="M312 630c40 49 93 127 122 176c51 -10 193 -10 246 0c-71 -49 -176 -127 -229 -176c-25 2 -109 2 -139 0zM392 -11c-240 0 -364 107 -364 286s124 286 364 286c107 0 207 -21 293 -64c-16 -43 -16 -142 0 -186c-63 67 -159 113 -261 113c-135 0 -208 -51 -208 -149
s73 -149 208 -149c102 0 195 34 261 93c-16 -44 -16 -123 0 -166c-86 -43 -186 -64 -293 -64z" />
    <glyph glyph-name="Cdotaccent" unicode="&#x10a;" horiz-adv-x="1058" 
d="M519 827c-76 0 -114 24 -114 77c0 52 38 77 114 77c83 0 124 -25 124 -77c0 -53 -41 -77 -124 -77zM562 -18c-333 0 -522 154 -522 397c0 258 211 392 542 392c117 0 252 -17 414 -83c-9 -70 -9 -121 0 -191c-163 104 -304 129 -403 130c-209 2 -343 -88 -343 -248
c0 -148 109 -253 336 -253c145 0 285 46 408 167c-7 -71 5 -139 14 -186c-115 -82 -247 -125 -446 -125z" />
    <glyph glyph-name="cdotaccent" unicode="&#x10b;" horiz-adv-x="725" 
d="M387 622c-76 0 -114 24 -114 77c0 52 38 77 114 77c83 0 124 -25 124 -77c0 -53 -41 -77 -124 -77zM392 -11c-240 0 -364 107 -364 286s124 286 364 286c107 0 207 -21 293 -64c-16 -43 -16 -142 0 -186c-63 67 -159 113 -261 113c-135 0 -208 -51 -208 -149
s73 -149 208 -149c102 0 195 34 261 93c-16 -44 -16 -123 0 -166c-86 -43 -186 -64 -293 -64z" />
    <glyph glyph-name="Ccaron" unicode="&#x10c;" horiz-adv-x="1058" 
d="M254 1001c59 -5 129 -5 190 0c27 -36 47 -64 79 -94c34 30 56 58 85 94c63 -5 127 -5 187 0c-79 -62 -130 -99 -193 -159c-50 3 -109 3 -163 0c-60 61 -109 98 -185 159zM562 -18c-333 0 -522 154 -522 397c0 258 211 392 542 392c117 0 252 -17 414 -83
c-9 -70 -9 -121 0 -191c-163 104 -304 129 -403 130c-209 2 -343 -88 -343 -248c0 -148 109 -253 336 -253c145 0 285 46 408 167c-7 -71 5 -139 14 -186c-115 -82 -247 -125 -446 -125z" />
    <glyph glyph-name="ccaron" unicode="&#x10d;" horiz-adv-x="725" 
d="M316 628c-49 60 -93 109 -165 179c56 -5 114 -5 169 0c24 -38 42 -62 70 -99c30 37 48 61 74 99c56 -5 111 -5 168 0c-75 -70 -121 -119 -173 -179c-47 3 -96 3 -143 0zM392 -11c-240 0 -364 107 -364 286s124 286 364 286c107 0 207 -21 293 -64
c-16 -43 -16 -142 0 -186c-63 67 -159 113 -261 113c-135 0 -208 -51 -208 -149s73 -149 208 -149c102 0 195 34 261 93c-16 -44 -16 -123 0 -166c-86 -43 -186 -64 -293 -64z" />
    <glyph glyph-name="Dcaron" unicode="&#x10e;" horiz-adv-x="1093" 
d="M304 1001c59 -5 129 -5 190 0c27 -36 47 -64 79 -94c34 30 56 58 85 94c63 -5 127 -5 187 0c-79 -62 -130 -99 -193 -159c-50 3 -109 3 -163 0c-60 61 -109 98 -185 159zM80 0c14 155 14 595 0 750c203 0 302 6 438 6c336 0 535 -140 535 -377
c0 -239 -207 -381 -557 -381c-128 0 -272 2 -416 2zM294 621c-4 -163 -3 -317 1 -482c42 -2 119 -10 201 -10c218 0 347 93 347 250c0 156 -127 247 -341 247c-53 0 -128 -6 -208 -5z" />
    <glyph glyph-name="dcaron" unicode="&#x10f;" horiz-adv-x="811" 
d="M924 808c73 0 109 -26 109 -90c0 -70 -74 -150 -129 -205c-18 5 -36 5 -54 2c34 46 61 87 74 133c-73 0 -109 25 -109 80c0 54 36 80 109 80zM536 759c65 5 178 17 230 41c-45 -156 -42 -642 -14 -800h-201c8 41 11 81 13 132c-35 -99 -109 -149 -228 -149
c-180 0 -308 128 -308 304c0 163 106 274 262 274c140 0 212 -89 255 -181h16c-4 263 -15 322 -25 379zM404 96c48 0 116 15 159 101c-6 129 -68 232 -192 232c-96 0 -149 -61 -149 -154c0 -116 84 -179 182 -179z" />
    <glyph glyph-name="Dcroat" unicode="&#x110;" horiz-adv-x="1110" 
d="M535 756c336 0 535 -140 535 -377c0 -239 -207 -381 -557 -381c-128 0 -272 2 -416 2c6 72 10 204 10 341c-45 -1 -91 -3 -137 -6c3 31 3 61 0 92c46 -3 92 -5 137 -6c0 133 -4 260 -10 329c203 0 302 6 438 6zM513 129c212 0 337 93 337 250c0 156 -123 247 -331 247
c-53 0 -128 -6 -208 -5c-2 -68 -2 -134 -3 -200c55 1 110 3 164 6c-2 -31 -2 -61 0 -92c-54 3 -109 5 -163 7c0 -67 1 -134 3 -203c42 -2 119 -10 201 -10z" />
    <glyph glyph-name="dcroat" unicode="&#x111;" horiz-adv-x="819" 
d="M889 608c-46 4 -97 7 -149 9c-16 -209 -9 -501 12 -617h-201c8 41 11 81 13 132c-35 -99 -109 -149 -228 -149c-180 0 -308 128 -308 304c0 163 106 274 262 274c140 0 212 -89 255 -181h16c-2 109 -5 184 -8 237c-51 -2 -100 -5 -145 -9c5 34 5 65 0 89
c43 -4 90 -8 139 -9c-4 30 -7 51 -11 71c65 5 178 17 230 41c-8 -28 -15 -67 -20 -113c51 2 99 5 143 10c-5 -34 -5 -39 0 -89zM404 96c48 0 116 15 159 101c-6 129 -68 232 -192 232c-96 0 -149 -61 -149 -154c0 -116 84 -179 182 -179z" />
    <glyph glyph-name="Emacron" unicode="&#x112;" horiz-adv-x="966" 
d="M221 845c5 26 5 81 0 107c146 -7 369 -7 520 0c-5 -26 -5 -81 0 -107c-150 7 -374 7 -520 0zM80 0c15 173 15 577 0 750c95 -13 660 -21 831 -3c-5 -60 -5 -121 0 -181c-120 33 -430 53 -612 50c-3 -61 -4 -123 -3 -184c185 -4 425 6 545 17c-5 -48 -5 -102 0 -150
c-121 10 -361 19 -545 14c0 -60 1 -119 5 -179c183 -3 491 17 610 50c-5 -60 -5 -124 0 -184h-831z" />
    <glyph glyph-name="emacron" unicode="&#x113;" horiz-adv-x="756" 
d="M624 673c-150 7 -354 7 -500 0c5 26 5 71 0 97c146 -7 349 -7 500 0c-5 -26 -5 -71 0 -97zM713 210c-11 -44 -11 -119 0 -162c-86 -43 -198 -64 -308 -64c-250 0 -377 108 -377 287c0 183 130 290 336 290c208 0 370 -110 345 -315c-231 5 -396 5 -481 1
c14 -79 71 -130 195 -127c99 2 224 36 290 90zM364 434c-83 0 -135 -44 -140 -131c77 -4 189 -4 288 -2c-12 86 -62 133 -148 133z" />
    <glyph glyph-name="Edotaccent" unicode="&#x116;" horiz-adv-x="966" 
d="M476 827c-76 0 -114 24 -114 77c0 52 38 77 114 77c83 0 124 -25 124 -77c0 -53 -41 -77 -124 -77zM80 0c15 173 15 577 0 750c95 -13 660 -21 831 -3c-5 -60 -5 -121 0 -181c-120 33 -430 53 -612 50c-3 -61 -4 -123 -3 -184c185 -4 425 6 545 17c-5 -48 -5 -102 0 -150
c-121 10 -361 19 -545 14c0 -60 1 -119 5 -179c183 -3 491 17 610 50c-5 -60 -5 -124 0 -184h-831z" />
    <glyph glyph-name="edotaccent" unicode="&#x117;" horiz-adv-x="756" 
d="M369 622c-76 0 -114 24 -114 77c0 52 38 77 114 77c83 0 124 -25 124 -77c0 -53 -41 -77 -124 -77zM713 210c-11 -44 -11 -119 0 -162c-86 -43 -198 -64 -308 -64c-250 0 -377 108 -377 287c0 183 130 290 336 290c208 0 370 -110 345 -315c-231 5 -396 5 -481 1
c14 -79 71 -130 195 -127c99 2 224 36 290 90zM364 434c-83 0 -135 -44 -140 -131c77 -4 189 -4 288 -2c-12 86 -62 133 -148 133z" />
    <glyph glyph-name="Eogonek" unicode="&#x118;" horiz-adv-x="966" 
d="M911 566c-120 33 -430 53 -612 50c-3 -61 -4 -123 -3 -184c185 -4 425 6 545 17c-5 -48 -5 -102 0 -150c-121 10 -361 19 -545 14c0 -60 1 -119 5 -179c183 -3 491 17 610 50c-5 -60 -5 -124 0 -184c-94 -10 -160 -27 -160 -77c0 -49 55 -64 94 -66l3 -112
c-138 -18 -251 43 -251 152c0 52 27 84 70 103h-587c15 173 15 577 0 750c95 -13 660 -21 831 -3c-5 -60 -5 -121 0 -181z" />
    <glyph glyph-name="eogonek" unicode="&#x119;" horiz-adv-x="756" 
d="M682 34c-77 -37 -109 -69 -109 -105c0 -44 46 -58 89 -60v-116c-122 1 -215 35 -215 132c0 47 24 81 64 106c-35 -5 -71 -7 -106 -7c-250 0 -377 108 -377 287c0 183 130 290 336 290c208 0 370 -105 345 -310c-231 5 -397 5 -482 1c12 -82 69 -135 196 -132
c99 2 224 36 290 90c-11 -44 -11 -119 0 -162c-10 -5 -20 -10 -31 -14zM364 434c-85 0 -138 -46 -140 -137c77 -7 189 -7 289 -2c-11 89 -61 139 -149 139z" />
    <glyph glyph-name="Ecaron" unicode="&#x11a;" horiz-adv-x="966" 
d="M211 1001c59 -5 129 -5 190 0c27 -36 47 -64 79 -94c34 30 56 58 85 94c63 -5 127 -5 187 0c-79 -62 -130 -99 -193 -159c-50 3 -109 3 -163 0c-60 61 -109 98 -185 159zM80 0c15 173 15 577 0 750c95 -13 660 -21 831 -3c-5 -60 -5 -121 0 -181c-120 33 -430 53 -612 50
c-3 -61 -4 -123 -3 -184c185 -4 425 6 545 17c-5 -48 -5 -102 0 -150c-121 10 -361 19 -545 14c0 -60 1 -119 5 -179c183 -3 491 17 610 50c-5 -60 -5 -124 0 -184h-831z" />
    <glyph glyph-name="ecaron" unicode="&#x11b;" horiz-adv-x="756" 
d="M298 628c-49 60 -93 109 -165 179c56 -5 114 -5 169 0c24 -38 42 -62 70 -99c30 37 48 61 74 99c56 -5 111 -5 168 0c-75 -70 -121 -119 -173 -179c-47 3 -96 3 -143 0zM713 210c-11 -44 -11 -119 0 -162c-86 -43 -198 -64 -308 -64c-250 0 -377 108 -377 287
c0 183 130 290 336 290c208 0 370 -110 345 -315c-231 5 -396 5 -481 1c14 -79 71 -130 195 -127c99 2 224 36 290 90zM364 434c-83 0 -135 -44 -140 -131c77 -4 189 -4 288 -2c-12 86 -62 133 -148 133z" />
    <glyph glyph-name="Gbreve" unicode="&#x11e;" horiz-adv-x="1101" 
d="M551 830c-139 0 -229 72 -229 171h135c0 -42 31 -74 94 -74c65 0 96 32 96 74h144c0 -105 -105 -171 -240 -171zM562 -15c-338 0 -522 154 -522 394c0 255 203 390 536 390c125 0 309 -18 471 -85c-11 -79 -10 -143 -1 -191c-124 80 -295 132 -470 132
c-205 0 -326 -96 -326 -246s115 -252 312 -252c86 0 232 20 319 142c-157 0 -322 -9 -389 -22c9 47 7 115 -4 172c181 -10 392 -10 563 0c-9 -63 -9 -155 0 -225c-87 -135 -286 -209 -489 -209z" />
    <glyph glyph-name="gbreve" unicode="&#x11f;" horiz-adv-x="787" 
d="M391 683c-136 0 -224 76 -224 181h130c0 -48 31 -84 94 -84c65 0 96 36 96 84h139c0 -111 -103 -181 -235 -181zM742 564c-19 -158 -14 -382 -14 -473c0 -125 -13 -320 -350 -320c-110 0 -223 21 -309 64c16 43 16 112 0 156c66 -56 192 -88 291 -88
c101 0 177 41 177 140v27c-40 -40 -107 -60 -193 -60c-189 0 -316 107 -316 279c0 161 106 272 251 272c132 0 224 -92 266 -186h16c-6 52 -8 87 -26 145c76 5 159 20 207 44zM411 113c38 0 84 8 126 36v68c0 116 -36 212 -162 212c-100 0 -153 -61 -153 -154
c0 -116 84 -162 189 -162z" />
    <glyph glyph-name="Gdotaccent" unicode="&#x120;" horiz-adv-x="1101" 
d="M551 827c-76 0 -114 24 -114 77c0 52 38 77 114 77c83 0 124 -25 124 -77c0 -53 -41 -77 -124 -77zM562 -15c-338 0 -522 154 -522 394c0 255 203 390 536 390c125 0 309 -18 471 -85c-11 -79 -10 -143 -1 -191c-124 80 -295 132 -470 132c-205 0 -326 -96 -326 -246
s115 -252 312 -252c86 0 232 20 319 142c-157 0 -322 -9 -389 -22c9 47 7 115 -4 172c181 -10 392 -10 563 0c-9 -63 -9 -155 0 -225c-87 -135 -286 -209 -489 -209z" />
    <glyph glyph-name="gdotaccent" unicode="&#x121;" horiz-adv-x="787" 
d="M385 682c-76 0 -114 24 -114 77c0 52 38 77 114 77c83 0 124 -25 124 -77c0 -53 -41 -77 -124 -77zM742 564c-19 -158 -14 -382 -14 -473c0 -125 -13 -320 -350 -320c-110 0 -223 21 -309 64c16 43 16 112 0 156c66 -56 192 -88 291 -88c101 0 177 41 177 140v27
c-40 -40 -107 -60 -193 -60c-189 0 -316 107 -316 279c0 161 106 272 251 272c132 0 224 -92 266 -186h16c-6 52 -8 87 -26 145c76 5 159 20 207 44zM411 113c38 0 84 8 126 36v68c0 116 -36 212 -162 212c-100 0 -153 -61 -153 -154c0 -116 84 -162 189 -162z" />
    <glyph glyph-name="uni0122" unicode="&#x122;" horiz-adv-x="1101" 
d="M562 -15c-338 0 -522 154 -522 394c0 255 203 390 536 390c125 0 309 -18 471 -85c-11 -79 -10 -143 -1 -191c-124 80 -295 132 -470 132c-205 0 -326 -96 -326 -246s115 -252 312 -252c86 0 232 20 319 142c-157 0 -322 -9 -389 -22c9 47 7 115 -4 172
c181 -10 392 -10 563 0c-9 -63 -9 -155 0 -225c-87 -135 -286 -209 -489 -209zM443 -142c0 54 36 80 109 80s109 -26 109 -90c0 -70 -74 -150 -129 -205c-18 5 -36 5 -54 2c34 46 61 87 74 133c-73 0 -109 25 -109 80z" />
    <glyph glyph-name="uni0123" unicode="&#x123;" horiz-adv-x="787" 
d="M395 623c-73 0 -109 26 -109 90c0 70 74 150 129 205c18 -5 36 -5 54 -2c-34 -46 -61 -87 -74 -133c73 0 109 -25 109 -80c0 -54 -36 -80 -109 -80zM742 564c-19 -158 -14 -382 -14 -473c0 -125 -13 -320 -350 -320c-110 0 -223 21 -309 64c16 43 16 112 0 156
c66 -56 192 -88 291 -88c101 0 177 41 177 140v27c-40 -40 -107 -60 -193 -60c-189 0 -316 107 -316 279c0 161 106 272 251 272c132 0 224 -92 266 -186h16c-6 52 -8 87 -26 145c76 5 159 20 207 44zM411 113c38 0 84 8 126 36v68c0 116 -36 212 -162 212
c-100 0 -153 -61 -153 -154c0 -116 84 -162 189 -162z" />
    <glyph glyph-name="Hbar" unicode="&#x126;" horiz-adv-x="1046" 
d="M1026 543c-24 1 -48 1 -72 2c-3 -190 0 -425 12 -545h-220c6 68 9 171 11 281c-154 10 -318 9 -469 -2c1 -110 5 -212 12 -279h-220c11 121 14 356 9 545c-23 -1 -46 -1 -69 -2c6 31 6 61 0 92c22 -1 45 -1 67 -2c-2 45 -4 85 -7 117c75 -12 147 -13 217 0
c-3 -33 -5 -74 -6 -121c154 -1 308 -1 462 1c-2 46 -4 87 -7 120c75 -12 147 -13 217 0c-3 -32 -5 -72 -6 -117c23 1 46 1 69 2c-4 -31 -4 -61 0 -92zM757 416c0 46 -1 91 -2 133c-155 2 -311 2 -467 0c0 -42 -1 -86 -1 -130c150 -11 314 -12 470 -3z" />
    <glyph glyph-name="hbar" unicode="&#x127;" horiz-adv-x="776" 
d="M731 0h-206v220c0 105 -38 189 -129 189c-100 0 -136 -87 -136 -192v-217h-210c22 123 26 400 15 601l-65 -3c3 31 3 61 0 92l59 -3c-3 26 -6 49 -9 69c82 5 175 20 226 44c-7 -24 -13 -66 -18 -117c81 1 163 3 244 7c-2 -31 -2 -61 0 -92c-83 5 -167 7 -251 7
c-7 -102 -12 -212 -15 -255h16c42 119 134 211 261 211c150 0 201 -105 201 -228c0 -105 -5 -238 17 -333z" />
    <glyph glyph-name="Imacron" unicode="&#x12a;" horiz-adv-x="390" 
d="M7 845c3 26 3 81 0 107c106 -7 268 -7 377 0c-3 -26 -3 -81 0 -107c-109 7 -271 7 -377 0zM80 0c15 173 15 577 0 750c78 -12 154 -13 227 0c-14 -173 -14 -579 3 -750h-230z" />
    <glyph glyph-name="imacron" unicode="&#x12b;" horiz-adv-x="303" 
d="M-102 673c5 26 5 71 0 97c146 -7 349 -7 500 0c-5 -26 -5 -71 0 -97c-150 7 -354 7 -500 0zM45 540c73 -13 143 -15 213 0c-16 -186 -16 -354 0 -540h-213c16 184 16 352 0 540z" />
    <glyph glyph-name="Iogonek" unicode="&#x12e;" horiz-adv-x="390" 
d="M150 -77c0 -49 55 -64 94 -66l3 -112c-138 -18 -251 43 -251 152c0 57 33 91 84 108c15 176 15 574 0 745c78 -12 154 -13 227 0c-14 -173 -14 -579 3 -750c-94 -10 -160 -27 -160 -77z" />
    <glyph glyph-name="iogonek" unicode="&#x12f;" horiz-adv-x="303" 
d="M143 622c-76 0 -114 24 -114 77c0 52 38 77 114 77c83 0 124 -25 124 -77c0 -53 -41 -77 -124 -77zM45 540c73 -13 143 -15 213 0c-16 -186 -16 -354 0 -540c-85 -8 -145 -33 -145 -74c0 -44 51 -48 87 -50v-106c-128 -19 -235 35 -235 132c0 54 31 86 80 102
c16 182 16 349 0 536z" />
    <glyph glyph-name="Idotaccent" unicode="&#x130;" horiz-adv-x="390" 
d="M190 827c-76 0 -114 24 -114 77c0 52 38 77 114 77c83 0 124 -25 124 -77c0 -53 -41 -77 -124 -77zM80 0c15 173 15 577 0 750c78 -12 154 -13 227 0c-14 -173 -14 -579 3 -750h-230z" />
    <glyph glyph-name="dotlessi" unicode="&#x131;" horiz-adv-x="303" 
d="M45 540c73 -13 143 -15 213 0c-16 -186 -16 -354 0 -540h-213c16 184 16 352 0 540z" />
    <glyph glyph-name="uni0136" unicode="&#x136;" horiz-adv-x="987" 
d="M505 364c131 -19 404 -162 446 -364h-262c0 101 -138 331 -392 301c2 -119 6 -230 13 -301h-230c15 173 15 577 0 750c78 -12 154 -13 227 0c-6 -74 -9 -192 -10 -315c206 -3 325 172 383 315c75 -12 191 -13 287 0c-111 -166 -331 -336 -462 -370v-16zM468 -62
c73 0 109 -26 109 -90c0 -70 -74 -150 -129 -205c-18 5 -36 5 -54 2c34 46 61 87 74 133c-73 0 -109 25 -109 80c0 54 36 80 109 80z" />
    <glyph glyph-name="uni0137" unicode="&#x137;" horiz-adv-x="711" 
d="M427 295c79 -94 197 -239 294 -295h-276c-30 75 -97 140 -178 255c-8 -1 -16 -1 -24 -2c3 -99 9 -190 15 -253h-213c29 184 29 592 0 760c73 4 163 15 229 41c-29 -113 -36 -312 -33 -494c79 18 188 122 188 218c65 3 194 7 260 32c-19 -112 -130 -210 -262 -262z
M296 -62c73 0 109 -26 109 -90c0 -70 -74 -150 -129 -205c-18 5 -36 5 -54 2c34 46 61 87 74 133c-73 0 -109 25 -109 80c0 54 36 80 109 80z" />
    <glyph glyph-name="Lacute" unicode="&#x139;" horiz-adv-x="941" 
d="M175 836c42 41 92 112 132 166c49 -10 212 -10 261 0c-81 -52 -189 -123 -249 -166c-23 3 -121 3 -144 0zM80 0c10 250 10 500 0 750c78 -12 159 -14 227 0c-11 -118 -14 -450 -7 -618c129 1 481 19 596 48c-5 -73 -5 -120 0 -180h-816z" />
    <glyph glyph-name="lacute" unicode="&#x13a;" horiz-adv-x="304" 
d="M67 886c42 41 92 112 132 166c49 -10 212 -10 261 0c-81 -52 -189 -123 -249 -166c-23 3 -121 3 -144 0zM45 759c71 2 143 14 214 41c-29 -187 -25 -614 -6 -800h-208c19 184 19 591 0 759z" />
    <glyph glyph-name="uni013B" unicode="&#x13b;" horiz-adv-x="941" 
d="M80 0c10 250 10 500 0 750c78 -12 159 -14 227 0c-11 -118 -14 -450 -7 -618c129 1 481 19 596 48c-5 -73 -5 -120 0 -180h-816zM369 -158c0 54 36 80 109 80s109 -26 109 -90c0 -70 -74 -150 -129 -205c-18 5 -36 5 -54 2c34 46 61 87 74 133c-73 0 -109 25 -109 80z
" />
    <glyph glyph-name="uni013C" unicode="&#x13c;" horiz-adv-x="304" 
d="M45 759c71 2 143 14 214 41c-29 -187 -25 -614 -6 -800h-208c19 184 19 591 0 759zM39 -142c0 54 36 80 109 80s109 -26 109 -90c0 -70 -74 -150 -129 -205c-18 5 -36 5 -54 2c34 46 61 87 74 133c-73 0 -109 25 -109 80z" />
    <glyph glyph-name="Lcaron" unicode="&#x13d;" horiz-adv-x="941" 
d="M395 689c0 54 36 80 109 80s109 -26 109 -90c0 -70 -74 -150 -129 -205c-18 5 -36 5 -54 2c34 46 61 87 74 133c-73 0 -109 25 -109 80zM80 0c10 250 10 500 0 750c78 -12 159 -14 227 0c-11 -118 -14 -450 -7 -618c129 1 481 19 596 48c-5 -73 -5 -120 0 -180h-816z" />
    <glyph glyph-name="lcaron" unicode="&#x13e;" horiz-adv-x="304" 
d="M-66 1067c56 -5 112 -5 167 0c17 -38 30 -62 50 -99c22 37 35 61 54 99c56 -5 113 -5 170 0c-66 -70 -107 -119 -153 -179c-47 3 -96 3 -143 0c-43 60 -82 109 -145 179zM45 759c71 2 143 14 214 41c-29 -187 -25 -614 -6 -800h-208c19 184 19 591 0 759z" />
    <glyph glyph-name="Lslash" unicode="&#x141;" horiz-adv-x="1082" 
d="M1037 180c-5 -73 -5 -120 0 -180h-816c4 93 6 186 7 278l-156 -75c-4 14 -30 65 -42 76c66 28 132 57 198 87c1 128 -2 256 -7 384c78 -12 159 -14 227 0c-5 -58 -9 -169 -10 -287l170 84c6 -15 32 -67 42 -76c-71 -30 -142 -62 -213 -95c0 -91 1 -180 4 -244
c129 1 481 19 596 48z" />
    <glyph glyph-name="lslash" unicode="&#x142;" horiz-adv-x="481" 
d="M329 406c0 -155 5 -312 15 -406h-208c8 74 12 185 14 302c-46 -27 -92 -55 -137 -82c-4 13 -32 56 -43 65c60 32 120 65 180 99c0 146 -4 291 -14 375c71 2 143 14 214 41c-12 -75 -18 -190 -20 -312c47 28 93 56 138 84c6 -14 34 -58 43 -65c-61 -33 -121 -66 -182 -101
z" />
    <glyph glyph-name="Nacute" unicode="&#x143;" horiz-adv-x="1082" 
d="M597 836c-23 3 -121 3 -144 0c42 41 92 112 132 166c49 -10 212 -10 261 0c-81 -52 -189 -123 -249 -166zM711 0c-134 197 -276 389 -425 578c-4 -193 1 -386 12 -578h-218c10 250 10 500 0 750c78 -10 220 -13 298 0c131 -199 270 -394 416 -585c4 195 1 390 -10 585
c75 -12 147 -13 215 0c-9 -250 -8 -500 3 -750h-291z" />
    <glyph glyph-name="nacute" unicode="&#x144;" horiz-adv-x="776" 
d="M308 631c40 49 93 127 122 176c51 -10 193 -10 246 0c-71 -49 -176 -127 -229 -176c-25 2 -109 2 -139 0zM50 0c28 159 28 347 0 521c82 5 175 20 226 44c-24 -80 -34 -138 -40 -215h16c42 119 134 211 261 211c150 0 201 -105 201 -228c0 -105 -5 -237 17 -333h-206v220
c0 119 -48 189 -129 189c-85 0 -136 -71 -136 -192v-217h-210z" />
    <glyph glyph-name="uni0145" unicode="&#x145;" horiz-adv-x="1082" 
d="M999 750c-9 -250 -8 -500 3 -750h-291c-134 197 -276 389 -425 578c-4 -193 1 -386 12 -578h-218c10 250 10 500 0 750c78 -10 220 -13 298 0c131 -199 270 -394 416 -585c4 195 1 390 -10 585c75 -12 147 -13 215 0zM534 -62c73 0 109 -26 109 -90
c0 -70 -74 -150 -129 -205c-18 5 -36 5 -54 2c34 46 61 87 74 133c-73 0 -109 25 -109 80c0 54 36 80 109 80z" />
    <glyph glyph-name="uni0146" unicode="&#x146;" horiz-adv-x="776" 
d="M50 0c28 159 28 347 0 521c82 5 175 20 226 44c-24 -80 -34 -138 -40 -215h16c42 119 134 211 261 211c150 0 201 -105 201 -228c0 -105 -5 -237 17 -333h-206v220c0 119 -48 189 -129 189c-85 0 -136 -71 -136 -192v-217h-210zM272 -142c0 54 36 80 109 80
s109 -26 109 -90c0 -70 -74 -150 -129 -205c-18 5 -36 5 -54 2c34 46 61 87 74 133c-73 0 -109 25 -109 80z" />
    <glyph glyph-name="Ncaron" unicode="&#x147;" horiz-adv-x="1082" 
d="M456 842c-60 61 -109 98 -185 159c59 -5 129 -5 190 0c27 -36 47 -64 79 -94c34 30 56 58 85 94c63 -5 127 -5 187 0c-79 -62 -130 -99 -193 -159c-50 3 -109 3 -163 0zM711 0c-134 197 -276 389 -425 578c-4 -193 1 -386 12 -578h-218c10 250 10 500 0 750
c78 -10 220 -13 298 0c131 -199 270 -394 416 -585c4 195 1 390 -10 585c75 -12 147 -13 215 0c-9 -250 -8 -500 3 -750h-291z" />
    <glyph glyph-name="ncaron" unicode="&#x148;" horiz-adv-x="776" 
d="M312 629c-49 60 -93 109 -165 179c56 -5 114 -5 169 0c24 -38 42 -62 70 -99c30 37 48 61 74 99c56 -5 111 -5 168 0c-75 -70 -121 -119 -173 -179c-47 3 -96 3 -143 0zM50 0c28 159 28 347 0 521c82 5 175 20 226 44c-24 -80 -34 -138 -40 -215h16
c42 119 134 211 261 211c150 0 201 -105 201 -228c0 -105 -5 -237 17 -333h-206v220c0 119 -48 189 -129 189c-85 0 -136 -71 -136 -192v-217h-210z" />
    <glyph glyph-name="Eng" unicode="&#x14a;" horiz-adv-x="1079" 
d="M80 0c10 250 10 500 0 750c78 -10 220 -13 298 0c131 -199 270 -394 416 -585c4 195 1 390 -10 585c75 -12 147 -13 215 0c-9 -250 -8 -500 -2 -703c0 -140 -50 -287 -293 -287c-76 0 -130 16 -177 49c10 48 10 102 0 160c17 -28 73 -56 135 -56c34 0 73 8 100 38
c-195 262 -336 451 -476 627c-4 -193 1 -386 12 -578h-218z" />
    <glyph glyph-name="eng" unicode="&#x14b;" horiz-adv-x="756" 
d="M50 1c28 159 28 346 0 520c82 5 175 20 226 44c-24 -80 -34 -138 -40 -215h16c42 119 134 211 261 211c146 0 197 -105 196 -228c-1 -105 1 -236 2 -333c2 -169 -127 -219 -244 -219c-42 0 -86 6 -135 27c5 48 5 83 0 131c1 -5 40 -20 67 -20c69 0 126 29 126 152v149
c0 119 -48 189 -129 189c-85 0 -136 -71 -136 -192v-216h-210z" />
    <glyph glyph-name="Omacron" unicode="&#x14c;" horiz-adv-x="1103" 
d="M292 845c5 26 5 81 0 107c146 -7 369 -7 520 0c-5 -26 -5 -81 0 -107c-150 7 -374 7 -520 0zM552 -17c-322 0 -512 145 -512 394s190 394 512 394s511 -145 511 -394s-189 -394 -511 -394zM552 116c191 0 303 94 303 256c0 167 -112 265 -303 265
c-193 0 -302 -98 -302 -265c0 -162 109 -256 302 -256z" />
    <glyph glyph-name="omacron" unicode="&#x14d;" horiz-adv-x="765" 
d="M133 673c5 26 5 71 0 97c146 -7 349 -7 500 0c-5 -26 -5 -71 0 -97c-150 7 -354 7 -500 0zM383 -16c-224 0 -355 107 -355 288s131 288 355 288c223 0 354 -107 354 -288s-131 -288 -354 -288zM383 103c99 0 157 61 157 169c0 98 -58 160 -157 160
c-101 0 -158 -62 -158 -160c0 -108 57 -169 158 -169z" />
    <glyph glyph-name="Ohungarumlaut" unicode="&#x150;" horiz-adv-x="1103" 
d="M339 838c38 45 89 118 116 163c38 -5 140 -5 178 0c-51 -45 -122 -118 -159 -163c-24 2 -106 2 -135 0zM595 838c37 45 88 118 115 163c38 -5 141 -5 178 0c-48 -45 -122 -118 -159 -163c-24 2 -106 2 -134 0zM552 -17c-322 0 -512 145 -512 394s190 394 512 394
s511 -145 511 -394s-189 -394 -511 -394zM552 116c191 0 303 94 303 256c0 167 -112 265 -303 265c-193 0 -302 -98 -302 -265c0 -162 109 -256 302 -256z" />
    <glyph glyph-name="ohungarumlaut" unicode="&#x151;" horiz-adv-x="765" 
d="M221 628c30 49 70 130 91 179c30 -5 110 -5 140 0c-40 -49 -96 -130 -125 -179c-19 2 -83 2 -106 0zM422 628c29 49 69 130 90 179c30 -5 111 -5 140 0c-38 -49 -96 -130 -125 -179c-19 2 -83 2 -105 0zM383 -16c-224 0 -355 107 -355 288s131 288 355 288
c223 0 354 -107 354 -288s-131 -288 -354 -288zM383 103c99 0 157 61 157 169c0 98 -58 160 -157 160c-101 0 -158 -62 -158 -160c0 -108 57 -169 158 -169z" />
    <glyph glyph-name="OE" unicode="&#x152;" horiz-adv-x="1670" 
d="M1615 557c-120 40 -388 64 -562 60c-6 -63 -8 -127 -7 -190c175 -4 359 6 479 22c-5 -53 -5 -107 0 -160c-121 15 -305 24 -479 19c-1 -60 2 -121 8 -181c174 -4 442 20 561 63c-5 -63 -5 -127 0 -190h-781c4 42 6 98 8 160c-62 -110 -180 -172 -340 -172
c-291 0 -462 145 -462 389s171 389 462 389c160 0 278 -62 340 -172c-2 61 -4 115 -8 156c91 -13 610 -21 781 -3c-5 -63 -5 -127 0 -190zM552 125c185 0 293 93 293 247s-108 248 -293 248c-187 0 -292 -94 -292 -248s105 -247 292 -247z" />
    <glyph glyph-name="oe" unicode="&#x153;" horiz-adv-x="1275" 
d="M1232 210c-16 -44 -16 -119 0 -162c-86 -43 -198 -64 -308 -64c-133 0 -228 38 -282 107c-52 -69 -141 -107 -259 -107c-224 0 -355 107 -355 290c0 179 131 286 355 286c117 0 205 -37 258 -105c51 69 135 106 242 106c208 0 370 -107 345 -315h1h-1v0
c-232 5 -398 5 -482 1c13 -79 70 -130 196 -127c99 2 224 36 290 90zM883 434c-82 0 -134 -44 -139 -131c75 -4 187 -4 287 -2c-14 85 -63 133 -148 133zM383 103c99 0 157 61 157 166c0 101 -58 163 -157 163c-101 0 -158 -62 -158 -163c0 -105 57 -166 158 -166z" />
    <glyph glyph-name="Racute" unicode="&#x154;" horiz-adv-x="1014" 
d="M411 836c42 41 92 112 132 166c49 -10 212 -10 261 0c-81 -52 -189 -123 -249 -166c-23 3 -121 3 -144 0zM80 0c15 173 15 577 0 750c180 -4 277 4 443 4c295 0 429 -72 429 -221c0 -185 -221 -224 -313 -224v-16c208 -39 307 -213 345 -293h-287
c-18 181 -98 254 -290 272c-34 4 -72 5 -113 5c3 -145 6 -205 13 -277h-227zM293 401c59 -3 131 -9 214 -9c146 0 225 38 225 119c0 80 -86 109 -216 109c-87 0 -177 -4 -219 -4c-3 -65 -4 -135 -4 -215z" />
    <glyph glyph-name="racute" unicode="&#x155;" horiz-adv-x="527" 
d="M194 630c40 49 93 127 122 176c51 -10 193 -10 246 0c-71 -49 -176 -127 -229 -176c-25 2 -109 2 -139 0zM277 0h-227c29 159 29 342 0 517c79 5 168 21 220 44c-19 -80 -27 -139 -31 -215h16c57 169 170 232 257 204c-16 -51 -16 -124 0 -195c-43 13 -79 19 -108 19
c-113 0 -147 -75 -147 -172c0 -70 0 -132 20 -202z" />
    <glyph glyph-name="uni0156" unicode="&#x156;" horiz-adv-x="1014" 
d="M80 0c15 173 15 577 0 750c180 -4 277 4 443 4c295 0 429 -72 429 -221c0 -185 -221 -224 -313 -224v-16c208 -39 307 -213 345 -293h-287c-18 181 -98 254 -290 272c-34 4 -72 5 -113 5c3 -145 6 -205 13 -277h-227zM293 401c59 -3 131 -9 214 -9c146 0 225 38 225 119
c0 80 -86 109 -216 109c-87 0 -177 -4 -219 -4c-3 -65 -4 -135 -4 -215zM383 -142c0 54 36 80 109 80s109 -26 109 -90c0 -70 -74 -150 -129 -205c-18 5 -36 5 -54 2c34 46 61 87 74 133c-73 0 -109 25 -109 80z" />
    <glyph glyph-name="uni0157" unicode="&#x157;" horiz-adv-x="527" 
d="M277 0h-227c29 159 29 342 0 517c79 5 168 21 220 44c-19 -80 -27 -139 -31 -215h16c57 169 170 232 257 204c-16 -51 -16 -124 0 -195c-43 13 -79 19 -108 19c-113 0 -147 -75 -147 -172c0 -70 0 -132 20 -202zM48 -142c0 54 36 80 109 80s109 -26 109 -90
c0 -70 -74 -150 -129 -205c-18 5 -36 5 -54 2c34 46 61 87 74 133c-73 0 -109 25 -109 80z" />
    <glyph glyph-name="Rcaron" unicode="&#x158;" horiz-adv-x="1014" 
d="M229 1001c59 -5 129 -5 190 0c27 -36 47 -64 79 -94c34 30 56 58 85 94c63 -5 127 -5 187 0c-79 -62 -130 -99 -193 -159c-50 3 -109 3 -163 0c-60 61 -109 98 -185 159zM80 0c15 173 15 577 0 750c180 -4 277 4 443 4c295 0 429 -72 429 -221
c0 -185 -221 -224 -313 -224v-16c208 -39 307 -213 345 -293h-287c-18 181 -98 254 -290 272c-34 4 -72 5 -113 5c3 -145 6 -205 13 -277h-227zM293 401c59 -3 131 -9 214 -9c146 0 225 38 225 119c0 80 -86 109 -216 109c-87 0 -177 -4 -219 -4c-3 -65 -4 -135 -4 -215z
" />
    <glyph glyph-name="rcaron" unicode="&#x159;" horiz-adv-x="527" 
d="M198 628c-49 60 -93 109 -165 179c56 -5 114 -5 169 0c24 -38 42 -62 70 -99c30 37 48 61 74 99c56 -5 111 -5 168 0c-75 -70 -121 -119 -173 -179c-47 3 -96 3 -143 0zM277 0h-227c29 159 29 342 0 517c79 5 168 21 220 44c-19 -80 -27 -139 -31 -215h16
c57 169 170 232 257 204c-16 -51 -16 -124 0 -195c-43 13 -79 19 -108 19c-113 0 -147 -75 -147 -172c0 -70 0 -132 20 -202z" />
    <glyph glyph-name="Sacute" unicode="&#x15a;" horiz-adv-x="1018" 
d="M404 836c42 41 92 112 132 166c49 -10 212 -10 261 0c-81 -52 -189 -123 -249 -166c-23 3 -121 3 -144 0zM543 -12c-181 0 -354 39 -480 86c10 66 10 132 0 198c96 -99 316 -142 500 -142c130 0 182 29 182 85c0 74 -73 83 -299 103c-246 22 -391 67 -391 217
c0 154 136 229 414 229c194 0 310 -25 454 -60c-10 -62 -10 -125 0 -187c-117 53 -275 105 -461 105c-135 0 -189 -26 -189 -81c0 -71 70 -91 262 -106c273 -21 428 -63 428 -221c0 -152 -138 -226 -420 -226z" />
    <glyph glyph-name="sacute" unicode="&#x15b;" horiz-adv-x="705" 
d="M278 630c40 49 93 127 122 176c51 -10 193 -10 246 0c-71 -49 -176 -127 -229 -176c-25 2 -109 2 -139 0zM371 -16c-118 0 -243 21 -329 64c16 43 16 122 0 156c66 -52 204 -88 322 -88c80 0 118 20 118 54c0 116 -452 -32 -452 214c0 162 204 175 319 175
c117 0 197 -18 294 -44c-16 -42 -15 -88 3 -158c-82 41 -183 78 -308 78c-82 0 -120 -15 -120 -51c0 -127 457 37 457 -216c0 -131 -117 -184 -304 -184z" />
    <glyph glyph-name="Scedilla" unicode="&#x15e;" horiz-adv-x="1018" 
d="M543 -12h-6l-20 -58c150 9 199 -34 199 -86c0 -59 -64 -97 -216 -97c-86 0 -156 12 -233 50c6 29 6 58 0 85c63 -41 141 -62 218 -62c66 0 99 13 99 42c0 31 -41 48 -170 48l26 82c-143 11 -275 44 -377 82c10 66 10 132 0 198c96 -99 316 -142 500 -142
c130 0 182 29 182 85c0 74 -73 83 -299 103c-246 22 -391 67 -391 217c0 154 136 229 414 229c194 0 310 -25 454 -60c-10 -62 -10 -125 0 -187c-117 53 -275 105 -461 105c-135 0 -189 -26 -189 -81c0 -71 70 -91 262 -106c273 -21 428 -63 428 -221
c0 -152 -138 -226 -420 -226z" />
    <glyph glyph-name="scedilla" unicode="&#x15f;" horiz-adv-x="705" 
d="M675 168c0 -125 -107 -179 -279 -184l-16 -51c130 9 172 -32 172 -82c0 -56 -55 -93 -187 -93c-76 0 -136 12 -202 48c5 28 5 56 0 82c54 -40 122 -60 189 -60c57 0 86 13 86 40c0 30 -36 46 -148 46l20 72c-98 6 -197 26 -268 62c16 43 16 122 0 156
c66 -52 204 -88 322 -88c80 0 118 20 118 54c0 116 -452 -32 -452 214c0 162 204 175 319 175c117 0 197 -18 294 -44c-16 -42 -15 -88 3 -158c-82 41 -183 78 -308 78c-82 0 -120 -15 -120 -51c0 -127 457 37 457 -216z" />
    <glyph glyph-name="Scaron" unicode="&#x160;" horiz-adv-x="1018" 
d="M222 1001c59 -5 129 -5 190 0c27 -36 47 -64 79 -94c34 30 56 58 85 94c63 -5 127 -5 187 0c-79 -62 -130 -99 -193 -159c-50 3 -109 3 -163 0c-60 61 -109 98 -185 159zM543 -12c-181 0 -354 39 -480 86c10 66 10 132 0 198c96 -99 316 -142 500 -142
c130 0 182 29 182 85c0 74 -73 83 -299 103c-246 22 -391 67 -391 217c0 154 136 229 414 229c194 0 310 -25 454 -60c-10 -62 -10 -125 0 -187c-117 53 -275 105 -461 105c-135 0 -189 -26 -189 -81c0 -71 70 -91 262 -106c273 -21 428 -63 428 -221
c0 -152 -138 -226 -420 -226z" />
    <glyph glyph-name="scaron" unicode="&#x161;" horiz-adv-x="705" 
d="M282 628c-49 60 -93 109 -165 179c56 -5 114 -5 169 0c24 -38 42 -62 70 -99c30 37 48 61 74 99c56 -5 111 -5 168 0c-75 -70 -121 -119 -173 -179c-47 3 -96 3 -143 0zM371 -16c-118 0 -243 21 -329 64c16 43 16 122 0 156c66 -52 204 -88 322 -88c80 0 118 20 118 54
c0 116 -452 -32 -452 214c0 162 204 175 319 175c117 0 197 -18 294 -44c-16 -42 -15 -88 3 -158c-82 41 -183 78 -308 78c-82 0 -120 -15 -120 -51c0 -127 457 37 457 -216c0 -131 -117 -184 -304 -184z" />
    <glyph glyph-name="uni0162" unicode="&#x162;" horiz-adv-x="904" 
d="M909 582c-97 20 -197 31 -347 34c-6 -199 -3 -480 10 -616h-71l-24 -70c150 9 199 -34 199 -86c0 -59 -64 -97 -216 -97c-86 0 -156 12 -233 50c6 29 6 58 0 85c63 -41 141 -62 218 -62c66 0 99 13 99 42c0 31 -41 48 -170 48l28 90h-60c12 137 14 418 7 616
c-149 -3 -248 -14 -344 -34c10 56 10 112 0 168c341 -10 563 -10 904 0c-10 -56 -10 -112 0 -168z" />
    <glyph glyph-name="uni0163" unicode="&#x163;" horiz-adv-x="596" 
d="M315 426c-1 -56 -3 -108 -4 -153c-3 -117 53 -146 120 -146c48 0 103 16 145 24c-10 -44 -12 -90 -3 -133c-54 -16 -126 -31 -196 -31c-14 0 -28 1 -42 2l-17 -56c130 9 172 -32 172 -82c0 -56 -55 -93 -187 -93c-76 0 -136 12 -202 48c5 28 5 56 0 82
c54 -40 122 -60 189 -60c57 0 86 13 86 40c0 30 -36 46 -148 46l26 93c-66 25 -114 79 -114 178c0 37 0 133 -3 237c-50 -2 -98 -6 -142 -11c5 34 5 94 0 129c43 -5 89 -9 137 -11c-3 59 -7 114 -13 156c80 9 147 20 206 50c-2 -66 -5 -139 -7 -210c91 1 180 6 258 15
c-5 -50 -5 -79 0 -129c-79 9 -169 14 -261 15z" />
    <glyph glyph-name="Tcaron" unicode="&#x164;" horiz-adv-x="914" 
d="M187 1001c59 -5 129 -5 190 0c27 -36 47 -64 79 -94c34 30 56 58 85 94c63 -5 127 -5 187 0c-79 -62 -130 -99 -193 -159c-50 3 -109 3 -163 0c-60 61 -109 98 -185 159zM342 0c12 137 14 418 7 616c-149 -3 -248 -14 -344 -34c10 56 10 112 0 168c341 -10 563 -10 904 0
c-10 -56 -10 -112 0 -168c-97 20 -197 31 -347 34c-6 -199 -3 -480 10 -616h-230z" />
    <glyph glyph-name="tcaron" unicode="&#x165;" horiz-adv-x="596" 
d="M524 604c-34 3 -68 3 -102 0c-7 92 -19 185 -36 277c59 -7 120 -7 181 0c-19 -92 -34 -185 -43 -277zM315 426c-1 -56 -3 -108 -4 -153c-3 -117 53 -146 120 -146c48 0 103 16 145 24c-10 -44 -12 -90 -3 -133c-54 -16 -126 -31 -196 -31c-122 0 -237 44 -237 198
c0 37 0 133 -3 237c-50 -2 -98 -6 -142 -11c5 34 5 94 0 129c43 -5 89 -9 137 -11c-3 59 -7 114 -13 156c80 9 147 20 206 50c-2 -66 -5 -139 -7 -210c91 1 180 6 258 15c-5 -50 -5 -79 0 -129c-79 9 -169 14 -261 15z" />
    <glyph glyph-name="Tbar" unicode="&#x166;" horiz-adv-x="914" 
d="M562 616c-2 -66 -3 -140 -3 -216c60 1 128 3 219 6c-5 -35 -5 -70 0 -105c-91 3 -159 5 -218 6c1 -120 5 -234 12 -307h-230c6 73 10 187 11 308l-230 -7c5 35 5 70 0 105c97 -3 168 -5 230 -6c0 76 -2 150 -4 216c-149 -3 -248 -14 -344 -34c10 56 10 112 0 168
c341 -10 563 -10 904 0c-10 -56 -10 -112 0 -168c-97 20 -197 31 -347 34z" />
    <glyph glyph-name="tbar" unicode="&#x167;" horiz-adv-x="600" 
d="M581 411c-79 9 -169 14 -261 15c-1 -32 -2 -62 -2 -91c92 1 184 6 263 15c-5 -50 -5 -79 0 -129c-79 9 -171 14 -264 15c9 -86 60 -109 119 -109c48 0 103 16 145 24c-10 -44 -12 -90 -3 -133c-54 -16 -126 -31 -196 -31c-122 0 -237 44 -237 198v48
c-51 -3 -100 -7 -145 -12c5 34 5 94 0 129c45 -5 93 -9 144 -11c-1 26 -2 54 -2 83c-50 -2 -98 -6 -142 -11c5 34 5 94 0 129c43 -5 89 -9 137 -11c-3 59 -7 114 -13 156c80 9 147 20 206 50c-2 -66 -5 -139 -7 -210c91 1 180 6 258 15c-5 -50 -5 -79 0 -129z" />
    <glyph glyph-name="Umacron" unicode="&#x16a;" horiz-adv-x="1028" 
d="M252 845c5 26 5 81 0 107c146 -7 369 -7 520 0c-5 -26 -5 -81 0 -107c-150 7 -374 7 -520 0zM964 369c0 -248 -167 -395 -453 -395c-297 0 -451 147 -451 395c0 159 -3 298 -10 381c72 -12 157 -13 225 0c-7 -83 -10 -217 -10 -386c0 -159 79 -256 246 -256
c165 0 246 97 246 256c0 169 -2 303 -9 386c72 -12 158 -13 225 0c-7 -83 -9 -242 -9 -381z" />
    <glyph glyph-name="umacron" unicode="&#x16b;" horiz-adv-x="736" 
d="M106 673c5 26 5 71 0 97c146 -7 349 -7 500 0c-5 -26 -5 -71 0 -97c-150 7 -354 7 -500 0zM691 555c-28 -158 -28 -381 0 -555h-224c22 67 35 134 38 179h-16c-40 -119 -129 -191 -251 -191c-146 0 -191 105 -191 228c0 105 5 224 -17 310c67 -1 129 7 196 29v-246
c0 -105 38 -169 119 -169c100 0 136 67 136 172v214c70 -1 140 7 210 29z" />
    <glyph glyph-name="Uring" unicode="&#x16e;" horiz-adv-x="1028" 
d="M513 806c-102 0 -160 43 -160 120c0 76 58 121 160 121c100 0 158 -43 158 -121c0 -77 -58 -120 -158 -120zM513 872c46 0 72 19 72 53c0 35 -26 55 -72 55s-73 -20 -73 -55c0 -34 27 -53 73 -53zM964 369c0 -248 -167 -395 -453 -395c-297 0 -451 147 -451 395
c0 159 -3 298 -10 381c72 -12 157 -13 225 0c-7 -83 -10 -217 -10 -386c0 -159 79 -256 246 -256c165 0 246 97 246 256c0 169 -2 303 -9 386c72 -12 158 -13 225 0c-7 -83 -9 -242 -9 -381z" />
    <glyph glyph-name="uring" unicode="&#x16f;" horiz-adv-x="736" 
d="M357 610c-92 0 -143 41 -143 114c0 72 51 115 143 115c90 0 141 -42 141 -115s-51 -114 -141 -114zM357 673c41 0 64 18 64 50c0 33 -23 52 -64 52c-42 0 -65 -19 -65 -52c0 -32 23 -50 65 -50zM691 555c-28 -158 -28 -381 0 -555h-224c22 67 35 134 38 179h-16
c-40 -119 -129 -191 -251 -191c-146 0 -191 105 -191 228c0 105 5 224 -17 310c67 -1 129 7 196 29v-246c0 -105 38 -169 119 -169c100 0 136 67 136 172v214c70 -1 140 7 210 29z" />
    <glyph glyph-name="Uhungarumlaut" unicode="&#x170;" horiz-adv-x="1028" 
d="M299 838c38 45 89 118 116 163c38 -5 140 -5 178 0c-51 -45 -122 -118 -159 -163c-24 2 -106 2 -135 0zM555 838c37 45 88 118 115 163c38 -5 141 -5 178 0c-48 -45 -122 -118 -159 -163c-24 2 -106 2 -134 0zM964 369c0 -248 -167 -395 -453 -395
c-297 0 -451 147 -451 395c0 159 -3 298 -10 381c72 -12 157 -13 225 0c-7 -83 -10 -217 -10 -386c0 -159 79 -256 246 -256c165 0 246 97 246 256c0 169 -2 303 -9 386c72 -12 158 -13 225 0c-7 -83 -9 -242 -9 -381z" />
    <glyph glyph-name="uhungarumlaut" unicode="&#x171;" horiz-adv-x="736" 
d="M194 628c30 49 70 130 91 179c30 -5 110 -5 140 0c-40 -49 -96 -130 -125 -179c-19 2 -83 2 -106 0zM395 628c29 49 69 130 90 179c30 -5 111 -5 140 0c-38 -49 -96 -130 -125 -179c-19 2 -83 2 -105 0zM691 555c-28 -158 -28 -381 0 -555h-224c22 67 35 134 38 179h-16
c-40 -119 -129 -191 -251 -191c-146 0 -191 105 -191 228c0 105 5 224 -17 310c67 -1 129 7 196 29v-246c0 -105 38 -169 119 -169c100 0 136 67 136 172v214c70 -1 140 7 210 29z" />
    <glyph glyph-name="Uogonek" unicode="&#x172;" horiz-adv-x="1028" 
d="M60 369c0 159 -3 298 -10 381c72 -12 157 -13 225 0c-7 -83 -10 -217 -10 -386c0 -159 79 -256 246 -256c165 0 246 97 246 256c0 169 -2 303 -9 386c72 -12 158 -13 225 0c-7 -83 -9 -242 -9 -381c0 -201 -104 -298 -243 -363c-38 -17 -74 -29 -74 -73
c0 -49 55 -64 94 -66l3 -132c-138 2 -251 43 -251 142c0 42 21 73 56 100c-13 -3 -26 -3 -38 -3c-297 0 -451 147 -451 395z" />
    <glyph glyph-name="uogonek" unicode="&#x173;" horiz-adv-x="736" 
d="M691 0c-85 -8 -145 -33 -145 -74c0 -44 51 -48 87 -50v-106c-128 -19 -235 35 -235 132c0 50 27 81 69 98c22 67 35 134 38 179h-16c-40 -119 -129 -191 -251 -191c-146 0 -191 105 -191 228c0 105 5 224 -17 310c67 -1 129 7 196 29v-246c0 -105 38 -169 119 -169
c100 0 136 67 136 172v214c70 -1 140 7 210 29c-28 -158 -28 -381 0 -555z" />
    <glyph glyph-name="Wcircumflex" unicode="&#x174;" horiz-adv-x="1311" 
d="M576 842c-61 5 -131 5 -190 0c76 61 125 98 185 159c54 -3 113 -3 163 0c63 -60 114 -97 193 -159c-60 5 -124 5 -187 0c-29 36 -51 64 -85 94c-32 -30 -52 -58 -79 -94zM1083 750c74 -10 149 -10 223 0c-64 -157 -145 -468 -222 -750h-312c-23 160 -65 416 -112 594
c-45 -177 -88 -432 -111 -594h-322c-68 258 -149 569 -222 750c76 -10 152 -10 228 0c41 -196 93 -418 153 -645c55 223 96 437 123 645c100 -10 200 -10 300 0c29 -205 74 -438 125 -644c68 266 117 487 149 644z" />
    <glyph glyph-name="wcircumflex" unicode="&#x175;" horiz-adv-x="1090" 
d="M479 629c-55 5 -109 5 -165 0c68 70 109 119 155 179c50 -3 103 -3 153 0c52 -60 98 -109 173 -179c-57 5 -116 5 -172 0c-26 38 -44 62 -74 99c-28 -37 -46 -61 -70 -99zM877 541c63 -13 142 -15 213 0c-67 -154 -157 -393 -205 -541h-243c-31 135 -62 260 -98 388
c-34 -127 -64 -251 -96 -388h-243c-48 148 -138 387 -205 541c71 -13 157 -15 217 0c27 -117 63 -265 105 -416c43 151 80 299 104 416c76 -12 170 -14 243 0c24 -117 61 -265 105 -416c41 151 77 299 103 416z" />
    <glyph glyph-name="Ycircumflex" unicode="&#x176;" horiz-adv-x="915" 
d="M385 832c-61 5 -131 5 -190 0c76 61 125 98 185 159c54 -3 113 -3 163 0c63 -60 114 -97 193 -159c-60 5 -124 5 -187 0c-29 36 -51 64 -85 94c-32 -30 -52 -58 -79 -94zM562 270c-10 -90 -9 -180 1 -270h-210c10 90 10 180 0 270c-123 165 -250 325 -383 480
c85 -12 190 -13 253 0c75 -123 154 -240 238 -353c84 112 164 230 238 353c63 -13 161 -12 246 0c-133 -155 -260 -315 -383 -480z" />
    <glyph glyph-name="ycircumflex" unicode="&#x177;" horiz-adv-x="741" 
d="M118 629c68 70 109 119 155 179c50 -3 103 -3 153 0c52 -60 98 -109 173 -179c-57 5 -116 5 -172 0c-26 38 -44 62 -74 99c-28 -37 -46 -61 -70 -99c-55 5 -109 5 -165 0zM510 43v136h-16c-40 -107 -129 -171 -251 -171c-146 0 -196 96 -196 208c0 105 5 216 -17 302
c67 -1 134 7 201 29v-238c0 -99 38 -159 119 -159c100 0 136 63 136 162v206c67 -1 133 7 200 29v-456c0 -125 -13 -320 -340 -320c-106 0 -213 21 -299 64c16 43 16 112 0 156c66 -56 185 -88 281 -88c101 0 182 41 182 140z" />
    <glyph glyph-name="Ydieresis" unicode="&#x178;" horiz-adv-x="915" 
d="M309 822c-67 0 -102 21 -102 70c0 47 35 70 102 70c75 0 111 -23 111 -70c0 -49 -36 -70 -111 -70zM611 822c-67 0 -102 21 -102 70c0 47 35 70 102 70c75 0 111 -23 111 -70c0 -49 -36 -70 -111 -70zM562 270c-10 -90 -9 -180 1 -270h-210c10 90 10 180 0 270
c-123 165 -250 325 -383 480c85 -12 190 -13 253 0c75 -123 154 -240 238 -353c84 112 164 230 238 353c63 -13 161 -12 246 0c-133 -155 -260 -315 -383 -480z" />
    <glyph glyph-name="Zacute" unicode="&#x179;" horiz-adv-x="1000" 
d="M412 836c42 41 92 112 132 166c49 -10 212 -10 261 0c-81 -52 -189 -123 -249 -166c-23 3 -121 3 -144 0zM66 0c5 51 5 97 0 148c208 112 436 285 614 417v22c-193 0 -460 -17 -620 -28c5 65 5 126 0 191c221 -25 671 -25 878 0c-5 -58 -5 -109 0 -167
c-201 -116 -421 -287 -591 -426v-17c177 0 446 21 593 42c-5 -62 -5 -120 0 -182h-874z" />
    <glyph glyph-name="zacute" unicode="&#x17a;" horiz-adv-x="685" 
d="M263 630c40 49 93 127 122 176c51 -10 193 -10 246 0c-71 -49 -176 -127 -229 -176c-25 2 -109 2 -139 0zM41 0c5 39 5 74 0 123c127 73 267 179 366 260v16c-132 0 -261 -12 -367 -20c5 58 5 114 0 172c152 -20 456 -20 598 0c-5 -48 -5 -98 0 -156
c-135 -77 -269 -171 -358 -243v-12c125 0 270 15 365 30c-8 -69 -5 -114 0 -170h-604z" />
    <glyph glyph-name="Zdotaccent" unicode="&#x17b;" horiz-adv-x="1000" 
d="M495 827c-76 0 -114 24 -114 77c0 52 38 77 114 77c83 0 124 -25 124 -77c0 -53 -41 -77 -124 -77zM66 0c5 51 5 97 0 148c208 112 436 285 614 417v22c-193 0 -460 -17 -620 -28c5 65 5 126 0 191c221 -25 671 -25 878 0c-5 -58 -5 -109 0 -167
c-201 -116 -421 -287 -591 -426v-17c177 0 446 21 593 42c-5 -62 -5 -120 0 -182h-874z" />
    <glyph glyph-name="zdotaccent" unicode="&#x17c;" horiz-adv-x="685" 
d="M338 622c-76 0 -114 24 -114 77c0 52 38 77 114 77c83 0 124 -25 124 -77c0 -53 -41 -77 -124 -77zM41 0c5 39 5 74 0 123c127 73 267 179 366 260v16c-132 0 -261 -12 -367 -20c5 58 5 114 0 172c152 -20 456 -20 598 0c-5 -48 -5 -98 0 -156
c-135 -77 -269 -171 -358 -243v-12c125 0 270 15 365 30c-8 -69 -5 -114 0 -170h-604z" />
    <glyph glyph-name="Zcaron" unicode="&#x17d;" horiz-adv-x="1000" 
d="M230 1001c59 -5 129 -5 190 0c27 -36 47 -64 79 -94c34 30 56 58 85 94c63 -5 127 -5 187 0c-79 -62 -130 -99 -193 -159c-50 3 -109 3 -163 0c-60 61 -109 98 -185 159zM66 0c5 51 5 97 0 148c208 112 436 285 614 417v22c-193 0 -460 -17 -620 -28c5 65 5 126 0 191
c221 -25 671 -25 878 0c-5 -58 -5 -109 0 -167c-201 -116 -421 -287 -591 -426v-17c177 0 446 21 593 42c-5 -62 -5 -120 0 -182h-874z" />
    <glyph glyph-name="zcaron" unicode="&#x17e;" horiz-adv-x="685" 
d="M267 628c-49 60 -93 109 -165 179c56 -5 114 -5 169 0c24 -38 42 -62 70 -99c30 37 48 61 74 99c56 -5 111 -5 168 0c-75 -70 -121 -119 -173 -179c-47 3 -96 3 -143 0zM41 0c5 39 5 74 0 123c127 73 267 179 366 260v16c-132 0 -261 -12 -367 -20c5 58 5 114 0 172
c152 -20 456 -20 598 0c-5 -48 -5 -98 0 -156c-135 -77 -269 -171 -358 -243v-12c125 0 270 15 365 30c-8 -69 -5 -114 0 -170h-604z" />
    <glyph glyph-name="uni0218" unicode="&#x218;" horiz-adv-x="1018" 
d="M543 -12c-181 0 -354 39 -480 86c10 66 10 132 0 198c96 -99 316 -142 500 -142c130 0 182 29 182 85c0 74 -73 83 -299 103c-246 22 -391 67 -391 217c0 154 136 229 414 229c194 0 310 -25 454 -60c-10 -62 -10 -125 0 -187c-117 53 -275 105 -461 105
c-135 0 -189 -26 -189 -81c0 -71 70 -91 262 -106c273 -21 428 -63 428 -221c0 -152 -138 -226 -420 -226zM376 -142c0 54 36 80 109 80s109 -26 109 -90c0 -70 -74 -150 -129 -205c-18 5 -36 5 -54 2c34 46 61 87 74 133c-73 0 -109 25 -109 80z" />
    <glyph glyph-name="uni0219" unicode="&#x219;" horiz-adv-x="705" 
d="M371 -16c-118 0 -243 21 -329 64c16 43 16 122 0 156c66 -52 204 -88 322 -88c80 0 118 20 118 54c0 116 -452 -32 -452 214c0 162 204 175 319 175c117 0 197 -18 294 -44c-16 -42 -15 -88 3 -158c-82 41 -183 78 -308 78c-82 0 -120 -15 -120 -51
c0 -127 457 37 457 -216c0 -131 -117 -184 -304 -184zM242 -142c0 54 36 80 109 80s109 -26 109 -90c0 -70 -74 -150 -129 -205c-18 5 -36 5 -54 2c34 46 61 87 74 133c-73 0 -109 25 -109 80z" />
    <glyph glyph-name="uni021A" unicode="&#x21a;" horiz-adv-x="914" 
d="M342 0c12 137 14 418 7 616c-149 -3 -248 -14 -344 -34c10 56 10 112 0 168c341 -10 563 -10 904 0c-10 -56 -10 -112 0 -168c-97 20 -197 31 -347 34c-6 -199 -3 -480 10 -616h-230zM341 -142c0 54 36 80 109 80s109 -26 109 -90c0 -70 -74 -150 -129 -205
c-18 5 -36 5 -54 2c34 46 61 87 74 133c-73 0 -109 25 -109 80z" />
    <glyph glyph-name="uni021B" unicode="&#x21b;" horiz-adv-x="596" 
d="M315 426c-1 -56 -3 -108 -4 -153c-3 -117 53 -146 120 -146c48 0 103 16 145 24c-10 -44 -12 -90 -3 -133c-54 -16 -126 -31 -196 -31c-122 0 -237 44 -237 198c0 37 0 133 -3 237c-50 -2 -98 -6 -142 -11c5 34 5 94 0 129c43 -5 89 -9 137 -11c-3 59 -7 114 -13 156
c80 9 147 20 206 50c-2 -66 -5 -139 -7 -210c91 1 180 6 258 15c-5 -50 -5 -79 0 -129c-79 9 -169 14 -261 15zM339 -62c73 0 109 -26 109 -90c0 -70 -74 -150 -129 -205c-18 5 -36 5 -54 2c34 46 61 87 74 133c-73 0 -109 25 -109 80c0 54 36 80 109 80z" />
    <glyph glyph-name="uni0237" unicode="&#x237;" horiz-adv-x="317" 
d="M2 -219c-42 0 -83 7 -117 17c-1 48 -14 83 -35 131c28 -5 57 -10 84 -10c69 0 126 29 126 152c0 155 -4 367 -12 456c74 -14 141 -15 213 0c-7 -77 -15 -216 -15 -539c0 -157 -127 -207 -244 -207z" />
    <glyph glyph-name="circumflex" unicode="&#x2c6;" horiz-adv-x="561" 
d="M10 629c68 70 109 119 155 179c50 -3 103 -3 153 0c52 -60 98 -109 173 -179c-57 5 -116 5 -172 0c-26 38 -44 62 -74 99c-28 -37 -46 -61 -70 -99c-55 5 -109 5 -165 0z" />
    <glyph glyph-name="caron" unicode="&#x2c7;" horiz-adv-x="600" 
d="M175 628c-49 60 -93 109 -165 179c56 -5 114 -5 169 0c24 -38 42 -62 70 -99c30 37 48 61 74 99c56 -5 111 -5 168 0c-75 -70 -121 -119 -173 -179c-47 3 -96 3 -143 0z" />
    <glyph glyph-name="breve" unicode="&#x2d8;" horiz-adv-x="600" 
d="M254 623c-136 0 -224 76 -224 181h130c0 -48 31 -84 94 -84c65 0 96 36 96 84h139c0 -111 -103 -181 -235 -181z" />
    <glyph glyph-name="dotaccent" unicode="&#x2d9;" horiz-adv-x="318" 
d="M154 622c-76 0 -114 24 -114 77c0 52 38 77 114 77c83 0 124 -25 124 -77c0 -53 -41 -77 -124 -77z" />
    <glyph glyph-name="ring" unicode="&#x2da;" horiz-adv-x="346" 
d="M193 609c-92 0 -143 41 -143 114c0 72 51 115 143 115c90 0 141 -42 141 -115s-51 -114 -141 -114zM193 672c41 0 64 18 64 50c0 33 -23 52 -64 52c-42 0 -65 -19 -65 -52c0 -32 23 -50 65 -50z" />
    <glyph glyph-name="ogonek" unicode="&#x2db;" horiz-adv-x="600" 
d="M414 10l13 -10c-85 -8 -145 -33 -145 -74c0 -44 51 -48 87 -50v-106c-128 -19 -235 35 -235 132c0 112 134 128 280 108z" />
    <glyph glyph-name="tilde" unicode="&#x2dc;" horiz-adv-x="587" 
d="M191 808c85 0 137 -42 235 -42c30 0 78 4 121 42c-1 -4 -1 -8 -2 -12c-19 -73 -41 -143 -146 -143c-87 0 -147 42 -238 42c-37 0 -82 -6 -121 -53c0 3 0 6 1 10c22 82 41 156 150 156z" />
    <glyph glyph-name="hungarumlaut" unicode="&#x2dd;" horiz-adv-x="600" 
d="M0 628c30 49 70 130 91 179c30 -5 110 -5 140 0c-40 -49 -96 -130 -125 -179c-19 2 -83 2 -106 0zM201 628c29 49 69 130 90 179c30 -5 111 -5 140 0c-38 -49 -96 -130 -125 -179c-19 2 -83 2 -105 0z" />
    <glyph glyph-name="gravecomb" unicode="&#x300;" 
d="M-219 630c-53 49 -158 127 -229 176c53 -10 195 -10 246 0c29 -49 82 -127 122 -176c-30 2 -114 2 -139 0z" />
    <glyph glyph-name="acutecomb" unicode="&#x301;" 
d="M-368 630c40 49 93 127 122 176c51 -10 193 -10 246 0c-71 -49 -176 -127 -229 -176c-25 2 -109 2 -139 0z" />
    <glyph glyph-name="uni0302" unicode="&#x302;" 
d="M-491 629c68 70 109 119 155 179c50 -3 103 -3 153 0c52 -60 98 -109 173 -179c-57 5 -116 5 -172 0c-26 38 -44 62 -74 99c-28 -37 -46 -61 -70 -99c-55 5 -109 5 -165 0z" />
    <glyph glyph-name="tildecomb" unicode="&#x303;" 
d="M-377 808c80 0 130 -42 222 -42c29 0 74 4 115 42c-1 -4 -1 -8 -2 -12c-18 -73 -39 -143 -138 -143c-83 0 -139 42 -226 42c-35 0 -77 -6 -114 -53c0 3 0 6 1 10c21 82 39 156 142 156z" />
    <glyph glyph-name="uni0304" unicode="&#x304;" 
d="M-535 673c5 26 5 71 0 97c146 -7 349 -7 500 0c-5 -26 -5 -71 0 -97c-150 7 -354 7 -500 0z" />
    <glyph glyph-name="uni0306" unicode="&#x306;" 
d="M-265 623c-136 0 -224 76 -224 181h130c0 -48 31 -84 94 -84c65 0 96 36 96 84h139c0 -111 -103 -181 -235 -181z" />
    <glyph glyph-name="uni0307" unicode="&#x307;" 
d="M-164 622c-76 0 -114 24 -114 77c0 52 38 77 114 77c83 0 124 -25 124 -77c0 -53 -41 -77 -124 -77z" />
    <glyph glyph-name="uni0308" unicode="&#x308;" 
d="M-424 624c-63 0 -96 22 -96 71c0 48 33 71 96 71c70 0 104 -23 104 -71c0 -49 -34 -71 -104 -71zM-144 624c-63 0 -96 22 -96 71c0 48 33 71 96 71c70 0 104 -23 104 -71c0 -49 -34 -71 -104 -71z" />
    <glyph glyph-name="uni030A" unicode="&#x30a;" 
d="M-191 609c-92 0 -143 41 -143 114c0 72 51 115 143 115c90 0 141 -42 141 -115s-51 -114 -141 -114zM-191 672c41 0 64 18 64 50c0 33 -23 52 -64 52c-42 0 -65 -19 -65 -52c0 -32 23 -50 65 -50z" />
    <glyph glyph-name="uni030B" unicode="&#x30b;" 
d="M-391 628c30 49 70 130 91 179c30 -5 110 -5 140 0c-40 -49 -96 -130 -125 -179c-19 2 -83 2 -106 0zM-190 628c29 49 69 130 90 179c30 -5 111 -5 140 0c-38 -49 -96 -130 -125 -179c-19 2 -83 2 -105 0z" />
    <glyph glyph-name="uni030C" unicode="&#x30c;" 
d="M-326 628c-49 60 -93 109 -165 179c56 -5 114 -5 169 0c24 -38 42 -62 70 -99c30 37 48 61 74 99c56 -5 111 -5 168 0c-75 -70 -121 -119 -173 -179c-47 3 -96 3 -143 0z" />
    <glyph glyph-name="uni0312" unicode="&#x312;" 
d="M-55 643c0 -54 -36 -80 -109 -80s-109 26 -109 90c0 70 74 150 129 205c18 -5 36 -5 54 -2c-34 -46 -61 -87 -74 -133c73 0 109 -25 109 -80z" />
    <glyph glyph-name="uni0326" unicode="&#x326;" 
d="M-264 -142c0 54 36 80 109 80s109 -26 109 -90c0 -70 -74 -150 -129 -205c-18 5 -36 5 -54 2c34 46 61 87 74 133c-73 0 -109 25 -109 80z" />
    <glyph glyph-name="uni0327" unicode="&#x327;" 
d="M-227 -242c-76 0 -136 12 -202 48c5 28 5 56 0 82c54 -40 122 -60 189 -60c57 0 86 13 86 40c0 30 -36 46 -148 46l27 95h86l-23 -76c130 9 172 -32 172 -82c0 -56 -55 -93 -187 -93z" />
    <glyph glyph-name="uni0328" unicode="&#x328;" 
d="M-186 10l13 -10c-85 -8 -145 -33 -145 -74c0 -44 51 -48 87 -50v-106c-128 -19 -235 35 -235 132c0 112 134 128 280 108z" />
    <glyph glyph-name="Wgrave" unicode="&#x1e80;" horiz-adv-x="1311" 
d="M718 836c-23 2 -121 2 -144 0c-60 43 -173 114 -249 166c49 -10 212 -10 261 0c35 -54 90 -125 132 -166zM1083 750c74 -10 149 -10 223 0c-64 -157 -145 -468 -222 -750h-312c-23 160 -65 416 -112 594c-45 -177 -88 -432 -111 -594h-322c-68 258 -149 569 -222 750
c76 -10 152 -10 228 0c41 -196 93 -418 153 -645c55 223 96 437 123 645c100 -10 200 -10 300 0c29 -205 74 -438 125 -644c68 266 117 487 149 644z" />
    <glyph glyph-name="wgrave" unicode="&#x1e81;" horiz-adv-x="1090" 
d="M618 630c-30 2 -114 2 -139 0c-53 49 -158 127 -229 176c53 -10 195 -10 246 0c29 -49 82 -127 122 -176zM877 541c63 -13 142 -15 213 0c-67 -154 -157 -393 -205 -541h-243c-31 135 -62 260 -98 388c-34 -127 -64 -251 -96 -388h-243c-48 148 -138 387 -205 541
c71 -13 157 -15 217 0c27 -117 63 -265 105 -416c43 151 80 299 104 416c76 -12 170 -14 243 0c24 -117 61 -265 105 -416c41 151 77 299 103 416z" />
    <glyph glyph-name="Wacute" unicode="&#x1e82;" horiz-adv-x="1311" 
d="M712 836c-23 3 -121 3 -144 0c42 41 92 112 132 166c49 -10 212 -10 261 0c-81 -52 -189 -123 -249 -166zM1083 750c74 -10 149 -10 223 0c-64 -157 -145 -468 -222 -750h-312c-23 160 -65 416 -112 594c-45 -177 -88 -432 -111 -594h-322c-68 258 -149 569 -222 750
c76 -10 152 -10 228 0c41 -196 93 -418 153 -645c55 223 96 437 123 645c100 -10 200 -10 300 0c29 -205 74 -438 125 -644c68 266 117 487 149 644z" />
    <glyph glyph-name="wacute" unicode="&#x1e83;" horiz-adv-x="1090" 
d="M614 630c-25 2 -109 2 -139 0c40 49 93 127 122 176c51 -10 193 -10 246 0c-71 -49 -176 -127 -229 -176zM877 541c63 -13 142 -15 213 0c-67 -154 -157 -393 -205 -541h-243c-31 135 -62 260 -98 388c-34 -127 -64 -251 -96 -388h-243c-48 148 -138 387 -205 541
c71 -13 157 -15 217 0c27 -117 63 -265 105 -416c43 151 80 299 104 416c76 -12 170 -14 243 0c24 -117 61 -265 105 -416c41 151 77 299 103 416z" />
    <glyph glyph-name="Wdieresis" unicode="&#x1e84;" horiz-adv-x="1311" 
d="M500 832c-67 0 -102 21 -102 70c0 47 35 70 102 70c75 0 111 -23 111 -70c0 -49 -36 -70 -111 -70zM802 832c-67 0 -102 21 -102 70c0 47 35 70 102 70c75 0 111 -23 111 -70c0 -49 -36 -70 -111 -70zM1083 750c74 -10 149 -10 223 0c-64 -157 -145 -468 -222 -750h-312
c-23 160 -65 416 -112 594c-45 -177 -88 -432 -111 -594h-322c-68 258 -149 569 -222 750c76 -10 152 -10 228 0c41 -196 93 -418 153 -645c55 223 96 437 123 645c100 -10 200 -10 300 0c29 -205 74 -438 125 -644c68 266 117 487 149 644z" />
    <glyph glyph-name="wdieresis" unicode="&#x1e85;" horiz-adv-x="1090" 
d="M410 624c-63 0 -96 22 -96 71c0 48 33 71 96 71c70 0 104 -23 104 -71c0 -49 -34 -71 -104 -71zM690 624c-63 0 -96 22 -96 71c0 48 33 71 96 71c70 0 104 -23 104 -71c0 -49 -34 -71 -104 -71zM877 541c63 -13 142 -15 213 0c-67 -154 -157 -393 -205 -541h-243
c-31 135 -62 260 -98 388c-34 -127 -64 -251 -96 -388h-243c-48 148 -138 387 -205 541c71 -13 157 -15 217 0c27 -117 63 -265 105 -416c43 151 80 299 104 416c76 -12 170 -14 243 0c24 -117 61 -265 105 -416c41 151 77 299 103 416z" />
    <glyph glyph-name="uni1E9E" unicode="&#x1e9e;" horiz-adv-x="1064" 
d="M700 -12c-97 0 -211 14 -306 60c10 53 10 107 0 180c54 -52 177 -81 269 -81c84 0 134 35 134 96c0 79 -84 120 -310 120c82 63 157 141 203 201c-37 30 -100 53 -184 53c-143 0 -202 -61 -202 -142c0 -146 0 -284 12 -475h-236c12 193 12 339 12 480
c0 168 114 286 425 286c133 0 320 -24 471 -127c-85 -83 -148 -147 -219 -210c182 -35 255 -124 255 -222c0 -133 -133 -219 -324 -219z" />
    <glyph glyph-name="Ygrave" unicode="&#x1ef2;" horiz-adv-x="915" 
d="M527 826c-23 2 -121 2 -144 0c-60 43 -173 114 -249 166c49 -10 212 -10 261 0c35 -54 90 -125 132 -166zM562 270c-10 -90 -9 -180 1 -270h-210c10 90 10 180 0 270c-123 165 -250 325 -383 480c85 -12 190 -13 253 0c75 -123 154 -240 238 -353c84 112 164 230 238 353
c63 -13 161 -12 246 0c-133 -155 -260 -315 -383 -480z" />
    <glyph glyph-name="ygrave" unicode="&#x1ef3;" horiz-adv-x="741" 
d="M283 630c-53 49 -158 127 -229 176c53 -10 195 -10 246 0c29 -49 82 -127 122 -176c-30 2 -114 2 -139 0zM510 43v136h-16c-40 -107 -129 -171 -251 -171c-146 0 -196 96 -196 208c0 105 5 216 -17 302c67 -1 134 7 201 29v-238c0 -99 38 -159 119 -159
c100 0 136 63 136 162v206c67 -1 133 7 200 29v-456c0 -125 -13 -320 -340 -320c-106 0 -213 21 -299 64c16 43 16 112 0 156c66 -56 185 -88 281 -88c101 0 182 41 182 140z" />
    <glyph glyph-name="endash" unicode="&#x2013;" horiz-adv-x="561" 
d="M531 332c-4 -20 -4 -69 0 -88c-136 7 -366 7 -500 0c4 19 4 68 -1 88c135 -6 365 -6 501 0z" />
    <glyph glyph-name="emdash" unicode="&#x2014;" horiz-adv-x="957" 
d="M927 332c-7 -20 -7 -69 0 -88c-243 7 -655 7 -896 0c8 19 8 68 -1 88c242 -6 654 -6 897 0z" />
    <glyph glyph-name="quoteleft" unicode="&#x2018;" horiz-adv-x="288" 
d="M253 551c0 -54 -36 -80 -109 -80s-109 26 -109 90c0 70 74 150 129 205c18 -5 36 -5 54 -2c-34 -46 -61 -87 -74 -133c73 0 109 -25 109 -80z" />
    <glyph glyph-name="quoteright" unicode="&#x2019;" horiz-adv-x="298" 
d="M30 688c0 54 36 80 109 80s109 -26 109 -90c0 -70 -74 -150 -129 -205c-18 5 -36 5 -54 2c34 46 61 87 74 133c-73 0 -109 25 -109 80z" />
    <glyph glyph-name="quotesinglbase" unicode="&#x201a;" horiz-adv-x="288" 
d="M35 68c0 54 36 80 109 80s109 -26 109 -90c0 -70 -74 -150 -129 -205c-18 5 -36 5 -54 2c34 46 61 87 74 133c-73 0 -109 25 -109 80z" />
    <glyph glyph-name="quotedblleft" unicode="&#x201c;" horiz-adv-x="554" 
d="M519 553c0 -54 -36 -80 -109 -80s-109 26 -109 90c0 70 74 150 129 205c18 -5 36 -5 54 -2c-34 -46 -61 -87 -74 -133c73 0 109 -25 109 -80zM253 548c0 -54 -36 -80 -109 -80s-109 26 -109 90c0 70 74 150 129 205c18 -5 36 -5 54 -2c-34 -46 -61 -87 -74 -133
c73 0 109 -25 109 -80z" />
    <glyph glyph-name="quotedblright" unicode="&#x201d;" horiz-adv-x="553" 
d="M35 689c0 54 36 80 109 80s109 -26 109 -90c0 -70 -74 -150 -129 -205c-18 5 -36 5 -54 2c34 46 61 87 74 133c-73 0 -109 25 -109 80zM300 689c0 54 36 80 109 80s109 -26 109 -90c0 -70 -74 -150 -129 -205c-18 5 -36 5 -54 2c34 46 61 87 74 133
c-73 0 -109 25 -109 80z" />
    <glyph glyph-name="quotedblbase" unicode="&#x201e;" horiz-adv-x="548" 
d="M35 68c0 54 36 80 109 80s109 -26 109 -90c0 -70 -74 -150 -129 -205c-18 5 -36 5 -54 2c34 46 61 87 74 133c-73 0 -109 25 -109 80zM295 68c0 54 36 80 109 80s109 -26 109 -90c0 -70 -74 -150 -129 -205c-18 5 -36 5 -54 2c34 46 61 87 74 133c-73 0 -109 25 -109 80z
" />
    <glyph glyph-name="dagger" unicode="&#x2020;" horiz-adv-x="732" 
d="M672 432c-83 8 -163 13 -243 14c-1 -211 6 -442 20 -568c-48 6 -129 6 -172 0c12 133 19 360 18 568c-77 -2 -155 -6 -235 -14c6 44 6 114 0 154c80 -8 157 -13 234 -15c-2 94 -6 178 -12 240c43 -6 114 -6 162 0c-6 -62 -11 -146 -13 -240c79 2 158 7 241 15
c-6 -40 -6 -110 0 -154z" />
    <glyph glyph-name="daggerdbl" unicode="&#x2021;" horiz-adv-x="732" 
d="M427 446v-185c80 2 161 7 245 15c-6 -40 -6 -110 0 -154c-83 8 -163 13 -243 14c3 -102 8 -194 15 -258c-48 6 -119 6 -162 0c6 67 11 158 13 258c-77 -2 -155 -6 -235 -14c6 44 6 114 0 154c81 -8 160 -13 237 -15c1 61 1 124 0 185c-78 -2 -156 -6 -237 -14
c6 44 6 114 0 154c80 -8 158 -13 235 -15c-3 94 -7 179 -13 241c43 -6 114 -6 162 0c-7 -62 -11 -146 -14 -241c79 2 159 7 242 15c-6 -40 -6 -110 0 -154c-84 8 -164 13 -245 14z" />
    <glyph glyph-name="bullet" unicode="&#x2022;" horiz-adv-x="346" 
d="M173 153c-92 0 -138 35 -138 115c0 77 46 115 138 115s138 -38 138 -115c0 -80 -46 -115 -138 -115z" />
    <glyph glyph-name="ellipsis" unicode="&#x2026;" horiz-adv-x="885" 
d="M144 -12c-73 0 -109 25 -109 80c0 54 36 80 109 80s109 -26 109 -80c0 -55 -36 -80 -109 -80zM444 -12c-73 0 -109 25 -109 80c0 54 36 80 109 80s109 -26 109 -80c0 -55 -36 -80 -109 -80zM741 -12c-73 0 -109 25 -109 80c0 54 36 80 109 80s109 -26 109 -80
c0 -55 -36 -80 -109 -80z" />
    <glyph glyph-name="perthousand" unicode="&#x2030;" horiz-adv-x="1525" 
d="M251 370c-132 0 -223 74 -223 202c0 125 91 200 223 200c133 0 222 -75 222 -200c0 -128 -89 -202 -222 -202zM771 750c35 -5 99 -5 134 0c-227 -258 -443 -492 -649 -750c-35 5 -99 5 -134 0c222 253 438 487 649 750zM250 446c62 0 97 46 97 123c0 76 -35 121 -97 121
c-59 0 -95 -45 -95 -121c0 -77 36 -123 95 -123zM773 -20c-133 0 -222 75 -222 202c0 126 88 200 222 200c132 0 223 -74 223 -200c0 -127 -91 -202 -223 -202zM1274 -20c-133 0 -222 75 -222 202c0 126 88 200 222 200c132 0 223 -74 223 -200c0 -127 -91 -202 -223 -202z
M772 56c61 0 97 46 97 123c0 76 -36 122 -97 122c-60 0 -95 -46 -95 -122c0 -77 35 -123 95 -123zM1273 56c61 0 97 46 97 123c0 76 -36 122 -97 122c-60 0 -95 -46 -95 -122c0 -77 35 -123 95 -123z" />
    <glyph glyph-name="guilsinglleft" unicode="&#x2039;" horiz-adv-x="482" 
d="M50 267c86 66 174 131 234 223h138c-80 -92 -165 -157 -239 -223c74 -63 159 -126 239 -216h-138c-60 90 -149 153 -234 216z" />
    <glyph glyph-name="guilsinglright" unicode="&#x203a;" horiz-adv-x="482" 
d="M432 267c-85 -63 -174 -126 -234 -216h-138c80 90 165 153 239 216c-74 66 -159 131 -239 223h138c60 -92 148 -157 234 -223z" />
    <glyph glyph-name="Euro" unicode="&#x20ac;" horiz-adv-x="1128" 
d="M1064 293c-7 -71 5 -139 14 -186c-128 -82 -250 -125 -451 -125c-237 0 -395 94 -452 250c-48 -2 -99 -5 -155 -9c5 35 5 70 0 105c48 -3 92 -6 134 -8c-3 19 -4 39 -4 59c0 11 0 22 1 32c-41 -2 -84 -5 -131 -8c5 35 5 70 0 105c53 -3 101 -6 146 -8
c53 179 229 271 481 271c118 0 238 -17 419 -83c-9 -70 -9 -121 0 -191c-183 104 -308 129 -408 130c-141 1 -245 -46 -291 -133c121 -1 239 4 398 14c-5 -35 -5 -70 0 -105c-169 11 -292 16 -422 15c-2 -13 -3 -26 -3 -39c0 -23 2 -44 7 -65c128 -1 251 3 418 14
c-5 -35 -5 -70 0 -105c-153 10 -268 15 -385 15c47 -70 137 -113 271 -113c147 0 275 46 413 168z" />
    <glyph glyph-name="trademark" unicode="&#x2122;" horiz-adv-x="1136" 
d="M20 752c181 -5 300 -5 481 0c-3 -37 -3 -79 0 -113c-51 16 -102 26 -180 28c-3 -102 -1 -242 6 -312h-133c7 71 8 211 4 312c-77 -2 -128 -12 -178 -28c3 34 3 76 0 113zM991 355c6 60 7 204 5 306c-37 -62 -91 -179 -114 -233h-99c-22 53 -73 169 -108 229
c-2 -101 1 -245 6 -302h-124c8 92 8 305 0 397c42 -6 146 -6 186 0c14 -34 60 -159 90 -210c31 51 84 176 98 210c40 -6 142 -6 183 0c-8 -92 -8 -306 2 -397h-125z" />
    <glyph glyph-name="arrowleft" unicode="&#x2190;" horiz-adv-x="802" 
d="M802 422v-213c-143 15 -410 39 -560 51l304 -212l-140 -140l-406 408l406 406l140 -141l-302 -207c150 10 415 32 558 48z" />
    <glyph glyph-name="arrowup" unicode="&#x2191;" horiz-adv-x="834" 
d="M824 396l-141 -141l-207 304c10 -150 32 -416 48 -559h-213c15 142 39 409 51 559l-212 -304l-140 140l408 407z" />
    <glyph glyph-name="arrowright" unicode="&#x2192;" horiz-adv-x="832" 
d="M426 701l406 -408l-405 -406l-141 141l304 207c-150 -10 -416 -32 -559 -48l-1 213c142 -16 409 -40 559 -51l-303 212z" />
    <glyph glyph-name="arrowdown" unicode="&#x2193;" horiz-adv-x="834" 
d="M684 423l140 -140l-408 -406l-406 405l141 141l207 -304c-10 150 -32 416 -48 559l213 1c-16 -142 -40 -409 -51 -559z" />
    <glyph glyph-name="arrowboth" unicode="&#x2194;" horiz-adv-x="1362" 
d="M0 330l406 408l140 -140l-302 -210c110 10 282 27 437 27c172 0 333 -17 436 -27l-301 210l140 140l406 -408l-405 -406l-141 141l302 205c-105 -9 -257 -26 -437 -26c-157 0 -325 17 -437 26l302 -205l-141 -141z" />
    <glyph glyph-name="arrowupdn" unicode="&#x2195;" horiz-adv-x="844" 
d="M421 -162l-406 311l141 118l205 -239c-10 81 -26 196 -26 333c0 119 17 246 26 332l-205 -239l-141 118l406 311l408 -311l-140 -118l-210 239c10 -84 27 -214 27 -332c0 -131 -16 -253 -26 -332l209 238l140 -117z" />
    <glyph glyph-name="uni2196" unicode="&#x2196;" horiz-adv-x="703" 
d="M703 107l-150 -151c-90 112 -262 318 -360 432l65 -365h-198l1 576h574v-199l-361 68c113 -99 317 -271 429 -361z" />
    <glyph glyph-name="uni2197" unicode="&#x2197;" horiz-adv-x="703" 
d="M67 615l576 -1v-574h-199l68 361c-99 -113 -271 -317 -361 -429l-151 150c112 90 318 262 432 360l-365 -65v198z" />
    <glyph glyph-name="uni2198" unicode="&#x2198;" horiz-adv-x="678" 
d="M420 585h198l-1 -576h-574v199l361 -68c-113 99 -317 271 -429 361l150 151c90 -112 262 -318 360 -432z" />
    <glyph glyph-name="uni2199" unicode="&#x2199;" horiz-adv-x="703" 
d="M703 487c-112 -90 -318 -262 -432 -360l365 65v-198l-576 1v574h199l-68 -361c99 113 271 317 361 429z" />
    <glyph glyph-name="partialdiff" unicode="&#x2202;" horiz-adv-x="650" 
d="M323 -25c-188 0 -288 123 -288 285c0 175 106 289 264 289c147 0 206 -121 223 -203h16c0 255 -232 377 -386 383v85c359 -23 463 -288 463 -488c0 -162 -65 -351 -292 -351zM326 55c68 0 191 44 191 201c0 132 -92 209 -200 209c-105 0 -192 -77 -192 -205
s92 -205 201 -205z" />
    <glyph glyph-name="emptyset" unicode="&#x2205;" horiz-adv-x="914" 
d="M874 708l-90 -86c55 -66 86 -152 86 -250c0 -231 -172 -394 -414 -394c-104 0 -195 30 -265 82l-101 -95l-50 47l100 94c-63 69 -99 160 -99 266c0 230 172 392 415 392c111 0 208 -34 280 -94l88 84zM117 372c0 -85 28 -158 78 -213l485 459c-58 46 -135 73 -224 73
c-199 0 -339 -132 -339 -319zM793 372c0 77 -24 144 -65 197l-482 -456c56 -40 128 -62 210 -62c197 0 337 133 337 321z" />
    <glyph glyph-name="product" unicode="&#x220f;" horiz-adv-x="600" 
d="M575 647l-96 3c-7 -176 -6 -507 2 -650h-93c6 152 7 477 1 652h-206c-10 -178 -7 -509 2 -652h-93c6 151 7 475 1 650l-98 -3c5 26 5 64 0 87c165 -7 414 -7 580 0c-5 -23 -5 -61 0 -87z" />
    <glyph glyph-name="summation" unicode="&#x2211;" horiz-adv-x="600" 
d="M21 75l281 314l-281 327c5 29 5 59 0 88c152 -7 345 -7 500 0c-4 -19 -4 -68 0 -88c-130 6 -280 7 -396 3l285 -330l-285 -317c139 -4 266 -3 396 3c-4 -20 -4 -69 0 -88c-155 7 -348 7 -500 0c5 29 5 59 0 88z" />
    <glyph glyph-name="minus" unicode="&#x2212;" horiz-adv-x="570" 
d="M525 404c-5 -23 -5 -61 0 -87c-165 7 -315 7 -480 0c5 26 5 64 0 87c165 -7 314 -7 480 0z" />
    <glyph glyph-name="radical" unicode="&#x221a;" horiz-adv-x="636" 
d="M160 -30c-42 126 -109 310 -160 436c27 -5 71 -6 98 -1c26 -96 80 -249 114 -345c85 251 165 502 240 753c71 -3 143 -3 234 0c-5 -25 -5 -63 0 -88c-75 3 -111 3 -166 0c-88 -256 -171 -499 -249 -755h-111z" />
    <glyph glyph-name="infinity" unicode="&#x221e;" horiz-adv-x="1082" 
d="M818 561c131 0 236 -84 236 -236c0 -134 -94 -253 -236 -253c-127 0 -198 79 -278 187c-77 -114 -150 -187 -267 -187c-160 0 -245 119 -245 253c0 144 105 236 236 236c104 0 184 -55 276 -172c75 106 176 172 278 172zM273 151c102 0 168 91 221 170c0 1 -1 2 -2 3
c-60 75 -121 159 -219 159c-94 0 -159 -63 -159 -158c0 -110 68 -174 159 -174zM809 151c90 0 157 63 157 174c0 103 -64 158 -157 158s-160 -76 -221 -157c0 -1 1 -1 1 -2c56 -73 114 -173 220 -173z" />
    <glyph glyph-name="integral" unicode="&#x222b;" horiz-adv-x="333" 
d="M-50 -222c5 19 7 54 0 81c16 -8 53 -20 82 -20c53 0 96 31 96 162l1 604c0 157 99 207 164 207c41 0 63 -8 90 -17c-5 -19 -7 -54 0 -81c-16 8 -53 20 -82 20c-53 0 -96 -31 -96 -162l-1 -604c0 -157 -99 -207 -164 -207c-41 0 -63 8 -90 17z" />
    <glyph glyph-name="approxequal" unicode="&#x2248;" horiz-adv-x="600" 
d="M78 382c-5 70 38 166 133 166c103 0 127 -91 193 -91c42 0 56 41 58 78h74c5 -70 -38 -166 -129 -166c-107 0 -131 91 -197 91c-42 0 -56 -41 -58 -78h-74zM78 181c-5 70 38 166 133 166c103 0 127 -96 193 -96c42 0 56 44 58 83h74c5 -70 -38 -166 -129 -166
c-107 0 -131 96 -197 96c-42 0 -56 -44 -58 -83h-74z" />
    <glyph glyph-name="notequal" unicode="&#x2260;" horiz-adv-x="600" 
d="M580 403c-63 3 -126 4 -189 5l-72 -123c87 0 174 2 261 5c-6 -23 -6 -61 0 -87c-100 4 -202 6 -304 5c-23 -41 -45 -82 -67 -124l-68 39c17 28 35 56 52 84c-48 -1 -96 -2 -143 -4c6 26 6 64 0 87c63 -3 126 -4 190 -5c24 41 48 82 71 123c-87 0 -175 -2 -261 -5
c6 26 6 64 0 87c101 -4 203 -6 304 -5c23 41 45 82 67 123l68 -39c-17 -28 -34 -55 -51 -83c47 1 95 2 142 4c-6 -23 -6 -61 0 -87z" />
    <glyph glyph-name="lessequal" unicode="&#x2264;" horiz-adv-x="600" 
d="M544 590v-93c-123 -25 -264 -61 -386 -92c124 -33 268 -70 386 -97v-94c-147 54 -323 104 -476 150c5 33 5 60 0 93c151 41 324 85 476 133zM65 154c166 -7 315 -7 480 0c-5 -23 -5 -61 0 -87c-165 7 -315 7 -480 0c5 26 5 64 0 87z" />
    <glyph glyph-name="greaterequal" unicode="&#x2265;" horiz-adv-x="600" 
d="M66 590c152 -48 325 -92 476 -133c-5 -33 -5 -60 0 -93c-153 -46 -329 -96 -476 -150v94c118 27 262 64 386 97c-122 31 -263 67 -386 92v93zM545 154c-5 -23 -5 -61 0 -87c-165 7 -315 7 -480 0c5 26 5 64 0 87c165 -7 314 -7 480 0z" />
    <glyph glyph-name="lozenge" unicode="&#x25ca;" horiz-adv-x="581" 
d="M50 308c72 128 138 261 200 394c33 -5 60 -5 93 0c56 -131 122 -262 188 -394c-66 -132 -132 -263 -188 -394c-33 5 -60 5 -93 0c-62 133 -128 266 -200 394zM148 308c41 -99 95 -200 146 -304c49 102 101 201 140 304c-39 103 -91 202 -140 304
c-51 -104 -105 -205 -146 -304z" />
    <glyph glyph-name="i.loclTRK" horiz-adv-x="303" 
d="M143 622c-76 0 -114 24 -114 77c0 52 38 77 114 77c83 0 124 -25 124 -77c0 -53 -41 -77 -124 -77zM45 540c73 -13 143 -15 213 0c-16 -186 -16 -354 0 -540h-213c16 184 16 352 0 540z" />
    <glyph glyph-name="uni0308.case" 
d="M-453 832c-67 0 -102 21 -102 70c0 47 35 70 102 70c75 0 111 -23 111 -70c0 -49 -36 -70 -111 -70zM-151 832c-67 0 -102 21 -102 70c0 47 35 70 102 70c75 0 111 -23 111 -70c0 -49 -36 -70 -111 -70z" />
    <glyph glyph-name="uni0307.case" 
d="M-164 827c-76 0 -114 24 -114 77c0 52 38 77 114 77c83 0 124 -25 124 -77c0 -53 -41 -77 -124 -77z" />
    <glyph glyph-name="gravecomb.case" 
d="M-224 836c-60 43 -173 114 -249 166c49 -10 212 -10 261 0c35 -54 90 -125 132 -166c-23 2 -121 2 -144 0z" />
    <glyph glyph-name="acutecomb.case" 
d="M-393 836c42 41 92 112 132 166c49 -10 212 -10 261 0c-81 -52 -189 -123 -249 -166c-23 3 -121 3 -144 0z" />
    <glyph glyph-name="uni030B.case" 
d="M-573 838c38 45 89 118 116 163c38 -5 140 -5 178 0c-51 -45 -122 -118 -159 -163c-24 2 -106 2 -135 0zM-317 838c37 45 88 118 115 163c38 -5 141 -5 178 0c-48 -45 -122 -118 -159 -163c-24 2 -106 2 -134 0z" />
    <glyph glyph-name="uni0302.case" 
d="M-571 842c76 61 125 98 185 159c54 -3 113 -3 163 0c63 -60 114 -97 193 -159c-60 5 -124 5 -187 0c-29 36 -51 64 -85 94c-32 -30 -52 -58 -79 -94c-61 5 -131 5 -190 0z" />
    <glyph glyph-name="uni030C.case" 
d="M-562 1001c59 -5 129 -5 190 0c27 -36 47 -64 79 -94c34 30 56 58 85 94c63 -5 127 -5 187 0c-79 -62 -130 -99 -193 -159c-50 3 -109 3 -163 0c-60 61 -109 98 -185 159z" />
    <glyph glyph-name="uni0306.case" 
d="M-265 830c-139 0 -229 72 -229 171h135c0 -42 31 -74 94 -74c65 0 96 32 96 74h144c0 -105 -105 -171 -240 -171z" />
    <glyph glyph-name="uni030A.case" 
d="M-198 806c-102 0 -160 43 -160 120c0 76 58 121 160 121c100 0 158 -43 158 -121c0 -77 -58 -120 -158 -120zM-198 872c46 0 72 19 72 53c0 35 -26 55 -72 55s-73 -20 -73 -55c0 -34 27 -53 73 -53z" />
    <glyph glyph-name="tildecomb.case" 
d="M-210 853c-98 0 -166 41 -273 41c-41 0 -91 -6 -135 -42c1 7 3 14 4 21c16 78 50 142 168 142c96 0 156 -41 267 -41c36 0 90 4 139 41c-1 -6 -2 -13 -4 -19c-16 -75 -49 -143 -166 -143z" />
    <glyph glyph-name="uni0304.case" 
d="M-555 845c5 26 5 81 0 107c146 -7 369 -7 520 0c-5 -26 -5 -81 0 -107c-150 7 -374 7 -520 0z" />
    <glyph glyph-name="uni0327.case" 
d="M-256 -253c-86 0 -156 12 -233 50c6 29 6 58 0 85c63 -41 141 -62 218 -62c66 0 99 13 99 42c0 31 -41 48 -170 48l31 99h99l-27 -79c150 9 199 -34 199 -86c0 -59 -64 -97 -216 -97z" />
    <glyph glyph-name="uni0328.case" 
d="M-66 11l15 -11c-94 -10 -160 -27 -160 -77c0 -49 55 -64 94 -66l3 -112c-138 -18 -251 43 -251 152c0 119 144 138 299 114z" />
    </font>
</defs>
</svg>
