<?xml version="1.0" encoding="utf-8"?>
<!-- Generator: Adobe Illustrator 26.0.2, SVG Export Plug-In . SVG Version: 6.00 Build 0)  -->
<svg version="1.1" id="Calque_1" xmlns="http://www.w3.org/2000/svg" xmlns:xlink="http://www.w3.org/1999/xlink" x="0px" y="0px"
	 viewBox="0 0 256 146" style="enable-background:new 0 0 256 146;" xml:space="preserve">
<style type="text/css">
	.st0{fill:#2E1E08;}
</style>
<g>
	<path class="st0" d="M72.2,0c39.9,0,72.2,32.5,72.2,72.7s-32.3,72.7-72.2,72.7S0,112.8,0,72.7S32.3,0,72.2,0z M187.5,4.3
		c19.9,0,36.1,30.6,36.1,68.4h0c0,37.8-16.2,68.4-36.1,68.4s-36.1-30.6-36.1-68.4S167.6,4.3,187.5,4.3z M243.3,11.4
		c7,0,12.7,27.4,12.7,61.3c0,33.9-5.7,61.3-12.7,61.3s-12.7-27.5-12.7-61.3S236.3,11.4,243.3,11.4z"/>
</g>
</svg>
