<?xml version="1.0" encoding="utf-8"?>
<!-- Generator: Adobe Illustrator 24.1.0, SVG Export Plug-In . SVG Version: 6.00 Build 0)  -->
<svg version="1.1" id="Calque_1" xmlns="http://www.w3.org/2000/svg" xmlns:xlink="http://www.w3.org/1999/xlink" x="0px" y="0px"
	 viewBox="0 0 64 62" style="enable-background:new 0 0 64 62;" xml:space="preserve">
<path d="M41.4,51.4l18-18c0.2-0.2,0.4-0.5,0.5-0.9c0.2-0.7,0-1.5-0.5-2l-18-18c-0.8-0.8-2.1-0.8-2.8,0c-0.8,0.8-0.8,2,0,2.8L53.2,30
	H6c-1.1,0-2,0.9-2,2c0,1.1,0.9,2,2,2h47.2L38.6,48.6c-0.8,0.8-0.8,2.1,0,2.8C39.4,52.2,40.6,52.2,41.4,51.4z"/>
</svg>
