<?xml version="1.0" encoding="utf-8"?>
<!-- Generator: Adobe Illustrator 24.1.0, SVG Export Plug-In . SVG Version: 6.00 Build 0)  -->
<svg version="1.1" id="Calque_1" xmlns="http://www.w3.org/2000/svg" xmlns:xlink="http://www.w3.org/1999/xlink" x="0px" y="0px"
	 viewBox="0 0 64 62" style="enable-background:new 0 0 64 62;" xml:space="preserve">
<path d="M22.6,12.5l-18,18c-0.2,0.2-0.4,0.5-0.5,0.9c-0.2,0.7,0,1.5,0.5,2l18,18c0.8,0.8,2.1,0.8,2.8,0c0.8-0.8,0.8-2,0-2.8
	L10.8,33.9H58c1.1,0,2-0.9,2-2c0-1.1-0.9-2-2-2H10.8l14.6-14.6c0.8-0.8,0.8-2.1,0-2.8C24.6,11.7,23.4,11.7,22.6,12.5z"/>
</svg>
