<svg xmlns="http://www.w3.org/2000/svg" width="1920" height="2555.08" viewBox="0 0 1920 2555.08"><defs><style>.cls-1{fill:none;stroke:#5c5c5c;stroke-miterlimit:10;fill-rule:evenodd;}</style></defs><g id="Calque_2" data-name="Calque 2"><path class="cls-1" d="M-238.65,30.06C188-151.2,299.83-155.83,319.48-123.33,345.68-80,193.8,6.38,114.56,236.1,55.82,406.41,105.36,457.38,38,583.42c-100.53,188.2-289.35,221.3-276.69,259,18.71,55.7,450.05,42,527.29-147,57.09-139.65-130-250.73-74-406.37C260.82,160.79,400.83,200.45,697.36,0c173.85-117.52,228.58-200.67,321-181.57S1202.55-49,1182.79,34.26c-38.4,161.93-459.9,47.33-662,301.91-149.33,188.08,2.35,349.3-146.47,547.71-200.17,266.87-627.42,178.94-654.14,341.21-12,73,62.72,162.71,136.84,179.52,99.81,22.63,154.47-96.86,298.78-156,161.43-66.12,247.79,20,541.59,58.87,188.7,25,351.46,6.83,677-29.43,311.33-34.68,468.56-53.57,545.65-129.51,188.76-186,174.27-579.19,0-741.74-63.62-59.35-174.94-112.58-227.76-76.53-23.77,16.22-28.18,45.39-41.21,170.72-19.9,191.3-17.58,199.81-23.55,229.58C1595.9,888.23,1463.29,988,1445,1001.39c-220.53,161.34-641.88,89.81-769.22-162-69.63-137.7-57.64-341.71,51-444.3,57.81-54.58,121.94-60.58,214.82-76.73,504.71-87.76,601.75-256.86,837.2-181.47,121.39,38.87,196.11,116,239.88,161.21,257.46,265.82,329.44,769.27,109.16,1033-164.41,196.84-447.91,207.8-859.48,223.7C873.89,1570,784,1488.61,479.55,1566.52c-334.81,85.69-489.48,251.54-542,314.28C-178.56,2019.53-259.21,2208.46-215,2247.37c56.31,49.51,232.48-216.27,547.34-233.45,236.2-12.88,363.25,124.35,465.06,47.1,109.08-82.78,1.87-269.66,104.43-361.79,120.45-108.19,338.28,86.65,731.5,108.65,391.62,21.92,626.38-146.12,647.55-100.07,26.1,56.77-302.9,373.2-642.49,334-208.72-24.09-271.63-165.23-416.8-127.27-195.38,51.08-157.42,326.58-371.21,417.26-157,66.58-225.75-61.46-578.91-53.61-170.35,3.79-315.79,10-414.52,113.06-136.35,142.33-98.33,400.95-65.1,407.67,31.23,6.32,38.09-213.74,195.28-298,62.73-33.64,123.35-31.7,373.42,13.71,354.36,64.35,428.77,96.07,491,88,13.12-1.71,21.51-5.09,36.61-9.2,327.94-89.3,389.72-276.36,563.83-283.94,162-7.05,195.2,151.17,357.73,140.06,135.61-9.27,237.91-128,301.47-222.68"/></g></svg>