<svg xmlns="http://www.w3.org/2000/svg" width="1920" height="2555.08" viewBox="0 0 1920 2555.08"><defs><style>.cls-1{fill:none;stroke:#5c5c5c;stroke-miterlimit:10;fill-rule:evenodd;}</style></defs><g id="Calque_2" data-name="Calque 2"><path class="cls-1" d="M-101.12,246.67c28-50.49,191.85-335.06,483-370,19.81-2.37,135.45-16.25,147.32,17.13C551.16-44.52,178.18,64.3-66.86,407.68-129,494.82-245,657.24-190.19,750.27c71.74,121.88,427.39,109.23,541.28-54.82,93.1-134.09-43.75-270.83,51.39-404.25C507.46,144,716,251.72,892.38,78.8c120.54-118.18,110.88-254.52,188.42-260.37,75.92-5.72,181.55,117.71,164.44,215.83C1219,184.87,929.31,128,710.81,356.29,513.37,562.54,623.05,741.42,436.74,883.88c-216.65,165.65-476.17,8.81-582.4,164.44-79.12,115.91-22.3,327.5,65.09,356.29,107.51,35.41,191.71-228.9,452.22-277.5,73.32-13.67,90.93,2.73,356.29,58.24,307.94,64.42,462.14,101.64,606.37,92.5,232.32-14.72,397.17-25.17,513.88-157.59,131.33-149,159.52-404.49,41.11-585.82C1781,368.51,1557.56,249.34,1443.94,315.18c-43.58,25.26-78.9,82.28-78.79,137,.15,76.89,70,98.77,92.5,178.14,28.23,99.78-40.79,211.62-92.5,263.79C1199.94,1060.82,820,1013.28,738.21,839.34,650.11,652,937.55,380.6,981.45,339.16c47.51-44.84,326.2-307.93,705.73-243.23,65.14,11.1,253,45.83,394,202.12,249,276.11,207.22,771.61-30.83,996.93-139.72,132.25-347.8,143-764,164.44-543.58,28-707.28-93.47-949,54.82C177.55,1612.31,73,1770.37,0,1880.8c-64.53,97.59-205.15,310.24-152.51,366.57,62.94,67.35,375.8-117,729.71-325.46,275.24-162.15,271.17-182.72,387.12-222.68,268.64-92.59,362.13-6.85,664.62-75.37,347-78.59,473.26-247.87,524.16-198.7,85,82.13-192,627.11-452.22,616.66-126.67-5.09-156.17-134.08-308.33-147.31-146.52-12.75-186.87,109.58-414.53,233C844.24,2200,672.86,2223.6,334,2278.2,68.33,2321-7.71,2315.2-80.57,2391.26c-136.34,142.33-98.32,400.95-65.09,407.67,31.22,6.32,38.08-213.74,195.28-298,62.72-33.64,123.35-31.7,373.41,13.71,422.82,76.77,447.08,107.11,527.59,78.79,205.31-72.22,171.79-313.23,346-356.29C1495.4,2188,1631.7,2478.8,1872.17,2449.5c138-16.82,238.52-130.35,301.48-222.68"/></g></svg>