<?xml version="1.0" encoding="UTF-8"?>
<svg width="1417px" height="1009px" viewBox="0 0 1417 1009" version="1.1" xmlns="http://www.w3.org/2000/svg" xmlns:xlink="http://www.w3.org/1999/xlink">
    <title>Group 2</title>
    <g id="version_lite" stroke="none" stroke-width="1" fill="none" fill-rule="evenodd">
        <g id="Desktop" transform="translate(137.000000, 132.000000)" stroke="#E8E8E8">
            <g id="Group-2" transform="translate(-136.561900, -130.722980)">
                <path d="M0,430.272308 C250.511773,98.4058633 431.285558,-41.4856362 542.321356,10.5978102 C708.875054,88.7229797 -5.02630741,501.932735 57.1758191,651.371567 C119.377946,800.810399 568.215191,1214.87781 1003.37133,876.330319 C1438.52747,537.782825 1471.93783,442.066845 1362.45018,273.216792 C1309.6459,191.782893 1131.68739,141.94287 971.174227,169.22298 C798.869531,198.507126 646.346261,312.39771 680.5619,442.066845 C746.65166,692.531315 257.637955,608.329455 366.097091,806.145931 C473.073553,1001.25819 628.392533,966.891371 602.906483,879.974104 C602.553251,878.769446 602.165287,877.554694 601.741982,876.330319 C570.776759,786.765984 606.567503,699.035407 680.5619,666.391673 C754.556298,633.747939 907.898012,638.44729 1023.22996,578.690297 C1138.5619,518.933304 1284.53581,421.444546 1300.35156,346.758387 C1316.1673,272.072229 1335.63134,230.000028 1192.5619,73.7229797 C1049.49246,-82.5540686 384.739617,206.319603 441.909167,410.150738 C480.022201,546.038161 355.081053,640.228908 67.0857253,692.72298" id="Path-2"></path>
                <ellipse id="Oval" transform="translate(1067.061900, 356.222980) rotate(-15.000000) translate(-1067.061900, -356.222980) " cx="1067.0619" cy="356.22298" rx="206" ry="107"></ellipse>
            </g>
        </g>
    </g>
</svg>