<svg xmlns="http://www.w3.org/2000/svg" width="1920" height="2555.08" viewBox="0 0 1920 2555.08"><defs><style>.cls-1{fill:none;stroke:#5c5c5c;stroke-miterlimit:10;fill-rule:evenodd;}</style></defs><g id="Calque_2" data-name="Calque 2"><path class="cls-1" d="M-279.27,30.06c160.34-86.91,477-244.39,558.13-153.39,30.41,34.1,15.19,89-46.66,290.36C68.6,699.66,40.92,752.63,0,754.45c-110.51,4.95-165.3-369.87-246.27-360-66.6,8.09-149,276.19-33,448,136.56,202.19,502,203.1,606.21,68.35C439.14,765.7,185.76,544.49,308,280.72,394.19,94.74,607.39,16.51,656.74,0,803.23-49,928.62-30.15,976-22.47c67.53,11,163.65,26.55,166.21,56.73,6,70-506.88,38-662,301.91-139.31,236.94,137.77,494.6,3.14,688.31-169.65,244.09-755.76,45.36-803.75,200.61-19.56,63.26,57.38,162.23,136.83,179.52,104.6,22.75,158-108.12,298.79-156,222.06-75.47,341.58,164.34,576.57,154.84C1056.5,1388.72,1168.81,794.66,1463.9,816c214,15.5,275.59,360.23,415.48,332.52,128.45-25.45,215.47-340.38,134.07-582.84-13.14-39.13-85.33-254.15-268-299.9-97-24.3-186.25,8.87-215.23,19.64C1423.93,325,1363,396.56,1340.73,427.58c-65.81,91.55-71.19,151.48-99.48,208.44-102.32,206-480.1,324.58-606.1,203.32-92-88.49-57.87-312.44,51-444.3,30-36.28,78.43-81.14,360.84-166.43C1390.24,125,1565.39,74.4,1738.2,136.84c127.26,46,206.11,126.13,239.88,161.21,268.75,279.16,331.11,826.85,109.16,1033-224.66,208.67-548.85-110.75-959.69,134C986,1549.38,875.19,1676.24,696.46,1659.28c-123.51-11.71-135.21-78.42-257.53-92.76-276.15-32.36-510.45,273.14-542,314.28-119.47,155.78-183.58,346.94-152.51,366.57,55.34,35,338.9-520.86,615.69-474.39,197.51,33.16,242.67,348,393.19,336.35,134-10.39,113.61-261.22,326.88-397.94,78.82-50.52,140.92-54.29,720.07-37.89,379.08,10.73,437.23,14.74,440.05,34.31,6.31,43.77-266,153.83-563.22,178.87s-394.7-53.91-496.07,27.87c-171.76,138.55-18.7,467.24-148.2,540.61-149,84.41-380.78-334.29-772.19-312.67-180.54,10-351.44,111.22-444.26,248.77-113,167.49-111.2,390.18-65.09,407.67C-211.16,2813.19-169,2681.84,0,2555.08c72.17-54.14,186.84-140.14,331.68-147.3,104.37-5.15,148.68,34.37,479.26,194.8,286.33,138.94,321.2,142.34,354.51,127.34,146.6-66,19.64-379,217.92-554.27,146.89-129.88,371.63-95.23,402.67-90,149,25.07,246.31,105.69,284.54,141.18"/></g></svg>