<?xml version="1.0" encoding="utf-8"?>
<!-- Generator: Adobe Illustrator 26.0.2, SVG Export Plug-In . SVG Version: 6.00 Build 0)  -->
<svg version="1.1" id="Calque_1" xmlns="http://www.w3.org/2000/svg" xmlns:xlink="http://www.w3.org/1999/xlink" x="0px" y="0px"
	 viewBox="0 0 269.8 268.2" style="enable-background:new 0 0 269.8 268.2;" xml:space="preserve">
<style type="text/css">
	.st0{fill:#2E1E08;}
</style>
<g id="Calque_2_00000017479297037899739950000015646595652350462350_">
	<g id="Calque_2-2">
		<polygon class="st0" points="123.2,36.5 25.5,36.5 25.5,0 0,0 0,98.5 25.5,98.5 25.5,62 123.2,62 		"/>
		<polygon class="st0" points="269.8,73 172.3,73 172.3,0 146.8,0 146.8,73 146.8,73 146.8,98.5 146.8,98.5 146.8,98.5 172.3,98.5 
			172.3,98.5 269.8,98.5 		"/>
		<rect x="0.1" y="121.8" class="st0" width="123.6" height="25.5"/>
		<rect x="25.6" y="183" class="st0" width="72.6" height="25.5"/>
		<rect x="0.1" y="242.5" class="st0" width="123.6" height="25.5"/>
		
			<rect x="190.2" y="101.6" transform="matrix(0.7736 -0.6337 0.6337 0.7736 -75.0825 171.8257)" class="st0" width="25.5" height="178.8"/>
	</g>
</g>
</svg>
