<svg xmlns="http://www.w3.org/2000/svg" width="8248.43" height="2985.3" viewBox="0 0 8248.43 2985.3"><defs><style>.cls-1{fill:none;stroke:#5c5c5c;stroke-miterlimit:10;fill-rule:evenodd;}</style></defs><g id="Calque_2" data-name="Calque 2"><path class="cls-1" d="M-69.62,66.71C-59.3,48.14,1-56.54,108.06-69.39c7.29-.87,49.83-6,54.19,6.3C170.32-40.4,33.12-.37-57,125.94c-22.87,32.05-65.5,91.8-45.36,126C-76,296.79,54.83,292.13,96.72,231.79c34.25-49.32-16.09-99.62,18.91-148.7C154.24,28.94,231,68.57,295.83,5c44.34-43.47,40.79-93.62,69.31-95.77,27.92-2.1,66.78,43.3,60.48,79.39C416,44,309.41,23.08,229,107,156.41,182.9,196.76,248.7,128.23,301.1,48.54,362-46.92,304.34-86,361.59c-29.1,42.63-8.2,120.47,23.94,131.05,39.55,13,70.52-84.19,166.34-102.07,27-5,33.45,1,131.06,21.42,113.27,23.7,170,37.39,223.05,34,85.45-5.42,146.09-9.26,189-58,48.31-54.8,58.68-148.79,15.12-215.49-39.85-61-122-104.86-163.82-80.65-16,9.29-29,30.27-29,50.41.06,28.28,25.76,36.33,34,65.53,10.39,36.7-15,77.84-34,97C409,366.19,269.2,348.7,239.12,284.72c-32.41-68.93,73.33-168.74,89.47-184,17.48-16.5,120-113.27,259.59-89.48,24,4.09,93.08,16.86,144.92,74.35,91.59,101.57,76.22,283.83-11.34,366.71-51.39,48.65-127.93,52.59-281,60.49C240.8,523.12,180.58,478.42,91.68,533,32.89,569-5.56,627.18-32.42,667.81c-23.74,35.89-75.46,114.11-56.1,134.83,23.15,24.78,138.23-43,268.41-119.71,101.25-59.65,99.75-67.21,142.4-81.91C421.11,567,455.5,598.5,566.76,573.29c127.64-28.91,174.09-91.17,192.81-73.09C790.83,530.41,688.94,730.88,593.23,727c-46.6-1.87-57.45-49.31-113.42-54.18-53.9-4.69-68.74,40.3-152.48,85.69C278.12,785.21,215.08,793.9,90.42,814c-97.7,15.75-125.68,13.61-152.48,41.59-50.15,52.35-36.16,147.48-23.94,150,11.49,2.32,14-78.62,71.83-109.64,23.07-12.37,45.37-11.66,137.36,5,155.52,28.25,164.45,39.41,194.06,29,75.52-26.57,63.19-115.22,127.28-131.06,73.11-18.07,123.25,88.91,211.7,78.13C707,870.8,744,829.05,767.13,795.08" transform="translate(108.14 184.8)"/><path class="cls-1" d="M2646.88,30.06C3073.5-151.2,3185.36-155.83,3205-123.33,3231.21-80,3079.32,6.38,3000.09,236.1c-58.74,170.31-9.2,221.28-76.53,347.32-100.52,188.2-289.35,221.3-276.68,259,18.71,55.7,450,42,527.29-147,57.08-139.65-130-250.73-74-406.37C3146.35,160.79,3286.36,200.45,3582.89,0c173.85-117.52,228.58-200.67,321-181.57S4088.08-49,4068.32,34.26c-38.41,161.93-459.9,47.33-662,301.91-149.32,188.08,2.36,349.3-146.46,547.71-200.17,266.87-627.42,178.94-654.15,341.21-12,73,62.73,162.71,136.84,179.52,99.82,22.63,154.48-96.86,298.79-156,161.43-66.12,247.79,20,541.59,58.87,188.7,25,351.46,6.83,677-29.43,311.32-34.68,468.56-53.57,545.65-129.51,188.76-186,174.27-579.19,0-741.74-63.62-59.35-174.95-112.58-227.77-76.53-23.77,16.22-28.17,45.39-41.2,170.72-19.9,191.3-17.59,199.81-23.55,229.58-31.58,157.64-164.19,257.4-182.49,270.8-220.53,161.34-641.88,89.81-769.23-162-69.62-137.7-57.63-341.71,51-444.3,57.82-54.58,121.95-60.58,214.83-76.73,504.71-87.76,601.75-256.86,837.2-181.47,121.39,38.87,196.1,116,239.88,161.21,257.46,265.82,329.43,769.27,109.16,1033-164.41,196.84-447.91,207.8-859.48,223.7-394.49,15.24-484.39-66.14-788.83,11.77-334.82,85.69-489.48,251.54-542,314.28-116.12,138.73-196.76,327.66-152.51,366.57,56.3,49.51,232.48-216.27,547.34-233.45C3454.1,2001,3581.16,2138.27,3683,2061c109.08-82.78,1.86-269.66,104.43-361.79,120.44-108.19,338.28,86.65,731.5,108.65,391.62,21.92,626.38-146.12,647.55-100.07,26.1,56.77-302.9,373.2-642.49,334-208.72-24.09-271.63-165.23-416.81-127.27-195.38,51.08-157.41,326.58-371.2,417.26-157,66.58-225.76-61.46-578.91-53.61-170.35,3.79-315.79,10-414.53,113.06-136.34,142.33-98.32,400.95-65.09,407.67,31.22,6.32,38.08-213.74,195.28-298,62.72-33.64,123.35-31.7,373.41,13.71,354.37,64.35,428.78,96.07,491,88,13.12-1.71,21.51-5.09,36.61-9.2,327.94-89.3,389.71-276.36,563.82-283.94,162-7.05,195.21,151.17,357.73,140.06,135.62-9.27,237.92-128,301.48-222.68" transform="translate(108.14 184.8)"/><path class="cls-1" d="M5620.12,30.06c160.34-86.91,476.95-244.39,558.12-153.39,30.42,34.1,15.19,89-46.66,290.36C5968,699.66,5940.31,752.63,5899.39,754.45c-110.51,4.95-165.3-369.87-246.28-360-66.6,8.09-149,276.19-33,448,136.56,202.19,502,203.1,606.21,68.35,112.2-145.09-141.19-366.3-18.95-630.07C6293.57,94.74,6506.77,16.51,6556.13,0,6702.62-49,6828-30.15,6875.34-22.47c67.54,11,163.65,26.55,166.22,56.73,5.95,70-506.88,38-662,301.91-139.3,236.94,137.77,494.6,3.14,688.31-169.64,244.09-755.75,45.36-803.75,200.61-19.56,63.26,57.38,162.23,136.84,179.52,104.6,22.75,158-108.12,298.79-156,222.06-75.47,341.58,164.34,576.56,154.84,364.79-14.75,477.1-608.81,772.19-587.43,222.63,16.13,294,364.07,415.48,332.52,132.48-34.43,125.85-492.09,0-741.74-42.7-84.69-87.66-122.86-133.94-141-81.77-32.07-164-.2-215.22,19.64-23.39,9.06-118,42.62-189.49,142.12-65.81,91.55-71.2,151.48-99.49,208.44-102.31,206-480.09,324.58-606.1,203.32-91.95-88.49-57.87-312.44,51-444.3,30-36.28,78.44-81.14,360.84-166.43C7289.63,125,7464.77,74.4,7637.58,136.84c127.27,46,206.12,126.13,239.89,161.21,268.74,279.16,331.1,826.85,109.16,1033-224.67,208.67-548.85-110.75-959.69,134-141.55,84.33-252.36,211.19-431.1,194.23-123.51-11.71-135.2-78.42-257.53-92.76-276.15-32.36-510.44,273.14-542,314.28-119.47,155.78-183.58,346.94-152.51,366.57,55.33,35,338.9-520.86,615.68-474.39,197.51,33.16,242.68,348,393.2,336.35,134-10.39,113.6-261.22,326.87-397.94,78.82-50.52,140.93-54.29,720.08-37.89,379.07,10.73,437.22,14.74,440,34.31,6.32,43.77-265.94,153.83-563.21,178.87s-394.71-53.91-496.08,27.87c-171.76,138.55-18.7,467.24-148.2,540.61-149,84.41-380.77-334.29-772.18-312.67-180.55,10-351.44,111.22-444.26,248.77-113,167.49-111.2,390.18-65.09,407.67,37.56,14.26,79.72-117.09,248.73-243.85,72.17-54.14,186.83-140.14,331.68-147.3,104.37-5.15,148.67,34.37,479.26,194.8,286.33,138.94,321.2,142.34,354.51,127.34,146.59-66,19.63-379,217.91-554.27,146.9-129.88,371.64-95.23,402.68-90,149,25.07,246.31,105.69,284.54,141.18" transform="translate(108.14 184.8)"/></g></svg>