<svg id="Calque_3" data-name="Calque 3" xmlns="http://www.w3.org/2000/svg" width="943.15" height="1097.46" viewBox="0 0 943.15 1097.46"><defs><style>.cls-1{fill:none;stroke:#5c5c5c;stroke-miterlimit:10;fill-rule:evenodd;}</style></defs><path class="cls-1" d="M-111.79-12.1C45-78.71,86.12-80.41,93.34-68.47,103-52.53,47.15-20.8,18,63.63-3.56,126.22,14.64,145-10.1,191.28-47,260.44-116.44,272.61-111.79,286.47c6.88,20.47,165.41,15.43,193.8-54,21-51.32-47.79-92.15-27.2-149.35C71.78,36,123.24,50.52,232.22-23.14c63.89-43.19,84-73.76,118-66.73s67.7,48.71,60.44,79.32c-14.12,59.51-169,17.39-243.32,111-54.88,69.12.87,128.37-53.83,201.29-73.57,98.08-230.59,65.77-240.41,125.4-4.42,26.85,23.05,59.8,50.29,66,36.69,8.32,56.78-35.6,109.81-57.32,59.33-24.31,91.07,7.35,199.05,21.63,69.35,9.17,129.17,2.51,248.81-10.82,114.42-12.74,172.2-19.68,200.54-47.59,69.37-68.35,64-212.87,0-272.61-23.39-21.81-64.3-41.37-83.71-28.13-8.74,6-10.36,16.69-15.15,62.75-7.31,70.3-6.46,73.43-8.65,84.38C562.45,303.3,513.72,340,507,344.89c-81.05,59.3-235.91,33-282.71-59.56C198.69,234.72,203.1,159.75,243,122c21.24-20.06,44.81-22.26,79-28.2C507.48,61.59,543.15-.56,629.68,27.15c44.61,14.29,72.07,42.64,88.16,59.25C812.46,184.09,838.91,369.12,758,466.05c-60.43,72.34-164.62,76.37-315.88,82.21-145,5.6-178-24.31-289.91,4.33C29.12,584.08-27.73,645-47,668.09c-42.67,51-72.31,120.43-56,134.73C-82.39,821-17.64,723.33,98.08,717c86.81-4.74,133.5,45.7,170.92,17.31,40.09-30.42.69-99.11,38.38-133,44.27-39.76,124.32,31.85,268.84,39.93,143.93,8.06,230.21-53.7,238-36.78,9.59,20.87-111.32,137.16-236.13,122.76-76.71-8.85-99.83-60.72-153.18-46.77-71.81,18.77-57.86,120-136.43,153.35-57.69,24.47-83-22.59-212.76-19.7C13.1,815.54-40.35,817.82-76.64,855.7c-50.11,52.31-36.14,147.36-23.92,149.83,11.47,2.32,14-78.56,71.77-109.54,23-12.37,45.33-11.65,137.24,5C238.68,924.67,266,936.33,288.89,933.36c4.82-.63,7.9-1.87,13.45-3.38,120.53-32.82,143.23-101.57,207.22-104.35C569.11,823,581.31,881.18,641,877.1c49.84-3.41,87.44-47,110.8-81.84" transform="translate(127.9 91.38)"/></svg>