<?xml version="1.0" encoding="UTF-8"?>
<svg width="64px" height="65px" viewBox="0 0 64 65" version="1.1" xmlns="http://www.w3.org/2000/svg" xmlns:xlink="http://www.w3.org/1999/xlink">
    <!-- Generator: Sketch 55.2 (78181) - https://sketchapp.com -->
    <title>Group 3</title>
    <desc>Created with Sketch.</desc>
    <defs>
        <polygon id="path-1" points="0 0 64 0 64 65 0 65"></polygon>
    </defs>
    <g id="Page-1" stroke="none" stroke-width="1" fill="none" fill-rule="evenodd">
        <g id="Desktop" transform="translate(-608.000000, -3549.000000)">
            <g id="Group-3" transform="translate(608.000000, 3549.000000)">
                <mask id="mask-2" fill="white">
                    <use xlink:href="#path-1"></use>
                </mask>
                <g id="Clip-2"></g>
                <path d="M52.9216,15.1515 C52.9216,17.3054375 51.2024,19.0519063 49.0816,19.0519063 C46.9612,19.0519063 45.2416,17.3054375 45.2416,15.1515 C45.2416,12.9975625 46.9612,11.2515 49.0816,11.2515 C51.2024,11.2515 52.9216,12.9975625 52.9216,15.1515 M32,43.3334688 C26.1092,43.3334688 21.3332,38.48325 21.3332,32.5 C21.3332,26.5171563 26.1092,21.6665313 32,21.6665313 C37.8912,21.6665313 42.6668,26.5171563 42.6668,32.5 C42.6668,38.48325 37.8912,43.3334688 32,43.3334688 M32,15.8108438 C22.9248,15.8108438 15.5676,23.283 15.5676,32.5 C15.5676,41.7174063 22.9248,49.1891563 32,49.1891563 C41.0756,49.1891563 48.4324,41.7174063 48.4324,32.5 C48.4324,23.283 41.0756,15.8108438 32,15.8108438 M32,0 C23.3096,0 22.2196,0.037375 18.8064,0.1958125 C15.4004,0.3534375 13.0744,0.90309375 11.0388,1.70625 C8.9344,2.536625 7.15,3.648125 5.3708,5.455125 C3.592,7.26171875 2.4976,9.074 1.68,11.2112812 C0.8888,13.2786875 0.348,15.6410312 0.1928,19.1006563 C0.0368,22.5667812 0,23.6738125 0,32.5 C0,41.3265937 0.0368,42.4332188 0.1928,45.89975 C0.348,49.3589687 0.8888,51.7217188 1.68,53.7887188 C2.4976,55.926 3.592,57.7382812 5.3708,59.5452812 C7.15,61.3522813 8.9344,62.463375 11.0388,63.29375 C13.0744,64.0973125 15.4004,64.6465625 18.8064,64.8045937 C22.2196,64.962625 23.3096,65 32,65 C40.6908,65 41.7804,64.962625 45.1936,64.8045937 C48.5996,64.6465625 50.926,64.0973125 52.9616,63.29375 C55.0656,62.463375 56.85,61.3522813 58.6292,59.5452812 C60.4084,57.7382812 61.5024,55.926 62.32,53.7887188 C63.1112,51.7217188 63.652,49.3589687 63.8076,45.89975 C63.9632,42.4332188 64,41.3265937 64,32.5 C64,23.6738125 63.9632,22.5667812 63.8076,19.1006563 C63.652,15.6410312 63.1112,13.2786875 62.32,11.2112812 C61.5024,9.074 60.4084,7.26171875 58.6292,5.455125 C56.85,3.648125 55.0656,2.536625 52.9616,1.70625 C50.926,0.90309375 48.5996,0.3534375 45.1936,0.1958125 C41.7804,0.037375 40.6908,0 32,0 M32,5.85609375 C40.5448,5.85609375 41.5564,5.889 44.9304,6.04540625 C48.0508,6.19003125 49.7452,6.719375 50.8728,7.164625 C52.3664,7.75409375 53.4324,8.458125 54.552,9.595625 C55.672,10.7327188 56.3652,11.815375 56.946,13.3323125 C57.384,14.4779375 57.9052,16.1984063 58.0476,19.3671563 C58.2016,22.7942813 58.234,23.8220938 58.234,32.5 C58.234,41.1779063 58.2016,42.206125 58.0476,45.6328438 C57.9052,48.8015938 57.384,50.5220625 56.946,51.6676875 C56.3652,53.184625 55.672,54.2672813 54.552,55.4047813 C53.4324,56.541875 52.3664,57.2463125 50.8728,57.835375 C49.7452,58.280625 48.0508,58.810375 44.9304,58.9545938 C41.5572,59.111 40.5452,59.1443125 32,59.1443125 C23.4552,59.1443125 22.4432,59.111 19.0692,58.9545938 C15.9492,58.810375 14.2552,58.280625 13.1276,57.835375 C11.6336,57.2463125 10.5676,56.541875 9.4476,55.4047813 C8.3284,54.2672813 7.6344,53.184625 7.0544,51.6676875 C6.616,50.5220625 6.0948,48.8015938 5.9524,45.6328438 C5.7984,42.206125 5.7656,41.1779063 5.7656,32.5 C5.7656,23.8220938 5.7984,22.7942813 5.9524,19.3675625 C6.0948,16.1984063 6.616,14.4779375 7.0544,13.3323125 C7.6344,11.815375 8.3284,10.7327188 9.4476,9.595625 C10.5676,8.458125 11.6336,7.75409375 13.1276,7.164625 C14.2552,6.719375 15.9492,6.19003125 19.0692,6.04540625 C22.4436,5.889 23.4556,5.85609375 32,5.85609375" id="Fill-1" fill="#E74F59" mask="url(#mask-2)"></path>
            </g>
        </g>
    </g>
</svg>