<?xml version="1.0" encoding="utf-8"?>
<!-- Generator: Adobe Illustrator 24.1.0, SVG Export Plug-In . SVG Version: 6.00 Build 0)  -->
<svg version="1.1" id="Calque_1" xmlns="http://www.w3.org/2000/svg" xmlns:xlink="http://www.w3.org/1999/xlink" x="0px" y="0px"
	 viewBox="0 0 126.9 109.3" style="enable-background:new 0 0 126.9 109.3;" xml:space="preserve">
<style type="text/css">
	.st0{fill:none;stroke:#003F39;stroke-width:1.2;stroke-miterlimit:10;}
</style>
<g id="Calque_1-2">
	<polygon class="st0" points="94.1,1.5 32.7,1.5 2,54.6 32.7,107.8 94.1,107.8 124.8,54.6 	"/>
	<path class="st0" d="M25.2,49.5l4.3,4.4l1.4,1.4L68,93.1"/>
	<path class="st0" d="M30.2,54.6l-3.6,4c-0.4,0.4-0.4,1,0,1.5l31.3,32c0.4,0.4,1,0.4,1.4,0l3.9-3.9"/>
	<path class="st0" d="M39.6,64.2L26.4,78c-0.4,0.4-0.4,1,0,1.4c0,0,0,0,0,0l12.5,12.7c0.4,0.4,1,0.4,1.4,0c0,0,0,0,0,0l13.5-13.4"/>
	<line class="st0" x1="44.3" y1="69" x2="25.1" y2="88.2"/>
	<line class="st0" x1="49" y1="73.8" x2="29.9" y2="93"/>
	<path class="st0" d="M58.6,83.6l-8.7,8.7c-0.4,0.4-1,0.4-1.4,0L26.1,69.6c-0.4-0.4-0.4-1,0-1.4c0,0,0,0,0,0l8.5-8.7"/>
	<line class="st0" x1="24.9" y1="59.4" x2="34.3" y2="59.4"/>
	<line class="st0" x1="24.9" y1="64.2" x2="39.4" y2="64.2"/>
	<line class="st0" x1="24.9" y1="69" x2="44.3" y2="69"/>
	<line class="st0" x1="25.1" y1="73.9" x2="49" y2="73.8"/>
	<line class="st0" x1="25.1" y1="78.8" x2="53.8" y2="78.7"/>
	<line class="st0" x1="25.1" y1="83.4" x2="58.6" y2="83.6"/>
	<line class="st0" x1="25.1" y1="88.2" x2="62.6" y2="88.3"/>
	<line class="st0" x1="25.2" y1="93.6" x2="25.1" y2="49.1"/>
	<line class="st0" x1="73" y1="93.1" x2="101.8" y2="93.1"/>
	<line class="st0" x1="24.7" y1="93.1" x2="68" y2="93.1"/>
	<path class="st0" d="M31.1,21.1h36.2c0.6,0,1,0.4,1,1v21.5c0,0.6-0.4,1-1,1H31.1c-0.6,0-1-0.4-1-1V22.1
		C30.1,21.5,30.5,21.1,31.1,21.1z"/>
	<path class="st0" d="M35.3,25H63c0.6,0,1,0.4,1,1v13.7c0,0.6-0.4,1-1,1H35.3c-0.6,0-1-0.4-1-1V26C34.3,25.4,34.7,25,35.3,25z"/>
	<path class="st0" d="M74,16.3h26.8c0.6,0,1,0.4,1,1V68c0,0.6-0.4,1-1,1H74c-0.6,0-1-0.4-1-1V17.3C73,16.7,73.5,16.3,74,16.3z"/>
	<path class="st0" d="M78.8,21.1H96c0.6,0,1,0.4,1,1v41.2c0,0.6-0.4,1-1,1H78.8c-0.6,0-1-0.4-1-1V22.1
		C77.8,21.5,78.3,21.1,78.8,21.1z"/>
	<path class="st0" d="M50.1,49.8h17.1c0.6,0,1,0.4,1,1v12.4c0,0.6-0.4,1-1,1H50.1c-0.6,0-1-0.4-1-1V50.8
		C49.1,50.3,49.6,49.8,50.1,49.8z"/>
	<path class="st0" d="M54.8,54.6h7.6c0.6,0,1,0.4,1,1v2.8c0,0.6-0.4,1-1,1h-7.6c-0.6,0-1-0.4-1-1v-2.8
		C53.8,55.1,54.3,54.6,54.8,54.6z"/>
	<line class="st0" x1="73" y1="16.3" x2="73" y2="1.5"/>
	<line class="st0" x1="101.8" y1="93.6" x2="101.8" y2="69"/>
	<path class="st0" d="M72.9,92.8l13.8-13.5c0.4-0.4,1-0.4,1.4,0c0,0,0,0,0,0l13.7,13.9"/>
	<line class="st0" x1="25.2" y1="49.5" x2="4.8" y2="49.5"/>
	<line class="st0" x1="101.8" y1="69" x2="116.6" y2="69"/>
	<line class="st0" x1="72.9" y1="92.5" x2="72.9" y2="108"/>
	<line class="st0" x1="67.9" y1="92.8" x2="67.9" y2="107.9"/>
</g>
</svg>
