<svg xmlns="http://www.w3.org/2000/svg" viewBox="0 0 122.79 106.51"><defs><style>.cls-1{fill:#3712fe;}.cls-2{fill:none;stroke:#ff4232;stroke-miterlimit:10;stroke-width:1.2px;}</style></defs><g id="Calque_2" data-name="Calque 2"><g id="Calque_1-2" data-name="Calque 1"><polygon class="cls-1" points="92.09 0 30.7 0 0 53.17 30.7 106.34 92.09 106.34 122.79 53.17 92.09 0"/><path class="cls-2" d="M23.15,48.06l4.32,4.4,1.4,1.42L66,91.64"/><path class="cls-2" d="M28.17,53.17l-3.65,4a1.09,1.09,0,0,0,0,1.46l31.3,31.95a1,1,0,0,0,1.4,0l3.9-3.9"/><path class="cls-2" d="M37.6,62.76,24.34,76.53a1,1,0,0,0,0,1.43l12.51,12.7a1,1,0,0,0,1.42,0L51.8,77.23"/><line class="cls-2" x1="42.3" y1="67.56" x2="23.11" y2="86.75"/><line class="cls-2" x1="47.01" y1="72.35" x2="27.82" y2="91.54"/><path class="cls-2" d="M56.6,82.11l-8.7,8.7a1,1,0,0,1-1.41,0L24.05,68.16a1,1,0,0,1,0-1.43L32.57,58"/><line class="cls-2" x1="22.85" y1="57.97" x2="32.26" y2="57.97"/><line class="cls-2" x1="22.85" y1="62.76" x2="37.33" y2="62.76"/><line class="cls-2" x1="22.85" y1="67.56" x2="42.3" y2="67.56"/><line class="cls-2" x1="23.06" y1="72.38" x2="47.01" y2="72.35"/><line class="cls-2" x1="23.06" y1="77.3" x2="51.8" y2="77.23"/><line class="cls-2" x1="23.03" y1="81.94" x2="56.6" y2="82.11"/><line class="cls-2" x1="23.11" y1="86.75" x2="60.57" y2="86.86"/><line class="cls-2" x1="23.15" y1="92.14" x2="23.03" y2="47.58"/><line class="cls-2" x1="70.96" y1="91.64" x2="99.76" y2="91.64"/><line class="cls-2" x1="22.7" y1="91.64" x2="65.96" y2="91.64"/><rect class="cls-2" x="28.02" y="19.6" width="38.17" height="23.5" rx="1"/><rect class="cls-2" x="32.26" y="23.52" width="29.69" height="15.67" rx="1"/><rect class="cls-2" x="70.99" y="14.8" width="28.77" height="52.75" rx="1"/><rect class="cls-2" x="75.78" y="19.6" width="19.18" height="43.16" rx="1"/><rect class="cls-2" x="47.11" y="48.37" width="19.08" height="14.39" rx="1"/><rect class="cls-2" x="51.8" y="53.17" width="9.59" height="4.8" rx="1"/><line class="cls-2" x1="70.99" y1="14.8" x2="70.99"/><line class="cls-2" x1="99.76" y1="92.14" x2="99.76" y2="67.56"/><path class="cls-2" d="M70.86,91.34l13.8-13.49a1,1,0,0,1,1.42,0L99.76,91.74"/><line class="cls-2" x1="23.15" y1="48.06" x2="2.78" y2="48.06"/><line class="cls-2" x1="99.76" y1="67.56" x2="114.6" y2="67.56"/><line class="cls-2" x1="70.86" y1="91.04" x2="70.86" y2="106.51"/><line class="cls-2" x1="65.86" y1="91.34" x2="65.86" y2="106.42"/></g></g></svg>