<svg xmlns="http://www.w3.org/2000/svg" viewBox="0 0 522.52 391.51">
  <defs>
    <style>
      .cls-1, .cls-2, .cls-3, .cls-4 {
        fill: none;
        stroke: #000;
      }

      .cls-1, .cls-2, .cls-4 {
        stroke-miterlimit: 10;
      }

      .cls-2, .cls-3, .cls-4 {
        stroke-width: 1.2px;
      }

      .cls-3 {
        stroke-linejoin: round;
      }

      .cls-4 {
        stroke-linecap: round;
      }
    </style>
  </defs>
  <g id="cci">
    <g>
      <polygon class="cls-1" points="92.67 227.15 31.27 227.15 0.58 280.32 31.27 333.49 92.67 333.49 123.37 280.32 92.67 227.15"/>
      <path class="cls-2" d="M75.22,295.49a19.17,19.17,0,1,1,1.3-28.3" transform="translate(-1.07 -0.68)"/>
      <path class="cls-2" d="M80.69,297.69A24.45,24.45,0,1,1,63.06,256.3" transform="translate(-1.07 -0.68)"/>
      <path class="cls-2" d="M80.69,297.69" transform="translate(-1.07 -0.68)"/>
      <path class="cls-2" d="M87.1,276.31a24.36,24.36,0,0,1-2.75,16.45" transform="translate(-1.07 -0.68)"/>
      <path class="cls-2" d="M87.1,276.31" transform="translate(-1.07 -0.68)"/>
      <path class="cls-2" d="M86.11,272.58" transform="translate(-1.07 -0.68)"/>
      <path class="cls-2" d="M82.23,265.58a24.43,24.43,0,0,1,3.88,7" transform="translate(-1.07 -0.68)"/>
      <path class="cls-2" d="M63.06,256.3a24.33,24.33,0,0,1,16.36,6.29" transform="translate(-1.07 -0.68)"/>
      <line class="cls-2" x1="85.44" y1="275.62" x2="120.66" y2="275.62"/>
      <line class="cls-2" x1="79.62" y1="297" x2="79.62" y2="333.49"/>
      <rect class="cls-2" x="23.6" y="242.05" width="43.17" height="38.37"/>
      <circle class="cls-2" cx="30.64" cy="249.37" r="2.24"/>
      <circle class="cls-2" cx="39.78" cy="249.37" r="2.24"/>
      <circle class="cls-2" cx="49.59" cy="249.37" r="2.24"/>
      <line class="cls-2" x1="67.11" y1="242.05" x2="101.28" y2="242.05"/>
    </g>
  </g>
  <g id="monstermotion">
    <g>
      <polygon class="cls-1" points="394 284.67 332.6 284.67 301.91 337.84 332.6 391.01 394 391.01 424.7 337.84 394 284.67"/>
      <rect class="cls-2" x="330.18" y="299.97" width="18.73" height="18.73"/>
      <polyline class="cls-2" points="334.49 323.95 354.16 323.95 354.16 304.91"/>
      <polyline class="cls-2" points="344.08 328.68 358.75 328.68 358.75 314.63"/>
      <circle class="cls-2" cx="384.42" cy="320.84" r="11.53"/>
      <path class="cls-2" d="M401.84,322.37a16.28,16.28,0,0,1-32.55,0" transform="translate(-1.07 -0.68)"/>
      <path class="cls-2" d="M398,343.3a17.73,17.73,0,0,1-12.53,4.88,18,18,0,0,1-11.73-4.13" transform="translate(-1.07 -0.68)"/>
      <path class="cls-2" d="M355,367.4a5.18,5.18,0,1,1-10.36,0" transform="translate(-1.07 -0.68)"/>
      <line class="cls-2" x1="308.43" y1="325.96" x2="406.69" y2="369.02"/>
      <polygon class="cls-2" points="348.52 352.36 334.49 366.72 363.3 366.72 348.52 352.36"/>
      <line class="cls-2" x1="348.52" y1="352.36" x2="348.52" y2="343.7"/>
      <line class="cls-2" x1="400.27" y1="321.69" x2="415.37" y2="321.69"/>
      <line class="cls-2" x1="354.16" y1="371.89" x2="373.23" y2="390.97"/>
      <line class="cls-2" x1="343.58" y1="371.89" x2="329.5" y2="385.98"/>
      <line class="cls-2" x1="348.91" y1="376.31" x2="348.91" y2="391.01"/>
      <line class="cls-2" x1="348.76" y1="284.67" x2="348.76" y2="299.97"/>
    </g>
  </g>
  <g id="taxepro">
    <g>
      <polygon class="cls-1" points="391.56 169.72 330.17 169.72 299.47 222.89 330.17 276.06 391.56 276.06 422.26 222.89 391.56 169.72"/>
      <path class="cls-2" d="M335.24,201.85" transform="translate(-1.07 -0.68)"/>
      <path class="cls-2" d="M335.24,201.85l-7-1.65-1.81,7.72,6.74,1.58a14.44,14.44,0,0,0,.53,3.56l-6,4,4.43,6.57,5.76-3.89a14.7,14.7,0,0,0,3,2L339.76,229l7.83,1.21,1.06-6.86a14.5,14.5,0,0,0,3.5-.8l4.49,5.66,6.21-4.92-4.31-5.44a14,14,0,0,0,1.82-3.11l7.18.56.6-7.9-6.89-.53a14.33,14.33,0,0,0-1.06-3.46l5.27-4.88-5.38-5.82L355,197.35a14.28,14.28,0,0,0-3.27-1.57v-7.17h-7.93v6.9" transform="translate(-1.07 -0.68)"/>
      <circle class="cls-2" cx="346.5" cy="208.11" r="4.3"/>
      <path class="cls-2" d="M383.14,224.05l.94-4-4.41-1-.91,3.85a8,8,0,0,0-2,.31l-2.31-3.42-3.75,2.53,2.22,3.29a7.63,7.63,0,0,0-1.16,1.7l-4.09-.64-.69,4.48,3.92.61a8.43,8.43,0,0,0,.46,2l-3.24,2.56,2.81,3.55,3.11-2.46a8.55,8.55,0,0,0,1.78,1l-.31,4.1,4.51.35.31-4a7.76,7.76,0,0,0,2-.6l2.79,3,3.33-3.07-2.68-2.9a8.07,8.07,0,0,0,.9-1.87h4.1V229h-3.95" transform="translate(-1.07 -0.68)"/>
      <circle class="cls-2" cx="378.1" cy="230.41" r="2.46"/>
      <line class="cls-2" x1="381.67" y1="223.36" x2="422.26" y2="223.36"/>
      <rect class="cls-2" x="375.3" y="189.52" width="14.34" height="19.33"/>
      <line class="cls-2" x1="379.73" y1="193.76" x2="385.78" y2="193.76"/>
      <line class="cls-2" x1="379.73" y1="199.01" x2="385.78" y2="199.01"/>
      <line class="cls-2" x1="379.73" y1="203.81" x2="385.78" y2="203.81"/>
      <rect class="cls-2" x="331.93" y="242.36" width="28.93" height="19"/>
      <line class="cls-2" x1="346.45" y1="261.48" x2="346.45" y2="242.36"/>
      <line class="cls-2" x1="336.89" y1="246.88" x2="342.21" y2="246.88"/>
      <line class="cls-2" x1="336.89" y1="251.77" x2="342.21" y2="251.77"/>
      <line class="cls-2" x1="336.89" y1="256.65" x2="342.21" y2="256.65"/>
      <line class="cls-2" x1="351.27" y1="246.97" x2="356.59" y2="246.97"/>
      <line class="cls-2" x1="351.27" y1="251.77" x2="356.59" y2="251.77"/>
      <line class="cls-2" x1="351.27" y1="256.65" x2="356.59" y2="256.65"/>
      <rect class="cls-2" x="351.27" y="237.52" width="4.65" height="4.65"/>
      <line class="cls-2" x1="343.26" y1="194.83" x2="315.99" y2="194.83"/>
      <line class="cls-2" x1="331.93" y1="261.36" x2="331.93" y2="276.06"/>
      <line class="cls-2" x1="389.64" y1="228.27" x2="419.94" y2="228.27"/>
      <line class="cls-2" x1="342.76" y1="187.92" x2="342.76" y2="169.72"/>
    </g>
  </g>
  <g id="island">
    <g>
      <polygon class="cls-1" points="294.11 226.83 232.72 226.83 202.02 280 232.72 333.17 294.11 333.17 324.81 280 294.11 226.83"/>
      <polygon class="cls-2" points="253.01 308.47 258.62 303.48 268.07 318.47 277.34 294.9 282.62 299.28 291.94 289.77 238.92 289.52 253.01 308.47"/>
      <path class="cls-2" d="M283.53,262v0Z" transform="translate(-1.07 -0.68)"/>
      <polyline class="cls-2" points="287.58 241.74 287.58 256.22 282.46 261.35 282.62 270.51 287.58 270.51 291.94 265.71"/>
      <polyline class="cls-2" points="268.12 256.48 272.99 265.96 277.8 265.96 282.46 265.96"/>
      <line class="cls-2" x1="277.8" y1="256.48" x2="277.8" y2="265.96"/>
      <path class="cls-2" d="M249.47,271" transform="translate(-1.07 -0.68)"/>
      <path class="cls-2" d="M254.89,280.09" transform="translate(-1.07 -0.68)"/>
      <path class="cls-2" d="M250.09,262" transform="translate(-1.07 -0.68)"/>
      <circle class="cls-2" cx="265.81" cy="263.74" r="2.4"/>
      <circle class="cls-2" cx="275.78" cy="248.51" r="2.02"/>
      <rect class="cls-2" x="244.23" y="280" width="9.52" height="9.52"/>
      <line class="cls-2" x1="234.57" y1="246.75" x2="234.57" y2="256.22"/>
      <line class="cls-2" x1="239.43" y1="256.12" x2="239.43" y2="264.91"/>
      <line class="cls-2" x1="244.23" y1="246.49" x2="244.23" y2="251.49"/>
      <line class="cls-2" x1="248.99" y1="256.48" x2="248.99" y2="261.35"/>
      <line class="cls-2" x1="244.23" y1="261.35" x2="244.23" y2="265.7"/>
      <line class="cls-2" x1="253.82" y1="256.22" x2="253.82" y2="265.7"/>
      <line class="cls-2" x1="258.62" y1="246.49" x2="258.62" y2="255.53"/>
      <line class="cls-2" x1="248.7" y1="270.31" x2="248.7" y2="275.31"/>
      <circle class="cls-2" cx="234.29" cy="299.23" r="4.85"/>
      <line class="cls-2" x1="268.17" y1="318.47" x2="263.42" y2="333.27"/>
      <line class="cls-2" x1="287.59" y1="241.74" x2="287.59" y2="226.83"/>
      <line class="cls-2" x1="258.62" y1="246.49" x2="258.62" y2="226.23"/>
      <line class="cls-2" x1="234.57" y1="246.75" x2="234.57" y2="226.83"/>
      <line class="cls-2" x1="291.94" y1="265.71" x2="316.09" y2="265.71"/>
    </g>
  </g>
  <g id="breakout">
    <g>
      <polygon class="cls-1" points="291.75 113.81 230.36 113.81 199.66 166.98 230.36 220.15 291.75 220.15 322.45 166.98 291.75 113.81"/>
      <rect class="cls-2" x="232.51" y="133.49" width="4.62" height="28.77"/>
      <rect class="cls-2" x="264.34" y="151.34" width="5.04" height="67.01" transform="translate(450.63 -82.7) rotate(90)"/>
      <rect class="cls-2" x="289.83" y="128.72" width="4.62" height="28.77"/>
      <circle class="cls-2" cx="241.65" cy="195.57" r="4.52"/>
      <circle class="cls-2" cx="263.58" cy="145.28" r="7.2"/>
      <polyline class="cls-2" points="280.66 171.81 263.58 157.49 246.16 171.88"/>
      <path class="cls-2" d="M281.73,172.49" transform="translate(-1.07 -0.68)"/>
      <path class="cls-2" d="M247.23,172.56" transform="translate(-1.07 -0.68)"/>
      <line class="cls-2" x1="221.87" y1="205.45" x2="299.42" y2="205.46"/>
      <line class="cls-2" x1="289.83" y1="128.72" x2="289.83" y2="113.81"/>
      <line class="cls-2" x1="299.29" y1="181.64" x2="314.16" y2="181.64"/>
    </g>
  </g>
  <g id="ikea">
    <g>
      <polygon class="cls-1" points="490.89 226.93 429.5 226.93 398.8 280.1 429.5 333.27 490.89 333.27 521.59 280.1 490.89 226.93"/>
      <polygon class="cls-2" points="489.01 294.59 489.01 318.58 431.42 318.58 431.42 294.47 436.22 294.47 436.22 308.94 484.24 308.94 484.24 294.57 489.01 294.59"/>
      <rect class="cls-2" x="460.2" y="289.67" width="24" height="14.43"/>
      <rect class="cls-2" x="436.22" y="289.67" width="24" height="14.43"/>
      <line class="cls-2" x1="460.2" y1="227.14" x2="460.2" y2="256.22"/>
      <circle class="cls-2" cx="460.27" cy="260.86" r="4.74"/>
      <line class="cls-2" x1="445.56" y1="226.74" x2="445.56" y2="261.19"/>
      <circle class="cls-2" cx="445.73" cy="265.83" r="4.78"/>
      <polyline class="cls-3" points="484.2 289.67 489.01 285 465.01 285"/>
      <line class="cls-2" x1="484.24" y1="294.57" x2="489.02" y2="289.79"/>
      <line class="cls-2" x1="489.01" y1="294.59" x2="493.77" y2="289.83"/>
      <line class="cls-2" x1="493.43" y1="328.54" x2="493.43" y2="289.67"/>
      <polyline class="cls-2" points="431.22 294.47 436.22 289.67 441.23 284.93 465.01 285 460.22 289.67"/>
      <polyline class="cls-2" points="489.01 285 489.02 289.8 493.77 289.8"/>
      <polyline class="cls-2" points="421.88 250.97 426.63 250.97 431.22 260.86 431.22 274.58 436.22 270.62 436.22 275.8 431.42 280.1 426.63 280.1 426.63 270.26 421.83 270.26"/>
      <line class="cls-2" x1="421.83" y1="270.26" x2="421.83" y2="319.99"/>
      <line class="cls-2" x1="421.88" y1="250.97" x2="415.62" y2="250.97"/>
      <rect class="cls-2" x="479.38" y="247.08" width="19.18" height="27.97"/>
      <line class="cls-2" x1="479.17" y1="256.12" x2="507.66" y2="256.12"/>
      <line class="cls-2" x1="488.97" y1="275.27" x2="488.97" y2="227.14"/>
    </g>
  </g>
  <g id="reve">
    <g>
      <polygon class="cls-1" points="192.34 171.28 130.94 171.28 100.24 224.45 130.94 277.63 192.34 277.63 223.03 224.45 192.34 171.28"/>
      <polygon class="cls-2" points="127.94 196 132.5 196 132.5 200.58 137.75 200.58 137.75 195.78 142.54 195.78 142.54 200.58 147.1 200.58 147.1 196 152.04 196 152.04 224.51 152.04 262.92 127.94 262.92 127.94 196"/>
      <line class="cls-2" x1="223.21" y1="224.59" x2="152.04" y2="224.51"/>
      <line class="cls-2" x1="166.32" y1="277.92" x2="166.32" y2="238.94"/>
      <line class="cls-2" x1="185.19" y1="277.59" x2="185.19" y2="238.94"/>
      <path class="cls-2" d="M167.4,239.51a9.38,9.38,0,0,1,18.76,0" transform="translate(-1.07 -0.68)"/>
      <rect class="cls-2" x="137.75" y="209.91" width="4.63" height="9.85"/>
      <circle class="cls-2" cx="176.06" cy="200.79" r="9.35"/>
      <line class="cls-2" x1="127.94" y1="196" x2="127.94" y2="176.48"/>
      <line class="cls-2" x1="127.94" y1="262.92" x2="122.45" y2="262.92"/>
      <polyline class="cls-2" points="161.22 224.45 161.22 214.96 166.32 214.96 166.32 219.71 171.23 219.71 171.23 214.84 175.71 214.84 175.71 219.65 180.78 219.65 180.78 214.84 185.09 214.84 185.09 219.65 189.99 219.65 189.99 196 189.99 191.08 194.82 191.08 194.82 195.78 199.65 195.78 206.69 195.78"/>
      <circle class="cls-2" cx="159.31" cy="188.97" r="2.47"/>
    </g>
  </g>
  <g id="roadtrip">
    <g>
      <polygon class="cls-1" points="490.89 113.66 429.5 113.66 398.8 166.82 429.5 220 490.89 220 521.59 166.82 490.89 113.66"/>
      <polyline class="cls-2" points="458.84 148.02 455.65 148.02 455.65 128.74 489.36 128.84 489.36 143.02"/>
      <path class="cls-2" d="M430.88,196.38" transform="translate(-1.07 -0.68)"/>
      <polyline class="cls-2" points="489.36 128.71 498.51 135.18 498.51 147.51 491.16 147.51"/>
      <circle class="cls-2" cx="465.17" cy="147.13" r="4.67"/>
      <path class="cls-2" d="M490.08,147.81a4.67,4.67,0,1,1-4.67-4.67,4.68,4.68,0,0,1,4.67,4.67" transform="translate(-1.07 -0.68)"/>
      <line class="cls-2" x1="421.51" y1="127.91" x2="436.2" y2="142.95"/>
      <line class="cls-2" x1="436.2" y1="133.36" x2="426.85" y2="142.97"/>
      <line class="cls-2" x1="436.22" y1="138.08" x2="445.87" y2="138.08"/>
      <line class="cls-2" x1="450.65" y1="166.93" x2="460.24" y2="166.93"/>
      <line class="cls-2" x1="465.08" y1="166.93" x2="474.73" y2="166.93"/>
      <line class="cls-2" x1="479.35" y1="166.83" x2="488.97" y2="166.83"/>
      <line class="cls-2" x1="488.72" y1="171.91" x2="479.37" y2="181.26"/>
      <circle class="cls-2" cx="484.42" cy="190.71" r="4.37"/>
      <rect class="cls-2" x="422.05" y="157.56" width="9.13" height="9.13"/>
      <circle class="cls-2" cx="426.56" cy="162.02" r="2.23"/>
      <polyline class="cls-2" points="421.83 157.56 426.74 152.4 431.42 157.56"/>
      <line class="cls-2" x1="422.05" y1="166.69" x2="422.05" y2="207.08"/>
      <line class="cls-2" x1="431.18" y1="166.69" x2="431.18" y2="220.15"/>
      <line class="cls-2" x1="424.32" y1="168.22" x2="424.32" y2="210.65"/>
      <line class="cls-2" x1="426.56" y1="168.22" x2="426.56" y2="214.85"/>
      <line class="cls-2" x1="428.79" y1="168.22" x2="428.79" y2="218.85"/>
      <line class="cls-2" x1="445.81" y1="142.97" x2="445.81" y2="152.4"/>
      <line class="cls-2" x1="445.81" y1="157.56" x2="445.81" y2="166.69"/>
      <line class="cls-2" x1="474.58" y1="181.31" x2="465.17" y2="181.31"/>
      <line class="cls-2" x1="460.2" y1="181.31" x2="450.65" y2="190.9"/>
      <line class="cls-2" x1="445.6" y1="195.92" x2="445.6" y2="205.29"/>
      <line class="cls-2" x1="450.4" y1="205.29" x2="459.99" y2="205.29"/>
      <line class="cls-2" x1="464.79" y1="200.5" x2="474.36" y2="190.92"/>
      <line class="cls-2" x1="489.36" y1="128.71" x2="499.59" y2="128.71"/>
      <line class="cls-2" x1="498.51" y1="147.51" x2="498.51" y2="206.29"/>
    </g>
  </g>
  <g id="archibald">
    <g>
      <polygon class="cls-1" points="92.92 113.81 31.52 113.81 0.82 166.98 31.52 220.15 92.92 220.15 123.61 166.98 92.92 113.81"/>
      <circle class="cls-2" cx="59.82" cy="165.08" r="26.38"/>
      <circle class="cls-2" cx="59.82" cy="164.68" r="7.19"/>
      <path class="cls-2" d="M45.8,165.46a15.09,15.09,0,0,1,24.55-11.75" transform="translate(-1.07 -0.68)"/>
      <path class="cls-2" d="M75.77,163a14.59,14.59,0,0,1,.21,2.49c0,8.33-6.9,13.56-15.09,15.09" transform="translate(-1.07 -0.68)"/>
      <path class="cls-2" d="M70.35,153.71A15,15,0,0,1,75.77,163" transform="translate(-1.07 -0.68)"/>
      <path class="cls-2" d="M53.63,148.58" transform="translate(-1.07 -0.68)"/>
      <path class="cls-2" d="M42.24,165.76a18.67,18.67,0,0,1,1.61-7.59" transform="translate(-1.07 -0.68)"/>
      <path class="cls-2" d="M79.33,163a18.32,18.32,0,0,1,.21,2.79" transform="translate(-1.07 -0.68)"/>
      <path class="cls-2" d="M72.88,151.48A18.58,18.58,0,0,1,79.33,163" transform="translate(-1.07 -0.68)"/>
      <path class="cls-2" d="M72.88,151.48" transform="translate(-1.07 -0.68)"/>
      <rect class="cls-2" x="43.04" y="171.88" width="4.8" height="28.77"/>
      <line class="cls-2" x1="103.99" y1="200.65" x2="46.26" y2="200.65"/>
      <line class="cls-2" x1="102.57" y1="205.34" x2="42.84" y2="205.34"/>
      <line class="cls-2" x1="95.79" y1="171.88" x2="95.79" y2="118.56"/>
      <line class="cls-2" x1="76.61" y1="133.51" x2="20.15" y2="133.51"/>
    </g>
  </g>
  <g id="microfluidique">
    <g>
      <polygon class="cls-1" points="491.24 0.5 429.85 0.5 399.15 53.67 429.85 106.84 491.24 106.84 521.94 53.67 491.24 0.5"/>
      <circle class="cls-2" cx="431.87" cy="20.4" r="4.7"/>
      <circle class="cls-2" cx="489.28" cy="87.34" r="4.7"/>
      <polyline class="cls-2" points="431.87 25.39 431.87 44.37 489.28 44.37 489.28 48.98 431.76 48.98 431.76 53.77 489.47 53.77 489.47 58.32 431.87 58.32 431.87 63.36 489.47 63.36 489.47 68.16 431.87 68.16 431.87 77.75 450.68 77.75"/>
      <polyline class="cls-2" points="475.14 77.24 489.28 77.24 489.28 82.55"/>
      <rect class="cls-2" x="451.06" y="73.23" width="23.89" height="8.98"/>
      <circle class="cls-2" cx="453.4" cy="15.75" r="2.35"/>
      <circle class="cls-2" cx="482.21" cy="15.8" r="2.29"/>
      <polyline class="cls-2" points="455.18 15.51 460.53 15.51 460.61 25.1 455.8 25.1 455.8 29.79 469.98 29.84 479.61 29.84 479.61 25.1 474.93 25.1 474.93 15.25 480.14 15.25"/>
      <line class="cls-2" x1="467.81" y1="29.79" x2="467.81" y2="44.37"/>
      <rect class="cls-2" x="475.36" y="34.81" width="9.56" height="4.57"/>
      <rect class="cls-2" x="450.97" y="34.79" width="9.56" height="4.57"/>
      <line class="cls-2" x1="455.75" y1="82.64" x2="455.75" y2="107.04"/>
      <line class="cls-2" x1="470.14" y1="82.64" x2="470.14" y2="107.04"/>
      <line class="cls-2" x1="441.36" y1="77.75" x2="431.07" y2="88.14"/>
      <circle class="cls-2" cx="429.46" cy="89.63" r="2.29"/>
      <path class="cls-1" d="M461.6,16.19" transform="translate(-1.07 -0.68)"/>
      <line class="cls-2" x1="460.61" y1="0.5" x2="460.61" y2="15.51"/>
      <line class="cls-2" x1="474.93" y1="15.25" x2="474.93" y2="0.5"/>
    </g>
  </g>
  <g id="ostara">
    <g>
      <g>
        <polygon class="cls-1" points="391.44 54.77 330.04 54.77 299.34 107.94 330.04 161.11 391.44 161.11 422.14 107.94 391.44 54.77"/>
        <path class="cls-1" d="M356.93,80.19" transform="translate(-1.07 -0.68)"/>
        <polyline class="cls-4" points="370.36 136.61 370.36 108.25 375.4 103.16 375.21 93.66"/>
        <line class="cls-4" x1="384.72" y1="103.25" x2="384.72" y2="136.7"/>
        <polyline class="cls-4" points="384.72 53.65 384.72 93.65 384.72 103.25 389.79 93.66"/>
        <line class="cls-4" x1="398.9" y1="83.97" x2="394.31" y2="88.95"/>
        <line class="cls-4" x1="384.72" y1="83.97" x2="389.79" y2="79.27"/>
        <polyline class="cls-4" points="370.33 79.51 375.13 84.13 379.68 88.51 379.68 93.65 379.68 103.25 379.68 136.69"/>
        <line class="cls-4" x1="379.68" y1="79.27" x2="375.13" y2="84.13"/>
        <line class="cls-4" x1="379.68" y1="88.51" x2="370.33" y2="88.51"/>
        <polyline class="cls-4" points="373 91.55 379.68 98.5 384.72 93.65 389.51 88.95 411.11 88.95"/>
        <line class="cls-4" x1="375.13" y1="107.94" x2="379.68" y2="108.1"/>
        <polyline class="cls-4" points="370.36 84.13 370.36 108.25 365.74 103.25"/>
        <polyline class="cls-4" points="365.74 93.72 365.74 103.25 360.86 98.45 360.86 88.95"/>
        <line class="cls-4" x1="355.96" y1="88.51" x2="360.23" y2="93.73"/>
        <line class="cls-4" x1="365.74" y1="103.25" x2="360.74" y2="107.94"/>
        <path class="cls-4" d="M342.63,84.81" transform="translate(-1.07 -0.68)"/>
        <circle class="cls-4" cx="346.07" cy="112.84" r="4.15"/>
        <circle class="cls-4" cx="341.94" cy="117.58" r="13.92"/>
        <polyline class="cls-4" points="341.84 78.36 346.35 83.82 336.82 93.55 327.29 83.82 336.82 70.29"/>
        <line class="cls-4" x1="336.82" y1="78.8" x2="336.82" y2="87.46"/>
      </g>
      <path class="cls-4" d="M316.71,137.38h0Z" transform="translate(-1.07 -0.68)"/>
      <polyline class="cls-4" points="360.86 141.61 370.36 136.61 379.68 141.61 379.68 146.41"/>
      <line class="cls-4" x1="384.72" y1="136.7" x2="389.79" y2="141.61"/>
      <line class="cls-4" x1="379.68" y1="146.41" x2="379.68" y2="161.11"/>
      <line class="cls-4" x1="337.24" y1="70.91" x2="337.24" y2="55.39"/>
    </g>
  </g>
  <g id="louvre">
    <g>
      <polygon class="cls-1" points="92.92 0.53 31.52 0.53 0.82 53.7 31.52 106.87 92.92 106.87 123.61 53.7 92.92 0.53"/>
      <path class="cls-2" d="M25,49.27l4.32,4.4,1.4,1.43L67.85,92.85" transform="translate(-1.07 -0.68)"/>
      <path class="cls-2" d="M30.06,54.38l-3.65,4.06a1.08,1.08,0,0,0,0,1.45l31.3,32a1,1,0,0,0,1.4,0L63,88" transform="translate(-1.07 -0.68)"/>
      <path class="cls-2" d="M39.5,64,26.23,77.74a1,1,0,0,0,0,1.43L38.75,91.88a1,1,0,0,0,1.41,0L53.7,78.44" transform="translate(-1.07 -0.68)"/>
      <line class="cls-2" x1="43.13" y1="68.09" x2="23.93" y2="87.28"/>
      <line class="cls-2" x1="47.83" y1="72.88" x2="28.65" y2="92.07"/>
      <path class="cls-2" d="M58.49,83.32,49.79,92a1,1,0,0,1-1.41,0L26,69.38a1,1,0,0,1,0-1.43l8.52-8.79" transform="translate(-1.07 -0.68)"/>
      <path class="cls-2" d="M24.74,59.18" transform="translate(-1.07 -0.68)"/>
      <path class="cls-2" d="M24.74,64" transform="translate(-1.07 -0.68)"/>
      <line class="cls-2" x1="23.67" y1="58.5" x2="33.09" y2="58.5"/>
      <line class="cls-2" x1="23.67" y1="63.29" x2="38.15" y2="63.29"/>
      <line class="cls-2" x1="23.67" y1="68.09" x2="43.13" y2="68.09"/>
      <line class="cls-2" x1="23.88" y1="72.91" x2="47.83" y2="72.88"/>
      <line class="cls-2" x1="23.88" y1="77.83" x2="52.63" y2="77.76"/>
      <line class="cls-2" x1="23.85" y1="82.47" x2="57.42" y2="82.64"/>
      <line class="cls-2" x1="23.93" y1="87.28" x2="61.39" y2="87.39"/>
      <line class="cls-2" x1="23.97" y1="92.67" x2="23.85" y2="48.11"/>
      <line class="cls-2" x1="71.79" y1="92.17" x2="100.59" y2="92.17"/>
      <line class="cls-2" x1="23.52" y1="92.17" x2="66.79" y2="92.17"/>
      <rect class="cls-2" x="28.85" y="20.13" width="38.17" height="23.5" rx="1"/>
      <rect class="cls-2" x="33.09" y="24.05" width="29.69" height="15.67" rx="1"/>
      <rect class="cls-2" x="71.81" y="15.33" width="28.77" height="52.75" rx="1"/>
      <rect class="cls-2" x="76.61" y="20.13" width="19.18" height="43.16" rx="1"/>
      <rect class="cls-2" x="47.93" y="48.9" width="19.08" height="14.39" rx="1"/>
      <rect class="cls-2" x="52.63" y="53.7" width="9.59" height="4.8" rx="1"/>
      <line class="cls-2" x1="71.81" y1="15.33" x2="71.81" y2="0.53"/>
      <line class="cls-2" x1="100.59" y1="92.67" x2="100.59" y2="68.09"/>
      <path class="cls-2" d="M72.75,92.55l13.8-13.48a1,1,0,0,1,1.42,0L101.65,93" transform="translate(-1.07 -0.68)"/>
      <line class="cls-2" x1="23.97" y1="48.59" x2="3.61" y2="48.59"/>
      <line class="cls-2" x1="100.59" y1="68.09" x2="115.43" y2="68.09"/>
      <line class="cls-2" x1="71.68" y1="91.57" x2="71.68" y2="107.04"/>
      <line class="cls-2" x1="66.69" y1="91.87" x2="66.69" y2="106.95"/>
    </g>
  </g>
  <g id="dataviz">
    <g>
      <polygon class="cls-1" points="192.42 55.98 131.03 55.98 100.33 109.15 131.03 162.32 192.42 162.32 223.12 109.15 192.42 55.98"/>
      <g>
        <circle class="cls-2" cx="142.47" cy="90.17" r="18.84"/>
        <path class="cls-2" d="M146,92" transform="translate(-1.07 -0.68)"/>
        <line class="cls-2" x1="142.81" y1="90.2" x2="157.87" y2="80.12"/>
        <path class="cls-2" d="M177.34,79.35h7.05a1.42,1.42,0,0,1,1.42,1.42v38.13a0,0,0,0,1,0,0h-9.89a0,0,0,0,1,0,0V80.77A1.42,1.42,0,0,1,177.34,79.35Z"/>
        <path class="cls-2" d="M200.8,119.68h-9.58V91.49a1.07,1.07,0,0,1,1.12-1.42h7a1.42,1.42,0,0,1,1.41,1.42Z" transform="translate(-1.07 -0.68)"/>
        <line class="cls-2" x1="105.99" y1="119.19" x2="217.24" y2="119.19"/>
        <path class="cls-2" d="M134.19,120.08l4.65,8.78a.47.47,0,0,0,.54.09l13.28-4.41a.47.47,0,0,1,.54.08l9.54,9.32a.6.6,0,0,0,.25.13l27.48,9.71h14.26" transform="translate(-1.07 -0.68)"/>
        <path class="cls-2" d="M125,120.13l13.71,18.72a.47.47,0,0,0,.59.13l13.63-4.12a.49.49,0,0,1,.56.1l9,13.37a.45.45,0,0,0,.62.06l22.46-19.57a.48.48,0,0,1,.28-.1l27.71.05" transform="translate(-1.07 -0.68)"/>
        <path class="cls-2" d="M162.81,109.24H170a1.42,1.42,0,0,1,1.42,1.42v8.47a0,0,0,0,1,0,0h-10a0,0,0,0,1,0,0v-8.47A1.42,1.42,0,0,1,162.81,109.24Z"/>
        <polyline class="cls-2" points="161.49 90.36 142.76 90.24 142.76 55.84"/>
      </g>
    </g>
  </g>
  <g id="chatbox">
    <g>
      <polygon class="cls-1" points="291.93 0.7 230.53 0.7 199.84 53.87 230.53 107.04 291.93 107.04 322.63 53.87 291.93 0.7"/>
      <path class="cls-2" d="M228.62,17.45a1,1,0,0,1,1-1H261.3a1,1,0,0,1,1,1V48.72a1,1,0,0,1-1,1H234.53a1.78,1.78,0,0,0-1.45.9l-4,7.94c-.25.49-.45.44-.45-.11Z" transform="translate(-1.07 -0.68)"/>
      <path class="cls-2" d="M248.71,68.57a1,1,0,0,1-1-1l.15-21.92a1,1,0,0,1,1-1h50.9a1,1,0,0,1,1,1l-.14,31.86c0,.55-.32.68-.71.28l-8.13-8.28a2.77,2.77,0,0,0-1.7-.72Z" transform="translate(-1.07 -0.68)"/>
      <circle class="cls-2" cx="284.89" cy="29.85" r="9.27"/>
      <circle class="cls-2" cx="236.97" cy="82.93" r="9.19"/>
      <circle class="cls-2" cx="263.52" cy="85.18" r="2.36"/>
      <circle class="cls-2" cx="273.17" cy="85.15" r="2.5"/>
      <circle class="cls-2" cx="282.78" cy="85.18" r="2.36"/>
      <line class="cls-2" x1="294.16" y1="43.96" x2="316.91" y2="43.96"/>
      <line class="cls-2" x1="261.26" y1="92.22" x2="300.69" y2="92.22"/>
      <line class="cls-2" x1="298.65" y1="76.81" x2="305.43" y2="84.1"/>
      <line class="cls-2" x1="227.55" y1="18.56" x2="227.55" y2="6.21"/>
    </g>
  </g>
</svg>
