<?xml version="1.0" encoding="UTF-8"?>
<svg width="55px" height="55px" viewBox="0 0 55 55" version="1.1" xmlns="http://www.w3.org/2000/svg" xmlns:xlink="http://www.w3.org/1999/xlink">
    <!-- Generator: Sketch 55.2 (78181) - https://sketchapp.com -->
    <title>+</title>
    <desc>Created with Sketch.</desc>
    <defs>
        <circle id="path-1" cx="27.5" cy="27.5" r="27.5"></circle>
        <polygon id="path-3" points="0 0 21 0 21 27 0 27"></polygon>
    </defs>
    <g id="index" stroke="none" stroke-width="1" fill="none" fill-rule="evenodd">
        <g id="Desktop" transform="translate(-613.000000, -3029.000000)">
            <g id="+" transform="translate(613.000000, 3029.000000)">
                <g id="Oval">
                    <mask id="mask-2" fill="white">
                        <use xlink:href="#path-1"></use>
                    </mask>
                    <use id="Mask" fill="#EFE721" xlink:href="#path-1"></use>
                </g>
                <g id="Group-3" transform="translate(17.000000, 13.000000)">
                    <mask id="mask-4" fill="white">
                        <use xlink:href="#path-3"></use>
                    </mask>
                    <g id="Clip-2"></g>
                    <path d="M16.3759026,24.5698213 L4.62367347,24.5698213 L2.66496862,13.8484447 L9.1437616,5.12839179 L9.1437616,13.3481138 C8.31507877,13.7769689 7.71240036,14.6353938 7.71240036,15.563865 C7.71240036,16.9933819 8.91775719,18.1369954 10.4244532,18.1369954 C11.9319026,18.1369954 13.1365061,16.9933819 13.1365061,15.563865 C13.1365061,14.5632032 12.5338277,13.7769689 11.7051449,13.3481138 L11.7051449,5.12839179 L18.1839378,13.8484447 L16.3759026,24.5698213 Z M11.5552286,0.482461946 C11.1024664,-0.160820649 9.89710962,-0.160820649 9.4451008,0.482461946 L0.254254957,12.7763071 C0.0282505508,13.0622105 -0.0470842513,13.3481138 0.0282505508,13.7054931 L2.21295981,25.9993382 C2.28829461,26.5711449 2.89097303,27 3.49365144,27 L17.5059246,27 C18.108603,27 18.7120348,26.5711449 18.7866163,25.9993382 L20.9720789,13.7054931 C21.0466603,13.3481138 20.9720789,13.0622105 20.7453211,12.7763071 L11.5552286,0.482461946 Z" id="Fill-1" fill="#094349" mask="url(#mask-4)"></path>
                </g>
            </g>
        </g>
    </g>
</svg>