<?xml version="1.0" encoding="UTF-8"?>
<svg width="66px" height="65px" viewBox="0 0 66 65" version="1.1" xmlns="http://www.w3.org/2000/svg" xmlns:xlink="http://www.w3.org/1999/xlink">
    <!-- Generator: Sketch 55.2 (78181) - https://sketchapp.com -->
    <title>Group 9</title>
    <desc>Created with Sketch.</desc>
    <g id="Page-1" stroke="none" stroke-width="1" fill="none" fill-rule="evenodd">
        <g id="Desktop" transform="translate(-350.000000, -3549.000000)">
            <g id="Group-9" transform="translate(350.000000, 3549.000000)">
                <path d="M33.0002253,0 C14.7753057,0 0,14.5504506 0,32.4991125 C0,50.4499932 14.7753057,65 33.0002253,65 C51.2255955,65 66,50.4499932 66,32.4991125 C66,14.5517818 51.2264966,0.00133123976 32.9997747,0.00133123976 L33.0002253,0 Z" id="Fill-1" fill="#EFDC1F"></path>
                <path d="M47.7025711,47.0132923 C47.120946,47.9854617 45.8776393,48.2899967 44.926251,47.6980455 C37.3191253,42.9624364 27.7446471,41.8929599 16.468639,44.5161955 C15.3823491,44.770275 14.2991552,44.0760613 14.051467,42.9696443 C13.8024518,41.8627767 14.4809407,40.7599636 15.5703268,40.5081366 C27.9096252,37.6344255 38.49476,38.8714863 47.0329282,44.1855318 C47.9847588,44.7801859 48.2859654,46.0451774 47.7021288,47.0141933 L47.7025711,47.0132923 Z" id="Fill-3" fill="#FFFDFD"></path>
                <path d="M51.6206168,37.7745839 C50.8767674,38.9832783 49.2983334,39.3623442 48.0927224,38.6204002 C39.2518747,33.1799266 25.7700536,31.6038575 15.3107944,34.7825258 C13.9547067,35.1926185 12.5218084,34.427292 12.1099063,33.0715578 C11.7015976,31.7135753 12.4661095,30.2822978 13.8204005,29.8695071 C25.7678077,26.2402764 40.6209888,27.998459 50.775701,34.2451784 C51.9822103,34.9884715 52.3626695,36.5690372 51.6206168,37.7750336 L51.6206168,37.7745839 Z" id="Fill-5" fill="#FFFDFD"></path>
                <path d="M52.337161,28.5750317 C41.6959102,22.3771279 24.1428947,21.8073327 13.9843946,24.830916 C12.3531388,25.3162807 10.6281275,24.4131841 10.1336573,22.8134256 C9.63918712,21.2132251 10.5591631,19.5224055 12.1922219,19.0361567 C23.8530639,15.5643404 43.2383687,16.2349216 55.488338,23.3668652 C56.9555216,24.2204528 57.4364694,26.0792493 56.5674279,27.5158934 C55.7001894,28.9547478 53.7998372,29.4295034 52.337161,28.5750317" id="Fill-7" fill="#FFFDFD"></path>
            </g>
        </g>
    </g>
</svg>