<?xml version="1.0" encoding="UTF-8"?>
<svg width="66px" height="55px" viewBox="0 0 66 55" version="1.1" xmlns="http://www.w3.org/2000/svg" xmlns:xlink="http://www.w3.org/1999/xlink">
    <!-- Generator: Sketch 55.2 (78181) - https://sketchapp.com -->
    <title>Group 3</title>
    <desc>Created with Sketch.</desc>
    <defs>
        <polygon id="path-1" points="0 0 66 0 66 55 0 55"></polygon>
    </defs>
    <g id="Page-1" stroke="none" stroke-width="1" fill="none" fill-rule="evenodd">
        <g id="Desktop" transform="translate(-869.000000, -3554.000000)">
            <g id="Group-3" transform="translate(869.000000, 3554.000000)">
                <mask id="mask-2" fill="white">
                    <use xlink:href="#path-1"></use>
                </mask>
                <g id="Clip-2"></g>
                <path d="M20.7565714,55 C45.6638571,55 59.2838571,33.842334 59.2838571,15.4953778 C59.2838571,14.8937734 59.2718571,14.2956846 59.2457143,13.700672 C61.89,11.7407336 64.188,9.29476577 66,6.51042291 C63.5738571,7.61651366 60.963,8.36049921 58.224,8.69623753 C61.0195714,6.97755619 63.1658571,4.25825164 64.1785714,1.01644335 C61.5621429,2.60680585 58.6645714,3.76255423 55.5801429,4.38657047 C53.1085714,1.68791997 49.5908571,0 45.6955714,0 C38.2178571,0 32.154,6.21818995 32.154,13.8830429 C32.154,14.9724346 32.2722857,16.0323833 32.5045714,17.0492661 C21.2502857,16.4678763 11.271,10.9431354 4.593,2.54176754 C3.43028571,4.59398995 2.75957143,6.97755619 2.75957143,9.52064207 C2.75957143,14.3378716 5.15014286,18.5904104 8.78528571,21.0785653 C6.564,21.0078142 4.47728571,20.3829191 2.65285714,19.3414272 C2.65071429,19.3998738 2.65071429,19.4565626 2.65071429,19.5189642 C2.65071429,26.2433983 7.31871429,31.8577866 13.5145714,33.1299887 C12.3762857,33.4481491 11.1792857,33.618655 9.94414286,33.618655 C9.07242857,33.618655 8.22385714,33.5307654 7.39885714,33.3681696 C9.12257143,38.8850004 14.1218571,42.8997979 20.0485714,43.0122966 C15.414,46.7366188 9.57557143,48.955392 3.23014286,48.955392 C2.13857143,48.955392 1.06028571,48.8916721 0,48.7633532 C5.99314286,52.7021261 13.1091429,55 20.7574286,55" id="Fill-1" fill="#102ABF" mask="url(#mask-2)"></path>
            </g>
        </g>
    </g>
</svg>